G04 #@! TF.GenerationSoftware,KiCad,Pcbnew,7.0.5*
G04 #@! TF.CreationDate,2023-11-30T10:19:55+10:00*
G04 #@! TF.ProjectId,HEXCORE PCB Design v0,48455843-4f52-4452-9050-434220446573,rev?*
G04 #@! TF.SameCoordinates,Original*
G04 #@! TF.FileFunction,Soldermask,Bot*
G04 #@! TF.FilePolarity,Negative*
%FSLAX46Y46*%
G04 Gerber Fmt 4.6, Leading zero omitted, Abs format (unit mm)*
G04 Created by KiCad (PCBNEW 7.0.5) date 2023-11-30 10:19:55*
%MOMM*%
%LPD*%
G01*
G04 APERTURE LIST*
G04 Aperture macros list*
%AMRoundRect*
0 Rectangle with rounded corners*
0 $1 Rounding radius*
0 $2 $3 $4 $5 $6 $7 $8 $9 X,Y pos of 4 corners*
0 Add a 4 corners polygon primitive as box body*
4,1,4,$2,$3,$4,$5,$6,$7,$8,$9,$2,$3,0*
0 Add four circle primitives for the rounded corners*
1,1,$1+$1,$2,$3*
1,1,$1+$1,$4,$5*
1,1,$1+$1,$6,$7*
1,1,$1+$1,$8,$9*
0 Add four rect primitives between the rounded corners*
20,1,$1+$1,$2,$3,$4,$5,0*
20,1,$1+$1,$4,$5,$6,$7,0*
20,1,$1+$1,$6,$7,$8,$9,0*
20,1,$1+$1,$8,$9,$2,$3,0*%
G04 Aperture macros list end*
%ADD10R,1.700000X1.700000*%
%ADD11O,1.700000X1.700000*%
%ADD12C,4.400000*%
%ADD13R,1.500000X1.500000*%
%ADD14C,1.500000*%
%ADD15C,1.300000*%
%ADD16C,1.710000*%
%ADD17RoundRect,1.500000X1.500000X-1.500000X1.500000X1.500000X-1.500000X1.500000X-1.500000X-1.500000X0*%
%ADD18C,6.000000*%
%ADD19RoundRect,0.250000X-0.600000X0.600000X-0.600000X-0.600000X0.600000X-0.600000X0.600000X0.600000X0*%
%ADD20C,1.700000*%
%ADD21C,1.900000*%
%ADD22C,1.540000*%
G04 APERTURE END LIST*
D10*
X133750000Y-122660000D03*
D11*
X133750000Y-120120000D03*
X133750000Y-117580000D03*
D12*
X140000000Y-27500000D03*
D10*
X146250000Y-83500000D03*
D11*
X146250000Y-80960000D03*
D10*
X124750000Y-64750000D03*
D11*
X122210000Y-64750000D03*
X119670000Y-64750000D03*
D10*
X105000000Y-57460000D03*
D11*
X105000000Y-60000000D03*
D10*
X71900000Y-85000000D03*
D11*
X74440000Y-85000000D03*
X76980000Y-85000000D03*
X79520000Y-85000000D03*
X82060000Y-85000000D03*
X84600000Y-85000000D03*
X87140000Y-85000000D03*
X89680000Y-85000000D03*
X92220000Y-85000000D03*
X94760000Y-85000000D03*
X97300000Y-85000000D03*
X99840000Y-85000000D03*
X102380000Y-85000000D03*
X104920000Y-85000000D03*
X107460000Y-85000000D03*
X110000000Y-85000000D03*
D10*
X71900000Y-76000000D03*
D11*
X74440000Y-76000000D03*
X76980000Y-76000000D03*
X79520000Y-76000000D03*
X82060000Y-76000000D03*
X84600000Y-76000000D03*
X87140000Y-76000000D03*
X89680000Y-76000000D03*
X92220000Y-76000000D03*
X94760000Y-76000000D03*
X97300000Y-76000000D03*
X99840000Y-76000000D03*
X102380000Y-76000000D03*
X104920000Y-76000000D03*
X107460000Y-76000000D03*
X110000000Y-76000000D03*
D10*
X125000000Y-92700000D03*
D11*
X125000000Y-90160000D03*
D10*
X115000000Y-122660000D03*
D11*
X115000000Y-120120000D03*
X115000000Y-117580000D03*
D10*
X133750000Y-83500000D03*
D11*
X133750000Y-80960000D03*
D13*
X62500000Y-45000000D03*
D14*
X62500000Y-47540000D03*
X62500000Y-50080000D03*
X62500000Y-52620000D03*
D10*
X81250000Y-27500000D03*
D11*
X81250000Y-30040000D03*
X81250000Y-32580000D03*
D10*
X130000000Y-122660000D03*
D11*
X130000000Y-120120000D03*
X130000000Y-117580000D03*
D10*
X118750000Y-122660000D03*
D11*
X118750000Y-120120000D03*
X118750000Y-117580000D03*
D10*
X88750000Y-122660000D03*
D11*
X88750000Y-120120000D03*
X88750000Y-117580000D03*
D10*
X96250000Y-122660000D03*
D11*
X96250000Y-120120000D03*
X96250000Y-117580000D03*
D10*
X100000000Y-92700000D03*
D11*
X100000000Y-90160000D03*
D15*
X145052500Y-109000000D03*
X145052500Y-105000000D03*
X145052500Y-101000000D03*
D16*
X149302500Y-111000000D03*
X143302500Y-111000000D03*
X143302500Y-99000000D03*
X149302500Y-99000000D03*
D10*
X120000000Y-92700000D03*
D11*
X120000000Y-90160000D03*
D10*
X105000000Y-92700000D03*
D11*
X105000000Y-90160000D03*
D10*
X103750000Y-122660000D03*
D11*
X103750000Y-120120000D03*
X103750000Y-117580000D03*
D10*
X115000000Y-27515000D03*
D11*
X115000000Y-30055000D03*
X115000000Y-32595000D03*
D10*
X85000000Y-27500000D03*
D11*
X85000000Y-30040000D03*
X85000000Y-32580000D03*
D10*
X122500000Y-122660000D03*
D11*
X122500000Y-120120000D03*
X122500000Y-117580000D03*
D10*
X100000000Y-122660000D03*
D11*
X100000000Y-120120000D03*
X100000000Y-117580000D03*
D10*
X155000000Y-72420000D03*
D11*
X155000000Y-74960000D03*
X155000000Y-77500000D03*
D10*
X110000000Y-57460000D03*
D11*
X110000000Y-60000000D03*
D10*
X85000000Y-122660000D03*
D11*
X85000000Y-120120000D03*
X85000000Y-117580000D03*
D12*
X140000000Y-122500000D03*
D17*
X152500000Y-51100000D03*
D18*
X152500000Y-43900000D03*
D10*
X122500000Y-27500000D03*
D11*
X122500000Y-30040000D03*
X122500000Y-32580000D03*
D10*
X115000000Y-92700000D03*
D11*
X115000000Y-90160000D03*
D19*
X65240000Y-105000000D03*
D20*
X65240000Y-107540000D03*
X62700000Y-105000000D03*
X62700000Y-107540000D03*
X60160000Y-105000000D03*
X60160000Y-107540000D03*
X57620000Y-105000000D03*
X57620000Y-107540000D03*
X55080000Y-105000000D03*
X55080000Y-107540000D03*
X52540000Y-105000000D03*
X52540000Y-107540000D03*
X50000000Y-105000000D03*
X50000000Y-107540000D03*
X47460000Y-105000000D03*
X47460000Y-107540000D03*
X44920000Y-105000000D03*
X44920000Y-107540000D03*
X42380000Y-105000000D03*
X42380000Y-107540000D03*
D10*
X88750000Y-27500000D03*
D11*
X88750000Y-30040000D03*
X88750000Y-32580000D03*
D10*
X110000000Y-92700000D03*
D11*
X110000000Y-90160000D03*
D15*
X29930000Y-77325000D03*
X29930000Y-82175000D03*
D21*
X27250000Y-76125000D03*
X27250000Y-83375000D03*
D10*
X96250000Y-27500000D03*
D11*
X96250000Y-30040000D03*
X96250000Y-32580000D03*
D10*
X100000000Y-27500000D03*
D11*
X100000000Y-30040000D03*
X100000000Y-32580000D03*
D10*
X130000000Y-27515000D03*
D11*
X130000000Y-30055000D03*
X130000000Y-32595000D03*
D10*
X92500000Y-122660000D03*
D11*
X92500000Y-120120000D03*
X92500000Y-117580000D03*
D10*
X54000000Y-52870000D03*
D20*
X51460000Y-52870000D03*
X54000000Y-50330000D03*
X51460000Y-50330000D03*
X54000000Y-47790000D03*
X51460000Y-47790000D03*
X54000000Y-45250000D03*
X51460000Y-45250000D03*
D10*
X71900000Y-68000000D03*
D11*
X74440000Y-68000000D03*
X76980000Y-68000000D03*
X79520000Y-68000000D03*
X82060000Y-68000000D03*
X84600000Y-68000000D03*
X87140000Y-68000000D03*
X89680000Y-68000000D03*
X92220000Y-68000000D03*
X94760000Y-68000000D03*
X97300000Y-68000000D03*
X99840000Y-68000000D03*
X102380000Y-68000000D03*
X104920000Y-68000000D03*
X107460000Y-68000000D03*
X110000000Y-68000000D03*
D10*
X107500000Y-27500000D03*
D11*
X107500000Y-30040000D03*
X107500000Y-32580000D03*
D22*
X28250000Y-103000000D03*
X34750000Y-103000000D03*
X28250000Y-107500000D03*
X34750000Y-107500000D03*
D10*
X103750000Y-27500000D03*
D11*
X103750000Y-30040000D03*
X103750000Y-32580000D03*
D10*
X107500000Y-122660000D03*
D11*
X107500000Y-120120000D03*
X107500000Y-117580000D03*
D10*
X77500000Y-122660000D03*
D11*
X77500000Y-120120000D03*
X77500000Y-117580000D03*
D10*
X111250000Y-27500000D03*
D11*
X111250000Y-30040000D03*
X111250000Y-32580000D03*
D10*
X92500000Y-27500000D03*
D11*
X92500000Y-30040000D03*
X92500000Y-32580000D03*
D10*
X81250000Y-122660000D03*
D11*
X81250000Y-120120000D03*
X81250000Y-117580000D03*
D10*
X118750000Y-27515000D03*
D11*
X118750000Y-30055000D03*
X118750000Y-32595000D03*
D10*
X146250000Y-67040000D03*
D11*
X146250000Y-64500000D03*
D10*
X125000000Y-57500000D03*
D11*
X125000000Y-60040000D03*
D12*
X72500000Y-27500000D03*
D10*
X111250000Y-122660000D03*
D11*
X111250000Y-120120000D03*
X111250000Y-117580000D03*
D10*
X133750000Y-27500000D03*
D11*
X133750000Y-30040000D03*
X133750000Y-32580000D03*
D10*
X126250000Y-122685000D03*
D11*
X126250000Y-120145000D03*
X126250000Y-117605000D03*
D10*
X124750000Y-81750000D03*
D11*
X122210000Y-81750000D03*
X119670000Y-81750000D03*
D12*
X72500000Y-122500000D03*
D10*
X126250000Y-27500000D03*
D11*
X126250000Y-30040000D03*
X126250000Y-32580000D03*
D12*
X30000000Y-92500000D03*
D10*
X115000000Y-57460000D03*
D11*
X115000000Y-60000000D03*
D10*
X133500000Y-67040000D03*
D11*
X133500000Y-64500000D03*
D10*
X77500000Y-27500000D03*
D11*
X77500000Y-30040000D03*
X77500000Y-32580000D03*
D10*
X100000000Y-57460000D03*
D11*
X100000000Y-60000000D03*
D10*
X120000000Y-57460000D03*
D11*
X120000000Y-60000000D03*
M02*
