G04 #@! TF.GenerationSoftware,KiCad,Pcbnew,7.0.5*
G04 #@! TF.CreationDate,2023-11-30T10:19:55+10:00*
G04 #@! TF.ProjectId,HEXCORE PCB Design v0,48455843-4f52-4452-9050-434220446573,rev?*
G04 #@! TF.SameCoordinates,Original*
G04 #@! TF.FileFunction,Paste,Top*
G04 #@! TF.FilePolarity,Positive*
%FSLAX46Y46*%
G04 Gerber Fmt 4.6, Leading zero omitted, Abs format (unit mm)*
G04 Created by KiCad (PCBNEW 7.0.5) date 2023-11-30 10:19:55*
%MOMM*%
%LPD*%
G01*
G04 APERTURE LIST*
G04 Aperture macros list*
%AMRoundRect*
0 Rectangle with rounded corners*
0 $1 Rounding radius*
0 $2 $3 $4 $5 $6 $7 $8 $9 X,Y pos of 4 corners*
0 Add a 4 corners polygon primitive as box body*
4,1,4,$2,$3,$4,$5,$6,$7,$8,$9,$2,$3,0*
0 Add four circle primitives for the rounded corners*
1,1,$1+$1,$2,$3*
1,1,$1+$1,$4,$5*
1,1,$1+$1,$6,$7*
1,1,$1+$1,$8,$9*
0 Add four rect primitives between the rounded corners*
20,1,$1+$1,$2,$3,$4,$5,0*
20,1,$1+$1,$4,$5,$6,$7,0*
20,1,$1+$1,$6,$7,$8,$9,0*
20,1,$1+$1,$8,$9,$2,$3,0*%
G04 Aperture macros list end*
%ADD10RoundRect,0.140000X-0.170000X0.140000X-0.170000X-0.140000X0.170000X-0.140000X0.170000X0.140000X0*%
%ADD11RoundRect,0.200000X-0.275000X0.200000X-0.275000X-0.200000X0.275000X-0.200000X0.275000X0.200000X0*%
%ADD12RoundRect,0.218750X0.256250X-0.218750X0.256250X0.218750X-0.256250X0.218750X-0.256250X-0.218750X0*%
%ADD13RoundRect,0.135000X-0.185000X0.135000X-0.185000X-0.135000X0.185000X-0.135000X0.185000X0.135000X0*%
%ADD14RoundRect,0.225000X0.225000X0.250000X-0.225000X0.250000X-0.225000X-0.250000X0.225000X-0.250000X0*%
%ADD15RoundRect,0.140000X0.140000X0.170000X-0.140000X0.170000X-0.140000X-0.170000X0.140000X-0.170000X0*%
%ADD16RoundRect,0.200000X0.275000X-0.200000X0.275000X0.200000X-0.275000X0.200000X-0.275000X-0.200000X0*%
%ADD17RoundRect,0.135000X0.135000X0.185000X-0.135000X0.185000X-0.135000X-0.185000X0.135000X-0.185000X0*%
%ADD18RoundRect,0.140000X0.170000X-0.140000X0.170000X0.140000X-0.170000X0.140000X-0.170000X-0.140000X0*%
%ADD19R,1.000000X1.150000*%
%ADD20RoundRect,0.150000X-0.512500X-0.150000X0.512500X-0.150000X0.512500X0.150000X-0.512500X0.150000X0*%
%ADD21RoundRect,0.250000X0.320000X0.320000X-0.320000X0.320000X-0.320000X-0.320000X0.320000X-0.320000X0*%
%ADD22RoundRect,0.075000X0.437500X0.075000X-0.437500X0.075000X-0.437500X-0.075000X0.437500X-0.075000X0*%
%ADD23RoundRect,0.075000X0.075000X0.437500X-0.075000X0.437500X-0.075000X-0.437500X0.075000X-0.437500X0*%
%ADD24RoundRect,0.140000X-0.140000X-0.170000X0.140000X-0.170000X0.140000X0.170000X-0.140000X0.170000X0*%
%ADD25RoundRect,0.135000X-0.135000X-0.185000X0.135000X-0.185000X0.135000X0.185000X-0.135000X0.185000X0*%
%ADD26R,1.500000X2.000000*%
%ADD27R,3.800000X2.000000*%
%ADD28R,1.250000X0.400000*%
%ADD29RoundRect,0.225000X-0.225000X-0.250000X0.225000X-0.250000X0.225000X0.250000X-0.225000X0.250000X0*%
%ADD30RoundRect,0.075000X-0.075000X0.350000X-0.075000X-0.350000X0.075000X-0.350000X0.075000X0.350000X0*%
%ADD31RoundRect,0.075000X-0.350000X-0.075000X0.350000X-0.075000X0.350000X0.075000X-0.350000X0.075000X0*%
%ADD32RoundRect,0.250000X-0.320000X-0.320000X0.320000X-0.320000X0.320000X0.320000X-0.320000X0.320000X0*%
%ADD33RoundRect,0.075000X-0.437500X-0.075000X0.437500X-0.075000X0.437500X0.075000X-0.437500X0.075000X0*%
%ADD34RoundRect,0.075000X-0.075000X-0.437500X0.075000X-0.437500X0.075000X0.437500X-0.075000X0.437500X0*%
%ADD35RoundRect,0.075000X0.700000X0.075000X-0.700000X0.075000X-0.700000X-0.075000X0.700000X-0.075000X0*%
%ADD36RoundRect,0.075000X0.075000X0.700000X-0.075000X0.700000X-0.075000X-0.700000X0.075000X-0.700000X0*%
%ADD37RoundRect,0.135000X0.185000X-0.135000X0.185000X0.135000X-0.185000X0.135000X-0.185000X-0.135000X0*%
G04 APERTURE END LIST*
D10*
X40250000Y-81082000D03*
X40250000Y-82042000D03*
D11*
X81250000Y-36750000D03*
X81250000Y-38400000D03*
D12*
X57750000Y-73582000D03*
X57750000Y-72007000D03*
D13*
X57620000Y-99410000D03*
X57620000Y-100430000D03*
D14*
X137250000Y-53785000D03*
X135700000Y-53785000D03*
D10*
X58750000Y-74872000D03*
X58750000Y-75832000D03*
D13*
X55080000Y-99410000D03*
X55080000Y-100430000D03*
D15*
X31000000Y-67500000D03*
X30040000Y-67500000D03*
D13*
X47460000Y-99410000D03*
X47460000Y-100430000D03*
D16*
X133750000Y-113425000D03*
X133750000Y-111775000D03*
D10*
X57750000Y-77622000D03*
X57750000Y-78582000D03*
D17*
X105000000Y-96160000D03*
X103980000Y-96160000D03*
D16*
X88750000Y-113415000D03*
X88750000Y-111765000D03*
X81250000Y-113400000D03*
X81250000Y-111750000D03*
D11*
X85000000Y-36750000D03*
X85000000Y-38400000D03*
D16*
X130000000Y-113410000D03*
X130000000Y-111760000D03*
D15*
X42750000Y-71582000D03*
X41790000Y-71582000D03*
D10*
X57500000Y-74872000D03*
X57500000Y-75832000D03*
D18*
X29000000Y-63250000D03*
X29000000Y-62290000D03*
D10*
X59250000Y-71872000D03*
X59250000Y-72832000D03*
D11*
X118750000Y-36750000D03*
X118750000Y-38400000D03*
D10*
X28000000Y-63540000D03*
X28000000Y-64500000D03*
D19*
X60500000Y-80082000D03*
X60500000Y-78332000D03*
X59100000Y-78332000D03*
X59100000Y-80082000D03*
D11*
X115000000Y-36750000D03*
X115000000Y-38400000D03*
D17*
X143750000Y-64500000D03*
X142730000Y-64500000D03*
D11*
X103750000Y-36750000D03*
X103750000Y-38400000D03*
X130000000Y-36750000D03*
X130000000Y-38400000D03*
D17*
X143750000Y-67000000D03*
X142730000Y-67000000D03*
D13*
X58750000Y-45750000D03*
X58750000Y-46770000D03*
D10*
X53500000Y-82332000D03*
X53500000Y-83292000D03*
D18*
X35500000Y-65960000D03*
X35500000Y-65000000D03*
D11*
X77500000Y-36735000D03*
X77500000Y-38385000D03*
D20*
X33112500Y-78546000D03*
X33112500Y-79496000D03*
X33112500Y-80446000D03*
X35387500Y-80446000D03*
X35387500Y-79496000D03*
X35387500Y-78546000D03*
D17*
X100000000Y-96160000D03*
X98980000Y-96160000D03*
D21*
X99470000Y-46757500D03*
X99470000Y-45337500D03*
X99470000Y-43917500D03*
X98050000Y-46757500D03*
X98050000Y-45337500D03*
X98050000Y-43917500D03*
X96630000Y-46757500D03*
X96630000Y-45337500D03*
X96630000Y-43917500D03*
D22*
X100887500Y-47287500D03*
X100887500Y-46637500D03*
X100887500Y-45987500D03*
X100887500Y-45337500D03*
X100887500Y-44687500D03*
X100887500Y-44037500D03*
X100887500Y-43387500D03*
D23*
X100000000Y-42500000D03*
X99350000Y-42500000D03*
X98700000Y-42500000D03*
X98050000Y-42500000D03*
X97400000Y-42500000D03*
X96750000Y-42500000D03*
X96100000Y-42500000D03*
D22*
X95212500Y-43387500D03*
X95212500Y-44037500D03*
X95212500Y-44687500D03*
X95212500Y-45337500D03*
X95212500Y-45987500D03*
X95212500Y-46637500D03*
X95212500Y-47287500D03*
D23*
X96100000Y-48175000D03*
X96750000Y-48175000D03*
X97400000Y-48175000D03*
X98050000Y-48175000D03*
X98700000Y-48175000D03*
X99350000Y-48175000D03*
X100000000Y-48175000D03*
D24*
X50000000Y-68832000D03*
X50960000Y-68832000D03*
D25*
X125000000Y-54000000D03*
X126020000Y-54000000D03*
D24*
X28250000Y-100500000D03*
X29210000Y-100500000D03*
D15*
X44000000Y-70082000D03*
X43040000Y-70082000D03*
D11*
X111250000Y-36750000D03*
X111250000Y-38400000D03*
D25*
X110000000Y-53960000D03*
X111020000Y-53960000D03*
D17*
X115000000Y-96160000D03*
X113980000Y-96160000D03*
D16*
X118750000Y-113415000D03*
X118750000Y-111765000D03*
D11*
X133750000Y-36750000D03*
X133750000Y-38400000D03*
D26*
X135200000Y-51410000D03*
X137500000Y-51410000D03*
D27*
X137500000Y-45110000D03*
D26*
X139800000Y-51410000D03*
D17*
X110000000Y-96160000D03*
X108980000Y-96160000D03*
D28*
X30450000Y-78450000D03*
X30450000Y-79100000D03*
X30450000Y-79750000D03*
X30450000Y-80400000D03*
X30450000Y-81050000D03*
D29*
X139725000Y-53785000D03*
X141275000Y-53785000D03*
D25*
X140000000Y-105000000D03*
X141020000Y-105000000D03*
X100000000Y-53960000D03*
X101020000Y-53960000D03*
D24*
X33750000Y-100500000D03*
X34710000Y-100500000D03*
D25*
X142730000Y-80960000D03*
X143750000Y-80960000D03*
X115000000Y-53960000D03*
X116020000Y-53960000D03*
D16*
X107500000Y-113415000D03*
X107500000Y-111765000D03*
D18*
X57750000Y-80710000D03*
X57750000Y-79750000D03*
D16*
X92500000Y-113400000D03*
X92500000Y-111750000D03*
X122500000Y-113415000D03*
X122500000Y-111765000D03*
X115000000Y-113400000D03*
X115000000Y-111750000D03*
D15*
X51500000Y-86082000D03*
X50540000Y-86082000D03*
D16*
X111250000Y-113400000D03*
X111250000Y-111750000D03*
D13*
X50000000Y-99410000D03*
X50000000Y-100430000D03*
D16*
X103750000Y-113415000D03*
X103750000Y-111765000D03*
X126250000Y-113425000D03*
X126250000Y-111775000D03*
D30*
X33450000Y-62300000D03*
X32950000Y-62300000D03*
X32450000Y-62300000D03*
X31950000Y-62300000D03*
X31450000Y-62300000D03*
X30950000Y-62300000D03*
D31*
X30250000Y-63000000D03*
X30250000Y-63500000D03*
X30250000Y-64000000D03*
X30250000Y-64500000D03*
X30250000Y-65000000D03*
X30250000Y-65500000D03*
D30*
X30950000Y-66200000D03*
X31450000Y-66200000D03*
X31950000Y-66200000D03*
X32450000Y-66200000D03*
X32950000Y-66200000D03*
X33450000Y-66200000D03*
D31*
X34150000Y-65500000D03*
X34150000Y-65000000D03*
X34150000Y-64500000D03*
X34150000Y-64000000D03*
X34150000Y-63500000D03*
X34150000Y-63000000D03*
D16*
X77500000Y-113475000D03*
X77500000Y-111825000D03*
D32*
X96630000Y-103190000D03*
X96630000Y-104610000D03*
X96630000Y-106030000D03*
X98050000Y-103190000D03*
X98050000Y-104610000D03*
X98050000Y-106030000D03*
X99470000Y-103190000D03*
X99470000Y-104610000D03*
X99470000Y-106030000D03*
D33*
X95212500Y-102660000D03*
X95212500Y-103310000D03*
X95212500Y-103960000D03*
X95212500Y-104610000D03*
X95212500Y-105260000D03*
X95212500Y-105910000D03*
X95212500Y-106560000D03*
D34*
X96100000Y-107447500D03*
X96750000Y-107447500D03*
X97400000Y-107447500D03*
X98050000Y-107447500D03*
X98700000Y-107447500D03*
X99350000Y-107447500D03*
X100000000Y-107447500D03*
D33*
X100887500Y-106560000D03*
X100887500Y-105910000D03*
X100887500Y-105260000D03*
X100887500Y-104610000D03*
X100887500Y-103960000D03*
X100887500Y-103310000D03*
X100887500Y-102660000D03*
D34*
X100000000Y-101772500D03*
X99350000Y-101772500D03*
X98700000Y-101772500D03*
X98050000Y-101772500D03*
X97400000Y-101772500D03*
X96750000Y-101772500D03*
X96100000Y-101772500D03*
D11*
X96250000Y-36750000D03*
X96250000Y-38400000D03*
X126250000Y-36750000D03*
X126250000Y-38400000D03*
D16*
X96250000Y-113400000D03*
X96250000Y-111750000D03*
D11*
X100000000Y-36750000D03*
X100000000Y-38400000D03*
X88750000Y-36750000D03*
X88750000Y-38400000D03*
D17*
X125000000Y-96160000D03*
X123980000Y-96160000D03*
D35*
X53175000Y-81250000D03*
X53175000Y-80750000D03*
X53175000Y-80250000D03*
X53175000Y-79750000D03*
X53175000Y-79250000D03*
X53175000Y-78750000D03*
X53175000Y-78250000D03*
X53175000Y-77750000D03*
X53175000Y-77250000D03*
X53175000Y-76750000D03*
X53175000Y-76250000D03*
X53175000Y-75750000D03*
X53175000Y-75250000D03*
X53175000Y-74750000D03*
X53175000Y-74250000D03*
X53175000Y-73750000D03*
D36*
X51250000Y-71825000D03*
X50750000Y-71825000D03*
X50250000Y-71825000D03*
X49750000Y-71825000D03*
X49250000Y-71825000D03*
X48750000Y-71825000D03*
X48250000Y-71825000D03*
X47750000Y-71825000D03*
X47250000Y-71825000D03*
X46750000Y-71825000D03*
X46250000Y-71825000D03*
X45750000Y-71825000D03*
X45250000Y-71825000D03*
X44750000Y-71825000D03*
X44250000Y-71825000D03*
X43750000Y-71825000D03*
D35*
X41825000Y-73750000D03*
X41825000Y-74250000D03*
X41825000Y-74750000D03*
X41825000Y-75250000D03*
X41825000Y-75750000D03*
X41825000Y-76250000D03*
X41825000Y-76750000D03*
X41825000Y-77250000D03*
X41825000Y-77750000D03*
X41825000Y-78250000D03*
X41825000Y-78750000D03*
X41825000Y-79250000D03*
X41825000Y-79750000D03*
X41825000Y-80250000D03*
X41825000Y-80750000D03*
X41825000Y-81250000D03*
D36*
X43750000Y-83175000D03*
X44250000Y-83175000D03*
X44750000Y-83175000D03*
X45250000Y-83175000D03*
X45750000Y-83175000D03*
X46250000Y-83175000D03*
X46750000Y-83175000D03*
X47250000Y-83175000D03*
X47750000Y-83175000D03*
X48250000Y-83175000D03*
X48750000Y-83175000D03*
X49250000Y-83175000D03*
X49750000Y-83175000D03*
X50250000Y-83175000D03*
X50750000Y-83175000D03*
X51250000Y-83175000D03*
D16*
X100000000Y-113415000D03*
X100000000Y-111765000D03*
D11*
X107500000Y-36750000D03*
X107500000Y-38400000D03*
D25*
X105000000Y-53960000D03*
X106020000Y-53960000D03*
D16*
X85000000Y-113400000D03*
X85000000Y-111750000D03*
D17*
X120010000Y-96160000D03*
X118990000Y-96160000D03*
D25*
X142730000Y-83460000D03*
X143750000Y-83460000D03*
D37*
X152500000Y-63520000D03*
X152500000Y-62500000D03*
D11*
X122500000Y-36750000D03*
X122500000Y-38400000D03*
X92500000Y-36750000D03*
X92500000Y-38400000D03*
D25*
X120000000Y-53960000D03*
X121020000Y-53960000D03*
D29*
X57750000Y-70332000D03*
X59300000Y-70332000D03*
D12*
X152500000Y-60000000D03*
X152500000Y-58425000D03*
D10*
X41500000Y-82332000D03*
X41500000Y-83292000D03*
M02*
