G04 #@! TF.GenerationSoftware,KiCad,Pcbnew,7.0.5*
G04 #@! TF.CreationDate,2023-11-30T10:19:55+10:00*
G04 #@! TF.ProjectId,HEXCORE PCB Design v0,48455843-4f52-4452-9050-434220446573,rev?*
G04 #@! TF.SameCoordinates,Original*
G04 #@! TF.FileFunction,Copper,L1,Top*
G04 #@! TF.FilePolarity,Positive*
%FSLAX46Y46*%
G04 Gerber Fmt 4.6, Leading zero omitted, Abs format (unit mm)*
G04 Created by KiCad (PCBNEW 7.0.5) date 2023-11-30 10:19:55*
%MOMM*%
%LPD*%
G01*
G04 APERTURE LIST*
G04 Aperture macros list*
%AMRoundRect*
0 Rectangle with rounded corners*
0 $1 Rounding radius*
0 $2 $3 $4 $5 $6 $7 $8 $9 X,Y pos of 4 corners*
0 Add a 4 corners polygon primitive as box body*
4,1,4,$2,$3,$4,$5,$6,$7,$8,$9,$2,$3,0*
0 Add four circle primitives for the rounded corners*
1,1,$1+$1,$2,$3*
1,1,$1+$1,$4,$5*
1,1,$1+$1,$6,$7*
1,1,$1+$1,$8,$9*
0 Add four rect primitives between the rounded corners*
20,1,$1+$1,$2,$3,$4,$5,0*
20,1,$1+$1,$4,$5,$6,$7,0*
20,1,$1+$1,$6,$7,$8,$9,0*
20,1,$1+$1,$8,$9,$2,$3,0*%
G04 Aperture macros list end*
G04 #@! TA.AperFunction,ComponentPad*
%ADD10R,1.700000X1.700000*%
G04 #@! TD*
G04 #@! TA.AperFunction,ComponentPad*
%ADD11O,1.700000X1.700000*%
G04 #@! TD*
G04 #@! TA.AperFunction,ComponentPad*
%ADD12C,4.400000*%
G04 #@! TD*
G04 #@! TA.AperFunction,SMDPad,CuDef*
%ADD13RoundRect,0.140000X-0.170000X0.140000X-0.170000X-0.140000X0.170000X-0.140000X0.170000X0.140000X0*%
G04 #@! TD*
G04 #@! TA.AperFunction,SMDPad,CuDef*
%ADD14RoundRect,0.200000X-0.275000X0.200000X-0.275000X-0.200000X0.275000X-0.200000X0.275000X0.200000X0*%
G04 #@! TD*
G04 #@! TA.AperFunction,SMDPad,CuDef*
%ADD15RoundRect,0.218750X0.256250X-0.218750X0.256250X0.218750X-0.256250X0.218750X-0.256250X-0.218750X0*%
G04 #@! TD*
G04 #@! TA.AperFunction,SMDPad,CuDef*
%ADD16RoundRect,0.135000X-0.185000X0.135000X-0.185000X-0.135000X0.185000X-0.135000X0.185000X0.135000X0*%
G04 #@! TD*
G04 #@! TA.AperFunction,SMDPad,CuDef*
%ADD17RoundRect,0.225000X0.225000X0.250000X-0.225000X0.250000X-0.225000X-0.250000X0.225000X-0.250000X0*%
G04 #@! TD*
G04 #@! TA.AperFunction,SMDPad,CuDef*
%ADD18RoundRect,0.140000X0.140000X0.170000X-0.140000X0.170000X-0.140000X-0.170000X0.140000X-0.170000X0*%
G04 #@! TD*
G04 #@! TA.AperFunction,SMDPad,CuDef*
%ADD19RoundRect,0.200000X0.275000X-0.200000X0.275000X0.200000X-0.275000X0.200000X-0.275000X-0.200000X0*%
G04 #@! TD*
G04 #@! TA.AperFunction,SMDPad,CuDef*
%ADD20RoundRect,0.135000X0.135000X0.185000X-0.135000X0.185000X-0.135000X-0.185000X0.135000X-0.185000X0*%
G04 #@! TD*
G04 #@! TA.AperFunction,ComponentPad*
%ADD21R,1.500000X1.500000*%
G04 #@! TD*
G04 #@! TA.AperFunction,ComponentPad*
%ADD22C,1.500000*%
G04 #@! TD*
G04 #@! TA.AperFunction,SMDPad,CuDef*
%ADD23RoundRect,0.140000X0.170000X-0.140000X0.170000X0.140000X-0.170000X0.140000X-0.170000X-0.140000X0*%
G04 #@! TD*
G04 #@! TA.AperFunction,SMDPad,CuDef*
%ADD24R,1.000000X1.150000*%
G04 #@! TD*
G04 #@! TA.AperFunction,ComponentPad*
%ADD25C,1.300000*%
G04 #@! TD*
G04 #@! TA.AperFunction,ComponentPad*
%ADD26C,1.710000*%
G04 #@! TD*
G04 #@! TA.AperFunction,SMDPad,CuDef*
%ADD27RoundRect,0.150000X-0.512500X-0.150000X0.512500X-0.150000X0.512500X0.150000X-0.512500X0.150000X0*%
G04 #@! TD*
G04 #@! TA.AperFunction,SMDPad,CuDef*
%ADD28RoundRect,0.075000X0.437500X0.075000X-0.437500X0.075000X-0.437500X-0.075000X0.437500X-0.075000X0*%
G04 #@! TD*
G04 #@! TA.AperFunction,SMDPad,CuDef*
%ADD29RoundRect,0.075000X0.075000X0.437500X-0.075000X0.437500X-0.075000X-0.437500X0.075000X-0.437500X0*%
G04 #@! TD*
G04 #@! TA.AperFunction,SMDPad,CuDef*
%ADD30R,4.250000X4.250000*%
G04 #@! TD*
G04 #@! TA.AperFunction,SMDPad,CuDef*
%ADD31RoundRect,0.140000X-0.140000X-0.170000X0.140000X-0.170000X0.140000X0.170000X-0.140000X0.170000X0*%
G04 #@! TD*
G04 #@! TA.AperFunction,SMDPad,CuDef*
%ADD32RoundRect,0.135000X-0.135000X-0.185000X0.135000X-0.185000X0.135000X0.185000X-0.135000X0.185000X0*%
G04 #@! TD*
G04 #@! TA.AperFunction,ComponentPad*
%ADD33RoundRect,1.500000X1.500000X-1.500000X1.500000X1.500000X-1.500000X1.500000X-1.500000X-1.500000X0*%
G04 #@! TD*
G04 #@! TA.AperFunction,ComponentPad*
%ADD34C,6.000000*%
G04 #@! TD*
G04 #@! TA.AperFunction,SMDPad,CuDef*
%ADD35R,1.500000X2.000000*%
G04 #@! TD*
G04 #@! TA.AperFunction,SMDPad,CuDef*
%ADD36R,3.800000X2.000000*%
G04 #@! TD*
G04 #@! TA.AperFunction,ComponentPad*
%ADD37RoundRect,0.250000X-0.600000X0.600000X-0.600000X-0.600000X0.600000X-0.600000X0.600000X0.600000X0*%
G04 #@! TD*
G04 #@! TA.AperFunction,ComponentPad*
%ADD38C,1.700000*%
G04 #@! TD*
G04 #@! TA.AperFunction,SMDPad,CuDef*
%ADD39R,1.250000X0.400000*%
G04 #@! TD*
G04 #@! TA.AperFunction,ComponentPad*
%ADD40C,1.900000*%
G04 #@! TD*
G04 #@! TA.AperFunction,SMDPad,CuDef*
%ADD41RoundRect,0.225000X-0.225000X-0.250000X0.225000X-0.250000X0.225000X0.250000X-0.225000X0.250000X0*%
G04 #@! TD*
G04 #@! TA.AperFunction,ComponentPad*
%ADD42C,1.540000*%
G04 #@! TD*
G04 #@! TA.AperFunction,SMDPad,CuDef*
%ADD43RoundRect,0.075000X-0.075000X0.350000X-0.075000X-0.350000X0.075000X-0.350000X0.075000X0.350000X0*%
G04 #@! TD*
G04 #@! TA.AperFunction,SMDPad,CuDef*
%ADD44RoundRect,0.075000X-0.350000X-0.075000X0.350000X-0.075000X0.350000X0.075000X-0.350000X0.075000X0*%
G04 #@! TD*
G04 #@! TA.AperFunction,SMDPad,CuDef*
%ADD45RoundRect,0.075000X-0.437500X-0.075000X0.437500X-0.075000X0.437500X0.075000X-0.437500X0.075000X0*%
G04 #@! TD*
G04 #@! TA.AperFunction,SMDPad,CuDef*
%ADD46RoundRect,0.075000X-0.075000X-0.437500X0.075000X-0.437500X0.075000X0.437500X-0.075000X0.437500X0*%
G04 #@! TD*
G04 #@! TA.AperFunction,SMDPad,CuDef*
%ADD47RoundRect,0.075000X0.700000X0.075000X-0.700000X0.075000X-0.700000X-0.075000X0.700000X-0.075000X0*%
G04 #@! TD*
G04 #@! TA.AperFunction,SMDPad,CuDef*
%ADD48RoundRect,0.075000X0.075000X0.700000X-0.075000X0.700000X-0.075000X-0.700000X0.075000X-0.700000X0*%
G04 #@! TD*
G04 #@! TA.AperFunction,SMDPad,CuDef*
%ADD49RoundRect,0.135000X0.185000X-0.135000X0.185000X0.135000X-0.185000X0.135000X-0.185000X-0.135000X0*%
G04 #@! TD*
G04 #@! TA.AperFunction,ViaPad*
%ADD50C,0.800000*%
G04 #@! TD*
G04 #@! TA.AperFunction,Conductor*
%ADD51C,0.300000*%
G04 #@! TD*
G04 #@! TA.AperFunction,Conductor*
%ADD52C,0.500000*%
G04 #@! TD*
G04 APERTURE END LIST*
D10*
X133750000Y-122660000D03*
D11*
X133750000Y-120120000D03*
X133750000Y-117580000D03*
D12*
X140000000Y-27500000D03*
D13*
X40250000Y-81082000D03*
X40250000Y-82042000D03*
D14*
X81250000Y-36750000D03*
X81250000Y-38400000D03*
D15*
X57750000Y-73582000D03*
X57750000Y-72007000D03*
D16*
X57620000Y-99410000D03*
X57620000Y-100430000D03*
D10*
X146250000Y-83500000D03*
D11*
X146250000Y-80960000D03*
D10*
X124750000Y-64750000D03*
D11*
X122210000Y-64750000D03*
X119670000Y-64750000D03*
D17*
X137250000Y-53785000D03*
X135700000Y-53785000D03*
D13*
X58750000Y-74872000D03*
X58750000Y-75832000D03*
D16*
X55080000Y-99410000D03*
X55080000Y-100430000D03*
D18*
X31000000Y-67500000D03*
X30040000Y-67500000D03*
D16*
X47460000Y-99410000D03*
X47460000Y-100430000D03*
D19*
X133750000Y-113425000D03*
X133750000Y-111775000D03*
D13*
X57750000Y-77622000D03*
X57750000Y-78582000D03*
D10*
X105000000Y-57460000D03*
D11*
X105000000Y-60000000D03*
D10*
X71900000Y-85000000D03*
D11*
X74440000Y-85000000D03*
X76980000Y-85000000D03*
X79520000Y-85000000D03*
X82060000Y-85000000D03*
X84600000Y-85000000D03*
X87140000Y-85000000D03*
X89680000Y-85000000D03*
X92220000Y-85000000D03*
X94760000Y-85000000D03*
X97300000Y-85000000D03*
X99840000Y-85000000D03*
X102380000Y-85000000D03*
X104920000Y-85000000D03*
X107460000Y-85000000D03*
X110000000Y-85000000D03*
D20*
X105000000Y-96160000D03*
X103980000Y-96160000D03*
D19*
X88750000Y-113415000D03*
X88750000Y-111765000D03*
D10*
X71900000Y-76000000D03*
D11*
X74440000Y-76000000D03*
X76980000Y-76000000D03*
X79520000Y-76000000D03*
X82060000Y-76000000D03*
X84600000Y-76000000D03*
X87140000Y-76000000D03*
X89680000Y-76000000D03*
X92220000Y-76000000D03*
X94760000Y-76000000D03*
X97300000Y-76000000D03*
X99840000Y-76000000D03*
X102380000Y-76000000D03*
X104920000Y-76000000D03*
X107460000Y-76000000D03*
X110000000Y-76000000D03*
D19*
X81250000Y-113400000D03*
X81250000Y-111750000D03*
D10*
X125000000Y-92700000D03*
D11*
X125000000Y-90160000D03*
D10*
X115000000Y-122660000D03*
D11*
X115000000Y-120120000D03*
X115000000Y-117580000D03*
D10*
X133750000Y-83500000D03*
D11*
X133750000Y-80960000D03*
D14*
X85000000Y-36750000D03*
X85000000Y-38400000D03*
D21*
X62500000Y-45000000D03*
D22*
X62500000Y-47540000D03*
X62500000Y-50080000D03*
X62500000Y-52620000D03*
D10*
X81250000Y-27500000D03*
D11*
X81250000Y-30040000D03*
X81250000Y-32580000D03*
D19*
X130000000Y-113410000D03*
X130000000Y-111760000D03*
D10*
X130000000Y-122660000D03*
D11*
X130000000Y-120120000D03*
X130000000Y-117580000D03*
D10*
X118750000Y-122660000D03*
D11*
X118750000Y-120120000D03*
X118750000Y-117580000D03*
D18*
X42750000Y-71582000D03*
X41790000Y-71582000D03*
D10*
X88750000Y-122660000D03*
D11*
X88750000Y-120120000D03*
X88750000Y-117580000D03*
D13*
X57500000Y-74872000D03*
X57500000Y-75832000D03*
D23*
X29000000Y-63250000D03*
X29000000Y-62290000D03*
D13*
X59250000Y-71872000D03*
X59250000Y-72832000D03*
D14*
X118750000Y-36750000D03*
X118750000Y-38400000D03*
D10*
X96250000Y-122660000D03*
D11*
X96250000Y-120120000D03*
X96250000Y-117580000D03*
D13*
X28000000Y-63540000D03*
X28000000Y-64500000D03*
D24*
X60500000Y-80082000D03*
X60500000Y-78332000D03*
X59100000Y-78332000D03*
X59100000Y-80082000D03*
D14*
X115000000Y-36750000D03*
X115000000Y-38400000D03*
D10*
X100000000Y-92700000D03*
D11*
X100000000Y-90160000D03*
D20*
X143750000Y-64500000D03*
X142730000Y-64500000D03*
D14*
X103750000Y-36750000D03*
X103750000Y-38400000D03*
D25*
X145052500Y-109000000D03*
X145052500Y-105000000D03*
X145052500Y-101000000D03*
D26*
X149302500Y-111000000D03*
X143302500Y-111000000D03*
X143302500Y-99000000D03*
X149302500Y-99000000D03*
D14*
X130000000Y-36750000D03*
X130000000Y-38400000D03*
D20*
X143750000Y-67000000D03*
X142730000Y-67000000D03*
D16*
X58750000Y-45750000D03*
X58750000Y-46770000D03*
D13*
X53500000Y-82332000D03*
X53500000Y-83292000D03*
D10*
X120000000Y-92700000D03*
D11*
X120000000Y-90160000D03*
D10*
X105000000Y-92700000D03*
D11*
X105000000Y-90160000D03*
D23*
X35500000Y-65960000D03*
X35500000Y-65000000D03*
D10*
X103750000Y-122660000D03*
D11*
X103750000Y-120120000D03*
X103750000Y-117580000D03*
D10*
X115000000Y-27515000D03*
D11*
X115000000Y-30055000D03*
X115000000Y-32595000D03*
D14*
X77500000Y-36735000D03*
X77500000Y-38385000D03*
D10*
X85000000Y-27500000D03*
D11*
X85000000Y-30040000D03*
X85000000Y-32580000D03*
D27*
X33112500Y-78546000D03*
X33112500Y-79496000D03*
X33112500Y-80446000D03*
X35387500Y-80446000D03*
X35387500Y-79496000D03*
X35387500Y-78546000D03*
D20*
X100000000Y-96160000D03*
X98980000Y-96160000D03*
D10*
X122500000Y-122660000D03*
D11*
X122500000Y-120120000D03*
X122500000Y-117580000D03*
D10*
X100000000Y-122660000D03*
D11*
X100000000Y-120120000D03*
X100000000Y-117580000D03*
D28*
X100887500Y-47287500D03*
X100887500Y-46637500D03*
X100887500Y-45987500D03*
X100887500Y-45337500D03*
X100887500Y-44687500D03*
X100887500Y-44037500D03*
X100887500Y-43387500D03*
D29*
X100000000Y-42500000D03*
X99350000Y-42500000D03*
X98700000Y-42500000D03*
X98050000Y-42500000D03*
X97400000Y-42500000D03*
X96750000Y-42500000D03*
X96100000Y-42500000D03*
D28*
X95212500Y-43387500D03*
X95212500Y-44037500D03*
X95212500Y-44687500D03*
X95212500Y-45337500D03*
X95212500Y-45987500D03*
X95212500Y-46637500D03*
X95212500Y-47287500D03*
D29*
X96100000Y-48175000D03*
X96750000Y-48175000D03*
X97400000Y-48175000D03*
X98050000Y-48175000D03*
X98700000Y-48175000D03*
X99350000Y-48175000D03*
X100000000Y-48175000D03*
D30*
X98050000Y-45337500D03*
D10*
X155000000Y-72420000D03*
D11*
X155000000Y-74960000D03*
X155000000Y-77500000D03*
D31*
X50000000Y-68832000D03*
X50960000Y-68832000D03*
D32*
X125000000Y-54000000D03*
X126020000Y-54000000D03*
D31*
X28250000Y-100500000D03*
X29210000Y-100500000D03*
D10*
X110000000Y-57460000D03*
D11*
X110000000Y-60000000D03*
D10*
X85000000Y-122660000D03*
D11*
X85000000Y-120120000D03*
X85000000Y-117580000D03*
D18*
X44000000Y-70082000D03*
X43040000Y-70082000D03*
D14*
X111250000Y-36750000D03*
X111250000Y-38400000D03*
D32*
X110000000Y-53960000D03*
X111020000Y-53960000D03*
D20*
X115000000Y-96160000D03*
X113980000Y-96160000D03*
D12*
X140000000Y-122500000D03*
D19*
X118750000Y-113415000D03*
X118750000Y-111765000D03*
D33*
X152500000Y-51100000D03*
D34*
X152500000Y-43900000D03*
D14*
X133750000Y-36750000D03*
X133750000Y-38400000D03*
D10*
X122500000Y-27500000D03*
D11*
X122500000Y-30040000D03*
X122500000Y-32580000D03*
D35*
X135200000Y-51410000D03*
X137500000Y-51410000D03*
D36*
X137500000Y-45110000D03*
D35*
X139800000Y-51410000D03*
D10*
X115000000Y-92700000D03*
D11*
X115000000Y-90160000D03*
D37*
X65240000Y-105000000D03*
D38*
X65240000Y-107540000D03*
X62700000Y-105000000D03*
X62700000Y-107540000D03*
X60160000Y-105000000D03*
X60160000Y-107540000D03*
X57620000Y-105000000D03*
X57620000Y-107540000D03*
X55080000Y-105000000D03*
X55080000Y-107540000D03*
X52540000Y-105000000D03*
X52540000Y-107540000D03*
X50000000Y-105000000D03*
X50000000Y-107540000D03*
X47460000Y-105000000D03*
X47460000Y-107540000D03*
X44920000Y-105000000D03*
X44920000Y-107540000D03*
X42380000Y-105000000D03*
X42380000Y-107540000D03*
D10*
X88750000Y-27500000D03*
D11*
X88750000Y-30040000D03*
X88750000Y-32580000D03*
D20*
X110000000Y-96160000D03*
X108980000Y-96160000D03*
D10*
X110000000Y-92700000D03*
D11*
X110000000Y-90160000D03*
D39*
X30450000Y-78450000D03*
X30450000Y-79100000D03*
X30450000Y-79750000D03*
X30450000Y-80400000D03*
X30450000Y-81050000D03*
D25*
X29930000Y-77325000D03*
X29930000Y-82175000D03*
D40*
X27250000Y-76125000D03*
X27250000Y-83375000D03*
D41*
X139725000Y-53785000D03*
X141275000Y-53785000D03*
D10*
X96250000Y-27500000D03*
D11*
X96250000Y-30040000D03*
X96250000Y-32580000D03*
D10*
X100000000Y-27500000D03*
D11*
X100000000Y-30040000D03*
X100000000Y-32580000D03*
D10*
X130000000Y-27515000D03*
D11*
X130000000Y-30055000D03*
X130000000Y-32595000D03*
D10*
X92500000Y-122660000D03*
D11*
X92500000Y-120120000D03*
X92500000Y-117580000D03*
D10*
X54000000Y-52870000D03*
D38*
X51460000Y-52870000D03*
X54000000Y-50330000D03*
X51460000Y-50330000D03*
X54000000Y-47790000D03*
X51460000Y-47790000D03*
X54000000Y-45250000D03*
X51460000Y-45250000D03*
D32*
X140000000Y-105000000D03*
X141020000Y-105000000D03*
D10*
X71900000Y-68000000D03*
D11*
X74440000Y-68000000D03*
X76980000Y-68000000D03*
X79520000Y-68000000D03*
X82060000Y-68000000D03*
X84600000Y-68000000D03*
X87140000Y-68000000D03*
X89680000Y-68000000D03*
X92220000Y-68000000D03*
X94760000Y-68000000D03*
X97300000Y-68000000D03*
X99840000Y-68000000D03*
X102380000Y-68000000D03*
X104920000Y-68000000D03*
X107460000Y-68000000D03*
X110000000Y-68000000D03*
D32*
X100000000Y-53960000D03*
X101020000Y-53960000D03*
D31*
X33750000Y-100500000D03*
X34710000Y-100500000D03*
D32*
X142730000Y-80960000D03*
X143750000Y-80960000D03*
X115000000Y-53960000D03*
X116020000Y-53960000D03*
D19*
X107500000Y-113415000D03*
X107500000Y-111765000D03*
D23*
X57750000Y-80710000D03*
X57750000Y-79750000D03*
D19*
X92500000Y-113400000D03*
X92500000Y-111750000D03*
X122500000Y-113415000D03*
X122500000Y-111765000D03*
X115000000Y-113400000D03*
X115000000Y-111750000D03*
D10*
X107500000Y-27500000D03*
D11*
X107500000Y-30040000D03*
X107500000Y-32580000D03*
D42*
X28250000Y-103000000D03*
X34750000Y-103000000D03*
X28250000Y-107500000D03*
X34750000Y-107500000D03*
D10*
X103750000Y-27500000D03*
D11*
X103750000Y-30040000D03*
X103750000Y-32580000D03*
D18*
X51500000Y-86082000D03*
X50540000Y-86082000D03*
D19*
X111250000Y-113400000D03*
X111250000Y-111750000D03*
D16*
X50000000Y-99410000D03*
X50000000Y-100430000D03*
D10*
X107500000Y-122660000D03*
D11*
X107500000Y-120120000D03*
X107500000Y-117580000D03*
D10*
X77500000Y-122660000D03*
D11*
X77500000Y-120120000D03*
X77500000Y-117580000D03*
D10*
X111250000Y-27500000D03*
D11*
X111250000Y-30040000D03*
X111250000Y-32580000D03*
D19*
X103750000Y-113415000D03*
X103750000Y-111765000D03*
X126250000Y-113425000D03*
X126250000Y-111775000D03*
D43*
X33450000Y-62300000D03*
X32950000Y-62300000D03*
X32450000Y-62300000D03*
X31950000Y-62300000D03*
X31450000Y-62300000D03*
X30950000Y-62300000D03*
D44*
X30250000Y-63000000D03*
X30250000Y-63500000D03*
X30250000Y-64000000D03*
X30250000Y-64500000D03*
X30250000Y-65000000D03*
X30250000Y-65500000D03*
D43*
X30950000Y-66200000D03*
X31450000Y-66200000D03*
X31950000Y-66200000D03*
X32450000Y-66200000D03*
X32950000Y-66200000D03*
X33450000Y-66200000D03*
D44*
X34150000Y-65500000D03*
X34150000Y-65000000D03*
X34150000Y-64500000D03*
X34150000Y-64000000D03*
X34150000Y-63500000D03*
X34150000Y-63000000D03*
D10*
X92500000Y-27500000D03*
D11*
X92500000Y-30040000D03*
X92500000Y-32580000D03*
D10*
X81250000Y-122660000D03*
D11*
X81250000Y-120120000D03*
X81250000Y-117580000D03*
D19*
X77500000Y-113475000D03*
X77500000Y-111825000D03*
D10*
X118750000Y-27515000D03*
D11*
X118750000Y-30055000D03*
X118750000Y-32595000D03*
D10*
X146250000Y-67040000D03*
D11*
X146250000Y-64500000D03*
D45*
X95212500Y-102660000D03*
X95212500Y-103310000D03*
X95212500Y-103960000D03*
X95212500Y-104610000D03*
X95212500Y-105260000D03*
X95212500Y-105910000D03*
X95212500Y-106560000D03*
D46*
X96100000Y-107447500D03*
X96750000Y-107447500D03*
X97400000Y-107447500D03*
X98050000Y-107447500D03*
X98700000Y-107447500D03*
X99350000Y-107447500D03*
X100000000Y-107447500D03*
D45*
X100887500Y-106560000D03*
X100887500Y-105910000D03*
X100887500Y-105260000D03*
X100887500Y-104610000D03*
X100887500Y-103960000D03*
X100887500Y-103310000D03*
X100887500Y-102660000D03*
D46*
X100000000Y-101772500D03*
X99350000Y-101772500D03*
X98700000Y-101772500D03*
X98050000Y-101772500D03*
X97400000Y-101772500D03*
X96750000Y-101772500D03*
X96100000Y-101772500D03*
D30*
X98050000Y-104610000D03*
D14*
X96250000Y-36750000D03*
X96250000Y-38400000D03*
X126250000Y-36750000D03*
X126250000Y-38400000D03*
D10*
X125000000Y-57500000D03*
D11*
X125000000Y-60040000D03*
D19*
X96250000Y-113400000D03*
X96250000Y-111750000D03*
D12*
X72500000Y-27500000D03*
D10*
X111250000Y-122660000D03*
D11*
X111250000Y-120120000D03*
X111250000Y-117580000D03*
D10*
X133750000Y-27500000D03*
D11*
X133750000Y-30040000D03*
X133750000Y-32580000D03*
D14*
X100000000Y-36750000D03*
X100000000Y-38400000D03*
X88750000Y-36750000D03*
X88750000Y-38400000D03*
D20*
X125000000Y-96160000D03*
X123980000Y-96160000D03*
D47*
X53175000Y-81250000D03*
X53175000Y-80750000D03*
X53175000Y-80250000D03*
X53175000Y-79750000D03*
X53175000Y-79250000D03*
X53175000Y-78750000D03*
X53175000Y-78250000D03*
X53175000Y-77750000D03*
X53175000Y-77250000D03*
X53175000Y-76750000D03*
X53175000Y-76250000D03*
X53175000Y-75750000D03*
X53175000Y-75250000D03*
X53175000Y-74750000D03*
X53175000Y-74250000D03*
X53175000Y-73750000D03*
D48*
X51250000Y-71825000D03*
X50750000Y-71825000D03*
X50250000Y-71825000D03*
X49750000Y-71825000D03*
X49250000Y-71825000D03*
X48750000Y-71825000D03*
X48250000Y-71825000D03*
X47750000Y-71825000D03*
X47250000Y-71825000D03*
X46750000Y-71825000D03*
X46250000Y-71825000D03*
X45750000Y-71825000D03*
X45250000Y-71825000D03*
X44750000Y-71825000D03*
X44250000Y-71825000D03*
X43750000Y-71825000D03*
D47*
X41825000Y-73750000D03*
X41825000Y-74250000D03*
X41825000Y-74750000D03*
X41825000Y-75250000D03*
X41825000Y-75750000D03*
X41825000Y-76250000D03*
X41825000Y-76750000D03*
X41825000Y-77250000D03*
X41825000Y-77750000D03*
X41825000Y-78250000D03*
X41825000Y-78750000D03*
X41825000Y-79250000D03*
X41825000Y-79750000D03*
X41825000Y-80250000D03*
X41825000Y-80750000D03*
X41825000Y-81250000D03*
D48*
X43750000Y-83175000D03*
X44250000Y-83175000D03*
X44750000Y-83175000D03*
X45250000Y-83175000D03*
X45750000Y-83175000D03*
X46250000Y-83175000D03*
X46750000Y-83175000D03*
X47250000Y-83175000D03*
X47750000Y-83175000D03*
X48250000Y-83175000D03*
X48750000Y-83175000D03*
X49250000Y-83175000D03*
X49750000Y-83175000D03*
X50250000Y-83175000D03*
X50750000Y-83175000D03*
X51250000Y-83175000D03*
D10*
X126250000Y-122685000D03*
D11*
X126250000Y-120145000D03*
X126250000Y-117605000D03*
D10*
X124750000Y-81750000D03*
D11*
X122210000Y-81750000D03*
X119670000Y-81750000D03*
D19*
X100000000Y-113415000D03*
X100000000Y-111765000D03*
D14*
X107500000Y-36750000D03*
X107500000Y-38400000D03*
D32*
X105000000Y-53960000D03*
X106020000Y-53960000D03*
D12*
X72500000Y-122500000D03*
D10*
X126250000Y-27500000D03*
D11*
X126250000Y-30040000D03*
X126250000Y-32580000D03*
D12*
X30000000Y-92500000D03*
D19*
X85000000Y-113400000D03*
X85000000Y-111750000D03*
D20*
X120010000Y-96160000D03*
X118990000Y-96160000D03*
D32*
X142730000Y-83460000D03*
X143750000Y-83460000D03*
D10*
X115000000Y-57460000D03*
D11*
X115000000Y-60000000D03*
D10*
X133500000Y-67040000D03*
D11*
X133500000Y-64500000D03*
D49*
X152500000Y-63520000D03*
X152500000Y-62500000D03*
D14*
X122500000Y-36750000D03*
X122500000Y-38400000D03*
X92500000Y-36750000D03*
X92500000Y-38400000D03*
D32*
X120000000Y-53960000D03*
X121020000Y-53960000D03*
D10*
X77500000Y-27500000D03*
D11*
X77500000Y-30040000D03*
X77500000Y-32580000D03*
D10*
X100000000Y-57460000D03*
D11*
X100000000Y-60000000D03*
D41*
X57750000Y-70332000D03*
X59300000Y-70332000D03*
D10*
X120000000Y-57460000D03*
D11*
X120000000Y-60000000D03*
D15*
X152500000Y-60000000D03*
X152500000Y-58425000D03*
D13*
X41500000Y-82332000D03*
X41500000Y-83292000D03*
D50*
X94750000Y-52500000D03*
X103758530Y-50241470D03*
X101000000Y-96500500D03*
X105249503Y-101250000D03*
X62500000Y-76999500D03*
X61970998Y-84999104D03*
X64095023Y-79904977D03*
X62970023Y-85029977D03*
X55987426Y-77000816D03*
X147500000Y-87500000D03*
X43750000Y-73250000D03*
X51250000Y-81250000D03*
X26500000Y-62500000D03*
X147500000Y-62500000D03*
X58750000Y-48250000D03*
X60500000Y-72750000D03*
X94750000Y-51500000D03*
X52750000Y-86250000D03*
X137500000Y-102500000D03*
X37750000Y-79500000D03*
X50250000Y-73500000D03*
X43500000Y-81250000D03*
X72500000Y-102500000D03*
X104250000Y-101250000D03*
X137250000Y-55250000D03*
X32250000Y-67500000D03*
X45778035Y-77999500D03*
X36750000Y-77750000D03*
X56250000Y-99500000D03*
X63500000Y-73000000D03*
X45250000Y-79499500D03*
X52500000Y-99500000D03*
X43000000Y-87000000D03*
X65000000Y-73500000D03*
X67500000Y-86000500D03*
X46250000Y-89000000D03*
X46250000Y-80250000D03*
X49250000Y-89000500D03*
X137250000Y-105000000D03*
X48500000Y-98500000D03*
X49500000Y-79000000D03*
X47750000Y-80500000D03*
X69500000Y-77000000D03*
X47500000Y-97500000D03*
X49500000Y-80500000D03*
X69000000Y-62500000D03*
X111750000Y-78000000D03*
X97500000Y-78000000D03*
X112500000Y-77250000D03*
X67750000Y-62500000D03*
X84500000Y-62500000D03*
X87000000Y-62500000D03*
X89750000Y-62500000D03*
X82000000Y-62500000D03*
X51500000Y-73500000D03*
X52750500Y-70806277D03*
X59750000Y-85000000D03*
X65750000Y-80000000D03*
X62750000Y-62500000D03*
X62750000Y-68049500D03*
X60250000Y-57750000D03*
X61500000Y-68049500D03*
X61500000Y-62500000D03*
X61500000Y-57750500D03*
X63111917Y-79724676D03*
X60750000Y-85000000D03*
X74750000Y-60750000D03*
X55000000Y-77499500D03*
X64000000Y-85000000D03*
X32500000Y-76750000D03*
X65750000Y-93000000D03*
X69750000Y-86000000D03*
X99081637Y-79499500D03*
X32500000Y-83000000D03*
X51750000Y-76250000D03*
X40250000Y-72500000D03*
X63750000Y-74500500D03*
X48278035Y-75278035D03*
X94244773Y-69995273D03*
X48500000Y-85250000D03*
X111750000Y-74000000D03*
X94750000Y-49500000D03*
X102250000Y-101250000D03*
X68119233Y-78749118D03*
X62500000Y-89000000D03*
X103250000Y-101250000D03*
X112500000Y-74750000D03*
X61791780Y-80091285D03*
X94750000Y-50500000D03*
X51279977Y-80220023D03*
X113000000Y-96250000D03*
X30250000Y-100500000D03*
X98279977Y-109970023D03*
X52149312Y-83350688D03*
X56808472Y-79001982D03*
X122000000Y-54000000D03*
X107000000Y-54000000D03*
X108000000Y-96250000D03*
X51500000Y-87000000D03*
X103000000Y-96250000D03*
X117000000Y-54000000D03*
X36500000Y-66000000D03*
X97750500Y-96173913D03*
X52000000Y-68750000D03*
X142750000Y-53750000D03*
X127000000Y-54000000D03*
X62250000Y-79000000D03*
X28000000Y-65500000D03*
X27249500Y-63500000D03*
X123000000Y-96250000D03*
X32500000Y-100500000D03*
X60500000Y-70250000D03*
X118000000Y-96250000D03*
X30000000Y-68500000D03*
X33000000Y-81845500D03*
X134250000Y-53750000D03*
X112000000Y-54000000D03*
X151500000Y-63500000D03*
X40250000Y-83250000D03*
X41750000Y-70000000D03*
X59250000Y-73750000D03*
X28000000Y-61750500D03*
X32113745Y-79428791D03*
X98279977Y-40029977D03*
X102000000Y-54000000D03*
X28500000Y-68500000D03*
X37250000Y-65000000D03*
X63499500Y-71000000D03*
X49500000Y-75250000D03*
X63500000Y-72000000D03*
X51000000Y-75250000D03*
X54998411Y-67498411D03*
X44250000Y-80500000D03*
X66470023Y-73529977D03*
X61500000Y-77156998D03*
X65000000Y-85000000D03*
X35500000Y-81750000D03*
X35500000Y-76750000D03*
X36470023Y-83779977D03*
X36500000Y-76750000D03*
X37500000Y-86000000D03*
X37500000Y-76750000D03*
X37970023Y-87529977D03*
X44000000Y-76750000D03*
X44750000Y-89000000D03*
X44750000Y-91999500D03*
X45456402Y-92706608D03*
X45500000Y-88250000D03*
X64000000Y-62500000D03*
X65250000Y-62500000D03*
X66500000Y-62500000D03*
X47749500Y-87500500D03*
X68250000Y-77000000D03*
X65500000Y-76250000D03*
X48500000Y-86751000D03*
X66500000Y-79250000D03*
X51500000Y-77500000D03*
X66500000Y-83500000D03*
X50000500Y-84749500D03*
X58500000Y-84000000D03*
X67250000Y-80000500D03*
X67000000Y-93000000D03*
X33750000Y-85500000D03*
X100000000Y-80250000D03*
X91000000Y-81000000D03*
X33500000Y-76750000D03*
X34500000Y-87500000D03*
X95000000Y-91000000D03*
X100831637Y-80999500D03*
X34500000Y-76750000D03*
D51*
X100000000Y-50664212D02*
X100000000Y-53960000D01*
X98700000Y-48175000D02*
X98700000Y-49364212D01*
X100000000Y-53960000D02*
X100000000Y-57460000D01*
X98700000Y-49364212D02*
X100000000Y-50664212D01*
X105000000Y-57460000D02*
X105000000Y-53960000D01*
X102542894Y-52500000D02*
X103540000Y-52500000D01*
X103540000Y-52500000D02*
X105000000Y-53960000D01*
X99350000Y-48175000D02*
X99350000Y-49307106D01*
X99350000Y-49307106D02*
X102542894Y-52500000D01*
X100000000Y-48175000D02*
X100000000Y-49250000D01*
X108040000Y-52000000D02*
X110000000Y-53960000D01*
X100000000Y-49250000D02*
X102750000Y-52000000D01*
X102750000Y-52000000D02*
X108040000Y-52000000D01*
X110000000Y-57460000D02*
X110000000Y-53960000D01*
X115000000Y-53960000D02*
X115000000Y-57460000D01*
X100887500Y-47287500D02*
X100887500Y-49137500D01*
X103250000Y-51500000D02*
X112540000Y-51500000D01*
X112540000Y-51500000D02*
X115000000Y-53960000D01*
X100887500Y-49137500D02*
X103250000Y-51500000D01*
X103457106Y-51000000D02*
X117040000Y-51000000D01*
X101351041Y-46637500D02*
X101853553Y-47140012D01*
X120000000Y-57460000D02*
X120000000Y-53960000D01*
X101853553Y-49396447D02*
X103457106Y-51000000D01*
X117040000Y-51000000D02*
X120000000Y-53960000D01*
X100887500Y-46637500D02*
X101351041Y-46637500D01*
X101853553Y-47140012D02*
X101853553Y-49396447D01*
X95212500Y-47287500D02*
X94000000Y-48500000D01*
X121241470Y-50241470D02*
X103758530Y-50241470D01*
X94000000Y-48500000D02*
X94000000Y-52000000D01*
X94500000Y-52500000D02*
X94750000Y-52500000D01*
X125000000Y-54000000D02*
X121241470Y-50241470D01*
X125000000Y-54000000D02*
X125000000Y-57500000D01*
X94000000Y-52000000D02*
X94500000Y-52500000D01*
X104090000Y-102660000D02*
X100887500Y-102660000D01*
X105249503Y-101500497D02*
X104090000Y-102660000D01*
X105249503Y-101250000D02*
X105249503Y-101500497D01*
X100000000Y-96160000D02*
X100659500Y-96160000D01*
X100000000Y-92700000D02*
X100000000Y-96160000D01*
X100659500Y-96160000D02*
X101000000Y-96500500D01*
X94350000Y-102911041D02*
X94350000Y-101359214D01*
X94350000Y-101359214D02*
X98459212Y-97250000D01*
X105000000Y-96160000D02*
X105000000Y-92700000D01*
X95212500Y-103310000D02*
X94748959Y-103310000D01*
X103910000Y-97250000D02*
X105000000Y-96160000D01*
X98459212Y-97250000D02*
X103910000Y-97250000D01*
X94748959Y-103310000D02*
X94350000Y-102911041D01*
X98666319Y-97750000D02*
X108410000Y-97750000D01*
X95212500Y-102660000D02*
X95212500Y-101203820D01*
X108410000Y-97750000D02*
X110000000Y-96160000D01*
X110000000Y-92700000D02*
X110000000Y-96160000D01*
X95212500Y-101203820D02*
X98666319Y-97750000D01*
X96100000Y-101023427D02*
X98873426Y-98250000D01*
X115000000Y-96160000D02*
X115000000Y-92700000D01*
X98873426Y-98250000D02*
X112910000Y-98250000D01*
X96100000Y-101772500D02*
X96100000Y-101023427D01*
X112910000Y-98250000D02*
X115000000Y-96160000D01*
X120000000Y-96150000D02*
X120000000Y-92700000D01*
X96750000Y-101080534D02*
X99080533Y-98750000D01*
X120010000Y-96160000D02*
X120000000Y-96150000D01*
X99080533Y-98750000D02*
X117420000Y-98750000D01*
X117420000Y-98750000D02*
X120010000Y-96160000D01*
X96750000Y-101772500D02*
X96750000Y-101080534D01*
X125000000Y-96160000D02*
X125000000Y-92700000D01*
X97400000Y-101137640D02*
X99287640Y-99250000D01*
X121910000Y-99250000D02*
X125000000Y-96160000D01*
X97400000Y-101772500D02*
X97400000Y-101137640D01*
X99287640Y-99250000D02*
X121910000Y-99250000D01*
D52*
X152190000Y-51410000D02*
X152500000Y-51100000D01*
X139800000Y-51410000D02*
X152190000Y-51410000D01*
X152500000Y-58425000D02*
X152500000Y-51100000D01*
X139725000Y-53785000D02*
X139725000Y-51485000D01*
X139725000Y-51485000D02*
X139800000Y-51410000D01*
D51*
X133750000Y-32580000D02*
X133750000Y-36750000D01*
X130000000Y-36750000D02*
X130000000Y-32595000D01*
X126250000Y-32580000D02*
X126250000Y-36750000D01*
X122500000Y-32580000D02*
X122500000Y-36750000D01*
X118750000Y-36750000D02*
X118750000Y-32595000D01*
X115000000Y-32595000D02*
X115000000Y-36750000D01*
X44250000Y-70332000D02*
X44250000Y-71825000D01*
X44000000Y-70082000D02*
X44250000Y-70332000D01*
X111250000Y-36750000D02*
X111250000Y-32580000D01*
X107500000Y-32580000D02*
X107500000Y-36750000D01*
X103750000Y-36750000D02*
X103750000Y-32580000D01*
X100000000Y-36750000D02*
X100000000Y-32580000D01*
X96250000Y-32580000D02*
X96250000Y-36750000D01*
X92500000Y-36750000D02*
X92500000Y-32580000D01*
X88750000Y-36750000D02*
X88750000Y-32580000D01*
X85000000Y-36750000D02*
X85000000Y-32580000D01*
X40616959Y-81082000D02*
X40948959Y-80750000D01*
X40948959Y-80750000D02*
X41825000Y-80750000D01*
X40250000Y-81082000D02*
X40616959Y-81082000D01*
X57620000Y-100430000D02*
X57620000Y-105000000D01*
X55080000Y-100430000D02*
X55080000Y-105000000D01*
X81250000Y-32580000D02*
X81250000Y-36750000D01*
X77500000Y-36735000D02*
X77500000Y-32580000D01*
X77500000Y-113475000D02*
X77500000Y-117580000D01*
X81250000Y-117580000D02*
X81250000Y-113400000D01*
X85000000Y-113400000D02*
X85000000Y-117580000D01*
X88750000Y-117580000D02*
X88750000Y-113415000D01*
X92500000Y-113400000D02*
X92500000Y-117580000D01*
X96250000Y-117580000D02*
X96250000Y-113400000D01*
X50000000Y-100430000D02*
X50000000Y-105000000D01*
X100000000Y-113415000D02*
X100000000Y-117580000D01*
X103750000Y-117580000D02*
X103750000Y-113415000D01*
X107500000Y-113415000D02*
X107500000Y-117580000D01*
X111250000Y-117580000D02*
X111250000Y-113400000D01*
X115000000Y-113400000D02*
X115000000Y-117580000D01*
X118750000Y-117580000D02*
X118750000Y-113415000D01*
X122500000Y-113415000D02*
X122500000Y-117580000D01*
X126250000Y-117605000D02*
X126250000Y-113425000D01*
X47460000Y-100430000D02*
X47460000Y-105000000D01*
X130000000Y-117580000D02*
X130000000Y-113410000D01*
X133750000Y-113425000D02*
X133750000Y-117580000D01*
X62500000Y-76999500D02*
X61907998Y-76407498D01*
X61970998Y-85091613D02*
X61970998Y-84999104D01*
X56915035Y-76250000D02*
X53175000Y-76250000D01*
X57134704Y-76469669D02*
X56915035Y-76250000D01*
X61907998Y-76407498D02*
X60456771Y-76407498D01*
X70250000Y-88250000D02*
X65129385Y-88250000D01*
X65129385Y-88250000D02*
X61970998Y-85091613D01*
X76270000Y-88250000D02*
X70250000Y-88250000D01*
X79520000Y-85000000D02*
X76270000Y-88250000D01*
X60456771Y-76407498D02*
X60394600Y-76469669D01*
X60394600Y-76469669D02*
X57134704Y-76469669D01*
X55736610Y-76750000D02*
X53175000Y-76750000D01*
X74230000Y-87750000D02*
X70250000Y-87750000D01*
X55987426Y-77000816D02*
X55736610Y-76750000D01*
X65690046Y-87750000D02*
X62970023Y-85029977D01*
X70250000Y-87750000D02*
X65690046Y-87750000D01*
X76980000Y-85000000D02*
X74230000Y-87750000D01*
X142730000Y-83480000D02*
X142730000Y-83460000D01*
X51500000Y-86082000D02*
X52582000Y-86082000D01*
D52*
X59250000Y-71872000D02*
X57885000Y-71872000D01*
D51*
X62500000Y-45000000D02*
X59500000Y-45000000D01*
X52582000Y-86082000D02*
X52750000Y-86250000D01*
X58080000Y-46420000D02*
X58750000Y-45750000D01*
X155000000Y-80000000D02*
X155000000Y-77500000D01*
D52*
X137250000Y-51660000D02*
X137500000Y-51410000D01*
D51*
X43750000Y-71825000D02*
X42993000Y-71825000D01*
X146750000Y-87500000D02*
X142730000Y-83480000D01*
D52*
X57885000Y-71872000D02*
X57750000Y-72007000D01*
D51*
X142730000Y-67000000D02*
X142730000Y-64500000D01*
X41500000Y-81575000D02*
X41825000Y-81250000D01*
D52*
X57750000Y-70332000D02*
X57750000Y-72007000D01*
D51*
X59250000Y-71872000D02*
X59622000Y-71872000D01*
X43750000Y-71825000D02*
X43750000Y-73250000D01*
X147500000Y-87500000D02*
X155000000Y-80000000D01*
X41825000Y-81250000D02*
X43500000Y-81250000D01*
X51250000Y-85832000D02*
X51500000Y-86082000D01*
X31000000Y-67500000D02*
X32250000Y-67500000D01*
X104250000Y-101189339D02*
X104250000Y-101250000D01*
X59622000Y-71872000D02*
X60500000Y-72750000D01*
D52*
X137250000Y-53785000D02*
X137250000Y-51660000D01*
D51*
X62280000Y-110500000D02*
X65240000Y-107540000D01*
X53500000Y-81575000D02*
X53175000Y-81250000D01*
X95302753Y-51500000D02*
X94750000Y-51500000D01*
X98050000Y-48752753D02*
X95302753Y-51500000D01*
X37746000Y-79496000D02*
X37750000Y-79500000D01*
X26500000Y-62500000D02*
X28207035Y-62500000D01*
X98050000Y-48175000D02*
X98050000Y-48752753D01*
X50250000Y-69082000D02*
X50250000Y-71825000D01*
X99494746Y-99750000D02*
X102810661Y-99750000D01*
X28250000Y-107500000D02*
X34750000Y-107500000D01*
X51250000Y-83175000D02*
X51250000Y-81250000D01*
X37750000Y-110500000D02*
X62280000Y-110500000D01*
X29250000Y-63500000D02*
X30250000Y-63500000D01*
X53175000Y-81250000D02*
X51250000Y-81250000D01*
X50250000Y-71825000D02*
X50250000Y-73500000D01*
X142730000Y-80960000D02*
X142730000Y-83460000D01*
X65240000Y-105000000D02*
X65240000Y-107540000D01*
X51250000Y-83175000D02*
X51250000Y-85832000D01*
X41500000Y-82332000D02*
X41500000Y-81575000D01*
X31000000Y-67500000D02*
X30950000Y-67450000D01*
X102810661Y-99750000D02*
X104250000Y-101189339D01*
X98050000Y-101772500D02*
X98050000Y-101194747D01*
X50000000Y-68832000D02*
X50250000Y-69082000D01*
X42993000Y-71825000D02*
X42750000Y-71582000D01*
X35387500Y-79496000D02*
X37746000Y-79496000D01*
X59500000Y-45000000D02*
X58750000Y-45750000D01*
X98050000Y-101194747D02*
X99494746Y-99750000D01*
X30950000Y-67450000D02*
X30950000Y-66200000D01*
D52*
X137500000Y-45110000D02*
X137500000Y-51410000D01*
D51*
X28957035Y-63250000D02*
X29000000Y-63250000D01*
X58750000Y-48250000D02*
X58080000Y-47580000D01*
X29000000Y-63250000D02*
X29250000Y-63500000D01*
X147500000Y-62500000D02*
X144730000Y-62500000D01*
X147500000Y-87500000D02*
X146750000Y-87500000D01*
X34750000Y-107500000D02*
X37750000Y-110500000D01*
X53500000Y-82332000D02*
X53500000Y-81575000D01*
X58080000Y-47580000D02*
X58080000Y-46420000D01*
D52*
X137250000Y-53785000D02*
X137250000Y-55250000D01*
D51*
X28207035Y-62500000D02*
X28957035Y-63250000D01*
X144730000Y-62500000D02*
X142730000Y-64500000D01*
X31375000Y-79100000D02*
X30450000Y-79100000D01*
X33112500Y-78546000D02*
X31929000Y-78546000D01*
X31929000Y-78546000D02*
X31375000Y-79100000D01*
X32071000Y-80446000D02*
X31375000Y-79750000D01*
X31375000Y-79750000D02*
X30450000Y-79750000D01*
X33112500Y-80446000D02*
X32071000Y-80446000D01*
D52*
X57500000Y-74872000D02*
X58750000Y-74872000D01*
D51*
X53175000Y-75250000D02*
X57079035Y-75250000D01*
X57079035Y-75250000D02*
X57457035Y-74872000D01*
D52*
X57750000Y-74622000D02*
X57500000Y-74872000D01*
X57750000Y-73582000D02*
X57750000Y-74622000D01*
D51*
X57457035Y-74872000D02*
X57500000Y-74872000D01*
X33832107Y-81096000D02*
X34125000Y-80803107D01*
X45027535Y-78750000D02*
X41825000Y-78750000D01*
X34125000Y-78375000D02*
X34750000Y-77750000D01*
X34750000Y-77750000D02*
X36750000Y-77750000D01*
X32013894Y-81096000D02*
X33832107Y-81096000D01*
X31317894Y-80400000D02*
X32013894Y-81096000D01*
X45778035Y-77999500D02*
X45027535Y-78750000D01*
X30450000Y-80400000D02*
X31317894Y-80400000D01*
X34125000Y-80803107D02*
X34125000Y-78375000D01*
X35387500Y-78546000D02*
X40244959Y-78546000D01*
X40948959Y-79250000D02*
X41825000Y-79250000D01*
X40244959Y-78546000D02*
X40948959Y-79250000D01*
X35387500Y-80446000D02*
X40252959Y-80446000D01*
X40948959Y-79750000D02*
X41825000Y-79750000D01*
X40252959Y-80446000D02*
X40948959Y-79750000D01*
X45249500Y-79500000D02*
X45250000Y-79499500D01*
X41825000Y-80250000D02*
X42701041Y-80250000D01*
X64310661Y-72250000D02*
X63560661Y-73000000D01*
X42701041Y-80250000D02*
X43451041Y-79500000D01*
X100670000Y-72250000D02*
X70250000Y-72250000D01*
X43451041Y-79500000D02*
X45249500Y-79500000D01*
X57530000Y-99500000D02*
X57620000Y-99410000D01*
X63560661Y-73000000D02*
X63500000Y-73000000D01*
X56250000Y-99500000D02*
X57530000Y-99500000D01*
X70250000Y-72250000D02*
X64310661Y-72250000D01*
X104920000Y-68000000D02*
X100670000Y-72250000D01*
X43000000Y-87000000D02*
X43250961Y-86749039D01*
X102710000Y-72750000D02*
X70250000Y-72750000D01*
X52590000Y-99410000D02*
X52500000Y-99500000D01*
X43250961Y-86749039D02*
X43250961Y-83674039D01*
X43250961Y-83674039D02*
X43750000Y-83175000D01*
X70250000Y-72750000D02*
X65750000Y-72750000D01*
X55080000Y-99410000D02*
X52590000Y-99410000D01*
X65750000Y-72750000D02*
X65000000Y-73500000D01*
X107460000Y-68000000D02*
X102710000Y-72750000D01*
X45750000Y-87439339D02*
X45750000Y-83175000D01*
X102380000Y-85000000D02*
X100630000Y-83250000D01*
X46250000Y-87939339D02*
X45750000Y-87439339D01*
X46250000Y-89000000D02*
X46250000Y-87939339D01*
X67500000Y-86000000D02*
X67500000Y-86000500D01*
X100630000Y-83250000D02*
X70250000Y-83250000D01*
X70250000Y-83250000D02*
X67500000Y-86000000D01*
X46250000Y-80250000D02*
X46250000Y-83175000D01*
X137250000Y-105000000D02*
X140000000Y-105000000D01*
X49250000Y-83175000D02*
X49250000Y-89000500D01*
X69500000Y-77000000D02*
X70250000Y-77750000D01*
X46750000Y-83175000D02*
X46750000Y-81500000D01*
X49090000Y-98500000D02*
X50000000Y-99410000D01*
X77770000Y-77750000D02*
X70250000Y-77750000D01*
X48500000Y-98500000D02*
X49090000Y-98500000D01*
X79520000Y-76000000D02*
X77770000Y-77750000D01*
X46750000Y-81500000D02*
X47750000Y-80500000D01*
X56497811Y-79751982D02*
X56751982Y-79751982D01*
X56058472Y-79250000D02*
X56058472Y-79312643D01*
X56058472Y-79312643D02*
X56497811Y-79751982D01*
X57090000Y-80092965D02*
X57707035Y-80710000D01*
X57090000Y-80090000D02*
X57090000Y-80092965D01*
X56751982Y-79751982D02*
X57090000Y-80090000D01*
X53175000Y-79250000D02*
X56058472Y-79250000D01*
X59950000Y-81007000D02*
X60500000Y-80457000D01*
X58047000Y-81007000D02*
X59950000Y-81007000D01*
X60500000Y-80457000D02*
X60500000Y-80082000D01*
X57707035Y-80710000D02*
X57750000Y-80710000D01*
X57750000Y-80710000D02*
X58047000Y-81007000D01*
X56667793Y-78082000D02*
X57247035Y-78082000D01*
X57500000Y-77622000D02*
X58290000Y-77622000D01*
X58290000Y-77622000D02*
X59000000Y-78332000D01*
X56058472Y-78691321D02*
X56667793Y-78082000D01*
X57247035Y-78082000D02*
X57707035Y-77622000D01*
X56058472Y-78750000D02*
X56058472Y-78691321D01*
X57707035Y-77622000D02*
X57750000Y-77622000D01*
X53175000Y-78750000D02*
X56058472Y-78750000D01*
X47500000Y-99370000D02*
X47460000Y-99410000D01*
X53175000Y-78250000D02*
X51750000Y-78250000D01*
X28250000Y-100500000D02*
X28250000Y-103000000D01*
X47500000Y-97500000D02*
X47500000Y-99370000D01*
X28250000Y-100500000D02*
X28250000Y-100457035D01*
X29297035Y-99410000D02*
X47460000Y-99410000D01*
X51750000Y-78250000D02*
X49500000Y-80500000D01*
X28250000Y-100457035D02*
X29297035Y-99410000D01*
X111750000Y-78000000D02*
X143290000Y-78000000D01*
X44750000Y-66715081D02*
X47357540Y-64107540D01*
X99840000Y-76000000D02*
X99840000Y-77160000D01*
X34150000Y-63000000D02*
X46250000Y-63000000D01*
X99840000Y-77160000D02*
X99000000Y-78000000D01*
X65000000Y-58500000D02*
X69000000Y-62500000D01*
X44750000Y-71825000D02*
X44750000Y-66715081D01*
X46250000Y-63000000D02*
X47357540Y-64107540D01*
X47357540Y-64107540D02*
X52965079Y-58500000D01*
X52965079Y-58500000D02*
X65000000Y-58500000D01*
X143750000Y-80960000D02*
X146250000Y-80960000D01*
X99000000Y-78000000D02*
X97500000Y-78000000D01*
X143290000Y-78000000D02*
X146250000Y-80960000D01*
X144237557Y-77250500D02*
X147450000Y-80462943D01*
X45250000Y-71825000D02*
X45250000Y-66922187D01*
X64250000Y-59000000D02*
X67750000Y-62500000D01*
X37500000Y-63500000D02*
X36500000Y-63500000D01*
X146210000Y-83460000D02*
X146250000Y-83500000D01*
X143750000Y-83460000D02*
X146210000Y-83460000D01*
X147450000Y-82300000D02*
X146250000Y-83500000D01*
X42950000Y-73700000D02*
X42950000Y-73498959D01*
X147450000Y-80462943D02*
X147450000Y-82300000D01*
X45250000Y-72810661D02*
X44060661Y-74000000D01*
X41455035Y-72250000D02*
X39000000Y-69794965D01*
X42950000Y-73498959D02*
X41701041Y-72250000D01*
X112500500Y-77250500D02*
X144237557Y-77250500D01*
X36500000Y-63500000D02*
X34150000Y-63500000D01*
X44060661Y-74000000D02*
X43250000Y-74000000D01*
X45250000Y-71825000D02*
X45250000Y-72810661D01*
X45250000Y-66922187D02*
X53172186Y-59000000D01*
X39000000Y-65000000D02*
X37500000Y-63500000D01*
X112500000Y-77250000D02*
X112500500Y-77250500D01*
X53172186Y-59000000D02*
X64250000Y-59000000D01*
X43250000Y-74000000D02*
X42950000Y-73700000D01*
X41701041Y-72250000D02*
X41455035Y-72250000D01*
X39000000Y-69794965D02*
X39000000Y-65000000D01*
D52*
X152500000Y-60000000D02*
X152500000Y-62500000D01*
D51*
X85365000Y-103960000D02*
X77500000Y-111825000D01*
X95212500Y-103960000D02*
X85365000Y-103960000D01*
X88390000Y-104610000D02*
X81250000Y-111750000D01*
X95212500Y-104610000D02*
X88390000Y-104610000D01*
X95212500Y-105260000D02*
X91490000Y-105260000D01*
X91490000Y-105260000D02*
X85000000Y-111750000D01*
X94605000Y-105910000D02*
X88750000Y-111765000D01*
X95212500Y-105910000D02*
X94605000Y-105910000D01*
X95212500Y-109037500D02*
X92500000Y-111750000D01*
X95212500Y-106560000D02*
X95212500Y-109037500D01*
X96100000Y-107447500D02*
X96100000Y-111600000D01*
X96100000Y-111600000D02*
X96250000Y-111750000D01*
X98015000Y-111765000D02*
X100000000Y-111765000D01*
X96750000Y-110500000D02*
X98015000Y-111765000D01*
X96750000Y-107447500D02*
X96750000Y-110500000D01*
X97400000Y-110150000D02*
X98000000Y-110750000D01*
X97400000Y-107447500D02*
X97400000Y-110150000D01*
X98000000Y-110750000D02*
X102735000Y-110750000D01*
X102735000Y-110750000D02*
X103750000Y-111765000D01*
X98700000Y-108950000D02*
X100000000Y-110250000D01*
X105985000Y-110250000D02*
X107500000Y-111765000D01*
X100000000Y-110250000D02*
X105985000Y-110250000D01*
X98700000Y-107447500D02*
X98700000Y-108950000D01*
X99350000Y-108892894D02*
X100207106Y-109750000D01*
X99350000Y-107447500D02*
X99350000Y-108892894D01*
X109250000Y-109750000D02*
X111250000Y-111750000D01*
X100207106Y-109750000D02*
X109250000Y-109750000D01*
X100000000Y-107447500D02*
X100000000Y-108835788D01*
X112500000Y-109250000D02*
X115000000Y-111750000D01*
X100414212Y-109250000D02*
X112500000Y-109250000D01*
X100000000Y-108835788D02*
X100414212Y-109250000D01*
X100887500Y-106560000D02*
X113545000Y-106560000D01*
X113545000Y-106560000D02*
X118750000Y-111765000D01*
X100887500Y-105910000D02*
X116645000Y-105910000D01*
X116645000Y-105910000D02*
X122500000Y-111765000D01*
X100887500Y-105260000D02*
X115740000Y-105260000D01*
X119725000Y-105250000D02*
X126250000Y-111775000D01*
X115750000Y-105250000D02*
X119725000Y-105250000D01*
X115740000Y-105260000D02*
X115750000Y-105250000D01*
X100887500Y-104610000D02*
X122850000Y-104610000D01*
X122850000Y-104610000D02*
X130000000Y-111760000D01*
X100887500Y-103960000D02*
X125935000Y-103960000D01*
X125935000Y-103960000D02*
X133750000Y-111775000D01*
X141020000Y-105000000D02*
X145052500Y-105000000D01*
X56500000Y-70293827D02*
X59493827Y-67300000D01*
X56000000Y-74750000D02*
X56500000Y-74250000D01*
X56500000Y-72000000D02*
X56500000Y-70293827D01*
X59493827Y-67300000D02*
X71200000Y-67300000D01*
X71200000Y-67300000D02*
X71900000Y-68000000D01*
X56500000Y-74250000D02*
X56500000Y-72000000D01*
X53175000Y-74750000D02*
X56000000Y-74750000D01*
X55500497Y-72000000D02*
X55500497Y-70586224D01*
X55500497Y-73749503D02*
X55500497Y-72000000D01*
X59286721Y-66800000D02*
X73240000Y-66800000D01*
X53175000Y-74250000D02*
X55000000Y-74250000D01*
X55000000Y-74250000D02*
X55500497Y-73749503D01*
X73240000Y-66800000D02*
X74440000Y-68000000D01*
X55500497Y-70586224D02*
X59286721Y-66800000D01*
X58040000Y-43750000D02*
X54000000Y-47790000D01*
X53029035Y-64800000D02*
X49250000Y-68579035D01*
X65750000Y-43750000D02*
X58040000Y-43750000D01*
X84500000Y-62500000D02*
X65750000Y-43750000D01*
X49250000Y-68579035D02*
X49250000Y-71825000D01*
X81400000Y-64800000D02*
X53029035Y-64800000D01*
X84600000Y-68000000D02*
X81400000Y-64800000D01*
X87000000Y-62500000D02*
X67750000Y-43250000D01*
X56000000Y-43250000D02*
X54000000Y-45250000D01*
X55750000Y-64000000D02*
X83140000Y-64000000D01*
X83140000Y-64000000D02*
X87140000Y-68000000D01*
X48750000Y-68371929D02*
X48750000Y-71825000D01*
X53121929Y-64000000D02*
X48750000Y-68371929D01*
X67750000Y-43250000D02*
X56000000Y-43250000D01*
X55750000Y-64000000D02*
X53121929Y-64000000D01*
X84930000Y-63250000D02*
X89680000Y-68000000D01*
X48250000Y-68164823D02*
X53164823Y-63250000D01*
X52262943Y-42750000D02*
X50260000Y-44752943D01*
X70000000Y-42750000D02*
X52262943Y-42750000D01*
X53164823Y-63250000D02*
X54250000Y-63250000D01*
X54250000Y-63250000D02*
X84930000Y-63250000D01*
X50260000Y-44752943D02*
X50260000Y-46590000D01*
X48250000Y-71825000D02*
X48250000Y-68164823D01*
X50260000Y-46590000D02*
X51460000Y-47790000D01*
X89750000Y-62500000D02*
X70000000Y-42750000D01*
X49939339Y-74250000D02*
X50750000Y-74250000D01*
X82000000Y-62500000D02*
X81000000Y-61500000D01*
X49750000Y-72939339D02*
X49500000Y-73189339D01*
X49500000Y-73810661D02*
X49939339Y-74250000D01*
X52750000Y-46540000D02*
X51460000Y-45250000D01*
X81000000Y-61500000D02*
X68750000Y-61500000D01*
X49500000Y-73189339D02*
X49500000Y-73810661D01*
X79360000Y-65300000D02*
X82060000Y-68000000D01*
X50750000Y-74250000D02*
X51500000Y-73500000D01*
X52750000Y-48237057D02*
X52750000Y-46540000D01*
X56240000Y-48990000D02*
X53502943Y-48990000D01*
X49750000Y-71825000D02*
X49750000Y-72939339D01*
X53502943Y-48990000D02*
X52750000Y-48237057D01*
X58256777Y-65300000D02*
X79360000Y-65300000D01*
X68750000Y-61500000D02*
X56240000Y-48990000D01*
X52750500Y-70806277D02*
X58256777Y-65300000D01*
X65750000Y-80000000D02*
X65750000Y-77561161D01*
X65750000Y-77561161D02*
X62750000Y-74561161D01*
X84600000Y-85000000D02*
X80350000Y-89250000D01*
X62750000Y-74561161D02*
X62750000Y-68049500D01*
X63939339Y-89250000D02*
X59750000Y-85060661D01*
X53250611Y-61750000D02*
X47250000Y-67750611D01*
X60250000Y-57750000D02*
X60250000Y-54707106D01*
X80350000Y-89250000D02*
X70250000Y-89250000D01*
X47250000Y-67750611D02*
X47250000Y-71825000D01*
X57072894Y-51530000D02*
X52660000Y-51530000D01*
X59750000Y-85060661D02*
X59750000Y-85000000D01*
X58000000Y-61750000D02*
X62000000Y-61750000D01*
X58000000Y-61750000D02*
X53250611Y-61750000D01*
X62000000Y-61750000D02*
X62750000Y-62500000D01*
X70250000Y-89250000D02*
X63939339Y-89250000D01*
X60250000Y-54707106D02*
X57072894Y-51530000D01*
X52660000Y-51530000D02*
X51460000Y-50330000D01*
X63500000Y-79336593D02*
X63500000Y-76018267D01*
X64500000Y-88750000D02*
X60750000Y-85000000D01*
X61500000Y-55250000D02*
X56580000Y-50330000D01*
X61500000Y-57750500D02*
X61500000Y-55250000D01*
X63111917Y-79724676D02*
X63500000Y-79336593D01*
X56499500Y-62500500D02*
X56500000Y-62500000D01*
X78310000Y-88750000D02*
X70250000Y-88750000D01*
X47750000Y-67957717D02*
X53207217Y-62500500D01*
X56500000Y-62500000D02*
X61500000Y-62500000D01*
X82060000Y-85000000D02*
X78310000Y-88750000D01*
X61500000Y-74018267D02*
X61500000Y-68049500D01*
X63500000Y-76018267D02*
X61500000Y-74018267D01*
X70250000Y-88750000D02*
X64500000Y-88750000D01*
X53207217Y-62500500D02*
X56499500Y-62500500D01*
X47750000Y-71825000D02*
X47750000Y-67957717D01*
X56580000Y-50330000D02*
X54000000Y-50330000D01*
X66189339Y-87250000D02*
X64000000Y-85060661D01*
X53175000Y-77250000D02*
X54750500Y-77250000D01*
X62500000Y-47540000D02*
X59520000Y-47540000D01*
X62500000Y-47540000D02*
X74750000Y-59790000D01*
X54750500Y-77250000D02*
X55000000Y-77499500D01*
X74440000Y-85000000D02*
X72190000Y-87250000D01*
X70250000Y-87250000D02*
X66189339Y-87250000D01*
X74750000Y-59790000D02*
X74750000Y-60750000D01*
X64000000Y-85060661D02*
X64000000Y-85000000D01*
X72190000Y-87250000D02*
X70250000Y-87250000D01*
X59520000Y-47540000D02*
X58750000Y-46770000D01*
X35250000Y-73750000D02*
X32500000Y-76500000D01*
X65750000Y-93000000D02*
X65293392Y-93456608D01*
X41825000Y-74250000D02*
X38889085Y-74250000D01*
X32500000Y-76500000D02*
X32500000Y-76750000D01*
X32500000Y-83120615D02*
X32500000Y-83000000D01*
X65293392Y-93456608D02*
X42835993Y-93456608D01*
X38889085Y-74250000D02*
X38389086Y-73750000D01*
X101420500Y-79499500D02*
X99081637Y-79499500D01*
X42835993Y-93456608D02*
X32500000Y-83120615D01*
X38389086Y-73750000D02*
X35250000Y-73750000D01*
X104920000Y-76000000D02*
X101420500Y-79499500D01*
X33689339Y-73250000D02*
X34939339Y-73250000D01*
X68750000Y-73750000D02*
X67750000Y-74750000D01*
X29250000Y-68810661D02*
X33689339Y-73250000D01*
X41825000Y-73750000D02*
X41325000Y-73250000D01*
X67750000Y-74750000D02*
X63999500Y-74750000D01*
X70250000Y-73750000D02*
X68750000Y-73750000D01*
X41325000Y-73250000D02*
X34939339Y-73250000D01*
X63999500Y-74750000D02*
X63750000Y-74500500D01*
X41325000Y-73250000D02*
X41000000Y-73250000D01*
X100130000Y-73750000D02*
X70250000Y-73750000D01*
X102380000Y-76000000D02*
X100130000Y-73750000D01*
X41000000Y-73250000D02*
X40250000Y-72500000D01*
X29250000Y-66500000D02*
X29250000Y-68810661D01*
X30250000Y-65500000D02*
X29250000Y-66500000D01*
X100887500Y-45987500D02*
X126162500Y-45987500D01*
X126162500Y-45987500D02*
X133750000Y-38400000D01*
X100887500Y-45337500D02*
X123062500Y-45337500D01*
X123062500Y-45337500D02*
X130000000Y-38400000D01*
X119962500Y-44687500D02*
X126250000Y-38400000D01*
X100887500Y-44687500D02*
X119962500Y-44687500D01*
X116862500Y-44037500D02*
X122500000Y-38400000D01*
X100887500Y-44037500D02*
X116862500Y-44037500D01*
X100887500Y-43387500D02*
X113762500Y-43387500D01*
X113762500Y-43387500D02*
X118750000Y-38400000D01*
X100164212Y-40750000D02*
X112650000Y-40750000D01*
X112650000Y-40750000D02*
X115000000Y-38400000D01*
X100000000Y-40914212D02*
X100164212Y-40750000D01*
X100000000Y-42500000D02*
X100000000Y-40914212D01*
X99957106Y-40250000D02*
X109400000Y-40250000D01*
X99350000Y-40857106D02*
X99957106Y-40250000D01*
X109400000Y-40250000D02*
X111250000Y-38400000D01*
X99350000Y-42500000D02*
X99350000Y-40857106D01*
X106150000Y-39750000D02*
X107500000Y-38400000D01*
X99750000Y-39750000D02*
X106150000Y-39750000D01*
X98700000Y-40800000D02*
X99750000Y-39750000D01*
X98700000Y-42500000D02*
X98700000Y-40800000D01*
X102900000Y-39250000D02*
X103750000Y-38400000D01*
X97400000Y-39850000D02*
X98000000Y-39250000D01*
X97400000Y-42500000D02*
X97400000Y-39850000D01*
X98000000Y-39250000D02*
X102900000Y-39250000D01*
X99900000Y-38500000D02*
X100000000Y-38400000D01*
X98000000Y-38500000D02*
X99900000Y-38500000D01*
X96750000Y-42500000D02*
X96750000Y-39750000D01*
X96750000Y-39750000D02*
X98000000Y-38500000D01*
X96100000Y-42500000D02*
X96100000Y-38550000D01*
X96100000Y-38550000D02*
X96250000Y-38400000D01*
X95212500Y-43387500D02*
X95212500Y-41112500D01*
X95212500Y-41112500D02*
X92500000Y-38400000D01*
X94387500Y-44037500D02*
X88750000Y-38400000D01*
X95212500Y-44037500D02*
X94387500Y-44037500D01*
X95212500Y-44687500D02*
X91287500Y-44687500D01*
X91287500Y-44687500D02*
X85000000Y-38400000D01*
X95212500Y-45337500D02*
X88187500Y-45337500D01*
X88187500Y-45337500D02*
X81250000Y-38400000D01*
X95212500Y-45987500D02*
X85102500Y-45987500D01*
X85102500Y-45987500D02*
X77500000Y-38385000D01*
X95888541Y-49500000D02*
X94750000Y-49500000D01*
X96750000Y-48638541D02*
X95888541Y-49500000D01*
X146210000Y-67000000D02*
X146250000Y-67040000D01*
X99350000Y-101308959D02*
X99908959Y-100750000D01*
X83890000Y-79250000D02*
X87140000Y-76000000D01*
X143750000Y-67000000D02*
X146210000Y-67000000D01*
X99350000Y-101772500D02*
X99350000Y-101308959D01*
X99908959Y-100750000D02*
X101750000Y-100750000D01*
X68119233Y-78749118D02*
X68620115Y-79250000D01*
X68620115Y-79250000D02*
X83890000Y-79250000D01*
X140792894Y-74000000D02*
X146250000Y-68542894D01*
X48250000Y-83175000D02*
X48250000Y-85000000D01*
X111750000Y-74000000D02*
X140792894Y-74000000D01*
X48250000Y-85000000D02*
X48500000Y-85250000D01*
X96750000Y-48175000D02*
X96750000Y-48638541D01*
X146250000Y-68542894D02*
X146250000Y-67040000D01*
X101750000Y-100750000D02*
X102250000Y-101250000D01*
X146250000Y-64500000D02*
X147450000Y-65700000D01*
X98700000Y-101772500D02*
X98700000Y-101251853D01*
X102500000Y-100250000D02*
X103250000Y-101000000D01*
X95595647Y-50500000D02*
X94750000Y-50500000D01*
X99701853Y-100250000D02*
X102500000Y-100250000D01*
X98700000Y-101251853D02*
X99701853Y-100250000D01*
X61791780Y-80091285D02*
X62450495Y-80750000D01*
X97400000Y-48695647D02*
X95595647Y-50500000D01*
X50250000Y-81189339D02*
X51219316Y-80220023D01*
X51219316Y-80220023D02*
X51279977Y-80220023D01*
X97400000Y-48175000D02*
X97400000Y-48695647D01*
X90010000Y-80750000D02*
X94760000Y-76000000D01*
X50250000Y-83175000D02*
X50250000Y-81189339D01*
X103250000Y-101000000D02*
X103250000Y-101250000D01*
X62450495Y-80750000D02*
X90010000Y-80750000D01*
X147450000Y-68050000D02*
X140750000Y-74750000D01*
X147450000Y-65700000D02*
X147450000Y-68050000D01*
X140750000Y-74750000D02*
X112500000Y-74750000D01*
X143750000Y-64500000D02*
X146250000Y-64500000D01*
X28922894Y-63880000D02*
X28340000Y-63880000D01*
X35500000Y-65960000D02*
X36460000Y-65960000D01*
X57500000Y-79750000D02*
X58668000Y-79750000D01*
X29210000Y-100500000D02*
X30250000Y-100500000D01*
X29000000Y-61500000D02*
X29000000Y-62290000D01*
X98050000Y-107447500D02*
X98050000Y-104610000D01*
X41750000Y-70000000D02*
X41750000Y-71542000D01*
X35260000Y-66200000D02*
X35500000Y-65960000D01*
X57228454Y-78582000D02*
X56808472Y-79001982D01*
D52*
X135700000Y-53785000D02*
X134285000Y-53785000D01*
D51*
X30450000Y-81050000D02*
X31245500Y-81845500D01*
X57600000Y-78582000D02*
X57228454Y-78582000D01*
X97764413Y-96160000D02*
X97750500Y-96173913D01*
X50540000Y-86082000D02*
X50540000Y-86124965D01*
X41832000Y-70082000D02*
X41750000Y-70000000D01*
X29723959Y-65000000D02*
X29223959Y-65500000D01*
X41750000Y-71542000D02*
X41790000Y-71582000D01*
X28460500Y-61750500D02*
X28000000Y-61750500D01*
X108980000Y-96160000D02*
X108090000Y-96160000D01*
X41458000Y-83250000D02*
X41500000Y-83292000D01*
X103980000Y-96160000D02*
X103090000Y-96160000D01*
X121020000Y-53960000D02*
X121960000Y-53960000D01*
X59250000Y-72832000D02*
X59250000Y-73750000D01*
D52*
X58934386Y-75832000D02*
X59750000Y-75016386D01*
D51*
X29250000Y-61250000D02*
X29000000Y-61500000D01*
X50540000Y-86124965D02*
X51415035Y-87000000D01*
D52*
X141275000Y-53785000D02*
X142715000Y-53785000D01*
D51*
X98980000Y-96160000D02*
X97764413Y-96160000D01*
X98050000Y-40259954D02*
X98279977Y-40029977D01*
X116960000Y-53960000D02*
X117000000Y-54000000D01*
X98050000Y-42500000D02*
X98050000Y-45337500D01*
X40250000Y-82042000D02*
X40250000Y-83250000D01*
X123980000Y-96160000D02*
X123090000Y-96160000D01*
X30250000Y-64000000D02*
X29042894Y-64000000D01*
D52*
X155000000Y-74960000D02*
X155000000Y-72420000D01*
D51*
X30040000Y-67500000D02*
X30040000Y-68460000D01*
X98050000Y-42500000D02*
X98050000Y-40259954D01*
D52*
X135200000Y-53285000D02*
X135700000Y-53785000D01*
D51*
X106020000Y-53960000D02*
X106960000Y-53960000D01*
D52*
X57500000Y-75832000D02*
X58750000Y-75832000D01*
D51*
X32180954Y-79496000D02*
X32113745Y-79428791D01*
D52*
X151520000Y-63520000D02*
X151500000Y-63500000D01*
D51*
X59300000Y-70332000D02*
X60418000Y-70332000D01*
X50960000Y-68832000D02*
X50750000Y-69042000D01*
X98050000Y-109740046D02*
X98279977Y-109970023D01*
X33450000Y-66200000D02*
X35260000Y-66200000D01*
X98050000Y-107447500D02*
X98050000Y-109740046D01*
D52*
X155000000Y-66020000D02*
X155000000Y-72420000D01*
D51*
X118990000Y-96160000D02*
X118090000Y-96160000D01*
X31245500Y-81845500D02*
X33000000Y-81845500D01*
X28000000Y-63540000D02*
X27289500Y-63540000D01*
X116020000Y-53960000D02*
X116960000Y-53960000D01*
X101960000Y-53960000D02*
X102000000Y-54000000D01*
X51918000Y-68832000D02*
X52000000Y-68750000D01*
X51415035Y-87000000D02*
X51500000Y-87000000D01*
D52*
X59750000Y-74250000D02*
X59250000Y-73750000D01*
D51*
X33450000Y-61773959D02*
X32926041Y-61250000D01*
X27289500Y-63540000D02*
X27249500Y-63500000D01*
X108090000Y-96160000D02*
X108000000Y-96250000D01*
D52*
X135200000Y-51410000D02*
X135200000Y-53285000D01*
D51*
X29042894Y-64000000D02*
X28922894Y-63880000D01*
D52*
X58750000Y-75832000D02*
X58934386Y-75832000D01*
X152500000Y-63520000D02*
X155000000Y-66020000D01*
D51*
X33750000Y-100500000D02*
X32500000Y-100500000D01*
X58668000Y-79750000D02*
X59000000Y-80082000D01*
X56808472Y-79058472D02*
X57500000Y-79750000D01*
X33450000Y-62300000D02*
X33450000Y-61773959D01*
D52*
X134285000Y-53785000D02*
X134250000Y-53750000D01*
D51*
X52208000Y-83292000D02*
X52149312Y-83350688D01*
X36460000Y-65960000D02*
X36500000Y-66000000D01*
X50750000Y-69042000D02*
X50750000Y-71825000D01*
X29000000Y-62290000D02*
X28460500Y-61750500D01*
X106960000Y-53960000D02*
X107000000Y-54000000D01*
X60418000Y-70332000D02*
X60500000Y-70250000D01*
X56808472Y-79001982D02*
X56808472Y-79058472D01*
X118090000Y-96160000D02*
X118000000Y-96250000D01*
X30040000Y-68460000D02*
X30000000Y-68500000D01*
X101020000Y-53960000D02*
X101960000Y-53960000D01*
X50750000Y-85872000D02*
X50540000Y-86082000D01*
D52*
X59750000Y-75016386D02*
X59750000Y-74250000D01*
D51*
X61582000Y-78332000D02*
X60400000Y-78332000D01*
X123090000Y-96160000D02*
X123000000Y-96250000D01*
X40250000Y-83250000D02*
X41458000Y-83250000D01*
X30250000Y-65000000D02*
X29723959Y-65000000D01*
X113980000Y-96160000D02*
X113090000Y-96160000D01*
X32926041Y-61250000D02*
X29250000Y-61250000D01*
X53500000Y-83292000D02*
X52208000Y-83292000D01*
X126020000Y-54000000D02*
X127000000Y-54000000D01*
X43040000Y-70082000D02*
X41832000Y-70082000D01*
D52*
X142715000Y-53785000D02*
X142750000Y-53750000D01*
D51*
X103090000Y-96160000D02*
X103000000Y-96250000D01*
X50750000Y-83175000D02*
X50750000Y-85872000D01*
X28340000Y-63880000D02*
X28000000Y-63540000D01*
D52*
X152500000Y-63520000D02*
X151520000Y-63520000D01*
D51*
X50960000Y-68832000D02*
X51918000Y-68832000D01*
X111960000Y-53960000D02*
X112000000Y-54000000D01*
X111020000Y-53960000D02*
X111960000Y-53960000D01*
X113090000Y-96160000D02*
X113000000Y-96250000D01*
X53175000Y-75750000D02*
X57418000Y-75750000D01*
X57418000Y-75750000D02*
X57500000Y-75832000D01*
X29223959Y-65500000D02*
X28000000Y-65500000D01*
X33112500Y-79496000D02*
X32180954Y-79496000D01*
X121960000Y-53960000D02*
X122000000Y-54000000D01*
X62250000Y-79000000D02*
X61582000Y-78332000D01*
X34710000Y-100500000D02*
X34710000Y-102960000D01*
X34710000Y-102960000D02*
X34750000Y-103000000D01*
X37250000Y-65000000D02*
X35500000Y-65000000D01*
X27250000Y-65189339D02*
X27250000Y-67250000D01*
X28000000Y-64500000D02*
X27939339Y-64500000D01*
X27939339Y-64500000D02*
X27250000Y-65189339D01*
X28000000Y-64500000D02*
X30250000Y-64500000D01*
X34150000Y-65000000D02*
X35500000Y-65000000D01*
X27250000Y-67250000D02*
X28500000Y-68500000D01*
X54500994Y-70878621D02*
X59079614Y-66300000D01*
X54500994Y-73249006D02*
X54500994Y-72000000D01*
X54500000Y-73250000D02*
X54500994Y-73249006D01*
X54000000Y-73750000D02*
X54500000Y-73250000D01*
X54500994Y-72000000D02*
X54500994Y-70878621D01*
X53175000Y-73750000D02*
X54000000Y-73750000D01*
X75280000Y-66300000D02*
X76980000Y-68000000D01*
X59079614Y-66300000D02*
X75280000Y-66300000D01*
X77320000Y-65800000D02*
X79520000Y-68000000D01*
X51250000Y-71825000D02*
X52847508Y-71825000D01*
X58872507Y-65800000D02*
X77320000Y-65800000D01*
X52847508Y-71825000D02*
X58872507Y-65800000D01*
X63499500Y-71000000D02*
X64749500Y-69750000D01*
X45060661Y-76750000D02*
X48000000Y-76750000D01*
X48000000Y-76750000D02*
X49500000Y-75250000D01*
X64749500Y-69750000D02*
X90470000Y-69750000D01*
X90470000Y-69750000D02*
X92220000Y-68000000D01*
X44060661Y-77750000D02*
X45060661Y-76750000D01*
X41825000Y-77750000D02*
X44060661Y-77750000D01*
X63560161Y-72000000D02*
X63500000Y-72000000D01*
X94760000Y-68000000D02*
X92510000Y-70250000D01*
X44267767Y-78250000D02*
X41825000Y-78250000D01*
X51000000Y-75750000D02*
X49500000Y-77250000D01*
X45267767Y-77250000D02*
X44267767Y-78250000D01*
X49500000Y-77250000D02*
X45267767Y-77250000D01*
X92510000Y-70250000D02*
X70250000Y-70250000D01*
X65310161Y-70250000D02*
X63560161Y-72000000D01*
X70250000Y-70250000D02*
X65310161Y-70250000D01*
X51000000Y-75250000D02*
X51000000Y-75750000D01*
X104750000Y-73250000D02*
X110000000Y-68000000D01*
X66470023Y-73529977D02*
X66750000Y-73250000D01*
X44250000Y-83175000D02*
X44250000Y-80500000D01*
X66750000Y-73250000D02*
X104750000Y-73250000D01*
X61500000Y-77156998D02*
X61335002Y-76992000D01*
X56460687Y-77582000D02*
X55792687Y-78250000D01*
X56668000Y-77582000D02*
X56460687Y-77582000D01*
X61335002Y-76992000D02*
X57258000Y-76992000D01*
X71900000Y-86100000D02*
X71250000Y-86750000D01*
X70250000Y-86750000D02*
X66750000Y-86750000D01*
X71250000Y-86750000D02*
X70250000Y-86750000D01*
X54051041Y-77750000D02*
X53175000Y-77750000D01*
X71900000Y-85000000D02*
X71900000Y-86100000D01*
X66750000Y-86750000D02*
X65000000Y-85000000D01*
X57258000Y-76992000D02*
X56668000Y-77582000D01*
X54500000Y-78198959D02*
X54051041Y-77750000D01*
X55792687Y-78250000D02*
X54500000Y-78250000D01*
X38267767Y-75750000D02*
X37768264Y-75250497D01*
X70250000Y-89750000D02*
X43500000Y-89750000D01*
X87140000Y-85000000D02*
X82390000Y-89750000D01*
X41825000Y-75750000D02*
X38267767Y-75750000D01*
X36749503Y-75250497D02*
X35500000Y-76500000D01*
X37768264Y-75250497D02*
X36749503Y-75250497D01*
X43500000Y-89750000D02*
X35500000Y-81750000D01*
X82390000Y-89750000D02*
X70250000Y-89750000D01*
X35500000Y-76500000D02*
X35500000Y-76750000D01*
X89680000Y-85000000D02*
X84430000Y-90250000D01*
X36500000Y-76689339D02*
X36500000Y-76750000D01*
X37561158Y-75750497D02*
X37438842Y-75750497D01*
X42940046Y-90250000D02*
X36470023Y-83779977D01*
X41825000Y-76250000D02*
X38060661Y-76250000D01*
X70250000Y-90250000D02*
X42940046Y-90250000D01*
X38060661Y-76250000D02*
X37561158Y-75750497D01*
X84430000Y-90250000D02*
X70250000Y-90250000D01*
X37438842Y-75750497D02*
X36500000Y-76689339D01*
X70250000Y-90750000D02*
X42250000Y-90750000D01*
X86470000Y-90750000D02*
X70250000Y-90750000D01*
X42250000Y-90750000D02*
X37500000Y-86000000D01*
X41825000Y-76750000D02*
X37500000Y-76750000D01*
X92220000Y-85000000D02*
X86470000Y-90750000D01*
X43500000Y-77250000D02*
X41825000Y-77250000D01*
X94760000Y-85000000D02*
X88510000Y-91250000D01*
X44000000Y-76750000D02*
X43500000Y-77250000D01*
X88510000Y-91250000D02*
X70250000Y-91250000D01*
X70250000Y-91250000D02*
X41690046Y-91250000D01*
X41690046Y-91250000D02*
X37970023Y-87529977D01*
X44750000Y-89000000D02*
X44750000Y-83175000D01*
X44999500Y-91750000D02*
X44750000Y-91999500D01*
X97300000Y-85000000D02*
X90550000Y-91750000D01*
X70250000Y-91750000D02*
X44999500Y-91750000D01*
X90550000Y-91750000D02*
X70250000Y-91750000D01*
X99840000Y-85000000D02*
X92590000Y-92250000D01*
X45250000Y-88000000D02*
X45250000Y-83175000D01*
X45913010Y-92250000D02*
X45456402Y-92706608D01*
X45500000Y-88250000D02*
X45250000Y-88000000D01*
X70250000Y-92250000D02*
X45913010Y-92250000D01*
X92590000Y-92250000D02*
X70250000Y-92250000D01*
X56051041Y-82750000D02*
X54051041Y-80750000D01*
X102670000Y-82750000D02*
X56051041Y-82750000D01*
X54051041Y-80750000D02*
X53175000Y-80750000D01*
X104920000Y-85000000D02*
X102670000Y-82750000D01*
X54258147Y-80250000D02*
X56258147Y-82250000D01*
X104710000Y-82250000D02*
X107460000Y-85000000D01*
X53175000Y-80250000D02*
X54258147Y-80250000D01*
X56258147Y-82250000D02*
X104710000Y-82250000D01*
X110000000Y-85000000D02*
X106750000Y-81750000D01*
X54500000Y-79750000D02*
X53175000Y-79750000D01*
X56500000Y-81750000D02*
X54500000Y-79750000D01*
X106750000Y-81750000D02*
X56500000Y-81750000D01*
X46750000Y-71825000D02*
X46750000Y-67543505D01*
X53293005Y-61000500D02*
X59250000Y-61000500D01*
X46750000Y-67543505D02*
X53293005Y-61000500D01*
X62500500Y-61000500D02*
X64000000Y-62500000D01*
X59250000Y-61000500D02*
X62500500Y-61000500D01*
X62000000Y-60250000D02*
X63000000Y-60250000D01*
X63000000Y-60250000D02*
X65250000Y-62500000D01*
X46250000Y-71825000D02*
X46250000Y-67336399D01*
X46250000Y-67336399D02*
X53336399Y-60250000D01*
X53336399Y-60250000D02*
X62000000Y-60250000D01*
X63500000Y-59500000D02*
X66500000Y-62500000D01*
X62250000Y-59500000D02*
X63500000Y-59500000D01*
X53379293Y-59500000D02*
X62250000Y-59500000D01*
X45750000Y-71825000D02*
X45750000Y-67129293D01*
X45750000Y-67129293D02*
X53379293Y-59500000D01*
X47250000Y-87001000D02*
X47250000Y-83175000D01*
X47749500Y-87500500D02*
X47250000Y-87001000D01*
X70250000Y-78250000D02*
X69500000Y-78250000D01*
X82060000Y-76000000D02*
X79810000Y-78250000D01*
X69500000Y-78250000D02*
X68250000Y-77000000D01*
X79810000Y-78250000D02*
X70250000Y-78250000D01*
X84600000Y-76000000D02*
X81850000Y-78750000D01*
X48500000Y-86751000D02*
X47750000Y-86001000D01*
X67939339Y-77750000D02*
X67689339Y-77500000D01*
X81850000Y-78750000D02*
X69292894Y-78750000D01*
X69292894Y-78750000D02*
X68292894Y-77750000D01*
X66750000Y-77500000D02*
X65500000Y-76250000D01*
X68292894Y-77750000D02*
X67939339Y-77750000D01*
X67689339Y-77500000D02*
X66750000Y-77500000D01*
X47750000Y-86001000D02*
X47750000Y-83175000D01*
X68060161Y-79750000D02*
X67560161Y-79250000D01*
X48750000Y-78689339D02*
X48750000Y-83175000D01*
X51500000Y-77500000D02*
X50750000Y-78250000D01*
X49189339Y-78250000D02*
X48750000Y-78689339D01*
X50750000Y-78250000D02*
X49189339Y-78250000D01*
X67560161Y-79250000D02*
X66500000Y-79250000D01*
X85930000Y-79750000D02*
X70250000Y-79750000D01*
X70250000Y-79750000D02*
X68060161Y-79750000D01*
X89680000Y-76000000D02*
X85930000Y-79750000D01*
X58500000Y-84000000D02*
X59000000Y-83500000D01*
X61500000Y-83500000D02*
X66500000Y-83500000D01*
X67499500Y-80250000D02*
X87970000Y-80250000D01*
X59000000Y-83500000D02*
X61500000Y-83500000D01*
X67250000Y-80000500D02*
X67499500Y-80250000D01*
X49750000Y-84499000D02*
X49750000Y-83175000D01*
X50000500Y-84749500D02*
X49750000Y-84499000D01*
X87970000Y-80250000D02*
X92220000Y-76000000D01*
X35750000Y-74250000D02*
X33500000Y-76500000D01*
X38181979Y-74250000D02*
X35750000Y-74250000D01*
X33500000Y-76500000D02*
X33500000Y-76750000D01*
X38681979Y-74750000D02*
X38181979Y-74250000D01*
X103210000Y-80250000D02*
X100000000Y-80250000D01*
X41825000Y-74750000D02*
X38681979Y-74750000D01*
X66000000Y-94000000D02*
X67000000Y-93000000D01*
X42250000Y-94000000D02*
X45250000Y-94000000D01*
X107460000Y-76000000D02*
X103210000Y-80250000D01*
X33750000Y-85500000D02*
X42250000Y-94000000D01*
X45250000Y-94000000D02*
X66000000Y-94000000D01*
X41825000Y-75250000D02*
X38474873Y-75250000D01*
X93000000Y-93000000D02*
X95000000Y-91000000D01*
X68500000Y-93000000D02*
X93000000Y-93000000D01*
X34500000Y-76689339D02*
X34500000Y-76750000D01*
X46000000Y-94500000D02*
X67000000Y-94500000D01*
X38474873Y-75250000D02*
X37974873Y-74750000D01*
X34500000Y-87500000D02*
X41500000Y-94500000D01*
X36439339Y-74750000D02*
X34500000Y-76689339D01*
X37974873Y-74750000D02*
X36439339Y-74750000D01*
X110000000Y-76000000D02*
X105000500Y-80999500D01*
X41500000Y-94500000D02*
X46000000Y-94500000D01*
X105000500Y-80999500D02*
X100831637Y-80999500D01*
X67000000Y-94500000D02*
X68500000Y-93000000D01*
M02*
