M48
; DRILL file {KiCad 7.0.5} date Thu Nov 30 10:21:06 2023
; FORMAT={-:-/ absolute / metric / decimal}
; #@! TF.CreationDate,2023-11-30T10:21:06+10:00
; #@! TF.GenerationSoftware,Kicad,Pcbnew,7.0.5
; #@! TF.FileFunction,Plated,1,4,PTH
FMAT,2
METRIC
; #@! TA.AperFunction,Plated,PTH,ViaDrill
T1C0.400
; #@! TA.AperFunction,Plated,PTH,ComponentDrill
T2C0.700
; #@! TA.AperFunction,Plated,PTH,ComponentDrill
T3C0.800
; #@! TA.AperFunction,Plated,PTH,ComponentDrill
T4C0.990
; #@! TA.AperFunction,Plated,PTH,ComponentDrill
T5C1.000
; #@! TA.AperFunction,Plated,PTH,ComponentDrill
T6C1.140
; #@! TA.AperFunction,Plated,PTH,ComponentDrill
T7C1.300
; #@! TA.AperFunction,Plated,PTH,ComponentDrill
T8C2.200
; #@! TA.AperFunction,Plated,PTH,ComponentDrill
T9C4.500
%
G90
G05
T1
X26.5Y-62.5
X27.249Y-63.5
X28.0Y-61.75
X28.0Y-65.5
X28.5Y-68.5
X30.0Y-68.5
X30.25Y-100.5
X32.114Y-79.429
X32.25Y-67.5
X32.5Y-76.75
X32.5Y-83.0
X32.5Y-100.5
X33.0Y-81.846
X33.5Y-76.75
X33.75Y-85.5
X34.5Y-76.75
X34.5Y-87.5
X35.5Y-76.75
X35.5Y-81.75
X36.47Y-83.78
X36.5Y-66.0
X36.5Y-76.75
X36.75Y-77.75
X37.25Y-65.0
X37.5Y-76.75
X37.5Y-86.0
X37.75Y-79.5
X37.97Y-87.53
X40.25Y-72.5
X40.25Y-83.25
X41.75Y-70.0
X43.0Y-87.0
X43.5Y-81.25
X43.75Y-73.25
X44.0Y-76.75
X44.25Y-80.5
X44.75Y-89.0
X44.75Y-91.999
X45.25Y-79.499
X45.456Y-92.707
X45.5Y-88.25
X45.778Y-77.999
X46.25Y-80.25
X46.25Y-89.0
X47.5Y-97.5
X47.749Y-87.501
X47.75Y-80.5
X48.278Y-75.278
X48.5Y-85.25
X48.5Y-86.751
X48.5Y-98.5
X49.25Y-89.001
X49.5Y-75.25
X49.5Y-79.0
X49.5Y-80.5
X50.0Y-84.749
X50.25Y-73.5
X51.0Y-75.25
X51.25Y-81.25
X51.28Y-80.22
X51.5Y-73.5
X51.5Y-77.5
X51.5Y-87.0
X51.75Y-76.25
X52.0Y-68.75
X52.149Y-83.351
X52.5Y-99.5
X52.75Y-86.25
X52.75Y-70.806
X54.998Y-67.498
X55.0Y-77.499
X55.987Y-77.001
X56.25Y-99.5
X56.808Y-79.002
X58.5Y-84.0
X58.75Y-48.25
X59.25Y-73.75
X59.75Y-85.0
X60.25Y-57.75
X60.5Y-70.25
X60.5Y-72.75
X60.75Y-85.0
X61.5Y-57.75
X61.5Y-62.5
X61.5Y-68.049
X61.5Y-77.157
X61.792Y-80.091
X61.971Y-84.999
X62.25Y-79.0
X62.5Y-76.999
X62.5Y-89.0
X62.75Y-62.5
X62.75Y-68.049
X62.97Y-85.03
X63.112Y-79.725
X63.499Y-71.0
X63.5Y-72.0
X63.5Y-73.0
X63.75Y-74.501
X64.0Y-62.5
X64.0Y-85.0
X64.095Y-79.905
X65.0Y-73.5
X65.0Y-85.0
X65.25Y-62.5
X65.5Y-76.25
X65.75Y-80.0
X65.75Y-93.0
X66.47Y-73.53
X66.5Y-62.5
X66.5Y-79.25
X66.5Y-83.5
X67.0Y-93.0
X67.25Y-80.001
X67.5Y-86.001
X67.75Y-62.5
X68.119Y-78.749
X68.25Y-77.0
X69.0Y-62.5
X69.5Y-77.0
X69.75Y-86.0
X72.5Y-102.5
X74.75Y-60.75
X82.0Y-62.5
X84.5Y-62.5
X87.0Y-62.5
X89.75Y-62.5
X91.0Y-81.0
X94.245Y-69.995
X94.75Y-49.5
X94.75Y-50.5
X94.75Y-51.5
X94.75Y-52.5
X95.0Y-91.0
X97.5Y-78.0
X97.751Y-96.174
X98.28Y-40.03
X98.28Y-109.97
X99.082Y-79.499
X100.0Y-80.25
X100.832Y-80.999
X101.0Y-96.501
X102.0Y-54.0
X102.25Y-101.25
X103.0Y-96.25
X103.25Y-101.25
X103.759Y-50.241
X104.25Y-101.25
X105.25Y-101.25
X107.0Y-54.0
X108.0Y-96.25
X111.75Y-74.0
X111.75Y-78.0
X112.0Y-54.0
X112.5Y-74.75
X112.5Y-77.25
X113.0Y-96.25
X117.0Y-54.0
X118.0Y-96.25
X122.0Y-54.0
X123.0Y-96.25
X127.0Y-54.0
X134.25Y-53.75
X137.25Y-55.25
X137.25Y-105.0
X137.5Y-102.5
X142.75Y-53.75
X147.5Y-62.5
X147.5Y-87.5
X151.5Y-63.5
T2
X29.93Y-77.325
X29.93Y-82.175
T3
X62.5Y-45.0
X62.5Y-47.54
X62.5Y-50.08
X62.5Y-52.62
X145.052Y-101.0
X145.052Y-105.0
X145.052Y-109.0
T4
X28.25Y-103.0
X28.25Y-107.5
X34.75Y-103.0
X34.75Y-107.5
T5
X42.38Y-105.0
X42.38Y-107.54
X44.92Y-105.0
X44.92Y-107.54
X47.46Y-105.0
X47.46Y-107.54
X50.0Y-105.0
X50.0Y-107.54
X51.46Y-45.25
X51.46Y-47.79
X51.46Y-50.33
X51.46Y-52.87
X52.54Y-105.0
X52.54Y-107.54
X54.0Y-45.25
X54.0Y-47.79
X54.0Y-50.33
X54.0Y-52.87
X55.08Y-105.0
X55.08Y-107.54
X57.62Y-105.0
X57.62Y-107.54
X60.16Y-105.0
X60.16Y-107.54
X62.7Y-105.0
X62.7Y-107.54
X65.24Y-105.0
X65.24Y-107.54
X71.9Y-68.0
X71.9Y-76.0
X71.9Y-85.0
X74.44Y-68.0
X74.44Y-76.0
X74.44Y-85.0
X76.98Y-68.0
X76.98Y-76.0
X76.98Y-85.0
X77.5Y-27.5
X77.5Y-30.04
X77.5Y-32.58
X77.5Y-117.58
X77.5Y-120.12
X77.5Y-122.66
X79.52Y-68.0
X79.52Y-76.0
X79.52Y-85.0
X81.25Y-27.5
X81.25Y-30.04
X81.25Y-32.58
X81.25Y-117.58
X81.25Y-120.12
X81.25Y-122.66
X82.06Y-68.0
X82.06Y-76.0
X82.06Y-85.0
X84.6Y-68.0
X84.6Y-76.0
X84.6Y-85.0
X85.0Y-27.5
X85.0Y-30.04
X85.0Y-32.58
X85.0Y-117.58
X85.0Y-120.12
X85.0Y-122.66
X87.14Y-68.0
X87.14Y-76.0
X87.14Y-85.0
X88.75Y-27.5
X88.75Y-30.04
X88.75Y-32.58
X88.75Y-117.58
X88.75Y-120.12
X88.75Y-122.66
X89.68Y-68.0
X89.68Y-76.0
X89.68Y-85.0
X92.22Y-68.0
X92.22Y-76.0
X92.22Y-85.0
X92.5Y-27.5
X92.5Y-30.04
X92.5Y-32.58
X92.5Y-117.58
X92.5Y-120.12
X92.5Y-122.66
X94.76Y-68.0
X94.76Y-76.0
X94.76Y-85.0
X96.25Y-27.5
X96.25Y-30.04
X96.25Y-32.58
X96.25Y-117.58
X96.25Y-120.12
X96.25Y-122.66
X97.3Y-68.0
X97.3Y-76.0
X97.3Y-85.0
X99.84Y-68.0
X99.84Y-76.0
X99.84Y-85.0
X100.0Y-27.5
X100.0Y-30.04
X100.0Y-32.58
X100.0Y-57.46
X100.0Y-60.0
X100.0Y-90.16
X100.0Y-92.7
X100.0Y-117.58
X100.0Y-120.12
X100.0Y-122.66
X102.38Y-68.0
X102.38Y-76.0
X102.38Y-85.0
X103.75Y-27.5
X103.75Y-30.04
X103.75Y-32.58
X103.75Y-117.58
X103.75Y-120.12
X103.75Y-122.66
X104.92Y-68.0
X104.92Y-76.0
X104.92Y-85.0
X105.0Y-57.46
X105.0Y-60.0
X105.0Y-90.16
X105.0Y-92.7
X107.46Y-68.0
X107.46Y-76.0
X107.46Y-85.0
X107.5Y-27.5
X107.5Y-30.04
X107.5Y-32.58
X107.5Y-117.58
X107.5Y-120.12
X107.5Y-122.66
X110.0Y-57.46
X110.0Y-60.0
X110.0Y-68.0
X110.0Y-76.0
X110.0Y-85.0
X110.0Y-90.16
X110.0Y-92.7
X111.25Y-27.5
X111.25Y-30.04
X111.25Y-32.58
X111.25Y-117.58
X111.25Y-120.12
X111.25Y-122.66
X115.0Y-27.515
X115.0Y-30.055
X115.0Y-32.595
X115.0Y-57.46
X115.0Y-60.0
X115.0Y-90.16
X115.0Y-92.7
X115.0Y-117.58
X115.0Y-120.12
X115.0Y-122.66
X118.75Y-27.515
X118.75Y-30.055
X118.75Y-32.595
X118.75Y-117.58
X118.75Y-120.12
X118.75Y-122.66
X119.67Y-64.75
X119.67Y-81.75
X120.0Y-57.46
X120.0Y-60.0
X120.0Y-90.16
X120.0Y-92.7
X122.21Y-64.75
X122.21Y-81.75
X122.5Y-27.5
X122.5Y-30.04
X122.5Y-32.58
X122.5Y-117.58
X122.5Y-120.12
X122.5Y-122.66
X124.75Y-64.75
X124.75Y-81.75
X125.0Y-57.5
X125.0Y-60.04
X125.0Y-90.16
X125.0Y-92.7
X126.25Y-27.5
X126.25Y-30.04
X126.25Y-32.58
X126.25Y-117.605
X126.25Y-120.145
X126.25Y-122.685
X130.0Y-27.515
X130.0Y-30.055
X130.0Y-32.595
X130.0Y-117.58
X130.0Y-120.12
X130.0Y-122.66
X133.5Y-64.5
X133.5Y-67.04
X133.75Y-27.5
X133.75Y-30.04
X133.75Y-32.58
X133.75Y-80.96
X133.75Y-83.5
X133.75Y-117.58
X133.75Y-120.12
X133.75Y-122.66
X146.25Y-64.5
X146.25Y-67.04
X146.25Y-80.96
X146.25Y-83.5
X155.0Y-72.42
X155.0Y-74.96
X155.0Y-77.5
T6
X143.302Y-99.0
X143.302Y-111.0
X149.302Y-99.0
X149.302Y-111.0
T7
X27.25Y-76.125
X27.25Y-83.375
T8
X30.0Y-92.5
X72.5Y-27.5
X72.5Y-122.5
X140.0Y-27.5
X140.0Y-122.5
T9
X152.5Y-43.9
X152.5Y-51.1
T0
M30
