G04 #@! TF.GenerationSoftware,KiCad,Pcbnew,7.0.5*
G04 #@! TF.CreationDate,2023-11-30T10:19:55+10:00*
G04 #@! TF.ProjectId,HEXCORE PCB Design v0,48455843-4f52-4452-9050-434220446573,rev?*
G04 #@! TF.SameCoordinates,Original*
G04 #@! TF.FileFunction,Copper,L3,Inr*
G04 #@! TF.FilePolarity,Positive*
%FSLAX46Y46*%
G04 Gerber Fmt 4.6, Leading zero omitted, Abs format (unit mm)*
G04 Created by KiCad (PCBNEW 7.0.5) date 2023-11-30 10:19:55*
%MOMM*%
%LPD*%
G01*
G04 APERTURE LIST*
G04 Aperture macros list*
%AMRoundRect*
0 Rectangle with rounded corners*
0 $1 Rounding radius*
0 $2 $3 $4 $5 $6 $7 $8 $9 X,Y pos of 4 corners*
0 Add a 4 corners polygon primitive as box body*
4,1,4,$2,$3,$4,$5,$6,$7,$8,$9,$2,$3,0*
0 Add four circle primitives for the rounded corners*
1,1,$1+$1,$2,$3*
1,1,$1+$1,$4,$5*
1,1,$1+$1,$6,$7*
1,1,$1+$1,$8,$9*
0 Add four rect primitives between the rounded corners*
20,1,$1+$1,$2,$3,$4,$5,0*
20,1,$1+$1,$4,$5,$6,$7,0*
20,1,$1+$1,$6,$7,$8,$9,0*
20,1,$1+$1,$8,$9,$2,$3,0*%
G04 Aperture macros list end*
G04 #@! TA.AperFunction,ComponentPad*
%ADD10R,1.700000X1.700000*%
G04 #@! TD*
G04 #@! TA.AperFunction,ComponentPad*
%ADD11O,1.700000X1.700000*%
G04 #@! TD*
G04 #@! TA.AperFunction,ComponentPad*
%ADD12C,4.400000*%
G04 #@! TD*
G04 #@! TA.AperFunction,ComponentPad*
%ADD13R,1.500000X1.500000*%
G04 #@! TD*
G04 #@! TA.AperFunction,ComponentPad*
%ADD14C,1.500000*%
G04 #@! TD*
G04 #@! TA.AperFunction,ComponentPad*
%ADD15C,1.300000*%
G04 #@! TD*
G04 #@! TA.AperFunction,ComponentPad*
%ADD16C,1.710000*%
G04 #@! TD*
G04 #@! TA.AperFunction,ComponentPad*
%ADD17RoundRect,1.500000X1.500000X-1.500000X1.500000X1.500000X-1.500000X1.500000X-1.500000X-1.500000X0*%
G04 #@! TD*
G04 #@! TA.AperFunction,ComponentPad*
%ADD18C,6.000000*%
G04 #@! TD*
G04 #@! TA.AperFunction,ComponentPad*
%ADD19RoundRect,0.250000X-0.600000X0.600000X-0.600000X-0.600000X0.600000X-0.600000X0.600000X0.600000X0*%
G04 #@! TD*
G04 #@! TA.AperFunction,ComponentPad*
%ADD20C,1.700000*%
G04 #@! TD*
G04 #@! TA.AperFunction,ComponentPad*
%ADD21C,1.900000*%
G04 #@! TD*
G04 #@! TA.AperFunction,ComponentPad*
%ADD22C,1.540000*%
G04 #@! TD*
G04 #@! TA.AperFunction,ViaPad*
%ADD23C,0.800000*%
G04 #@! TD*
G04 #@! TA.AperFunction,Conductor*
%ADD24C,0.300000*%
G04 #@! TD*
G04 #@! TA.AperFunction,Conductor*
%ADD25C,0.500000*%
G04 #@! TD*
G04 APERTURE END LIST*
D10*
X133750000Y-122660000D03*
D11*
X133750000Y-120120000D03*
X133750000Y-117580000D03*
D12*
X140000000Y-27500000D03*
D10*
X146250000Y-83500000D03*
D11*
X146250000Y-80960000D03*
D10*
X124750000Y-64750000D03*
D11*
X122210000Y-64750000D03*
X119670000Y-64750000D03*
D10*
X105000000Y-57460000D03*
D11*
X105000000Y-60000000D03*
D10*
X71900000Y-85000000D03*
D11*
X74440000Y-85000000D03*
X76980000Y-85000000D03*
X79520000Y-85000000D03*
X82060000Y-85000000D03*
X84600000Y-85000000D03*
X87140000Y-85000000D03*
X89680000Y-85000000D03*
X92220000Y-85000000D03*
X94760000Y-85000000D03*
X97300000Y-85000000D03*
X99840000Y-85000000D03*
X102380000Y-85000000D03*
X104920000Y-85000000D03*
X107460000Y-85000000D03*
X110000000Y-85000000D03*
D10*
X71900000Y-76000000D03*
D11*
X74440000Y-76000000D03*
X76980000Y-76000000D03*
X79520000Y-76000000D03*
X82060000Y-76000000D03*
X84600000Y-76000000D03*
X87140000Y-76000000D03*
X89680000Y-76000000D03*
X92220000Y-76000000D03*
X94760000Y-76000000D03*
X97300000Y-76000000D03*
X99840000Y-76000000D03*
X102380000Y-76000000D03*
X104920000Y-76000000D03*
X107460000Y-76000000D03*
X110000000Y-76000000D03*
D10*
X125000000Y-92700000D03*
D11*
X125000000Y-90160000D03*
D10*
X115000000Y-122660000D03*
D11*
X115000000Y-120120000D03*
X115000000Y-117580000D03*
D10*
X133750000Y-83500000D03*
D11*
X133750000Y-80960000D03*
D13*
X62500000Y-45000000D03*
D14*
X62500000Y-47540000D03*
X62500000Y-50080000D03*
X62500000Y-52620000D03*
D10*
X81250000Y-27500000D03*
D11*
X81250000Y-30040000D03*
X81250000Y-32580000D03*
D10*
X130000000Y-122660000D03*
D11*
X130000000Y-120120000D03*
X130000000Y-117580000D03*
D10*
X118750000Y-122660000D03*
D11*
X118750000Y-120120000D03*
X118750000Y-117580000D03*
D10*
X88750000Y-122660000D03*
D11*
X88750000Y-120120000D03*
X88750000Y-117580000D03*
D10*
X96250000Y-122660000D03*
D11*
X96250000Y-120120000D03*
X96250000Y-117580000D03*
D10*
X100000000Y-92700000D03*
D11*
X100000000Y-90160000D03*
D15*
X145052500Y-109000000D03*
X145052500Y-105000000D03*
X145052500Y-101000000D03*
D16*
X149302500Y-111000000D03*
X143302500Y-111000000D03*
X143302500Y-99000000D03*
X149302500Y-99000000D03*
D10*
X120000000Y-92700000D03*
D11*
X120000000Y-90160000D03*
D10*
X105000000Y-92700000D03*
D11*
X105000000Y-90160000D03*
D10*
X103750000Y-122660000D03*
D11*
X103750000Y-120120000D03*
X103750000Y-117580000D03*
D10*
X115000000Y-27515000D03*
D11*
X115000000Y-30055000D03*
X115000000Y-32595000D03*
D10*
X85000000Y-27500000D03*
D11*
X85000000Y-30040000D03*
X85000000Y-32580000D03*
D10*
X122500000Y-122660000D03*
D11*
X122500000Y-120120000D03*
X122500000Y-117580000D03*
D10*
X100000000Y-122660000D03*
D11*
X100000000Y-120120000D03*
X100000000Y-117580000D03*
D10*
X155000000Y-72420000D03*
D11*
X155000000Y-74960000D03*
X155000000Y-77500000D03*
D10*
X110000000Y-57460000D03*
D11*
X110000000Y-60000000D03*
D10*
X85000000Y-122660000D03*
D11*
X85000000Y-120120000D03*
X85000000Y-117580000D03*
D12*
X140000000Y-122500000D03*
D17*
X152500000Y-51100000D03*
D18*
X152500000Y-43900000D03*
D10*
X122500000Y-27500000D03*
D11*
X122500000Y-30040000D03*
X122500000Y-32580000D03*
D10*
X115000000Y-92700000D03*
D11*
X115000000Y-90160000D03*
D19*
X65240000Y-105000000D03*
D20*
X65240000Y-107540000D03*
X62700000Y-105000000D03*
X62700000Y-107540000D03*
X60160000Y-105000000D03*
X60160000Y-107540000D03*
X57620000Y-105000000D03*
X57620000Y-107540000D03*
X55080000Y-105000000D03*
X55080000Y-107540000D03*
X52540000Y-105000000D03*
X52540000Y-107540000D03*
X50000000Y-105000000D03*
X50000000Y-107540000D03*
X47460000Y-105000000D03*
X47460000Y-107540000D03*
X44920000Y-105000000D03*
X44920000Y-107540000D03*
X42380000Y-105000000D03*
X42380000Y-107540000D03*
D10*
X88750000Y-27500000D03*
D11*
X88750000Y-30040000D03*
X88750000Y-32580000D03*
D10*
X110000000Y-92700000D03*
D11*
X110000000Y-90160000D03*
D15*
X29930000Y-77325000D03*
X29930000Y-82175000D03*
D21*
X27250000Y-76125000D03*
X27250000Y-83375000D03*
D10*
X96250000Y-27500000D03*
D11*
X96250000Y-30040000D03*
X96250000Y-32580000D03*
D10*
X100000000Y-27500000D03*
D11*
X100000000Y-30040000D03*
X100000000Y-32580000D03*
D10*
X130000000Y-27515000D03*
D11*
X130000000Y-30055000D03*
X130000000Y-32595000D03*
D10*
X92500000Y-122660000D03*
D11*
X92500000Y-120120000D03*
X92500000Y-117580000D03*
D10*
X54000000Y-52870000D03*
D20*
X51460000Y-52870000D03*
X54000000Y-50330000D03*
X51460000Y-50330000D03*
X54000000Y-47790000D03*
X51460000Y-47790000D03*
X54000000Y-45250000D03*
X51460000Y-45250000D03*
D10*
X71900000Y-68000000D03*
D11*
X74440000Y-68000000D03*
X76980000Y-68000000D03*
X79520000Y-68000000D03*
X82060000Y-68000000D03*
X84600000Y-68000000D03*
X87140000Y-68000000D03*
X89680000Y-68000000D03*
X92220000Y-68000000D03*
X94760000Y-68000000D03*
X97300000Y-68000000D03*
X99840000Y-68000000D03*
X102380000Y-68000000D03*
X104920000Y-68000000D03*
X107460000Y-68000000D03*
X110000000Y-68000000D03*
D10*
X107500000Y-27500000D03*
D11*
X107500000Y-30040000D03*
X107500000Y-32580000D03*
D22*
X28250000Y-103000000D03*
X34750000Y-103000000D03*
X28250000Y-107500000D03*
X34750000Y-107500000D03*
D10*
X103750000Y-27500000D03*
D11*
X103750000Y-30040000D03*
X103750000Y-32580000D03*
D10*
X107500000Y-122660000D03*
D11*
X107500000Y-120120000D03*
X107500000Y-117580000D03*
D10*
X77500000Y-122660000D03*
D11*
X77500000Y-120120000D03*
X77500000Y-117580000D03*
D10*
X111250000Y-27500000D03*
D11*
X111250000Y-30040000D03*
X111250000Y-32580000D03*
D10*
X92500000Y-27500000D03*
D11*
X92500000Y-30040000D03*
X92500000Y-32580000D03*
D10*
X81250000Y-122660000D03*
D11*
X81250000Y-120120000D03*
X81250000Y-117580000D03*
D10*
X118750000Y-27515000D03*
D11*
X118750000Y-30055000D03*
X118750000Y-32595000D03*
D10*
X146250000Y-67040000D03*
D11*
X146250000Y-64500000D03*
D10*
X125000000Y-57500000D03*
D11*
X125000000Y-60040000D03*
D12*
X72500000Y-27500000D03*
D10*
X111250000Y-122660000D03*
D11*
X111250000Y-120120000D03*
X111250000Y-117580000D03*
D10*
X133750000Y-27500000D03*
D11*
X133750000Y-30040000D03*
X133750000Y-32580000D03*
D10*
X126250000Y-122685000D03*
D11*
X126250000Y-120145000D03*
X126250000Y-117605000D03*
D10*
X124750000Y-81750000D03*
D11*
X122210000Y-81750000D03*
X119670000Y-81750000D03*
D12*
X72500000Y-122500000D03*
D10*
X126250000Y-27500000D03*
D11*
X126250000Y-30040000D03*
X126250000Y-32580000D03*
D12*
X30000000Y-92500000D03*
D10*
X115000000Y-57460000D03*
D11*
X115000000Y-60000000D03*
D10*
X133500000Y-67040000D03*
D11*
X133500000Y-64500000D03*
D10*
X77500000Y-27500000D03*
D11*
X77500000Y-30040000D03*
X77500000Y-32580000D03*
D10*
X100000000Y-57460000D03*
D11*
X100000000Y-60000000D03*
D10*
X120000000Y-57460000D03*
D11*
X120000000Y-60000000D03*
D23*
X94750000Y-52500000D03*
X103758530Y-50241470D03*
X101000000Y-96500500D03*
X105249503Y-101250000D03*
X62500000Y-76999500D03*
X61970998Y-84999104D03*
X64095023Y-79904977D03*
X62970023Y-85029977D03*
X55987426Y-77000816D03*
X147500000Y-87500000D03*
X43750000Y-73250000D03*
X51250000Y-81250000D03*
X26500000Y-62500000D03*
X147500000Y-62500000D03*
X58750000Y-48250000D03*
X60500000Y-72750000D03*
X94750000Y-51500000D03*
X52750000Y-86250000D03*
X137500000Y-102500000D03*
X37750000Y-79500000D03*
X50250000Y-73500000D03*
X43500000Y-81250000D03*
X72500000Y-102500000D03*
X104250000Y-101250000D03*
X137250000Y-55250000D03*
X32250000Y-67500000D03*
X45778035Y-77999500D03*
X36750000Y-77750000D03*
X56250000Y-99500000D03*
X63500000Y-73000000D03*
X45250000Y-79499500D03*
X52500000Y-99500000D03*
X43000000Y-87000000D03*
X65000000Y-73500000D03*
X67500000Y-86000500D03*
X46250000Y-89000000D03*
X46250000Y-80250000D03*
X49250000Y-89000500D03*
X137250000Y-105000000D03*
X48500000Y-98500000D03*
X49500000Y-79000000D03*
X47750000Y-80500000D03*
X69500000Y-77000000D03*
X47500000Y-97500000D03*
X49500000Y-80500000D03*
X69000000Y-62500000D03*
X111750000Y-78000000D03*
X97500000Y-78000000D03*
X112500000Y-77250000D03*
X67750000Y-62500000D03*
X84500000Y-62500000D03*
X87000000Y-62500000D03*
X89750000Y-62500000D03*
X82000000Y-62500000D03*
X51500000Y-73500000D03*
X52750500Y-70806277D03*
X59750000Y-85000000D03*
X65750000Y-80000000D03*
X62750000Y-62500000D03*
X62750000Y-68049500D03*
X60250000Y-57750000D03*
X61500000Y-68049500D03*
X61500000Y-62500000D03*
X61500000Y-57750500D03*
X63111917Y-79724676D03*
X60750000Y-85000000D03*
X74750000Y-60750000D03*
X55000000Y-77499500D03*
X64000000Y-85000000D03*
X32500000Y-76750000D03*
X65750000Y-93000000D03*
X69750000Y-86000000D03*
X99081637Y-79499500D03*
X32500000Y-83000000D03*
X51750000Y-76250000D03*
X40250000Y-72500000D03*
X63750000Y-74500500D03*
X48278035Y-75278035D03*
X94244773Y-69995273D03*
X48500000Y-85250000D03*
X111750000Y-74000000D03*
X94750000Y-49500000D03*
X102250000Y-101250000D03*
X68119233Y-78749118D03*
X62500000Y-89000000D03*
X103250000Y-101250000D03*
X112500000Y-74750000D03*
X61791780Y-80091285D03*
X94750000Y-50500000D03*
X51279977Y-80220023D03*
X113000000Y-96250000D03*
X30250000Y-100500000D03*
X98279977Y-109970023D03*
X52149312Y-83350688D03*
X56808472Y-79001982D03*
X122000000Y-54000000D03*
X107000000Y-54000000D03*
X108000000Y-96250000D03*
X51500000Y-87000000D03*
X103000000Y-96250000D03*
X117000000Y-54000000D03*
X36500000Y-66000000D03*
X97750500Y-96173913D03*
X52000000Y-68750000D03*
X142750000Y-53750000D03*
X127000000Y-54000000D03*
X62250000Y-79000000D03*
X28000000Y-65500000D03*
X27249500Y-63500000D03*
X123000000Y-96250000D03*
X32500000Y-100500000D03*
X60500000Y-70250000D03*
X118000000Y-96250000D03*
X30000000Y-68500000D03*
X33000000Y-81845500D03*
X134250000Y-53750000D03*
X112000000Y-54000000D03*
X151500000Y-63500000D03*
X40250000Y-83250000D03*
X41750000Y-70000000D03*
X59250000Y-73750000D03*
X28000000Y-61750500D03*
X32113745Y-79428791D03*
X98279977Y-40029977D03*
X102000000Y-54000000D03*
X28500000Y-68500000D03*
X37250000Y-65000000D03*
X63499500Y-71000000D03*
X49500000Y-75250000D03*
X63500000Y-72000000D03*
X51000000Y-75250000D03*
X54998411Y-67498411D03*
X44250000Y-80500000D03*
X66470023Y-73529977D03*
X61500000Y-77156998D03*
X65000000Y-85000000D03*
X35500000Y-81750000D03*
X35500000Y-76750000D03*
X36470023Y-83779977D03*
X36500000Y-76750000D03*
X37500000Y-86000000D03*
X37500000Y-76750000D03*
X37970023Y-87529977D03*
X44000000Y-76750000D03*
X44750000Y-89000000D03*
X44750000Y-91999500D03*
X45456402Y-92706608D03*
X45500000Y-88250000D03*
X64000000Y-62500000D03*
X65250000Y-62500000D03*
X66500000Y-62500000D03*
X47749500Y-87500500D03*
X68250000Y-77000000D03*
X65500000Y-76250000D03*
X48500000Y-86751000D03*
X66500000Y-79250000D03*
X51500000Y-77500000D03*
X66500000Y-83500000D03*
X50000500Y-84749500D03*
X58500000Y-84000000D03*
X67250000Y-80000500D03*
X67000000Y-93000000D03*
X33750000Y-85500000D03*
X100000000Y-80250000D03*
X91000000Y-81000000D03*
X33500000Y-76750000D03*
X34500000Y-87500000D03*
X95000000Y-91000000D03*
X100831637Y-80999500D03*
X34500000Y-76750000D03*
D24*
X64095023Y-78594523D02*
X62500000Y-76999500D01*
X64095023Y-79904977D02*
X64095023Y-78594523D01*
X62970023Y-84677129D02*
X62970023Y-85029977D01*
X54250000Y-77810161D02*
X56191321Y-79751482D01*
X55987426Y-77000816D02*
X55736610Y-76750000D01*
X55736610Y-76750000D02*
X54688839Y-76750000D01*
X56191321Y-79751482D02*
X58044376Y-79751482D01*
X54688839Y-76750000D02*
X54250000Y-77188839D01*
X54250000Y-77188839D02*
X54250000Y-77810161D01*
X58044376Y-79751482D02*
X62970023Y-84677129D01*
X26500000Y-65060661D02*
X28939339Y-67500000D01*
D25*
X142750000Y-55250000D02*
X137250000Y-55250000D01*
D24*
X41750000Y-79500000D02*
X43500000Y-81250000D01*
X104250000Y-101250000D02*
X104250000Y-101311158D01*
D25*
X125000000Y-60040000D02*
X132460000Y-60040000D01*
X147500000Y-90000000D02*
X137500000Y-100000000D01*
X104250000Y-101250000D02*
X104250000Y-101452579D01*
X105297421Y-102500000D02*
X72500000Y-102500000D01*
X147550000Y-62550000D02*
X147550000Y-87450000D01*
X147550000Y-87450000D02*
X147500000Y-87500000D01*
D24*
X53500000Y-54910000D02*
X51460000Y-52870000D01*
D25*
X124960000Y-60000000D02*
X125000000Y-60040000D01*
X104250000Y-101452579D02*
X105297421Y-102500000D01*
D24*
X56085000Y-56165000D02*
X53500000Y-56165000D01*
X58750000Y-53500000D02*
X58750000Y-48250000D01*
D25*
X105297421Y-102500000D02*
X137500000Y-102500000D01*
D24*
X51000000Y-72750000D02*
X52750000Y-72750000D01*
X57250000Y-55000000D02*
X56085000Y-56165000D01*
D25*
X132460000Y-60040000D02*
X137250000Y-55250000D01*
D24*
X50000000Y-73250000D02*
X50250000Y-73500000D01*
X38000000Y-67500000D02*
X43750000Y-73250000D01*
D25*
X94952082Y-51500000D02*
X97500000Y-54047918D01*
X137500000Y-100000000D02*
X137500000Y-102500000D01*
X100000000Y-60000000D02*
X124960000Y-60000000D01*
X97500000Y-54047918D02*
X97500000Y-57500000D01*
X125000000Y-90160000D02*
X127660000Y-90160000D01*
X147500000Y-60000000D02*
X142750000Y-55250000D01*
D24*
X26500000Y-62500000D02*
X26500000Y-65060661D01*
D25*
X147500000Y-87500000D02*
X147500000Y-90000000D01*
D24*
X50250000Y-73500000D02*
X51000000Y-72750000D01*
X53500000Y-72000000D02*
X52750000Y-72750000D01*
D25*
X147500000Y-62500000D02*
X147550000Y-62550000D01*
D24*
X37750000Y-79500000D02*
X41750000Y-79500000D01*
D25*
X97500000Y-57500000D02*
X100000000Y-60000000D01*
X127660000Y-90160000D02*
X137500000Y-100000000D01*
D24*
X50250000Y-73500000D02*
X50250000Y-80250000D01*
X53500000Y-72000000D02*
X53500000Y-56165000D01*
X28939339Y-67500000D02*
X32250000Y-67500000D01*
X43750000Y-73250000D02*
X50000000Y-73250000D01*
X50250000Y-80250000D02*
X51250000Y-81250000D01*
D25*
X94750000Y-51500000D02*
X94952082Y-51500000D01*
D24*
X32250000Y-67500000D02*
X38000000Y-67500000D01*
X53500000Y-56165000D02*
X53500000Y-54910000D01*
X60500000Y-72750000D02*
X52750000Y-72750000D01*
D25*
X147500000Y-62500000D02*
X147500000Y-60000000D01*
D24*
X43500000Y-81250000D02*
X51250000Y-81250000D01*
D25*
X125000000Y-90160000D02*
X100000000Y-90160000D01*
D24*
X57250000Y-55000000D02*
X58750000Y-53500000D01*
X45528535Y-77750000D02*
X36750000Y-77750000D01*
X45778035Y-77999500D02*
X45528535Y-77750000D01*
X65000000Y-74311161D02*
X65000000Y-73500000D01*
X52250000Y-77542894D02*
X54292894Y-75500000D01*
X43000000Y-87000000D02*
X44691967Y-87000000D01*
X54292894Y-75500000D02*
X63811161Y-75500000D01*
X44691967Y-87000000D02*
X49091279Y-82600688D01*
X49091279Y-82600688D02*
X50959973Y-82600688D01*
X50959973Y-82600688D02*
X52250000Y-81310661D01*
X52250000Y-81310661D02*
X52250000Y-77542894D01*
X63811161Y-75500000D02*
X65000000Y-74311161D01*
X130910000Y-83800000D02*
X103580000Y-83800000D01*
X103580000Y-83800000D02*
X102380000Y-85000000D01*
X65250500Y-88250000D02*
X67500000Y-86000500D01*
X47000000Y-88250000D02*
X65250500Y-88250000D01*
X133750000Y-80960000D02*
X130910000Y-83800000D01*
X46250000Y-89000000D02*
X47000000Y-88250000D01*
X47750000Y-80500000D02*
X48000000Y-80500000D01*
X48000000Y-80500000D02*
X49500000Y-79000000D01*
X84600000Y-62600000D02*
X84600000Y-68000000D01*
X84500000Y-62500000D02*
X84600000Y-62600000D01*
X87000000Y-62500000D02*
X87140000Y-62640000D01*
X87140000Y-62640000D02*
X87140000Y-68000000D01*
X89750000Y-62500000D02*
X89680000Y-62570000D01*
X89680000Y-62570000D02*
X89680000Y-68000000D01*
X82000000Y-62500000D02*
X82060000Y-62560000D01*
X82060000Y-62560000D02*
X82060000Y-68000000D01*
X60689339Y-86000000D02*
X65060661Y-86000000D01*
X59750000Y-85060661D02*
X60689339Y-86000000D01*
X65060661Y-86000000D02*
X65750000Y-85310661D01*
X62750000Y-62500000D02*
X60250000Y-60000000D01*
X65750000Y-81250000D02*
X65750000Y-80000000D01*
X59750000Y-85000000D02*
X59750000Y-85060661D01*
X65750000Y-85310661D02*
X65750000Y-81250000D01*
X60250000Y-60000000D02*
X60250000Y-57750000D01*
X74750000Y-60750000D02*
X75640000Y-61640000D01*
X55751982Y-78251482D02*
X55000000Y-77499500D01*
X75640000Y-83800000D02*
X74440000Y-85000000D01*
X64000000Y-85000000D02*
X57251482Y-78251482D01*
X75640000Y-61640000D02*
X75640000Y-83800000D01*
X57251482Y-78251482D02*
X55751982Y-78251482D01*
X69750000Y-86000000D02*
X69750000Y-89000000D01*
X66500000Y-92250000D02*
X65750000Y-93000000D01*
X69750000Y-89000000D02*
X66500000Y-92250000D01*
X119670000Y-81750000D02*
X110670000Y-81750000D01*
X110670000Y-81750000D02*
X104920000Y-76000000D01*
X53000000Y-74000000D02*
X52500000Y-74500000D01*
X57500000Y-74000000D02*
X53000000Y-74000000D01*
X52500000Y-74500000D02*
X51750000Y-75250000D01*
X63750000Y-74500500D02*
X63250500Y-75000000D01*
X58500000Y-75000000D02*
X57500000Y-74000000D01*
X48278035Y-75278035D02*
X47250000Y-74250000D01*
X42000000Y-74250000D02*
X40250000Y-72500000D01*
X63250500Y-75000000D02*
X58500000Y-75000000D01*
X51750000Y-75250000D02*
X51750000Y-76250000D01*
X47250000Y-74250000D02*
X42000000Y-74250000D01*
X96100000Y-96600000D02*
X100750000Y-101250000D01*
X88480000Y-55709339D02*
X88480000Y-69500000D01*
X88480000Y-74660000D02*
X87140000Y-76000000D01*
X87140000Y-76000000D02*
X87457057Y-76000000D01*
X88975273Y-69995273D02*
X88480000Y-69500000D01*
X88480000Y-69500000D02*
X88480000Y-74660000D01*
X94244773Y-69995273D02*
X88975273Y-69995273D01*
X68119233Y-78749118D02*
X68500000Y-79129885D01*
X68500000Y-86061161D02*
X65561161Y-89000000D01*
X94750000Y-49500000D02*
X94689339Y-49500000D01*
X94689339Y-49500000D02*
X88480000Y-55709339D01*
X96100000Y-84642943D02*
X96100000Y-96600000D01*
X100750000Y-101250000D02*
X102250000Y-101250000D01*
X68500000Y-79129885D02*
X68500000Y-86061161D01*
X65561161Y-89000000D02*
X62500000Y-89000000D01*
X87457057Y-76000000D02*
X96100000Y-84642943D01*
X103250000Y-101250000D02*
X103250000Y-101189339D01*
X98500000Y-96439339D02*
X98500000Y-80942081D01*
X94000000Y-51189339D02*
X94689339Y-50500000D01*
X112500000Y-74750000D02*
X96010000Y-74750000D01*
X96010000Y-74750000D02*
X95960000Y-74800000D01*
X94000000Y-53000000D02*
X94000000Y-51189339D01*
X94760000Y-76000000D02*
X95960000Y-74800000D01*
X103250000Y-101189339D02*
X98500000Y-96439339D01*
X95960000Y-54960000D02*
X94000000Y-53000000D01*
X98500000Y-80942081D02*
X94760000Y-77202081D01*
X94760000Y-77202081D02*
X94760000Y-76000000D01*
X95960000Y-74800000D02*
X95960000Y-54960000D01*
X94689339Y-50500000D02*
X94750000Y-50500000D01*
X58750000Y-74500000D02*
X60189339Y-74500000D01*
X60189339Y-74500000D02*
X62689339Y-72000000D01*
X53000000Y-73250000D02*
X57500000Y-73250000D01*
X57500000Y-73250000D02*
X58750000Y-74500000D01*
X62689339Y-72000000D02*
X63500000Y-72000000D01*
X51000000Y-75250000D02*
X53000000Y-73250000D01*
X62500000Y-70250000D02*
X59748411Y-67498411D01*
X59748411Y-67498411D02*
X54998411Y-67498411D01*
X64249500Y-70689339D02*
X63810161Y-70250000D01*
X64249500Y-71249500D02*
X64249500Y-70689339D01*
X66470023Y-73529977D02*
X66470023Y-73470023D01*
X63810161Y-70250000D02*
X62500000Y-70250000D01*
X66470023Y-73470023D02*
X64249500Y-71249500D01*
X67250000Y-78000000D02*
X68250000Y-77000000D01*
X67560661Y-79250500D02*
X67250000Y-79250500D01*
X59689339Y-86500000D02*
X65267767Y-86500000D01*
X58439339Y-85250000D02*
X59689339Y-86500000D01*
X68000000Y-79689839D02*
X67560661Y-79250500D01*
X68000000Y-83767767D02*
X68000000Y-79689839D01*
X65267767Y-86500000D02*
X68000000Y-83767767D01*
X67250000Y-79250500D02*
X67250000Y-78000000D01*
X49938839Y-87500500D02*
X52189339Y-85250000D01*
X52189339Y-85250000D02*
X58439339Y-85250000D01*
X47749500Y-87500500D02*
X49938839Y-87500500D01*
X52750000Y-77981733D02*
X52750000Y-81517768D01*
X49689339Y-84000000D02*
X49250000Y-84439339D01*
X54481733Y-76250000D02*
X52750000Y-77981733D01*
X65500000Y-76250000D02*
X54481733Y-76250000D01*
X49250000Y-86001000D02*
X48500000Y-86751000D01*
X52750000Y-81517768D02*
X50267768Y-84000000D01*
X49250000Y-84439339D02*
X49250000Y-86001000D01*
X50267768Y-84000000D02*
X49689339Y-84000000D01*
X50001000Y-84750000D02*
X57750000Y-84750000D01*
X50000500Y-84749500D02*
X50001000Y-84750000D01*
X57750000Y-84750000D02*
X58500000Y-84000000D01*
X75640000Y-85497057D02*
X75640000Y-84610000D01*
X67000000Y-93000000D02*
X73240000Y-86760000D01*
X79250000Y-81000000D02*
X91000000Y-81000000D01*
X74377057Y-86760000D02*
X75640000Y-85497057D01*
X75640000Y-84610000D02*
X79250000Y-81000000D01*
X73240000Y-86760000D02*
X74377057Y-86760000D01*
G04 #@! TA.AperFunction,Conductor*
G36*
X137500000Y-26474811D02*
G01*
X137470372Y-26540642D01*
X137470366Y-26540657D01*
X137373178Y-26852547D01*
X137314289Y-27173900D01*
X137294564Y-27500000D01*
X137314289Y-27826099D01*
X137373178Y-28147452D01*
X137470366Y-28459342D01*
X137470370Y-28459354D01*
X137470373Y-28459361D01*
X137500000Y-28525189D01*
X137500000Y-35000000D01*
X75000000Y-35000000D01*
X66832854Y-35000000D01*
X66996245Y-34698080D01*
X67162404Y-34319276D01*
X67175979Y-34279731D01*
X67176930Y-34278388D01*
X67182215Y-34261628D01*
X67182687Y-34260191D01*
X67296714Y-33928044D01*
X67309862Y-33876121D01*
X67312392Y-33871838D01*
X67322357Y-33826895D01*
X67322775Y-33825128D01*
X67398258Y-33527057D01*
X67409010Y-33462618D01*
X67412584Y-33455237D01*
X67421200Y-33389792D01*
X67421509Y-33387718D01*
X67466341Y-33119054D01*
X67472706Y-33042235D01*
X67476786Y-33031662D01*
X67480301Y-32951152D01*
X67480454Y-32948735D01*
X67490260Y-32830403D01*
X67500500Y-32706822D01*
X67500500Y-32580000D01*
X76144341Y-32580000D01*
X76164936Y-32815403D01*
X76164938Y-32815413D01*
X76226094Y-33043655D01*
X76226096Y-33043659D01*
X76226097Y-33043663D01*
X76325965Y-33257829D01*
X76325965Y-33257830D01*
X76325967Y-33257834D01*
X76371521Y-33322891D01*
X76461505Y-33451401D01*
X76628599Y-33618495D01*
X76725384Y-33686264D01*
X76822165Y-33754032D01*
X76822167Y-33754033D01*
X76822170Y-33754035D01*
X77036337Y-33853903D01*
X77264592Y-33915063D01*
X77436016Y-33930061D01*
X77499999Y-33935659D01*
X77500000Y-33935659D01*
X77500001Y-33935659D01*
X77539234Y-33932226D01*
X77735408Y-33915063D01*
X77963663Y-33853903D01*
X78177830Y-33754035D01*
X78371401Y-33618495D01*
X78538495Y-33451401D01*
X78674035Y-33257830D01*
X78773903Y-33043663D01*
X78835063Y-32815408D01*
X78855659Y-32580000D01*
X79894341Y-32580000D01*
X79914936Y-32815403D01*
X79914938Y-32815413D01*
X79976094Y-33043655D01*
X79976096Y-33043659D01*
X79976097Y-33043663D01*
X80075965Y-33257829D01*
X80075965Y-33257830D01*
X80075967Y-33257834D01*
X80121521Y-33322891D01*
X80211505Y-33451401D01*
X80378599Y-33618495D01*
X80475384Y-33686264D01*
X80572165Y-33754032D01*
X80572167Y-33754033D01*
X80572170Y-33754035D01*
X80786337Y-33853903D01*
X81014592Y-33915063D01*
X81186016Y-33930061D01*
X81249999Y-33935659D01*
X81250000Y-33935659D01*
X81250001Y-33935659D01*
X81289234Y-33932226D01*
X81485408Y-33915063D01*
X81713663Y-33853903D01*
X81927830Y-33754035D01*
X82121401Y-33618495D01*
X82288495Y-33451401D01*
X82424035Y-33257830D01*
X82523903Y-33043663D01*
X82585063Y-32815408D01*
X82605659Y-32580000D01*
X83644341Y-32580000D01*
X83664936Y-32815403D01*
X83664938Y-32815413D01*
X83726094Y-33043655D01*
X83726096Y-33043659D01*
X83726097Y-33043663D01*
X83825965Y-33257829D01*
X83825965Y-33257830D01*
X83825967Y-33257834D01*
X83871521Y-33322891D01*
X83961505Y-33451401D01*
X84128599Y-33618495D01*
X84225384Y-33686264D01*
X84322165Y-33754032D01*
X84322167Y-33754033D01*
X84322170Y-33754035D01*
X84536337Y-33853903D01*
X84764592Y-33915063D01*
X84936016Y-33930061D01*
X84999999Y-33935659D01*
X85000000Y-33935659D01*
X85000001Y-33935659D01*
X85039234Y-33932226D01*
X85235408Y-33915063D01*
X85463663Y-33853903D01*
X85677830Y-33754035D01*
X85871401Y-33618495D01*
X86038495Y-33451401D01*
X86174035Y-33257830D01*
X86273903Y-33043663D01*
X86335063Y-32815408D01*
X86355659Y-32580000D01*
X87394341Y-32580000D01*
X87414936Y-32815403D01*
X87414938Y-32815413D01*
X87476094Y-33043655D01*
X87476096Y-33043659D01*
X87476097Y-33043663D01*
X87575965Y-33257829D01*
X87575965Y-33257830D01*
X87575967Y-33257834D01*
X87621521Y-33322891D01*
X87711505Y-33451401D01*
X87878599Y-33618495D01*
X87975384Y-33686264D01*
X88072165Y-33754032D01*
X88072167Y-33754033D01*
X88072170Y-33754035D01*
X88286337Y-33853903D01*
X88514592Y-33915063D01*
X88686016Y-33930061D01*
X88749999Y-33935659D01*
X88750000Y-33935659D01*
X88750001Y-33935659D01*
X88789234Y-33932226D01*
X88985408Y-33915063D01*
X89213663Y-33853903D01*
X89427830Y-33754035D01*
X89621401Y-33618495D01*
X89788495Y-33451401D01*
X89924035Y-33257830D01*
X90023903Y-33043663D01*
X90085063Y-32815408D01*
X90105659Y-32580000D01*
X91144341Y-32580000D01*
X91164936Y-32815403D01*
X91164938Y-32815413D01*
X91226094Y-33043655D01*
X91226096Y-33043659D01*
X91226097Y-33043663D01*
X91325964Y-33257829D01*
X91325965Y-33257830D01*
X91325967Y-33257834D01*
X91371521Y-33322891D01*
X91461505Y-33451401D01*
X91628599Y-33618495D01*
X91725384Y-33686264D01*
X91822165Y-33754032D01*
X91822167Y-33754033D01*
X91822170Y-33754035D01*
X92036337Y-33853903D01*
X92264592Y-33915063D01*
X92436016Y-33930061D01*
X92499999Y-33935659D01*
X92500000Y-33935659D01*
X92500001Y-33935659D01*
X92539234Y-33932226D01*
X92735408Y-33915063D01*
X92963663Y-33853903D01*
X93177830Y-33754035D01*
X93371401Y-33618495D01*
X93538495Y-33451401D01*
X93674035Y-33257830D01*
X93773903Y-33043663D01*
X93835063Y-32815408D01*
X93855659Y-32580000D01*
X94894341Y-32580000D01*
X94914936Y-32815403D01*
X94914938Y-32815413D01*
X94976094Y-33043655D01*
X94976096Y-33043659D01*
X94976097Y-33043663D01*
X95075964Y-33257829D01*
X95075965Y-33257830D01*
X95075967Y-33257834D01*
X95121521Y-33322891D01*
X95211505Y-33451401D01*
X95378599Y-33618495D01*
X95475384Y-33686264D01*
X95572165Y-33754032D01*
X95572167Y-33754033D01*
X95572170Y-33754035D01*
X95786337Y-33853903D01*
X96014592Y-33915063D01*
X96186016Y-33930061D01*
X96249999Y-33935659D01*
X96250000Y-33935659D01*
X96250001Y-33935659D01*
X96289234Y-33932226D01*
X96485408Y-33915063D01*
X96713663Y-33853903D01*
X96927830Y-33754035D01*
X97121401Y-33618495D01*
X97288495Y-33451401D01*
X97424035Y-33257830D01*
X97523903Y-33043663D01*
X97585063Y-32815408D01*
X97605659Y-32580000D01*
X98644341Y-32580000D01*
X98664936Y-32815403D01*
X98664938Y-32815413D01*
X98726094Y-33043655D01*
X98726096Y-33043659D01*
X98726097Y-33043663D01*
X98825965Y-33257829D01*
X98825965Y-33257830D01*
X98825967Y-33257834D01*
X98871521Y-33322891D01*
X98961505Y-33451401D01*
X99128599Y-33618495D01*
X99225384Y-33686264D01*
X99322165Y-33754032D01*
X99322167Y-33754033D01*
X99322170Y-33754035D01*
X99536337Y-33853903D01*
X99764592Y-33915063D01*
X99936016Y-33930061D01*
X99999999Y-33935659D01*
X100000000Y-33935659D01*
X100000001Y-33935659D01*
X100039234Y-33932226D01*
X100235408Y-33915063D01*
X100463663Y-33853903D01*
X100677830Y-33754035D01*
X100871401Y-33618495D01*
X101038495Y-33451401D01*
X101174035Y-33257830D01*
X101273903Y-33043663D01*
X101335063Y-32815408D01*
X101355659Y-32580000D01*
X102394341Y-32580000D01*
X102414936Y-32815403D01*
X102414938Y-32815413D01*
X102476094Y-33043655D01*
X102476096Y-33043659D01*
X102476097Y-33043663D01*
X102575965Y-33257829D01*
X102575965Y-33257830D01*
X102575967Y-33257834D01*
X102621521Y-33322891D01*
X102711505Y-33451401D01*
X102878599Y-33618495D01*
X102975384Y-33686264D01*
X103072165Y-33754032D01*
X103072167Y-33754033D01*
X103072170Y-33754035D01*
X103286337Y-33853903D01*
X103514592Y-33915063D01*
X103686016Y-33930061D01*
X103749999Y-33935659D01*
X103750000Y-33935659D01*
X103750001Y-33935659D01*
X103789234Y-33932226D01*
X103985408Y-33915063D01*
X104213663Y-33853903D01*
X104427830Y-33754035D01*
X104621401Y-33618495D01*
X104788495Y-33451401D01*
X104924035Y-33257830D01*
X105023903Y-33043663D01*
X105085063Y-32815408D01*
X105105659Y-32580000D01*
X106144341Y-32580000D01*
X106164936Y-32815403D01*
X106164938Y-32815413D01*
X106226094Y-33043655D01*
X106226096Y-33043659D01*
X106226097Y-33043663D01*
X106325964Y-33257829D01*
X106325965Y-33257830D01*
X106325967Y-33257834D01*
X106371521Y-33322891D01*
X106461505Y-33451401D01*
X106628599Y-33618495D01*
X106725384Y-33686264D01*
X106822165Y-33754032D01*
X106822167Y-33754033D01*
X106822170Y-33754035D01*
X107036337Y-33853903D01*
X107264592Y-33915063D01*
X107436016Y-33930061D01*
X107499999Y-33935659D01*
X107500000Y-33935659D01*
X107500001Y-33935659D01*
X107539234Y-33932226D01*
X107735408Y-33915063D01*
X107963663Y-33853903D01*
X108177830Y-33754035D01*
X108371401Y-33618495D01*
X108538495Y-33451401D01*
X108674035Y-33257830D01*
X108773903Y-33043663D01*
X108835063Y-32815408D01*
X108855659Y-32580000D01*
X109894341Y-32580000D01*
X109914936Y-32815403D01*
X109914938Y-32815413D01*
X109976094Y-33043655D01*
X109976096Y-33043659D01*
X109976097Y-33043663D01*
X110075965Y-33257829D01*
X110075965Y-33257830D01*
X110075967Y-33257834D01*
X110121521Y-33322891D01*
X110211505Y-33451401D01*
X110378599Y-33618495D01*
X110475384Y-33686264D01*
X110572165Y-33754032D01*
X110572167Y-33754033D01*
X110572170Y-33754035D01*
X110786337Y-33853903D01*
X111014592Y-33915063D01*
X111186016Y-33930061D01*
X111249999Y-33935659D01*
X111250000Y-33935659D01*
X111250001Y-33935659D01*
X111289234Y-33932226D01*
X111485408Y-33915063D01*
X111713663Y-33853903D01*
X111927830Y-33754035D01*
X112121401Y-33618495D01*
X112288495Y-33451401D01*
X112424035Y-33257830D01*
X112523903Y-33043663D01*
X112585063Y-32815408D01*
X112604347Y-32595000D01*
X113644341Y-32595000D01*
X113664936Y-32830403D01*
X113664938Y-32830413D01*
X113726094Y-33058655D01*
X113726096Y-33058659D01*
X113726097Y-33058663D01*
X113754258Y-33119054D01*
X113825965Y-33272830D01*
X113825967Y-33272834D01*
X113861018Y-33322891D01*
X113961505Y-33466401D01*
X114128599Y-33633495D01*
X114225384Y-33701264D01*
X114322165Y-33769032D01*
X114322167Y-33769033D01*
X114322170Y-33769035D01*
X114536337Y-33868903D01*
X114536343Y-33868904D01*
X114536344Y-33868905D01*
X114563286Y-33876124D01*
X114764592Y-33930063D01*
X114952918Y-33946539D01*
X114999999Y-33950659D01*
X115000000Y-33950659D01*
X115000001Y-33950659D01*
X115039234Y-33947226D01*
X115235408Y-33930063D01*
X115463663Y-33868903D01*
X115677830Y-33769035D01*
X115871401Y-33633495D01*
X116038495Y-33466401D01*
X116174035Y-33272830D01*
X116273903Y-33058663D01*
X116335063Y-32830408D01*
X116355659Y-32595000D01*
X117394341Y-32595000D01*
X117414936Y-32830403D01*
X117414938Y-32830413D01*
X117476094Y-33058655D01*
X117476096Y-33058659D01*
X117476097Y-33058663D01*
X117504258Y-33119054D01*
X117575965Y-33272830D01*
X117575967Y-33272834D01*
X117611018Y-33322891D01*
X117711505Y-33466401D01*
X117878599Y-33633495D01*
X117975384Y-33701264D01*
X118072165Y-33769032D01*
X118072167Y-33769033D01*
X118072170Y-33769035D01*
X118286337Y-33868903D01*
X118286343Y-33868904D01*
X118286344Y-33868905D01*
X118313286Y-33876124D01*
X118514592Y-33930063D01*
X118702918Y-33946539D01*
X118749999Y-33950659D01*
X118750000Y-33950659D01*
X118750001Y-33950659D01*
X118789234Y-33947226D01*
X118985408Y-33930063D01*
X119213663Y-33868903D01*
X119427830Y-33769035D01*
X119621401Y-33633495D01*
X119788495Y-33466401D01*
X119924035Y-33272830D01*
X120023903Y-33058663D01*
X120085063Y-32830408D01*
X120105659Y-32595000D01*
X120104347Y-32580000D01*
X121144341Y-32580000D01*
X121164936Y-32815403D01*
X121164938Y-32815413D01*
X121226094Y-33043655D01*
X121226096Y-33043659D01*
X121226097Y-33043663D01*
X121325965Y-33257829D01*
X121325965Y-33257830D01*
X121325967Y-33257834D01*
X121371521Y-33322891D01*
X121461505Y-33451401D01*
X121628599Y-33618495D01*
X121725384Y-33686264D01*
X121822165Y-33754032D01*
X121822167Y-33754033D01*
X121822170Y-33754035D01*
X122036337Y-33853903D01*
X122264592Y-33915063D01*
X122436016Y-33930061D01*
X122499999Y-33935659D01*
X122500000Y-33935659D01*
X122500001Y-33935659D01*
X122539234Y-33932226D01*
X122735408Y-33915063D01*
X122963663Y-33853903D01*
X123177830Y-33754035D01*
X123371401Y-33618495D01*
X123538495Y-33451401D01*
X123674035Y-33257830D01*
X123773903Y-33043663D01*
X123835063Y-32815408D01*
X123855659Y-32580000D01*
X124894341Y-32580000D01*
X124914936Y-32815403D01*
X124914938Y-32815413D01*
X124976094Y-33043655D01*
X124976096Y-33043659D01*
X124976097Y-33043663D01*
X125075964Y-33257829D01*
X125075965Y-33257830D01*
X125075967Y-33257834D01*
X125121521Y-33322891D01*
X125211505Y-33451401D01*
X125378599Y-33618495D01*
X125475384Y-33686264D01*
X125572165Y-33754032D01*
X125572167Y-33754033D01*
X125572170Y-33754035D01*
X125786337Y-33853903D01*
X126014592Y-33915063D01*
X126186016Y-33930061D01*
X126249999Y-33935659D01*
X126250000Y-33935659D01*
X126250001Y-33935659D01*
X126289234Y-33932226D01*
X126485408Y-33915063D01*
X126713663Y-33853903D01*
X126927830Y-33754035D01*
X127121401Y-33618495D01*
X127288495Y-33451401D01*
X127424035Y-33257830D01*
X127523903Y-33043663D01*
X127585063Y-32815408D01*
X127604347Y-32595000D01*
X128644341Y-32595000D01*
X128664936Y-32830403D01*
X128664938Y-32830413D01*
X128726094Y-33058655D01*
X128726096Y-33058659D01*
X128726097Y-33058663D01*
X128754258Y-33119054D01*
X128825965Y-33272830D01*
X128825967Y-33272834D01*
X128861018Y-33322891D01*
X128961505Y-33466401D01*
X129128599Y-33633495D01*
X129225384Y-33701264D01*
X129322165Y-33769032D01*
X129322167Y-33769033D01*
X129322170Y-33769035D01*
X129536337Y-33868903D01*
X129536343Y-33868904D01*
X129536344Y-33868905D01*
X129563286Y-33876124D01*
X129764592Y-33930063D01*
X129952918Y-33946539D01*
X129999999Y-33950659D01*
X130000000Y-33950659D01*
X130000001Y-33950659D01*
X130039234Y-33947226D01*
X130235408Y-33930063D01*
X130463663Y-33868903D01*
X130677830Y-33769035D01*
X130871401Y-33633495D01*
X131038495Y-33466401D01*
X131174035Y-33272830D01*
X131273903Y-33058663D01*
X131335063Y-32830408D01*
X131355659Y-32595000D01*
X131354347Y-32580000D01*
X132394341Y-32580000D01*
X132414936Y-32815403D01*
X132414938Y-32815413D01*
X132476094Y-33043655D01*
X132476096Y-33043659D01*
X132476097Y-33043663D01*
X132575964Y-33257829D01*
X132575965Y-33257830D01*
X132575967Y-33257834D01*
X132621521Y-33322891D01*
X132711505Y-33451401D01*
X132878599Y-33618495D01*
X132975384Y-33686264D01*
X133072165Y-33754032D01*
X133072167Y-33754033D01*
X133072170Y-33754035D01*
X133286337Y-33853903D01*
X133514592Y-33915063D01*
X133686016Y-33930061D01*
X133749999Y-33935659D01*
X133750000Y-33935659D01*
X133750001Y-33935659D01*
X133789234Y-33932226D01*
X133985408Y-33915063D01*
X134213663Y-33853903D01*
X134427830Y-33754035D01*
X134621401Y-33618495D01*
X134788495Y-33451401D01*
X134924035Y-33257830D01*
X135023903Y-33043663D01*
X135085063Y-32815408D01*
X135105659Y-32580000D01*
X135085063Y-32344592D01*
X135023903Y-32116337D01*
X134924035Y-31902171D01*
X134788495Y-31708599D01*
X134788494Y-31708597D01*
X134621402Y-31541506D01*
X134621401Y-31541505D01*
X134435405Y-31411269D01*
X134391781Y-31356692D01*
X134384588Y-31287193D01*
X134416110Y-31224839D01*
X134435405Y-31208119D01*
X134621082Y-31078105D01*
X134788105Y-30911082D01*
X134923600Y-30717578D01*
X135023429Y-30503492D01*
X135023432Y-30503486D01*
X135080636Y-30290000D01*
X134183686Y-30290000D01*
X134209493Y-30249844D01*
X134250000Y-30111889D01*
X134250000Y-29968111D01*
X134209493Y-29830156D01*
X134183686Y-29790000D01*
X135080636Y-29790000D01*
X135080635Y-29789999D01*
X135023432Y-29576513D01*
X135023429Y-29576507D01*
X134923600Y-29362422D01*
X134923599Y-29362420D01*
X134788113Y-29168926D01*
X134788108Y-29168920D01*
X134666053Y-29046865D01*
X134632568Y-28985542D01*
X134637552Y-28915850D01*
X134679424Y-28859917D01*
X134710400Y-28843002D01*
X134842331Y-28793796D01*
X134957546Y-28707546D01*
X135043796Y-28592331D01*
X135094091Y-28457483D01*
X135100500Y-28397873D01*
X135100499Y-26602128D01*
X135094091Y-26542517D01*
X135093397Y-26540657D01*
X135043797Y-26407671D01*
X135043793Y-26407664D01*
X134957547Y-26292455D01*
X134957544Y-26292452D01*
X134842335Y-26206206D01*
X134842328Y-26206202D01*
X134707482Y-26155908D01*
X134707483Y-26155908D01*
X134647883Y-26149501D01*
X134647881Y-26149500D01*
X134647873Y-26149500D01*
X134647864Y-26149500D01*
X132852129Y-26149500D01*
X132852123Y-26149501D01*
X132792516Y-26155908D01*
X132657671Y-26206202D01*
X132657664Y-26206206D01*
X132542455Y-26292452D01*
X132542452Y-26292455D01*
X132456206Y-26407664D01*
X132456202Y-26407671D01*
X132405908Y-26542517D01*
X132399501Y-26602116D01*
X132399501Y-26602123D01*
X132399500Y-26602135D01*
X132399500Y-28397870D01*
X132399501Y-28397876D01*
X132405908Y-28457483D01*
X132456202Y-28592328D01*
X132456206Y-28592335D01*
X132542452Y-28707544D01*
X132542455Y-28707547D01*
X132657664Y-28793793D01*
X132657671Y-28793797D01*
X132657674Y-28793798D01*
X132789598Y-28843002D01*
X132845531Y-28884873D01*
X132869949Y-28950337D01*
X132855098Y-29018610D01*
X132833947Y-29046865D01*
X132711886Y-29168926D01*
X132576400Y-29362420D01*
X132576399Y-29362422D01*
X132476570Y-29576507D01*
X132476567Y-29576513D01*
X132419364Y-29789999D01*
X132419364Y-29790000D01*
X133316314Y-29790000D01*
X133290507Y-29830156D01*
X133250000Y-29968111D01*
X133250000Y-30111889D01*
X133290507Y-30249844D01*
X133316314Y-30290000D01*
X132419364Y-30290000D01*
X132476567Y-30503486D01*
X132476570Y-30503492D01*
X132576399Y-30717578D01*
X132711894Y-30911082D01*
X132878917Y-31078105D01*
X133064595Y-31208119D01*
X133108219Y-31262696D01*
X133115412Y-31332195D01*
X133083890Y-31394549D01*
X133064595Y-31411269D01*
X132878594Y-31541508D01*
X132711505Y-31708597D01*
X132575965Y-31902169D01*
X132575964Y-31902171D01*
X132476098Y-32116335D01*
X132476094Y-32116344D01*
X132414938Y-32344586D01*
X132414936Y-32344596D01*
X132394341Y-32579999D01*
X132394341Y-32580000D01*
X131354347Y-32580000D01*
X131335063Y-32359592D01*
X131273903Y-32131337D01*
X131174035Y-31917171D01*
X131038495Y-31723599D01*
X131038494Y-31723597D01*
X130871402Y-31556506D01*
X130871401Y-31556505D01*
X130685405Y-31426269D01*
X130641781Y-31371692D01*
X130634588Y-31302193D01*
X130666110Y-31239839D01*
X130685405Y-31223119D01*
X130871082Y-31093105D01*
X131038105Y-30926082D01*
X131173600Y-30732578D01*
X131273429Y-30518492D01*
X131273432Y-30518486D01*
X131330636Y-30305000D01*
X130433686Y-30305000D01*
X130459493Y-30264844D01*
X130500000Y-30126889D01*
X130500000Y-29983111D01*
X130459493Y-29845156D01*
X130433686Y-29805000D01*
X131330636Y-29805000D01*
X131330635Y-29804999D01*
X131273432Y-29591513D01*
X131273429Y-29591507D01*
X131173600Y-29377422D01*
X131173599Y-29377420D01*
X131038113Y-29183926D01*
X131038108Y-29183920D01*
X130916053Y-29061865D01*
X130882568Y-29000542D01*
X130887552Y-28930850D01*
X130929424Y-28874917D01*
X130960400Y-28858002D01*
X131092331Y-28808796D01*
X131207546Y-28722546D01*
X131293796Y-28607331D01*
X131344091Y-28472483D01*
X131350500Y-28412873D01*
X131350499Y-26617128D01*
X131344091Y-26557517D01*
X131338496Y-26542517D01*
X131293797Y-26422671D01*
X131293793Y-26422664D01*
X131207547Y-26307455D01*
X131207544Y-26307452D01*
X131092335Y-26221206D01*
X131092328Y-26221202D01*
X130957482Y-26170908D01*
X130957483Y-26170908D01*
X130897883Y-26164501D01*
X130897881Y-26164500D01*
X130897873Y-26164500D01*
X130897864Y-26164500D01*
X129102129Y-26164500D01*
X129102123Y-26164501D01*
X129042516Y-26170908D01*
X128907671Y-26221202D01*
X128907664Y-26221206D01*
X128792455Y-26307452D01*
X128792452Y-26307455D01*
X128706206Y-26422664D01*
X128706202Y-26422671D01*
X128655908Y-26557517D01*
X128649501Y-26617116D01*
X128649501Y-26617123D01*
X128649500Y-26617135D01*
X128649500Y-28412870D01*
X128649501Y-28412876D01*
X128655908Y-28472483D01*
X128706202Y-28607328D01*
X128706206Y-28607335D01*
X128792452Y-28722544D01*
X128792455Y-28722547D01*
X128907664Y-28808793D01*
X128907671Y-28808797D01*
X128907674Y-28808798D01*
X129039598Y-28858002D01*
X129095531Y-28899873D01*
X129119949Y-28965337D01*
X129105098Y-29033610D01*
X129083947Y-29061865D01*
X128961886Y-29183926D01*
X128826400Y-29377420D01*
X128826399Y-29377422D01*
X128726570Y-29591507D01*
X128726567Y-29591513D01*
X128669364Y-29804999D01*
X128669364Y-29805000D01*
X129566314Y-29805000D01*
X129540507Y-29845156D01*
X129500000Y-29983111D01*
X129500000Y-30126889D01*
X129540507Y-30264844D01*
X129566314Y-30305000D01*
X128669364Y-30305000D01*
X128726567Y-30518486D01*
X128726570Y-30518492D01*
X128826399Y-30732578D01*
X128961894Y-30926082D01*
X129128917Y-31093105D01*
X129314595Y-31223119D01*
X129358219Y-31277696D01*
X129365412Y-31347195D01*
X129333890Y-31409549D01*
X129314595Y-31426269D01*
X129128594Y-31556508D01*
X128961505Y-31723597D01*
X128825965Y-31917169D01*
X128825964Y-31917171D01*
X128726098Y-32131335D01*
X128726094Y-32131344D01*
X128664938Y-32359586D01*
X128664936Y-32359596D01*
X128644341Y-32594999D01*
X128644341Y-32595000D01*
X127604347Y-32595000D01*
X127605659Y-32580000D01*
X127585063Y-32344592D01*
X127523903Y-32116337D01*
X127424035Y-31902171D01*
X127288495Y-31708599D01*
X127288494Y-31708597D01*
X127121402Y-31541506D01*
X127121401Y-31541505D01*
X126935405Y-31411269D01*
X126891781Y-31356692D01*
X126884588Y-31287193D01*
X126916110Y-31224839D01*
X126935405Y-31208119D01*
X127121082Y-31078105D01*
X127288105Y-30911082D01*
X127423600Y-30717578D01*
X127523429Y-30503492D01*
X127523432Y-30503486D01*
X127580636Y-30290000D01*
X126683686Y-30290000D01*
X126709493Y-30249844D01*
X126750000Y-30111889D01*
X126750000Y-29968111D01*
X126709493Y-29830156D01*
X126683686Y-29790000D01*
X127580636Y-29790000D01*
X127580635Y-29789999D01*
X127523432Y-29576513D01*
X127523429Y-29576507D01*
X127423600Y-29362422D01*
X127423599Y-29362420D01*
X127288113Y-29168926D01*
X127288108Y-29168920D01*
X127166053Y-29046865D01*
X127132568Y-28985542D01*
X127137552Y-28915850D01*
X127179424Y-28859917D01*
X127210400Y-28843002D01*
X127342331Y-28793796D01*
X127457546Y-28707546D01*
X127543796Y-28592331D01*
X127594091Y-28457483D01*
X127600500Y-28397873D01*
X127600499Y-26602128D01*
X127594091Y-26542517D01*
X127593397Y-26540657D01*
X127543797Y-26407671D01*
X127543793Y-26407664D01*
X127457547Y-26292455D01*
X127457544Y-26292452D01*
X127342335Y-26206206D01*
X127342328Y-26206202D01*
X127207482Y-26155908D01*
X127207483Y-26155908D01*
X127147883Y-26149501D01*
X127147881Y-26149500D01*
X127147873Y-26149500D01*
X127147864Y-26149500D01*
X125352129Y-26149500D01*
X125352123Y-26149501D01*
X125292516Y-26155908D01*
X125157671Y-26206202D01*
X125157664Y-26206206D01*
X125042455Y-26292452D01*
X125042452Y-26292455D01*
X124956206Y-26407664D01*
X124956202Y-26407671D01*
X124905908Y-26542517D01*
X124899501Y-26602116D01*
X124899501Y-26602123D01*
X124899500Y-26602135D01*
X124899500Y-28397870D01*
X124899501Y-28397876D01*
X124905908Y-28457483D01*
X124956202Y-28592328D01*
X124956206Y-28592335D01*
X125042452Y-28707544D01*
X125042455Y-28707547D01*
X125157664Y-28793793D01*
X125157671Y-28793797D01*
X125157674Y-28793798D01*
X125289598Y-28843002D01*
X125345531Y-28884873D01*
X125369949Y-28950337D01*
X125355098Y-29018610D01*
X125333947Y-29046865D01*
X125211886Y-29168926D01*
X125076400Y-29362420D01*
X125076399Y-29362422D01*
X124976570Y-29576507D01*
X124976567Y-29576513D01*
X124919364Y-29789999D01*
X124919364Y-29790000D01*
X125816314Y-29790000D01*
X125790507Y-29830156D01*
X125750000Y-29968111D01*
X125750000Y-30111889D01*
X125790507Y-30249844D01*
X125816314Y-30290000D01*
X124919364Y-30290000D01*
X124976567Y-30503486D01*
X124976570Y-30503492D01*
X125076399Y-30717578D01*
X125211894Y-30911082D01*
X125378917Y-31078105D01*
X125564595Y-31208119D01*
X125608219Y-31262696D01*
X125615412Y-31332195D01*
X125583890Y-31394549D01*
X125564595Y-31411269D01*
X125378594Y-31541508D01*
X125211505Y-31708597D01*
X125075965Y-31902169D01*
X125075964Y-31902171D01*
X124976098Y-32116335D01*
X124976094Y-32116344D01*
X124914938Y-32344586D01*
X124914936Y-32344596D01*
X124894341Y-32579999D01*
X124894341Y-32580000D01*
X123855659Y-32580000D01*
X123835063Y-32344592D01*
X123773903Y-32116337D01*
X123674035Y-31902171D01*
X123538495Y-31708599D01*
X123538494Y-31708597D01*
X123371402Y-31541506D01*
X123371401Y-31541505D01*
X123185405Y-31411269D01*
X123141781Y-31356692D01*
X123134588Y-31287193D01*
X123166110Y-31224839D01*
X123185405Y-31208119D01*
X123371082Y-31078105D01*
X123538105Y-30911082D01*
X123673600Y-30717578D01*
X123773429Y-30503492D01*
X123773432Y-30503486D01*
X123830636Y-30290000D01*
X122933686Y-30290000D01*
X122959493Y-30249844D01*
X123000000Y-30111889D01*
X123000000Y-29968111D01*
X122959493Y-29830156D01*
X122933686Y-29790000D01*
X123830636Y-29790000D01*
X123830635Y-29789999D01*
X123773432Y-29576513D01*
X123773429Y-29576507D01*
X123673600Y-29362422D01*
X123673599Y-29362420D01*
X123538113Y-29168926D01*
X123538108Y-29168920D01*
X123416053Y-29046865D01*
X123382568Y-28985542D01*
X123387552Y-28915850D01*
X123429424Y-28859917D01*
X123460400Y-28843002D01*
X123592331Y-28793796D01*
X123707546Y-28707546D01*
X123793796Y-28592331D01*
X123844091Y-28457483D01*
X123850500Y-28397873D01*
X123850499Y-26602128D01*
X123844091Y-26542517D01*
X123843397Y-26540657D01*
X123793797Y-26407671D01*
X123793793Y-26407664D01*
X123707547Y-26292455D01*
X123707544Y-26292452D01*
X123592335Y-26206206D01*
X123592328Y-26206202D01*
X123457482Y-26155908D01*
X123457483Y-26155908D01*
X123397883Y-26149501D01*
X123397881Y-26149500D01*
X123397873Y-26149500D01*
X123397864Y-26149500D01*
X121602129Y-26149500D01*
X121602123Y-26149501D01*
X121542516Y-26155908D01*
X121407671Y-26206202D01*
X121407664Y-26206206D01*
X121292455Y-26292452D01*
X121292452Y-26292455D01*
X121206206Y-26407664D01*
X121206202Y-26407671D01*
X121155908Y-26542517D01*
X121149501Y-26602116D01*
X121149501Y-26602123D01*
X121149500Y-26602135D01*
X121149500Y-28397870D01*
X121149501Y-28397876D01*
X121155908Y-28457483D01*
X121206202Y-28592328D01*
X121206206Y-28592335D01*
X121292452Y-28707544D01*
X121292455Y-28707547D01*
X121407664Y-28793793D01*
X121407671Y-28793797D01*
X121407674Y-28793798D01*
X121539598Y-28843002D01*
X121595531Y-28884873D01*
X121619949Y-28950337D01*
X121605098Y-29018610D01*
X121583947Y-29046865D01*
X121461886Y-29168926D01*
X121326400Y-29362420D01*
X121326399Y-29362422D01*
X121226570Y-29576507D01*
X121226567Y-29576513D01*
X121169364Y-29789999D01*
X121169364Y-29790000D01*
X122066314Y-29790000D01*
X122040507Y-29830156D01*
X122000000Y-29968111D01*
X122000000Y-30111889D01*
X122040507Y-30249844D01*
X122066314Y-30290000D01*
X121169364Y-30290000D01*
X121226567Y-30503486D01*
X121226570Y-30503492D01*
X121326399Y-30717578D01*
X121461894Y-30911082D01*
X121628917Y-31078105D01*
X121814595Y-31208119D01*
X121858219Y-31262696D01*
X121865412Y-31332195D01*
X121833890Y-31394549D01*
X121814595Y-31411269D01*
X121628594Y-31541508D01*
X121461505Y-31708597D01*
X121325965Y-31902169D01*
X121325964Y-31902171D01*
X121226098Y-32116335D01*
X121226094Y-32116344D01*
X121164938Y-32344586D01*
X121164936Y-32344596D01*
X121144341Y-32579999D01*
X121144341Y-32580000D01*
X120104347Y-32580000D01*
X120085063Y-32359592D01*
X120023903Y-32131337D01*
X119924035Y-31917171D01*
X119788495Y-31723599D01*
X119788494Y-31723597D01*
X119621402Y-31556506D01*
X119621401Y-31556505D01*
X119435405Y-31426269D01*
X119391781Y-31371692D01*
X119384588Y-31302193D01*
X119416110Y-31239839D01*
X119435405Y-31223119D01*
X119621082Y-31093105D01*
X119788105Y-30926082D01*
X119923600Y-30732578D01*
X120023429Y-30518492D01*
X120023432Y-30518486D01*
X120080636Y-30305000D01*
X119183686Y-30305000D01*
X119209493Y-30264844D01*
X119250000Y-30126889D01*
X119250000Y-29983111D01*
X119209493Y-29845156D01*
X119183686Y-29805000D01*
X120080636Y-29805000D01*
X120080635Y-29804999D01*
X120023432Y-29591513D01*
X120023429Y-29591507D01*
X119923600Y-29377422D01*
X119923599Y-29377420D01*
X119788113Y-29183926D01*
X119788108Y-29183920D01*
X119666053Y-29061865D01*
X119632568Y-29000542D01*
X119637552Y-28930850D01*
X119679424Y-28874917D01*
X119710400Y-28858002D01*
X119842331Y-28808796D01*
X119957546Y-28722546D01*
X120043796Y-28607331D01*
X120094091Y-28472483D01*
X120100500Y-28412873D01*
X120100499Y-26617128D01*
X120094091Y-26557517D01*
X120088496Y-26542517D01*
X120043797Y-26422671D01*
X120043793Y-26422664D01*
X119957547Y-26307455D01*
X119957544Y-26307452D01*
X119842335Y-26221206D01*
X119842328Y-26221202D01*
X119707482Y-26170908D01*
X119707483Y-26170908D01*
X119647883Y-26164501D01*
X119647881Y-26164500D01*
X119647873Y-26164500D01*
X119647864Y-26164500D01*
X117852129Y-26164500D01*
X117852123Y-26164501D01*
X117792516Y-26170908D01*
X117657671Y-26221202D01*
X117657664Y-26221206D01*
X117542455Y-26307452D01*
X117542452Y-26307455D01*
X117456206Y-26422664D01*
X117456202Y-26422671D01*
X117405908Y-26557517D01*
X117399501Y-26617116D01*
X117399501Y-26617123D01*
X117399500Y-26617135D01*
X117399500Y-28412870D01*
X117399501Y-28412876D01*
X117405908Y-28472483D01*
X117456202Y-28607328D01*
X117456206Y-28607335D01*
X117542452Y-28722544D01*
X117542455Y-28722547D01*
X117657664Y-28808793D01*
X117657671Y-28808797D01*
X117657674Y-28808798D01*
X117789598Y-28858002D01*
X117845531Y-28899873D01*
X117869949Y-28965337D01*
X117855098Y-29033610D01*
X117833947Y-29061865D01*
X117711886Y-29183926D01*
X117576400Y-29377420D01*
X117576399Y-29377422D01*
X117476570Y-29591507D01*
X117476567Y-29591513D01*
X117419364Y-29804999D01*
X117419364Y-29805000D01*
X118316314Y-29805000D01*
X118290507Y-29845156D01*
X118250000Y-29983111D01*
X118250000Y-30126889D01*
X118290507Y-30264844D01*
X118316314Y-30305000D01*
X117419364Y-30305000D01*
X117476567Y-30518486D01*
X117476570Y-30518492D01*
X117576399Y-30732578D01*
X117711894Y-30926082D01*
X117878917Y-31093105D01*
X118064595Y-31223119D01*
X118108219Y-31277696D01*
X118115412Y-31347195D01*
X118083890Y-31409549D01*
X118064595Y-31426269D01*
X117878594Y-31556508D01*
X117711505Y-31723597D01*
X117575965Y-31917169D01*
X117575964Y-31917171D01*
X117476098Y-32131335D01*
X117476094Y-32131344D01*
X117414938Y-32359586D01*
X117414936Y-32359596D01*
X117394341Y-32594999D01*
X117394341Y-32595000D01*
X116355659Y-32595000D01*
X116335063Y-32359592D01*
X116273903Y-32131337D01*
X116174035Y-31917171D01*
X116038495Y-31723599D01*
X116038494Y-31723597D01*
X115871402Y-31556506D01*
X115871401Y-31556505D01*
X115685405Y-31426269D01*
X115641781Y-31371692D01*
X115634588Y-31302193D01*
X115666110Y-31239839D01*
X115685405Y-31223119D01*
X115871082Y-31093105D01*
X116038105Y-30926082D01*
X116173600Y-30732578D01*
X116273429Y-30518492D01*
X116273432Y-30518486D01*
X116330636Y-30305000D01*
X115433686Y-30305000D01*
X115459493Y-30264844D01*
X115500000Y-30126889D01*
X115500000Y-29983111D01*
X115459493Y-29845156D01*
X115433686Y-29805000D01*
X116330636Y-29805000D01*
X116330635Y-29804999D01*
X116273432Y-29591513D01*
X116273429Y-29591507D01*
X116173600Y-29377422D01*
X116173599Y-29377420D01*
X116038113Y-29183926D01*
X116038108Y-29183920D01*
X115916053Y-29061865D01*
X115882568Y-29000542D01*
X115887552Y-28930850D01*
X115929424Y-28874917D01*
X115960400Y-28858002D01*
X116092331Y-28808796D01*
X116207546Y-28722546D01*
X116293796Y-28607331D01*
X116344091Y-28472483D01*
X116350500Y-28412873D01*
X116350499Y-26617128D01*
X116344091Y-26557517D01*
X116338496Y-26542517D01*
X116293797Y-26422671D01*
X116293793Y-26422664D01*
X116207547Y-26307455D01*
X116207544Y-26307452D01*
X116092335Y-26221206D01*
X116092328Y-26221202D01*
X115957482Y-26170908D01*
X115957483Y-26170908D01*
X115897883Y-26164501D01*
X115897881Y-26164500D01*
X115897873Y-26164500D01*
X115897864Y-26164500D01*
X114102129Y-26164500D01*
X114102123Y-26164501D01*
X114042516Y-26170908D01*
X113907671Y-26221202D01*
X113907664Y-26221206D01*
X113792455Y-26307452D01*
X113792452Y-26307455D01*
X113706206Y-26422664D01*
X113706202Y-26422671D01*
X113655908Y-26557517D01*
X113649501Y-26617116D01*
X113649501Y-26617123D01*
X113649500Y-26617135D01*
X113649500Y-28412870D01*
X113649501Y-28412876D01*
X113655908Y-28472483D01*
X113706202Y-28607328D01*
X113706206Y-28607335D01*
X113792452Y-28722544D01*
X113792455Y-28722547D01*
X113907664Y-28808793D01*
X113907671Y-28808797D01*
X113907674Y-28808798D01*
X114039598Y-28858002D01*
X114095531Y-28899873D01*
X114119949Y-28965337D01*
X114105098Y-29033610D01*
X114083947Y-29061865D01*
X113961886Y-29183926D01*
X113826400Y-29377420D01*
X113826399Y-29377422D01*
X113726570Y-29591507D01*
X113726567Y-29591513D01*
X113669364Y-29804999D01*
X113669364Y-29805000D01*
X114566314Y-29805000D01*
X114540507Y-29845156D01*
X114500000Y-29983111D01*
X114500000Y-30126889D01*
X114540507Y-30264844D01*
X114566314Y-30305000D01*
X113669364Y-30305000D01*
X113726567Y-30518486D01*
X113726570Y-30518492D01*
X113826399Y-30732578D01*
X113961894Y-30926082D01*
X114128917Y-31093105D01*
X114314595Y-31223119D01*
X114358219Y-31277696D01*
X114365412Y-31347195D01*
X114333890Y-31409549D01*
X114314595Y-31426269D01*
X114128594Y-31556508D01*
X113961505Y-31723597D01*
X113825965Y-31917169D01*
X113825964Y-31917171D01*
X113726098Y-32131335D01*
X113726094Y-32131344D01*
X113664938Y-32359586D01*
X113664936Y-32359596D01*
X113644341Y-32594999D01*
X113644341Y-32595000D01*
X112604347Y-32595000D01*
X112605659Y-32580000D01*
X112585063Y-32344592D01*
X112523903Y-32116337D01*
X112424035Y-31902171D01*
X112288495Y-31708599D01*
X112288494Y-31708597D01*
X112121402Y-31541506D01*
X112121401Y-31541505D01*
X111935405Y-31411269D01*
X111891781Y-31356692D01*
X111884588Y-31287193D01*
X111916110Y-31224839D01*
X111935405Y-31208119D01*
X112121082Y-31078105D01*
X112288105Y-30911082D01*
X112423600Y-30717578D01*
X112523429Y-30503492D01*
X112523432Y-30503486D01*
X112580636Y-30290000D01*
X111683686Y-30290000D01*
X111709493Y-30249844D01*
X111750000Y-30111889D01*
X111750000Y-29968111D01*
X111709493Y-29830156D01*
X111683686Y-29790000D01*
X112580636Y-29790000D01*
X112580635Y-29789999D01*
X112523432Y-29576513D01*
X112523429Y-29576507D01*
X112423600Y-29362422D01*
X112423599Y-29362420D01*
X112288113Y-29168926D01*
X112288108Y-29168920D01*
X112166053Y-29046865D01*
X112132568Y-28985542D01*
X112137552Y-28915850D01*
X112179424Y-28859917D01*
X112210400Y-28843002D01*
X112342331Y-28793796D01*
X112457546Y-28707546D01*
X112543796Y-28592331D01*
X112594091Y-28457483D01*
X112600500Y-28397873D01*
X112600499Y-26602128D01*
X112594091Y-26542517D01*
X112593397Y-26540657D01*
X112543797Y-26407671D01*
X112543793Y-26407664D01*
X112457547Y-26292455D01*
X112457544Y-26292452D01*
X112342335Y-26206206D01*
X112342328Y-26206202D01*
X112207482Y-26155908D01*
X112207483Y-26155908D01*
X112147883Y-26149501D01*
X112147881Y-26149500D01*
X112147873Y-26149500D01*
X112147864Y-26149500D01*
X110352129Y-26149500D01*
X110352123Y-26149501D01*
X110292516Y-26155908D01*
X110157671Y-26206202D01*
X110157664Y-26206206D01*
X110042455Y-26292452D01*
X110042452Y-26292455D01*
X109956206Y-26407664D01*
X109956202Y-26407671D01*
X109905908Y-26542517D01*
X109899501Y-26602116D01*
X109899501Y-26602123D01*
X109899500Y-26602135D01*
X109899500Y-28397870D01*
X109899501Y-28397876D01*
X109905908Y-28457483D01*
X109956202Y-28592328D01*
X109956206Y-28592335D01*
X110042452Y-28707544D01*
X110042455Y-28707547D01*
X110157664Y-28793793D01*
X110157671Y-28793797D01*
X110157674Y-28793798D01*
X110289598Y-28843002D01*
X110345531Y-28884873D01*
X110369949Y-28950337D01*
X110355098Y-29018610D01*
X110333947Y-29046865D01*
X110211886Y-29168926D01*
X110076400Y-29362420D01*
X110076399Y-29362422D01*
X109976570Y-29576507D01*
X109976567Y-29576513D01*
X109919364Y-29789999D01*
X109919364Y-29790000D01*
X110816314Y-29790000D01*
X110790507Y-29830156D01*
X110750000Y-29968111D01*
X110750000Y-30111889D01*
X110790507Y-30249844D01*
X110816314Y-30290000D01*
X109919364Y-30290000D01*
X109976567Y-30503486D01*
X109976570Y-30503492D01*
X110076399Y-30717578D01*
X110211894Y-30911082D01*
X110378917Y-31078105D01*
X110564595Y-31208119D01*
X110608219Y-31262696D01*
X110615412Y-31332195D01*
X110583890Y-31394549D01*
X110564595Y-31411269D01*
X110378594Y-31541508D01*
X110211505Y-31708597D01*
X110075965Y-31902169D01*
X110075964Y-31902171D01*
X109976098Y-32116335D01*
X109976094Y-32116344D01*
X109914938Y-32344586D01*
X109914936Y-32344596D01*
X109894341Y-32579999D01*
X109894341Y-32580000D01*
X108855659Y-32580000D01*
X108835063Y-32344592D01*
X108773903Y-32116337D01*
X108674035Y-31902171D01*
X108538495Y-31708599D01*
X108538494Y-31708597D01*
X108371402Y-31541506D01*
X108371401Y-31541505D01*
X108185405Y-31411269D01*
X108141781Y-31356692D01*
X108134588Y-31287193D01*
X108166110Y-31224839D01*
X108185405Y-31208119D01*
X108371082Y-31078105D01*
X108538105Y-30911082D01*
X108673600Y-30717578D01*
X108773429Y-30503492D01*
X108773432Y-30503486D01*
X108830636Y-30290000D01*
X107933686Y-30290000D01*
X107959493Y-30249844D01*
X108000000Y-30111889D01*
X108000000Y-29968111D01*
X107959493Y-29830156D01*
X107933686Y-29790000D01*
X108830636Y-29790000D01*
X108830635Y-29789999D01*
X108773432Y-29576513D01*
X108773429Y-29576507D01*
X108673600Y-29362422D01*
X108673599Y-29362420D01*
X108538113Y-29168926D01*
X108538108Y-29168920D01*
X108416053Y-29046865D01*
X108382568Y-28985542D01*
X108387552Y-28915850D01*
X108429424Y-28859917D01*
X108460400Y-28843002D01*
X108592331Y-28793796D01*
X108707546Y-28707546D01*
X108793796Y-28592331D01*
X108844091Y-28457483D01*
X108850500Y-28397873D01*
X108850499Y-26602128D01*
X108844091Y-26542517D01*
X108843397Y-26540657D01*
X108793797Y-26407671D01*
X108793793Y-26407664D01*
X108707547Y-26292455D01*
X108707544Y-26292452D01*
X108592335Y-26206206D01*
X108592328Y-26206202D01*
X108457482Y-26155908D01*
X108457483Y-26155908D01*
X108397883Y-26149501D01*
X108397881Y-26149500D01*
X108397873Y-26149500D01*
X108397864Y-26149500D01*
X106602129Y-26149500D01*
X106602123Y-26149501D01*
X106542516Y-26155908D01*
X106407671Y-26206202D01*
X106407664Y-26206206D01*
X106292455Y-26292452D01*
X106292452Y-26292455D01*
X106206206Y-26407664D01*
X106206202Y-26407671D01*
X106155908Y-26542517D01*
X106149501Y-26602116D01*
X106149501Y-26602123D01*
X106149500Y-26602135D01*
X106149500Y-28397870D01*
X106149501Y-28397876D01*
X106155908Y-28457483D01*
X106206202Y-28592328D01*
X106206206Y-28592335D01*
X106292452Y-28707544D01*
X106292455Y-28707547D01*
X106407664Y-28793793D01*
X106407671Y-28793797D01*
X106407674Y-28793798D01*
X106539598Y-28843002D01*
X106595531Y-28884873D01*
X106619949Y-28950337D01*
X106605098Y-29018610D01*
X106583947Y-29046865D01*
X106461886Y-29168926D01*
X106326400Y-29362420D01*
X106326399Y-29362422D01*
X106226570Y-29576507D01*
X106226567Y-29576513D01*
X106169364Y-29789999D01*
X106169364Y-29790000D01*
X107066314Y-29790000D01*
X107040507Y-29830156D01*
X107000000Y-29968111D01*
X107000000Y-30111889D01*
X107040507Y-30249844D01*
X107066314Y-30290000D01*
X106169364Y-30290000D01*
X106226567Y-30503486D01*
X106226570Y-30503492D01*
X106326399Y-30717578D01*
X106461894Y-30911082D01*
X106628917Y-31078105D01*
X106814595Y-31208119D01*
X106858219Y-31262696D01*
X106865412Y-31332195D01*
X106833890Y-31394549D01*
X106814595Y-31411269D01*
X106628594Y-31541508D01*
X106461505Y-31708597D01*
X106325965Y-31902169D01*
X106325964Y-31902171D01*
X106226098Y-32116335D01*
X106226094Y-32116344D01*
X106164938Y-32344586D01*
X106164936Y-32344596D01*
X106144341Y-32579999D01*
X106144341Y-32580000D01*
X105105659Y-32580000D01*
X105085063Y-32344592D01*
X105023903Y-32116337D01*
X104924035Y-31902171D01*
X104788495Y-31708599D01*
X104788494Y-31708597D01*
X104621402Y-31541506D01*
X104621401Y-31541505D01*
X104435405Y-31411269D01*
X104391781Y-31356692D01*
X104384588Y-31287193D01*
X104416110Y-31224839D01*
X104435405Y-31208119D01*
X104621082Y-31078105D01*
X104788105Y-30911082D01*
X104923600Y-30717578D01*
X105023429Y-30503492D01*
X105023432Y-30503486D01*
X105080636Y-30290000D01*
X104183686Y-30290000D01*
X104209493Y-30249844D01*
X104250000Y-30111889D01*
X104250000Y-29968111D01*
X104209493Y-29830156D01*
X104183686Y-29790000D01*
X105080636Y-29790000D01*
X105080635Y-29789999D01*
X105023432Y-29576513D01*
X105023429Y-29576507D01*
X104923600Y-29362422D01*
X104923599Y-29362420D01*
X104788113Y-29168926D01*
X104788108Y-29168920D01*
X104666053Y-29046865D01*
X104632568Y-28985542D01*
X104637552Y-28915850D01*
X104679424Y-28859917D01*
X104710400Y-28843002D01*
X104842331Y-28793796D01*
X104957546Y-28707546D01*
X105043796Y-28592331D01*
X105094091Y-28457483D01*
X105100500Y-28397873D01*
X105100499Y-26602128D01*
X105094091Y-26542517D01*
X105093397Y-26540657D01*
X105043797Y-26407671D01*
X105043793Y-26407664D01*
X104957547Y-26292455D01*
X104957544Y-26292452D01*
X104842335Y-26206206D01*
X104842328Y-26206202D01*
X104707482Y-26155908D01*
X104707483Y-26155908D01*
X104647883Y-26149501D01*
X104647881Y-26149500D01*
X104647873Y-26149500D01*
X104647864Y-26149500D01*
X102852129Y-26149500D01*
X102852123Y-26149501D01*
X102792516Y-26155908D01*
X102657671Y-26206202D01*
X102657664Y-26206206D01*
X102542455Y-26292452D01*
X102542452Y-26292455D01*
X102456206Y-26407664D01*
X102456202Y-26407671D01*
X102405908Y-26542517D01*
X102399501Y-26602116D01*
X102399501Y-26602123D01*
X102399500Y-26602135D01*
X102399500Y-28397870D01*
X102399501Y-28397876D01*
X102405908Y-28457483D01*
X102456202Y-28592328D01*
X102456206Y-28592335D01*
X102542452Y-28707544D01*
X102542455Y-28707547D01*
X102657664Y-28793793D01*
X102657671Y-28793797D01*
X102657674Y-28793798D01*
X102789598Y-28843002D01*
X102845531Y-28884873D01*
X102869949Y-28950337D01*
X102855098Y-29018610D01*
X102833947Y-29046865D01*
X102711886Y-29168926D01*
X102576400Y-29362420D01*
X102576399Y-29362422D01*
X102476570Y-29576507D01*
X102476567Y-29576513D01*
X102419364Y-29789999D01*
X102419364Y-29790000D01*
X103316314Y-29790000D01*
X103290507Y-29830156D01*
X103250000Y-29968111D01*
X103250000Y-30111889D01*
X103290507Y-30249844D01*
X103316314Y-30290000D01*
X102419364Y-30290000D01*
X102476567Y-30503486D01*
X102476570Y-30503492D01*
X102576399Y-30717578D01*
X102711894Y-30911082D01*
X102878917Y-31078105D01*
X103064595Y-31208119D01*
X103108219Y-31262696D01*
X103115412Y-31332195D01*
X103083890Y-31394549D01*
X103064595Y-31411269D01*
X102878594Y-31541508D01*
X102711505Y-31708597D01*
X102575965Y-31902169D01*
X102575964Y-31902171D01*
X102476098Y-32116335D01*
X102476094Y-32116344D01*
X102414938Y-32344586D01*
X102414936Y-32344596D01*
X102394341Y-32579999D01*
X102394341Y-32580000D01*
X101355659Y-32580000D01*
X101335063Y-32344592D01*
X101273903Y-32116337D01*
X101174035Y-31902171D01*
X101038495Y-31708599D01*
X101038494Y-31708597D01*
X100871402Y-31541506D01*
X100871401Y-31541505D01*
X100685405Y-31411269D01*
X100641781Y-31356692D01*
X100634588Y-31287193D01*
X100666110Y-31224839D01*
X100685405Y-31208119D01*
X100871082Y-31078105D01*
X101038105Y-30911082D01*
X101173600Y-30717578D01*
X101273429Y-30503492D01*
X101273432Y-30503486D01*
X101330636Y-30290000D01*
X100433686Y-30290000D01*
X100459493Y-30249844D01*
X100500000Y-30111889D01*
X100500000Y-29968111D01*
X100459493Y-29830156D01*
X100433686Y-29790000D01*
X101330636Y-29790000D01*
X101330635Y-29789999D01*
X101273432Y-29576513D01*
X101273429Y-29576507D01*
X101173600Y-29362422D01*
X101173599Y-29362420D01*
X101038113Y-29168926D01*
X101038108Y-29168920D01*
X100916053Y-29046865D01*
X100882568Y-28985542D01*
X100887552Y-28915850D01*
X100929424Y-28859917D01*
X100960400Y-28843002D01*
X101092331Y-28793796D01*
X101207546Y-28707546D01*
X101293796Y-28592331D01*
X101344091Y-28457483D01*
X101350500Y-28397873D01*
X101350499Y-26602128D01*
X101344091Y-26542517D01*
X101343397Y-26540657D01*
X101293797Y-26407671D01*
X101293793Y-26407664D01*
X101207547Y-26292455D01*
X101207544Y-26292452D01*
X101092335Y-26206206D01*
X101092328Y-26206202D01*
X100957482Y-26155908D01*
X100957483Y-26155908D01*
X100897883Y-26149501D01*
X100897881Y-26149500D01*
X100897873Y-26149500D01*
X100897864Y-26149500D01*
X99102129Y-26149500D01*
X99102123Y-26149501D01*
X99042516Y-26155908D01*
X98907671Y-26206202D01*
X98907664Y-26206206D01*
X98792455Y-26292452D01*
X98792452Y-26292455D01*
X98706206Y-26407664D01*
X98706202Y-26407671D01*
X98655908Y-26542517D01*
X98649501Y-26602116D01*
X98649501Y-26602123D01*
X98649500Y-26602135D01*
X98649500Y-28397870D01*
X98649501Y-28397876D01*
X98655908Y-28457483D01*
X98706202Y-28592328D01*
X98706206Y-28592335D01*
X98792452Y-28707544D01*
X98792455Y-28707547D01*
X98907664Y-28793793D01*
X98907671Y-28793797D01*
X98907674Y-28793798D01*
X99039598Y-28843002D01*
X99095531Y-28884873D01*
X99119949Y-28950337D01*
X99105098Y-29018610D01*
X99083947Y-29046865D01*
X98961886Y-29168926D01*
X98826400Y-29362420D01*
X98826399Y-29362422D01*
X98726570Y-29576507D01*
X98726567Y-29576513D01*
X98669364Y-29789999D01*
X98669364Y-29790000D01*
X99566314Y-29790000D01*
X99540507Y-29830156D01*
X99500000Y-29968111D01*
X99500000Y-30111889D01*
X99540507Y-30249844D01*
X99566314Y-30290000D01*
X98669364Y-30290000D01*
X98726567Y-30503486D01*
X98726570Y-30503492D01*
X98826399Y-30717578D01*
X98961894Y-30911082D01*
X99128917Y-31078105D01*
X99314595Y-31208119D01*
X99358219Y-31262696D01*
X99365412Y-31332195D01*
X99333890Y-31394549D01*
X99314595Y-31411269D01*
X99128594Y-31541508D01*
X98961505Y-31708597D01*
X98825965Y-31902169D01*
X98825964Y-31902171D01*
X98726098Y-32116335D01*
X98726094Y-32116344D01*
X98664938Y-32344586D01*
X98664936Y-32344596D01*
X98644341Y-32579999D01*
X98644341Y-32580000D01*
X97605659Y-32580000D01*
X97585063Y-32344592D01*
X97523903Y-32116337D01*
X97424035Y-31902171D01*
X97288495Y-31708599D01*
X97288494Y-31708597D01*
X97121402Y-31541506D01*
X97121401Y-31541505D01*
X96935405Y-31411269D01*
X96891781Y-31356692D01*
X96884588Y-31287193D01*
X96916110Y-31224839D01*
X96935405Y-31208119D01*
X97121082Y-31078105D01*
X97288105Y-30911082D01*
X97423600Y-30717578D01*
X97523429Y-30503492D01*
X97523432Y-30503486D01*
X97580636Y-30290000D01*
X96683686Y-30290000D01*
X96709493Y-30249844D01*
X96750000Y-30111889D01*
X96750000Y-29968111D01*
X96709493Y-29830156D01*
X96683686Y-29790000D01*
X97580636Y-29790000D01*
X97580635Y-29789999D01*
X97523432Y-29576513D01*
X97523429Y-29576507D01*
X97423600Y-29362422D01*
X97423599Y-29362420D01*
X97288113Y-29168926D01*
X97288108Y-29168920D01*
X97166053Y-29046865D01*
X97132568Y-28985542D01*
X97137552Y-28915850D01*
X97179424Y-28859917D01*
X97210400Y-28843002D01*
X97342331Y-28793796D01*
X97457546Y-28707546D01*
X97543796Y-28592331D01*
X97594091Y-28457483D01*
X97600500Y-28397873D01*
X97600499Y-26602128D01*
X97594091Y-26542517D01*
X97593397Y-26540657D01*
X97543797Y-26407671D01*
X97543793Y-26407664D01*
X97457547Y-26292455D01*
X97457544Y-26292452D01*
X97342335Y-26206206D01*
X97342328Y-26206202D01*
X97207482Y-26155908D01*
X97207483Y-26155908D01*
X97147883Y-26149501D01*
X97147881Y-26149500D01*
X97147873Y-26149500D01*
X97147864Y-26149500D01*
X95352129Y-26149500D01*
X95352123Y-26149501D01*
X95292516Y-26155908D01*
X95157671Y-26206202D01*
X95157664Y-26206206D01*
X95042455Y-26292452D01*
X95042452Y-26292455D01*
X94956206Y-26407664D01*
X94956202Y-26407671D01*
X94905908Y-26542517D01*
X94899501Y-26602116D01*
X94899501Y-26602123D01*
X94899500Y-26602135D01*
X94899500Y-28397870D01*
X94899501Y-28397876D01*
X94905908Y-28457483D01*
X94956202Y-28592328D01*
X94956206Y-28592335D01*
X95042452Y-28707544D01*
X95042455Y-28707547D01*
X95157664Y-28793793D01*
X95157671Y-28793797D01*
X95157674Y-28793798D01*
X95289598Y-28843002D01*
X95345531Y-28884873D01*
X95369949Y-28950337D01*
X95355098Y-29018610D01*
X95333947Y-29046865D01*
X95211886Y-29168926D01*
X95076400Y-29362420D01*
X95076399Y-29362422D01*
X94976570Y-29576507D01*
X94976567Y-29576513D01*
X94919364Y-29789999D01*
X94919364Y-29790000D01*
X95816314Y-29790000D01*
X95790507Y-29830156D01*
X95750000Y-29968111D01*
X95750000Y-30111889D01*
X95790507Y-30249844D01*
X95816314Y-30290000D01*
X94919364Y-30290000D01*
X94976567Y-30503486D01*
X94976570Y-30503492D01*
X95076399Y-30717578D01*
X95211894Y-30911082D01*
X95378917Y-31078105D01*
X95564595Y-31208119D01*
X95608219Y-31262696D01*
X95615412Y-31332195D01*
X95583890Y-31394549D01*
X95564595Y-31411269D01*
X95378594Y-31541508D01*
X95211505Y-31708597D01*
X95075965Y-31902169D01*
X95075964Y-31902171D01*
X94976098Y-32116335D01*
X94976094Y-32116344D01*
X94914938Y-32344586D01*
X94914936Y-32344596D01*
X94894341Y-32579999D01*
X94894341Y-32580000D01*
X93855659Y-32580000D01*
X93835063Y-32344592D01*
X93773903Y-32116337D01*
X93674035Y-31902171D01*
X93538495Y-31708599D01*
X93538494Y-31708597D01*
X93371402Y-31541506D01*
X93371401Y-31541505D01*
X93185405Y-31411269D01*
X93141781Y-31356692D01*
X93134588Y-31287193D01*
X93166110Y-31224839D01*
X93185405Y-31208119D01*
X93371082Y-31078105D01*
X93538105Y-30911082D01*
X93673600Y-30717578D01*
X93773429Y-30503492D01*
X93773432Y-30503486D01*
X93830636Y-30290000D01*
X92933686Y-30290000D01*
X92959493Y-30249844D01*
X93000000Y-30111889D01*
X93000000Y-29968111D01*
X92959493Y-29830156D01*
X92933686Y-29790000D01*
X93830636Y-29790000D01*
X93830635Y-29789999D01*
X93773432Y-29576513D01*
X93773429Y-29576507D01*
X93673600Y-29362422D01*
X93673599Y-29362420D01*
X93538113Y-29168926D01*
X93538108Y-29168920D01*
X93416053Y-29046865D01*
X93382568Y-28985542D01*
X93387552Y-28915850D01*
X93429424Y-28859917D01*
X93460400Y-28843002D01*
X93592331Y-28793796D01*
X93707546Y-28707546D01*
X93793796Y-28592331D01*
X93844091Y-28457483D01*
X93850500Y-28397873D01*
X93850499Y-26602128D01*
X93844091Y-26542517D01*
X93843397Y-26540657D01*
X93793797Y-26407671D01*
X93793793Y-26407664D01*
X93707547Y-26292455D01*
X93707544Y-26292452D01*
X93592335Y-26206206D01*
X93592328Y-26206202D01*
X93457482Y-26155908D01*
X93457483Y-26155908D01*
X93397883Y-26149501D01*
X93397881Y-26149500D01*
X93397873Y-26149500D01*
X93397864Y-26149500D01*
X91602129Y-26149500D01*
X91602123Y-26149501D01*
X91542516Y-26155908D01*
X91407671Y-26206202D01*
X91407664Y-26206206D01*
X91292455Y-26292452D01*
X91292452Y-26292455D01*
X91206206Y-26407664D01*
X91206202Y-26407671D01*
X91155908Y-26542517D01*
X91149501Y-26602116D01*
X91149501Y-26602123D01*
X91149500Y-26602135D01*
X91149500Y-28397870D01*
X91149501Y-28397876D01*
X91155908Y-28457483D01*
X91206202Y-28592328D01*
X91206206Y-28592335D01*
X91292452Y-28707544D01*
X91292455Y-28707547D01*
X91407664Y-28793793D01*
X91407671Y-28793797D01*
X91407674Y-28793798D01*
X91539598Y-28843002D01*
X91595531Y-28884873D01*
X91619949Y-28950337D01*
X91605098Y-29018610D01*
X91583947Y-29046865D01*
X91461886Y-29168926D01*
X91326400Y-29362420D01*
X91326399Y-29362422D01*
X91226570Y-29576507D01*
X91226567Y-29576513D01*
X91169364Y-29789999D01*
X91169364Y-29790000D01*
X92066314Y-29790000D01*
X92040507Y-29830156D01*
X92000000Y-29968111D01*
X92000000Y-30111889D01*
X92040507Y-30249844D01*
X92066314Y-30290000D01*
X91169364Y-30290000D01*
X91226567Y-30503486D01*
X91226570Y-30503492D01*
X91326399Y-30717578D01*
X91461894Y-30911082D01*
X91628917Y-31078105D01*
X91814595Y-31208119D01*
X91858219Y-31262696D01*
X91865412Y-31332195D01*
X91833890Y-31394549D01*
X91814595Y-31411269D01*
X91628594Y-31541508D01*
X91461505Y-31708597D01*
X91325965Y-31902169D01*
X91325964Y-31902171D01*
X91226098Y-32116335D01*
X91226094Y-32116344D01*
X91164938Y-32344586D01*
X91164936Y-32344596D01*
X91144341Y-32579999D01*
X91144341Y-32580000D01*
X90105659Y-32580000D01*
X90085063Y-32344592D01*
X90023903Y-32116337D01*
X89924035Y-31902171D01*
X89788495Y-31708599D01*
X89788494Y-31708597D01*
X89621402Y-31541506D01*
X89621401Y-31541505D01*
X89435405Y-31411269D01*
X89391781Y-31356692D01*
X89384588Y-31287193D01*
X89416110Y-31224839D01*
X89435405Y-31208119D01*
X89621082Y-31078105D01*
X89788105Y-30911082D01*
X89923600Y-30717578D01*
X90023429Y-30503492D01*
X90023432Y-30503486D01*
X90080636Y-30290000D01*
X89183686Y-30290000D01*
X89209493Y-30249844D01*
X89250000Y-30111889D01*
X89250000Y-29968111D01*
X89209493Y-29830156D01*
X89183686Y-29790000D01*
X90080636Y-29790000D01*
X90080635Y-29789999D01*
X90023432Y-29576513D01*
X90023429Y-29576507D01*
X89923600Y-29362422D01*
X89923599Y-29362420D01*
X89788113Y-29168926D01*
X89788108Y-29168920D01*
X89666053Y-29046865D01*
X89632568Y-28985542D01*
X89637552Y-28915850D01*
X89679424Y-28859917D01*
X89710400Y-28843002D01*
X89842331Y-28793796D01*
X89957546Y-28707546D01*
X90043796Y-28592331D01*
X90094091Y-28457483D01*
X90100500Y-28397873D01*
X90100499Y-26602128D01*
X90094091Y-26542517D01*
X90093397Y-26540657D01*
X90043797Y-26407671D01*
X90043793Y-26407664D01*
X89957547Y-26292455D01*
X89957544Y-26292452D01*
X89842335Y-26206206D01*
X89842328Y-26206202D01*
X89707482Y-26155908D01*
X89707483Y-26155908D01*
X89647883Y-26149501D01*
X89647881Y-26149500D01*
X89647873Y-26149500D01*
X89647864Y-26149500D01*
X87852129Y-26149500D01*
X87852123Y-26149501D01*
X87792516Y-26155908D01*
X87657671Y-26206202D01*
X87657664Y-26206206D01*
X87542455Y-26292452D01*
X87542452Y-26292455D01*
X87456206Y-26407664D01*
X87456202Y-26407671D01*
X87405908Y-26542517D01*
X87399501Y-26602116D01*
X87399501Y-26602123D01*
X87399500Y-26602135D01*
X87399500Y-28397870D01*
X87399501Y-28397876D01*
X87405908Y-28457483D01*
X87456202Y-28592328D01*
X87456206Y-28592335D01*
X87542452Y-28707544D01*
X87542455Y-28707547D01*
X87657664Y-28793793D01*
X87657671Y-28793797D01*
X87657674Y-28793798D01*
X87789598Y-28843002D01*
X87845531Y-28884873D01*
X87869949Y-28950337D01*
X87855098Y-29018610D01*
X87833947Y-29046865D01*
X87711886Y-29168926D01*
X87576400Y-29362420D01*
X87576399Y-29362422D01*
X87476570Y-29576507D01*
X87476567Y-29576513D01*
X87419364Y-29789999D01*
X87419364Y-29790000D01*
X88316314Y-29790000D01*
X88290507Y-29830156D01*
X88250000Y-29968111D01*
X88250000Y-30111889D01*
X88290507Y-30249844D01*
X88316314Y-30290000D01*
X87419364Y-30290000D01*
X87476567Y-30503486D01*
X87476570Y-30503492D01*
X87576399Y-30717578D01*
X87711894Y-30911082D01*
X87878917Y-31078105D01*
X88064595Y-31208119D01*
X88108219Y-31262696D01*
X88115412Y-31332195D01*
X88083890Y-31394549D01*
X88064595Y-31411269D01*
X87878594Y-31541508D01*
X87711505Y-31708597D01*
X87575965Y-31902169D01*
X87575964Y-31902171D01*
X87476098Y-32116335D01*
X87476094Y-32116344D01*
X87414938Y-32344586D01*
X87414936Y-32344596D01*
X87394341Y-32579999D01*
X87394341Y-32580000D01*
X86355659Y-32580000D01*
X86335063Y-32344592D01*
X86273903Y-32116337D01*
X86174035Y-31902171D01*
X86038495Y-31708599D01*
X86038494Y-31708597D01*
X85871402Y-31541506D01*
X85871401Y-31541505D01*
X85685405Y-31411269D01*
X85641781Y-31356692D01*
X85634588Y-31287193D01*
X85666110Y-31224839D01*
X85685405Y-31208119D01*
X85871082Y-31078105D01*
X86038105Y-30911082D01*
X86173600Y-30717578D01*
X86273429Y-30503492D01*
X86273432Y-30503486D01*
X86330636Y-30290000D01*
X85433686Y-30290000D01*
X85459493Y-30249844D01*
X85500000Y-30111889D01*
X85500000Y-29968111D01*
X85459493Y-29830156D01*
X85433686Y-29790000D01*
X86330636Y-29790000D01*
X86330635Y-29789999D01*
X86273432Y-29576513D01*
X86273429Y-29576507D01*
X86173600Y-29362422D01*
X86173599Y-29362420D01*
X86038113Y-29168926D01*
X86038108Y-29168920D01*
X85916053Y-29046865D01*
X85882568Y-28985542D01*
X85887552Y-28915850D01*
X85929424Y-28859917D01*
X85960400Y-28843002D01*
X86092331Y-28793796D01*
X86207546Y-28707546D01*
X86293796Y-28592331D01*
X86344091Y-28457483D01*
X86350500Y-28397873D01*
X86350499Y-26602128D01*
X86344091Y-26542517D01*
X86343397Y-26540657D01*
X86293797Y-26407671D01*
X86293793Y-26407664D01*
X86207547Y-26292455D01*
X86207544Y-26292452D01*
X86092335Y-26206206D01*
X86092328Y-26206202D01*
X85957482Y-26155908D01*
X85957483Y-26155908D01*
X85897883Y-26149501D01*
X85897881Y-26149500D01*
X85897873Y-26149500D01*
X85897864Y-26149500D01*
X84102129Y-26149500D01*
X84102123Y-26149501D01*
X84042516Y-26155908D01*
X83907671Y-26206202D01*
X83907664Y-26206206D01*
X83792455Y-26292452D01*
X83792452Y-26292455D01*
X83706206Y-26407664D01*
X83706202Y-26407671D01*
X83655908Y-26542517D01*
X83649501Y-26602116D01*
X83649501Y-26602123D01*
X83649500Y-26602135D01*
X83649500Y-28397870D01*
X83649501Y-28397876D01*
X83655908Y-28457483D01*
X83706202Y-28592328D01*
X83706206Y-28592335D01*
X83792452Y-28707544D01*
X83792455Y-28707547D01*
X83907664Y-28793793D01*
X83907671Y-28793797D01*
X83907674Y-28793798D01*
X84039598Y-28843002D01*
X84095531Y-28884873D01*
X84119949Y-28950337D01*
X84105098Y-29018610D01*
X84083947Y-29046865D01*
X83961886Y-29168926D01*
X83826400Y-29362420D01*
X83826399Y-29362422D01*
X83726570Y-29576507D01*
X83726567Y-29576513D01*
X83669364Y-29789999D01*
X83669364Y-29790000D01*
X84566314Y-29790000D01*
X84540507Y-29830156D01*
X84500000Y-29968111D01*
X84500000Y-30111889D01*
X84540507Y-30249844D01*
X84566314Y-30290000D01*
X83669364Y-30290000D01*
X83726567Y-30503486D01*
X83726570Y-30503492D01*
X83826399Y-30717578D01*
X83961894Y-30911082D01*
X84128917Y-31078105D01*
X84314595Y-31208119D01*
X84358219Y-31262696D01*
X84365412Y-31332195D01*
X84333890Y-31394549D01*
X84314595Y-31411269D01*
X84128594Y-31541508D01*
X83961505Y-31708597D01*
X83825965Y-31902169D01*
X83825964Y-31902171D01*
X83726098Y-32116335D01*
X83726094Y-32116344D01*
X83664938Y-32344586D01*
X83664936Y-32344596D01*
X83644341Y-32579999D01*
X83644341Y-32580000D01*
X82605659Y-32580000D01*
X82585063Y-32344592D01*
X82523903Y-32116337D01*
X82424035Y-31902171D01*
X82288495Y-31708599D01*
X82288494Y-31708597D01*
X82121402Y-31541506D01*
X82121401Y-31541505D01*
X81935405Y-31411269D01*
X81891781Y-31356692D01*
X81884588Y-31287193D01*
X81916110Y-31224839D01*
X81935405Y-31208119D01*
X82121082Y-31078105D01*
X82288105Y-30911082D01*
X82423600Y-30717578D01*
X82523429Y-30503492D01*
X82523432Y-30503486D01*
X82580636Y-30290000D01*
X81683686Y-30290000D01*
X81709493Y-30249844D01*
X81750000Y-30111889D01*
X81750000Y-29968111D01*
X81709493Y-29830156D01*
X81683686Y-29790000D01*
X82580636Y-29790000D01*
X82580635Y-29789999D01*
X82523432Y-29576513D01*
X82523429Y-29576507D01*
X82423600Y-29362422D01*
X82423599Y-29362420D01*
X82288113Y-29168926D01*
X82288108Y-29168920D01*
X82166053Y-29046865D01*
X82132568Y-28985542D01*
X82137552Y-28915850D01*
X82179424Y-28859917D01*
X82210400Y-28843002D01*
X82342331Y-28793796D01*
X82457546Y-28707546D01*
X82543796Y-28592331D01*
X82594091Y-28457483D01*
X82600500Y-28397873D01*
X82600499Y-26602128D01*
X82594091Y-26542517D01*
X82593397Y-26540657D01*
X82543797Y-26407671D01*
X82543793Y-26407664D01*
X82457547Y-26292455D01*
X82457544Y-26292452D01*
X82342335Y-26206206D01*
X82342328Y-26206202D01*
X82207482Y-26155908D01*
X82207483Y-26155908D01*
X82147883Y-26149501D01*
X82147881Y-26149500D01*
X82147873Y-26149500D01*
X82147864Y-26149500D01*
X80352129Y-26149500D01*
X80352123Y-26149501D01*
X80292516Y-26155908D01*
X80157671Y-26206202D01*
X80157664Y-26206206D01*
X80042455Y-26292452D01*
X80042452Y-26292455D01*
X79956206Y-26407664D01*
X79956202Y-26407671D01*
X79905908Y-26542517D01*
X79899501Y-26602116D01*
X79899501Y-26602123D01*
X79899500Y-26602135D01*
X79899500Y-28397870D01*
X79899501Y-28397876D01*
X79905908Y-28457483D01*
X79956202Y-28592328D01*
X79956206Y-28592335D01*
X80042452Y-28707544D01*
X80042455Y-28707547D01*
X80157664Y-28793793D01*
X80157671Y-28793797D01*
X80157674Y-28793798D01*
X80289598Y-28843002D01*
X80345531Y-28884873D01*
X80369949Y-28950337D01*
X80355098Y-29018610D01*
X80333947Y-29046865D01*
X80211886Y-29168926D01*
X80076400Y-29362420D01*
X80076399Y-29362422D01*
X79976570Y-29576507D01*
X79976567Y-29576513D01*
X79919364Y-29789999D01*
X79919364Y-29790000D01*
X80816314Y-29790000D01*
X80790507Y-29830156D01*
X80750000Y-29968111D01*
X80750000Y-30111889D01*
X80790507Y-30249844D01*
X80816314Y-30290000D01*
X79919364Y-30290000D01*
X79976567Y-30503486D01*
X79976570Y-30503492D01*
X80076399Y-30717578D01*
X80211894Y-30911082D01*
X80378917Y-31078105D01*
X80564595Y-31208119D01*
X80608219Y-31262696D01*
X80615412Y-31332195D01*
X80583890Y-31394549D01*
X80564595Y-31411269D01*
X80378594Y-31541508D01*
X80211505Y-31708597D01*
X80075965Y-31902169D01*
X80075964Y-31902171D01*
X79976098Y-32116335D01*
X79976094Y-32116344D01*
X79914938Y-32344586D01*
X79914936Y-32344596D01*
X79894341Y-32579999D01*
X79894341Y-32580000D01*
X78855659Y-32580000D01*
X78835063Y-32344592D01*
X78773903Y-32116337D01*
X78674035Y-31902171D01*
X78538495Y-31708599D01*
X78538494Y-31708597D01*
X78371402Y-31541506D01*
X78371401Y-31541505D01*
X78185405Y-31411269D01*
X78141781Y-31356692D01*
X78134588Y-31287193D01*
X78166110Y-31224839D01*
X78185405Y-31208119D01*
X78371082Y-31078105D01*
X78538105Y-30911082D01*
X78673600Y-30717578D01*
X78773429Y-30503492D01*
X78773432Y-30503486D01*
X78830636Y-30290000D01*
X77933686Y-30290000D01*
X77959493Y-30249844D01*
X78000000Y-30111889D01*
X78000000Y-29968111D01*
X77959493Y-29830156D01*
X77933686Y-29790000D01*
X78830636Y-29790000D01*
X78830635Y-29789999D01*
X78773432Y-29576513D01*
X78773429Y-29576507D01*
X78673600Y-29362422D01*
X78673599Y-29362420D01*
X78538113Y-29168926D01*
X78538108Y-29168920D01*
X78416053Y-29046865D01*
X78382568Y-28985542D01*
X78387552Y-28915850D01*
X78429424Y-28859917D01*
X78460400Y-28843002D01*
X78592331Y-28793796D01*
X78707546Y-28707546D01*
X78793796Y-28592331D01*
X78844091Y-28457483D01*
X78850500Y-28397873D01*
X78850499Y-26602128D01*
X78844091Y-26542517D01*
X78843397Y-26540657D01*
X78793797Y-26407671D01*
X78793793Y-26407664D01*
X78707547Y-26292455D01*
X78707544Y-26292452D01*
X78592335Y-26206206D01*
X78592328Y-26206202D01*
X78457482Y-26155908D01*
X78457483Y-26155908D01*
X78397883Y-26149501D01*
X78397881Y-26149500D01*
X78397873Y-26149500D01*
X78397864Y-26149500D01*
X76602129Y-26149500D01*
X76602123Y-26149501D01*
X76542516Y-26155908D01*
X76407671Y-26206202D01*
X76407664Y-26206206D01*
X76292455Y-26292452D01*
X76292452Y-26292455D01*
X76206206Y-26407664D01*
X76206202Y-26407671D01*
X76155908Y-26542517D01*
X76149501Y-26602116D01*
X76149501Y-26602123D01*
X76149500Y-26602135D01*
X76149500Y-28397870D01*
X76149501Y-28397876D01*
X76155908Y-28457483D01*
X76206202Y-28592328D01*
X76206206Y-28592335D01*
X76292452Y-28707544D01*
X76292455Y-28707547D01*
X76407664Y-28793793D01*
X76407671Y-28793797D01*
X76407674Y-28793798D01*
X76539598Y-28843002D01*
X76595531Y-28884873D01*
X76619949Y-28950337D01*
X76605098Y-29018610D01*
X76583947Y-29046865D01*
X76461886Y-29168926D01*
X76326400Y-29362420D01*
X76326399Y-29362422D01*
X76226570Y-29576507D01*
X76226567Y-29576513D01*
X76169364Y-29789999D01*
X76169364Y-29790000D01*
X77066314Y-29790000D01*
X77040507Y-29830156D01*
X77000000Y-29968111D01*
X77000000Y-30111889D01*
X77040507Y-30249844D01*
X77066314Y-30290000D01*
X76169364Y-30290000D01*
X76226567Y-30503486D01*
X76226570Y-30503492D01*
X76326399Y-30717578D01*
X76461894Y-30911082D01*
X76628917Y-31078105D01*
X76814595Y-31208119D01*
X76858219Y-31262696D01*
X76865412Y-31332195D01*
X76833890Y-31394549D01*
X76814595Y-31411269D01*
X76628594Y-31541508D01*
X76461505Y-31708597D01*
X76325965Y-31902169D01*
X76325964Y-31902171D01*
X76226098Y-32116335D01*
X76226094Y-32116344D01*
X76164938Y-32344586D01*
X76164936Y-32344596D01*
X76144341Y-32579999D01*
X76144341Y-32580000D01*
X67500500Y-32580000D01*
X67500500Y-32500000D01*
X67500500Y-32499500D01*
X67500500Y-27501278D01*
X67500526Y-27500000D01*
X69794564Y-27500000D01*
X69814289Y-27826099D01*
X69873178Y-28147452D01*
X69970366Y-28459342D01*
X69970370Y-28459354D01*
X69970373Y-28459361D01*
X70104455Y-28757279D01*
X70200315Y-28915850D01*
X70273473Y-29036868D01*
X70474954Y-29294039D01*
X70705960Y-29525045D01*
X70963131Y-29726526D01*
X70963134Y-29726528D01*
X70963137Y-29726530D01*
X71242721Y-29895545D01*
X71540639Y-30029627D01*
X71540652Y-30029631D01*
X71540657Y-30029633D01*
X71804628Y-30111889D01*
X71852547Y-30126821D01*
X72173896Y-30185710D01*
X72500000Y-30205436D01*
X72826104Y-30185710D01*
X73147453Y-30126821D01*
X73459361Y-30029627D01*
X73757279Y-29895545D01*
X74036863Y-29726530D01*
X74294036Y-29525048D01*
X74525048Y-29294036D01*
X74726530Y-29036863D01*
X74895545Y-28757279D01*
X75029627Y-28459361D01*
X75044114Y-28412872D01*
X75126821Y-28147452D01*
X75185710Y-27826104D01*
X75205436Y-27500000D01*
X75185710Y-27173896D01*
X75126821Y-26852547D01*
X75067671Y-26662726D01*
X75029633Y-26540657D01*
X75029631Y-26540652D01*
X75029627Y-26540639D01*
X74895545Y-26242721D01*
X74726530Y-25963137D01*
X74726528Y-25963134D01*
X74726526Y-25963131D01*
X74525045Y-25705960D01*
X74294039Y-25474954D01*
X74036868Y-25273473D01*
X73995349Y-25248374D01*
X73757279Y-25104455D01*
X73459361Y-24970373D01*
X73459354Y-24970370D01*
X73459342Y-24970366D01*
X73147452Y-24873178D01*
X72826099Y-24814289D01*
X72500000Y-24794564D01*
X72173900Y-24814289D01*
X71852547Y-24873178D01*
X71540657Y-24970366D01*
X71540641Y-24970372D01*
X71540639Y-24970373D01*
X71350933Y-25055752D01*
X71242725Y-25104453D01*
X71242723Y-25104454D01*
X70963131Y-25273473D01*
X70705960Y-25474954D01*
X70474954Y-25705960D01*
X70273473Y-25963131D01*
X70104454Y-26242723D01*
X70104453Y-26242725D01*
X70075322Y-26307452D01*
X70000841Y-26472943D01*
X69970372Y-26540642D01*
X69970366Y-26540657D01*
X69873178Y-26852547D01*
X69814289Y-27173900D01*
X69794564Y-27500000D01*
X67500526Y-27500000D01*
X67500553Y-27498716D01*
X67509480Y-27282880D01*
X67514238Y-27173900D01*
X67518160Y-27084059D01*
X67518573Y-27079140D01*
X67545481Y-26863272D01*
X67571884Y-26662726D01*
X67572669Y-26658114D01*
X67617184Y-26445813D01*
X67661158Y-26247458D01*
X67662255Y-26243228D01*
X67724118Y-26035437D01*
X67785324Y-25841320D01*
X67786677Y-25837479D01*
X67865305Y-25635972D01*
X67865644Y-25635130D01*
X67943494Y-25447184D01*
X67945020Y-25443797D01*
X68039921Y-25249674D01*
X68040577Y-25248374D01*
X68134494Y-25067960D01*
X68136207Y-25064891D01*
X68246779Y-24879326D01*
X68247639Y-24877931D01*
X68356966Y-24706321D01*
X68358765Y-24703656D01*
X68484268Y-24527877D01*
X68485449Y-24526283D01*
X68609328Y-24364841D01*
X68611134Y-24362602D01*
X68750700Y-24197816D01*
X68752218Y-24196093D01*
X68889716Y-24046040D01*
X68891461Y-24044217D01*
X69044217Y-23891461D01*
X69046040Y-23889716D01*
X69196093Y-23752218D01*
X69197816Y-23750700D01*
X69362602Y-23611134D01*
X69364841Y-23609328D01*
X69526283Y-23485449D01*
X69527877Y-23484268D01*
X69703656Y-23358765D01*
X69706321Y-23356966D01*
X69877931Y-23247639D01*
X69879326Y-23246779D01*
X70064900Y-23136201D01*
X70067960Y-23134494D01*
X70248374Y-23040577D01*
X70249674Y-23039921D01*
X70443797Y-22945020D01*
X70447184Y-22943494D01*
X70635130Y-22865644D01*
X70635972Y-22865305D01*
X70837479Y-22786677D01*
X70841320Y-22785324D01*
X71035437Y-22724118D01*
X71243228Y-22662255D01*
X71247458Y-22661158D01*
X71445813Y-22617184D01*
X71658114Y-22572669D01*
X71662726Y-22571884D01*
X71863272Y-22545481D01*
X72079140Y-22518573D01*
X72084059Y-22518160D01*
X72282454Y-22509497D01*
X72498720Y-22500552D01*
X72501280Y-22500500D01*
X137500000Y-22500500D01*
X137500000Y-26474811D01*
G37*
G04 #@! TD.AperFunction*
G04 #@! TA.AperFunction,Conductor*
G36*
X157499500Y-107498719D02*
G01*
X157499447Y-107501281D01*
X157490519Y-107717129D01*
X157481839Y-107915918D01*
X157481422Y-107920884D01*
X157454515Y-108136745D01*
X157428115Y-108337265D01*
X157427326Y-108341897D01*
X157382825Y-108554136D01*
X157338843Y-108752525D01*
X157337735Y-108756798D01*
X157275902Y-108964493D01*
X157214681Y-109158658D01*
X157213309Y-109162552D01*
X157134775Y-109363821D01*
X157134296Y-109365011D01*
X157056524Y-109552769D01*
X157054944Y-109556274D01*
X156960093Y-109750290D01*
X156959388Y-109751688D01*
X156865525Y-109931998D01*
X156863791Y-109935107D01*
X156753269Y-110120589D01*
X156752298Y-110122165D01*
X156643040Y-110293663D01*
X156641209Y-110296377D01*
X156515779Y-110472053D01*
X156514508Y-110473769D01*
X156390716Y-110635099D01*
X156388839Y-110637426D01*
X156249325Y-110802150D01*
X156247725Y-110803966D01*
X156110340Y-110953896D01*
X156108469Y-110955851D01*
X155955851Y-111108469D01*
X155953896Y-111110340D01*
X155803966Y-111247725D01*
X155802150Y-111249325D01*
X155637426Y-111388839D01*
X155635099Y-111390716D01*
X155473769Y-111514508D01*
X155472053Y-111515779D01*
X155296377Y-111641209D01*
X155293663Y-111643040D01*
X155122165Y-111752298D01*
X155120589Y-111753269D01*
X154935107Y-111863791D01*
X154931998Y-111865525D01*
X154751688Y-111959388D01*
X154750290Y-111960093D01*
X154556274Y-112054944D01*
X154552769Y-112056524D01*
X154365011Y-112134296D01*
X154363821Y-112134775D01*
X154162552Y-112213309D01*
X154158658Y-112214681D01*
X153964493Y-112275902D01*
X153756798Y-112337735D01*
X153752525Y-112338843D01*
X153554136Y-112382825D01*
X153341897Y-112427326D01*
X153337265Y-112428115D01*
X153136745Y-112454515D01*
X152920884Y-112481422D01*
X152915918Y-112481839D01*
X152717239Y-112490514D01*
X152507489Y-112499190D01*
X152501280Y-112499447D01*
X152498720Y-112499500D01*
X149852327Y-112499500D01*
X149785288Y-112479815D01*
X149739533Y-112427011D01*
X149729589Y-112357853D01*
X149758614Y-112294297D01*
X149812064Y-112258219D01*
X149825563Y-112253584D01*
X149848864Y-112245585D01*
X150046429Y-112138669D01*
X150052048Y-112134296D01*
X150153999Y-112054944D01*
X150223702Y-112000692D01*
X150375846Y-111835419D01*
X150498713Y-111647358D01*
X150588950Y-111441639D01*
X150644095Y-111223873D01*
X150662646Y-111000000D01*
X150644095Y-110776127D01*
X150588950Y-110558361D01*
X150498713Y-110352642D01*
X150493335Y-110344411D01*
X150375847Y-110164583D01*
X150375846Y-110164581D01*
X150223702Y-109999308D01*
X150223697Y-109999304D01*
X150223695Y-109999302D01*
X150046437Y-109861336D01*
X150046426Y-109861329D01*
X149848870Y-109754418D01*
X149848867Y-109754417D01*
X149848864Y-109754415D01*
X149848858Y-109754413D01*
X149848856Y-109754412D01*
X149636398Y-109681474D01*
X149414820Y-109644500D01*
X149190180Y-109644500D01*
X148968601Y-109681474D01*
X148756143Y-109754412D01*
X148756129Y-109754418D01*
X148558573Y-109861329D01*
X148558562Y-109861336D01*
X148381304Y-109999302D01*
X148381301Y-109999305D01*
X148229155Y-110164579D01*
X148229152Y-110164583D01*
X148106287Y-110352640D01*
X148016050Y-110558360D01*
X147960904Y-110776130D01*
X147942354Y-110999994D01*
X147942354Y-111000005D01*
X147960904Y-111223869D01*
X148016050Y-111441639D01*
X148106287Y-111647359D01*
X148131150Y-111685414D01*
X148229154Y-111835419D01*
X148381298Y-112000692D01*
X148381301Y-112000694D01*
X148381304Y-112000697D01*
X148558562Y-112138663D01*
X148558569Y-112138667D01*
X148558571Y-112138669D01*
X148756136Y-112245585D01*
X148968604Y-112318526D01*
X149083244Y-112337655D01*
X149146128Y-112368105D01*
X149182568Y-112427719D01*
X149180994Y-112497571D01*
X149141904Y-112555483D01*
X149079021Y-112582903D01*
X149047055Y-112587111D01*
X149037386Y-112590988D01*
X148972943Y-112601742D01*
X148972942Y-112601742D01*
X148674961Y-112677201D01*
X148673162Y-112677628D01*
X148629527Y-112687302D01*
X148623878Y-112690137D01*
X148571950Y-112703287D01*
X148571944Y-112703289D01*
X148239922Y-112817272D01*
X148238437Y-112817761D01*
X148222052Y-112822927D01*
X148220271Y-112824018D01*
X148180724Y-112837595D01*
X147801924Y-113003753D01*
X147801910Y-113003759D01*
X147438134Y-113200625D01*
X147091833Y-113426875D01*
X147091832Y-113426876D01*
X146765417Y-113680936D01*
X146461089Y-113961089D01*
X146180936Y-114265417D01*
X145926876Y-114591832D01*
X145926875Y-114591833D01*
X145700625Y-114938134D01*
X145503759Y-115301910D01*
X145503753Y-115301924D01*
X145337595Y-115680724D01*
X145324018Y-115720271D01*
X145323065Y-115721615D01*
X145317761Y-115738437D01*
X145317272Y-115739922D01*
X145203289Y-116071944D01*
X145203287Y-116071950D01*
X145190137Y-116123878D01*
X145187604Y-116128165D01*
X145177628Y-116173162D01*
X145177201Y-116174961D01*
X145101742Y-116472942D01*
X145101742Y-116472943D01*
X145090988Y-116537386D01*
X145087413Y-116544768D01*
X145078792Y-116610248D01*
X145078477Y-116612359D01*
X145033658Y-116880946D01*
X145033657Y-116880956D01*
X145027292Y-116957774D01*
X145023211Y-116968348D01*
X145019695Y-117048884D01*
X145019542Y-117051300D01*
X144999500Y-117293167D01*
X144999500Y-122498719D01*
X144999447Y-122501281D01*
X144990519Y-122717129D01*
X144981839Y-122915918D01*
X144981422Y-122920884D01*
X144954515Y-123136745D01*
X144928115Y-123337265D01*
X144927326Y-123341897D01*
X144882825Y-123554136D01*
X144838843Y-123752525D01*
X144837735Y-123756798D01*
X144775902Y-123964493D01*
X144714681Y-124158658D01*
X144713309Y-124162552D01*
X144634775Y-124363821D01*
X144634296Y-124365011D01*
X144556524Y-124552769D01*
X144554944Y-124556274D01*
X144460093Y-124750290D01*
X144459388Y-124751688D01*
X144365525Y-124931998D01*
X144363791Y-124935107D01*
X144253269Y-125120589D01*
X144252298Y-125122165D01*
X144143040Y-125293663D01*
X144141209Y-125296377D01*
X144015779Y-125472053D01*
X144014508Y-125473769D01*
X143890716Y-125635099D01*
X143888839Y-125637426D01*
X143749325Y-125802150D01*
X143747725Y-125803966D01*
X143610340Y-125953896D01*
X143608469Y-125955851D01*
X143455851Y-126108469D01*
X143453896Y-126110340D01*
X143303966Y-126247725D01*
X143302150Y-126249325D01*
X143137426Y-126388839D01*
X143135099Y-126390716D01*
X142973769Y-126514508D01*
X142972053Y-126515779D01*
X142796377Y-126641209D01*
X142793663Y-126643040D01*
X142622165Y-126752298D01*
X142620589Y-126753269D01*
X142435107Y-126863791D01*
X142431998Y-126865525D01*
X142251688Y-126959388D01*
X142250290Y-126960093D01*
X142056274Y-127054944D01*
X142052769Y-127056524D01*
X141865011Y-127134296D01*
X141863821Y-127134775D01*
X141662552Y-127213309D01*
X141658658Y-127214681D01*
X141464493Y-127275902D01*
X141256798Y-127337735D01*
X141252525Y-127338843D01*
X141054136Y-127382825D01*
X140841897Y-127427326D01*
X140837265Y-127428115D01*
X140636745Y-127454515D01*
X140420884Y-127481422D01*
X140415918Y-127481839D01*
X140217239Y-127490514D01*
X140007489Y-127499190D01*
X140001280Y-127499447D01*
X139998720Y-127499500D01*
X137500000Y-127499500D01*
X137500000Y-123525189D01*
X137604455Y-123757279D01*
X137723254Y-123953796D01*
X137773473Y-124036868D01*
X137974954Y-124294039D01*
X138205960Y-124525045D01*
X138463131Y-124726526D01*
X138463134Y-124726528D01*
X138463137Y-124726530D01*
X138742721Y-124895545D01*
X139040639Y-125029627D01*
X139040652Y-125029631D01*
X139040657Y-125029633D01*
X139332548Y-125120589D01*
X139352547Y-125126821D01*
X139673896Y-125185710D01*
X140000000Y-125205436D01*
X140326104Y-125185710D01*
X140647453Y-125126821D01*
X140959361Y-125029627D01*
X141257279Y-124895545D01*
X141536863Y-124726530D01*
X141794036Y-124525048D01*
X142025048Y-124294036D01*
X142226530Y-124036863D01*
X142395545Y-123757279D01*
X142529627Y-123459361D01*
X142626821Y-123147453D01*
X142685710Y-122826104D01*
X142705436Y-122500000D01*
X142685710Y-122173896D01*
X142626821Y-121852547D01*
X142606435Y-121787127D01*
X142529633Y-121540657D01*
X142529631Y-121540652D01*
X142529627Y-121540639D01*
X142395545Y-121242721D01*
X142226530Y-120963137D01*
X142226528Y-120963134D01*
X142226526Y-120963131D01*
X142025045Y-120705960D01*
X141794039Y-120474954D01*
X141536868Y-120273473D01*
X141529306Y-120268901D01*
X141257279Y-120104455D01*
X140959361Y-119970373D01*
X140959354Y-119970370D01*
X140959342Y-119970366D01*
X140647452Y-119873178D01*
X140326099Y-119814289D01*
X140000000Y-119794564D01*
X139673900Y-119814289D01*
X139352547Y-119873178D01*
X139040657Y-119970366D01*
X139040641Y-119970372D01*
X139040639Y-119970373D01*
X138867912Y-120048111D01*
X138742725Y-120104453D01*
X138742723Y-120104454D01*
X138463131Y-120273473D01*
X138205960Y-120474954D01*
X137974954Y-120705960D01*
X137773473Y-120963131D01*
X137604454Y-121242723D01*
X137604453Y-121242725D01*
X137500000Y-121474811D01*
X137500000Y-115000000D01*
X66832854Y-115000000D01*
X66799374Y-114938135D01*
X66799372Y-114938131D01*
X66794793Y-114931122D01*
X66774603Y-114864236D01*
X66793779Y-114797050D01*
X66846235Y-114750896D01*
X66881652Y-114740461D01*
X93999955Y-111000005D01*
X141942354Y-111000005D01*
X141960904Y-111223869D01*
X142016050Y-111441639D01*
X142106287Y-111647359D01*
X142131150Y-111685414D01*
X142229154Y-111835419D01*
X142381298Y-112000692D01*
X142381301Y-112000694D01*
X142381304Y-112000697D01*
X142558562Y-112138663D01*
X142558569Y-112138667D01*
X142558571Y-112138669D01*
X142756136Y-112245585D01*
X142968604Y-112318526D01*
X143190180Y-112355500D01*
X143414820Y-112355500D01*
X143636396Y-112318526D01*
X143848864Y-112245585D01*
X144046429Y-112138669D01*
X144052048Y-112134296D01*
X144153999Y-112054944D01*
X144223702Y-112000692D01*
X144375846Y-111835419D01*
X144498713Y-111647358D01*
X144588950Y-111441639D01*
X144644095Y-111223873D01*
X144662646Y-111000000D01*
X144644095Y-110776127D01*
X144588950Y-110558361D01*
X144498713Y-110352642D01*
X144493335Y-110344411D01*
X144417935Y-110229003D01*
X144397747Y-110162114D01*
X144416926Y-110094928D01*
X144469385Y-110048777D01*
X144538466Y-110038314D01*
X144566535Y-110045553D01*
X144736302Y-110111321D01*
X144945890Y-110150500D01*
X144945892Y-110150500D01*
X145159108Y-110150500D01*
X145159110Y-110150500D01*
X145368698Y-110111321D01*
X145567519Y-110034298D01*
X145748802Y-109922052D01*
X145906372Y-109778407D01*
X146034866Y-109608255D01*
X146060749Y-109556274D01*
X146129903Y-109417394D01*
X146129903Y-109417393D01*
X146129905Y-109417389D01*
X146188256Y-109212310D01*
X146207929Y-109000000D01*
X146188256Y-108787690D01*
X146129905Y-108582611D01*
X146129903Y-108582606D01*
X146129903Y-108582605D01*
X146034867Y-108391746D01*
X145906372Y-108221593D01*
X145902244Y-108217830D01*
X145748802Y-108077948D01*
X145567519Y-107965702D01*
X145567517Y-107965701D01*
X145451829Y-107920884D01*
X145368698Y-107888679D01*
X145159110Y-107849500D01*
X144945890Y-107849500D01*
X144736302Y-107888679D01*
X144736299Y-107888679D01*
X144736299Y-107888680D01*
X144537482Y-107965701D01*
X144537480Y-107965702D01*
X144356199Y-108077947D01*
X144198627Y-108221593D01*
X144070132Y-108391746D01*
X143975096Y-108582605D01*
X143975096Y-108582607D01*
X143916744Y-108787689D01*
X143897071Y-108999999D01*
X143897071Y-109000000D01*
X143916744Y-109212310D01*
X143975096Y-109417392D01*
X143975096Y-109417394D01*
X144070132Y-109608251D01*
X144072542Y-109612145D01*
X144091090Y-109679508D01*
X144070275Y-109746205D01*
X144016706Y-109791061D01*
X143947389Y-109799834D01*
X143908093Y-109786468D01*
X143848864Y-109754415D01*
X143848856Y-109754412D01*
X143636398Y-109681474D01*
X143414820Y-109644500D01*
X143190180Y-109644500D01*
X142968601Y-109681474D01*
X142756143Y-109754412D01*
X142756129Y-109754418D01*
X142558573Y-109861329D01*
X142558562Y-109861336D01*
X142381304Y-109999302D01*
X142381301Y-109999305D01*
X142229155Y-110164579D01*
X142229152Y-110164583D01*
X142106287Y-110352640D01*
X142016050Y-110558360D01*
X141960904Y-110776130D01*
X141942354Y-110999994D01*
X141942354Y-111000005D01*
X93999955Y-111000005D01*
X97489111Y-110518742D01*
X97558205Y-110529082D01*
X97598198Y-110558607D01*
X97674100Y-110642906D01*
X97674107Y-110642912D01*
X97827242Y-110754171D01*
X97827247Y-110754174D01*
X98000169Y-110831165D01*
X98000174Y-110831167D01*
X98185331Y-110870523D01*
X98185332Y-110870523D01*
X98374621Y-110870523D01*
X98374623Y-110870523D01*
X98559780Y-110831167D01*
X98732707Y-110754174D01*
X98885848Y-110642911D01*
X99012510Y-110502239D01*
X99103631Y-110344411D01*
X99154199Y-110296195D01*
X99194068Y-110283576D01*
X136251692Y-105172180D01*
X136320790Y-105182520D01*
X136373331Y-105228577D01*
X136386564Y-105256698D01*
X136422819Y-105368280D01*
X136422821Y-105368284D01*
X136517467Y-105532216D01*
X136585933Y-105608255D01*
X136644129Y-105672888D01*
X136797265Y-105784148D01*
X136797270Y-105784151D01*
X136970192Y-105861142D01*
X136970197Y-105861144D01*
X137155354Y-105900500D01*
X137155355Y-105900500D01*
X137344644Y-105900500D01*
X137344646Y-105900500D01*
X137529803Y-105861144D01*
X137702730Y-105784151D01*
X137855871Y-105672888D01*
X137982533Y-105532216D01*
X138077179Y-105368284D01*
X138135674Y-105188256D01*
X138155460Y-105000000D01*
X143897071Y-105000000D01*
X143916744Y-105212310D01*
X143975096Y-105417392D01*
X143975096Y-105417394D01*
X144070132Y-105608253D01*
X144101665Y-105650009D01*
X144198628Y-105778407D01*
X144356198Y-105922052D01*
X144537481Y-106034298D01*
X144736302Y-106111321D01*
X144945890Y-106150500D01*
X144945892Y-106150500D01*
X145159108Y-106150500D01*
X145159110Y-106150500D01*
X145368698Y-106111321D01*
X145567519Y-106034298D01*
X145748802Y-105922052D01*
X145906372Y-105778407D01*
X146034866Y-105608255D01*
X146129905Y-105417389D01*
X146188256Y-105212310D01*
X146207929Y-105000000D01*
X146188256Y-104787690D01*
X146129905Y-104582611D01*
X146129903Y-104582606D01*
X146129903Y-104582605D01*
X146034867Y-104391746D01*
X145906372Y-104221593D01*
X145815614Y-104138856D01*
X145748802Y-104077948D01*
X145567519Y-103965702D01*
X145567517Y-103965701D01*
X145468108Y-103927190D01*
X145368698Y-103888679D01*
X145159110Y-103849500D01*
X144945890Y-103849500D01*
X144736302Y-103888679D01*
X144736299Y-103888679D01*
X144736299Y-103888680D01*
X144537482Y-103965701D01*
X144537480Y-103965702D01*
X144356199Y-104077947D01*
X144198627Y-104221593D01*
X144070132Y-104391746D01*
X143975096Y-104582605D01*
X143975096Y-104582607D01*
X143916744Y-104787689D01*
X143897071Y-104999999D01*
X143897071Y-105000000D01*
X138155460Y-105000000D01*
X138135674Y-104811744D01*
X138077179Y-104631716D01*
X138048289Y-104581678D01*
X138031818Y-104513783D01*
X138054670Y-104447756D01*
X138067986Y-104432013D01*
X142370230Y-100129769D01*
X142431549Y-100096287D01*
X142501241Y-100101271D01*
X142534068Y-100119599D01*
X142558563Y-100138663D01*
X142558571Y-100138669D01*
X142756136Y-100245585D01*
X142968604Y-100318526D01*
X143190180Y-100355500D01*
X143414820Y-100355500D01*
X143636396Y-100318526D01*
X143848864Y-100245585D01*
X143908092Y-100213532D01*
X143976417Y-100198937D01*
X144041789Y-100223599D01*
X144083451Y-100279689D01*
X144088175Y-100349398D01*
X144072545Y-100387848D01*
X144070136Y-100391739D01*
X143975096Y-100582605D01*
X143975096Y-100582607D01*
X143916744Y-100787689D01*
X143897071Y-100999999D01*
X143897071Y-101000000D01*
X143916744Y-101212310D01*
X143975096Y-101417392D01*
X143975096Y-101417394D01*
X144070132Y-101608253D01*
X144173547Y-101745195D01*
X144198628Y-101778407D01*
X144356198Y-101922052D01*
X144537481Y-102034298D01*
X144736302Y-102111321D01*
X144945890Y-102150500D01*
X144945892Y-102150500D01*
X145159108Y-102150500D01*
X145159110Y-102150500D01*
X145368698Y-102111321D01*
X145567519Y-102034298D01*
X145748802Y-101922052D01*
X145906372Y-101778407D01*
X146034866Y-101608255D01*
X146129905Y-101417389D01*
X146188256Y-101212310D01*
X146207929Y-101000000D01*
X146188256Y-100787690D01*
X146129905Y-100582611D01*
X146129903Y-100582606D01*
X146129903Y-100582605D01*
X146034867Y-100391746D01*
X145906372Y-100221593D01*
X145815409Y-100138669D01*
X145748802Y-100077948D01*
X145567519Y-99965702D01*
X145567517Y-99965701D01*
X145468108Y-99927190D01*
X145368698Y-99888679D01*
X145159110Y-99849500D01*
X144945890Y-99849500D01*
X144736302Y-99888679D01*
X144736297Y-99888680D01*
X144566536Y-99954445D01*
X144496913Y-99960307D01*
X144435173Y-99927596D01*
X144400918Y-99866700D01*
X144405025Y-99796951D01*
X144417930Y-99771004D01*
X144498713Y-99647358D01*
X144588950Y-99441639D01*
X144644095Y-99223873D01*
X144662646Y-99000005D01*
X147942354Y-99000005D01*
X147960904Y-99223869D01*
X148016050Y-99441639D01*
X148106287Y-99647359D01*
X148187063Y-99770995D01*
X148229154Y-99835419D01*
X148381298Y-100000692D01*
X148381301Y-100000694D01*
X148381304Y-100000697D01*
X148558562Y-100138663D01*
X148558569Y-100138667D01*
X148558571Y-100138669D01*
X148756136Y-100245585D01*
X148968604Y-100318526D01*
X149190180Y-100355500D01*
X149414820Y-100355500D01*
X149636396Y-100318526D01*
X149848864Y-100245585D01*
X150046429Y-100138669D01*
X150223702Y-100000692D01*
X150375846Y-99835419D01*
X150498713Y-99647358D01*
X150588950Y-99441639D01*
X150644095Y-99223873D01*
X150662646Y-99000000D01*
X150644095Y-98776127D01*
X150588950Y-98558361D01*
X150498713Y-98352642D01*
X150375846Y-98164581D01*
X150223702Y-97999308D01*
X150223697Y-97999304D01*
X150223695Y-97999302D01*
X150046437Y-97861336D01*
X150046426Y-97861329D01*
X149848870Y-97754418D01*
X149848867Y-97754417D01*
X149848864Y-97754415D01*
X149848858Y-97754413D01*
X149848856Y-97754412D01*
X149636398Y-97681474D01*
X149414820Y-97644500D01*
X149190180Y-97644500D01*
X148968601Y-97681474D01*
X148756143Y-97754412D01*
X148756129Y-97754418D01*
X148558573Y-97861329D01*
X148558562Y-97861336D01*
X148381304Y-97999302D01*
X148381301Y-97999305D01*
X148229155Y-98164579D01*
X148229152Y-98164583D01*
X148106287Y-98352640D01*
X148016050Y-98558360D01*
X147960904Y-98776130D01*
X147942354Y-98999994D01*
X147942354Y-99000005D01*
X144662646Y-99000005D01*
X144662646Y-99000000D01*
X144644095Y-98776127D01*
X144588950Y-98558361D01*
X144498713Y-98352642D01*
X144414945Y-98224427D01*
X144394758Y-98157539D01*
X144413937Y-98090353D01*
X144431065Y-98068934D01*
X150000000Y-92500000D01*
X150000000Y-77500000D01*
X153644341Y-77500000D01*
X153664936Y-77735403D01*
X153664938Y-77735413D01*
X153726094Y-77963655D01*
X153726096Y-77963659D01*
X153726097Y-77963663D01*
X153778588Y-78076230D01*
X153825965Y-78177830D01*
X153825967Y-78177834D01*
X153934281Y-78332521D01*
X153961505Y-78371401D01*
X154128599Y-78538495D01*
X154183750Y-78577112D01*
X154322165Y-78674032D01*
X154322167Y-78674033D01*
X154322170Y-78674035D01*
X154536337Y-78773903D01*
X154536343Y-78773904D01*
X154536344Y-78773905D01*
X154591285Y-78788626D01*
X154764592Y-78835063D01*
X154952918Y-78851539D01*
X154999999Y-78855659D01*
X155000000Y-78855659D01*
X155000001Y-78855659D01*
X155039234Y-78852226D01*
X155235408Y-78835063D01*
X155463663Y-78773903D01*
X155677830Y-78674035D01*
X155871401Y-78538495D01*
X156038495Y-78371401D01*
X156174035Y-78177830D01*
X156273903Y-77963663D01*
X156335063Y-77735408D01*
X156355659Y-77500000D01*
X156335063Y-77264592D01*
X156273903Y-77036337D01*
X156174035Y-76822171D01*
X156146059Y-76782216D01*
X156038494Y-76628597D01*
X155871402Y-76461506D01*
X155871396Y-76461501D01*
X155685842Y-76331575D01*
X155642217Y-76276998D01*
X155635023Y-76207500D01*
X155666546Y-76145145D01*
X155685842Y-76128425D01*
X155801576Y-76047387D01*
X155871401Y-75998495D01*
X156038495Y-75831401D01*
X156174035Y-75637830D01*
X156273903Y-75423663D01*
X156335063Y-75195408D01*
X156355659Y-74960000D01*
X156335063Y-74724592D01*
X156273903Y-74496337D01*
X156174035Y-74282171D01*
X156062808Y-74123322D01*
X156038496Y-74088600D01*
X155982112Y-74032216D01*
X155916567Y-73966671D01*
X155883084Y-73905351D01*
X155888068Y-73835659D01*
X155929939Y-73779725D01*
X155960915Y-73762810D01*
X156092331Y-73713796D01*
X156207546Y-73627546D01*
X156293796Y-73512331D01*
X156344091Y-73377483D01*
X156350500Y-73317873D01*
X156350499Y-71522128D01*
X156344091Y-71462517D01*
X156293796Y-71327669D01*
X156293795Y-71327668D01*
X156293793Y-71327664D01*
X156207547Y-71212455D01*
X156207544Y-71212452D01*
X156092335Y-71126206D01*
X156092328Y-71126202D01*
X155957482Y-71075908D01*
X155957483Y-71075908D01*
X155897883Y-71069501D01*
X155897881Y-71069500D01*
X155897873Y-71069500D01*
X155897864Y-71069500D01*
X154102129Y-71069500D01*
X154102123Y-71069501D01*
X154042516Y-71075908D01*
X153907671Y-71126202D01*
X153907664Y-71126206D01*
X153792455Y-71212452D01*
X153792452Y-71212455D01*
X153706206Y-71327664D01*
X153706202Y-71327671D01*
X153655908Y-71462517D01*
X153649501Y-71522116D01*
X153649501Y-71522123D01*
X153649500Y-71522135D01*
X153649500Y-73317870D01*
X153649501Y-73317876D01*
X153655908Y-73377483D01*
X153706202Y-73512328D01*
X153706206Y-73512335D01*
X153792452Y-73627544D01*
X153792455Y-73627547D01*
X153907664Y-73713793D01*
X153907671Y-73713797D01*
X154039081Y-73762810D01*
X154095015Y-73804681D01*
X154119432Y-73870145D01*
X154104580Y-73938418D01*
X154083430Y-73966673D01*
X153961503Y-74088600D01*
X153825965Y-74282169D01*
X153825964Y-74282171D01*
X153726098Y-74496335D01*
X153726094Y-74496344D01*
X153664938Y-74724586D01*
X153664936Y-74724596D01*
X153644341Y-74959999D01*
X153644341Y-74960000D01*
X153664936Y-75195403D01*
X153664938Y-75195413D01*
X153726094Y-75423655D01*
X153726096Y-75423659D01*
X153726097Y-75423663D01*
X153745769Y-75465849D01*
X153825965Y-75637830D01*
X153825967Y-75637834D01*
X153961501Y-75831395D01*
X153961506Y-75831402D01*
X154128597Y-75998493D01*
X154128603Y-75998498D01*
X154314158Y-76128425D01*
X154357783Y-76183002D01*
X154364977Y-76252500D01*
X154333454Y-76314855D01*
X154314158Y-76331575D01*
X154128597Y-76461505D01*
X153961505Y-76628597D01*
X153825965Y-76822169D01*
X153825964Y-76822171D01*
X153726098Y-77036335D01*
X153726094Y-77036344D01*
X153664938Y-77264586D01*
X153664936Y-77264596D01*
X153644341Y-77499999D01*
X153644341Y-77500000D01*
X150000000Y-77500000D01*
X150000000Y-63500000D01*
X150594540Y-63500000D01*
X150614326Y-63688256D01*
X150614327Y-63688259D01*
X150672818Y-63868277D01*
X150672821Y-63868284D01*
X150767467Y-64032216D01*
X150771178Y-64036337D01*
X150894129Y-64172888D01*
X151047265Y-64284148D01*
X151047270Y-64284151D01*
X151220192Y-64361142D01*
X151220197Y-64361144D01*
X151405354Y-64400500D01*
X151405355Y-64400500D01*
X151594644Y-64400500D01*
X151594646Y-64400500D01*
X151779803Y-64361144D01*
X151952730Y-64284151D01*
X152105871Y-64172888D01*
X152232533Y-64032216D01*
X152327179Y-63868284D01*
X152385674Y-63688256D01*
X152405460Y-63500000D01*
X152385674Y-63311744D01*
X152327179Y-63131716D01*
X152232533Y-62967784D01*
X152105871Y-62827112D01*
X152105870Y-62827111D01*
X151952734Y-62715851D01*
X151952729Y-62715848D01*
X151779807Y-62638857D01*
X151779802Y-62638855D01*
X151634001Y-62607865D01*
X151594646Y-62599500D01*
X151405354Y-62599500D01*
X151372897Y-62606398D01*
X151220197Y-62638855D01*
X151220192Y-62638857D01*
X151047270Y-62715848D01*
X151047265Y-62715851D01*
X150894129Y-62827111D01*
X150767466Y-62967785D01*
X150672821Y-63131715D01*
X150672818Y-63131722D01*
X150614327Y-63311740D01*
X150614326Y-63311744D01*
X150594540Y-63500000D01*
X150000000Y-63500000D01*
X150000000Y-57500000D01*
X157499500Y-57500000D01*
X157499500Y-107498719D01*
G37*
G04 #@! TD.AperFunction*
G04 #@! TA.AperFunction,Conductor*
G36*
X145019542Y-32948699D02*
G01*
X145019695Y-32951115D01*
X145023072Y-33028460D01*
X145027292Y-33042225D01*
X145033657Y-33119043D01*
X145033658Y-33119049D01*
X145078478Y-33387640D01*
X145078793Y-33389752D01*
X145087112Y-33452951D01*
X145090988Y-33462613D01*
X145101742Y-33527056D01*
X145101742Y-33527057D01*
X145177203Y-33825045D01*
X145177630Y-33826845D01*
X145187302Y-33870475D01*
X145190136Y-33876118D01*
X145203286Y-33928044D01*
X145203288Y-33928051D01*
X145203290Y-33928057D01*
X145317289Y-34260123D01*
X145317778Y-34261610D01*
X145322931Y-34277953D01*
X145324019Y-34279729D01*
X145337598Y-34319282D01*
X145503753Y-34698075D01*
X145503759Y-34698089D01*
X145700625Y-35061865D01*
X145926875Y-35408166D01*
X145926876Y-35408167D01*
X146180936Y-35734582D01*
X146461089Y-36038910D01*
X146741242Y-36296809D01*
X146765418Y-36319064D01*
X147091841Y-36573130D01*
X147263705Y-36685414D01*
X147438134Y-36799374D01*
X147801910Y-36996240D01*
X147801913Y-36996241D01*
X147801920Y-36996245D01*
X148180724Y-37162404D01*
X148220268Y-37175979D01*
X148221610Y-37176930D01*
X148238372Y-37182215D01*
X148239808Y-37182687D01*
X148571956Y-37296714D01*
X148623876Y-37309862D01*
X148628159Y-37312392D01*
X148673112Y-37322359D01*
X148674892Y-37322781D01*
X148972943Y-37398258D01*
X149037381Y-37409010D01*
X149044762Y-37412584D01*
X149110208Y-37421200D01*
X149112281Y-37421509D01*
X149380946Y-37466341D01*
X149457764Y-37472706D01*
X149468337Y-37476786D01*
X149548848Y-37480301D01*
X149551256Y-37480453D01*
X149793178Y-37500500D01*
X149999901Y-37500500D01*
X157375500Y-37500500D01*
X157442539Y-37520185D01*
X157488294Y-37572989D01*
X157499500Y-37624500D01*
X157499500Y-57500000D01*
X150000000Y-57500000D01*
X147500000Y-55000000D01*
X145000000Y-52500000D01*
X145000000Y-43900000D01*
X148994696Y-43900000D01*
X149013898Y-44266405D01*
X149071294Y-44628788D01*
X149071294Y-44628790D01*
X149166260Y-44983206D01*
X149297746Y-45325739D01*
X149464320Y-45652656D01*
X149664147Y-45960364D01*
X149664149Y-45960366D01*
X149895051Y-46245506D01*
X150154494Y-46504949D01*
X150154498Y-46504952D01*
X150439635Y-46735852D01*
X150747343Y-46935679D01*
X150747348Y-46935682D01*
X151074264Y-47102255D01*
X151416801Y-47233742D01*
X151771206Y-47328705D01*
X151927926Y-47353527D01*
X151991061Y-47383456D01*
X152027992Y-47442768D01*
X152026994Y-47512630D01*
X151988384Y-47570863D01*
X151924421Y-47598977D01*
X151908528Y-47600000D01*
X150928563Y-47600000D01*
X150714637Y-47615300D01*
X150435104Y-47676109D01*
X150167041Y-47776091D01*
X149915961Y-47913191D01*
X149915960Y-47913192D01*
X149686934Y-48084639D01*
X149686922Y-48084649D01*
X149484649Y-48286922D01*
X149484639Y-48286934D01*
X149313192Y-48515960D01*
X149313191Y-48515961D01*
X149176091Y-48767041D01*
X149076109Y-49035104D01*
X149015300Y-49314637D01*
X149000000Y-49528563D01*
X149000000Y-50850000D01*
X150260385Y-50850000D01*
X150256289Y-50874281D01*
X150246223Y-51175352D01*
X150263793Y-51350000D01*
X149000000Y-51350000D01*
X149000000Y-52671436D01*
X149015300Y-52885362D01*
X149076109Y-53164895D01*
X149176091Y-53432958D01*
X149313191Y-53684038D01*
X149313192Y-53684039D01*
X149484639Y-53913065D01*
X149484649Y-53913077D01*
X149686922Y-54115350D01*
X149686934Y-54115360D01*
X149915960Y-54286807D01*
X149915961Y-54286808D01*
X150167042Y-54423908D01*
X150167041Y-54423908D01*
X150435104Y-54523890D01*
X150714637Y-54584699D01*
X150928563Y-54599999D01*
X150928566Y-54600000D01*
X152250000Y-54600000D01*
X152250000Y-53336634D01*
X152349380Y-53350000D01*
X152575228Y-53350000D01*
X152750000Y-53338300D01*
X152750000Y-54600000D01*
X154071434Y-54600000D01*
X154071436Y-54599999D01*
X154285362Y-54584699D01*
X154564895Y-54523890D01*
X154832958Y-54423908D01*
X155084038Y-54286808D01*
X155084039Y-54286807D01*
X155313065Y-54115360D01*
X155313077Y-54115350D01*
X155515350Y-53913077D01*
X155515360Y-53913065D01*
X155686807Y-53684039D01*
X155686808Y-53684038D01*
X155823908Y-53432958D01*
X155923890Y-53164895D01*
X155984699Y-52885362D01*
X155999999Y-52671436D01*
X156000000Y-52671434D01*
X156000000Y-51350000D01*
X154739615Y-51350000D01*
X154743711Y-51325719D01*
X154753777Y-51024648D01*
X154736207Y-50850000D01*
X156000000Y-50850000D01*
X156000000Y-49528565D01*
X155999999Y-49528563D01*
X155984699Y-49314637D01*
X155923890Y-49035104D01*
X155823908Y-48767041D01*
X155686808Y-48515961D01*
X155686807Y-48515960D01*
X155515360Y-48286934D01*
X155515350Y-48286922D01*
X155313077Y-48084649D01*
X155313065Y-48084639D01*
X155084039Y-47913192D01*
X155084038Y-47913191D01*
X154832957Y-47776091D01*
X154832958Y-47776091D01*
X154564895Y-47676109D01*
X154285362Y-47615300D01*
X154071436Y-47600000D01*
X153091472Y-47600000D01*
X153024433Y-47580315D01*
X152978678Y-47527511D01*
X152968734Y-47458353D01*
X152997759Y-47394797D01*
X153056537Y-47357023D01*
X153072074Y-47353527D01*
X153228794Y-47328705D01*
X153583199Y-47233742D01*
X153925736Y-47102255D01*
X154252652Y-46935682D01*
X154560366Y-46735851D01*
X154845506Y-46504949D01*
X155104949Y-46245506D01*
X155335851Y-45960366D01*
X155535682Y-45652652D01*
X155702255Y-45325736D01*
X155833742Y-44983199D01*
X155928705Y-44628794D01*
X155986102Y-44266404D01*
X156005304Y-43900000D01*
X155986102Y-43533596D01*
X155928705Y-43171206D01*
X155833742Y-42816801D01*
X155702255Y-42474264D01*
X155535682Y-42147348D01*
X155335851Y-41839634D01*
X155104949Y-41554494D01*
X154845506Y-41295051D01*
X154560366Y-41064149D01*
X154560364Y-41064147D01*
X154252656Y-40864320D01*
X153925739Y-40697746D01*
X153583206Y-40566260D01*
X153583199Y-40566258D01*
X153228794Y-40471295D01*
X153228790Y-40471294D01*
X153228789Y-40471294D01*
X152866405Y-40413898D01*
X152500001Y-40394696D01*
X152499999Y-40394696D01*
X152133594Y-40413898D01*
X151771211Y-40471294D01*
X151771209Y-40471294D01*
X151416793Y-40566260D01*
X151074260Y-40697746D01*
X150747343Y-40864320D01*
X150439635Y-41064147D01*
X150154498Y-41295047D01*
X150154490Y-41295054D01*
X149895054Y-41554490D01*
X149895047Y-41554498D01*
X149664147Y-41839635D01*
X149464320Y-42147343D01*
X149297746Y-42474260D01*
X149166260Y-42816793D01*
X149071294Y-43171209D01*
X149071294Y-43171211D01*
X149013898Y-43533594D01*
X148994696Y-43899999D01*
X148994696Y-43900000D01*
X145000000Y-43900000D01*
X145000000Y-32712866D01*
X145019542Y-32948699D01*
G37*
G04 #@! TD.AperFunction*
G04 #@! TA.AperFunction,Conductor*
G36*
X137500000Y-121474811D02*
G01*
X137470372Y-121540642D01*
X137470366Y-121540657D01*
X137373178Y-121852547D01*
X137314289Y-122173900D01*
X137294564Y-122500000D01*
X137314289Y-122826099D01*
X137373178Y-123147452D01*
X137470366Y-123459342D01*
X137470370Y-123459354D01*
X137470373Y-123459361D01*
X137500000Y-123525189D01*
X137500000Y-127499500D01*
X72501280Y-127499500D01*
X72498719Y-127499447D01*
X72491843Y-127499162D01*
X72282759Y-127490514D01*
X72084080Y-127481839D01*
X72079114Y-127481422D01*
X71863253Y-127454515D01*
X71662733Y-127428115D01*
X71658101Y-127427326D01*
X71445862Y-127382825D01*
X71247473Y-127338843D01*
X71243200Y-127337735D01*
X71035505Y-127275902D01*
X70841340Y-127214681D01*
X70837446Y-127213309D01*
X70706985Y-127162404D01*
X70636142Y-127134760D01*
X70634987Y-127134296D01*
X70447229Y-127056524D01*
X70443744Y-127054953D01*
X70376932Y-127022291D01*
X70249708Y-126960093D01*
X70248310Y-126959388D01*
X70068000Y-126865525D01*
X70064891Y-126863791D01*
X69879409Y-126753269D01*
X69877833Y-126752298D01*
X69706335Y-126643040D01*
X69703621Y-126641209D01*
X69527945Y-126515779D01*
X69526229Y-126514508D01*
X69364899Y-126390716D01*
X69362572Y-126388839D01*
X69197848Y-126249325D01*
X69196032Y-126247725D01*
X69046089Y-126110328D01*
X69044170Y-126108491D01*
X68891506Y-125955827D01*
X68889673Y-125953912D01*
X68752264Y-125803956D01*
X68750673Y-125802150D01*
X68611159Y-125637426D01*
X68609297Y-125635117D01*
X68485490Y-125473769D01*
X68484219Y-125472053D01*
X68358789Y-125296377D01*
X68356958Y-125293663D01*
X68288183Y-125185710D01*
X68247676Y-125122127D01*
X68246729Y-125120589D01*
X68136207Y-124935107D01*
X68134473Y-124931998D01*
X68115497Y-124895546D01*
X68040609Y-124751687D01*
X68039905Y-124750290D01*
X68020098Y-124709776D01*
X67945032Y-124556226D01*
X67943483Y-124552790D01*
X67865672Y-124364938D01*
X67865279Y-124363961D01*
X67786684Y-124162539D01*
X67785317Y-124158658D01*
X67724107Y-123964528D01*
X67662259Y-123756784D01*
X67661155Y-123752525D01*
X67618001Y-123557870D01*
X67617193Y-123554229D01*
X67572671Y-123341894D01*
X67571883Y-123337265D01*
X67571545Y-123334704D01*
X67545492Y-123136814D01*
X67518574Y-122920863D01*
X67518160Y-122915936D01*
X67509494Y-122717466D01*
X67500552Y-122501280D01*
X67500526Y-122500000D01*
X69794564Y-122500000D01*
X69814289Y-122826099D01*
X69873178Y-123147452D01*
X69970366Y-123459342D01*
X69970370Y-123459354D01*
X69970373Y-123459361D01*
X70104455Y-123757279D01*
X70223252Y-123953793D01*
X70273473Y-124036868D01*
X70474954Y-124294039D01*
X70705960Y-124525045D01*
X70963131Y-124726526D01*
X70963134Y-124726528D01*
X70963137Y-124726530D01*
X71242721Y-124895545D01*
X71540639Y-125029627D01*
X71540652Y-125029631D01*
X71540657Y-125029633D01*
X71832548Y-125120589D01*
X71852547Y-125126821D01*
X72173896Y-125185710D01*
X72500000Y-125205436D01*
X72826104Y-125185710D01*
X73147453Y-125126821D01*
X73459361Y-125029627D01*
X73757279Y-124895545D01*
X74036863Y-124726530D01*
X74294036Y-124525048D01*
X74525048Y-124294036D01*
X74726530Y-124036863D01*
X74895545Y-123757279D01*
X75029627Y-123459361D01*
X75126821Y-123147453D01*
X75185710Y-122826104D01*
X75205436Y-122500000D01*
X75185710Y-122173896D01*
X75126821Y-121852547D01*
X75098646Y-121762129D01*
X75029633Y-121540657D01*
X75029631Y-121540652D01*
X75029627Y-121540639D01*
X74895545Y-121242721D01*
X74726530Y-120963137D01*
X74726528Y-120963134D01*
X74726526Y-120963131D01*
X74525045Y-120705960D01*
X74294039Y-120474954D01*
X74036868Y-120273473D01*
X74029306Y-120268901D01*
X73757279Y-120104455D01*
X73459361Y-119970373D01*
X73459354Y-119970370D01*
X73459342Y-119970366D01*
X73147452Y-119873178D01*
X72826099Y-119814289D01*
X72500000Y-119794564D01*
X72173900Y-119814289D01*
X71852547Y-119873178D01*
X71540657Y-119970366D01*
X71540641Y-119970372D01*
X71540639Y-119970373D01*
X71367912Y-120048111D01*
X71242725Y-120104453D01*
X71242723Y-120104454D01*
X70963131Y-120273473D01*
X70705960Y-120474954D01*
X70474954Y-120705960D01*
X70273473Y-120963131D01*
X70104454Y-121242723D01*
X70104453Y-121242725D01*
X70055752Y-121350933D01*
X70010062Y-121452455D01*
X69970372Y-121540642D01*
X69970366Y-121540657D01*
X69873178Y-121852547D01*
X69814289Y-122173900D01*
X69794564Y-122500000D01*
X67500526Y-122500000D01*
X67500500Y-122498719D01*
X67500500Y-117580000D01*
X76144341Y-117580000D01*
X76164936Y-117815403D01*
X76164938Y-117815413D01*
X76226094Y-118043655D01*
X76226096Y-118043659D01*
X76226097Y-118043663D01*
X76325965Y-118257829D01*
X76325965Y-118257830D01*
X76325967Y-118257834D01*
X76461501Y-118451395D01*
X76461506Y-118451402D01*
X76628597Y-118618493D01*
X76628603Y-118618498D01*
X76814594Y-118748730D01*
X76858219Y-118803307D01*
X76865413Y-118872805D01*
X76833890Y-118935160D01*
X76814595Y-118951880D01*
X76628922Y-119081890D01*
X76628920Y-119081891D01*
X76461891Y-119248920D01*
X76461886Y-119248926D01*
X76326400Y-119442420D01*
X76326399Y-119442422D01*
X76226570Y-119656507D01*
X76226567Y-119656513D01*
X76169364Y-119869999D01*
X76169364Y-119870000D01*
X77066314Y-119870000D01*
X77040507Y-119910156D01*
X77000000Y-120048111D01*
X77000000Y-120191889D01*
X77040507Y-120329844D01*
X77066314Y-120370000D01*
X76169364Y-120370000D01*
X76226567Y-120583486D01*
X76226570Y-120583492D01*
X76326399Y-120797578D01*
X76461894Y-120991082D01*
X76583946Y-121113134D01*
X76617431Y-121174457D01*
X76612447Y-121244149D01*
X76570575Y-121300082D01*
X76539598Y-121316997D01*
X76407671Y-121366202D01*
X76407664Y-121366206D01*
X76292455Y-121452452D01*
X76292452Y-121452455D01*
X76206206Y-121567664D01*
X76206202Y-121567671D01*
X76155908Y-121702517D01*
X76149501Y-121762116D01*
X76149501Y-121762123D01*
X76149500Y-121762135D01*
X76149500Y-123557870D01*
X76149501Y-123557876D01*
X76155908Y-123617483D01*
X76206202Y-123752328D01*
X76206206Y-123752335D01*
X76292452Y-123867544D01*
X76292455Y-123867547D01*
X76407664Y-123953793D01*
X76407671Y-123953797D01*
X76542517Y-124004091D01*
X76542516Y-124004091D01*
X76549444Y-124004835D01*
X76602127Y-124010500D01*
X78397872Y-124010499D01*
X78457483Y-124004091D01*
X78592331Y-123953796D01*
X78707546Y-123867546D01*
X78793796Y-123752331D01*
X78844091Y-123617483D01*
X78850500Y-123557873D01*
X78850499Y-121762128D01*
X78844091Y-121702517D01*
X78803120Y-121592669D01*
X78793797Y-121567671D01*
X78793793Y-121567664D01*
X78707547Y-121452455D01*
X78707544Y-121452452D01*
X78592335Y-121366206D01*
X78592328Y-121366202D01*
X78460401Y-121316997D01*
X78404467Y-121275126D01*
X78380050Y-121209662D01*
X78394902Y-121141389D01*
X78416053Y-121113133D01*
X78538108Y-120991078D01*
X78673600Y-120797578D01*
X78773429Y-120583492D01*
X78773432Y-120583486D01*
X78830636Y-120370000D01*
X77933686Y-120370000D01*
X77959493Y-120329844D01*
X78000000Y-120191889D01*
X78000000Y-120048111D01*
X77959493Y-119910156D01*
X77933686Y-119870000D01*
X78830636Y-119870000D01*
X78830635Y-119869999D01*
X78773432Y-119656513D01*
X78773429Y-119656507D01*
X78673600Y-119442422D01*
X78673599Y-119442420D01*
X78538113Y-119248926D01*
X78538108Y-119248920D01*
X78371078Y-119081890D01*
X78185405Y-118951879D01*
X78141780Y-118897302D01*
X78134588Y-118827804D01*
X78166110Y-118765449D01*
X78185406Y-118748730D01*
X78371401Y-118618495D01*
X78538495Y-118451401D01*
X78674035Y-118257830D01*
X78773903Y-118043663D01*
X78835063Y-117815408D01*
X78855659Y-117580000D01*
X79894341Y-117580000D01*
X79914936Y-117815403D01*
X79914938Y-117815413D01*
X79976094Y-118043655D01*
X79976096Y-118043659D01*
X79976097Y-118043663D01*
X80075964Y-118257830D01*
X80075965Y-118257830D01*
X80075967Y-118257834D01*
X80211501Y-118451395D01*
X80211506Y-118451402D01*
X80378597Y-118618493D01*
X80378603Y-118618498D01*
X80564594Y-118748730D01*
X80608219Y-118803307D01*
X80615413Y-118872805D01*
X80583890Y-118935160D01*
X80564595Y-118951880D01*
X80378922Y-119081890D01*
X80378920Y-119081891D01*
X80211891Y-119248920D01*
X80211886Y-119248926D01*
X80076400Y-119442420D01*
X80076399Y-119442422D01*
X79976570Y-119656507D01*
X79976567Y-119656513D01*
X79919364Y-119869999D01*
X79919364Y-119870000D01*
X80816314Y-119870000D01*
X80790507Y-119910156D01*
X80750000Y-120048111D01*
X80750000Y-120191889D01*
X80790507Y-120329844D01*
X80816314Y-120370000D01*
X79919364Y-120370000D01*
X79976567Y-120583486D01*
X79976570Y-120583492D01*
X80076399Y-120797578D01*
X80211894Y-120991082D01*
X80333946Y-121113134D01*
X80367431Y-121174457D01*
X80362447Y-121244149D01*
X80320575Y-121300082D01*
X80289598Y-121316997D01*
X80157671Y-121366202D01*
X80157664Y-121366206D01*
X80042455Y-121452452D01*
X80042452Y-121452455D01*
X79956206Y-121567664D01*
X79956202Y-121567671D01*
X79905908Y-121702517D01*
X79899501Y-121762116D01*
X79899501Y-121762123D01*
X79899500Y-121762135D01*
X79899500Y-123557870D01*
X79899501Y-123557876D01*
X79905908Y-123617483D01*
X79956202Y-123752328D01*
X79956206Y-123752335D01*
X80042452Y-123867544D01*
X80042455Y-123867547D01*
X80157664Y-123953793D01*
X80157671Y-123953797D01*
X80292517Y-124004091D01*
X80292516Y-124004091D01*
X80299444Y-124004835D01*
X80352127Y-124010500D01*
X82147872Y-124010499D01*
X82207483Y-124004091D01*
X82342331Y-123953796D01*
X82457546Y-123867546D01*
X82543796Y-123752331D01*
X82594091Y-123617483D01*
X82600500Y-123557873D01*
X82600499Y-121762128D01*
X82594091Y-121702517D01*
X82553120Y-121592669D01*
X82543797Y-121567671D01*
X82543793Y-121567664D01*
X82457547Y-121452455D01*
X82457544Y-121452452D01*
X82342335Y-121366206D01*
X82342328Y-121366202D01*
X82210401Y-121316997D01*
X82154467Y-121275126D01*
X82130050Y-121209662D01*
X82144902Y-121141389D01*
X82166053Y-121113133D01*
X82288108Y-120991078D01*
X82423600Y-120797578D01*
X82523429Y-120583492D01*
X82523432Y-120583486D01*
X82580636Y-120370000D01*
X81683686Y-120370000D01*
X81709493Y-120329844D01*
X81750000Y-120191889D01*
X81750000Y-120048111D01*
X81709493Y-119910156D01*
X81683686Y-119870000D01*
X82580636Y-119870000D01*
X82580635Y-119869999D01*
X82523432Y-119656513D01*
X82523429Y-119656507D01*
X82423600Y-119442422D01*
X82423599Y-119442420D01*
X82288113Y-119248926D01*
X82288108Y-119248920D01*
X82121078Y-119081890D01*
X81935405Y-118951879D01*
X81891780Y-118897302D01*
X81884588Y-118827804D01*
X81916110Y-118765449D01*
X81935406Y-118748730D01*
X82121401Y-118618495D01*
X82288495Y-118451401D01*
X82424035Y-118257830D01*
X82523903Y-118043663D01*
X82585063Y-117815408D01*
X82605659Y-117580000D01*
X83644341Y-117580000D01*
X83664936Y-117815403D01*
X83664938Y-117815413D01*
X83726094Y-118043655D01*
X83726096Y-118043659D01*
X83726097Y-118043663D01*
X83825964Y-118257830D01*
X83825965Y-118257830D01*
X83825967Y-118257834D01*
X83961501Y-118451395D01*
X83961506Y-118451402D01*
X84128597Y-118618493D01*
X84128603Y-118618498D01*
X84314594Y-118748730D01*
X84358219Y-118803307D01*
X84365413Y-118872805D01*
X84333890Y-118935160D01*
X84314595Y-118951880D01*
X84128922Y-119081890D01*
X84128920Y-119081891D01*
X83961891Y-119248920D01*
X83961886Y-119248926D01*
X83826400Y-119442420D01*
X83826399Y-119442422D01*
X83726570Y-119656507D01*
X83726567Y-119656513D01*
X83669364Y-119869999D01*
X83669364Y-119870000D01*
X84566314Y-119870000D01*
X84540507Y-119910156D01*
X84500000Y-120048111D01*
X84500000Y-120191889D01*
X84540507Y-120329844D01*
X84566314Y-120370000D01*
X83669364Y-120370000D01*
X83726567Y-120583486D01*
X83726570Y-120583492D01*
X83826399Y-120797578D01*
X83961894Y-120991082D01*
X84083946Y-121113134D01*
X84117431Y-121174457D01*
X84112447Y-121244149D01*
X84070575Y-121300082D01*
X84039598Y-121316997D01*
X83907671Y-121366202D01*
X83907664Y-121366206D01*
X83792455Y-121452452D01*
X83792452Y-121452455D01*
X83706206Y-121567664D01*
X83706202Y-121567671D01*
X83655908Y-121702517D01*
X83649501Y-121762116D01*
X83649501Y-121762123D01*
X83649500Y-121762135D01*
X83649500Y-123557870D01*
X83649501Y-123557876D01*
X83655908Y-123617483D01*
X83706202Y-123752328D01*
X83706206Y-123752335D01*
X83792452Y-123867544D01*
X83792455Y-123867547D01*
X83907664Y-123953793D01*
X83907671Y-123953797D01*
X84042517Y-124004091D01*
X84042516Y-124004091D01*
X84049444Y-124004835D01*
X84102127Y-124010500D01*
X85897872Y-124010499D01*
X85957483Y-124004091D01*
X86092331Y-123953796D01*
X86207546Y-123867546D01*
X86293796Y-123752331D01*
X86344091Y-123617483D01*
X86350500Y-123557873D01*
X86350499Y-121762128D01*
X86344091Y-121702517D01*
X86303120Y-121592669D01*
X86293797Y-121567671D01*
X86293793Y-121567664D01*
X86207547Y-121452455D01*
X86207544Y-121452452D01*
X86092335Y-121366206D01*
X86092328Y-121366202D01*
X85960401Y-121316997D01*
X85904467Y-121275126D01*
X85880050Y-121209662D01*
X85894902Y-121141389D01*
X85916053Y-121113133D01*
X86038108Y-120991078D01*
X86173600Y-120797578D01*
X86273429Y-120583492D01*
X86273432Y-120583486D01*
X86330636Y-120370000D01*
X85433686Y-120370000D01*
X85459493Y-120329844D01*
X85500000Y-120191889D01*
X85500000Y-120048111D01*
X85459493Y-119910156D01*
X85433686Y-119870000D01*
X86330636Y-119870000D01*
X86330635Y-119869999D01*
X86273432Y-119656513D01*
X86273429Y-119656507D01*
X86173600Y-119442422D01*
X86173599Y-119442420D01*
X86038113Y-119248926D01*
X86038108Y-119248920D01*
X85871078Y-119081890D01*
X85685405Y-118951879D01*
X85641780Y-118897302D01*
X85634588Y-118827804D01*
X85666110Y-118765449D01*
X85685406Y-118748730D01*
X85871401Y-118618495D01*
X86038495Y-118451401D01*
X86174035Y-118257830D01*
X86273903Y-118043663D01*
X86335063Y-117815408D01*
X86355659Y-117580000D01*
X87394341Y-117580000D01*
X87414936Y-117815403D01*
X87414938Y-117815413D01*
X87476094Y-118043655D01*
X87476096Y-118043659D01*
X87476097Y-118043663D01*
X87575965Y-118257830D01*
X87575967Y-118257834D01*
X87711501Y-118451395D01*
X87711506Y-118451402D01*
X87878597Y-118618493D01*
X87878603Y-118618498D01*
X88064594Y-118748730D01*
X88108219Y-118803307D01*
X88115413Y-118872805D01*
X88083890Y-118935160D01*
X88064595Y-118951880D01*
X87878922Y-119081890D01*
X87878920Y-119081891D01*
X87711891Y-119248920D01*
X87711886Y-119248926D01*
X87576400Y-119442420D01*
X87576399Y-119442422D01*
X87476570Y-119656507D01*
X87476567Y-119656513D01*
X87419364Y-119869999D01*
X87419364Y-119870000D01*
X88316314Y-119870000D01*
X88290507Y-119910156D01*
X88250000Y-120048111D01*
X88250000Y-120191889D01*
X88290507Y-120329844D01*
X88316314Y-120370000D01*
X87419364Y-120370000D01*
X87476567Y-120583486D01*
X87476570Y-120583492D01*
X87576399Y-120797578D01*
X87711894Y-120991082D01*
X87833946Y-121113134D01*
X87867431Y-121174457D01*
X87862447Y-121244149D01*
X87820575Y-121300082D01*
X87789598Y-121316997D01*
X87657671Y-121366202D01*
X87657664Y-121366206D01*
X87542455Y-121452452D01*
X87542452Y-121452455D01*
X87456206Y-121567664D01*
X87456202Y-121567671D01*
X87405908Y-121702517D01*
X87399501Y-121762116D01*
X87399501Y-121762123D01*
X87399500Y-121762135D01*
X87399500Y-123557870D01*
X87399501Y-123557876D01*
X87405908Y-123617483D01*
X87456202Y-123752328D01*
X87456206Y-123752335D01*
X87542452Y-123867544D01*
X87542455Y-123867547D01*
X87657664Y-123953793D01*
X87657671Y-123953797D01*
X87792517Y-124004091D01*
X87792516Y-124004091D01*
X87799444Y-124004835D01*
X87852127Y-124010500D01*
X89647872Y-124010499D01*
X89707483Y-124004091D01*
X89842331Y-123953796D01*
X89957546Y-123867546D01*
X90043796Y-123752331D01*
X90094091Y-123617483D01*
X90100500Y-123557873D01*
X90100499Y-121762128D01*
X90094091Y-121702517D01*
X90053120Y-121592669D01*
X90043797Y-121567671D01*
X90043793Y-121567664D01*
X89957547Y-121452455D01*
X89957544Y-121452452D01*
X89842335Y-121366206D01*
X89842328Y-121366202D01*
X89710401Y-121316997D01*
X89654467Y-121275126D01*
X89630050Y-121209662D01*
X89644902Y-121141389D01*
X89666053Y-121113133D01*
X89788108Y-120991078D01*
X89923600Y-120797578D01*
X90023429Y-120583492D01*
X90023432Y-120583486D01*
X90080636Y-120370000D01*
X89183686Y-120370000D01*
X89209493Y-120329844D01*
X89250000Y-120191889D01*
X89250000Y-120048111D01*
X89209493Y-119910156D01*
X89183686Y-119870000D01*
X90080636Y-119870000D01*
X90080635Y-119869999D01*
X90023432Y-119656513D01*
X90023429Y-119656507D01*
X89923600Y-119442422D01*
X89923599Y-119442420D01*
X89788113Y-119248926D01*
X89788108Y-119248920D01*
X89621078Y-119081890D01*
X89435405Y-118951879D01*
X89391780Y-118897302D01*
X89384588Y-118827804D01*
X89416110Y-118765449D01*
X89435406Y-118748730D01*
X89621401Y-118618495D01*
X89788495Y-118451401D01*
X89924035Y-118257830D01*
X90023903Y-118043663D01*
X90085063Y-117815408D01*
X90105659Y-117580000D01*
X91144341Y-117580000D01*
X91164936Y-117815403D01*
X91164938Y-117815413D01*
X91226094Y-118043655D01*
X91226096Y-118043659D01*
X91226097Y-118043663D01*
X91325964Y-118257830D01*
X91325965Y-118257830D01*
X91325967Y-118257834D01*
X91461501Y-118451395D01*
X91461506Y-118451402D01*
X91628597Y-118618493D01*
X91628603Y-118618498D01*
X91814594Y-118748730D01*
X91858219Y-118803307D01*
X91865413Y-118872805D01*
X91833890Y-118935160D01*
X91814595Y-118951880D01*
X91628922Y-119081890D01*
X91628920Y-119081891D01*
X91461891Y-119248920D01*
X91461886Y-119248926D01*
X91326400Y-119442420D01*
X91326399Y-119442422D01*
X91226570Y-119656507D01*
X91226567Y-119656513D01*
X91169364Y-119869999D01*
X91169364Y-119870000D01*
X92066314Y-119870000D01*
X92040507Y-119910156D01*
X92000000Y-120048111D01*
X92000000Y-120191889D01*
X92040507Y-120329844D01*
X92066314Y-120370000D01*
X91169364Y-120370000D01*
X91226567Y-120583486D01*
X91226570Y-120583492D01*
X91326399Y-120797578D01*
X91461894Y-120991082D01*
X91583946Y-121113134D01*
X91617431Y-121174457D01*
X91612447Y-121244149D01*
X91570575Y-121300082D01*
X91539598Y-121316997D01*
X91407671Y-121366202D01*
X91407664Y-121366206D01*
X91292455Y-121452452D01*
X91292452Y-121452455D01*
X91206206Y-121567664D01*
X91206202Y-121567671D01*
X91155908Y-121702517D01*
X91149501Y-121762116D01*
X91149501Y-121762123D01*
X91149500Y-121762135D01*
X91149500Y-123557870D01*
X91149501Y-123557876D01*
X91155908Y-123617483D01*
X91206202Y-123752328D01*
X91206206Y-123752335D01*
X91292452Y-123867544D01*
X91292455Y-123867547D01*
X91407664Y-123953793D01*
X91407671Y-123953797D01*
X91542517Y-124004091D01*
X91542516Y-124004091D01*
X91549444Y-124004835D01*
X91602127Y-124010500D01*
X93397872Y-124010499D01*
X93457483Y-124004091D01*
X93592331Y-123953796D01*
X93707546Y-123867546D01*
X93793796Y-123752331D01*
X93844091Y-123617483D01*
X93850500Y-123557873D01*
X93850499Y-121762128D01*
X93844091Y-121702517D01*
X93803120Y-121592669D01*
X93793797Y-121567671D01*
X93793793Y-121567664D01*
X93707547Y-121452455D01*
X93707544Y-121452452D01*
X93592335Y-121366206D01*
X93592328Y-121366202D01*
X93460401Y-121316997D01*
X93404467Y-121275126D01*
X93380050Y-121209662D01*
X93394902Y-121141389D01*
X93416053Y-121113133D01*
X93538108Y-120991078D01*
X93673600Y-120797578D01*
X93773429Y-120583492D01*
X93773432Y-120583486D01*
X93830636Y-120370000D01*
X92933686Y-120370000D01*
X92959493Y-120329844D01*
X93000000Y-120191889D01*
X93000000Y-120048111D01*
X92959493Y-119910156D01*
X92933686Y-119870000D01*
X93830636Y-119870000D01*
X93830635Y-119869999D01*
X93773432Y-119656513D01*
X93773429Y-119656507D01*
X93673600Y-119442422D01*
X93673599Y-119442420D01*
X93538113Y-119248926D01*
X93538108Y-119248920D01*
X93371078Y-119081890D01*
X93185405Y-118951879D01*
X93141780Y-118897302D01*
X93134588Y-118827804D01*
X93166110Y-118765449D01*
X93185406Y-118748730D01*
X93371401Y-118618495D01*
X93538495Y-118451401D01*
X93674035Y-118257830D01*
X93773903Y-118043663D01*
X93835063Y-117815408D01*
X93855659Y-117580000D01*
X94894341Y-117580000D01*
X94914936Y-117815403D01*
X94914938Y-117815413D01*
X94976094Y-118043655D01*
X94976096Y-118043659D01*
X94976097Y-118043663D01*
X95075964Y-118257830D01*
X95075965Y-118257830D01*
X95075967Y-118257834D01*
X95211501Y-118451395D01*
X95211506Y-118451402D01*
X95378597Y-118618493D01*
X95378603Y-118618498D01*
X95564594Y-118748730D01*
X95608219Y-118803307D01*
X95615413Y-118872805D01*
X95583890Y-118935160D01*
X95564595Y-118951880D01*
X95378922Y-119081890D01*
X95378920Y-119081891D01*
X95211891Y-119248920D01*
X95211886Y-119248926D01*
X95076400Y-119442420D01*
X95076399Y-119442422D01*
X94976570Y-119656507D01*
X94976567Y-119656513D01*
X94919364Y-119869999D01*
X94919364Y-119870000D01*
X95816314Y-119870000D01*
X95790507Y-119910156D01*
X95750000Y-120048111D01*
X95750000Y-120191889D01*
X95790507Y-120329844D01*
X95816314Y-120370000D01*
X94919364Y-120370000D01*
X94976567Y-120583486D01*
X94976570Y-120583492D01*
X95076399Y-120797578D01*
X95211894Y-120991082D01*
X95333946Y-121113134D01*
X95367431Y-121174457D01*
X95362447Y-121244149D01*
X95320575Y-121300082D01*
X95289598Y-121316997D01*
X95157671Y-121366202D01*
X95157664Y-121366206D01*
X95042455Y-121452452D01*
X95042452Y-121452455D01*
X94956206Y-121567664D01*
X94956202Y-121567671D01*
X94905908Y-121702517D01*
X94899501Y-121762116D01*
X94899501Y-121762123D01*
X94899500Y-121762135D01*
X94899500Y-123557870D01*
X94899501Y-123557876D01*
X94905908Y-123617483D01*
X94956202Y-123752328D01*
X94956206Y-123752335D01*
X95042452Y-123867544D01*
X95042455Y-123867547D01*
X95157664Y-123953793D01*
X95157671Y-123953797D01*
X95292517Y-124004091D01*
X95292516Y-124004091D01*
X95299444Y-124004835D01*
X95352127Y-124010500D01*
X97147872Y-124010499D01*
X97207483Y-124004091D01*
X97342331Y-123953796D01*
X97457546Y-123867546D01*
X97543796Y-123752331D01*
X97594091Y-123617483D01*
X97600500Y-123557873D01*
X97600499Y-121762128D01*
X97594091Y-121702517D01*
X97553120Y-121592669D01*
X97543797Y-121567671D01*
X97543793Y-121567664D01*
X97457547Y-121452455D01*
X97457544Y-121452452D01*
X97342335Y-121366206D01*
X97342328Y-121366202D01*
X97210401Y-121316997D01*
X97154467Y-121275126D01*
X97130050Y-121209662D01*
X97144902Y-121141389D01*
X97166053Y-121113133D01*
X97288108Y-120991078D01*
X97423600Y-120797578D01*
X97523429Y-120583492D01*
X97523432Y-120583486D01*
X97580636Y-120370000D01*
X96683686Y-120370000D01*
X96709493Y-120329844D01*
X96750000Y-120191889D01*
X96750000Y-120048111D01*
X96709493Y-119910156D01*
X96683686Y-119870000D01*
X97580636Y-119870000D01*
X97580635Y-119869999D01*
X97523432Y-119656513D01*
X97523429Y-119656507D01*
X97423600Y-119442422D01*
X97423599Y-119442420D01*
X97288113Y-119248926D01*
X97288108Y-119248920D01*
X97121078Y-119081890D01*
X96935405Y-118951879D01*
X96891780Y-118897302D01*
X96884588Y-118827804D01*
X96916110Y-118765449D01*
X96935406Y-118748730D01*
X97121401Y-118618495D01*
X97288495Y-118451401D01*
X97424035Y-118257830D01*
X97523903Y-118043663D01*
X97585063Y-117815408D01*
X97605659Y-117580000D01*
X98644341Y-117580000D01*
X98664936Y-117815403D01*
X98664938Y-117815413D01*
X98726094Y-118043655D01*
X98726096Y-118043659D01*
X98726097Y-118043663D01*
X98825965Y-118257829D01*
X98825965Y-118257830D01*
X98825967Y-118257834D01*
X98961501Y-118451395D01*
X98961506Y-118451402D01*
X99128597Y-118618493D01*
X99128603Y-118618498D01*
X99314594Y-118748730D01*
X99358219Y-118803307D01*
X99365413Y-118872805D01*
X99333890Y-118935160D01*
X99314595Y-118951880D01*
X99128922Y-119081890D01*
X99128920Y-119081891D01*
X98961891Y-119248920D01*
X98961886Y-119248926D01*
X98826400Y-119442420D01*
X98826399Y-119442422D01*
X98726570Y-119656507D01*
X98726567Y-119656513D01*
X98669364Y-119869999D01*
X98669364Y-119870000D01*
X99566314Y-119870000D01*
X99540507Y-119910156D01*
X99500000Y-120048111D01*
X99500000Y-120191889D01*
X99540507Y-120329844D01*
X99566314Y-120370000D01*
X98669364Y-120370000D01*
X98726567Y-120583486D01*
X98726570Y-120583492D01*
X98826399Y-120797578D01*
X98961894Y-120991082D01*
X99083946Y-121113134D01*
X99117431Y-121174457D01*
X99112447Y-121244149D01*
X99070575Y-121300082D01*
X99039598Y-121316997D01*
X98907671Y-121366202D01*
X98907664Y-121366206D01*
X98792455Y-121452452D01*
X98792452Y-121452455D01*
X98706206Y-121567664D01*
X98706202Y-121567671D01*
X98655908Y-121702517D01*
X98649501Y-121762116D01*
X98649501Y-121762123D01*
X98649500Y-121762135D01*
X98649500Y-123557870D01*
X98649501Y-123557876D01*
X98655908Y-123617483D01*
X98706202Y-123752328D01*
X98706206Y-123752335D01*
X98792452Y-123867544D01*
X98792455Y-123867547D01*
X98907664Y-123953793D01*
X98907671Y-123953797D01*
X99042517Y-124004091D01*
X99042516Y-124004091D01*
X99049444Y-124004835D01*
X99102127Y-124010500D01*
X100897872Y-124010499D01*
X100957483Y-124004091D01*
X101092331Y-123953796D01*
X101207546Y-123867546D01*
X101293796Y-123752331D01*
X101344091Y-123617483D01*
X101350500Y-123557873D01*
X101350499Y-121762128D01*
X101344091Y-121702517D01*
X101303120Y-121592669D01*
X101293797Y-121567671D01*
X101293793Y-121567664D01*
X101207547Y-121452455D01*
X101207544Y-121452452D01*
X101092335Y-121366206D01*
X101092328Y-121366202D01*
X100960401Y-121316997D01*
X100904467Y-121275126D01*
X100880050Y-121209662D01*
X100894902Y-121141389D01*
X100916053Y-121113133D01*
X101038108Y-120991078D01*
X101173600Y-120797578D01*
X101273429Y-120583492D01*
X101273432Y-120583486D01*
X101330636Y-120370000D01*
X100433686Y-120370000D01*
X100459493Y-120329844D01*
X100500000Y-120191889D01*
X100500000Y-120048111D01*
X100459493Y-119910156D01*
X100433686Y-119870000D01*
X101330636Y-119870000D01*
X101330635Y-119869999D01*
X101273432Y-119656513D01*
X101273429Y-119656507D01*
X101173600Y-119442422D01*
X101173599Y-119442420D01*
X101038113Y-119248926D01*
X101038108Y-119248920D01*
X100871078Y-119081890D01*
X100685405Y-118951879D01*
X100641780Y-118897302D01*
X100634588Y-118827804D01*
X100666110Y-118765449D01*
X100685406Y-118748730D01*
X100871401Y-118618495D01*
X101038495Y-118451401D01*
X101174035Y-118257830D01*
X101273903Y-118043663D01*
X101335063Y-117815408D01*
X101355659Y-117580000D01*
X102394341Y-117580000D01*
X102414936Y-117815403D01*
X102414938Y-117815413D01*
X102476094Y-118043655D01*
X102476096Y-118043659D01*
X102476097Y-118043663D01*
X102575964Y-118257830D01*
X102575965Y-118257830D01*
X102575967Y-118257834D01*
X102711501Y-118451395D01*
X102711506Y-118451402D01*
X102878597Y-118618493D01*
X102878603Y-118618498D01*
X103064594Y-118748730D01*
X103108219Y-118803307D01*
X103115413Y-118872805D01*
X103083890Y-118935160D01*
X103064595Y-118951880D01*
X102878922Y-119081890D01*
X102878920Y-119081891D01*
X102711891Y-119248920D01*
X102711886Y-119248926D01*
X102576400Y-119442420D01*
X102576399Y-119442422D01*
X102476570Y-119656507D01*
X102476567Y-119656513D01*
X102419364Y-119869999D01*
X102419364Y-119870000D01*
X103316314Y-119870000D01*
X103290507Y-119910156D01*
X103250000Y-120048111D01*
X103250000Y-120191889D01*
X103290507Y-120329844D01*
X103316314Y-120370000D01*
X102419364Y-120370000D01*
X102476567Y-120583486D01*
X102476570Y-120583492D01*
X102576399Y-120797578D01*
X102711894Y-120991082D01*
X102833946Y-121113134D01*
X102867431Y-121174457D01*
X102862447Y-121244149D01*
X102820575Y-121300082D01*
X102789598Y-121316997D01*
X102657671Y-121366202D01*
X102657664Y-121366206D01*
X102542455Y-121452452D01*
X102542452Y-121452455D01*
X102456206Y-121567664D01*
X102456202Y-121567671D01*
X102405908Y-121702517D01*
X102399501Y-121762116D01*
X102399501Y-121762123D01*
X102399500Y-121762135D01*
X102399500Y-123557870D01*
X102399501Y-123557876D01*
X102405908Y-123617483D01*
X102456202Y-123752328D01*
X102456206Y-123752335D01*
X102542452Y-123867544D01*
X102542455Y-123867547D01*
X102657664Y-123953793D01*
X102657671Y-123953797D01*
X102792517Y-124004091D01*
X102792516Y-124004091D01*
X102799444Y-124004835D01*
X102852127Y-124010500D01*
X104647872Y-124010499D01*
X104707483Y-124004091D01*
X104842331Y-123953796D01*
X104957546Y-123867546D01*
X105043796Y-123752331D01*
X105094091Y-123617483D01*
X105100500Y-123557873D01*
X105100499Y-121762128D01*
X105094091Y-121702517D01*
X105053120Y-121592669D01*
X105043797Y-121567671D01*
X105043793Y-121567664D01*
X104957547Y-121452455D01*
X104957544Y-121452452D01*
X104842335Y-121366206D01*
X104842328Y-121366202D01*
X104710401Y-121316997D01*
X104654467Y-121275126D01*
X104630050Y-121209662D01*
X104644902Y-121141389D01*
X104666053Y-121113133D01*
X104788108Y-120991078D01*
X104923600Y-120797578D01*
X105023429Y-120583492D01*
X105023432Y-120583486D01*
X105080636Y-120370000D01*
X104183686Y-120370000D01*
X104209493Y-120329844D01*
X104250000Y-120191889D01*
X104250000Y-120048111D01*
X104209493Y-119910156D01*
X104183686Y-119870000D01*
X105080636Y-119870000D01*
X105080635Y-119869999D01*
X105023432Y-119656513D01*
X105023429Y-119656507D01*
X104923600Y-119442422D01*
X104923599Y-119442420D01*
X104788113Y-119248926D01*
X104788108Y-119248920D01*
X104621078Y-119081890D01*
X104435405Y-118951879D01*
X104391780Y-118897302D01*
X104384588Y-118827804D01*
X104416110Y-118765449D01*
X104435406Y-118748730D01*
X104621401Y-118618495D01*
X104788495Y-118451401D01*
X104924035Y-118257830D01*
X105023903Y-118043663D01*
X105085063Y-117815408D01*
X105105659Y-117580000D01*
X106144341Y-117580000D01*
X106164936Y-117815403D01*
X106164938Y-117815413D01*
X106226094Y-118043655D01*
X106226096Y-118043659D01*
X106226097Y-118043663D01*
X106325965Y-118257830D01*
X106325967Y-118257834D01*
X106461501Y-118451395D01*
X106461506Y-118451402D01*
X106628597Y-118618493D01*
X106628603Y-118618498D01*
X106814594Y-118748730D01*
X106858219Y-118803307D01*
X106865413Y-118872805D01*
X106833890Y-118935160D01*
X106814595Y-118951880D01*
X106628922Y-119081890D01*
X106628920Y-119081891D01*
X106461891Y-119248920D01*
X106461886Y-119248926D01*
X106326400Y-119442420D01*
X106326399Y-119442422D01*
X106226570Y-119656507D01*
X106226567Y-119656513D01*
X106169364Y-119869999D01*
X106169364Y-119870000D01*
X107066314Y-119870000D01*
X107040507Y-119910156D01*
X107000000Y-120048111D01*
X107000000Y-120191889D01*
X107040507Y-120329844D01*
X107066314Y-120370000D01*
X106169364Y-120370000D01*
X106226567Y-120583486D01*
X106226570Y-120583492D01*
X106326399Y-120797578D01*
X106461894Y-120991082D01*
X106583946Y-121113134D01*
X106617431Y-121174457D01*
X106612447Y-121244149D01*
X106570575Y-121300082D01*
X106539598Y-121316997D01*
X106407671Y-121366202D01*
X106407664Y-121366206D01*
X106292455Y-121452452D01*
X106292452Y-121452455D01*
X106206206Y-121567664D01*
X106206202Y-121567671D01*
X106155908Y-121702517D01*
X106149501Y-121762116D01*
X106149501Y-121762123D01*
X106149500Y-121762135D01*
X106149500Y-123557870D01*
X106149501Y-123557876D01*
X106155908Y-123617483D01*
X106206202Y-123752328D01*
X106206206Y-123752335D01*
X106292452Y-123867544D01*
X106292455Y-123867547D01*
X106407664Y-123953793D01*
X106407671Y-123953797D01*
X106542517Y-124004091D01*
X106542516Y-124004091D01*
X106549444Y-124004835D01*
X106602127Y-124010500D01*
X108397872Y-124010499D01*
X108457483Y-124004091D01*
X108592331Y-123953796D01*
X108707546Y-123867546D01*
X108793796Y-123752331D01*
X108844091Y-123617483D01*
X108850500Y-123557873D01*
X108850499Y-121762128D01*
X108844091Y-121702517D01*
X108803120Y-121592669D01*
X108793797Y-121567671D01*
X108793793Y-121567664D01*
X108707547Y-121452455D01*
X108707544Y-121452452D01*
X108592335Y-121366206D01*
X108592328Y-121366202D01*
X108460401Y-121316997D01*
X108404467Y-121275126D01*
X108380050Y-121209662D01*
X108394902Y-121141389D01*
X108416053Y-121113133D01*
X108538108Y-120991078D01*
X108673600Y-120797578D01*
X108773429Y-120583492D01*
X108773432Y-120583486D01*
X108830636Y-120370000D01*
X107933686Y-120370000D01*
X107959493Y-120329844D01*
X108000000Y-120191889D01*
X108000000Y-120048111D01*
X107959493Y-119910156D01*
X107933686Y-119870000D01*
X108830636Y-119870000D01*
X108830635Y-119869999D01*
X108773432Y-119656513D01*
X108773429Y-119656507D01*
X108673600Y-119442422D01*
X108673599Y-119442420D01*
X108538113Y-119248926D01*
X108538108Y-119248920D01*
X108371078Y-119081890D01*
X108185405Y-118951879D01*
X108141780Y-118897302D01*
X108134588Y-118827804D01*
X108166110Y-118765449D01*
X108185406Y-118748730D01*
X108371401Y-118618495D01*
X108538495Y-118451401D01*
X108674035Y-118257830D01*
X108773903Y-118043663D01*
X108835063Y-117815408D01*
X108855659Y-117580000D01*
X109894341Y-117580000D01*
X109914936Y-117815403D01*
X109914938Y-117815413D01*
X109976094Y-118043655D01*
X109976096Y-118043659D01*
X109976097Y-118043663D01*
X110075965Y-118257830D01*
X110075967Y-118257834D01*
X110211501Y-118451395D01*
X110211506Y-118451402D01*
X110378597Y-118618493D01*
X110378603Y-118618498D01*
X110564594Y-118748730D01*
X110608219Y-118803307D01*
X110615413Y-118872805D01*
X110583890Y-118935160D01*
X110564595Y-118951880D01*
X110378922Y-119081890D01*
X110378920Y-119081891D01*
X110211891Y-119248920D01*
X110211886Y-119248926D01*
X110076400Y-119442420D01*
X110076399Y-119442422D01*
X109976570Y-119656507D01*
X109976567Y-119656513D01*
X109919364Y-119869999D01*
X109919364Y-119870000D01*
X110816314Y-119870000D01*
X110790507Y-119910156D01*
X110750000Y-120048111D01*
X110750000Y-120191889D01*
X110790507Y-120329844D01*
X110816314Y-120370000D01*
X109919364Y-120370000D01*
X109976567Y-120583486D01*
X109976570Y-120583492D01*
X110076399Y-120797578D01*
X110211894Y-120991082D01*
X110333946Y-121113134D01*
X110367431Y-121174457D01*
X110362447Y-121244149D01*
X110320575Y-121300082D01*
X110289598Y-121316997D01*
X110157671Y-121366202D01*
X110157664Y-121366206D01*
X110042455Y-121452452D01*
X110042452Y-121452455D01*
X109956206Y-121567664D01*
X109956202Y-121567671D01*
X109905908Y-121702517D01*
X109899501Y-121762116D01*
X109899501Y-121762123D01*
X109899500Y-121762135D01*
X109899500Y-123557870D01*
X109899501Y-123557876D01*
X109905908Y-123617483D01*
X109956202Y-123752328D01*
X109956206Y-123752335D01*
X110042452Y-123867544D01*
X110042455Y-123867547D01*
X110157664Y-123953793D01*
X110157671Y-123953797D01*
X110292517Y-124004091D01*
X110292516Y-124004091D01*
X110299444Y-124004835D01*
X110352127Y-124010500D01*
X112147872Y-124010499D01*
X112207483Y-124004091D01*
X112342331Y-123953796D01*
X112457546Y-123867546D01*
X112543796Y-123752331D01*
X112594091Y-123617483D01*
X112600500Y-123557873D01*
X112600499Y-121762128D01*
X112594091Y-121702517D01*
X112553120Y-121592669D01*
X112543797Y-121567671D01*
X112543793Y-121567664D01*
X112457547Y-121452455D01*
X112457544Y-121452452D01*
X112342335Y-121366206D01*
X112342328Y-121366202D01*
X112210401Y-121316997D01*
X112154467Y-121275126D01*
X112130050Y-121209662D01*
X112144902Y-121141389D01*
X112166053Y-121113133D01*
X112288108Y-120991078D01*
X112423600Y-120797578D01*
X112523429Y-120583492D01*
X112523432Y-120583486D01*
X112580636Y-120370000D01*
X111683686Y-120370000D01*
X111709493Y-120329844D01*
X111750000Y-120191889D01*
X111750000Y-120048111D01*
X111709493Y-119910156D01*
X111683686Y-119870000D01*
X112580636Y-119870000D01*
X112580635Y-119869999D01*
X112523432Y-119656513D01*
X112523429Y-119656507D01*
X112423600Y-119442422D01*
X112423599Y-119442420D01*
X112288113Y-119248926D01*
X112288108Y-119248920D01*
X112121078Y-119081890D01*
X111935405Y-118951879D01*
X111891780Y-118897302D01*
X111884588Y-118827804D01*
X111916110Y-118765449D01*
X111935406Y-118748730D01*
X112121401Y-118618495D01*
X112288495Y-118451401D01*
X112424035Y-118257830D01*
X112523903Y-118043663D01*
X112585063Y-117815408D01*
X112605659Y-117580000D01*
X113644341Y-117580000D01*
X113664936Y-117815403D01*
X113664938Y-117815413D01*
X113726094Y-118043655D01*
X113726096Y-118043659D01*
X113726097Y-118043663D01*
X113825964Y-118257829D01*
X113825965Y-118257830D01*
X113825967Y-118257834D01*
X113961501Y-118451395D01*
X113961506Y-118451402D01*
X114128597Y-118618493D01*
X114128603Y-118618498D01*
X114314594Y-118748730D01*
X114358219Y-118803307D01*
X114365413Y-118872805D01*
X114333890Y-118935160D01*
X114314595Y-118951880D01*
X114128922Y-119081890D01*
X114128920Y-119081891D01*
X113961891Y-119248920D01*
X113961886Y-119248926D01*
X113826400Y-119442420D01*
X113826399Y-119442422D01*
X113726570Y-119656507D01*
X113726567Y-119656513D01*
X113669364Y-119869999D01*
X113669364Y-119870000D01*
X114566314Y-119870000D01*
X114540507Y-119910156D01*
X114500000Y-120048111D01*
X114500000Y-120191889D01*
X114540507Y-120329844D01*
X114566314Y-120370000D01*
X113669364Y-120370000D01*
X113726567Y-120583486D01*
X113726570Y-120583492D01*
X113826399Y-120797578D01*
X113961894Y-120991082D01*
X114083946Y-121113134D01*
X114117431Y-121174457D01*
X114112447Y-121244149D01*
X114070575Y-121300082D01*
X114039598Y-121316997D01*
X113907671Y-121366202D01*
X113907664Y-121366206D01*
X113792455Y-121452452D01*
X113792452Y-121452455D01*
X113706206Y-121567664D01*
X113706202Y-121567671D01*
X113655908Y-121702517D01*
X113649501Y-121762116D01*
X113649501Y-121762123D01*
X113649500Y-121762135D01*
X113649500Y-123557870D01*
X113649501Y-123557876D01*
X113655908Y-123617483D01*
X113706202Y-123752328D01*
X113706206Y-123752335D01*
X113792452Y-123867544D01*
X113792455Y-123867547D01*
X113907664Y-123953793D01*
X113907671Y-123953797D01*
X114042517Y-124004091D01*
X114042516Y-124004091D01*
X114049444Y-124004835D01*
X114102127Y-124010500D01*
X115897872Y-124010499D01*
X115957483Y-124004091D01*
X116092331Y-123953796D01*
X116207546Y-123867546D01*
X116293796Y-123752331D01*
X116344091Y-123617483D01*
X116350500Y-123557873D01*
X116350499Y-121762128D01*
X116344091Y-121702517D01*
X116303120Y-121592669D01*
X116293797Y-121567671D01*
X116293793Y-121567664D01*
X116207547Y-121452455D01*
X116207544Y-121452452D01*
X116092335Y-121366206D01*
X116092328Y-121366202D01*
X115960401Y-121316997D01*
X115904467Y-121275126D01*
X115880050Y-121209662D01*
X115894902Y-121141389D01*
X115916053Y-121113133D01*
X116038108Y-120991078D01*
X116173600Y-120797578D01*
X116273429Y-120583492D01*
X116273432Y-120583486D01*
X116330636Y-120370000D01*
X115433686Y-120370000D01*
X115459493Y-120329844D01*
X115500000Y-120191889D01*
X115500000Y-120048111D01*
X115459493Y-119910156D01*
X115433686Y-119870000D01*
X116330636Y-119870000D01*
X116330635Y-119869999D01*
X116273432Y-119656513D01*
X116273429Y-119656507D01*
X116173600Y-119442422D01*
X116173599Y-119442420D01*
X116038113Y-119248926D01*
X116038108Y-119248920D01*
X115871078Y-119081890D01*
X115685405Y-118951879D01*
X115641780Y-118897302D01*
X115634588Y-118827804D01*
X115666110Y-118765449D01*
X115685406Y-118748730D01*
X115871401Y-118618495D01*
X116038495Y-118451401D01*
X116174035Y-118257830D01*
X116273903Y-118043663D01*
X116335063Y-117815408D01*
X116355659Y-117580000D01*
X117394341Y-117580000D01*
X117414936Y-117815403D01*
X117414938Y-117815413D01*
X117476094Y-118043655D01*
X117476096Y-118043659D01*
X117476097Y-118043663D01*
X117575965Y-118257830D01*
X117575967Y-118257834D01*
X117711501Y-118451395D01*
X117711506Y-118451402D01*
X117878597Y-118618493D01*
X117878603Y-118618498D01*
X118064594Y-118748730D01*
X118108219Y-118803307D01*
X118115413Y-118872805D01*
X118083890Y-118935160D01*
X118064595Y-118951880D01*
X117878922Y-119081890D01*
X117878920Y-119081891D01*
X117711891Y-119248920D01*
X117711886Y-119248926D01*
X117576400Y-119442420D01*
X117576399Y-119442422D01*
X117476570Y-119656507D01*
X117476567Y-119656513D01*
X117419364Y-119869999D01*
X117419364Y-119870000D01*
X118316314Y-119870000D01*
X118290507Y-119910156D01*
X118250000Y-120048111D01*
X118250000Y-120191889D01*
X118290507Y-120329844D01*
X118316314Y-120370000D01*
X117419364Y-120370000D01*
X117476567Y-120583486D01*
X117476570Y-120583492D01*
X117576399Y-120797578D01*
X117711894Y-120991082D01*
X117833946Y-121113134D01*
X117867431Y-121174457D01*
X117862447Y-121244149D01*
X117820575Y-121300082D01*
X117789598Y-121316997D01*
X117657671Y-121366202D01*
X117657664Y-121366206D01*
X117542455Y-121452452D01*
X117542452Y-121452455D01*
X117456206Y-121567664D01*
X117456202Y-121567671D01*
X117405908Y-121702517D01*
X117399501Y-121762116D01*
X117399501Y-121762123D01*
X117399500Y-121762135D01*
X117399500Y-123557870D01*
X117399501Y-123557876D01*
X117405908Y-123617483D01*
X117456202Y-123752328D01*
X117456206Y-123752335D01*
X117542452Y-123867544D01*
X117542455Y-123867547D01*
X117657664Y-123953793D01*
X117657671Y-123953797D01*
X117792517Y-124004091D01*
X117792516Y-124004091D01*
X117799444Y-124004835D01*
X117852127Y-124010500D01*
X119647872Y-124010499D01*
X119707483Y-124004091D01*
X119842331Y-123953796D01*
X119957546Y-123867546D01*
X120043796Y-123752331D01*
X120094091Y-123617483D01*
X120100500Y-123557873D01*
X120100499Y-121762128D01*
X120094091Y-121702517D01*
X120053120Y-121592669D01*
X120043797Y-121567671D01*
X120043793Y-121567664D01*
X119957547Y-121452455D01*
X119957544Y-121452452D01*
X119842335Y-121366206D01*
X119842328Y-121366202D01*
X119710401Y-121316997D01*
X119654467Y-121275126D01*
X119630050Y-121209662D01*
X119644902Y-121141389D01*
X119666053Y-121113133D01*
X119788108Y-120991078D01*
X119923600Y-120797578D01*
X120023429Y-120583492D01*
X120023432Y-120583486D01*
X120080636Y-120370000D01*
X119183686Y-120370000D01*
X119209493Y-120329844D01*
X119250000Y-120191889D01*
X119250000Y-120048111D01*
X119209493Y-119910156D01*
X119183686Y-119870000D01*
X120080636Y-119870000D01*
X120080635Y-119869999D01*
X120023432Y-119656513D01*
X120023429Y-119656507D01*
X119923600Y-119442422D01*
X119923599Y-119442420D01*
X119788113Y-119248926D01*
X119788108Y-119248920D01*
X119621078Y-119081890D01*
X119435405Y-118951879D01*
X119391780Y-118897302D01*
X119384588Y-118827804D01*
X119416110Y-118765449D01*
X119435406Y-118748730D01*
X119621401Y-118618495D01*
X119788495Y-118451401D01*
X119924035Y-118257830D01*
X120023903Y-118043663D01*
X120085063Y-117815408D01*
X120105659Y-117580000D01*
X121144341Y-117580000D01*
X121164936Y-117815403D01*
X121164938Y-117815413D01*
X121226094Y-118043655D01*
X121226096Y-118043659D01*
X121226097Y-118043663D01*
X121325965Y-118257830D01*
X121325967Y-118257834D01*
X121461501Y-118451395D01*
X121461506Y-118451402D01*
X121628597Y-118618493D01*
X121628603Y-118618498D01*
X121814594Y-118748730D01*
X121858219Y-118803307D01*
X121865413Y-118872805D01*
X121833890Y-118935160D01*
X121814595Y-118951880D01*
X121628922Y-119081890D01*
X121628920Y-119081891D01*
X121461891Y-119248920D01*
X121461886Y-119248926D01*
X121326400Y-119442420D01*
X121326399Y-119442422D01*
X121226570Y-119656507D01*
X121226567Y-119656513D01*
X121169364Y-119869999D01*
X121169364Y-119870000D01*
X122066314Y-119870000D01*
X122040507Y-119910156D01*
X122000000Y-120048111D01*
X122000000Y-120191889D01*
X122040507Y-120329844D01*
X122066314Y-120370000D01*
X121169364Y-120370000D01*
X121226567Y-120583486D01*
X121226570Y-120583492D01*
X121326399Y-120797578D01*
X121461894Y-120991082D01*
X121583946Y-121113134D01*
X121617431Y-121174457D01*
X121612447Y-121244149D01*
X121570575Y-121300082D01*
X121539598Y-121316997D01*
X121407671Y-121366202D01*
X121407664Y-121366206D01*
X121292455Y-121452452D01*
X121292452Y-121452455D01*
X121206206Y-121567664D01*
X121206202Y-121567671D01*
X121155908Y-121702517D01*
X121149501Y-121762116D01*
X121149501Y-121762123D01*
X121149500Y-121762135D01*
X121149500Y-123557870D01*
X121149501Y-123557876D01*
X121155908Y-123617483D01*
X121206202Y-123752328D01*
X121206206Y-123752335D01*
X121292452Y-123867544D01*
X121292455Y-123867547D01*
X121407664Y-123953793D01*
X121407671Y-123953797D01*
X121542517Y-124004091D01*
X121542516Y-124004091D01*
X121549444Y-124004835D01*
X121602127Y-124010500D01*
X123397872Y-124010499D01*
X123457483Y-124004091D01*
X123592331Y-123953796D01*
X123707546Y-123867546D01*
X123793796Y-123752331D01*
X123844091Y-123617483D01*
X123850500Y-123557873D01*
X123850499Y-121762128D01*
X123844091Y-121702517D01*
X123803120Y-121592669D01*
X123793797Y-121567671D01*
X123793793Y-121567664D01*
X123707547Y-121452455D01*
X123707544Y-121452452D01*
X123592335Y-121366206D01*
X123592328Y-121366202D01*
X123460401Y-121316997D01*
X123404467Y-121275126D01*
X123380050Y-121209662D01*
X123394902Y-121141389D01*
X123416053Y-121113133D01*
X123538108Y-120991078D01*
X123673600Y-120797578D01*
X123773429Y-120583492D01*
X123773432Y-120583486D01*
X123830636Y-120370000D01*
X122933686Y-120370000D01*
X122959493Y-120329844D01*
X123000000Y-120191889D01*
X123000000Y-120048111D01*
X122959493Y-119910156D01*
X122933686Y-119870000D01*
X123830636Y-119870000D01*
X123830635Y-119869999D01*
X123773432Y-119656513D01*
X123773429Y-119656507D01*
X123673600Y-119442422D01*
X123673599Y-119442420D01*
X123538113Y-119248926D01*
X123538108Y-119248920D01*
X123371078Y-119081890D01*
X123185405Y-118951879D01*
X123141780Y-118897302D01*
X123134588Y-118827804D01*
X123166110Y-118765449D01*
X123185406Y-118748730D01*
X123371401Y-118618495D01*
X123538495Y-118451401D01*
X123674035Y-118257830D01*
X123773903Y-118043663D01*
X123835063Y-117815408D01*
X123853472Y-117605000D01*
X124894341Y-117605000D01*
X124914936Y-117840403D01*
X124914938Y-117840413D01*
X124976094Y-118068655D01*
X124976096Y-118068659D01*
X124976097Y-118068663D01*
X125064307Y-118257830D01*
X125075965Y-118282830D01*
X125075967Y-118282834D01*
X125184281Y-118437521D01*
X125211505Y-118476401D01*
X125378599Y-118643495D01*
X125536466Y-118754035D01*
X125564594Y-118773730D01*
X125608219Y-118828307D01*
X125615413Y-118897805D01*
X125583890Y-118960160D01*
X125564595Y-118976880D01*
X125378922Y-119106890D01*
X125378920Y-119106891D01*
X125211891Y-119273920D01*
X125211886Y-119273926D01*
X125076400Y-119467420D01*
X125076399Y-119467422D01*
X124976570Y-119681507D01*
X124976567Y-119681513D01*
X124919364Y-119894999D01*
X124919364Y-119895000D01*
X125816314Y-119895000D01*
X125790507Y-119935156D01*
X125750000Y-120073111D01*
X125750000Y-120216889D01*
X125790507Y-120354844D01*
X125816314Y-120395000D01*
X124919364Y-120395000D01*
X124976567Y-120608486D01*
X124976570Y-120608492D01*
X125076399Y-120822578D01*
X125211894Y-121016082D01*
X125333946Y-121138134D01*
X125367431Y-121199457D01*
X125362447Y-121269149D01*
X125320575Y-121325082D01*
X125289598Y-121341997D01*
X125157671Y-121391202D01*
X125157664Y-121391206D01*
X125042455Y-121477452D01*
X125042452Y-121477455D01*
X124956206Y-121592664D01*
X124956202Y-121592671D01*
X124905908Y-121727517D01*
X124902187Y-121762135D01*
X124899501Y-121787123D01*
X124899500Y-121787135D01*
X124899500Y-123582870D01*
X124899501Y-123582876D01*
X124905908Y-123642483D01*
X124956202Y-123777328D01*
X124956206Y-123777335D01*
X125042452Y-123892544D01*
X125042455Y-123892547D01*
X125157664Y-123978793D01*
X125157671Y-123978797D01*
X125292517Y-124029091D01*
X125292516Y-124029091D01*
X125299444Y-124029835D01*
X125352127Y-124035500D01*
X127147872Y-124035499D01*
X127207483Y-124029091D01*
X127342331Y-123978796D01*
X127457546Y-123892546D01*
X127543796Y-123777331D01*
X127594091Y-123642483D01*
X127600500Y-123582873D01*
X127600499Y-121787128D01*
X127594091Y-121727517D01*
X127584766Y-121702516D01*
X127543797Y-121592671D01*
X127543793Y-121592664D01*
X127457547Y-121477455D01*
X127457544Y-121477452D01*
X127342335Y-121391206D01*
X127342328Y-121391202D01*
X127210401Y-121341997D01*
X127154467Y-121300126D01*
X127130050Y-121234662D01*
X127144902Y-121166389D01*
X127166053Y-121138133D01*
X127288108Y-121016078D01*
X127423600Y-120822578D01*
X127523429Y-120608492D01*
X127523432Y-120608486D01*
X127580636Y-120395000D01*
X126683686Y-120395000D01*
X126709493Y-120354844D01*
X126750000Y-120216889D01*
X126750000Y-120073111D01*
X126709493Y-119935156D01*
X126683686Y-119895000D01*
X127580636Y-119895000D01*
X127580635Y-119894999D01*
X127523432Y-119681513D01*
X127523429Y-119681507D01*
X127423600Y-119467422D01*
X127423599Y-119467420D01*
X127288113Y-119273926D01*
X127288108Y-119273920D01*
X127121078Y-119106890D01*
X126935405Y-118976879D01*
X126891780Y-118922302D01*
X126884588Y-118852804D01*
X126916110Y-118790449D01*
X126935406Y-118773730D01*
X127121401Y-118643495D01*
X127288495Y-118476401D01*
X127424035Y-118282830D01*
X127523903Y-118068663D01*
X127585063Y-117840408D01*
X127605659Y-117605000D01*
X127603472Y-117580000D01*
X128644341Y-117580000D01*
X128664936Y-117815403D01*
X128664938Y-117815413D01*
X128726094Y-118043655D01*
X128726096Y-118043659D01*
X128726097Y-118043663D01*
X128825964Y-118257830D01*
X128825965Y-118257830D01*
X128825967Y-118257834D01*
X128961501Y-118451395D01*
X128961506Y-118451402D01*
X129128597Y-118618493D01*
X129128603Y-118618498D01*
X129314594Y-118748730D01*
X129358219Y-118803307D01*
X129365413Y-118872805D01*
X129333890Y-118935160D01*
X129314595Y-118951880D01*
X129128922Y-119081890D01*
X129128920Y-119081891D01*
X128961891Y-119248920D01*
X128961886Y-119248926D01*
X128826400Y-119442420D01*
X128826399Y-119442422D01*
X128726570Y-119656507D01*
X128726567Y-119656513D01*
X128669364Y-119869999D01*
X128669364Y-119870000D01*
X129566314Y-119870000D01*
X129540507Y-119910156D01*
X129500000Y-120048111D01*
X129500000Y-120191889D01*
X129540507Y-120329844D01*
X129566314Y-120370000D01*
X128669364Y-120370000D01*
X128726567Y-120583486D01*
X128726570Y-120583492D01*
X128826399Y-120797578D01*
X128961894Y-120991082D01*
X129083946Y-121113134D01*
X129117431Y-121174457D01*
X129112447Y-121244149D01*
X129070575Y-121300082D01*
X129039598Y-121316997D01*
X128907671Y-121366202D01*
X128907664Y-121366206D01*
X128792455Y-121452452D01*
X128792452Y-121452455D01*
X128706206Y-121567664D01*
X128706202Y-121567671D01*
X128655908Y-121702517D01*
X128649501Y-121762116D01*
X128649501Y-121762123D01*
X128649500Y-121762135D01*
X128649500Y-123557870D01*
X128649501Y-123557876D01*
X128655908Y-123617483D01*
X128706202Y-123752328D01*
X128706206Y-123752335D01*
X128792452Y-123867544D01*
X128792455Y-123867547D01*
X128907664Y-123953793D01*
X128907671Y-123953797D01*
X129042517Y-124004091D01*
X129042516Y-124004091D01*
X129049444Y-124004835D01*
X129102127Y-124010500D01*
X130897872Y-124010499D01*
X130957483Y-124004091D01*
X131092331Y-123953796D01*
X131207546Y-123867546D01*
X131293796Y-123752331D01*
X131344091Y-123617483D01*
X131350500Y-123557873D01*
X131350499Y-121762128D01*
X131344091Y-121702517D01*
X131303120Y-121592669D01*
X131293797Y-121567671D01*
X131293793Y-121567664D01*
X131207547Y-121452455D01*
X131207544Y-121452452D01*
X131092335Y-121366206D01*
X131092328Y-121366202D01*
X130960401Y-121316997D01*
X130904467Y-121275126D01*
X130880050Y-121209662D01*
X130894902Y-121141389D01*
X130916053Y-121113133D01*
X131038108Y-120991078D01*
X131173600Y-120797578D01*
X131273429Y-120583492D01*
X131273432Y-120583486D01*
X131330636Y-120370000D01*
X130433686Y-120370000D01*
X130459493Y-120329844D01*
X130500000Y-120191889D01*
X130500000Y-120048111D01*
X130459493Y-119910156D01*
X130433686Y-119870000D01*
X131330636Y-119870000D01*
X131330635Y-119869999D01*
X131273432Y-119656513D01*
X131273429Y-119656507D01*
X131173600Y-119442422D01*
X131173599Y-119442420D01*
X131038113Y-119248926D01*
X131038108Y-119248920D01*
X130871078Y-119081890D01*
X130685405Y-118951879D01*
X130641780Y-118897302D01*
X130634588Y-118827804D01*
X130666110Y-118765449D01*
X130685406Y-118748730D01*
X130871401Y-118618495D01*
X131038495Y-118451401D01*
X131174035Y-118257830D01*
X131273903Y-118043663D01*
X131335063Y-117815408D01*
X131355659Y-117580000D01*
X132394341Y-117580000D01*
X132414936Y-117815403D01*
X132414938Y-117815413D01*
X132476094Y-118043655D01*
X132476096Y-118043659D01*
X132476097Y-118043663D01*
X132575965Y-118257830D01*
X132575967Y-118257834D01*
X132711501Y-118451395D01*
X132711506Y-118451402D01*
X132878597Y-118618493D01*
X132878603Y-118618498D01*
X133064594Y-118748730D01*
X133108219Y-118803307D01*
X133115413Y-118872805D01*
X133083890Y-118935160D01*
X133064595Y-118951880D01*
X132878922Y-119081890D01*
X132878920Y-119081891D01*
X132711891Y-119248920D01*
X132711886Y-119248926D01*
X132576400Y-119442420D01*
X132576399Y-119442422D01*
X132476570Y-119656507D01*
X132476567Y-119656513D01*
X132419364Y-119869999D01*
X132419364Y-119870000D01*
X133316314Y-119870000D01*
X133290507Y-119910156D01*
X133250000Y-120048111D01*
X133250000Y-120191889D01*
X133290507Y-120329844D01*
X133316314Y-120370000D01*
X132419364Y-120370000D01*
X132476567Y-120583486D01*
X132476570Y-120583492D01*
X132576399Y-120797578D01*
X132711894Y-120991082D01*
X132833946Y-121113134D01*
X132867431Y-121174457D01*
X132862447Y-121244149D01*
X132820575Y-121300082D01*
X132789598Y-121316997D01*
X132657671Y-121366202D01*
X132657664Y-121366206D01*
X132542455Y-121452452D01*
X132542452Y-121452455D01*
X132456206Y-121567664D01*
X132456202Y-121567671D01*
X132405908Y-121702517D01*
X132399501Y-121762116D01*
X132399501Y-121762123D01*
X132399500Y-121762135D01*
X132399500Y-123557870D01*
X132399501Y-123557876D01*
X132405908Y-123617483D01*
X132456202Y-123752328D01*
X132456206Y-123752335D01*
X132542452Y-123867544D01*
X132542455Y-123867547D01*
X132657664Y-123953793D01*
X132657671Y-123953797D01*
X132792517Y-124004091D01*
X132792516Y-124004091D01*
X132799444Y-124004835D01*
X132852127Y-124010500D01*
X134647872Y-124010499D01*
X134707483Y-124004091D01*
X134842331Y-123953796D01*
X134957546Y-123867546D01*
X135043796Y-123752331D01*
X135094091Y-123617483D01*
X135100500Y-123557873D01*
X135100499Y-121762128D01*
X135094091Y-121702517D01*
X135053120Y-121592669D01*
X135043797Y-121567671D01*
X135043793Y-121567664D01*
X134957547Y-121452455D01*
X134957544Y-121452452D01*
X134842335Y-121366206D01*
X134842328Y-121366202D01*
X134710401Y-121316997D01*
X134654467Y-121275126D01*
X134630050Y-121209662D01*
X134644902Y-121141389D01*
X134666053Y-121113133D01*
X134788108Y-120991078D01*
X134923600Y-120797578D01*
X135023429Y-120583492D01*
X135023432Y-120583486D01*
X135080636Y-120370000D01*
X134183686Y-120370000D01*
X134209493Y-120329844D01*
X134250000Y-120191889D01*
X134250000Y-120048111D01*
X134209493Y-119910156D01*
X134183686Y-119870000D01*
X135080636Y-119870000D01*
X135080635Y-119869999D01*
X135023432Y-119656513D01*
X135023429Y-119656507D01*
X134923600Y-119442422D01*
X134923599Y-119442420D01*
X134788113Y-119248926D01*
X134788108Y-119248920D01*
X134621078Y-119081890D01*
X134435405Y-118951879D01*
X134391780Y-118897302D01*
X134384588Y-118827804D01*
X134416110Y-118765449D01*
X134435406Y-118748730D01*
X134621401Y-118618495D01*
X134788495Y-118451401D01*
X134924035Y-118257830D01*
X135023903Y-118043663D01*
X135085063Y-117815408D01*
X135105659Y-117580000D01*
X135085063Y-117344592D01*
X135023903Y-117116337D01*
X134924035Y-116902171D01*
X134909174Y-116880946D01*
X134788494Y-116708597D01*
X134621402Y-116541506D01*
X134621395Y-116541501D01*
X134427834Y-116405967D01*
X134427830Y-116405965D01*
X134427828Y-116405964D01*
X134213663Y-116306097D01*
X134213659Y-116306096D01*
X134213655Y-116306094D01*
X133985413Y-116244938D01*
X133985403Y-116244936D01*
X133750001Y-116224341D01*
X133749999Y-116224341D01*
X133514596Y-116244936D01*
X133514586Y-116244938D01*
X133286344Y-116306094D01*
X133286335Y-116306098D01*
X133072171Y-116405964D01*
X133072169Y-116405965D01*
X132878597Y-116541505D01*
X132711505Y-116708597D01*
X132575965Y-116902169D01*
X132575964Y-116902171D01*
X132476098Y-117116335D01*
X132476094Y-117116344D01*
X132414938Y-117344586D01*
X132414936Y-117344596D01*
X132394341Y-117579999D01*
X132394341Y-117580000D01*
X131355659Y-117580000D01*
X131335063Y-117344592D01*
X131273903Y-117116337D01*
X131174035Y-116902171D01*
X131159174Y-116880946D01*
X131038494Y-116708597D01*
X130871402Y-116541506D01*
X130871395Y-116541501D01*
X130677834Y-116405967D01*
X130677830Y-116405965D01*
X130677828Y-116405964D01*
X130463663Y-116306097D01*
X130463659Y-116306096D01*
X130463655Y-116306094D01*
X130235413Y-116244938D01*
X130235403Y-116244936D01*
X130000001Y-116224341D01*
X129999999Y-116224341D01*
X129764596Y-116244936D01*
X129764586Y-116244938D01*
X129536344Y-116306094D01*
X129536335Y-116306098D01*
X129322171Y-116405964D01*
X129322169Y-116405965D01*
X129128597Y-116541505D01*
X128961505Y-116708597D01*
X128825965Y-116902169D01*
X128825964Y-116902171D01*
X128726098Y-117116335D01*
X128726094Y-117116344D01*
X128664938Y-117344586D01*
X128664936Y-117344596D01*
X128644341Y-117579999D01*
X128644341Y-117580000D01*
X127603472Y-117580000D01*
X127585063Y-117369592D01*
X127523903Y-117141337D01*
X127424035Y-116927171D01*
X127406529Y-116902169D01*
X127288494Y-116733597D01*
X127121402Y-116566506D01*
X127121395Y-116566501D01*
X127093613Y-116547048D01*
X126987781Y-116472943D01*
X126927834Y-116430967D01*
X126927830Y-116430965D01*
X126927828Y-116430964D01*
X126713663Y-116331097D01*
X126713659Y-116331096D01*
X126713655Y-116331094D01*
X126485413Y-116269938D01*
X126485403Y-116269936D01*
X126250001Y-116249341D01*
X126249999Y-116249341D01*
X126014596Y-116269936D01*
X126014586Y-116269938D01*
X125786344Y-116331094D01*
X125786335Y-116331098D01*
X125572171Y-116430964D01*
X125572169Y-116430965D01*
X125378597Y-116566505D01*
X125211505Y-116733597D01*
X125075965Y-116927169D01*
X125075964Y-116927171D01*
X124976098Y-117141335D01*
X124976094Y-117141344D01*
X124914938Y-117369586D01*
X124914936Y-117369596D01*
X124894341Y-117604999D01*
X124894341Y-117605000D01*
X123853472Y-117605000D01*
X123855659Y-117580000D01*
X123835063Y-117344592D01*
X123773903Y-117116337D01*
X123674035Y-116902171D01*
X123659174Y-116880946D01*
X123538494Y-116708597D01*
X123371402Y-116541506D01*
X123371395Y-116541501D01*
X123177834Y-116405967D01*
X123177830Y-116405965D01*
X123177829Y-116405964D01*
X122963663Y-116306097D01*
X122963659Y-116306096D01*
X122963655Y-116306094D01*
X122735413Y-116244938D01*
X122735403Y-116244936D01*
X122500001Y-116224341D01*
X122499999Y-116224341D01*
X122264596Y-116244936D01*
X122264586Y-116244938D01*
X122036344Y-116306094D01*
X122036335Y-116306098D01*
X121822171Y-116405964D01*
X121822169Y-116405965D01*
X121628597Y-116541505D01*
X121461505Y-116708597D01*
X121325965Y-116902169D01*
X121325964Y-116902171D01*
X121226098Y-117116335D01*
X121226094Y-117116344D01*
X121164938Y-117344586D01*
X121164936Y-117344596D01*
X121144341Y-117579999D01*
X121144341Y-117580000D01*
X120105659Y-117580000D01*
X120085063Y-117344592D01*
X120023903Y-117116337D01*
X119924035Y-116902171D01*
X119909174Y-116880946D01*
X119788494Y-116708597D01*
X119621402Y-116541506D01*
X119621395Y-116541501D01*
X119427834Y-116405967D01*
X119427830Y-116405965D01*
X119427828Y-116405964D01*
X119213663Y-116306097D01*
X119213659Y-116306096D01*
X119213655Y-116306094D01*
X118985413Y-116244938D01*
X118985403Y-116244936D01*
X118750001Y-116224341D01*
X118749999Y-116224341D01*
X118514596Y-116244936D01*
X118514586Y-116244938D01*
X118286344Y-116306094D01*
X118286335Y-116306098D01*
X118072171Y-116405964D01*
X118072169Y-116405965D01*
X117878597Y-116541505D01*
X117711505Y-116708597D01*
X117575965Y-116902169D01*
X117575964Y-116902171D01*
X117476098Y-117116335D01*
X117476094Y-117116344D01*
X117414938Y-117344586D01*
X117414936Y-117344596D01*
X117394341Y-117579999D01*
X117394341Y-117580000D01*
X116355659Y-117580000D01*
X116335063Y-117344592D01*
X116273903Y-117116337D01*
X116174035Y-116902171D01*
X116159174Y-116880946D01*
X116038494Y-116708597D01*
X115871402Y-116541506D01*
X115871395Y-116541501D01*
X115677834Y-116405967D01*
X115677830Y-116405965D01*
X115677828Y-116405964D01*
X115463663Y-116306097D01*
X115463659Y-116306096D01*
X115463655Y-116306094D01*
X115235413Y-116244938D01*
X115235403Y-116244936D01*
X115000001Y-116224341D01*
X114999999Y-116224341D01*
X114764596Y-116244936D01*
X114764586Y-116244938D01*
X114536344Y-116306094D01*
X114536335Y-116306098D01*
X114322171Y-116405964D01*
X114322169Y-116405965D01*
X114128597Y-116541505D01*
X113961505Y-116708597D01*
X113825965Y-116902169D01*
X113825964Y-116902171D01*
X113726098Y-117116335D01*
X113726094Y-117116344D01*
X113664938Y-117344586D01*
X113664936Y-117344596D01*
X113644341Y-117579999D01*
X113644341Y-117580000D01*
X112605659Y-117580000D01*
X112585063Y-117344592D01*
X112523903Y-117116337D01*
X112424035Y-116902171D01*
X112409174Y-116880946D01*
X112288494Y-116708597D01*
X112121402Y-116541506D01*
X112121395Y-116541501D01*
X111927834Y-116405967D01*
X111927830Y-116405965D01*
X111927830Y-116405964D01*
X111713663Y-116306097D01*
X111713659Y-116306096D01*
X111713655Y-116306094D01*
X111485413Y-116244938D01*
X111485403Y-116244936D01*
X111250001Y-116224341D01*
X111249999Y-116224341D01*
X111014596Y-116244936D01*
X111014586Y-116244938D01*
X110786344Y-116306094D01*
X110786335Y-116306098D01*
X110572171Y-116405964D01*
X110572169Y-116405965D01*
X110378597Y-116541505D01*
X110211505Y-116708597D01*
X110075965Y-116902169D01*
X110075964Y-116902171D01*
X109976098Y-117116335D01*
X109976094Y-117116344D01*
X109914938Y-117344586D01*
X109914936Y-117344596D01*
X109894341Y-117579999D01*
X109894341Y-117580000D01*
X108855659Y-117580000D01*
X108835063Y-117344592D01*
X108773903Y-117116337D01*
X108674035Y-116902171D01*
X108659174Y-116880946D01*
X108538494Y-116708597D01*
X108371402Y-116541506D01*
X108371395Y-116541501D01*
X108177834Y-116405967D01*
X108177830Y-116405965D01*
X108177830Y-116405964D01*
X107963663Y-116306097D01*
X107963659Y-116306096D01*
X107963655Y-116306094D01*
X107735413Y-116244938D01*
X107735403Y-116244936D01*
X107500001Y-116224341D01*
X107499999Y-116224341D01*
X107264596Y-116244936D01*
X107264586Y-116244938D01*
X107036344Y-116306094D01*
X107036335Y-116306098D01*
X106822171Y-116405964D01*
X106822169Y-116405965D01*
X106628597Y-116541505D01*
X106461505Y-116708597D01*
X106325965Y-116902169D01*
X106325964Y-116902171D01*
X106226098Y-117116335D01*
X106226094Y-117116344D01*
X106164938Y-117344586D01*
X106164936Y-117344596D01*
X106144341Y-117579999D01*
X106144341Y-117580000D01*
X105105659Y-117580000D01*
X105085063Y-117344592D01*
X105023903Y-117116337D01*
X104924035Y-116902171D01*
X104909174Y-116880946D01*
X104788494Y-116708597D01*
X104621402Y-116541506D01*
X104621395Y-116541501D01*
X104427834Y-116405967D01*
X104427830Y-116405965D01*
X104427828Y-116405964D01*
X104213663Y-116306097D01*
X104213659Y-116306096D01*
X104213655Y-116306094D01*
X103985413Y-116244938D01*
X103985403Y-116244936D01*
X103750001Y-116224341D01*
X103749999Y-116224341D01*
X103514596Y-116244936D01*
X103514586Y-116244938D01*
X103286344Y-116306094D01*
X103286335Y-116306098D01*
X103072171Y-116405964D01*
X103072169Y-116405965D01*
X102878597Y-116541505D01*
X102711505Y-116708597D01*
X102575965Y-116902169D01*
X102575964Y-116902171D01*
X102476098Y-117116335D01*
X102476094Y-117116344D01*
X102414938Y-117344586D01*
X102414936Y-117344596D01*
X102394341Y-117579999D01*
X102394341Y-117580000D01*
X101355659Y-117580000D01*
X101335063Y-117344592D01*
X101273903Y-117116337D01*
X101174035Y-116902171D01*
X101159174Y-116880946D01*
X101038494Y-116708597D01*
X100871402Y-116541506D01*
X100871395Y-116541501D01*
X100677834Y-116405967D01*
X100677830Y-116405965D01*
X100677828Y-116405964D01*
X100463663Y-116306097D01*
X100463659Y-116306096D01*
X100463655Y-116306094D01*
X100235413Y-116244938D01*
X100235403Y-116244936D01*
X100000001Y-116224341D01*
X99999999Y-116224341D01*
X99764596Y-116244936D01*
X99764586Y-116244938D01*
X99536344Y-116306094D01*
X99536335Y-116306098D01*
X99322171Y-116405964D01*
X99322169Y-116405965D01*
X99128597Y-116541505D01*
X98961505Y-116708597D01*
X98825965Y-116902169D01*
X98825964Y-116902171D01*
X98726098Y-117116335D01*
X98726094Y-117116344D01*
X98664938Y-117344586D01*
X98664936Y-117344596D01*
X98644341Y-117579999D01*
X98644341Y-117580000D01*
X97605659Y-117580000D01*
X97585063Y-117344592D01*
X97523903Y-117116337D01*
X97424035Y-116902171D01*
X97409174Y-116880946D01*
X97288494Y-116708597D01*
X97121402Y-116541506D01*
X97121395Y-116541501D01*
X96927834Y-116405967D01*
X96927830Y-116405965D01*
X96927830Y-116405964D01*
X96713663Y-116306097D01*
X96713659Y-116306096D01*
X96713655Y-116306094D01*
X96485413Y-116244938D01*
X96485403Y-116244936D01*
X96250001Y-116224341D01*
X96249999Y-116224341D01*
X96014596Y-116244936D01*
X96014586Y-116244938D01*
X95786344Y-116306094D01*
X95786335Y-116306098D01*
X95572171Y-116405964D01*
X95572169Y-116405965D01*
X95378597Y-116541505D01*
X95211505Y-116708597D01*
X95075965Y-116902169D01*
X95075964Y-116902171D01*
X94976098Y-117116335D01*
X94976094Y-117116344D01*
X94914938Y-117344586D01*
X94914936Y-117344596D01*
X94894341Y-117579999D01*
X94894341Y-117580000D01*
X93855659Y-117580000D01*
X93835063Y-117344592D01*
X93773903Y-117116337D01*
X93674035Y-116902171D01*
X93659174Y-116880946D01*
X93538494Y-116708597D01*
X93371402Y-116541506D01*
X93371395Y-116541501D01*
X93177834Y-116405967D01*
X93177830Y-116405965D01*
X93177830Y-116405964D01*
X92963663Y-116306097D01*
X92963659Y-116306096D01*
X92963655Y-116306094D01*
X92735413Y-116244938D01*
X92735403Y-116244936D01*
X92500001Y-116224341D01*
X92499999Y-116224341D01*
X92264596Y-116244936D01*
X92264586Y-116244938D01*
X92036344Y-116306094D01*
X92036335Y-116306098D01*
X91822171Y-116405964D01*
X91822169Y-116405965D01*
X91628597Y-116541505D01*
X91461505Y-116708597D01*
X91325965Y-116902169D01*
X91325964Y-116902171D01*
X91226098Y-117116335D01*
X91226094Y-117116344D01*
X91164938Y-117344586D01*
X91164936Y-117344596D01*
X91144341Y-117579999D01*
X91144341Y-117580000D01*
X90105659Y-117580000D01*
X90085063Y-117344592D01*
X90023903Y-117116337D01*
X89924035Y-116902171D01*
X89909174Y-116880946D01*
X89788494Y-116708597D01*
X89621402Y-116541506D01*
X89621395Y-116541501D01*
X89427834Y-116405967D01*
X89427830Y-116405965D01*
X89427828Y-116405964D01*
X89213663Y-116306097D01*
X89213659Y-116306096D01*
X89213655Y-116306094D01*
X88985413Y-116244938D01*
X88985403Y-116244936D01*
X88750001Y-116224341D01*
X88749999Y-116224341D01*
X88514596Y-116244936D01*
X88514586Y-116244938D01*
X88286344Y-116306094D01*
X88286335Y-116306098D01*
X88072171Y-116405964D01*
X88072169Y-116405965D01*
X87878597Y-116541505D01*
X87711505Y-116708597D01*
X87575965Y-116902169D01*
X87575964Y-116902171D01*
X87476098Y-117116335D01*
X87476094Y-117116344D01*
X87414938Y-117344586D01*
X87414936Y-117344596D01*
X87394341Y-117579999D01*
X87394341Y-117580000D01*
X86355659Y-117580000D01*
X86335063Y-117344592D01*
X86273903Y-117116337D01*
X86174035Y-116902171D01*
X86159174Y-116880946D01*
X86038494Y-116708597D01*
X85871402Y-116541506D01*
X85871395Y-116541501D01*
X85677834Y-116405967D01*
X85677830Y-116405965D01*
X85677828Y-116405964D01*
X85463663Y-116306097D01*
X85463659Y-116306096D01*
X85463655Y-116306094D01*
X85235413Y-116244938D01*
X85235403Y-116244936D01*
X85000001Y-116224341D01*
X84999999Y-116224341D01*
X84764596Y-116244936D01*
X84764586Y-116244938D01*
X84536344Y-116306094D01*
X84536335Y-116306098D01*
X84322171Y-116405964D01*
X84322169Y-116405965D01*
X84128597Y-116541505D01*
X83961505Y-116708597D01*
X83825965Y-116902169D01*
X83825964Y-116902171D01*
X83726098Y-117116335D01*
X83726094Y-117116344D01*
X83664938Y-117344586D01*
X83664936Y-117344596D01*
X83644341Y-117579999D01*
X83644341Y-117580000D01*
X82605659Y-117580000D01*
X82585063Y-117344592D01*
X82523903Y-117116337D01*
X82424035Y-116902171D01*
X82409174Y-116880946D01*
X82288494Y-116708597D01*
X82121402Y-116541506D01*
X82121395Y-116541501D01*
X81927834Y-116405967D01*
X81927830Y-116405965D01*
X81927829Y-116405964D01*
X81713663Y-116306097D01*
X81713659Y-116306096D01*
X81713655Y-116306094D01*
X81485413Y-116244938D01*
X81485403Y-116244936D01*
X81250001Y-116224341D01*
X81249999Y-116224341D01*
X81014596Y-116244936D01*
X81014586Y-116244938D01*
X80786344Y-116306094D01*
X80786335Y-116306098D01*
X80572171Y-116405964D01*
X80572169Y-116405965D01*
X80378597Y-116541505D01*
X80211505Y-116708597D01*
X80075965Y-116902169D01*
X80075964Y-116902171D01*
X79976098Y-117116335D01*
X79976094Y-117116344D01*
X79914938Y-117344586D01*
X79914936Y-117344596D01*
X79894341Y-117579999D01*
X79894341Y-117580000D01*
X78855659Y-117580000D01*
X78835063Y-117344592D01*
X78773903Y-117116337D01*
X78674035Y-116902171D01*
X78659174Y-116880946D01*
X78538494Y-116708597D01*
X78371402Y-116541506D01*
X78371395Y-116541501D01*
X78177834Y-116405967D01*
X78177830Y-116405965D01*
X78177829Y-116405964D01*
X77963663Y-116306097D01*
X77963659Y-116306096D01*
X77963655Y-116306094D01*
X77735413Y-116244938D01*
X77735403Y-116244936D01*
X77500001Y-116224341D01*
X77499999Y-116224341D01*
X77264596Y-116244936D01*
X77264586Y-116244938D01*
X77036344Y-116306094D01*
X77036335Y-116306098D01*
X76822171Y-116405964D01*
X76822169Y-116405965D01*
X76628597Y-116541505D01*
X76461505Y-116708597D01*
X76325965Y-116902169D01*
X76325964Y-116902171D01*
X76226098Y-117116335D01*
X76226094Y-117116344D01*
X76164938Y-117344586D01*
X76164936Y-117344596D01*
X76144341Y-117579999D01*
X76144341Y-117580000D01*
X67500500Y-117580000D01*
X67500500Y-117293182D01*
X67500499Y-117293167D01*
X67480454Y-117051264D01*
X67480301Y-117048848D01*
X67476925Y-116971535D01*
X67472706Y-116957766D01*
X67466341Y-116880946D01*
X67421509Y-116612281D01*
X67421200Y-116610208D01*
X67412885Y-116547048D01*
X67409010Y-116537382D01*
X67398258Y-116472943D01*
X67322781Y-116174892D01*
X67322359Y-116173112D01*
X67312696Y-116129528D01*
X67309862Y-116123877D01*
X67296714Y-116071956D01*
X67182687Y-115739808D01*
X67182215Y-115738372D01*
X67177070Y-115722055D01*
X67175979Y-115720268D01*
X67162404Y-115680724D01*
X66996245Y-115301920D01*
X66832854Y-115000000D01*
X137500000Y-115000000D01*
X137500000Y-121474811D01*
G37*
G04 #@! TD.AperFunction*
G04 #@! TA.AperFunction,Conductor*
G36*
X140001279Y-22500552D02*
G01*
X140217340Y-22509489D01*
X140415936Y-22518160D01*
X140420863Y-22518574D01*
X140636814Y-22545492D01*
X140834704Y-22571545D01*
X140837265Y-22571883D01*
X140841894Y-22572671D01*
X141054230Y-22617193D01*
X141252525Y-22661155D01*
X141256784Y-22662259D01*
X141464528Y-22724107D01*
X141658658Y-22785317D01*
X141662539Y-22786684D01*
X141863961Y-22865279D01*
X141864938Y-22865672D01*
X142052790Y-22943483D01*
X142056226Y-22945032D01*
X142209776Y-23020098D01*
X142250290Y-23039905D01*
X142251687Y-23040609D01*
X142432009Y-23134479D01*
X142435107Y-23136207D01*
X142543221Y-23200628D01*
X142620611Y-23246742D01*
X142622127Y-23247676D01*
X142708578Y-23302752D01*
X142793663Y-23356958D01*
X142796377Y-23358789D01*
X142891730Y-23426870D01*
X142972053Y-23484219D01*
X142973769Y-23485490D01*
X143135117Y-23609297D01*
X143137426Y-23611159D01*
X143302150Y-23750673D01*
X143303956Y-23752264D01*
X143453912Y-23889673D01*
X143455827Y-23891506D01*
X143608491Y-24044170D01*
X143610328Y-24046089D01*
X143747725Y-24196032D01*
X143749325Y-24197848D01*
X143888839Y-24362572D01*
X143890716Y-24364899D01*
X144014508Y-24526229D01*
X144015779Y-24527945D01*
X144141209Y-24703621D01*
X144143040Y-24706335D01*
X144252298Y-24877833D01*
X144253269Y-24879409D01*
X144363791Y-25064891D01*
X144365525Y-25068000D01*
X144459388Y-25248310D01*
X144460093Y-25249708D01*
X144485619Y-25301920D01*
X144554953Y-25443744D01*
X144556524Y-25447229D01*
X144634296Y-25634987D01*
X144634775Y-25636177D01*
X144713309Y-25837446D01*
X144714681Y-25841340D01*
X144775902Y-26035505D01*
X144837735Y-26243200D01*
X144838843Y-26247473D01*
X144882825Y-26445862D01*
X144927326Y-26658101D01*
X144928115Y-26662733D01*
X144954515Y-26863253D01*
X144981422Y-27079114D01*
X144981839Y-27084080D01*
X144990519Y-27282870D01*
X144999447Y-27498718D01*
X144999500Y-27501280D01*
X144999500Y-32706832D01*
X145000000Y-32712866D01*
X145000000Y-52500000D01*
X141250000Y-48750000D01*
X137500001Y-45000000D01*
X137499999Y-44999999D01*
X99194075Y-39716423D01*
X99130354Y-39687763D01*
X99103631Y-39655586D01*
X99048827Y-39560664D01*
X99012510Y-39497761D01*
X98885848Y-39357089D01*
X98885847Y-39357088D01*
X98732711Y-39245828D01*
X98732706Y-39245825D01*
X98559784Y-39168834D01*
X98559779Y-39168832D01*
X98413977Y-39137842D01*
X98374623Y-39129477D01*
X98185331Y-39129477D01*
X98152874Y-39136375D01*
X98000174Y-39168832D01*
X98000169Y-39168834D01*
X97827247Y-39245825D01*
X97827242Y-39245828D01*
X97674108Y-39357087D01*
X97674105Y-39357089D01*
X97598198Y-39441391D01*
X97538711Y-39478039D01*
X97489106Y-39481255D01*
X66881658Y-35259538D01*
X66817937Y-35230878D01*
X66779826Y-35172317D01*
X66779426Y-35102449D01*
X66794793Y-35068879D01*
X66799366Y-35061878D01*
X66799372Y-35061869D01*
X66832854Y-35000000D01*
X137500000Y-35000000D01*
X137500000Y-28525189D01*
X137604455Y-28757279D01*
X137768901Y-29029306D01*
X137773473Y-29036868D01*
X137974954Y-29294039D01*
X138205960Y-29525045D01*
X138463131Y-29726526D01*
X138463134Y-29726528D01*
X138463137Y-29726530D01*
X138742721Y-29895545D01*
X139040639Y-30029627D01*
X139040652Y-30029631D01*
X139040657Y-30029633D01*
X139304628Y-30111889D01*
X139352547Y-30126821D01*
X139673896Y-30185710D01*
X140000000Y-30205436D01*
X140326104Y-30185710D01*
X140647453Y-30126821D01*
X140959361Y-30029627D01*
X141257279Y-29895545D01*
X141536863Y-29726530D01*
X141794036Y-29525048D01*
X142025048Y-29294036D01*
X142226530Y-29036863D01*
X142395545Y-28757279D01*
X142529627Y-28459361D01*
X142544114Y-28412872D01*
X142626821Y-28147452D01*
X142685710Y-27826104D01*
X142705436Y-27500000D01*
X142685710Y-27173896D01*
X142626821Y-26852547D01*
X142567673Y-26662733D01*
X142529633Y-26540657D01*
X142529631Y-26540652D01*
X142529627Y-26540639D01*
X142395545Y-26242721D01*
X142226530Y-25963137D01*
X142226528Y-25963134D01*
X142226526Y-25963131D01*
X142025045Y-25705960D01*
X141794039Y-25474954D01*
X141536868Y-25273473D01*
X141495243Y-25248310D01*
X141257279Y-25104455D01*
X140959361Y-24970373D01*
X140959354Y-24970370D01*
X140959342Y-24970366D01*
X140647452Y-24873178D01*
X140326099Y-24814289D01*
X140000000Y-24794564D01*
X139673900Y-24814289D01*
X139352547Y-24873178D01*
X139040657Y-24970366D01*
X139040641Y-24970372D01*
X139040639Y-24970373D01*
X138850933Y-25055752D01*
X138742725Y-25104453D01*
X138742723Y-25104454D01*
X138463131Y-25273473D01*
X138205960Y-25474954D01*
X137974954Y-25705960D01*
X137773473Y-25963131D01*
X137707686Y-26071956D01*
X137604455Y-26242721D01*
X137500841Y-26472943D01*
X137500000Y-26474811D01*
X137500000Y-22500500D01*
X139998720Y-22500500D01*
X140001279Y-22500552D01*
G37*
G04 #@! TD.AperFunction*
M02*
