%TF.GenerationSoftware,KiCad,Pcbnew,7.0.5*%
%TF.CreationDate,2024-01-08T18:30:08+10:00*%
%TF.ProjectId,HEXCORE PCB Design v1,48455843-4f52-4452-9050-434220446573,rev?*%
%TF.SameCoordinates,Original*%
%TF.FileFunction,Copper,L1,Top*%
%TF.FilePolarity,Positive*%
%FSLAX46Y46*%
G04 Gerber Fmt 4.6, Leading zero omitted, Abs format (unit mm)*
G04 Created by KiCad (PCBNEW 7.0.5) date 2024-01-08 18:30:08*
%MOMM*%
%LPD*%
G01*
G04 APERTURE LIST*
G04 Aperture macros list*
%AMRoundRect*
0 Rectangle with rounded corners*
0 $1 Rounding radius*
0 $2 $3 $4 $5 $6 $7 $8 $9 X,Y pos of 4 corners*
0 Add a 4 corners polygon primitive as box body*
4,1,4,$2,$3,$4,$5,$6,$7,$8,$9,$2,$3,0*
0 Add four circle primitives for the rounded corners*
1,1,$1+$1,$2,$3*
1,1,$1+$1,$4,$5*
1,1,$1+$1,$6,$7*
1,1,$1+$1,$8,$9*
0 Add four rect primitives between the rounded corners*
20,1,$1+$1,$2,$3,$4,$5,0*
20,1,$1+$1,$4,$5,$6,$7,0*
20,1,$1+$1,$6,$7,$8,$9,0*
20,1,$1+$1,$8,$9,$2,$3,0*%
%AMRotRect*
0 Rectangle, with rotation*
0 The origin of the aperture is its center*
0 $1 length*
0 $2 width*
0 $3 Rotation angle, in degrees counterclockwise*
0 Add horizontal line*
21,1,$1,$2,0,0,$3*%
G04 Aperture macros list end*
%TA.AperFunction,SMDPad,CuDef*%
%ADD10RoundRect,0.100000X0.162635X-0.021213X-0.021213X0.162635X-0.162635X0.021213X0.021213X-0.162635X0*%
%TD*%
%TA.AperFunction,SMDPad,CuDef*%
%ADD11R,0.900000X1.500000*%
%TD*%
%TA.AperFunction,ComponentPad*%
%ADD12C,1.500000*%
%TD*%
%TA.AperFunction,ComponentPad*%
%ADD13R,1.500000X1.500000*%
%TD*%
%TA.AperFunction,SMDPad,CuDef*%
%ADD14RoundRect,0.100000X-0.130000X-0.100000X0.130000X-0.100000X0.130000X0.100000X-0.130000X0.100000X0*%
%TD*%
%TA.AperFunction,SMDPad,CuDef*%
%ADD15R,1.500000X2.000000*%
%TD*%
%TA.AperFunction,SMDPad,CuDef*%
%ADD16R,3.800000X2.000000*%
%TD*%
%TA.AperFunction,SMDPad,CuDef*%
%ADD17RoundRect,0.100000X0.130000X0.100000X-0.130000X0.100000X-0.130000X-0.100000X0.130000X-0.100000X0*%
%TD*%
%TA.AperFunction,ComponentPad*%
%ADD18R,1.700000X1.700000*%
%TD*%
%TA.AperFunction,ComponentPad*%
%ADD19O,1.700000X1.700000*%
%TD*%
%TA.AperFunction,SMDPad,CuDef*%
%ADD20RoundRect,0.140000X0.219203X0.021213X0.021213X0.219203X-0.219203X-0.021213X-0.021213X-0.219203X0*%
%TD*%
%TA.AperFunction,SMDPad,CuDef*%
%ADD21RoundRect,0.100000X0.100000X-0.130000X0.100000X0.130000X-0.100000X0.130000X-0.100000X-0.130000X0*%
%TD*%
%TA.AperFunction,ComponentPad*%
%ADD22RoundRect,0.250000X-0.725000X0.600000X-0.725000X-0.600000X0.725000X-0.600000X0.725000X0.600000X0*%
%TD*%
%TA.AperFunction,ComponentPad*%
%ADD23O,1.950000X1.700000*%
%TD*%
%TA.AperFunction,ComponentPad*%
%ADD24R,1.000000X1.000000*%
%TD*%
%TA.AperFunction,ComponentPad*%
%ADD25O,1.000000X1.000000*%
%TD*%
%TA.AperFunction,SMDPad,CuDef*%
%ADD26RoundRect,0.075000X0.075000X-0.437500X0.075000X0.437500X-0.075000X0.437500X-0.075000X-0.437500X0*%
%TD*%
%TA.AperFunction,SMDPad,CuDef*%
%ADD27RoundRect,0.075000X0.437500X-0.075000X0.437500X0.075000X-0.437500X0.075000X-0.437500X-0.075000X0*%
%TD*%
%TA.AperFunction,SMDPad,CuDef*%
%ADD28R,4.250000X4.250000*%
%TD*%
%TA.AperFunction,SMDPad,CuDef*%
%ADD29RoundRect,0.075000X-0.441942X-0.548008X0.548008X0.441942X0.441942X0.548008X-0.548008X-0.441942X0*%
%TD*%
%TA.AperFunction,SMDPad,CuDef*%
%ADD30RoundRect,0.075000X0.441942X-0.548008X0.548008X-0.441942X-0.441942X0.548008X-0.548008X0.441942X0*%
%TD*%
%TA.AperFunction,SMDPad,CuDef*%
%ADD31RoundRect,0.225000X0.017678X-0.335876X0.335876X-0.017678X-0.017678X0.335876X-0.335876X0.017678X0*%
%TD*%
%TA.AperFunction,SMDPad,CuDef*%
%ADD32RoundRect,0.225000X0.250000X-0.225000X0.250000X0.225000X-0.250000X0.225000X-0.250000X-0.225000X0*%
%TD*%
%TA.AperFunction,SMDPad,CuDef*%
%ADD33RoundRect,0.250000X0.362500X1.425000X-0.362500X1.425000X-0.362500X-1.425000X0.362500X-1.425000X0*%
%TD*%
%TA.AperFunction,ComponentPad*%
%ADD34O,2.200000X3.500000*%
%TD*%
%TA.AperFunction,ComponentPad*%
%ADD35R,1.500000X2.500000*%
%TD*%
%TA.AperFunction,ComponentPad*%
%ADD36O,1.500000X2.500000*%
%TD*%
%TA.AperFunction,SMDPad,CuDef*%
%ADD37RoundRect,0.075000X-0.350000X-0.075000X0.350000X-0.075000X0.350000X0.075000X-0.350000X0.075000X0*%
%TD*%
%TA.AperFunction,SMDPad,CuDef*%
%ADD38RoundRect,0.075000X0.075000X-0.350000X0.075000X0.350000X-0.075000X0.350000X-0.075000X-0.350000X0*%
%TD*%
%TA.AperFunction,SMDPad,CuDef*%
%ADD39RoundRect,0.135000X-0.135000X-0.185000X0.135000X-0.185000X0.135000X0.185000X-0.135000X0.185000X0*%
%TD*%
%TA.AperFunction,ComponentPad*%
%ADD40C,3.800000*%
%TD*%
%TA.AperFunction,SMDPad,CuDef*%
%ADD41RoundRect,0.140000X-0.021213X0.219203X-0.219203X0.021213X0.021213X-0.219203X0.219203X-0.021213X0*%
%TD*%
%TA.AperFunction,ComponentPad*%
%ADD42RoundRect,1.500000X-1.500000X-1.500000X1.500000X-1.500000X1.500000X1.500000X-1.500000X1.500000X0*%
%TD*%
%TA.AperFunction,ComponentPad*%
%ADD43C,6.000000*%
%TD*%
%TA.AperFunction,SMDPad,CuDef*%
%ADD44RoundRect,0.140000X0.021213X-0.219203X0.219203X-0.021213X-0.021213X0.219203X-0.219203X0.021213X0*%
%TD*%
%TA.AperFunction,SMDPad,CuDef*%
%ADD45RoundRect,0.135000X-0.185000X0.135000X-0.185000X-0.135000X0.185000X-0.135000X0.185000X0.135000X0*%
%TD*%
%TA.AperFunction,SMDPad,CuDef*%
%ADD46RoundRect,0.150000X-0.150000X0.512500X-0.150000X-0.512500X0.150000X-0.512500X0.150000X0.512500X0*%
%TD*%
%TA.AperFunction,SMDPad,CuDef*%
%ADD47RoundRect,0.250001X2.049999X0.799999X-2.049999X0.799999X-2.049999X-0.799999X2.049999X-0.799999X0*%
%TD*%
%TA.AperFunction,SMDPad,CuDef*%
%ADD48RoundRect,0.225000X-0.250000X0.225000X-0.250000X-0.225000X0.250000X-0.225000X0.250000X0.225000X0*%
%TD*%
%TA.AperFunction,SMDPad,CuDef*%
%ADD49RoundRect,0.218750X-0.026517X0.335876X-0.335876X0.026517X0.026517X-0.335876X0.335876X-0.026517X0*%
%TD*%
%TA.AperFunction,SMDPad,CuDef*%
%ADD50RoundRect,0.250000X-0.712500X-2.475000X0.712500X-2.475000X0.712500X2.475000X-0.712500X2.475000X0*%
%TD*%
%TA.AperFunction,SMDPad,CuDef*%
%ADD51RoundRect,0.135000X0.185000X-0.135000X0.185000X0.135000X-0.185000X0.135000X-0.185000X-0.135000X0*%
%TD*%
%TA.AperFunction,SMDPad,CuDef*%
%ADD52RotRect,1.150000X1.000000X225.000000*%
%TD*%
%TA.AperFunction,SMDPad,CuDef*%
%ADD53RoundRect,0.218750X-0.256250X0.218750X-0.256250X-0.218750X0.256250X-0.218750X0.256250X0.218750X0*%
%TD*%
%TA.AperFunction,SMDPad,CuDef*%
%ADD54RoundRect,0.135000X0.135000X0.185000X-0.135000X0.185000X-0.135000X-0.185000X0.135000X-0.185000X0*%
%TD*%
%TA.AperFunction,SMDPad,CuDef*%
%ADD55RoundRect,0.250001X-2.049999X-0.799999X2.049999X-0.799999X2.049999X0.799999X-2.049999X0.799999X0*%
%TD*%
%TA.AperFunction,SMDPad,CuDef*%
%ADD56RoundRect,0.135000X-0.035355X0.226274X-0.226274X0.035355X0.035355X-0.226274X0.226274X-0.035355X0*%
%TD*%
%TA.AperFunction,SMDPad,CuDef*%
%ADD57RoundRect,0.140000X-0.219203X-0.021213X-0.021213X-0.219203X0.219203X0.021213X0.021213X0.219203X0*%
%TD*%
%TA.AperFunction,SMDPad,CuDef*%
%ADD58R,0.450000X1.425000*%
%TD*%
%TA.AperFunction,SMDPad,CuDef*%
%ADD59R,1.550000X1.300000*%
%TD*%
%TA.AperFunction,SMDPad,CuDef*%
%ADD60RoundRect,0.100000X-0.162635X0.021213X0.021213X-0.162635X0.162635X-0.021213X-0.021213X0.162635X0*%
%TD*%
%TA.AperFunction,SMDPad,CuDef*%
%ADD61RoundRect,0.075000X-0.075000X0.437500X-0.075000X-0.437500X0.075000X-0.437500X0.075000X0.437500X0*%
%TD*%
%TA.AperFunction,SMDPad,CuDef*%
%ADD62RoundRect,0.075000X-0.437500X0.075000X-0.437500X-0.075000X0.437500X-0.075000X0.437500X0.075000X0*%
%TD*%
%TA.AperFunction,SMDPad,CuDef*%
%ADD63R,0.400000X1.250000*%
%TD*%
%TA.AperFunction,ComponentPad*%
%ADD64C,1.300000*%
%TD*%
%TA.AperFunction,ComponentPad*%
%ADD65C,1.900000*%
%TD*%
%TA.AperFunction,SMDPad,CuDef*%
%ADD66RoundRect,0.250000X0.712500X2.475000X-0.712500X2.475000X-0.712500X-2.475000X0.712500X-2.475000X0*%
%TD*%
%TA.AperFunction,ComponentPad*%
%ADD67C,1.700000*%
%TD*%
%TA.AperFunction,ViaPad*%
%ADD68C,0.800000*%
%TD*%
%TA.AperFunction,ViaPad*%
%ADD69C,0.700000*%
%TD*%
%TA.AperFunction,Conductor*%
%ADD70C,0.250000*%
%TD*%
%TA.AperFunction,Conductor*%
%ADD71C,0.300000*%
%TD*%
%TA.AperFunction,Conductor*%
%ADD72C,0.200000*%
%TD*%
G04 APERTURE END LIST*
D10*
%TO.P,R59,2*%
%TO.N,Net-(D3-DIN)*%
X74767678Y-55017678D03*
%TO.P,R59,1*%
%TO.N,STATUS_IN*%
X75220226Y-55470226D03*
%TD*%
D11*
%TO.P,D3,1,VDD*%
%TO.N,+3.3V*%
X74100000Y-47550000D03*
%TO.P,D3,2,DOUT*%
%TO.N,unconnected-(D3-DOUT-Pad2)*%
X70800000Y-47550000D03*
%TO.P,D3,3,VSS*%
%TO.N,GND*%
X70800000Y-52450000D03*
%TO.P,D3,4,DIN*%
%TO.N,Net-(D3-DIN)*%
X74100000Y-52450000D03*
%TD*%
D12*
%TO.P,U6,4,GND*%
%TO.N,GND*%
X77420000Y-100000000D03*
%TO.P,U6,3,NC*%
%TO.N,unconnected-(U6-NC-Pad3)*%
X79960000Y-100000000D03*
%TO.P,U6,2,IO*%
%TO.N,DHT11_DA*%
X82500000Y-100000000D03*
D13*
%TO.P,U6,1,VCC*%
%TO.N,+3.3V*%
X85040000Y-100000000D03*
%TD*%
D14*
%TO.P,R9,1*%
%TO.N,Servo2*%
X47525000Y-62500000D03*
%TO.P,R9,2*%
%TO.N,Net-(U2-LED2)*%
X48165000Y-62500000D03*
%TD*%
D15*
%TO.P,U8,1,GND*%
%TO.N,GND*%
X83650000Y-170650000D03*
%TO.P,U8,2,VO*%
%TO.N,/NO_FUSE_3V3*%
X85950000Y-170650000D03*
D16*
X85950000Y-164350000D03*
D15*
%TO.P,U8,3,VI*%
%TO.N,+7.5V*%
X88250000Y-170650000D03*
%TD*%
D14*
%TO.P,R13,1*%
%TO.N,Servo6*%
X47525000Y-82500000D03*
%TO.P,R13,2*%
%TO.N,Net-(U2-LED6)*%
X48165000Y-82500000D03*
%TD*%
D17*
%TO.P,R29,1*%
%TO.N,Servo16*%
X112475000Y-127500000D03*
%TO.P,R29,2*%
%TO.N,Net-(U3-LED0)*%
X111835000Y-127500000D03*
%TD*%
%TO.P,R25,1*%
%TO.N,U2A2*%
X100000000Y-85000000D03*
%TO.P,R25,2*%
%TO.N,GND*%
X99360000Y-85000000D03*
%TD*%
D14*
%TO.P,R57,1*%
%TO.N,Net-(U2-~{OE})*%
X62180000Y-69250000D03*
%TO.P,R57,2*%
%TO.N,GND*%
X62820000Y-69250000D03*
%TD*%
D18*
%TO.P,J35,1,Pin_1*%
%TO.N,GND*%
X120040000Y-97500000D03*
D19*
%TO.P,J35,2,Pin_2*%
%TO.N,+7.5V*%
X117500000Y-97500000D03*
%TO.P,J35,3,Pin_3*%
%TO.N,Servo22*%
X114960000Y-97500000D03*
%TD*%
D10*
%TO.P,C13,1*%
%TO.N,HSE_OUT*%
X73480277Y-70980277D03*
%TO.P,C13,2*%
%TO.N,GND*%
X73027729Y-70527729D03*
%TD*%
D20*
%TO.P,C7,1*%
%TO.N,+3.3VA*%
X75428822Y-72928822D03*
%TO.P,C7,2*%
%TO.N,GND*%
X74750000Y-72250000D03*
%TD*%
D14*
%TO.P,R2,1*%
%TO.N,U1A1*%
X60025000Y-85000000D03*
%TO.P,R2,2*%
%TO.N,GND*%
X60665000Y-85000000D03*
%TD*%
D18*
%TO.P,J40,1,Pin_1*%
%TO.N,GND*%
X120040000Y-72500000D03*
D19*
%TO.P,J40,2,Pin_2*%
%TO.N,+7.5V*%
X117500000Y-72500000D03*
%TO.P,J40,3,Pin_3*%
%TO.N,Servo27*%
X114960000Y-72500000D03*
%TD*%
D14*
%TO.P,R12,1*%
%TO.N,Servo5*%
X47525000Y-77500000D03*
%TO.P,R12,2*%
%TO.N,Net-(U2-LED5)*%
X48165000Y-77500000D03*
%TD*%
D18*
%TO.P,J24,1,Pin_1*%
%TO.N,U2A1*%
X100000000Y-92460000D03*
D19*
%TO.P,J24,2,Pin_2*%
%TO.N,+3.3V*%
X97460000Y-92460000D03*
%TD*%
D21*
%TO.P,C10,1*%
%TO.N,GND*%
X60500000Y-35915000D03*
%TO.P,C10,2*%
%TO.N,/RESET_CAP*%
X60500000Y-35275000D03*
%TD*%
D22*
%TO.P,J57,1,Pin_1*%
%TO.N,GND*%
X64500000Y-162500000D03*
D23*
%TO.P,J57,2,Pin_2*%
%TO.N,+3.3V*%
X64500000Y-165000000D03*
%TO.P,J57,3,Pin_3*%
%TO.N,+7.5V*%
X64500000Y-167500000D03*
%TD*%
D17*
%TO.P,R43,1*%
%TO.N,Servo30*%
X112475000Y-57500000D03*
%TO.P,R43,2*%
%TO.N,Net-(U3-LED14)*%
X111835000Y-57500000D03*
%TD*%
%TO.P,R27,1*%
%TO.N,U2A4*%
X99975000Y-75000000D03*
%TO.P,R27,2*%
%TO.N,GND*%
X99335000Y-75000000D03*
%TD*%
D24*
%TO.P,J55,1,VTref*%
%TO.N,+3.3V*%
X66270000Y-34920000D03*
D25*
%TO.P,J55,2,SWDIO/TMS*%
%TO.N,Net-(J55-SWDIO{slash}TMS)*%
X67540000Y-34920000D03*
%TO.P,J55,3,GND*%
%TO.N,GND*%
X66270000Y-36190000D03*
%TO.P,J55,4,SWDCLK/TCK*%
%TO.N,Net-(J55-SWDCLK{slash}TCK)*%
X67540000Y-36190000D03*
%TO.P,J55,5,GND*%
%TO.N,GND*%
X66270000Y-37460000D03*
%TO.P,J55,6,SWO/TDO*%
%TO.N,Net-(J55-SWO{slash}TDO)*%
X67540000Y-37460000D03*
%TO.P,J55,7,KEY*%
%TO.N,unconnected-(J55-KEY-Pad7)*%
X66270000Y-38730000D03*
%TO.P,J55,8,NC/TDI*%
%TO.N,unconnected-(J55-NC{slash}TDI-Pad8)*%
X67540000Y-38730000D03*
%TO.P,J55,9,GNDDetect*%
%TO.N,GND*%
X66270000Y-40000000D03*
%TO.P,J55,10,~{RESET}*%
%TO.N,Net-(J55-~{RESET})*%
X67540000Y-40000000D03*
%TD*%
D26*
%TO.P,U3,1,A3*%
%TO.N,U2A3*%
X98050000Y-67837500D03*
%TO.P,U3,2,A4*%
%TO.N,U2A4*%
X98700000Y-67837500D03*
%TO.P,U3,3,LED0*%
%TO.N,Net-(U3-LED0)*%
X99350000Y-67837500D03*
%TO.P,U3,4,LED1*%
%TO.N,Net-(U3-LED1)*%
X100000000Y-67837500D03*
%TO.P,U3,5,LED2*%
%TO.N,Net-(U3-LED2)*%
X100650000Y-67837500D03*
%TO.P,U3,6,LED3*%
%TO.N,Net-(U3-LED3)*%
X101300000Y-67837500D03*
%TO.P,U3,7,LED4*%
%TO.N,Net-(U3-LED4)*%
X101950000Y-67837500D03*
D27*
%TO.P,U3,8,LED5*%
%TO.N,Net-(U3-LED5)*%
X102837500Y-66950000D03*
%TO.P,U3,9,LED6*%
%TO.N,Net-(U3-LED6)*%
X102837500Y-66300000D03*
%TO.P,U3,10,LED7*%
%TO.N,Net-(U3-LED7)*%
X102837500Y-65650000D03*
%TO.P,U3,11,VSS*%
%TO.N,GND*%
X102837500Y-65000000D03*
%TO.P,U3,12,LED8*%
%TO.N,Net-(U3-LED8)*%
X102837500Y-64350000D03*
%TO.P,U3,13,LED9*%
%TO.N,Net-(U3-LED9)*%
X102837500Y-63700000D03*
%TO.P,U3,14,LED10*%
%TO.N,Net-(U3-LED10)*%
X102837500Y-63050000D03*
D26*
%TO.P,U3,15,LED11*%
%TO.N,Net-(U3-LED11)*%
X101950000Y-62162500D03*
%TO.P,U3,16,LED12*%
%TO.N,Net-(U3-LED12)*%
X101300000Y-62162500D03*
%TO.P,U3,17,LED13*%
%TO.N,Net-(U3-LED13)*%
X100650000Y-62162500D03*
%TO.P,U3,18,LED14*%
%TO.N,Net-(U3-LED14)*%
X100000000Y-62162500D03*
%TO.P,U3,19,LED15*%
%TO.N,Net-(U3-LED15)*%
X99350000Y-62162500D03*
%TO.P,U3,20,~{OE}*%
%TO.N,Net-(U3-~{OE})*%
X98700000Y-62162500D03*
%TO.P,U3,21,A5*%
%TO.N,U2A5*%
X98050000Y-62162500D03*
D27*
%TO.P,U3,22,EXTCLK*%
%TO.N,unconnected-(U3-EXTCLK-Pad22)*%
X97162500Y-63050000D03*
%TO.P,U3,23,SCL*%
%TO.N,I2C1_SCL*%
X97162500Y-63700000D03*
%TO.P,U3,24,SDA*%
%TO.N,I2C1_SDA*%
X97162500Y-64350000D03*
%TO.P,U3,25,VDD*%
%TO.N,+3.3V*%
X97162500Y-65000000D03*
%TO.P,U3,26,A0*%
%TO.N,U2A0*%
X97162500Y-65650000D03*
%TO.P,U3,27,A1*%
%TO.N,U2A1*%
X97162500Y-66300000D03*
%TO.P,U3,28,A2*%
%TO.N,U2A2*%
X97162500Y-66950000D03*
D28*
%TO.P,U3,29,VSS*%
%TO.N,GND*%
X100000000Y-65000000D03*
%TD*%
D22*
%TO.P,J47,1,Pin_1*%
%TO.N,I2C2_SDA*%
X95000000Y-132500000D03*
D23*
%TO.P,J47,2,Pin_2*%
%TO.N,I2C2_SCL*%
X95000000Y-135000000D03*
%TO.P,J47,3,Pin_3*%
%TO.N,GND*%
X95000000Y-137500000D03*
%TO.P,J47,4,Pin_4*%
%TO.N,+3.3V*%
X95000000Y-140000000D03*
%TD*%
D29*
%TO.P,U1,1,VBAT*%
%TO.N,+3.3V*%
X73335519Y-66361181D03*
%TO.P,U1,2,PC13*%
%TO.N,/PC13*%
X73689072Y-66714734D03*
%TO.P,U1,3,PC14*%
%TO.N,/PC14*%
X74042625Y-67068287D03*
%TO.P,U1,4,PC15*%
%TO.N,/PC15*%
X74396179Y-67421841D03*
%TO.P,U1,5,PH0*%
%TO.N,HSE_IN*%
X74749732Y-67775394D03*
%TO.P,U1,6,PH1*%
%TO.N,HSE_OUT*%
X75103286Y-68128948D03*
%TO.P,U1,7,NRST*%
%TO.N,NRST*%
X75456839Y-68482501D03*
%TO.P,U1,8,PC0*%
%TO.N,DHT11_DA*%
X75810392Y-68836054D03*
%TO.P,U1,9,PC1*%
%TO.N,NRF_IRQ*%
X76163946Y-69189608D03*
%TO.P,U1,10,PC2*%
%TO.N,SPI2_MISO*%
X76517499Y-69543161D03*
%TO.P,U1,11,PC3*%
%TO.N,SPI2_MOSI*%
X76871052Y-69896714D03*
%TO.P,U1,12,VSSA*%
%TO.N,GND*%
X77224606Y-70250268D03*
%TO.P,U1,13,VDDA*%
%TO.N,+3.3VA*%
X77578159Y-70603821D03*
%TO.P,U1,14,PA0*%
%TO.N,NRF_CE*%
X77931713Y-70957375D03*
%TO.P,U1,15,PA1*%
%TO.N,NRF_CSN*%
X78285266Y-71310928D03*
%TO.P,U1,16,PA2*%
%TO.N,USART2_TX*%
X78638819Y-71664481D03*
D30*
%TO.P,U1,17,PA3*%
%TO.N,USART2_RX*%
X81361181Y-71664481D03*
%TO.P,U1,18,VSS*%
%TO.N,GND*%
X81714734Y-71310928D03*
%TO.P,U1,19,VDD*%
%TO.N,+3.3V*%
X82068287Y-70957375D03*
%TO.P,U1,20,PA4*%
%TO.N,USART2_CK*%
X82421841Y-70603821D03*
%TO.P,U1,21,PA5*%
%TO.N,SPI1_SCK*%
X82775394Y-70250268D03*
%TO.P,U1,22,PA6*%
%TO.N,SPI1_MISO*%
X83128948Y-69896714D03*
%TO.P,U1,23,PA7*%
%TO.N,SPI1_MOSI*%
X83482501Y-69543161D03*
%TO.P,U1,24,PC4*%
%TO.N,/PC4*%
X83836054Y-69189608D03*
%TO.P,U1,25,PC5*%
%TO.N,/PC5*%
X84189608Y-68836054D03*
%TO.P,U1,26,PB0*%
%TO.N,/PB0*%
X84543161Y-68482501D03*
%TO.P,U1,27,PB1*%
%TO.N,/PB1*%
X84896714Y-68128948D03*
%TO.P,U1,28,PB2*%
%TO.N,PWR_INT*%
X85250268Y-67775394D03*
%TO.P,U1,29,PB10*%
%TO.N,I2C2_SCL*%
X85603821Y-67421841D03*
%TO.P,U1,30,PB11*%
%TO.N,I2C2_SDA*%
X85957375Y-67068287D03*
%TO.P,U1,31,VCAP_1*%
%TO.N,Net-(U1-VCAP_1)*%
X86310928Y-66714734D03*
%TO.P,U1,32,VDD*%
%TO.N,+3.3V*%
X86664481Y-66361181D03*
D29*
%TO.P,U1,33,PB12*%
%TO.N,/PB12*%
X86664481Y-63638819D03*
%TO.P,U1,34,PB13*%
%TO.N,SPI2_SCK*%
X86310928Y-63285266D03*
%TO.P,U1,35,PB14*%
%TO.N,/PB14*%
X85957375Y-62931713D03*
%TO.P,U1,36,PB15*%
%TO.N,/PB15*%
X85603821Y-62578159D03*
%TO.P,U1,37,PC6*%
%TO.N,/PC6*%
X85250268Y-62224606D03*
%TO.P,U1,38,PC7*%
%TO.N,/PC7*%
X84896714Y-61871052D03*
%TO.P,U1,39,PC8*%
%TO.N,IMU_INT*%
X84543161Y-61517499D03*
%TO.P,U1,40,PC9*%
%TO.N,I2C3_SDA*%
X84189608Y-61163946D03*
%TO.P,U1,41,PA8*%
%TO.N,I2C3_SCL*%
X83836054Y-60810392D03*
%TO.P,U1,42,PA9*%
%TO.N,/PA9*%
X83482501Y-60456839D03*
%TO.P,U1,43,PA10*%
%TO.N,USB_ID*%
X83128948Y-60103286D03*
%TO.P,U1,44,PA11*%
%TO.N,USB_D-*%
X82775394Y-59749732D03*
%TO.P,U1,45,PA12*%
%TO.N,USB_D+*%
X82421841Y-59396179D03*
%TO.P,U1,46,PA13*%
%TO.N,SWDIO*%
X82068287Y-59042625D03*
%TO.P,U1,47,VCAP_2*%
%TO.N,Net-(U1-VCAP_2)*%
X81714734Y-58689072D03*
%TO.P,U1,48,VDD*%
%TO.N,+3.3V*%
X81361181Y-58335519D03*
D30*
%TO.P,U1,49,PA14*%
%TO.N,SWDCLK*%
X78638819Y-58335519D03*
%TO.P,U1,50,PA15*%
%TO.N,STATUS_IN*%
X78285266Y-58689072D03*
%TO.P,U1,51,PC10*%
%TO.N,/PC10*%
X77931713Y-59042625D03*
%TO.P,U1,52,PC11*%
%TO.N,/PC11*%
X77578159Y-59396179D03*
%TO.P,U1,53,PC12*%
%TO.N,/PC12*%
X77224606Y-59749732D03*
%TO.P,U1,54,PD2*%
%TO.N,unconnected-(U1-PD2-Pad54)*%
X76871052Y-60103286D03*
%TO.P,U1,55,PB3*%
%TO.N,SWDO*%
X76517499Y-60456839D03*
%TO.P,U1,56,PB4*%
%TO.N,/PB4*%
X76163946Y-60810392D03*
%TO.P,U1,57,PB5*%
%TO.N,/PB5*%
X75810392Y-61163946D03*
%TO.P,U1,58,PB6*%
%TO.N,I2C1_SCL*%
X75456839Y-61517499D03*
%TO.P,U1,59,PB7*%
%TO.N,I2C1_SDA*%
X75103286Y-61871052D03*
%TO.P,U1,60,BOOT0*%
%TO.N,/BOOT0*%
X74749732Y-62224606D03*
%TO.P,U1,61,PB8*%
%TO.N,/PB8*%
X74396179Y-62578159D03*
%TO.P,U1,62,PB9*%
%TO.N,/PB9*%
X74042625Y-62931713D03*
%TO.P,U1,63,VSS*%
%TO.N,GND*%
X73689072Y-63285266D03*
%TO.P,U1,64,VDD*%
%TO.N,+3.3V*%
X73335519Y-63638819D03*
%TD*%
D18*
%TO.P,J17,1,Pin_1*%
%TO.N,GND*%
X39960000Y-102500000D03*
D19*
%TO.P,J17,2,Pin_2*%
%TO.N,+7.5V*%
X42500000Y-102500000D03*
%TO.P,J17,3,Pin_3*%
%TO.N,Servo10*%
X45040000Y-102500000D03*
%TD*%
D20*
%TO.P,C8,1*%
%TO.N,+3.3VA*%
X74678822Y-73678822D03*
%TO.P,C8,2*%
%TO.N,GND*%
X74000000Y-73000000D03*
%TD*%
D14*
%TO.P,R21,1*%
%TO.N,Servo14*%
X47525000Y-122184567D03*
%TO.P,R21,2*%
%TO.N,Net-(U2-LED14)*%
X48165000Y-122184567D03*
%TD*%
D31*
%TO.P,C6,1*%
%TO.N,+3.3V*%
X81653984Y-55596016D03*
%TO.P,C6,2*%
%TO.N,GND*%
X82750000Y-54500000D03*
%TD*%
D17*
%TO.P,C19,1*%
%TO.N,GND*%
X99475000Y-45500000D03*
%TO.P,C19,2*%
%TO.N,Net-(U7-CPOUT)*%
X98835000Y-45500000D03*
%TD*%
D14*
%TO.P,R7,1*%
%TO.N,Servo0*%
X47525000Y-52500000D03*
%TO.P,R7,2*%
%TO.N,Net-(U2-LED0)*%
X48165000Y-52500000D03*
%TD*%
D17*
%TO.P,R30,1*%
%TO.N,Servo17*%
X112475000Y-122500000D03*
%TO.P,R30,2*%
%TO.N,Net-(U3-LED1)*%
X111835000Y-122500000D03*
%TD*%
D18*
%TO.P,J19,1,Pin_1*%
%TO.N,GND*%
X39960000Y-112500000D03*
D19*
%TO.P,J19,2,Pin_2*%
%TO.N,+7.5V*%
X42500000Y-112500000D03*
%TO.P,J19,3,Pin_3*%
%TO.N,Servo12*%
X45040000Y-112500000D03*
%TD*%
D32*
%TO.P,C15,1*%
%TO.N,+7.5V*%
X90750000Y-170650000D03*
%TO.P,C15,2*%
%TO.N,GND*%
X90750000Y-169100000D03*
%TD*%
D21*
%TO.P,R45,1*%
%TO.N,/BOOT0*%
X97000000Y-41225000D03*
%TO.P,R45,2*%
%TO.N,/SW_BOOT0*%
X97000000Y-40585000D03*
%TD*%
D14*
%TO.P,R11,1*%
%TO.N,Servo4*%
X47525000Y-72500000D03*
%TO.P,R11,2*%
%TO.N,Net-(U2-LED4)*%
X48165000Y-72500000D03*
%TD*%
D18*
%TO.P,J38,1,Pin_1*%
%TO.N,GND*%
X120080000Y-82500000D03*
D19*
%TO.P,J38,2,Pin_2*%
%TO.N,+7.5V*%
X117540000Y-82500000D03*
%TO.P,J38,3,Pin_3*%
%TO.N,Servo25*%
X115000000Y-82500000D03*
%TD*%
D22*
%TO.P,J49,1,Pin_1*%
%TO.N,SPI1_MOSI*%
X80525000Y-130000000D03*
D23*
%TO.P,J49,2,Pin_2*%
%TO.N,SPI1_MISO*%
X80525000Y-132500000D03*
%TO.P,J49,3,Pin_3*%
%TO.N,SPI1_SCK*%
X80525000Y-135000000D03*
%TO.P,J49,4,Pin_4*%
%TO.N,GND*%
X80525000Y-137500000D03*
%TO.P,J49,5,Pin_5*%
%TO.N,+3.3V*%
X80525000Y-140000000D03*
%TD*%
D33*
%TO.P,R56,1*%
%TO.N,POW_MON*%
X94212500Y-175000000D03*
%TO.P,R56,2*%
%TO.N,+7.5V*%
X88287500Y-175000000D03*
%TD*%
D34*
%TO.P,SW2,*%
%TO.N,*%
X101100000Y-37500000D03*
X92900000Y-37500000D03*
D35*
%TO.P,SW2,1,A*%
%TO.N,+3.3V*%
X99000000Y-37500000D03*
D36*
%TO.P,SW2,2,B*%
%TO.N,/SW_BOOT0*%
X97000000Y-37500000D03*
%TO.P,SW2,3,C*%
%TO.N,GND*%
X95000000Y-37500000D03*
%TD*%
D18*
%TO.P,J22,1,Pin_1*%
%TO.N,GND*%
X40000000Y-127500000D03*
D19*
%TO.P,J22,2,Pin_2*%
%TO.N,+7.5V*%
X42540000Y-127500000D03*
%TO.P,J22,3,Pin_3*%
%TO.N,Servo15*%
X45080000Y-127500000D03*
%TD*%
D37*
%TO.P,U7,1,CLKIN*%
%TO.N,GND*%
X96100000Y-47500000D03*
%TO.P,U7,2,NC*%
%TO.N,unconnected-(U7-NC-Pad2)*%
X96100000Y-48000000D03*
%TO.P,U7,3,NC*%
%TO.N,unconnected-(U7-NC-Pad3)*%
X96100000Y-48500000D03*
%TO.P,U7,4,NC*%
%TO.N,unconnected-(U7-NC-Pad4)*%
X96100000Y-49000000D03*
%TO.P,U7,5,NC*%
%TO.N,unconnected-(U7-NC-Pad5)*%
X96100000Y-49500000D03*
%TO.P,U7,6,AUX_DA*%
%TO.N,unconnected-(U7-AUX_DA-Pad6)*%
X96100000Y-50000000D03*
D38*
%TO.P,U7,7,AUX_CL*%
%TO.N,unconnected-(U7-AUX_CL-Pad7)*%
X96800000Y-50700000D03*
%TO.P,U7,8,VLOGIC*%
%TO.N,+3.3V*%
X97300000Y-50700000D03*
%TO.P,U7,9,AD0*%
%TO.N,GND*%
X97800000Y-50700000D03*
%TO.P,U7,10,REGOUT*%
%TO.N,Net-(U7-CPOUT)*%
X98300000Y-50700000D03*
%TO.P,U7,11,FSYNC*%
%TO.N,GND*%
X98800000Y-50700000D03*
%TO.P,U7,12,INT*%
%TO.N,IMU_INT*%
X99300000Y-50700000D03*
D37*
%TO.P,U7,13,VDD*%
%TO.N,+3.3V*%
X100000000Y-50000000D03*
%TO.P,U7,14,NC*%
%TO.N,unconnected-(U7-NC-Pad14)*%
X100000000Y-49500000D03*
%TO.P,U7,15,NC*%
%TO.N,unconnected-(U7-NC-Pad15)*%
X100000000Y-49000000D03*
%TO.P,U7,16,NC*%
%TO.N,unconnected-(U7-NC-Pad16)*%
X100000000Y-48500000D03*
%TO.P,U7,17,NC*%
%TO.N,unconnected-(U7-NC-Pad17)*%
X100000000Y-48000000D03*
%TO.P,U7,18,GND*%
%TO.N,GND*%
X100000000Y-47500000D03*
D38*
%TO.P,U7,19,RESV*%
%TO.N,unconnected-(U7-RESV-Pad19)*%
X99300000Y-46800000D03*
%TO.P,U7,20,CPOUT*%
%TO.N,Net-(U7-CPOUT)*%
X98800000Y-46800000D03*
%TO.P,U7,21,RESV*%
%TO.N,unconnected-(U7-RESV-Pad21)*%
X98300000Y-46800000D03*
%TO.P,U7,22,RESV*%
%TO.N,unconnected-(U7-RESV-Pad22)*%
X97800000Y-46800000D03*
%TO.P,U7,23,SCL*%
%TO.N,I2C3_SCL*%
X97300000Y-46800000D03*
%TO.P,U7,24,SDA*%
%TO.N,I2C3_SDA*%
X96800000Y-46800000D03*
%TD*%
D39*
%TO.P,R62,1*%
%TO.N,I2C3_SDA*%
X92230000Y-47000000D03*
%TO.P,R62,2*%
%TO.N,+3.3V*%
X93250000Y-47000000D03*
%TD*%
D18*
%TO.P,J33,1,Pin_1*%
%TO.N,GND*%
X120040000Y-107500000D03*
D19*
%TO.P,J33,2,Pin_2*%
%TO.N,+7.5V*%
X117500000Y-107500000D03*
%TO.P,J33,3,Pin_3*%
%TO.N,Servo20*%
X114960000Y-107500000D03*
%TD*%
D17*
%TO.P,R33,1*%
%TO.N,Servo20*%
X112475000Y-107500000D03*
%TO.P,R33,2*%
%TO.N,Net-(U3-LED4)*%
X111835000Y-107500000D03*
%TD*%
D14*
%TO.P,R8,1*%
%TO.N,Servo1*%
X47525000Y-57500000D03*
%TO.P,R8,2*%
%TO.N,Net-(U2-LED1)*%
X48165000Y-57500000D03*
%TD*%
D40*
%TO.P,H2,1,1*%
%TO.N,GND*%
X117500000Y-40000000D03*
%TD*%
D17*
%TO.P,R38,1*%
%TO.N,Servo25*%
X112475000Y-82500000D03*
%TO.P,R38,2*%
%TO.N,Net-(U3-LED9)*%
X111835000Y-82500000D03*
%TD*%
D40*
%TO.P,H4,1,1*%
%TO.N,GND*%
X117500000Y-165000000D03*
%TD*%
D18*
%TO.P,J10,1,Pin_1*%
%TO.N,GND*%
X39960000Y-67500000D03*
D19*
%TO.P,J10,2,Pin_2*%
%TO.N,+7.5V*%
X42500000Y-67500000D03*
%TO.P,J10,3,Pin_3*%
%TO.N,Servo3*%
X45040000Y-67500000D03*
%TD*%
D14*
%TO.P,R1,1*%
%TO.N,U1A0*%
X60025000Y-80000000D03*
%TO.P,R1,2*%
%TO.N,GND*%
X60665000Y-80000000D03*
%TD*%
D17*
%TO.P,R54,1*%
%TO.N,SWDO*%
X70915000Y-37500000D03*
%TO.P,R54,2*%
%TO.N,Net-(J55-SWO{slash}TDO)*%
X70275000Y-37500000D03*
%TD*%
D41*
%TO.P,C3,1*%
%TO.N,+3.3V*%
X83839411Y-73160589D03*
%TO.P,C3,2*%
%TO.N,GND*%
X83160589Y-73839411D03*
%TD*%
D18*
%TO.P,J28,1,Pin_1*%
%TO.N,U2A5*%
X100000000Y-102500000D03*
D19*
%TO.P,J28,2,Pin_2*%
%TO.N,+3.3V*%
X97460000Y-102500000D03*
%TD*%
D14*
%TO.P,C18,1*%
%TO.N,+3.3V*%
X97085000Y-52250000D03*
%TO.P,C18,2*%
%TO.N,GND*%
X97725000Y-52250000D03*
%TD*%
D42*
%TO.P,J56,1,Pin_1*%
%TO.N,/BAT_POS*%
X110300000Y-175000000D03*
D43*
%TO.P,J56,2,Pin_2*%
%TO.N,GND*%
X117500000Y-175000000D03*
%TD*%
D18*
%TO.P,J12,1,Pin_1*%
%TO.N,GND*%
X39960000Y-77500000D03*
D19*
%TO.P,J12,2,Pin_2*%
%TO.N,+7.5V*%
X42500000Y-77500000D03*
%TO.P,J12,3,Pin_3*%
%TO.N,Servo5*%
X45040000Y-77500000D03*
%TD*%
D14*
%TO.P,R15,1*%
%TO.N,Servo8*%
X47525000Y-92500000D03*
%TO.P,R15,2*%
%TO.N,Net-(U2-LED8)*%
X48165000Y-92500000D03*
%TD*%
D18*
%TO.P,J30,1,Pin_1*%
%TO.N,GND*%
X120040000Y-122500000D03*
D19*
%TO.P,J30,2,Pin_2*%
%TO.N,+7.5V*%
X117500000Y-122500000D03*
%TO.P,J30,3,Pin_3*%
%TO.N,Servo17*%
X114960000Y-122500000D03*
%TD*%
D14*
%TO.P,R3,1*%
%TO.N,U1A2*%
X60000000Y-90000000D03*
%TO.P,R3,2*%
%TO.N,GND*%
X60640000Y-90000000D03*
%TD*%
D18*
%TO.P,J16,1,Pin_1*%
%TO.N,GND*%
X40000000Y-97500000D03*
D19*
%TO.P,J16,2,Pin_2*%
%TO.N,+7.5V*%
X42540000Y-97500000D03*
%TO.P,J16,3,Pin_3*%
%TO.N,Servo9*%
X45080000Y-97500000D03*
%TD*%
D14*
%TO.P,R51,1*%
%TO.N,Net-(J55-~{RESET})*%
X70335000Y-40000000D03*
%TO.P,R51,2*%
%TO.N,NRST*%
X70975000Y-40000000D03*
%TD*%
D17*
%TO.P,R34,1*%
%TO.N,Servo21*%
X112475000Y-102500000D03*
%TO.P,R34,2*%
%TO.N,Net-(U3-LED5)*%
X111835000Y-102500000D03*
%TD*%
%TO.P,R23,1*%
%TO.N,U2A0*%
X100000000Y-95000000D03*
%TO.P,R23,2*%
%TO.N,GND*%
X99360000Y-95000000D03*
%TD*%
D21*
%TO.P,R58,1*%
%TO.N,Net-(U3-~{OE})*%
X98750000Y-58725000D03*
%TO.P,R58,2*%
%TO.N,GND*%
X98750000Y-58085000D03*
%TD*%
D44*
%TO.P,C12,1*%
%TO.N,Net-(U1-VCAP_2)*%
X83250000Y-57000000D03*
%TO.P,C12,2*%
%TO.N,GND*%
X83928822Y-56321178D03*
%TD*%
D45*
%TO.P,R50,1*%
%TO.N,GND*%
X79000000Y-166980000D03*
%TO.P,R50,2*%
%TO.N,Net-(D1-K)*%
X79000000Y-168000000D03*
%TD*%
D14*
%TO.P,R19,1*%
%TO.N,Servo12*%
X47525000Y-112500000D03*
%TO.P,R19,2*%
%TO.N,Net-(U2-LED12)*%
X48165000Y-112500000D03*
%TD*%
D18*
%TO.P,J25,1,Pin_1*%
%TO.N,U2A2*%
X100000000Y-87500000D03*
D19*
%TO.P,J25,2,Pin_2*%
%TO.N,+3.3V*%
X97460000Y-87500000D03*
%TD*%
D18*
%TO.P,J3,1,Pin_1*%
%TO.N,U1A2*%
X60000000Y-92500000D03*
D19*
%TO.P,J3,2,Pin_2*%
%TO.N,+3.3V*%
X62540000Y-92500000D03*
%TD*%
D18*
%TO.P,J15,1,Pin_1*%
%TO.N,GND*%
X40000000Y-92500000D03*
D19*
%TO.P,J15,2,Pin_2*%
%TO.N,+7.5V*%
X42540000Y-92500000D03*
%TO.P,J15,3,Pin_3*%
%TO.N,Servo8*%
X45080000Y-92500000D03*
%TD*%
D18*
%TO.P,J18,1,Pin_1*%
%TO.N,GND*%
X39960000Y-107500000D03*
D19*
%TO.P,J18,2,Pin_2*%
%TO.N,+7.5V*%
X42500000Y-107500000D03*
%TO.P,J18,3,Pin_3*%
%TO.N,Servo11*%
X45040000Y-107500000D03*
%TD*%
D14*
%TO.P,R22,1*%
%TO.N,Servo15*%
X47525000Y-127500000D03*
%TO.P,R22,2*%
%TO.N,Net-(U2-LED15)*%
X48165000Y-127500000D03*
%TD*%
D44*
%TO.P,C1,1*%
%TO.N,+3.3V*%
X71000000Y-61750000D03*
%TO.P,C1,2*%
%TO.N,GND*%
X71678822Y-61071178D03*
%TD*%
D46*
%TO.P,U5,1,I/O1*%
%TO.N,/USB_ESD_D-*%
X80950000Y-42500000D03*
%TO.P,U5,2,GND*%
%TO.N,GND*%
X80000000Y-42500000D03*
%TO.P,U5,3,I/O2*%
%TO.N,/USB_ESD_D+*%
X79050000Y-42500000D03*
%TO.P,U5,4,I/O2*%
%TO.N,USB_D+*%
X79050000Y-44775000D03*
%TO.P,U5,5,VBUS*%
%TO.N,+3.3V*%
X80000000Y-44775000D03*
%TO.P,U5,6,I/O1*%
%TO.N,USB_D-*%
X80950000Y-44775000D03*
%TD*%
D47*
%TO.P,C21,1*%
%TO.N,+7.5V*%
X116900000Y-137500000D03*
%TO.P,C21,2*%
%TO.N,GND*%
X108100000Y-137500000D03*
%TD*%
D48*
%TO.P,C16,1*%
%TO.N,/NO_FUSE_3V3*%
X90750000Y-164400000D03*
%TO.P,C16,2*%
%TO.N,GND*%
X90750000Y-165950000D03*
%TD*%
D18*
%TO.P,J1,1,Pin_1*%
%TO.N,U1A0*%
X60000000Y-82500000D03*
D19*
%TO.P,J1,2,Pin_2*%
%TO.N,+3.3V*%
X62540000Y-82500000D03*
%TD*%
D17*
%TO.P,R35,1*%
%TO.N,Servo22*%
X112475000Y-97500000D03*
%TO.P,R35,2*%
%TO.N,Net-(U3-LED6)*%
X111835000Y-97500000D03*
%TD*%
%TO.P,R44,1*%
%TO.N,Servo31*%
X112500000Y-52500000D03*
%TO.P,R44,2*%
%TO.N,Net-(U3-LED15)*%
X111860000Y-52500000D03*
%TD*%
D49*
%TO.P,FB1,1*%
%TO.N,+3.3VA*%
X75678822Y-74678822D03*
%TO.P,FB1,2*%
%TO.N,+3.3V*%
X74565128Y-75792516D03*
%TD*%
D50*
%TO.P,F1,1*%
%TO.N,POW_MON*%
X96612500Y-175000000D03*
%TO.P,F1,2*%
%TO.N,/BAT_POS*%
X103387500Y-175000000D03*
%TD*%
D18*
%TO.P,J13,1,Pin_1*%
%TO.N,GND*%
X39960000Y-82500000D03*
D19*
%TO.P,J13,2,Pin_2*%
%TO.N,+7.5V*%
X42500000Y-82500000D03*
%TO.P,J13,3,Pin_3*%
%TO.N,Servo6*%
X45040000Y-82500000D03*
%TD*%
D18*
%TO.P,J43,1,Pin_1*%
%TO.N,GND*%
X120040000Y-57500000D03*
D19*
%TO.P,J43,2,Pin_2*%
%TO.N,+7.5V*%
X117500000Y-57500000D03*
%TO.P,J43,3,Pin_3*%
%TO.N,Servo30*%
X114960000Y-57500000D03*
%TD*%
D17*
%TO.P,R36,1*%
%TO.N,Servo23*%
X112475000Y-92500000D03*
%TO.P,R36,2*%
%TO.N,Net-(U3-LED7)*%
X111835000Y-92500000D03*
%TD*%
D39*
%TO.P,R63,1*%
%TO.N,+3.3V*%
X89990000Y-47010000D03*
%TO.P,R63,2*%
%TO.N,I2C3_SCL*%
X91010000Y-47010000D03*
%TD*%
D14*
%TO.P,R10,1*%
%TO.N,Servo3*%
X47525000Y-67500000D03*
%TO.P,R10,2*%
%TO.N,Net-(U2-LED3)*%
X48165000Y-67500000D03*
%TD*%
D18*
%TO.P,J4,1,Pin_1*%
%TO.N,U1A3*%
X60000000Y-97500000D03*
D19*
%TO.P,J4,2,Pin_2*%
%TO.N,+3.3V*%
X62540000Y-97500000D03*
%TD*%
D17*
%TO.P,C20,1*%
%TO.N,GND*%
X99415000Y-53250000D03*
%TO.P,C20,2*%
%TO.N,Net-(U7-CPOUT)*%
X98775000Y-53250000D03*
%TD*%
D18*
%TO.P,J41,1,Pin_1*%
%TO.N,GND*%
X120040000Y-67500000D03*
D19*
%TO.P,J41,2,Pin_2*%
%TO.N,+7.5V*%
X117500000Y-67500000D03*
%TO.P,J41,3,Pin_3*%
%TO.N,Servo28*%
X114960000Y-67500000D03*
%TD*%
D51*
%TO.P,R48,1*%
%TO.N,I2C2_SDA*%
X98500000Y-132500000D03*
%TO.P,R48,2*%
%TO.N,+3.3V*%
X98500000Y-131480000D03*
%TD*%
D18*
%TO.P,J36,1,Pin_1*%
%TO.N,GND*%
X120040000Y-92500000D03*
D19*
%TO.P,J36,2,Pin_2*%
%TO.N,+7.5V*%
X117500000Y-92500000D03*
%TO.P,J36,3,Pin_3*%
%TO.N,Servo23*%
X114960000Y-92500000D03*
%TD*%
D17*
%TO.P,R41,1*%
%TO.N,Servo28*%
X112475000Y-67500000D03*
%TO.P,R41,2*%
%TO.N,Net-(U3-LED12)*%
X111835000Y-67500000D03*
%TD*%
D18*
%TO.P,J42,1,Pin_1*%
%TO.N,GND*%
X120080000Y-62500000D03*
D19*
%TO.P,J42,2,Pin_2*%
%TO.N,+7.5V*%
X117540000Y-62500000D03*
%TO.P,J42,3,Pin_3*%
%TO.N,Servo29*%
X115000000Y-62500000D03*
%TD*%
D18*
%TO.P,J14,1,Pin_1*%
%TO.N,GND*%
X39920001Y-87500000D03*
D19*
%TO.P,J14,2,Pin_2*%
%TO.N,+7.5V*%
X42460001Y-87500000D03*
%TO.P,J14,3,Pin_3*%
%TO.N,Servo7*%
X45000001Y-87500000D03*
%TD*%
D18*
%TO.P,J11,1,Pin_1*%
%TO.N,GND*%
X40000000Y-72500000D03*
D19*
%TO.P,J11,2,Pin_2*%
%TO.N,+7.5V*%
X42540000Y-72500000D03*
%TO.P,J11,3,Pin_3*%
%TO.N,Servo4*%
X45080000Y-72500000D03*
%TD*%
D17*
%TO.P,C23,1*%
%TO.N,GND*%
X97975000Y-168750000D03*
%TO.P,C23,2*%
%TO.N,Net-(IC1-ADR1)*%
X97335000Y-168750000D03*
%TD*%
D18*
%TO.P,J5,1,Pin_1*%
%TO.N,U1A4*%
X60000000Y-102500000D03*
D19*
%TO.P,J5,2,Pin_2*%
%TO.N,+3.3V*%
X62540000Y-102500000D03*
%TD*%
D18*
%TO.P,J7,1,Pin_1*%
%TO.N,GND*%
X39960000Y-52500000D03*
D19*
%TO.P,J7,2,Pin_2*%
%TO.N,+7.5V*%
X42500000Y-52500000D03*
%TO.P,J7,3,Pin_3*%
%TO.N,Servo0*%
X45040000Y-52500000D03*
%TD*%
D18*
%TO.P,J21,1,Pin_1*%
%TO.N,GND*%
X40000000Y-122200000D03*
D19*
%TO.P,J21,2,Pin_2*%
%TO.N,+7.5V*%
X42540000Y-122200000D03*
%TO.P,J21,3,Pin_3*%
%TO.N,Servo14*%
X45080000Y-122200000D03*
%TD*%
D52*
%TO.P,Y1,1,1*%
%TO.N,HSE_IN*%
X71010051Y-70760051D03*
%TO.P,Y1,2,2*%
%TO.N,GND*%
X69772614Y-71997488D03*
%TO.P,Y1,3,3*%
%TO.N,HSE_OUT*%
X70762563Y-72987437D03*
%TO.P,Y1,4,4*%
%TO.N,GND*%
X72000000Y-71750000D03*
%TD*%
D14*
%TO.P,R17,1*%
%TO.N,Servo10*%
X47525000Y-102500000D03*
%TO.P,R17,2*%
%TO.N,Net-(U2-LED10)*%
X48165000Y-102500000D03*
%TD*%
D18*
%TO.P,J23,1,Pin_1*%
%TO.N,U2A0*%
X100000000Y-97500000D03*
D19*
%TO.P,J23,2,Pin_2*%
%TO.N,+3.3V*%
X97460000Y-97500000D03*
%TD*%
D18*
%TO.P,J2,1,Pin_1*%
%TO.N,U1A1*%
X60000000Y-87500000D03*
D19*
%TO.P,J2,2,Pin_2*%
%TO.N,+3.3V*%
X62540000Y-87500000D03*
%TD*%
D20*
%TO.P,C5,1*%
%TO.N,+3.3V*%
X80750000Y-57500000D03*
%TO.P,C5,2*%
%TO.N,GND*%
X80071178Y-56821178D03*
%TD*%
%TO.P,C9,1*%
%TO.N,+3.3V*%
X73678822Y-76678822D03*
%TO.P,C9,2*%
%TO.N,GND*%
X73000000Y-76000000D03*
%TD*%
D17*
%TO.P,R37,1*%
%TO.N,Servo24*%
X112475000Y-87500000D03*
%TO.P,R37,2*%
%TO.N,Net-(U3-LED8)*%
X111835000Y-87500000D03*
%TD*%
%TO.P,R52,1*%
%TO.N,SWDCLK*%
X70915000Y-36250000D03*
%TO.P,R52,2*%
%TO.N,Net-(J55-SWDCLK{slash}TCK)*%
X70275000Y-36250000D03*
%TD*%
D53*
%TO.P,D1,1,K*%
%TO.N,Net-(D1-K)*%
X79000000Y-169925000D03*
%TO.P,D1,2,A*%
%TO.N,+7.5V*%
X79000000Y-171500000D03*
%TD*%
D18*
%TO.P,J37,1,Pin_1*%
%TO.N,GND*%
X120080000Y-87500000D03*
D19*
%TO.P,J37,2,Pin_2*%
%TO.N,+7.5V*%
X117540000Y-87500000D03*
%TO.P,J37,3,Pin_3*%
%TO.N,Servo24*%
X115000000Y-87500000D03*
%TD*%
D54*
%TO.P,R55,1*%
%TO.N,+3.3V*%
X83540000Y-96250000D03*
%TO.P,R55,2*%
%TO.N,DHT11_DA*%
X82520000Y-96250000D03*
%TD*%
D18*
%TO.P,J27,1,Pin_1*%
%TO.N,U2A4*%
X100000000Y-77500000D03*
D19*
%TO.P,J27,2,Pin_2*%
%TO.N,+3.3V*%
X97460000Y-77500000D03*
%TD*%
D55*
%TO.P,C22,1*%
%TO.N,+7.5V*%
X43100000Y-137500000D03*
%TO.P,C22,2*%
%TO.N,GND*%
X51900000Y-137500000D03*
%TD*%
D56*
%TO.P,R47,1*%
%TO.N,+3.3V*%
X93846248Y-57403752D03*
%TO.P,R47,2*%
%TO.N,I2C1_SCL*%
X93125000Y-58125000D03*
%TD*%
D44*
%TO.P,C4,1*%
%TO.N,+3.3V*%
X87500000Y-65750000D03*
%TO.P,C4,2*%
%TO.N,GND*%
X88178822Y-65071178D03*
%TD*%
D17*
%TO.P,R24,1*%
%TO.N,U2A1*%
X99975000Y-90000000D03*
%TO.P,R24,2*%
%TO.N,GND*%
X99335000Y-90000000D03*
%TD*%
D57*
%TO.P,C11,1*%
%TO.N,Net-(U1-VCAP_1)*%
X88500000Y-68250000D03*
%TO.P,C11,2*%
%TO.N,GND*%
X89178822Y-68928822D03*
%TD*%
D58*
%TO.P,IC1,1,VDD*%
%TO.N,POW_MON*%
X95875000Y-167212000D03*
%TO.P,IC1,2,INTVCC*%
%TO.N,Net-(IC1-ADR1)*%
X96525000Y-167212000D03*
%TO.P,IC1,3,ADR1*%
X97175000Y-167212000D03*
%TO.P,IC1,4,ADR0*%
%TO.N,GND*%
X97825000Y-167212000D03*
%TO.P,IC1,5,ADIN*%
X98475000Y-167212000D03*
%TO.P,IC1,6,GND*%
X99125000Y-167212000D03*
%TO.P,IC1,7,SCL*%
%TO.N,I2C2_SCL*%
X99125000Y-162788000D03*
%TO.P,IC1,8,SDAI*%
%TO.N,I2C2_SDA*%
X98475000Y-162788000D03*
%TO.P,IC1,9,SDAO*%
X97825000Y-162788000D03*
%TO.P,IC1,10,~{ALERT}*%
%TO.N,PWR_INT*%
X97175000Y-162788000D03*
%TO.P,IC1,11,SENSE-*%
%TO.N,+7.5V*%
X96525000Y-162788000D03*
%TO.P,IC1,12,SENSE+*%
%TO.N,POW_MON*%
X95875000Y-162788000D03*
%TD*%
D17*
%TO.P,R40,1*%
%TO.N,Servo27*%
X112475000Y-72500000D03*
%TO.P,R40,2*%
%TO.N,Net-(U3-LED11)*%
X111835000Y-72500000D03*
%TD*%
D40*
%TO.P,H3,1,1*%
%TO.N,GND*%
X42500000Y-175000000D03*
%TD*%
D17*
%TO.P,R32,1*%
%TO.N,Servo19*%
X112475000Y-112500000D03*
%TO.P,R32,2*%
%TO.N,Net-(U3-LED3)*%
X111835000Y-112500000D03*
%TD*%
D14*
%TO.P,R14,1*%
%TO.N,Servo7*%
X47525000Y-87500000D03*
%TO.P,R14,2*%
%TO.N,Net-(U2-LED7)*%
X48165000Y-87500000D03*
%TD*%
D18*
%TO.P,J32,1,Pin_1*%
%TO.N,GND*%
X120040000Y-112500000D03*
D19*
%TO.P,J32,2,Pin_2*%
%TO.N,+7.5V*%
X117500000Y-112500000D03*
%TO.P,J32,3,Pin_3*%
%TO.N,Servo19*%
X114960000Y-112500000D03*
%TD*%
D18*
%TO.P,J46,1,Pin_1*%
%TO.N,/PB14*%
X81290000Y-84960000D03*
D19*
%TO.P,J46,2,Pin_2*%
%TO.N,/PB0*%
X78750000Y-84960000D03*
%TO.P,J46,3,Pin_3*%
%TO.N,/PB15*%
X81290000Y-87500000D03*
%TO.P,J46,4,Pin_4*%
%TO.N,/PB1*%
X78750000Y-87500000D03*
%TO.P,J46,5,Pin_5*%
%TO.N,/PC6*%
X81290000Y-90040000D03*
%TO.P,J46,6,Pin_6*%
%TO.N,/PC5*%
X78750000Y-90040000D03*
%TO.P,J46,7,Pin_7*%
%TO.N,/PC7*%
X81290000Y-92580000D03*
%TO.P,J46,8,Pin_8*%
%TO.N,/PC4*%
X78750000Y-92580000D03*
%TD*%
D20*
%TO.P,C2,1*%
%TO.N,+3.3V*%
X72500000Y-65750000D03*
%TO.P,C2,2*%
%TO.N,GND*%
X71821178Y-65071178D03*
%TD*%
D18*
%TO.P,J31,1,Pin_1*%
%TO.N,GND*%
X120119999Y-117500000D03*
D19*
%TO.P,J31,2,Pin_2*%
%TO.N,+7.5V*%
X117579999Y-117500000D03*
%TO.P,J31,3,Pin_3*%
%TO.N,Servo18*%
X115039999Y-117500000D03*
%TD*%
D18*
%TO.P,J34,1,Pin_1*%
%TO.N,GND*%
X120040000Y-102500000D03*
D19*
%TO.P,J34,2,Pin_2*%
%TO.N,+7.5V*%
X117500000Y-102500000D03*
%TO.P,J34,3,Pin_3*%
%TO.N,Servo21*%
X114960000Y-102500000D03*
%TD*%
D14*
%TO.P,R16,1*%
%TO.N,Servo9*%
X47525000Y-97500000D03*
%TO.P,R16,2*%
%TO.N,Net-(U2-LED9)*%
X48165000Y-97500000D03*
%TD*%
D40*
%TO.P,H1,1,1*%
%TO.N,GND*%
X42500000Y-40000000D03*
%TD*%
D17*
%TO.P,R53,1*%
%TO.N,SWDIO*%
X70975000Y-34750000D03*
%TO.P,R53,2*%
%TO.N,Net-(J55-SWDIO{slash}TMS)*%
X70335000Y-34750000D03*
%TD*%
%TO.P,R42,1*%
%TO.N,Servo29*%
X112475000Y-62500000D03*
%TO.P,R42,2*%
%TO.N,Net-(U3-LED13)*%
X111835000Y-62500000D03*
%TD*%
D18*
%TO.P,J29,1,Pin_1*%
%TO.N,GND*%
X120040000Y-127500000D03*
D19*
%TO.P,J29,2,Pin_2*%
%TO.N,+7.5V*%
X117500000Y-127500000D03*
%TO.P,J29,3,Pin_3*%
%TO.N,Servo16*%
X114960000Y-127500000D03*
%TD*%
D18*
%TO.P,J44,1,Pin_1*%
%TO.N,GND*%
X120040000Y-52500000D03*
D19*
%TO.P,J44,2,Pin_2*%
%TO.N,+7.5V*%
X117500000Y-52500000D03*
%TO.P,J44,3,Pin_3*%
%TO.N,Servo31*%
X114960000Y-52500000D03*
%TD*%
D18*
%TO.P,J39,1,Pin_1*%
%TO.N,GND*%
X120040000Y-77500000D03*
D19*
%TO.P,J39,2,Pin_2*%
%TO.N,+7.5V*%
X117500000Y-77500000D03*
%TO.P,J39,3,Pin_3*%
%TO.N,Servo26*%
X114960000Y-77500000D03*
%TD*%
D18*
%TO.P,J8,1,Pin_1*%
%TO.N,GND*%
X40000000Y-57500000D03*
D19*
%TO.P,J8,2,Pin_2*%
%TO.N,+7.5V*%
X42540000Y-57500000D03*
%TO.P,J8,3,Pin_3*%
%TO.N,Servo1*%
X45080000Y-57500000D03*
%TD*%
D59*
%TO.P,SW3,1,A*%
%TO.N,NRST*%
X58975000Y-39750000D03*
X51025000Y-39750000D03*
%TO.P,SW3,2,B*%
%TO.N,/RESET_CAP*%
X58975000Y-35250000D03*
X51025000Y-35250000D03*
%TD*%
D14*
%TO.P,R6,1*%
%TO.N,U1A5*%
X60000000Y-75000000D03*
%TO.P,R6,2*%
%TO.N,GND*%
X60640000Y-75000000D03*
%TD*%
D18*
%TO.P,J26,1,Pin_1*%
%TO.N,U2A3*%
X100000000Y-82500000D03*
D19*
%TO.P,J26,2,Pin_2*%
%TO.N,+3.3V*%
X97460000Y-82500000D03*
%TD*%
D14*
%TO.P,R18,1*%
%TO.N,Servo11*%
X47525000Y-107500000D03*
%TO.P,R18,2*%
%TO.N,Net-(U2-LED11)*%
X48165000Y-107500000D03*
%TD*%
D17*
%TO.P,R26,1*%
%TO.N,U2A3*%
X99975000Y-80000000D03*
%TO.P,R26,2*%
%TO.N,GND*%
X99335000Y-80000000D03*
%TD*%
D60*
%TO.P,C14,1*%
%TO.N,HSE_IN*%
X71789825Y-69289825D03*
%TO.P,C14,2*%
%TO.N,GND*%
X72242373Y-69742373D03*
%TD*%
D14*
%TO.P,R20,1*%
%TO.N,Servo13*%
X47525000Y-117500000D03*
%TO.P,R20,2*%
%TO.N,Net-(U2-LED13)*%
X48165000Y-117500000D03*
%TD*%
D61*
%TO.P,U2,1,A3*%
%TO.N,U1A3*%
X61950000Y-62162500D03*
%TO.P,U2,2,A4*%
%TO.N,U1A4*%
X61300000Y-62162500D03*
%TO.P,U2,3,LED0*%
%TO.N,Net-(U2-LED0)*%
X60650000Y-62162500D03*
%TO.P,U2,4,LED1*%
%TO.N,Net-(U2-LED1)*%
X60000000Y-62162500D03*
%TO.P,U2,5,LED2*%
%TO.N,Net-(U2-LED2)*%
X59350000Y-62162500D03*
%TO.P,U2,6,LED3*%
%TO.N,Net-(U2-LED3)*%
X58700000Y-62162500D03*
%TO.P,U2,7,LED4*%
%TO.N,Net-(U2-LED4)*%
X58050000Y-62162500D03*
D62*
%TO.P,U2,8,LED5*%
%TO.N,Net-(U2-LED5)*%
X57162500Y-63050000D03*
%TO.P,U2,9,LED6*%
%TO.N,Net-(U2-LED6)*%
X57162500Y-63700000D03*
%TO.P,U2,10,LED7*%
%TO.N,Net-(U2-LED7)*%
X57162500Y-64350000D03*
%TO.P,U2,11,VSS*%
%TO.N,GND*%
X57162500Y-65000000D03*
%TO.P,U2,12,LED8*%
%TO.N,Net-(U2-LED8)*%
X57162500Y-65650000D03*
%TO.P,U2,13,LED9*%
%TO.N,Net-(U2-LED9)*%
X57162500Y-66300000D03*
%TO.P,U2,14,LED10*%
%TO.N,Net-(U2-LED10)*%
X57162500Y-66950000D03*
D61*
%TO.P,U2,15,LED11*%
%TO.N,Net-(U2-LED11)*%
X58050000Y-67837500D03*
%TO.P,U2,16,LED12*%
%TO.N,Net-(U2-LED12)*%
X58700000Y-67837500D03*
%TO.P,U2,17,LED13*%
%TO.N,Net-(U2-LED13)*%
X59350000Y-67837500D03*
%TO.P,U2,18,LED14*%
%TO.N,Net-(U2-LED14)*%
X60000000Y-67837500D03*
%TO.P,U2,19,LED15*%
%TO.N,Net-(U2-LED15)*%
X60650000Y-67837500D03*
%TO.P,U2,20,~{OE}*%
%TO.N,Net-(U2-~{OE})*%
X61300000Y-67837500D03*
%TO.P,U2,21,A5*%
%TO.N,U1A5*%
X61950000Y-67837500D03*
D62*
%TO.P,U2,22,EXTCLK*%
%TO.N,unconnected-(U2-EXTCLK-Pad22)*%
X62837500Y-66950000D03*
%TO.P,U2,23,SCL*%
%TO.N,I2C1_SCL*%
X62837500Y-66300000D03*
%TO.P,U2,24,SDA*%
%TO.N,I2C1_SDA*%
X62837500Y-65650000D03*
%TO.P,U2,25,VDD*%
%TO.N,+3.3V*%
X62837500Y-65000000D03*
%TO.P,U2,26,A0*%
%TO.N,U1A0*%
X62837500Y-64350000D03*
%TO.P,U2,27,A1*%
%TO.N,U1A1*%
X62837500Y-63700000D03*
%TO.P,U2,28,A2*%
%TO.N,U1A2*%
X62837500Y-63050000D03*
D28*
%TO.P,U2,29,VSS*%
%TO.N,GND*%
X60000000Y-65000000D03*
%TD*%
D21*
%TO.P,C17,1*%
%TO.N,+3.3V*%
X101500000Y-48975000D03*
%TO.P,C17,2*%
%TO.N,GND*%
X101500000Y-48335000D03*
%TD*%
D17*
%TO.P,R39,1*%
%TO.N,Servo26*%
X112475000Y-77500000D03*
%TO.P,R39,2*%
%TO.N,Net-(U3-LED10)*%
X111835000Y-77500000D03*
%TD*%
D14*
%TO.P,R4,1*%
%TO.N,U1A3*%
X60000000Y-95000000D03*
%TO.P,R4,2*%
%TO.N,GND*%
X60640000Y-95000000D03*
%TD*%
D18*
%TO.P,J20,1,Pin_1*%
%TO.N,GND*%
X39960000Y-117500000D03*
D19*
%TO.P,J20,2,Pin_2*%
%TO.N,+7.5V*%
X42500000Y-117500000D03*
%TO.P,J20,3,Pin_3*%
%TO.N,Servo13*%
X45040000Y-117500000D03*
%TD*%
D56*
%TO.P,R46,1*%
%TO.N,I2C1_SDA*%
X92439106Y-58810894D03*
%TO.P,R46,2*%
%TO.N,+3.3V*%
X91717858Y-59532142D03*
%TD*%
D17*
%TO.P,R28,1*%
%TO.N,U2A5*%
X99975000Y-100000000D03*
%TO.P,R28,2*%
%TO.N,GND*%
X99335000Y-100000000D03*
%TD*%
D63*
%TO.P,J45,1,VBUS*%
%TO.N,VBUS*%
X81300000Y-37500000D03*
%TO.P,J45,2,D-*%
%TO.N,/USB_ESD_D-*%
X80650000Y-37500000D03*
%TO.P,J45,3,D+*%
%TO.N,/USB_ESD_D+*%
X80000000Y-37500000D03*
%TO.P,J45,4,ID*%
%TO.N,USB_ID*%
X79350000Y-37500000D03*
%TO.P,J45,5,GND*%
%TO.N,GND*%
X78700000Y-37500000D03*
D64*
%TO.P,J45,MH1*%
%TO.N,N/C*%
X82425000Y-36980000D03*
%TO.P,J45,MH2*%
X77575000Y-36980000D03*
D65*
%TO.P,J45,MH3*%
X83625000Y-34300000D03*
%TO.P,J45,MH4*%
X76375000Y-34300000D03*
%TD*%
D66*
%TO.P,F2,1*%
%TO.N,/NO_FUSE_3V3*%
X85887500Y-157500000D03*
%TO.P,F2,2*%
%TO.N,+3.3V*%
X79112500Y-157500000D03*
%TD*%
D18*
%TO.P,U4,1,GND*%
%TO.N,GND*%
X50000000Y-152460000D03*
D67*
%TO.P,U4,2,VCC*%
%TO.N,+3.3V*%
X50000000Y-155000000D03*
%TO.P,U4,3,CE*%
%TO.N,NRF_CE*%
X47460000Y-152460000D03*
%TO.P,U4,4,~{CSN}*%
%TO.N,NRF_CSN*%
X47460000Y-155000000D03*
%TO.P,U4,5,SCK*%
%TO.N,SPI2_SCK*%
X44920000Y-152460000D03*
%TO.P,U4,6,MOSI*%
%TO.N,SPI2_MISO*%
X44920000Y-155000000D03*
%TO.P,U4,7,MISO*%
%TO.N,SPI2_MOSI*%
X42380000Y-152460000D03*
%TO.P,U4,8,IRQ*%
%TO.N,NRF_IRQ*%
X42380000Y-155000000D03*
%TD*%
D18*
%TO.P,J6,1,Pin_1*%
%TO.N,U1A5*%
X60000000Y-77500000D03*
D19*
%TO.P,J6,2,Pin_2*%
%TO.N,+3.3V*%
X62540000Y-77500000D03*
%TD*%
D14*
%TO.P,R5,1*%
%TO.N,U1A4*%
X60000000Y-100000000D03*
%TO.P,R5,2*%
%TO.N,GND*%
X60640000Y-100000000D03*
%TD*%
D22*
%TO.P,J48,1,Pin_1*%
%TO.N,USART2_TX*%
X65000000Y-130000000D03*
D23*
%TO.P,J48,2,Pin_2*%
%TO.N,USART2_RX*%
X65000000Y-132500000D03*
%TO.P,J48,3,Pin_3*%
%TO.N,USART2_CK*%
X65000000Y-135000000D03*
%TO.P,J48,4,Pin_4*%
%TO.N,GND*%
X65000000Y-137500000D03*
%TO.P,J48,5,Pin_5*%
%TO.N,+3.3V*%
X65000000Y-140000000D03*
%TD*%
D17*
%TO.P,R31,1*%
%TO.N,Servo18*%
X112475000Y-117500000D03*
%TO.P,R31,2*%
%TO.N,Net-(U3-LED2)*%
X111835000Y-117500000D03*
%TD*%
D18*
%TO.P,J9,1,Pin_1*%
%TO.N,GND*%
X39960000Y-62500000D03*
D19*
%TO.P,J9,2,Pin_2*%
%TO.N,+7.5V*%
X42500000Y-62500000D03*
%TO.P,J9,3,Pin_3*%
%TO.N,Servo2*%
X45040000Y-62500000D03*
%TD*%
D51*
%TO.P,R49,1*%
%TO.N,+3.3V*%
X98500000Y-136000000D03*
%TO.P,R49,2*%
%TO.N,I2C2_SCL*%
X98500000Y-134980000D03*
%TD*%
D68*
%TO.N,+3.3V*%
X77750000Y-43500000D03*
X73000000Y-46250000D03*
%TO.N,GND*%
X69250000Y-52450000D03*
X64000000Y-69250000D03*
%TO.N,DHT11_DA*%
X81750000Y-68750000D03*
%TO.N,+3.3V*%
X92250000Y-64500000D03*
D69*
X76750000Y-155250000D03*
D68*
X90876100Y-58758645D03*
D69*
X75250000Y-157500000D03*
D68*
X98500000Y-130250000D03*
X86500000Y-65000000D03*
D69*
X75250000Y-156000000D03*
X75250000Y-160500000D03*
D68*
X98500000Y-137000000D03*
D69*
X75250000Y-162000000D03*
D68*
X80750000Y-60000000D03*
X75750000Y-65250000D03*
X88750000Y-47000000D03*
D69*
X75250000Y-154500000D03*
X76750000Y-159750000D03*
D68*
X94500000Y-47000000D03*
D69*
X76750000Y-158250000D03*
D68*
X65975402Y-63725402D03*
D69*
X79750000Y-161250000D03*
D68*
X80000000Y-69500000D03*
D69*
X81250000Y-162000000D03*
D68*
X94625000Y-56625000D03*
D69*
X78250000Y-162000000D03*
X75250000Y-159000000D03*
X76750000Y-156750000D03*
X76750000Y-161250000D03*
D68*
%TO.N,GND*%
X56250000Y-136250000D03*
X105000000Y-137500000D03*
X54999999Y-132500000D03*
X103750000Y-138750000D03*
D69*
X99500000Y-169750000D03*
D68*
X90000000Y-69750000D03*
D69*
X80500000Y-168250000D03*
D68*
X56250000Y-138750000D03*
D69*
X91500000Y-167500000D03*
X81500000Y-169250000D03*
D68*
X53500000Y-65500000D03*
X84750000Y-55500000D03*
X61750000Y-90000000D03*
X61750000Y-100000000D03*
X105000000Y-132500000D03*
X80000000Y-70500000D03*
X75750000Y-64250000D03*
X54999999Y-140000000D03*
X80000000Y-41000000D03*
X54999999Y-137500000D03*
X98250000Y-75000000D03*
X98250000Y-95000000D03*
X72250000Y-75250000D03*
D69*
X100250000Y-168750000D03*
D68*
X72750000Y-73500000D03*
X61750000Y-75000000D03*
X78000000Y-39500000D03*
X103750000Y-136250000D03*
X55000000Y-142500000D03*
X69500000Y-70250000D03*
X54999999Y-135000000D03*
X105000000Y-140000000D03*
X98250000Y-90000000D03*
X98250000Y-100000000D03*
X72500000Y-64250000D03*
X105000000Y-142500000D03*
X73250000Y-69500000D03*
D69*
X81500000Y-167250000D03*
D68*
X60500000Y-37000000D03*
X79250000Y-57500000D03*
X106750000Y-65250000D03*
X98250000Y-85000000D03*
X105000000Y-135000000D03*
X89000000Y-64250000D03*
X61750000Y-85000000D03*
D69*
X81500000Y-171500000D03*
X90250000Y-167500000D03*
D68*
X98250000Y-80000000D03*
X61750000Y-80000000D03*
D69*
X80500000Y-170500000D03*
D68*
X61750000Y-95000000D03*
D69*
%TO.N,+7.5V*%
X84500000Y-175000000D03*
D68*
X121000000Y-142500000D03*
X121000000Y-137500000D03*
X41500000Y-132500000D03*
D69*
X80750000Y-176000000D03*
D68*
X39000000Y-132500000D03*
D69*
X80000000Y-177000000D03*
X83750000Y-176000000D03*
D68*
X121000000Y-135000000D03*
X39000000Y-140000000D03*
D69*
X81500000Y-177000000D03*
X79250000Y-176000000D03*
X82250000Y-174000000D03*
X82250000Y-176000000D03*
X80000000Y-175000000D03*
X79250000Y-174000000D03*
D68*
X39000000Y-137500000D03*
X121000000Y-132500000D03*
X118500000Y-142500000D03*
D69*
X86000000Y-175000000D03*
D68*
X41500000Y-142500000D03*
D69*
X80750000Y-174000000D03*
X85250000Y-174000000D03*
D68*
X118500000Y-132500000D03*
D69*
X86750000Y-176000000D03*
X84500000Y-177000000D03*
X83000000Y-177000000D03*
X86000000Y-177000000D03*
X85250000Y-176000000D03*
X83750000Y-174000000D03*
X81500000Y-175000000D03*
D68*
X39000000Y-135000000D03*
X121000000Y-140000000D03*
X39000000Y-142500000D03*
D69*
X83000000Y-175000000D03*
X86750000Y-174000000D03*
D68*
%TO.N,I2C2_SCL*%
X98512653Y-157487347D03*
%TO.N,I2C2_SDA*%
X97500000Y-156500000D03*
%TO.N,U1A0*%
X66000000Y-62500000D03*
%TO.N,U1A1*%
X66000000Y-61500000D03*
%TO.N,U1A2*%
X66000000Y-60500000D03*
%TO.N,U1A3*%
X66000000Y-59500000D03*
%TO.N,U1A4*%
X66000000Y-58500497D03*
%TO.N,U2A0*%
X94731337Y-66219467D03*
%TO.N,U2A1*%
X94737701Y-67237701D03*
%TO.N,U2A2*%
X94750000Y-68250000D03*
%TO.N,U2A3*%
X94750000Y-69249503D03*
%TO.N,U2A5*%
X94250000Y-62975500D03*
%TO.N,USB_ID*%
X79000000Y-39500000D03*
X81000000Y-39500000D03*
%TO.N,I2C1_SCL*%
X79250000Y-62250000D03*
X90042629Y-57042629D03*
%TO.N,I2C1_SDA*%
X69737701Y-60987701D03*
X79250000Y-63250000D03*
X90750000Y-57767129D03*
X73250000Y-60500000D03*
%TO.N,SPI2_MISO*%
X70975500Y-98000000D03*
X80750000Y-68750000D03*
%TO.N,SPI2_MOSI*%
X78484223Y-68329997D03*
X68750000Y-97000000D03*
%TO.N,SPI2_SCK*%
X84750000Y-64750000D03*
X70250000Y-97000000D03*
%TO.N,/BOOT0*%
X97000000Y-43000000D03*
X77750000Y-63974500D03*
%TO.N,NRST*%
X80000000Y-58500000D03*
X70500000Y-42500000D03*
%TO.N,NRF_IRQ*%
X80423523Y-66673524D03*
X69500000Y-98000000D03*
%TO.N,/PB14*%
X87500000Y-76250000D03*
X88250000Y-62250000D03*
%TO.N,/PB15*%
X88250000Y-77000000D03*
X89262299Y-62237701D03*
%TO.N,/PC6*%
X90280533Y-62231337D03*
X89000000Y-77750000D03*
%TO.N,/PC7*%
X91500000Y-62250000D03*
X90000000Y-78500000D03*
%TD*%
D70*
%TO.N,SWDO*%
X72000000Y-37500000D02*
X70915000Y-37500000D01*
X73000000Y-38500000D02*
X72000000Y-37500000D01*
X70750000Y-46000000D02*
X73000000Y-43750000D01*
X73000000Y-43750000D02*
X73000000Y-38500000D01*
X68500000Y-54000000D02*
X68500000Y-47000000D01*
X70000000Y-55500000D02*
X68500000Y-54000000D01*
X68500000Y-47000000D02*
X69500000Y-46000000D01*
X71560660Y-55500000D02*
X70000000Y-55500000D01*
X76517499Y-60456839D02*
X71560660Y-55500000D01*
X69500000Y-46000000D02*
X70750000Y-46000000D01*
%TO.N,GND*%
X69250000Y-52450000D02*
X70800000Y-52450000D01*
%TO.N,+3.3V*%
X73000000Y-46250000D02*
X73500000Y-46250000D01*
X73500000Y-46250000D02*
X74100000Y-46850000D01*
X74100000Y-46850000D02*
X74100000Y-47550000D01*
X79109251Y-43500000D02*
X77750000Y-43500000D01*
X80000000Y-44390749D02*
X79109251Y-43500000D01*
X80000000Y-44775000D02*
X80000000Y-44390749D01*
%TO.N,STATUS_IN*%
X76750000Y-57153806D02*
X78285266Y-58689072D01*
X76750000Y-57000000D02*
X76750000Y-57153806D01*
X75220226Y-55470226D02*
X76750000Y-57000000D01*
%TO.N,Net-(D3-DIN)*%
X74100000Y-54350000D02*
X74767678Y-55017678D01*
X74100000Y-52450000D02*
X74100000Y-54350000D01*
%TO.N,NRST*%
X70500000Y-42500000D02*
X69750000Y-41750000D01*
%TO.N,GND*%
X62820000Y-69250000D02*
X64000000Y-69250000D01*
%TO.N,Net-(U2-~{OE})*%
X61500000Y-69250000D02*
X62180000Y-69250000D01*
X61300000Y-69050000D02*
X61500000Y-69250000D01*
X61300000Y-67837500D02*
X61300000Y-69050000D01*
%TO.N,DHT11_DA*%
X78567599Y-65948524D02*
X80723828Y-65948524D01*
X76501294Y-68014829D02*
X78567599Y-65948524D01*
X80723828Y-65948524D02*
X81750000Y-66974696D01*
X76501294Y-68145152D02*
X76501294Y-68014829D01*
X75810392Y-68836054D02*
X76501294Y-68145152D01*
X81750000Y-66974696D02*
X81750000Y-68750000D01*
%TO.N,NRF_IRQ*%
X77997022Y-67155497D02*
X77309223Y-67843296D01*
X78094503Y-67155497D02*
X77997022Y-67155497D01*
X77309223Y-68044331D02*
X76163946Y-69189608D01*
X78576476Y-66673524D02*
X78094503Y-67155497D01*
X77309223Y-67843296D02*
X77309223Y-68044331D01*
X80423523Y-66673524D02*
X78576476Y-66673524D01*
%TO.N,SPI2_MISO*%
X77759223Y-68301437D02*
X76517499Y-69543161D01*
X77759223Y-68029692D02*
X77759223Y-68301437D01*
X79605497Y-67605497D02*
X78183418Y-67605497D01*
X78183418Y-67605497D02*
X77759223Y-68029692D01*
X80750000Y-68750000D02*
X79605497Y-67605497D01*
%TO.N,SPI2_MOSI*%
X78437769Y-68329997D02*
X76871052Y-69896714D01*
X78484223Y-68329997D02*
X78437769Y-68329997D01*
%TO.N,NRST*%
X80000000Y-63525305D02*
X80000000Y-58500000D01*
X78825805Y-64699500D02*
X80000000Y-63525305D01*
X77800500Y-64699500D02*
X78825805Y-64699500D01*
X76051294Y-66448706D02*
X77800500Y-64699500D01*
X76051294Y-67888046D02*
X76051294Y-66448706D01*
X75456839Y-68482501D02*
X76051294Y-67888046D01*
%TO.N,+3.3V*%
X80610912Y-69500000D02*
X80000000Y-69500000D01*
D71*
X71000000Y-61750000D02*
X71446700Y-61750000D01*
X71446700Y-61750000D02*
X73335519Y-63638819D01*
D70*
X97300000Y-51843959D02*
X97085000Y-52058959D01*
X93846248Y-57403752D02*
X94625000Y-56625000D01*
X62837500Y-65000000D02*
X64700804Y-65000000D01*
X82759189Y-71648277D02*
X82759189Y-72259189D01*
X82068287Y-70957375D02*
X80610912Y-69500000D01*
D71*
X81653984Y-55596016D02*
X81653984Y-56596016D01*
D70*
X88760000Y-47010000D02*
X88750000Y-47000000D01*
X83660589Y-73160589D02*
X83839411Y-73160589D01*
D71*
X72500000Y-65750000D02*
X72724338Y-65750000D01*
D70*
X86664481Y-65164481D02*
X86500000Y-65000000D01*
X97085000Y-52058959D02*
X97085000Y-52250000D01*
X82068287Y-70957375D02*
X82759189Y-71648277D01*
X97162500Y-65000000D02*
X92750000Y-65000000D01*
X92750000Y-65000000D02*
X92250000Y-64500000D01*
X93250000Y-47000000D02*
X94500000Y-47000000D01*
X89990000Y-47010000D02*
X88760000Y-47010000D01*
X83540000Y-96250001D02*
X85040000Y-97750000D01*
X98500000Y-136000000D02*
X98500000Y-137000000D01*
X74946700Y-65250000D02*
X75750000Y-65250000D01*
X82759189Y-72259189D02*
X83660589Y-73160589D01*
D71*
X87275662Y-65750000D02*
X86664481Y-66361181D01*
D70*
X98500000Y-131479999D02*
X98500000Y-130250000D01*
D71*
X80750000Y-57724338D02*
X81361181Y-58335519D01*
X81653984Y-56596016D02*
X80750000Y-57500000D01*
D70*
X73335519Y-63638819D02*
X74946700Y-65250000D01*
X73335519Y-66361181D02*
X74446700Y-65250000D01*
D71*
X74565128Y-75792516D02*
X73678822Y-76678822D01*
X87500000Y-65750000D02*
X87275662Y-65750000D01*
D70*
X90944361Y-58758645D02*
X90876100Y-58758645D01*
X91717858Y-59532142D02*
X90944361Y-58758645D01*
X64700804Y-65000000D02*
X65975402Y-63725402D01*
D71*
X80750000Y-57500000D02*
X80750000Y-57724338D01*
D70*
X85040000Y-97750000D02*
X85040000Y-100000000D01*
X81361181Y-58335519D02*
X80750000Y-58946700D01*
X74446700Y-65250000D02*
X74946700Y-65250000D01*
X86664481Y-66361181D02*
X86664481Y-65164481D01*
X80750000Y-58946700D02*
X80750000Y-60000000D01*
D71*
X72724338Y-65750000D02*
X73335519Y-66361181D01*
D70*
X97300000Y-50700000D02*
X97300000Y-51843959D01*
%TO.N,GND*%
X60665000Y-80000000D02*
X61750000Y-80000000D01*
D71*
X83928822Y-56321178D02*
X84750000Y-55500000D01*
D70*
X106000000Y-65000000D02*
X106250000Y-65250000D01*
X69500000Y-70250000D02*
X69772614Y-70522614D01*
X60665000Y-85000000D02*
X61750000Y-85000000D01*
D71*
X79928822Y-56821178D02*
X79250000Y-57500000D01*
X60500000Y-35915000D02*
X60500000Y-37000000D01*
D70*
X81714734Y-71310928D02*
X82309189Y-71905383D01*
X97800000Y-50700000D02*
X97800000Y-52175000D01*
D71*
X71678822Y-61275016D02*
X73689072Y-63285266D01*
D70*
X99415000Y-53058959D02*
X99415000Y-53250000D01*
X80903806Y-70500000D02*
X80000000Y-70500000D01*
X54000000Y-65000000D02*
X53500000Y-65500000D01*
X73007627Y-69742373D02*
X73250000Y-69500000D01*
X57162500Y-65000000D02*
X60000000Y-65000000D01*
D71*
X72500000Y-64392356D02*
X72500000Y-64250000D01*
D70*
X102837500Y-65000000D02*
X106000000Y-65000000D01*
D71*
X74750000Y-72250000D02*
X74000000Y-73000000D01*
X88178822Y-65071178D02*
X89000000Y-64250000D01*
D70*
X72000000Y-71555458D02*
X73027729Y-70527729D01*
X99335000Y-75000000D02*
X98250000Y-75000000D01*
X99360000Y-85000000D02*
X98250000Y-85000000D01*
X73027729Y-70527729D02*
X73027729Y-69722271D01*
X60640000Y-90000000D02*
X61750000Y-90000000D01*
X78000000Y-38200000D02*
X78000000Y-39500000D01*
X99335000Y-80000000D02*
X98250000Y-80000000D01*
X73689072Y-63285266D02*
X74653806Y-64250000D01*
D71*
X71821178Y-65071178D02*
X72500000Y-64392356D01*
X71678822Y-61071178D02*
X71678822Y-61275016D01*
D70*
X98800000Y-52443959D02*
X99415000Y-53058959D01*
X78700000Y-37500000D02*
X78000000Y-38200000D01*
D71*
X74000000Y-73000000D02*
X73250000Y-73000000D01*
D70*
X82309189Y-72988011D02*
X83160589Y-73839411D01*
D71*
X80000000Y-42500000D02*
X80000000Y-41000000D01*
D70*
X60640000Y-75000000D02*
X61750000Y-75000000D01*
X81714734Y-71310928D02*
X80903806Y-70500000D01*
D71*
X83750000Y-54500000D02*
X84750000Y-55500000D01*
D70*
X99360000Y-95000000D02*
X98250000Y-95000000D01*
X97800000Y-52175000D02*
X97725000Y-52250000D01*
X72242373Y-69742373D02*
X73007627Y-69742373D01*
X57162500Y-65000000D02*
X54000000Y-65000000D01*
X60640000Y-100000000D02*
X61750000Y-100000000D01*
D71*
X73250000Y-73000000D02*
X72750000Y-73500000D01*
X80071178Y-56821178D02*
X79928822Y-56821178D01*
D70*
X99335000Y-100000000D02*
X98250000Y-100000000D01*
D71*
X82750000Y-54500000D02*
X83750000Y-54500000D01*
D70*
X72000000Y-71750000D02*
X72000000Y-71555458D01*
X89178822Y-68928822D02*
X90000000Y-69750000D01*
D71*
X75224872Y-72250000D02*
X77224606Y-70250268D01*
D70*
X69772614Y-70522614D02*
X69772614Y-71997488D01*
D71*
X73000000Y-76000000D02*
X72250000Y-75250000D01*
D70*
X74653806Y-64250000D02*
X75750000Y-64250000D01*
X82309189Y-71905383D02*
X82309189Y-72988011D01*
D71*
X74750000Y-72250000D02*
X75224872Y-72250000D01*
D70*
X73027729Y-69722271D02*
X73250000Y-69500000D01*
X98800000Y-50700000D02*
X98800000Y-52443959D01*
X60640000Y-95000000D02*
X61750000Y-95000000D01*
X99335000Y-90000000D02*
X98250000Y-90000000D01*
D71*
%TO.N,+3.3VA*%
X75428822Y-72928822D02*
X74678822Y-73678822D01*
X75428822Y-72928822D02*
X75428822Y-72753158D01*
X75428822Y-72753158D02*
X77578159Y-70603821D01*
X74678822Y-73678822D02*
X75678822Y-74678822D01*
D70*
%TO.N,Net-(U1-VCAP_1)*%
X86310928Y-66714734D02*
X86905383Y-67309189D01*
X86905383Y-67309189D02*
X87559189Y-67309189D01*
X87559189Y-67309189D02*
X88500000Y-68250000D01*
D71*
%TO.N,Net-(U1-VCAP_2)*%
X83250000Y-57000000D02*
X83250000Y-57153806D01*
X83250000Y-57153806D02*
X81714734Y-58689072D01*
D70*
%TO.N,HSE_OUT*%
X73975000Y-69257234D02*
X75103286Y-68128948D01*
X73480277Y-71436451D02*
X71929291Y-72987437D01*
X73480277Y-70980277D02*
X73480277Y-71436451D01*
X71929291Y-72987437D02*
X70762563Y-72987437D01*
X73975000Y-70485554D02*
X73975000Y-69257234D01*
X73480277Y-70980277D02*
X73975000Y-70485554D01*
%TO.N,HSE_IN*%
X71789825Y-69289825D02*
X72304650Y-68775000D01*
X73750126Y-68775000D02*
X74749732Y-67775394D01*
X71010051Y-70760051D02*
X71010051Y-70069599D01*
X72304650Y-68775000D02*
X73750126Y-68775000D01*
X71010051Y-70069599D02*
X71789825Y-69289825D01*
D71*
%TO.N,+7.5V*%
X93500000Y-170000000D02*
X93000000Y-170500000D01*
X94250000Y-161250000D02*
X93500000Y-162000000D01*
X93000000Y-170500000D02*
X92000000Y-170500000D01*
X93500000Y-162000000D02*
X93500000Y-170000000D01*
X95999500Y-161250000D02*
X94250000Y-161250000D01*
X96525000Y-162788000D02*
X96525000Y-161775500D01*
X96525000Y-161775500D02*
X95999500Y-161250000D01*
D70*
%TO.N,Net-(U7-CPOUT)*%
X98300000Y-52775000D02*
X98775000Y-53250000D01*
X98300000Y-50700000D02*
X98300000Y-52775000D01*
D71*
%TO.N,Net-(IC1-ADR1)*%
X96525000Y-167212000D02*
X96525000Y-168275000D01*
X97000000Y-168750000D02*
X97335000Y-168750000D01*
X97175000Y-168590000D02*
X97335000Y-168750000D01*
X97175000Y-167212000D02*
X97175000Y-168590000D01*
X96525000Y-168275000D02*
X97000000Y-168750000D01*
%TO.N,Net-(D1-K)*%
X79000000Y-169925000D02*
X79000000Y-168000000D01*
%TO.N,POW_MON*%
X95875000Y-162788000D02*
X95875000Y-167212000D01*
X95875000Y-167212000D02*
X95875000Y-171375000D01*
X95875000Y-171375000D02*
X96000000Y-171500000D01*
D70*
%TO.N,I2C2_SCL*%
X85603821Y-67421841D02*
X91200000Y-73018020D01*
X99125000Y-158099695D02*
X99125000Y-162788000D01*
X98512653Y-157487347D02*
X99125000Y-158099695D01*
X91200000Y-73018020D02*
X91200000Y-131200000D01*
X91200000Y-131200000D02*
X94681802Y-134681802D01*
X98480000Y-135000000D02*
X98500000Y-134980000D01*
X95000000Y-135000000D02*
X98480000Y-135000000D01*
%TO.N,I2C2_SDA*%
X98475000Y-158474999D02*
X98475000Y-162788000D01*
X97500000Y-156500000D02*
X97500000Y-157499999D01*
D71*
X97825000Y-162788000D02*
X98475000Y-162788000D01*
D70*
X85957375Y-67068287D02*
X91650000Y-72760912D01*
X95000000Y-132500000D02*
X98500000Y-132500000D01*
X95020000Y-132520000D02*
X95000000Y-132500000D01*
X91650000Y-129150000D02*
X94681802Y-132181802D01*
X91650000Y-72760912D02*
X91650000Y-129150000D01*
X97500000Y-157499999D02*
X98475000Y-158474999D01*
%TO.N,PWR_INT*%
X97175000Y-157811395D02*
X90750000Y-151386395D01*
X90750000Y-73275126D02*
X85250268Y-67775394D01*
X90750000Y-151386395D02*
X90750000Y-73275126D01*
X97175000Y-162788000D02*
X97175000Y-157811395D01*
D71*
%TO.N,U1A0*%
X60025000Y-80000000D02*
X60025000Y-82475000D01*
D70*
X64125000Y-63875000D02*
X63650000Y-64350000D01*
X66000000Y-62500000D02*
X64750000Y-62500000D01*
X64750000Y-62500000D02*
X64125000Y-63125000D01*
X63650000Y-64350000D02*
X62837500Y-64350000D01*
D71*
X60025000Y-82475000D02*
X60000000Y-82500000D01*
D70*
X64125000Y-63125000D02*
X64125000Y-63875000D01*
D71*
%TO.N,U1A1*%
X60025000Y-85000000D02*
X60025000Y-87475000D01*
D70*
X63675000Y-62325000D02*
X64500000Y-61500000D01*
X62837500Y-63700000D02*
X63265685Y-63700000D01*
D71*
X60025000Y-87475000D02*
X60000000Y-87500000D01*
D70*
X63265685Y-63700000D02*
X63675000Y-63290685D01*
X63675000Y-63290685D02*
X63675000Y-62325000D01*
X64500000Y-61500000D02*
X66000000Y-61500000D01*
D71*
%TO.N,U1A2*%
X60000000Y-90000000D02*
X60000000Y-92500000D01*
D70*
X62837500Y-63050000D02*
X62750000Y-62962500D01*
X62750000Y-61500000D02*
X63750000Y-60500000D01*
X63750000Y-60500000D02*
X66000000Y-60500000D01*
X62750000Y-62962500D02*
X62750000Y-61500000D01*
%TO.N,U1A3*%
X62750000Y-59500000D02*
X66000000Y-59500000D01*
X61950000Y-62162500D02*
X61950000Y-60300000D01*
X61950000Y-60300000D02*
X62750000Y-59500000D01*
D71*
X60000000Y-95000000D02*
X60000000Y-97500000D01*
D70*
%TO.N,U1A4*%
X62750000Y-58500000D02*
X64533321Y-58500000D01*
X64533818Y-58500497D02*
X66000000Y-58500497D01*
X64533321Y-58500000D02*
X64533818Y-58500497D01*
X61300000Y-62162500D02*
X61300000Y-59950000D01*
X61300000Y-59950000D02*
X62750000Y-58500000D01*
D71*
X60000000Y-100000000D02*
X60000000Y-102500000D01*
%TO.N,U1A5*%
X60000000Y-75000000D02*
X60000000Y-77500000D01*
%TO.N,Servo0*%
X47525000Y-52500000D02*
X45040000Y-52500000D01*
%TO.N,Servo1*%
X45080000Y-57500000D02*
X47525000Y-57500000D01*
%TO.N,Servo2*%
X45040000Y-62500000D02*
X47525000Y-62500000D01*
%TO.N,Servo3*%
X47525000Y-67500000D02*
X45040000Y-67500000D01*
%TO.N,Servo4*%
X45080000Y-72500000D02*
X47525000Y-72500000D01*
%TO.N,Servo5*%
X47525000Y-77500000D02*
X45040000Y-77500000D01*
%TO.N,Servo6*%
X45040000Y-82500000D02*
X47525000Y-82500000D01*
%TO.N,Servo7*%
X45000001Y-87500000D02*
X47525000Y-87500000D01*
%TO.N,Servo8*%
X45080000Y-92500000D02*
X47525000Y-92500000D01*
%TO.N,Servo9*%
X45080000Y-97500000D02*
X47525000Y-97500000D01*
%TO.N,Servo10*%
X45040000Y-102500000D02*
X47525000Y-102500000D01*
%TO.N,Servo11*%
X45040000Y-107500000D02*
X47525000Y-107500000D01*
%TO.N,Servo12*%
X45040000Y-112500000D02*
X47525000Y-112500000D01*
%TO.N,Servo13*%
X45040000Y-117500000D02*
X47525000Y-117500000D01*
%TO.N,Servo14*%
X47509567Y-122200000D02*
X47525000Y-122184567D01*
X45080000Y-122200000D02*
X47509567Y-122200000D01*
%TO.N,Servo15*%
X45080000Y-127500000D02*
X47525000Y-127500000D01*
D70*
%TO.N,U2A0*%
X95300804Y-65650000D02*
X97162500Y-65650000D01*
D71*
X100000000Y-95000000D02*
X100000000Y-97500000D01*
D70*
X94731337Y-66219467D02*
X95300804Y-65650000D01*
%TO.N,U2A1*%
X94737701Y-67237701D02*
X95675402Y-66300000D01*
D71*
X99975000Y-92435000D02*
X100000000Y-92460000D01*
X99975000Y-90000000D02*
X99975000Y-92435000D01*
D70*
X95675402Y-66300000D02*
X97162500Y-66300000D01*
%TO.N,U2A2*%
X94750000Y-68250000D02*
X96050000Y-66950000D01*
D71*
X100000000Y-85000000D02*
X100000000Y-87500000D01*
D70*
X96050000Y-66950000D02*
X97162500Y-66950000D01*
%TO.N,U2A3*%
X94750497Y-69250000D02*
X94750000Y-69249503D01*
D71*
X99975000Y-80000000D02*
X99975000Y-82475000D01*
D70*
X98050000Y-68450000D02*
X97250000Y-69250000D01*
X98050000Y-67837500D02*
X98050000Y-68450000D01*
X97250000Y-69250000D02*
X94750497Y-69250000D01*
D71*
X99975000Y-82475000D02*
X100000000Y-82500000D01*
%TO.N,U2A4*%
X99975000Y-75000000D02*
X99975000Y-77475000D01*
D70*
X98700000Y-67837500D02*
X98700000Y-69700000D01*
X99975000Y-70975000D02*
X99975000Y-75000000D01*
X98700000Y-69700000D02*
X99975000Y-70975000D01*
D71*
X99975000Y-77475000D02*
X100000000Y-77500000D01*
D70*
%TO.N,U2A5*%
X97250000Y-60500000D02*
X95000000Y-60500000D01*
X98050000Y-62162500D02*
X98050000Y-61300000D01*
X95000000Y-60500000D02*
X94250000Y-61250000D01*
D71*
X99975000Y-100000000D02*
X99975000Y-102475000D01*
D70*
X98050000Y-61300000D02*
X97250000Y-60500000D01*
D71*
X99975000Y-102475000D02*
X100000000Y-102500000D01*
D70*
X94250000Y-61250000D02*
X94250000Y-62975500D01*
D71*
%TO.N,Servo16*%
X114960000Y-127500000D02*
X112475000Y-127500000D01*
%TO.N,Servo17*%
X114960000Y-122500000D02*
X112475000Y-122500000D01*
%TO.N,Servo18*%
X115039999Y-117500000D02*
X112475000Y-117500000D01*
%TO.N,Servo19*%
X114960000Y-112500000D02*
X112475000Y-112500000D01*
%TO.N,Servo20*%
X114960000Y-107500000D02*
X112475000Y-107500000D01*
%TO.N,Servo21*%
X114960000Y-102500000D02*
X112475000Y-102500000D01*
%TO.N,Servo22*%
X114960000Y-97500000D02*
X112475000Y-97500000D01*
%TO.N,Servo23*%
X114960000Y-92500000D02*
X112500000Y-92500000D01*
%TO.N,Servo24*%
X115000000Y-87500000D02*
X112475000Y-87500000D01*
%TO.N,Servo25*%
X115000000Y-82500000D02*
X112475000Y-82500000D01*
%TO.N,Servo26*%
X114960000Y-77500000D02*
X112475000Y-77500000D01*
%TO.N,Servo27*%
X114960000Y-72500000D02*
X112475000Y-72500000D01*
%TO.N,Servo28*%
X114960000Y-67500000D02*
X112500000Y-67500000D01*
%TO.N,Servo29*%
X112475000Y-62500000D02*
X115000000Y-62500000D01*
%TO.N,Servo30*%
X114960000Y-57500000D02*
X112500000Y-57500000D01*
%TO.N,Servo31*%
X112500000Y-52500000D02*
X114960000Y-52500000D01*
D72*
%TO.N,/USB_ESD_D-*%
X80500000Y-38411368D02*
X80500000Y-37650000D01*
X80700000Y-41256249D02*
X80700000Y-40710050D01*
X80225000Y-38686368D02*
X80500000Y-38411368D01*
X80950000Y-41506249D02*
X80700000Y-41256249D01*
X80289950Y-40300000D02*
X80225000Y-40300000D01*
X80500000Y-37650000D02*
X80650000Y-37500000D01*
X80950000Y-42500000D02*
X80950000Y-41506249D01*
X80700000Y-40710050D02*
X80289950Y-40300000D01*
X80225000Y-40300000D02*
X80225000Y-38686368D01*
%TO.N,/USB_ESD_D+*%
X79050000Y-42500000D02*
X79050000Y-41506249D01*
X79775000Y-40300000D02*
X79775000Y-38425000D01*
X80000000Y-37513603D02*
X80000000Y-37500000D01*
X79850000Y-38425000D02*
X79850000Y-37663603D01*
X79300000Y-40710050D02*
X79710050Y-40300000D01*
X79300000Y-41256249D02*
X79300000Y-40710050D01*
X79775000Y-38425000D02*
X79850000Y-38425000D01*
X79710050Y-40300000D02*
X79775000Y-40300000D01*
X79050000Y-41506249D02*
X79300000Y-41256249D01*
X79850000Y-37663603D02*
X80000000Y-37513603D01*
D70*
%TO.N,USB_ID*%
X86824500Y-56407734D02*
X83128948Y-60103286D01*
X79000000Y-39500000D02*
X79000000Y-38725000D01*
X82000000Y-49750000D02*
X86824500Y-54574500D01*
X82000000Y-40500000D02*
X82000000Y-49750000D01*
X79000000Y-38725000D02*
X79350000Y-38375000D01*
X81000000Y-39500000D02*
X82000000Y-40500000D01*
X86824500Y-54574500D02*
X86824500Y-56407734D01*
X79350000Y-38375000D02*
X79350000Y-37500000D01*
%TO.N,I2C1_SCL*%
X72000000Y-59750000D02*
X73689340Y-59750000D01*
X93125000Y-58125000D02*
X93500000Y-58500000D01*
X62837500Y-66300000D02*
X65450000Y-66300000D01*
X73689340Y-59750000D02*
X75456839Y-61517499D01*
X76189340Y-62250000D02*
X79250000Y-62250000D01*
X75456839Y-61517499D02*
X76189340Y-62250000D01*
X93500000Y-58500000D02*
X93500000Y-63250805D01*
X97162500Y-63700000D02*
X93950000Y-63700000D01*
X93500000Y-63250805D02*
X93949598Y-63700403D01*
X93125000Y-58125000D02*
X92042629Y-57042629D01*
X92042629Y-57042629D02*
X90042629Y-57042629D01*
X65450000Y-66300000D02*
X72000000Y-59750000D01*
%TO.N,I2C1_SDA*%
X90750000Y-57767129D02*
X91395341Y-57767129D01*
X93000000Y-64121788D02*
X93000000Y-59371788D01*
X76482234Y-63250000D02*
X79250000Y-63250000D01*
X75103286Y-61871052D02*
X73732234Y-60500000D01*
X92439106Y-58810894D02*
X92310894Y-58810894D01*
X65075402Y-65650000D02*
X62837500Y-65650000D01*
X97162500Y-64350000D02*
X93228212Y-64350000D01*
X75103286Y-61871052D02*
X76482234Y-63250000D01*
X93228212Y-64350000D02*
X93000000Y-64121788D01*
X69737701Y-60987701D02*
X65075402Y-65650000D01*
X73732234Y-60500000D02*
X73250000Y-60500000D01*
X91395341Y-57767129D02*
X92439106Y-58810894D01*
X93000000Y-59371788D02*
X92439106Y-58810894D01*
%TO.N,SPI1_MOSI*%
X86284203Y-72344863D02*
X86284203Y-73715797D01*
X74900000Y-128150000D02*
X76750000Y-130000000D01*
X74900000Y-85100000D02*
X74900000Y-128150000D01*
X86284203Y-73715797D02*
X74900000Y-85100000D01*
X76750000Y-130000000D02*
X80525000Y-130000000D01*
X83482501Y-69543161D02*
X86284203Y-72344863D01*
%TO.N,SPI1_MISO*%
X76750000Y-132500000D02*
X74450000Y-130200000D01*
X80525000Y-132500000D02*
X76750000Y-132500000D01*
X74450000Y-84822792D02*
X85834203Y-73438589D01*
X74450000Y-130200000D02*
X74450000Y-84822792D01*
X85834203Y-73438589D02*
X85834203Y-72601969D01*
X85834203Y-72601969D02*
X83128948Y-69896714D01*
%TO.N,SPI1_SCK*%
X85384203Y-72859077D02*
X85384203Y-73252193D01*
X82775394Y-70250268D02*
X85384203Y-72859077D01*
X85384203Y-73252193D02*
X74000000Y-84636396D01*
X74000000Y-84636396D02*
X74000000Y-132250000D01*
X76750000Y-135000000D02*
X80525000Y-135000000D01*
X74000000Y-132250000D02*
X76750000Y-135000000D01*
%TO.N,SPI2_MISO*%
X70975500Y-124501708D02*
X69627208Y-125850000D01*
X48813604Y-147050000D02*
X46285000Y-149578604D01*
X69627208Y-125850000D02*
X62240812Y-125850000D01*
X46285000Y-149578604D02*
X46285000Y-153635000D01*
X70975500Y-98000000D02*
X70975500Y-124501708D01*
X59850000Y-128240812D02*
X59850000Y-143513604D01*
X62240812Y-125850000D02*
X59850000Y-128240812D01*
X56313604Y-147050000D02*
X48813604Y-147050000D01*
X59850000Y-143513604D02*
X56313604Y-147050000D01*
X46285000Y-153635000D02*
X44920000Y-155000000D01*
%TO.N,SPI2_MOSI*%
X58500000Y-142954416D02*
X55754416Y-145700000D01*
X61681624Y-124500000D02*
X58500000Y-127681624D01*
X55754416Y-145700000D02*
X48254416Y-145700000D01*
X48254416Y-145700000D02*
X42380000Y-151574416D01*
X68750000Y-97000000D02*
X68750000Y-123250000D01*
X42380000Y-151574416D02*
X42380000Y-152460000D01*
X68750000Y-123250000D02*
X67500000Y-124500000D01*
X67500000Y-124500000D02*
X61681624Y-124500000D01*
X58500000Y-127681624D02*
X58500000Y-142954416D01*
%TO.N,SPI2_SCK*%
X84846194Y-64750000D02*
X86310928Y-63285266D01*
X56127208Y-146600000D02*
X48627208Y-146600000D01*
X62054416Y-125400000D02*
X59400000Y-128054416D01*
X59400000Y-143327208D02*
X56127208Y-146600000D01*
X44920000Y-150307208D02*
X44920000Y-152460000D01*
X48627208Y-146600000D02*
X44920000Y-150307208D01*
X70250000Y-124000000D02*
X68850000Y-125400000D01*
X68850000Y-125400000D02*
X62054416Y-125400000D01*
X84750000Y-64750000D02*
X84846194Y-64750000D01*
X59400000Y-128054416D02*
X59400000Y-143327208D01*
X70250000Y-97000000D02*
X70250000Y-124000000D01*
D71*
%TO.N,Net-(J55-~{RESET})*%
X70275000Y-40000000D02*
X67540000Y-40000000D01*
%TO.N,Net-(J55-SWDCLK{slash}TCK)*%
X67600000Y-36250000D02*
X67540000Y-36190000D01*
X70275000Y-36250000D02*
X67600000Y-36250000D01*
%TO.N,Net-(J55-SWDIO{slash}TMS)*%
X67710000Y-34750000D02*
X67540000Y-34920000D01*
X70335000Y-34750000D02*
X67710000Y-34750000D01*
%TO.N,Net-(J55-SWO{slash}TDO)*%
X67580000Y-37500000D02*
X67540000Y-37460000D01*
X70275000Y-37500000D02*
X67580000Y-37500000D01*
D70*
%TO.N,Net-(U2-LED0)*%
X60650000Y-59400000D02*
X60650000Y-62162500D01*
X48165000Y-52500000D02*
X53750000Y-52500000D01*
X53750000Y-52500000D02*
X60650000Y-59400000D01*
%TO.N,Net-(U2-LED1)*%
X58000000Y-57500000D02*
X48165000Y-57500000D01*
X60000000Y-62162500D02*
X60000000Y-59500000D01*
X60000000Y-59500000D02*
X58000000Y-57500000D01*
%TO.N,Net-(U2-LED2)*%
X52750000Y-59750000D02*
X58750000Y-59750000D01*
X50000000Y-62500000D02*
X52750000Y-59750000D01*
X48165000Y-62500000D02*
X50000000Y-62500000D01*
X58750000Y-59750000D02*
X59350000Y-60350000D01*
X59350000Y-60350000D02*
X59350000Y-62162500D01*
%TO.N,Net-(U2-LED3)*%
X50750000Y-66750000D02*
X50000000Y-67500000D01*
X50750000Y-62386396D02*
X50750000Y-66750000D01*
X58250000Y-60250000D02*
X52886396Y-60250000D01*
X58700000Y-60700000D02*
X58250000Y-60250000D01*
X50000000Y-67500000D02*
X48165000Y-67500000D01*
X52886396Y-60250000D02*
X50750000Y-62386396D01*
X58700000Y-62162500D02*
X58700000Y-60700000D01*
%TO.N,Net-(U2-LED4)*%
X57750000Y-60750000D02*
X53022792Y-60750000D01*
X58050000Y-61050000D02*
X57750000Y-60750000D01*
X58050000Y-62162500D02*
X58050000Y-61050000D01*
X51250000Y-71250000D02*
X50000000Y-72500000D01*
X51250000Y-62522792D02*
X51250000Y-71250000D01*
X53022792Y-60750000D02*
X51250000Y-62522792D01*
X50000000Y-72500000D02*
X48165000Y-72500000D01*
%TO.N,Net-(U2-LED5)*%
X57162500Y-63050000D02*
X53200000Y-63050000D01*
X53200000Y-63050000D02*
X51700000Y-64550000D01*
X51700000Y-75800000D02*
X50000000Y-77500000D01*
X51700000Y-64550000D02*
X51700000Y-75800000D01*
X50000000Y-77500000D02*
X48165000Y-77500000D01*
%TO.N,Net-(U2-LED6)*%
X50000000Y-82500000D02*
X48165000Y-82500000D01*
X52150000Y-80350000D02*
X50000000Y-82500000D01*
X53550000Y-63700000D02*
X52150000Y-65100000D01*
X52150000Y-65100000D02*
X52150000Y-80350000D01*
X57162500Y-63700000D02*
X53550000Y-63700000D01*
%TO.N,Net-(U2-LED7)*%
X52600000Y-84900000D02*
X50000000Y-87500000D01*
X57162500Y-64350000D02*
X53536396Y-64350000D01*
X53536396Y-64350000D02*
X52600000Y-65286396D01*
X50000000Y-87500000D02*
X48165000Y-87500000D01*
X52600000Y-65286396D02*
X52600000Y-84900000D01*
%TO.N,Net-(U2-LED8)*%
X54400000Y-65650000D02*
X53050000Y-67000000D01*
X53050000Y-89450000D02*
X50000000Y-92500000D01*
X50000000Y-92500000D02*
X48165000Y-92500000D01*
X57162500Y-65650000D02*
X54400000Y-65650000D01*
X53050000Y-67000000D02*
X53050000Y-89450000D01*
%TO.N,Net-(U2-LED9)*%
X53500000Y-94000000D02*
X50000000Y-97500000D01*
X57162500Y-66300000D02*
X54450000Y-66300000D01*
X53500000Y-67250000D02*
X53500000Y-94000000D01*
X54450000Y-66300000D02*
X53500000Y-67250000D01*
X50000000Y-97500000D02*
X48165000Y-97500000D01*
%TO.N,Net-(U2-LED10)*%
X57162500Y-66950000D02*
X54436396Y-66950000D01*
X50000000Y-102500000D02*
X48165000Y-102500000D01*
X54436396Y-66950000D02*
X53950000Y-67436396D01*
X53950000Y-67436396D02*
X53950000Y-98550000D01*
X53950000Y-98550000D02*
X50000000Y-102500000D01*
%TO.N,Net-(U2-LED11)*%
X58050000Y-67837500D02*
X58050000Y-68700000D01*
X50000000Y-107500000D02*
X48165000Y-107500000D01*
X56363604Y-69250000D02*
X54400000Y-71213604D01*
X57500000Y-69250000D02*
X56363604Y-69250000D01*
X54400000Y-103100000D02*
X50000000Y-107500000D01*
X58050000Y-68700000D02*
X57500000Y-69250000D01*
X54400000Y-71213604D02*
X54400000Y-103100000D01*
%TO.N,Net-(U2-LED12)*%
X54850000Y-71400000D02*
X56500000Y-69750000D01*
X50000000Y-112500000D02*
X54850000Y-107650000D01*
X56500000Y-69750000D02*
X57750000Y-69750000D01*
X58700000Y-68800000D02*
X58700000Y-67837500D01*
X54850000Y-107650000D02*
X54850000Y-71400000D01*
X48165000Y-112500000D02*
X50000000Y-112500000D01*
X57750000Y-69750000D02*
X58700000Y-68800000D01*
%TO.N,Net-(U2-LED13)*%
X59350000Y-68786396D02*
X57886396Y-70250000D01*
X50000000Y-117500000D02*
X48165000Y-117500000D01*
X55300000Y-71700000D02*
X55300000Y-112200000D01*
X55300000Y-112200000D02*
X50000000Y-117500000D01*
X59350000Y-67837500D02*
X59350000Y-68786396D01*
X56750000Y-70250000D02*
X55300000Y-71700000D01*
X57886396Y-70250000D02*
X56750000Y-70250000D01*
%TO.N,Net-(U2-LED14)*%
X60000000Y-67837500D02*
X60000000Y-68772792D01*
X50065433Y-122184567D02*
X48165000Y-122184567D01*
X57050000Y-70700000D02*
X55750000Y-72000000D01*
X58072792Y-70700000D02*
X57050000Y-70700000D01*
X55750000Y-116500000D02*
X50065433Y-122184567D01*
X55750000Y-72000000D02*
X55750000Y-116500000D01*
X60000000Y-68772792D02*
X58072792Y-70700000D01*
%TO.N,Net-(U2-LED15)*%
X60650000Y-67837500D02*
X60650000Y-68759188D01*
X57136396Y-71250000D02*
X56250000Y-72136396D01*
X50000000Y-127500000D02*
X48165000Y-127500000D01*
X58159188Y-71250000D02*
X57136396Y-71250000D01*
X60650000Y-68759188D02*
X58159188Y-71250000D01*
X56250000Y-121250000D02*
X50000000Y-127500000D01*
X56250000Y-72136396D02*
X56250000Y-121250000D01*
%TO.N,Net-(U3-LED0)*%
X110000000Y-127500000D02*
X103550000Y-121050000D01*
X101668198Y-71918198D02*
X99350000Y-69600000D01*
X103550000Y-121050000D02*
X103550000Y-72686396D01*
X103550000Y-72686396D02*
X102781802Y-71918198D01*
X102781802Y-71918198D02*
X101668198Y-71918198D01*
X111835000Y-127500000D02*
X110000000Y-127500000D01*
X99350000Y-69600000D02*
X99350000Y-67837500D01*
%TO.N,Net-(U3-LED1)*%
X104000000Y-72500000D02*
X104000000Y-116500000D01*
X110000000Y-122500000D02*
X111835000Y-122500000D01*
X101945406Y-71468198D02*
X102968198Y-71468198D01*
X100000000Y-69522792D02*
X101945406Y-71468198D01*
X102968198Y-71468198D02*
X104000000Y-72500000D01*
X104000000Y-116500000D02*
X110000000Y-122500000D01*
X100000000Y-67837500D02*
X100000000Y-69522792D01*
%TO.N,Net-(U3-LED2)*%
X110000000Y-117500000D02*
X104450000Y-111950000D01*
X103268198Y-71018198D02*
X102131802Y-71018198D01*
X111835000Y-117500000D02*
X110000000Y-117500000D01*
X104450000Y-111950000D02*
X104450000Y-72200000D01*
X104450000Y-72200000D02*
X103268198Y-71018198D01*
X100650000Y-69536396D02*
X100650000Y-67837500D01*
X102131802Y-71018198D02*
X100650000Y-69536396D01*
%TO.N,Net-(U3-LED3)*%
X103681802Y-70568198D02*
X102318198Y-70568198D01*
X104900000Y-71786396D02*
X103681802Y-70568198D01*
X111835000Y-112500000D02*
X110000000Y-112500000D01*
X104900000Y-107400000D02*
X104900000Y-71786396D01*
X110000000Y-112500000D02*
X104900000Y-107400000D01*
X102318198Y-70568198D02*
X101300000Y-69550000D01*
X101300000Y-69550000D02*
X101300000Y-67837500D01*
%TO.N,Net-(U3-LED4)*%
X105350000Y-102850000D02*
X110000000Y-107500000D01*
X102500000Y-70000000D02*
X103750000Y-70000000D01*
X110000000Y-107500000D02*
X111835000Y-107500000D01*
X103750000Y-70000000D02*
X105350000Y-71600000D01*
X105350000Y-71600000D02*
X105350000Y-102850000D01*
X101950000Y-67837500D02*
X101950000Y-69450000D01*
X101950000Y-69450000D02*
X102500000Y-70000000D01*
%TO.N,Net-(U3-LED5)*%
X105800000Y-98300000D02*
X110000000Y-102500000D01*
X110000000Y-102500000D02*
X111835000Y-102500000D01*
X105800000Y-67550000D02*
X105800000Y-98300000D01*
X102837500Y-66950000D02*
X105200000Y-66950000D01*
X105200000Y-66950000D02*
X105800000Y-67550000D01*
%TO.N,Net-(U3-LED6)*%
X110000000Y-97500000D02*
X111835000Y-97500000D01*
X106250000Y-67250000D02*
X106250000Y-93750000D01*
X102837500Y-66300000D02*
X105300000Y-66300000D01*
X105300000Y-66300000D02*
X106250000Y-67250000D01*
X106250000Y-93750000D02*
X110000000Y-97500000D01*
%TO.N,Net-(U3-LED7)*%
X110000000Y-92500000D02*
X111835000Y-92500000D01*
X106750000Y-67000000D02*
X106750000Y-89250000D01*
X105400000Y-65650000D02*
X106750000Y-67000000D01*
X102837500Y-65650000D02*
X105400000Y-65650000D01*
X106750000Y-89250000D02*
X110000000Y-92500000D01*
%TO.N,Net-(U3-LED8)*%
X107250000Y-65000000D02*
X107250000Y-84750000D01*
X102837500Y-64350000D02*
X106600000Y-64350000D01*
X107250000Y-84750000D02*
X110000000Y-87500000D01*
X106600000Y-64350000D02*
X107250000Y-65000000D01*
X110000000Y-87500000D02*
X111835000Y-87500000D01*
%TO.N,Net-(U3-LED9)*%
X102837500Y-63700000D02*
X106863604Y-63700000D01*
X110000000Y-82500000D02*
X111835000Y-82500000D01*
X106863604Y-63700000D02*
X107750000Y-64586396D01*
X107750000Y-64586396D02*
X107750000Y-80250000D01*
X107750000Y-80250000D02*
X110000000Y-82500000D01*
%TO.N,Net-(U3-LED10)*%
X108300000Y-64500000D02*
X108300000Y-75800000D01*
X110000000Y-77500000D02*
X111835000Y-77500000D01*
X106850000Y-63050000D02*
X108300000Y-64500000D01*
X108300000Y-75800000D02*
X110000000Y-77500000D01*
X102837500Y-63050000D02*
X106850000Y-63050000D01*
%TO.N,Net-(U3-LED11)*%
X101950000Y-61050000D02*
X102550000Y-60450000D01*
X101950000Y-62162500D02*
X101950000Y-61050000D01*
X106677208Y-60450000D02*
X108750000Y-62522792D01*
X110000000Y-72500000D02*
X111835000Y-72500000D01*
X102550000Y-60450000D02*
X106677208Y-60450000D01*
X108750000Y-62522792D02*
X108750000Y-71250000D01*
X108750000Y-71250000D02*
X110000000Y-72500000D01*
%TO.N,Net-(U3-LED12)*%
X109200000Y-62336396D02*
X109200000Y-66700000D01*
X101300000Y-60950000D02*
X102250000Y-60000000D01*
X109200000Y-66700000D02*
X110000000Y-67500000D01*
X102250000Y-60000000D02*
X106863604Y-60000000D01*
X106863604Y-60000000D02*
X109200000Y-62336396D01*
X110000000Y-67500000D02*
X111835000Y-67500000D01*
X101300000Y-62162500D02*
X101300000Y-60950000D01*
%TO.N,Net-(U3-LED13)*%
X102063604Y-59550000D02*
X100650000Y-60963604D01*
X100650000Y-60963604D02*
X100650000Y-62162500D01*
X107050000Y-59550000D02*
X102063604Y-59550000D01*
X111835000Y-62500000D02*
X110000000Y-62500000D01*
X110000000Y-62500000D02*
X107050000Y-59550000D01*
%TO.N,Net-(U3-LED14)*%
X100000000Y-58250000D02*
X100750000Y-57500000D01*
X100000000Y-62162500D02*
X100000000Y-58250000D01*
X100750000Y-57500000D02*
X111835000Y-57500000D01*
%TO.N,Net-(U3-LED15)*%
X105000000Y-52500000D02*
X99350000Y-58150000D01*
X99350000Y-58150000D02*
X99350000Y-62162500D01*
X111860000Y-52500000D02*
X105000000Y-52500000D01*
%TO.N,/BOOT0*%
X76499626Y-63974500D02*
X77750000Y-63974500D01*
X97000000Y-43000000D02*
X97000000Y-41225000D01*
X74749732Y-62224606D02*
X76499626Y-63974500D01*
D71*
%TO.N,NRST*%
X64500000Y-41750000D02*
X69750000Y-41750000D01*
D70*
X51025000Y-39750000D02*
X58975000Y-39750000D01*
D71*
X62500000Y-39750000D02*
X64500000Y-41750000D01*
X70915000Y-40585000D02*
X70915000Y-40000000D01*
X58975000Y-39750000D02*
X62500000Y-39750000D01*
X69750000Y-41750000D02*
X70915000Y-40585000D01*
%TO.N,SWDCLK*%
X73500000Y-44000000D02*
X73500000Y-37250000D01*
X72500000Y-36250000D02*
X70915000Y-36250000D01*
X73500000Y-37250000D02*
X72500000Y-36250000D01*
X77250000Y-47750000D02*
X73500000Y-44000000D01*
X78638819Y-58335519D02*
X77250000Y-56946700D01*
X77250000Y-56946700D02*
X77250000Y-47750000D01*
%TO.N,SWDIO*%
X83401709Y-57709203D02*
X83601458Y-57709203D01*
X85500000Y-55189339D02*
X74000000Y-43689339D01*
X74000000Y-43689339D02*
X74000000Y-35750000D01*
X85500000Y-55810661D02*
X85500000Y-55189339D01*
X74000000Y-35750000D02*
X73000000Y-34750000D01*
X73000000Y-34750000D02*
X70975000Y-34750000D01*
X82068287Y-59042625D02*
X83401709Y-57709203D01*
X83601458Y-57709203D02*
X85500000Y-55810661D01*
D70*
%TO.N,DHT11_DA*%
X82500000Y-96270000D02*
X82500000Y-100000000D01*
D71*
%TO.N,Net-(U3-~{OE})*%
X98750000Y-58725000D02*
X98750000Y-62112500D01*
X98750000Y-62112500D02*
X98700000Y-62162500D01*
D70*
%TO.N,NRF_IRQ*%
X68300000Y-124950000D02*
X61868020Y-124950000D01*
X58950000Y-143140812D02*
X55940812Y-146150000D01*
X61868020Y-124950000D02*
X58950000Y-127868020D01*
X43745000Y-153635000D02*
X42380000Y-155000000D01*
X58950000Y-127868020D02*
X58950000Y-143140812D01*
X48440812Y-146150000D02*
X43745000Y-150845812D01*
X43745000Y-150845812D02*
X43745000Y-153635000D01*
X55940812Y-146150000D02*
X48440812Y-146150000D01*
X69500000Y-98000000D02*
X69500000Y-123750000D01*
X69500000Y-123750000D02*
X68300000Y-124950000D01*
%TO.N,NRF_CE*%
X60300000Y-128427208D02*
X60300000Y-143700000D01*
X47460000Y-149040000D02*
X47460000Y-152460000D01*
X56500000Y-147500000D02*
X49000000Y-147500000D01*
X69813604Y-126300000D02*
X62427208Y-126300000D01*
X77000000Y-75250000D02*
X71700000Y-80550000D01*
X77000000Y-71889088D02*
X77000000Y-75250000D01*
X62427208Y-126300000D02*
X60300000Y-128427208D01*
X60300000Y-143700000D02*
X56500000Y-147500000D01*
X71700000Y-80550000D02*
X71700000Y-124413604D01*
X71700000Y-124413604D02*
X69813604Y-126300000D01*
X77931713Y-70957375D02*
X77000000Y-71889088D01*
X49000000Y-147500000D02*
X47460000Y-149040000D01*
%TO.N,NRF_CSN*%
X49186396Y-147950000D02*
X48635000Y-148501396D01*
X70000000Y-126750000D02*
X62613604Y-126750000D01*
X77450000Y-72146194D02*
X77450000Y-75436396D01*
X72150000Y-124600000D02*
X70000000Y-126750000D01*
X62613604Y-126750000D02*
X60750000Y-128613604D01*
X48635000Y-153825000D02*
X47460000Y-155000000D01*
X78285266Y-71310928D02*
X77450000Y-72146194D01*
X56686396Y-147950000D02*
X49186396Y-147950000D01*
X60750000Y-128613604D02*
X60750000Y-143886396D01*
X60750000Y-143886396D02*
X56686396Y-147950000D01*
X72150000Y-80736396D02*
X72150000Y-124600000D01*
X48635000Y-148501396D02*
X48635000Y-153825000D01*
X77450000Y-75436396D02*
X72150000Y-80736396D01*
%TO.N,/PB0*%
X87634203Y-71573543D02*
X84543161Y-68482501D01*
X78750000Y-84960000D02*
X78750000Y-83159188D01*
X87634203Y-74274985D02*
X87634203Y-71573543D01*
X78750000Y-83159188D02*
X87634203Y-74274985D01*
%TO.N,/PB1*%
X79925000Y-86325000D02*
X79925000Y-82620584D01*
X88084203Y-71316437D02*
X88084203Y-74461381D01*
X79925000Y-82620584D02*
X88084203Y-74461381D01*
X84896714Y-68128948D02*
X88084203Y-71316437D01*
X78750000Y-87500000D02*
X79925000Y-86325000D01*
%TO.N,IMU_INT*%
X92060660Y-54000000D02*
X99750000Y-54000000D01*
X99300000Y-51800000D02*
X99300000Y-50700000D01*
X99750000Y-54000000D02*
X100250000Y-53500000D01*
X100250000Y-52750000D02*
X99300000Y-51800000D01*
X84543161Y-61517499D02*
X92060660Y-54000000D01*
X100250000Y-53500000D02*
X100250000Y-52750000D01*
%TO.N,/PB14*%
X87500000Y-82500000D02*
X87500000Y-76250000D01*
X85040000Y-84960000D02*
X87500000Y-82500000D01*
X81290000Y-84960000D02*
X85040000Y-84960000D01*
X86639088Y-62250000D02*
X88250000Y-62250000D01*
X85957375Y-62931713D02*
X86639088Y-62250000D01*
%TO.N,/PB15*%
X88250000Y-77000000D02*
X88250000Y-84250000D01*
X86656980Y-61525000D02*
X85603821Y-62578159D01*
X85000000Y-87500000D02*
X81290000Y-87500000D01*
X88250000Y-84250000D02*
X85000000Y-87500000D01*
X88549598Y-61525000D02*
X86656980Y-61525000D01*
X89262299Y-62237701D02*
X88549598Y-61525000D01*
%TO.N,/PC6*%
X89000000Y-86000000D02*
X84960000Y-90040000D01*
X84960000Y-90040000D02*
X81290000Y-90040000D01*
X89000000Y-77750000D02*
X89000000Y-86000000D01*
X88799196Y-60750000D02*
X86724874Y-60750000D01*
X90280533Y-62231337D02*
X88799196Y-60750000D01*
X86724874Y-60750000D02*
X85250268Y-62224606D01*
%TO.N,/PC7*%
X85170000Y-92580000D02*
X81290000Y-92580000D01*
X86767766Y-60000000D02*
X84896714Y-61871052D01*
X90000000Y-87750000D02*
X85170000Y-92580000D01*
X90000000Y-78500000D02*
X90000000Y-87750000D01*
X89250000Y-60000000D02*
X86767766Y-60000000D01*
X91500000Y-62250000D02*
X89250000Y-60000000D01*
D72*
%TO.N,USB_D-*%
X80225000Y-48642250D02*
X86399500Y-54816750D01*
X83494494Y-59088931D02*
X83436195Y-59088931D01*
X86399500Y-54816750D02*
X86399500Y-55437397D01*
X86399980Y-56183445D02*
X83494494Y-59088931D01*
X80950000Y-44775000D02*
X80950000Y-45768751D01*
X83436195Y-59088931D02*
X82775394Y-59749732D01*
X86399980Y-55437877D02*
X86399980Y-56183445D01*
X80950000Y-45768751D02*
X80225000Y-46493751D01*
X86399500Y-55437397D02*
X86399980Y-55437877D01*
X80225000Y-46493751D02*
X80225000Y-48642250D01*
%TO.N,USB_D+*%
X79050000Y-45768751D02*
X79775000Y-46493751D01*
X83082642Y-58735378D02*
X82421841Y-59396179D01*
X79050000Y-44775000D02*
X79050000Y-45768751D01*
X85950000Y-55624265D02*
X85950000Y-55997057D01*
X79775000Y-48828650D02*
X85949500Y-55003150D01*
X85950000Y-55997057D02*
X83211679Y-58735378D01*
X85949500Y-55003150D02*
X85949500Y-55623765D01*
X79775000Y-46493751D02*
X79775000Y-48828650D01*
X83211679Y-58735378D02*
X83082642Y-58735378D01*
X85949500Y-55623765D02*
X85950000Y-55624265D01*
D71*
%TO.N,/RESET_CAP*%
X58975000Y-35250000D02*
X60475000Y-35250000D01*
D70*
X51025000Y-35250000D02*
X58975000Y-35250000D01*
D71*
X60475000Y-35250000D02*
X60500000Y-35275000D01*
D70*
%TO.N,USART2_TX*%
X65000000Y-130000000D02*
X69250000Y-130000000D01*
X77900000Y-72367946D02*
X78603465Y-71664481D01*
X72600000Y-126650000D02*
X72600000Y-80922792D01*
X78603465Y-71664481D02*
X78638819Y-71664481D01*
X72600000Y-80922792D02*
X77900000Y-75622792D01*
X77900000Y-75622792D02*
X77900000Y-72367946D01*
X69250000Y-130000000D02*
X72600000Y-126650000D01*
%TO.N,USART2_RX*%
X69250000Y-132500000D02*
X65000000Y-132500000D01*
X80000000Y-73250000D02*
X80000000Y-74159188D01*
X73050000Y-128700000D02*
X69250000Y-132500000D01*
X81361181Y-71664481D02*
X81361181Y-71888819D01*
X73050000Y-81109188D02*
X73050000Y-128700000D01*
X81361181Y-71888819D02*
X80000000Y-73250000D01*
X80000000Y-74159188D02*
X73050000Y-81109188D01*
%TO.N,USART2_CK*%
X84523614Y-72705594D02*
X84523614Y-73374412D01*
X73500000Y-130750000D02*
X69250000Y-135000000D01*
X69250000Y-135000000D02*
X65000000Y-135000000D01*
X84523614Y-73374412D02*
X73500000Y-84398026D01*
X73500000Y-84398026D02*
X73500000Y-130750000D01*
X82421841Y-70603821D02*
X84523614Y-72705594D01*
%TO.N,I2C3_SDA*%
X84189608Y-61163946D02*
X92230000Y-53123554D01*
X95750000Y-45750000D02*
X93480000Y-45750000D01*
X92230000Y-53123554D02*
X92230000Y-47000000D01*
X93480000Y-45750000D02*
X92230000Y-47000000D01*
X96800000Y-46800000D02*
X95750000Y-45750000D01*
%TO.N,I2C3_SCL*%
X91010000Y-47010000D02*
X91010000Y-53636446D01*
X96340685Y-45300000D02*
X92720000Y-45300000D01*
X97300000Y-46800000D02*
X97300000Y-46259315D01*
X92720000Y-45300000D02*
X91010000Y-47010000D01*
X97300000Y-46259315D02*
X96340685Y-45300000D01*
X91010000Y-53636446D02*
X83836054Y-60810392D01*
%TO.N,/PC4*%
X86734203Y-72087757D02*
X83836054Y-69189608D01*
X77000000Y-90830000D02*
X77000000Y-83636396D01*
X77000000Y-83636396D02*
X86734203Y-73902193D01*
X86734203Y-73902193D02*
X86734203Y-72087757D01*
X78750000Y-92580000D02*
X77000000Y-90830000D01*
%TO.N,/PC5*%
X78750000Y-90040000D02*
X77450000Y-88740000D01*
X84189608Y-68836054D02*
X87184203Y-71830649D01*
X87184203Y-71830649D02*
X87184203Y-74088589D01*
X77450000Y-83822792D02*
X87184203Y-74088589D01*
X77450000Y-88740000D02*
X77450000Y-83822792D01*
%TD*%
%TA.AperFunction,Conductor*%
%TO.N,/BAT_POS*%
G36*
X112515677Y-170019685D02*
G01*
X112536319Y-170036319D01*
X113963681Y-171463681D01*
X113997166Y-171525004D01*
X114000000Y-171551362D01*
X114000000Y-173050991D01*
X113980315Y-173118030D01*
X113927511Y-173163785D01*
X113858353Y-173173729D01*
X113794797Y-173144704D01*
X113757023Y-173085926D01*
X113754834Y-173077349D01*
X113723890Y-172935104D01*
X113623908Y-172667041D01*
X113486808Y-172415961D01*
X113486807Y-172415960D01*
X113315360Y-172186934D01*
X113315350Y-172186922D01*
X113113077Y-171984649D01*
X113113065Y-171984639D01*
X112884039Y-171813192D01*
X112884038Y-171813191D01*
X112632957Y-171676091D01*
X112632958Y-171676091D01*
X112364895Y-171576109D01*
X112085362Y-171515300D01*
X111871436Y-171500000D01*
X110550000Y-171500000D01*
X110550000Y-172763365D01*
X110450620Y-172750000D01*
X110224772Y-172750000D01*
X110050000Y-172761699D01*
X110050000Y-171500000D01*
X108728563Y-171500000D01*
X108514637Y-171515300D01*
X108235104Y-171576109D01*
X107967041Y-171676091D01*
X107715961Y-171813191D01*
X107715960Y-171813192D01*
X107486934Y-171984639D01*
X107486922Y-171984649D01*
X107284649Y-172186922D01*
X107284639Y-172186934D01*
X107113192Y-172415960D01*
X107113191Y-172415961D01*
X106976091Y-172667041D01*
X106876109Y-172935104D01*
X106815300Y-173214637D01*
X106800000Y-173428563D01*
X106800000Y-174750000D01*
X108060385Y-174750000D01*
X108056289Y-174774281D01*
X108046223Y-175075352D01*
X108063793Y-175250000D01*
X106800000Y-175250000D01*
X106800000Y-176571436D01*
X106815300Y-176785362D01*
X106876109Y-177064895D01*
X106976091Y-177332958D01*
X107113191Y-177584038D01*
X107113192Y-177584039D01*
X107284639Y-177813065D01*
X107284649Y-177813077D01*
X107486922Y-178015350D01*
X107486934Y-178015360D01*
X107715960Y-178186807D01*
X107715961Y-178186808D01*
X107967042Y-178323908D01*
X107967041Y-178323908D01*
X108235104Y-178423890D01*
X108514637Y-178484699D01*
X108728563Y-178499999D01*
X108728566Y-178500000D01*
X110050000Y-178500000D01*
X110050000Y-177236634D01*
X110149380Y-177250000D01*
X110375228Y-177250000D01*
X110550000Y-177238300D01*
X110550000Y-178500000D01*
X111871434Y-178500000D01*
X111871436Y-178499999D01*
X112085362Y-178484699D01*
X112364895Y-178423890D01*
X112632958Y-178323908D01*
X112884038Y-178186808D01*
X112884039Y-178186807D01*
X113113065Y-178015360D01*
X113113077Y-178015350D01*
X113315350Y-177813077D01*
X113315360Y-177813065D01*
X113486807Y-177584039D01*
X113486808Y-177584038D01*
X113623908Y-177332958D01*
X113723890Y-177064893D01*
X113754833Y-176922651D01*
X113788317Y-176861327D01*
X113849640Y-176827842D01*
X113919332Y-176832826D01*
X113975266Y-176874697D01*
X113999683Y-176940161D01*
X113999999Y-176949008D01*
X114000000Y-178448638D01*
X113980315Y-178515677D01*
X113963681Y-178536319D01*
X112536319Y-179963681D01*
X112474996Y-179997166D01*
X112448638Y-180000000D01*
X102301362Y-180000000D01*
X102234323Y-179980315D01*
X102213681Y-179963681D01*
X100427523Y-178177523D01*
X100394038Y-178116200D01*
X100399022Y-178046508D01*
X100403113Y-178038003D01*
X100402715Y-178037821D01*
X100465336Y-177900702D01*
X100465338Y-177900698D01*
X100485023Y-177833659D01*
X100485024Y-177833655D01*
X100505500Y-177691239D01*
X100505500Y-175250000D01*
X101925001Y-175250000D01*
X101925001Y-177524986D01*
X101935494Y-177627697D01*
X101990641Y-177794119D01*
X101990643Y-177794124D01*
X102082684Y-177943345D01*
X102206654Y-178067315D01*
X102355875Y-178159356D01*
X102355880Y-178159358D01*
X102522302Y-178214505D01*
X102522309Y-178214506D01*
X102625019Y-178224999D01*
X103137499Y-178224999D01*
X103137500Y-178224998D01*
X103137500Y-175250000D01*
X103637500Y-175250000D01*
X103637500Y-178224999D01*
X104149972Y-178224999D01*
X104149986Y-178224998D01*
X104252697Y-178214505D01*
X104419119Y-178159358D01*
X104419124Y-178159356D01*
X104568345Y-178067315D01*
X104692315Y-177943345D01*
X104784356Y-177794124D01*
X104784358Y-177794119D01*
X104839505Y-177627697D01*
X104839506Y-177627690D01*
X104849999Y-177524986D01*
X104850000Y-177524973D01*
X104850000Y-175250000D01*
X103637500Y-175250000D01*
X103137500Y-175250000D01*
X101925001Y-175250000D01*
X100505500Y-175250000D01*
X100505500Y-174750000D01*
X101925000Y-174750000D01*
X103137500Y-174750000D01*
X103137500Y-171775000D01*
X103637500Y-171775000D01*
X103637500Y-174750000D01*
X104849999Y-174750000D01*
X104849998Y-172475028D01*
X104849998Y-172475013D01*
X104839505Y-172372302D01*
X104784358Y-172205880D01*
X104784356Y-172205875D01*
X104692315Y-172056654D01*
X104568345Y-171932684D01*
X104419124Y-171840643D01*
X104419119Y-171840641D01*
X104252697Y-171785494D01*
X104252690Y-171785493D01*
X104149986Y-171775000D01*
X103637500Y-171775000D01*
X103137500Y-171775000D01*
X102625028Y-171775000D01*
X102625012Y-171775001D01*
X102522302Y-171785494D01*
X102355880Y-171840641D01*
X102355875Y-171840643D01*
X102206654Y-171932684D01*
X102082684Y-172056654D01*
X101990643Y-172205875D01*
X101990641Y-172205880D01*
X101935494Y-172372302D01*
X101935493Y-172372309D01*
X101925000Y-172475013D01*
X101925000Y-174750000D01*
X100505500Y-174750000D01*
X100505500Y-172286764D01*
X100505335Y-172277628D01*
X100504846Y-172264104D01*
X100503855Y-172245857D01*
X100473144Y-172105293D01*
X100454952Y-172056654D01*
X100448670Y-172039856D01*
X100448669Y-172039854D01*
X100448668Y-172039851D01*
X100408910Y-171967195D01*
X100393997Y-171898936D01*
X100418355Y-171833449D01*
X100429995Y-171820004D01*
X102213681Y-170036319D01*
X102275004Y-170002834D01*
X102301362Y-170000000D01*
X112448638Y-170000000D01*
X112515677Y-170019685D01*
G37*
%TD.AperFunction*%
%TD*%
%TA.AperFunction,Conductor*%
%TO.N,GND*%
G36*
X99293039Y-167006685D02*
G01*
X99338794Y-167059489D01*
X99350000Y-167111000D01*
X99350000Y-168424500D01*
X99397828Y-168424500D01*
X99397844Y-168424499D01*
X99457372Y-168418098D01*
X99457379Y-168418096D01*
X99592086Y-168367854D01*
X99592093Y-168367850D01*
X99707187Y-168281690D01*
X99707188Y-168281689D01*
X99760352Y-168210671D01*
X99816285Y-168168799D01*
X99885977Y-168163815D01*
X99947297Y-168197297D01*
X100000000Y-168250000D01*
X100448638Y-168250000D01*
X100515677Y-168269685D01*
X100536319Y-168286319D01*
X100713681Y-168463681D01*
X100747166Y-168525004D01*
X100750000Y-168551362D01*
X100750000Y-169948638D01*
X100730315Y-170015677D01*
X100713681Y-170036319D01*
X100536319Y-170213681D01*
X100474996Y-170247166D01*
X100448638Y-170250000D01*
X99301362Y-170250000D01*
X99234323Y-170230315D01*
X99213681Y-170213681D01*
X99036319Y-170036319D01*
X99002834Y-169974996D01*
X99000000Y-169948638D01*
X99000000Y-169500000D01*
X98750000Y-169250000D01*
X98727212Y-169240561D01*
X98728835Y-169236641D01*
X98707290Y-169230315D01*
X98661535Y-169177511D01*
X98651591Y-169108353D01*
X98659767Y-169078548D01*
X98689556Y-169006628D01*
X98697012Y-168950000D01*
X98189500Y-168950000D01*
X98122461Y-168930315D01*
X98076706Y-168877511D01*
X98065500Y-168826001D01*
X98065499Y-168674001D01*
X98085183Y-168606961D01*
X98137987Y-168561206D01*
X98189499Y-168550000D01*
X98697010Y-168550000D01*
X98701244Y-168545171D01*
X98709369Y-168493072D01*
X98755749Y-168440816D01*
X98823018Y-168421930D01*
X98834800Y-168422632D01*
X98852165Y-168424499D01*
X98852179Y-168424500D01*
X98900000Y-168424500D01*
X98900000Y-167437000D01*
X98024499Y-167437000D01*
X97957460Y-167417315D01*
X97911705Y-167364511D01*
X97900499Y-167313002D01*
X97900499Y-167110998D01*
X97920184Y-167043961D01*
X97972988Y-166998206D01*
X98024499Y-166987000D01*
X99226000Y-166987000D01*
X99293039Y-167006685D01*
G37*
%TD.AperFunction*%
%TD*%
%TA.AperFunction,Conductor*%
%TO.N,GND*%
G36*
X81687539Y-166519685D02*
G01*
X81733294Y-166572489D01*
X81744500Y-166624000D01*
X81744500Y-166814819D01*
X81761724Y-166945642D01*
X81778339Y-167007648D01*
X81778343Y-167007659D01*
X81803711Y-167068906D01*
X81805396Y-167073473D01*
X81832539Y-167157011D01*
X81835291Y-167165479D01*
X81840681Y-167190837D01*
X81845537Y-167237039D01*
X81845537Y-167262961D01*
X81840681Y-167309163D01*
X81835291Y-167334520D01*
X81805396Y-167426529D01*
X81803710Y-167431098D01*
X81778340Y-167492347D01*
X81778333Y-167492366D01*
X81761725Y-167554350D01*
X81761722Y-167554364D01*
X81744500Y-167685186D01*
X81744500Y-168712178D01*
X81745949Y-168739217D01*
X81745950Y-168739234D01*
X81750230Y-168779038D01*
X81758885Y-168832444D01*
X81758885Y-168832447D01*
X81781725Y-168893682D01*
X81809168Y-168967257D01*
X81842653Y-169028580D01*
X81928877Y-169143761D01*
X81928881Y-169143765D01*
X81928886Y-169143771D01*
X82154644Y-169369528D01*
X82279227Y-169494111D01*
X82350312Y-169547327D01*
X82392182Y-169603260D01*
X82400000Y-169646592D01*
X82400000Y-170400000D01*
X83776000Y-170400000D01*
X83843039Y-170419685D01*
X83888794Y-170472489D01*
X83900000Y-170524000D01*
X83900000Y-172150000D01*
X84447828Y-172150000D01*
X84447844Y-172149999D01*
X84507372Y-172143598D01*
X84507374Y-172143598D01*
X84529937Y-172135182D01*
X84599629Y-172130196D01*
X84660953Y-172163680D01*
X84694440Y-172225002D01*
X84689457Y-172294694D01*
X84660955Y-172339044D01*
X84036319Y-172963681D01*
X83974996Y-172997166D01*
X83948638Y-173000000D01*
X80301362Y-173000000D01*
X80234323Y-172980315D01*
X80213681Y-172963681D01*
X79786319Y-172536319D01*
X79752834Y-172474996D01*
X79750000Y-172448638D01*
X79750000Y-172293533D01*
X79769685Y-172226494D01*
X79786315Y-172205856D01*
X79824281Y-172167891D01*
X79912549Y-172024787D01*
X79965436Y-171865185D01*
X79975500Y-171766674D01*
X79975500Y-171233326D01*
X79965436Y-171134815D01*
X79912549Y-170975213D01*
X79912545Y-170975207D01*
X79912544Y-170975204D01*
X79866157Y-170900000D01*
X82400000Y-170900000D01*
X82400000Y-171697844D01*
X82406401Y-171757372D01*
X82406403Y-171757379D01*
X82456645Y-171892086D01*
X82456649Y-171892093D01*
X82542809Y-172007187D01*
X82542812Y-172007190D01*
X82657906Y-172093350D01*
X82657913Y-172093354D01*
X82792620Y-172143596D01*
X82792627Y-172143598D01*
X82852155Y-172149999D01*
X82852172Y-172150000D01*
X83400000Y-172150000D01*
X83400000Y-170900000D01*
X82400000Y-170900000D01*
X79866157Y-170900000D01*
X79824283Y-170832112D01*
X79824280Y-170832107D01*
X79792352Y-170800179D01*
X79758867Y-170738855D01*
X79763853Y-170669164D01*
X79792352Y-170624819D01*
X79824281Y-170592891D01*
X79912549Y-170449787D01*
X79965436Y-170290185D01*
X79975500Y-170191674D01*
X79975500Y-169658326D01*
X79965436Y-169559815D01*
X79912549Y-169400213D01*
X79912545Y-169400207D01*
X79912544Y-169400204D01*
X79824283Y-169257112D01*
X79824280Y-169257108D01*
X79786319Y-169219147D01*
X79752834Y-169157824D01*
X79750000Y-169131466D01*
X79750000Y-168461984D01*
X79767269Y-168398862D01*
X79769295Y-168395436D01*
X79772869Y-168389393D01*
X79817665Y-168235204D01*
X79820500Y-168199181D01*
X79820499Y-167800820D01*
X79817665Y-167764796D01*
X79772869Y-167610607D01*
X79738581Y-167552629D01*
X79721398Y-167484905D01*
X79738582Y-167426386D01*
X79772404Y-167369196D01*
X79772405Y-167369194D01*
X79812844Y-167230000D01*
X79257974Y-167230000D01*
X79253109Y-167229809D01*
X79249191Y-167229500D01*
X78874000Y-167229500D01*
X78806961Y-167209815D01*
X78761206Y-167157011D01*
X78750000Y-167105500D01*
X78750000Y-166854000D01*
X78769685Y-166786961D01*
X78822489Y-166741206D01*
X78874000Y-166730000D01*
X79812845Y-166730000D01*
X79812844Y-166729999D01*
X79792100Y-166658595D01*
X79792299Y-166588725D01*
X79830241Y-166530055D01*
X79893880Y-166501212D01*
X79911176Y-166500000D01*
X81620500Y-166500000D01*
X81687539Y-166519685D01*
G37*
%TD.AperFunction*%
%TD*%
%TA.AperFunction,Conductor*%
%TO.N,GND*%
G36*
X111265677Y-131269685D02*
G01*
X111286319Y-131286319D01*
X112463681Y-132463681D01*
X112497166Y-132525004D01*
X112500000Y-132551362D01*
X112500000Y-142456503D01*
X112480315Y-142523542D01*
X112472828Y-142533965D01*
X111537230Y-143703462D01*
X111479979Y-143743514D01*
X111440402Y-143750000D01*
X103801362Y-143750000D01*
X103734323Y-143730315D01*
X103713681Y-143713681D01*
X102536319Y-142536319D01*
X102502834Y-142474996D01*
X102500000Y-142448638D01*
X102500000Y-137750000D01*
X105300000Y-137750000D01*
X105300000Y-138349985D01*
X105310493Y-138452689D01*
X105310494Y-138452696D01*
X105365641Y-138619118D01*
X105365643Y-138619123D01*
X105457684Y-138768344D01*
X105581655Y-138892315D01*
X105730876Y-138984356D01*
X105730881Y-138984358D01*
X105897303Y-139039505D01*
X105897310Y-139039506D01*
X106000014Y-139049999D01*
X106000027Y-139050000D01*
X107849999Y-139050000D01*
X107850000Y-137750000D01*
X108350000Y-137750000D01*
X108350000Y-139050000D01*
X110199973Y-139050000D01*
X110199985Y-139049999D01*
X110302689Y-139039506D01*
X110302696Y-139039505D01*
X110469118Y-138984358D01*
X110469123Y-138984356D01*
X110618344Y-138892315D01*
X110742315Y-138768344D01*
X110834356Y-138619123D01*
X110834358Y-138619118D01*
X110889505Y-138452696D01*
X110889506Y-138452689D01*
X110899999Y-138349985D01*
X110900000Y-138349972D01*
X110900000Y-137750000D01*
X108350000Y-137750000D01*
X107850000Y-137750000D01*
X105300000Y-137750000D01*
X102500000Y-137750000D01*
X102500000Y-137250000D01*
X105300000Y-137250000D01*
X107849999Y-137250000D01*
X107850000Y-135950000D01*
X108350000Y-135950000D01*
X108350000Y-137250000D01*
X110899999Y-137250000D01*
X110900000Y-136650027D01*
X110899999Y-136650014D01*
X110889506Y-136547310D01*
X110889505Y-136547303D01*
X110834358Y-136380881D01*
X110834356Y-136380876D01*
X110742315Y-136231655D01*
X110618344Y-136107684D01*
X110469123Y-136015643D01*
X110469118Y-136015641D01*
X110302696Y-135960494D01*
X110302689Y-135960493D01*
X110199985Y-135950000D01*
X108350000Y-135950000D01*
X107850000Y-135950000D01*
X106000014Y-135950000D01*
X105897310Y-135960493D01*
X105897303Y-135960494D01*
X105730881Y-136015641D01*
X105730876Y-136015643D01*
X105581655Y-136107684D01*
X105457684Y-136231655D01*
X105365643Y-136380876D01*
X105365641Y-136380881D01*
X105310494Y-136547303D01*
X105310493Y-136547310D01*
X105300000Y-136650014D01*
X105300000Y-137250000D01*
X102500000Y-137250000D01*
X102500000Y-132551362D01*
X102519685Y-132484323D01*
X102536319Y-132463681D01*
X103713681Y-131286319D01*
X103775004Y-131252834D01*
X103801362Y-131250000D01*
X111198638Y-131250000D01*
X111265677Y-131269685D01*
G37*
%TD.AperFunction*%
%TD*%
%TA.AperFunction,Conductor*%
%TO.N,GND*%
G36*
X91880832Y-165646679D02*
G01*
X91925180Y-165675180D01*
X91963681Y-165713681D01*
X91997166Y-165775004D01*
X92000000Y-165801362D01*
X92000000Y-168948637D01*
X91980315Y-169015676D01*
X91963681Y-169036318D01*
X91936680Y-169063319D01*
X91875357Y-169096804D01*
X91805665Y-169091820D01*
X91749732Y-169049948D01*
X91725315Y-168984484D01*
X91724999Y-168975638D01*
X91724999Y-168826692D01*
X91724998Y-168826677D01*
X91714855Y-168727392D01*
X91661547Y-168566518D01*
X91661542Y-168566507D01*
X91572575Y-168422271D01*
X91572572Y-168422267D01*
X91452732Y-168302427D01*
X91452728Y-168302424D01*
X91308492Y-168213457D01*
X91308481Y-168213452D01*
X91147606Y-168160144D01*
X91048322Y-168150000D01*
X91000000Y-168150000D01*
X91000000Y-169226000D01*
X90980315Y-169293039D01*
X90927511Y-169338794D01*
X90876000Y-169350000D01*
X90624000Y-169350000D01*
X90556961Y-169330315D01*
X90511206Y-169277511D01*
X90500000Y-169226000D01*
X90500000Y-168150000D01*
X90499999Y-168149999D01*
X90451693Y-168150000D01*
X90451675Y-168150001D01*
X90352392Y-168160144D01*
X90191518Y-168213452D01*
X90191507Y-168213457D01*
X90047271Y-168302424D01*
X89961681Y-168388014D01*
X89900357Y-168421498D01*
X89830666Y-168416514D01*
X89774732Y-168374642D01*
X89750316Y-168309177D01*
X89750000Y-168300332D01*
X89750000Y-166749667D01*
X89769685Y-166682628D01*
X89822489Y-166636873D01*
X89891647Y-166626929D01*
X89955203Y-166655954D01*
X89961681Y-166661986D01*
X90047267Y-166747572D01*
X90047271Y-166747575D01*
X90191507Y-166836542D01*
X90191518Y-166836547D01*
X90352393Y-166889855D01*
X90451683Y-166899999D01*
X90499999Y-166899998D01*
X90500000Y-166899998D01*
X90500000Y-166200000D01*
X91000000Y-166200000D01*
X91000000Y-166899999D01*
X91048308Y-166899999D01*
X91048322Y-166899998D01*
X91147607Y-166889855D01*
X91308481Y-166836547D01*
X91308492Y-166836542D01*
X91452728Y-166747575D01*
X91452732Y-166747572D01*
X91572572Y-166627732D01*
X91572575Y-166627728D01*
X91661542Y-166483492D01*
X91661547Y-166483481D01*
X91714855Y-166322606D01*
X91724999Y-166223322D01*
X91725000Y-166223309D01*
X91725000Y-166200000D01*
X91000000Y-166200000D01*
X90500000Y-166200000D01*
X90500000Y-165824000D01*
X90519685Y-165756961D01*
X90572489Y-165711206D01*
X90624000Y-165700000D01*
X91724997Y-165700000D01*
X91749817Y-165675180D01*
X91811140Y-165641695D01*
X91880832Y-165646679D01*
G37*
%TD.AperFunction*%
%TD*%
%TA.AperFunction,Conductor*%
%TO.N,GND*%
G36*
X56265677Y-131269685D02*
G01*
X56286319Y-131286319D01*
X57463681Y-132463681D01*
X57497166Y-132525004D01*
X57500000Y-132551362D01*
X57500000Y-142448638D01*
X57480315Y-142515677D01*
X57463681Y-142536319D01*
X56286319Y-143713681D01*
X56224996Y-143747166D01*
X56198638Y-143750000D01*
X48801362Y-143750000D01*
X48734323Y-143730315D01*
X48713681Y-143713681D01*
X47536319Y-142536319D01*
X47502834Y-142474996D01*
X47500000Y-142448638D01*
X47500000Y-137750000D01*
X49100000Y-137750000D01*
X49100000Y-138349985D01*
X49110493Y-138452689D01*
X49110494Y-138452696D01*
X49165641Y-138619118D01*
X49165643Y-138619123D01*
X49257684Y-138768344D01*
X49381655Y-138892315D01*
X49530876Y-138984356D01*
X49530881Y-138984358D01*
X49697303Y-139039505D01*
X49697310Y-139039506D01*
X49800014Y-139049999D01*
X49800027Y-139050000D01*
X51649999Y-139050000D01*
X51650000Y-137750000D01*
X52150000Y-137750000D01*
X52150000Y-139050000D01*
X53999973Y-139050000D01*
X53999985Y-139049999D01*
X54102689Y-139039506D01*
X54102696Y-139039505D01*
X54269118Y-138984358D01*
X54269123Y-138984356D01*
X54418344Y-138892315D01*
X54542315Y-138768344D01*
X54634356Y-138619123D01*
X54634358Y-138619118D01*
X54689505Y-138452696D01*
X54689506Y-138452689D01*
X54699999Y-138349985D01*
X54700000Y-138349972D01*
X54700000Y-137750000D01*
X52150000Y-137750000D01*
X51650000Y-137750000D01*
X49100000Y-137750000D01*
X47500000Y-137750000D01*
X47500000Y-137250000D01*
X49100000Y-137250000D01*
X51649999Y-137250000D01*
X51650000Y-135950000D01*
X52150000Y-135950000D01*
X52150000Y-137250000D01*
X54700000Y-137250000D01*
X54700000Y-136650027D01*
X54699999Y-136650014D01*
X54689506Y-136547310D01*
X54689505Y-136547303D01*
X54634358Y-136380881D01*
X54634356Y-136380876D01*
X54542315Y-136231655D01*
X54418344Y-136107684D01*
X54269123Y-136015643D01*
X54269118Y-136015641D01*
X54102696Y-135960494D01*
X54102689Y-135960493D01*
X53999985Y-135950000D01*
X52150000Y-135950000D01*
X51650000Y-135950000D01*
X49800014Y-135950000D01*
X49697310Y-135960493D01*
X49697303Y-135960494D01*
X49530881Y-136015641D01*
X49530876Y-136015643D01*
X49381655Y-136107684D01*
X49257684Y-136231655D01*
X49165643Y-136380876D01*
X49165641Y-136380881D01*
X49110494Y-136547303D01*
X49110493Y-136547310D01*
X49100000Y-136650014D01*
X49100000Y-137250000D01*
X47500000Y-137250000D01*
X47500000Y-132543497D01*
X47519685Y-132476458D01*
X47527165Y-132466044D01*
X48462769Y-131296538D01*
X48520021Y-131256486D01*
X48559598Y-131250000D01*
X56198638Y-131250000D01*
X56265677Y-131269685D01*
G37*
%TD.AperFunction*%
%TD*%
%TA.AperFunction,Conductor*%
%TO.N,POW_MON*%
G36*
X99255039Y-171269685D02*
G01*
X99287200Y-171299600D01*
X99854990Y-172056654D01*
X99975200Y-172216933D01*
X99999676Y-172282375D01*
X100000000Y-172291333D01*
X100000000Y-177691239D01*
X99980315Y-177758278D01*
X99954521Y-177787210D01*
X97284258Y-179971971D01*
X97219908Y-179999188D01*
X97205737Y-180000000D01*
X94551362Y-180000000D01*
X94484323Y-179980315D01*
X94463681Y-179963681D01*
X92036319Y-177536319D01*
X92002834Y-177474996D01*
X92000000Y-177448638D01*
X92000000Y-175250000D01*
X93100001Y-175250000D01*
X93100001Y-176474986D01*
X93110494Y-176577697D01*
X93165641Y-176744119D01*
X93165643Y-176744124D01*
X93257684Y-176893345D01*
X93381654Y-177017315D01*
X93530875Y-177109356D01*
X93530880Y-177109358D01*
X93697302Y-177164505D01*
X93697309Y-177164506D01*
X93800019Y-177174999D01*
X93962499Y-177174999D01*
X93962500Y-177174998D01*
X93962500Y-175250000D01*
X94462500Y-175250000D01*
X94462500Y-177174999D01*
X94624972Y-177174999D01*
X94624986Y-177174998D01*
X94727697Y-177164505D01*
X94894119Y-177109358D01*
X94894130Y-177109353D01*
X94960903Y-177068167D01*
X95028295Y-177049726D01*
X95094959Y-177070648D01*
X95139728Y-177124290D01*
X95150000Y-177173705D01*
X95150000Y-177524971D01*
X95150001Y-177524987D01*
X95160494Y-177627697D01*
X95215641Y-177794119D01*
X95215643Y-177794124D01*
X95307684Y-177943345D01*
X95431654Y-178067315D01*
X95580875Y-178159356D01*
X95580880Y-178159358D01*
X95747302Y-178214505D01*
X95747309Y-178214506D01*
X95850019Y-178224999D01*
X96362499Y-178224999D01*
X96362500Y-178224998D01*
X96362500Y-175250000D01*
X96862500Y-175250000D01*
X96862500Y-178224999D01*
X97374972Y-178224999D01*
X97374986Y-178224998D01*
X97477697Y-178214505D01*
X97644119Y-178159358D01*
X97644124Y-178159356D01*
X97793345Y-178067315D01*
X97917315Y-177943345D01*
X98009356Y-177794124D01*
X98009358Y-177794119D01*
X98064505Y-177627697D01*
X98064506Y-177627690D01*
X98074999Y-177524986D01*
X98075000Y-177524973D01*
X98075000Y-175250000D01*
X96862500Y-175250000D01*
X96362500Y-175250000D01*
X94462500Y-175250000D01*
X93962500Y-175250000D01*
X93100001Y-175250000D01*
X92000000Y-175250000D01*
X92000000Y-174750000D01*
X93100000Y-174750000D01*
X93962500Y-174750000D01*
X94462500Y-174750000D01*
X96362500Y-174750000D01*
X96362500Y-171775000D01*
X96862500Y-171775000D01*
X96862500Y-174750000D01*
X98074999Y-174750000D01*
X98074998Y-172475028D01*
X98074998Y-172475013D01*
X98064505Y-172372302D01*
X98009358Y-172205880D01*
X98009356Y-172205875D01*
X97917315Y-172056654D01*
X97793345Y-171932684D01*
X97644124Y-171840643D01*
X97644119Y-171840641D01*
X97477697Y-171785494D01*
X97477690Y-171785493D01*
X97374986Y-171775000D01*
X96862500Y-171775000D01*
X96362500Y-171775000D01*
X95850028Y-171775000D01*
X95850012Y-171775001D01*
X95747302Y-171785494D01*
X95580880Y-171840641D01*
X95580875Y-171840643D01*
X95431654Y-171932684D01*
X95307684Y-172056654D01*
X95215643Y-172205875D01*
X95215641Y-172205880D01*
X95160494Y-172372302D01*
X95160493Y-172372309D01*
X95150000Y-172475013D01*
X95150000Y-172826294D01*
X95130315Y-172893333D01*
X95077511Y-172939088D01*
X95008353Y-172949032D01*
X94960904Y-172931833D01*
X94894128Y-172890645D01*
X94894119Y-172890641D01*
X94727697Y-172835494D01*
X94727690Y-172835493D01*
X94624986Y-172825000D01*
X94462500Y-172825000D01*
X94462500Y-174750000D01*
X93962500Y-174750000D01*
X93962500Y-172825000D01*
X93800029Y-172825000D01*
X93800012Y-172825001D01*
X93697302Y-172835494D01*
X93530880Y-172890641D01*
X93530875Y-172890643D01*
X93381654Y-172982684D01*
X93257684Y-173106654D01*
X93165643Y-173255875D01*
X93165641Y-173255880D01*
X93110494Y-173422302D01*
X93110493Y-173422309D01*
X93100000Y-173525013D01*
X93100000Y-174750000D01*
X92000000Y-174750000D01*
X92000000Y-173801361D01*
X92019685Y-173734322D01*
X92036314Y-173713685D01*
X94463681Y-171286318D01*
X94525004Y-171252834D01*
X94551362Y-171250000D01*
X99188000Y-171250000D01*
X99255039Y-171269685D01*
G37*
%TD.AperFunction*%
%TD*%
%TA.AperFunction,Conductor*%
%TO.N,+7.5V*%
G36*
X121265677Y-131269685D02*
G01*
X121286319Y-131286319D01*
X122463680Y-132463681D01*
X122497165Y-132525004D01*
X122499999Y-132551362D01*
X122499999Y-142448638D01*
X122480314Y-142515677D01*
X122463680Y-142536319D01*
X121286319Y-143713681D01*
X121224996Y-143747166D01*
X121198638Y-143750000D01*
X113801362Y-143750000D01*
X113734323Y-143730315D01*
X113713681Y-143713681D01*
X112932357Y-142932357D01*
X112898872Y-142871034D01*
X112903856Y-142801342D01*
X112907232Y-142793191D01*
X112965338Y-142665962D01*
X112985023Y-142598923D01*
X112985024Y-142598919D01*
X113005500Y-142456503D01*
X113005500Y-137750000D01*
X114100000Y-137750000D01*
X114100000Y-138349985D01*
X114110493Y-138452689D01*
X114110494Y-138452696D01*
X114165641Y-138619118D01*
X114165643Y-138619123D01*
X114257684Y-138768344D01*
X114381655Y-138892315D01*
X114530876Y-138984356D01*
X114530881Y-138984358D01*
X114697303Y-139039505D01*
X114697310Y-139039506D01*
X114800014Y-139049999D01*
X114800027Y-139050000D01*
X116649999Y-139050000D01*
X116650000Y-137750000D01*
X117150000Y-137750000D01*
X117150000Y-139050000D01*
X118999973Y-139050000D01*
X118999985Y-139049999D01*
X119102689Y-139039506D01*
X119102696Y-139039505D01*
X119269118Y-138984358D01*
X119269123Y-138984356D01*
X119418344Y-138892315D01*
X119542315Y-138768344D01*
X119634356Y-138619123D01*
X119634358Y-138619118D01*
X119689505Y-138452696D01*
X119689506Y-138452689D01*
X119699999Y-138349985D01*
X119700000Y-138349972D01*
X119700000Y-137750000D01*
X117150000Y-137750000D01*
X116650000Y-137750000D01*
X114100000Y-137750000D01*
X113005500Y-137750000D01*
X113005500Y-137250000D01*
X114099999Y-137250000D01*
X116649999Y-137250000D01*
X116650000Y-135950000D01*
X117150000Y-135950000D01*
X117150000Y-137250000D01*
X119700000Y-137250000D01*
X119700000Y-136650027D01*
X119699999Y-136650014D01*
X119689506Y-136547310D01*
X119689505Y-136547303D01*
X119634358Y-136380881D01*
X119634356Y-136380876D01*
X119542315Y-136231655D01*
X119418344Y-136107684D01*
X119269123Y-136015643D01*
X119269118Y-136015641D01*
X119102696Y-135960494D01*
X119102689Y-135960493D01*
X118999985Y-135950000D01*
X117150000Y-135950000D01*
X116650000Y-135950000D01*
X114800014Y-135950000D01*
X114697310Y-135960493D01*
X114697303Y-135960494D01*
X114530881Y-136015641D01*
X114530876Y-136015643D01*
X114381655Y-136107684D01*
X114257684Y-136231655D01*
X114165643Y-136380876D01*
X114165641Y-136380881D01*
X114110494Y-136547303D01*
X114110493Y-136547310D01*
X114100000Y-136650014D01*
X114100000Y-136650027D01*
X114099999Y-137250000D01*
X113005500Y-137250000D01*
X113005500Y-132537823D01*
X113004051Y-132510784D01*
X112999769Y-132470964D01*
X112991114Y-132417552D01*
X112940832Y-132282743D01*
X112907347Y-132221420D01*
X112907346Y-132221418D01*
X112906353Y-132219600D01*
X112891502Y-132151327D01*
X112915919Y-132085863D01*
X112927492Y-132072507D01*
X113713681Y-131286319D01*
X113775004Y-131252834D01*
X113801362Y-131250000D01*
X121198638Y-131250000D01*
X121265677Y-131269685D01*
G37*
%TD.AperFunction*%
%TD*%
%TA.AperFunction,Conductor*%
%TO.N,/NO_FUSE_3V3*%
G36*
X87765677Y-153519685D02*
G01*
X87786319Y-153536319D01*
X88463681Y-154213681D01*
X88497166Y-154275004D01*
X88500000Y-154301362D01*
X88500000Y-162250000D01*
X89250000Y-163000000D01*
X91448638Y-163000000D01*
X91515677Y-163019685D01*
X91536319Y-163036319D01*
X91963681Y-163463681D01*
X91997166Y-163525004D01*
X92000000Y-163551362D01*
X92000000Y-164698638D01*
X91980315Y-164765677D01*
X91963684Y-164786315D01*
X91944819Y-164805181D01*
X91931445Y-164818555D01*
X91870121Y-164852039D01*
X91800430Y-164847053D01*
X91744497Y-164805181D01*
X91720081Y-164739716D01*
X91720407Y-164718268D01*
X91724999Y-164673319D01*
X91725000Y-164673309D01*
X91725000Y-164650000D01*
X89775001Y-164650000D01*
X89775001Y-164673322D01*
X89785144Y-164772607D01*
X89838452Y-164933481D01*
X89838457Y-164933492D01*
X89927424Y-165077728D01*
X89927427Y-165077732D01*
X89936660Y-165086965D01*
X89970145Y-165148288D01*
X89965161Y-165217980D01*
X89936663Y-165262324D01*
X89927033Y-165271953D01*
X89927029Y-165271959D01*
X89838001Y-165416294D01*
X89837996Y-165416305D01*
X89784651Y-165577290D01*
X89774500Y-165676647D01*
X89774340Y-165679803D01*
X89774179Y-165679794D01*
X89774179Y-165679796D01*
X89774155Y-165679793D01*
X89772858Y-165679727D01*
X89758972Y-165727018D01*
X89759439Y-165727212D01*
X89757639Y-165731555D01*
X89754815Y-165741176D01*
X89752428Y-165744138D01*
X89750000Y-165750000D01*
X89750000Y-166043854D01*
X89730315Y-166110893D01*
X89677511Y-166156648D01*
X89660935Y-166162831D01*
X89612498Y-166177053D01*
X89612492Y-166177056D01*
X89491462Y-166254838D01*
X89491451Y-166254846D01*
X89438659Y-166300590D01*
X89344433Y-166409331D01*
X89344430Y-166409335D01*
X89284663Y-166540203D01*
X89264978Y-166607243D01*
X89264976Y-166607251D01*
X89244500Y-166749668D01*
X89244500Y-168304868D01*
X89244659Y-168313831D01*
X89244939Y-168321674D01*
X89245138Y-168327225D01*
X89245910Y-168341629D01*
X89246103Y-168345234D01*
X89246104Y-168345241D01*
X89276683Y-168485818D01*
X89276684Y-168485821D01*
X89301101Y-168551291D01*
X89301102Y-168551292D01*
X89301103Y-168551294D01*
X89370057Y-168677575D01*
X89471796Y-168779314D01*
X89481154Y-168786319D01*
X89520633Y-168815873D01*
X89520641Y-168815880D01*
X89527729Y-168821186D01*
X89527731Y-168821187D01*
X89527733Y-168821189D01*
X89641774Y-168883459D01*
X89691178Y-168932862D01*
X89706030Y-169001135D01*
X89681614Y-169066600D01*
X89670027Y-169079971D01*
X89490710Y-169259288D01*
X89429387Y-169292773D01*
X89359695Y-169287789D01*
X89328718Y-169270873D01*
X89242335Y-169206206D01*
X89242328Y-169206202D01*
X89107482Y-169155908D01*
X89107483Y-169155908D01*
X89047883Y-169149501D01*
X89047881Y-169149500D01*
X89047873Y-169149500D01*
X89047864Y-169149500D01*
X87452129Y-169149500D01*
X87452123Y-169149501D01*
X87392516Y-169155908D01*
X87257671Y-169206202D01*
X87257669Y-169206204D01*
X87173894Y-169268918D01*
X87108430Y-169293335D01*
X87040157Y-169278484D01*
X87025272Y-169268918D01*
X86942088Y-169206646D01*
X86942086Y-169206645D01*
X86807379Y-169156403D01*
X86807372Y-169156401D01*
X86747844Y-169150000D01*
X86200000Y-169150000D01*
X86200000Y-170776000D01*
X86180315Y-170843039D01*
X86127511Y-170888794D01*
X86076000Y-170900000D01*
X85824000Y-170900000D01*
X85756961Y-170880315D01*
X85711206Y-170827511D01*
X85700000Y-170776000D01*
X85700000Y-169150000D01*
X85152155Y-169150000D01*
X85092627Y-169156401D01*
X85092620Y-169156403D01*
X84957913Y-169206645D01*
X84957910Y-169206647D01*
X84874727Y-169268918D01*
X84809262Y-169293335D01*
X84740989Y-169278483D01*
X84726106Y-169268918D01*
X84642331Y-169206204D01*
X84642328Y-169206202D01*
X84507482Y-169155908D01*
X84507483Y-169155908D01*
X84447883Y-169149501D01*
X84447881Y-169149500D01*
X84447873Y-169149500D01*
X84447864Y-169149500D01*
X82852129Y-169149500D01*
X82852123Y-169149501D01*
X82792513Y-169155909D01*
X82767679Y-169165171D01*
X82697987Y-169170153D01*
X82636669Y-169136669D01*
X82286319Y-168786319D01*
X82252834Y-168724996D01*
X82250000Y-168698638D01*
X82250000Y-167685187D01*
X82266612Y-167623187D01*
X82281250Y-167597835D01*
X82336497Y-167427803D01*
X82355185Y-167250000D01*
X82336497Y-167072197D01*
X82281250Y-166902165D01*
X82281249Y-166902163D01*
X82266613Y-166876812D01*
X82250000Y-166814812D01*
X82250000Y-164600000D01*
X83550000Y-164600000D01*
X83550000Y-165397844D01*
X83556401Y-165457372D01*
X83556403Y-165457379D01*
X83606645Y-165592086D01*
X83606649Y-165592093D01*
X83692809Y-165707187D01*
X83692812Y-165707190D01*
X83807906Y-165793350D01*
X83807913Y-165793354D01*
X83942620Y-165843596D01*
X83942627Y-165843598D01*
X84002155Y-165849999D01*
X84002172Y-165850000D01*
X85700000Y-165850000D01*
X85700000Y-164600000D01*
X86200000Y-164600000D01*
X86200000Y-165850000D01*
X87897828Y-165850000D01*
X87897844Y-165849999D01*
X87957372Y-165843598D01*
X87957379Y-165843596D01*
X88092086Y-165793354D01*
X88092093Y-165793350D01*
X88207187Y-165707190D01*
X88207190Y-165707187D01*
X88293350Y-165592093D01*
X88293354Y-165592086D01*
X88343596Y-165457379D01*
X88343598Y-165457372D01*
X88349999Y-165397844D01*
X88350000Y-165397827D01*
X88350000Y-164600000D01*
X86200000Y-164600000D01*
X85700000Y-164600000D01*
X83550000Y-164600000D01*
X82250000Y-164600000D01*
X82250000Y-164150000D01*
X89775000Y-164150000D01*
X90500000Y-164150000D01*
X90500000Y-164149999D01*
X90999999Y-164149999D01*
X91000000Y-164150000D01*
X91724999Y-164150000D01*
X91724999Y-164126692D01*
X91724998Y-164126677D01*
X91714855Y-164027392D01*
X91661547Y-163866518D01*
X91661542Y-163866507D01*
X91572575Y-163722271D01*
X91572572Y-163722267D01*
X91452732Y-163602427D01*
X91452728Y-163602424D01*
X91308492Y-163513457D01*
X91308481Y-163513452D01*
X91147606Y-163460144D01*
X91048322Y-163450000D01*
X91000000Y-163450000D01*
X90999999Y-164149999D01*
X90500000Y-164149999D01*
X90499999Y-163450000D01*
X90499999Y-163449999D01*
X90451693Y-163450000D01*
X90451675Y-163450001D01*
X90352392Y-163460144D01*
X90191518Y-163513452D01*
X90191507Y-163513457D01*
X90047271Y-163602424D01*
X90047267Y-163602427D01*
X89927427Y-163722267D01*
X89927424Y-163722271D01*
X89838457Y-163866507D01*
X89838452Y-163866518D01*
X89785144Y-164027393D01*
X89775000Y-164126677D01*
X89775000Y-164150000D01*
X82250000Y-164150000D01*
X82250000Y-164100000D01*
X83550000Y-164100000D01*
X85700000Y-164100000D01*
X85700000Y-162850000D01*
X86200000Y-162850000D01*
X86200000Y-164100000D01*
X88350000Y-164100000D01*
X88350000Y-163302172D01*
X88349999Y-163302155D01*
X88343598Y-163242627D01*
X88343596Y-163242620D01*
X88293354Y-163107913D01*
X88293350Y-163107906D01*
X88207190Y-162992812D01*
X88207187Y-162992809D01*
X88092093Y-162906649D01*
X88092086Y-162906645D01*
X87957379Y-162856403D01*
X87957372Y-162856401D01*
X87897844Y-162850000D01*
X86200000Y-162850000D01*
X85700000Y-162850000D01*
X84002155Y-162850000D01*
X83942627Y-162856401D01*
X83942620Y-162856403D01*
X83807913Y-162906645D01*
X83807906Y-162906649D01*
X83692812Y-162992809D01*
X83692809Y-162992812D01*
X83606649Y-163107906D01*
X83606645Y-163107913D01*
X83556403Y-163242620D01*
X83556401Y-163242627D01*
X83550000Y-163302155D01*
X83550000Y-164100000D01*
X82250000Y-164100000D01*
X82250000Y-163266246D01*
X82269685Y-163199207D01*
X82286316Y-163178567D01*
X82580697Y-162884188D01*
X82598792Y-162864043D01*
X82598797Y-162864035D01*
X82598803Y-162864030D01*
X82623917Y-162832864D01*
X82623922Y-162832858D01*
X82655567Y-162788974D01*
X82715338Y-162658097D01*
X82735023Y-162591058D01*
X82735024Y-162591054D01*
X82755500Y-162448638D01*
X82755500Y-157750000D01*
X84425001Y-157750000D01*
X84425001Y-160024986D01*
X84435494Y-160127697D01*
X84490641Y-160294119D01*
X84490643Y-160294124D01*
X84582684Y-160443345D01*
X84706654Y-160567315D01*
X84855875Y-160659356D01*
X84855880Y-160659358D01*
X85022302Y-160714505D01*
X85022309Y-160714506D01*
X85125019Y-160724999D01*
X85637499Y-160724999D01*
X85637500Y-160724998D01*
X85637500Y-157750000D01*
X86137500Y-157750000D01*
X86137500Y-160724999D01*
X86649972Y-160724999D01*
X86649986Y-160724998D01*
X86752697Y-160714505D01*
X86919119Y-160659358D01*
X86919124Y-160659356D01*
X87068345Y-160567315D01*
X87192315Y-160443345D01*
X87284356Y-160294124D01*
X87284358Y-160294119D01*
X87339505Y-160127697D01*
X87339506Y-160127690D01*
X87349999Y-160024986D01*
X87350000Y-160024973D01*
X87350000Y-157750000D01*
X86137500Y-157750000D01*
X85637500Y-157750000D01*
X84425001Y-157750000D01*
X82755500Y-157750000D01*
X82755500Y-157250000D01*
X84425000Y-157250000D01*
X85637500Y-157250000D01*
X85637500Y-154275000D01*
X86137500Y-154275000D01*
X86137500Y-157250000D01*
X87349999Y-157250000D01*
X87349999Y-154975028D01*
X87349998Y-154975013D01*
X87339505Y-154872302D01*
X87284358Y-154705880D01*
X87284356Y-154705875D01*
X87192315Y-154556654D01*
X87068345Y-154432684D01*
X86919124Y-154340643D01*
X86919119Y-154340641D01*
X86752697Y-154285494D01*
X86752690Y-154285493D01*
X86649986Y-154275000D01*
X86137500Y-154275000D01*
X85637500Y-154275000D01*
X85125028Y-154275000D01*
X85125012Y-154275001D01*
X85022302Y-154285494D01*
X84855880Y-154340641D01*
X84855875Y-154340643D01*
X84706654Y-154432684D01*
X84582684Y-154556654D01*
X84490643Y-154705875D01*
X84490641Y-154705880D01*
X84435494Y-154872302D01*
X84435493Y-154872309D01*
X84425000Y-154975013D01*
X84425000Y-157250000D01*
X82755500Y-157250000D01*
X82755500Y-154287823D01*
X82754051Y-154260784D01*
X82749769Y-154220964D01*
X82741114Y-154167552D01*
X82690832Y-154032743D01*
X82657347Y-153971420D01*
X82657346Y-153971418D01*
X82656353Y-153969600D01*
X82641502Y-153901327D01*
X82665919Y-153835863D01*
X82677485Y-153822514D01*
X82963683Y-153536316D01*
X83025004Y-153502834D01*
X83051362Y-153500000D01*
X87698638Y-153500000D01*
X87765677Y-153519685D01*
G37*
%TD.AperFunction*%
%TD*%
%TA.AperFunction,Conductor*%
%TO.N,+3.3V*%
G36*
X81515677Y-153519685D02*
G01*
X81536319Y-153536319D01*
X82213681Y-154213681D01*
X82247166Y-154275004D01*
X82250000Y-154301362D01*
X82250000Y-162448638D01*
X82230315Y-162515677D01*
X82213681Y-162536319D01*
X81536319Y-163213681D01*
X81474996Y-163247166D01*
X81448638Y-163250000D01*
X75051362Y-163250000D01*
X74984323Y-163230315D01*
X74963681Y-163213681D01*
X74286319Y-162536319D01*
X74252834Y-162474996D01*
X74250000Y-162448638D01*
X74250000Y-157750000D01*
X77650001Y-157750000D01*
X77650001Y-160024986D01*
X77660494Y-160127697D01*
X77715641Y-160294119D01*
X77715643Y-160294124D01*
X77807684Y-160443345D01*
X77931654Y-160567315D01*
X78080875Y-160659356D01*
X78080880Y-160659358D01*
X78247302Y-160714505D01*
X78247309Y-160714506D01*
X78350019Y-160724999D01*
X78862499Y-160724999D01*
X78862500Y-160724998D01*
X78862500Y-157750000D01*
X79362500Y-157750000D01*
X79362500Y-160724999D01*
X79874972Y-160724999D01*
X79874986Y-160724998D01*
X79977697Y-160714505D01*
X80144119Y-160659358D01*
X80144124Y-160659356D01*
X80293345Y-160567315D01*
X80417315Y-160443345D01*
X80509356Y-160294124D01*
X80509358Y-160294119D01*
X80564505Y-160127697D01*
X80564506Y-160127690D01*
X80574999Y-160024986D01*
X80575000Y-160024973D01*
X80575000Y-157750000D01*
X79362500Y-157750000D01*
X78862500Y-157750000D01*
X77650001Y-157750000D01*
X74250000Y-157750000D01*
X74250000Y-157250000D01*
X77650000Y-157250000D01*
X78862500Y-157250000D01*
X78862500Y-154275000D01*
X79362500Y-154275000D01*
X79362500Y-157250000D01*
X80574999Y-157250000D01*
X80574999Y-154975028D01*
X80574998Y-154975013D01*
X80564505Y-154872302D01*
X80509358Y-154705880D01*
X80509356Y-154705875D01*
X80417315Y-154556654D01*
X80293345Y-154432684D01*
X80144124Y-154340643D01*
X80144119Y-154340641D01*
X79977697Y-154285494D01*
X79977690Y-154285493D01*
X79874986Y-154275000D01*
X79362500Y-154275000D01*
X78862500Y-154275000D01*
X78350028Y-154275000D01*
X78350012Y-154275001D01*
X78247302Y-154285494D01*
X78080880Y-154340641D01*
X78080875Y-154340643D01*
X77931654Y-154432684D01*
X77807684Y-154556654D01*
X77715643Y-154705875D01*
X77715641Y-154705880D01*
X77660494Y-154872302D01*
X77660493Y-154872309D01*
X77650000Y-154975013D01*
X77650000Y-157250000D01*
X74250000Y-157250000D01*
X74250000Y-154301362D01*
X74269685Y-154234323D01*
X74286319Y-154213681D01*
X74963681Y-153536319D01*
X75025004Y-153502834D01*
X75051362Y-153500000D01*
X81448638Y-153500000D01*
X81515677Y-153519685D01*
G37*
%TD.AperFunction*%
%TD*%
%TA.AperFunction,Conductor*%
%TO.N,+7.5V*%
G36*
X46265676Y-131269685D02*
G01*
X46286318Y-131286319D01*
X47067641Y-132067642D01*
X47101126Y-132128965D01*
X47096142Y-132198657D01*
X47092754Y-132206835D01*
X47034663Y-132334033D01*
X47014978Y-132401073D01*
X47014976Y-132401081D01*
X46994500Y-132543498D01*
X46994500Y-142462178D01*
X46995949Y-142489217D01*
X46995950Y-142489234D01*
X47000230Y-142529038D01*
X47008885Y-142582444D01*
X47008885Y-142582447D01*
X47059167Y-142717255D01*
X47093645Y-142780399D01*
X47108496Y-142848672D01*
X47084078Y-142914136D01*
X47072493Y-142927505D01*
X46286319Y-143713681D01*
X46224996Y-143747166D01*
X46198638Y-143750000D01*
X38801362Y-143750000D01*
X38734323Y-143730315D01*
X38713681Y-143713681D01*
X37536319Y-142536319D01*
X37502834Y-142474996D01*
X37500000Y-142448638D01*
X37500000Y-137750000D01*
X40300000Y-137750000D01*
X40300000Y-138349985D01*
X40310493Y-138452689D01*
X40310494Y-138452696D01*
X40365641Y-138619118D01*
X40365643Y-138619123D01*
X40457684Y-138768344D01*
X40581655Y-138892315D01*
X40730876Y-138984356D01*
X40730881Y-138984358D01*
X40897303Y-139039505D01*
X40897310Y-139039506D01*
X41000014Y-139049999D01*
X41000027Y-139050000D01*
X42850000Y-139050000D01*
X42850000Y-137750000D01*
X43350000Y-137750000D01*
X43350000Y-139050000D01*
X45199973Y-139050000D01*
X45199985Y-139049999D01*
X45302689Y-139039506D01*
X45302696Y-139039505D01*
X45469118Y-138984358D01*
X45469123Y-138984356D01*
X45618344Y-138892315D01*
X45742315Y-138768344D01*
X45834356Y-138619123D01*
X45834358Y-138619118D01*
X45889505Y-138452696D01*
X45889506Y-138452689D01*
X45899999Y-138349985D01*
X45900000Y-138349972D01*
X45900000Y-137750000D01*
X43350000Y-137750000D01*
X42850000Y-137750000D01*
X40300000Y-137750000D01*
X37500000Y-137750000D01*
X37500000Y-137250000D01*
X40300000Y-137250000D01*
X42850000Y-137250000D01*
X42850000Y-135950000D01*
X43350000Y-135950000D01*
X43350000Y-137250000D01*
X45900000Y-137250000D01*
X45900000Y-136650027D01*
X45899999Y-136650014D01*
X45889506Y-136547310D01*
X45889505Y-136547303D01*
X45834358Y-136380881D01*
X45834356Y-136380876D01*
X45742315Y-136231655D01*
X45618344Y-136107684D01*
X45469123Y-136015643D01*
X45469118Y-136015641D01*
X45302696Y-135960494D01*
X45302689Y-135960493D01*
X45199985Y-135950000D01*
X43350000Y-135950000D01*
X42850000Y-135950000D01*
X41000014Y-135950000D01*
X40897310Y-135960493D01*
X40897303Y-135960494D01*
X40730881Y-136015641D01*
X40730876Y-136015643D01*
X40581655Y-136107684D01*
X40457684Y-136231655D01*
X40365643Y-136380876D01*
X40365641Y-136380881D01*
X40310494Y-136547303D01*
X40310493Y-136547310D01*
X40300000Y-136650014D01*
X40300000Y-137250000D01*
X37500000Y-137250000D01*
X37500000Y-132551362D01*
X37519685Y-132484323D01*
X37536319Y-132463681D01*
X37932358Y-132067642D01*
X38713682Y-131286317D01*
X38775003Y-131252834D01*
X38801360Y-131250000D01*
X46198640Y-131250000D01*
X46265676Y-131269685D01*
G37*
%TD.AperFunction*%
%TD*%
%TA.AperFunction,Conductor*%
%TO.N,+7.5V*%
G36*
X91780117Y-169686745D02*
G01*
X91917069Y-169778046D01*
X92194784Y-169963189D01*
X92239644Y-170016753D01*
X92250000Y-170066362D01*
X92250000Y-171948638D01*
X92230315Y-172015677D01*
X92213681Y-172036319D01*
X91536319Y-172713681D01*
X91474996Y-172747166D01*
X91448638Y-172750000D01*
X90749999Y-172750000D01*
X90000000Y-173499999D01*
X90000000Y-176948638D01*
X89980315Y-177015677D01*
X89963681Y-177036319D01*
X89286319Y-177713681D01*
X89224996Y-177747166D01*
X89198638Y-177750000D01*
X79051362Y-177750000D01*
X78984323Y-177730315D01*
X78963681Y-177713681D01*
X78286319Y-177036318D01*
X78252834Y-176974995D01*
X78250000Y-176948637D01*
X78250000Y-175250000D01*
X87175001Y-175250000D01*
X87175001Y-176474986D01*
X87185494Y-176577697D01*
X87240641Y-176744119D01*
X87240643Y-176744124D01*
X87332684Y-176893345D01*
X87456654Y-177017315D01*
X87605875Y-177109356D01*
X87605880Y-177109358D01*
X87772302Y-177164505D01*
X87772309Y-177164506D01*
X87875019Y-177174999D01*
X88037499Y-177174999D01*
X88037500Y-177174998D01*
X88037500Y-175250000D01*
X88537500Y-175250000D01*
X88537500Y-177174999D01*
X88699972Y-177174999D01*
X88699986Y-177174998D01*
X88802697Y-177164505D01*
X88969119Y-177109358D01*
X88969124Y-177109356D01*
X89118345Y-177017315D01*
X89242315Y-176893345D01*
X89334356Y-176744124D01*
X89334358Y-176744119D01*
X89389505Y-176577697D01*
X89389506Y-176577690D01*
X89399999Y-176474986D01*
X89400000Y-176474973D01*
X89400000Y-175250000D01*
X88537500Y-175250000D01*
X88037500Y-175250000D01*
X87175001Y-175250000D01*
X78250000Y-175250000D01*
X78250000Y-174750000D01*
X87175000Y-174750000D01*
X88037500Y-174750000D01*
X88037500Y-172825000D01*
X88537500Y-172825000D01*
X88537500Y-174750000D01*
X89399999Y-174750000D01*
X89399999Y-173525028D01*
X89399998Y-173525013D01*
X89389505Y-173422302D01*
X89334358Y-173255880D01*
X89334356Y-173255875D01*
X89242315Y-173106654D01*
X89118345Y-172982684D01*
X88969124Y-172890643D01*
X88969119Y-172890641D01*
X88802697Y-172835494D01*
X88802690Y-172835493D01*
X88699986Y-172825000D01*
X88537500Y-172825000D01*
X88037500Y-172825000D01*
X87875029Y-172825000D01*
X87875012Y-172825001D01*
X87772302Y-172835494D01*
X87605880Y-172890641D01*
X87605875Y-172890643D01*
X87456654Y-172982684D01*
X87332684Y-173106654D01*
X87240643Y-173255875D01*
X87240641Y-173255880D01*
X87185494Y-173422302D01*
X87185493Y-173422309D01*
X87175000Y-173525013D01*
X87175000Y-174750000D01*
X78250000Y-174750000D01*
X78250000Y-172480854D01*
X78269685Y-172413815D01*
X78322489Y-172368060D01*
X78391647Y-172358116D01*
X78430986Y-172372376D01*
X78431377Y-172371539D01*
X78437927Y-172374593D01*
X78597416Y-172427442D01*
X78695855Y-172437499D01*
X78749999Y-172437498D01*
X78750000Y-172437498D01*
X78750000Y-171374000D01*
X78769685Y-171306961D01*
X78822489Y-171261206D01*
X78874000Y-171250000D01*
X79126000Y-171250000D01*
X79193039Y-171269685D01*
X79238794Y-171322489D01*
X79250000Y-171374000D01*
X79250000Y-172246410D01*
X79248738Y-172264056D01*
X79244500Y-172293531D01*
X79244500Y-172462178D01*
X79245949Y-172489217D01*
X79245950Y-172489234D01*
X79250230Y-172529038D01*
X79258885Y-172582444D01*
X79258885Y-172582447D01*
X79307834Y-172713681D01*
X79309168Y-172717257D01*
X79342653Y-172778580D01*
X79428877Y-172893761D01*
X79428881Y-172893765D01*
X79428886Y-172893771D01*
X79790990Y-173255875D01*
X79865812Y-173330697D01*
X79881102Y-173344431D01*
X79885969Y-173348803D01*
X79917135Y-173373917D01*
X79917142Y-173373922D01*
X79961026Y-173405567D01*
X80091903Y-173465338D01*
X80158942Y-173485023D01*
X80158946Y-173485024D01*
X80301362Y-173505500D01*
X80301365Y-173505500D01*
X83962178Y-173505500D01*
X83963626Y-173505422D01*
X83989216Y-173504051D01*
X83998405Y-173503062D01*
X84029038Y-173499769D01*
X84046840Y-173496883D01*
X84082448Y-173491114D01*
X84217257Y-173440832D01*
X84278580Y-173407347D01*
X84393762Y-173321123D01*
X84678567Y-173036317D01*
X84739887Y-173002834D01*
X84766246Y-173000000D01*
X86500000Y-173000000D01*
X87000000Y-172500000D01*
X87000000Y-172148002D01*
X87019685Y-172080964D01*
X87072489Y-172035209D01*
X87141647Y-172025265D01*
X87198311Y-172048737D01*
X87257906Y-172093350D01*
X87257913Y-172093354D01*
X87392620Y-172143596D01*
X87392627Y-172143598D01*
X87452155Y-172149999D01*
X87452172Y-172150000D01*
X88000000Y-172150000D01*
X88000000Y-170900000D01*
X88500000Y-170900000D01*
X88500000Y-172150000D01*
X89047828Y-172150000D01*
X89047844Y-172149999D01*
X89107372Y-172143598D01*
X89107379Y-172143596D01*
X89242086Y-172093354D01*
X89242093Y-172093350D01*
X89357187Y-172007190D01*
X89357190Y-172007187D01*
X89443350Y-171892093D01*
X89443354Y-171892086D01*
X89493596Y-171757379D01*
X89493598Y-171757372D01*
X89499999Y-171697844D01*
X89500000Y-171697827D01*
X89500000Y-170900000D01*
X89775001Y-170900000D01*
X89775001Y-170923322D01*
X89785144Y-171022607D01*
X89838452Y-171183481D01*
X89838457Y-171183492D01*
X89927424Y-171327728D01*
X89927427Y-171327732D01*
X90047267Y-171447572D01*
X90047271Y-171447575D01*
X90191507Y-171536542D01*
X90191518Y-171536547D01*
X90352393Y-171589855D01*
X90451683Y-171599999D01*
X90499999Y-171599998D01*
X90500000Y-171599998D01*
X90500000Y-170900000D01*
X91000000Y-170900000D01*
X91000000Y-171599999D01*
X91048308Y-171599999D01*
X91048322Y-171599998D01*
X91147607Y-171589855D01*
X91308481Y-171536547D01*
X91308492Y-171536542D01*
X91452728Y-171447575D01*
X91452732Y-171447572D01*
X91572572Y-171327732D01*
X91572575Y-171327728D01*
X91661542Y-171183492D01*
X91661547Y-171183481D01*
X91714855Y-171022606D01*
X91724999Y-170923322D01*
X91725000Y-170923309D01*
X91725000Y-170900000D01*
X91000000Y-170900000D01*
X90500000Y-170900000D01*
X89775001Y-170900000D01*
X89500000Y-170900000D01*
X88500000Y-170900000D01*
X88000000Y-170900000D01*
X88000000Y-170524000D01*
X88019685Y-170456961D01*
X88072489Y-170411206D01*
X88124000Y-170400000D01*
X89500000Y-170400000D01*
X89500000Y-169886555D01*
X89519685Y-169819516D01*
X89572489Y-169773761D01*
X89580649Y-169770380D01*
X89671648Y-169736439D01*
X89732971Y-169702954D01*
X89732971Y-169702953D01*
X89736859Y-169700831D01*
X89737398Y-169701819D01*
X89799531Y-169683565D01*
X89866573Y-169703239D01*
X89905087Y-169742466D01*
X89927032Y-169778044D01*
X89927033Y-169778045D01*
X89936660Y-169787672D01*
X89970145Y-169848995D01*
X89965161Y-169918687D01*
X89936663Y-169963031D01*
X89927428Y-169972265D01*
X89927424Y-169972271D01*
X89838457Y-170116507D01*
X89838452Y-170116518D01*
X89785144Y-170277393D01*
X89775000Y-170376677D01*
X89775000Y-170400000D01*
X91724999Y-170400000D01*
X91724999Y-170376692D01*
X91724998Y-170376677D01*
X91714855Y-170277392D01*
X91661547Y-170116518D01*
X91661542Y-170116507D01*
X91572575Y-169972271D01*
X91572572Y-169972267D01*
X91563339Y-169963034D01*
X91529854Y-169901711D01*
X91534838Y-169832019D01*
X91563343Y-169787668D01*
X91572968Y-169778044D01*
X91605797Y-169724820D01*
X91657743Y-169678098D01*
X91726706Y-169666875D01*
X91780117Y-169686745D01*
G37*
%TD.AperFunction*%
%TD*%
M02*
