M48
; DRILL file {KiCad 7.0.5} date Mon Jan  8 18:30:23 2024
; FORMAT={-:-/ absolute / metric / decimal}
; #@! TF.CreationDate,2024-01-08T18:30:23+10:00
; #@! TF.GenerationSoftware,Kicad,Pcbnew,7.0.5
; #@! TF.FileFunction,Plated,1,4,PTH
FMAT,2
METRIC
; #@! TA.AperFunction,Plated,PTH,ViaDrill
T1C0.300
; #@! TA.AperFunction,Plated,PTH,ViaDrill
T2C0.400
; #@! TA.AperFunction,Plated,PTH,ComponentDrill
T3C0.650
; #@! TA.AperFunction,Plated,PTH,ComponentDrill
T4C0.700
; #@! TA.AperFunction,Plated,PTH,ComponentDrill
T5C0.800
; #@! TA.AperFunction,Plated,PTH,ComponentDrill
T6C0.950
; #@! TA.AperFunction,Plated,PTH,ComponentDrill
T7C1.000
; #@! TA.AperFunction,Plated,PTH,ComponentDrill
T8C1.300
; #@! TA.AperFunction,Plated,PTH,ComponentDrill
T9C1.500
; #@! TA.AperFunction,Plated,PTH,ComponentDrill
T10C2.200
; #@! TA.AperFunction,Plated,PTH,ComponentDrill
T11C4.500
%
G90
G05
T1
X75.25Y-154.5
X75.25Y-156.0
X75.25Y-157.5
X75.25Y-159.0
X75.25Y-160.5
X75.25Y-162.0
X76.75Y-155.25
X76.75Y-156.75
X76.75Y-158.25
X76.75Y-159.75
X76.75Y-161.25
X78.25Y-162.0
X79.25Y-174.0
X79.25Y-176.0
X79.75Y-161.25
X80.0Y-175.0
X80.0Y-177.0
X80.5Y-168.25
X80.5Y-170.5
X80.75Y-174.0
X80.75Y-176.0
X81.25Y-162.0
X81.5Y-167.25
X81.5Y-169.25
X81.5Y-171.5
X81.5Y-175.0
X81.5Y-177.0
X82.25Y-174.0
X82.25Y-176.0
X83.0Y-175.0
X83.0Y-177.0
X83.75Y-174.0
X83.75Y-176.0
X84.5Y-175.0
X84.5Y-177.0
X85.25Y-174.0
X85.25Y-176.0
X86.0Y-175.0
X86.0Y-177.0
X86.75Y-174.0
X86.75Y-176.0
X90.25Y-167.5
X91.5Y-167.5
X99.5Y-169.75
X100.25Y-168.75
T2
X39.0Y-132.5
X39.0Y-135.0
X39.0Y-137.5
X39.0Y-140.0
X39.0Y-142.5
X41.5Y-132.5
X41.5Y-142.5
X53.5Y-65.5
X55.0Y-132.5
X55.0Y-135.0
X55.0Y-137.5
X55.0Y-140.0
X55.0Y-142.5
X56.25Y-136.25
X56.25Y-138.75
X60.5Y-37.0
X61.75Y-75.0
X61.75Y-80.0
X61.75Y-85.0
X61.75Y-90.0
X61.75Y-95.0
X61.75Y-100.0
X64.0Y-69.25
X65.975Y-63.725
X66.0Y-58.5
X66.0Y-59.5
X66.0Y-60.5
X66.0Y-61.5
X66.0Y-62.5
X68.75Y-97.0
X69.25Y-52.45
X69.5Y-70.25
X69.5Y-98.0
X69.738Y-60.988
X70.25Y-97.0
X70.5Y-42.5
X70.975Y-98.0
X72.25Y-75.25
X72.5Y-64.25
X72.75Y-73.5
X73.0Y-46.25
X73.25Y-60.5
X73.25Y-69.5
X75.75Y-64.25
X75.75Y-65.25
X77.75Y-43.5
X77.75Y-63.974
X78.0Y-39.5
X78.484Y-68.33
X79.0Y-39.5
X79.25Y-57.5
X79.25Y-62.25
X79.25Y-63.25
X80.0Y-41.0
X80.0Y-58.5
X80.0Y-69.5
X80.0Y-70.5
X80.424Y-66.674
X80.75Y-60.0
X80.75Y-68.75
X81.0Y-39.5
X81.75Y-68.75
X84.75Y-55.5
X84.75Y-64.75
X86.5Y-65.0
X87.5Y-76.25
X88.25Y-62.25
X88.25Y-77.0
X88.75Y-47.0
X89.0Y-64.25
X89.0Y-77.75
X89.262Y-62.238
X90.0Y-69.75
X90.0Y-78.5
X90.043Y-57.043
X90.281Y-62.231
X90.75Y-57.767
X90.876Y-58.759
X91.5Y-62.25
X92.25Y-64.5
X94.25Y-62.975
X94.5Y-47.0
X94.625Y-56.625
X94.731Y-66.219
X94.738Y-67.238
X94.75Y-68.25
X94.75Y-69.25
X97.0Y-43.0
X97.5Y-156.5
X98.25Y-75.0
X98.25Y-80.0
X98.25Y-85.0
X98.25Y-90.0
X98.25Y-95.0
X98.25Y-100.0
X98.5Y-130.25
X98.5Y-137.0
X98.513Y-157.487
X103.75Y-136.25
X103.75Y-138.75
X105.0Y-132.5
X105.0Y-135.0
X105.0Y-137.5
X105.0Y-140.0
X105.0Y-142.5
X106.75Y-65.25
X118.5Y-132.5
X118.5Y-142.5
X121.0Y-132.5
X121.0Y-135.0
X121.0Y-137.5
X121.0Y-140.0
X121.0Y-142.5
T3
X66.27Y-34.92
X66.27Y-36.19
X66.27Y-37.46
X66.27Y-38.73
X66.27Y-40.0
X67.54Y-34.92
X67.54Y-36.19
X67.54Y-37.46
X67.54Y-38.73
X67.54Y-40.0
T4
X77.575Y-36.98
X82.425Y-36.98
T5
X77.42Y-100.0
X79.96Y-100.0
X82.5Y-100.0
X85.04Y-100.0
X95.0Y-37.5
X97.0Y-37.5
X99.0Y-37.5
T6
X64.5Y-162.5
X64.5Y-165.0
X64.5Y-167.5
X65.0Y-130.0
X65.0Y-132.5
X65.0Y-135.0
X65.0Y-137.5
X65.0Y-140.0
X80.525Y-130.0
X80.525Y-132.5
X80.525Y-135.0
X80.525Y-137.5
X80.525Y-140.0
X95.0Y-132.5
X95.0Y-135.0
X95.0Y-137.5
X95.0Y-140.0
T7
X39.92Y-87.5
X39.96Y-52.5
X39.96Y-62.5
X39.96Y-67.5
X39.96Y-77.5
X39.96Y-82.5
X39.96Y-102.5
X39.96Y-107.5
X39.96Y-112.5
X39.96Y-117.5
X40.0Y-57.5
X40.0Y-72.5
X40.0Y-92.5
X40.0Y-97.5
X40.0Y-122.2
X40.0Y-127.5
X42.38Y-152.46
X42.38Y-155.0
X42.46Y-87.5
X42.5Y-52.5
X42.5Y-62.5
X42.5Y-67.5
X42.5Y-77.5
X42.5Y-82.5
X42.5Y-102.5
X42.5Y-107.5
X42.5Y-112.5
X42.5Y-117.5
X42.54Y-57.5
X42.54Y-72.5
X42.54Y-92.5
X42.54Y-97.5
X42.54Y-122.2
X42.54Y-127.5
X44.92Y-152.46
X44.92Y-155.0
X45.0Y-87.5
X45.04Y-52.5
X45.04Y-62.5
X45.04Y-67.5
X45.04Y-77.5
X45.04Y-82.5
X45.04Y-102.5
X45.04Y-107.5
X45.04Y-112.5
X45.04Y-117.5
X45.08Y-57.5
X45.08Y-72.5
X45.08Y-92.5
X45.08Y-97.5
X45.08Y-122.2
X45.08Y-127.5
X47.46Y-152.46
X47.46Y-155.0
X50.0Y-152.46
X50.0Y-155.0
X60.0Y-77.5
X60.0Y-82.5
X60.0Y-87.5
X60.0Y-92.5
X60.0Y-97.5
X60.0Y-102.5
X62.54Y-77.5
X62.54Y-82.5
X62.54Y-87.5
X62.54Y-92.5
X62.54Y-97.5
X62.54Y-102.5
X78.75Y-84.96
X78.75Y-87.5
X78.75Y-90.04
X78.75Y-92.58
X81.29Y-84.96
X81.29Y-87.5
X81.29Y-90.04
X81.29Y-92.58
X97.46Y-77.5
X97.46Y-82.5
X97.46Y-87.5
X97.46Y-92.46
X97.46Y-97.5
X97.46Y-102.5
X100.0Y-77.5
X100.0Y-82.5
X100.0Y-87.5
X100.0Y-92.46
X100.0Y-97.5
X100.0Y-102.5
X114.96Y-52.5
X114.96Y-57.5
X114.96Y-67.5
X114.96Y-72.5
X114.96Y-77.5
X114.96Y-92.5
X114.96Y-97.5
X114.96Y-102.5
X114.96Y-107.5
X114.96Y-112.5
X114.96Y-122.5
X114.96Y-127.5
X115.0Y-62.5
X115.0Y-82.5
X115.0Y-87.5
X115.04Y-117.5
X117.5Y-52.5
X117.5Y-57.5
X117.5Y-67.5
X117.5Y-72.5
X117.5Y-77.5
X117.5Y-92.5
X117.5Y-97.5
X117.5Y-102.5
X117.5Y-107.5
X117.5Y-112.5
X117.5Y-122.5
X117.5Y-127.5
X117.54Y-62.5
X117.54Y-82.5
X117.54Y-87.5
X117.58Y-117.5
X120.04Y-52.5
X120.04Y-57.5
X120.04Y-67.5
X120.04Y-72.5
X120.04Y-77.5
X120.04Y-92.5
X120.04Y-97.5
X120.04Y-102.5
X120.04Y-107.5
X120.04Y-112.5
X120.04Y-122.5
X120.04Y-127.5
X120.08Y-62.5
X120.08Y-82.5
X120.08Y-87.5
X120.12Y-117.5
T8
X76.375Y-34.3
X83.625Y-34.3
T9
X92.9Y-37.5
X101.1Y-37.5
T10
X42.5Y-40.0
X42.5Y-175.0
X117.5Y-40.0
X117.5Y-165.0
T11
X110.3Y-175.0
X117.5Y-175.0
T0
M30
