%TF.GenerationSoftware,KiCad,Pcbnew,7.0.5*%
%TF.CreationDate,2024-01-08T18:30:08+10:00*%
%TF.ProjectId,HEXCORE PCB Design v1,48455843-4f52-4452-9050-434220446573,rev?*%
%TF.SameCoordinates,Original*%
%TF.FileFunction,Paste,Top*%
%TF.FilePolarity,Positive*%
%FSLAX46Y46*%
G04 Gerber Fmt 4.6, Leading zero omitted, Abs format (unit mm)*
G04 Created by KiCad (PCBNEW 7.0.5) date 2024-01-08 18:30:08*
%MOMM*%
%LPD*%
G01*
G04 APERTURE LIST*
G04 Aperture macros list*
%AMRoundRect*
0 Rectangle with rounded corners*
0 $1 Rounding radius*
0 $2 $3 $4 $5 $6 $7 $8 $9 X,Y pos of 4 corners*
0 Add a 4 corners polygon primitive as box body*
4,1,4,$2,$3,$4,$5,$6,$7,$8,$9,$2,$3,0*
0 Add four circle primitives for the rounded corners*
1,1,$1+$1,$2,$3*
1,1,$1+$1,$4,$5*
1,1,$1+$1,$6,$7*
1,1,$1+$1,$8,$9*
0 Add four rect primitives between the rounded corners*
20,1,$1+$1,$2,$3,$4,$5,0*
20,1,$1+$1,$4,$5,$6,$7,0*
20,1,$1+$1,$6,$7,$8,$9,0*
20,1,$1+$1,$8,$9,$2,$3,0*%
%AMRotRect*
0 Rectangle, with rotation*
0 The origin of the aperture is its center*
0 $1 length*
0 $2 width*
0 $3 Rotation angle, in degrees counterclockwise*
0 Add horizontal line*
21,1,$1,$2,0,0,$3*%
G04 Aperture macros list end*
%ADD10RoundRect,0.079500X0.127279X0.014849X0.014849X0.127279X-0.127279X-0.014849X-0.014849X-0.127279X0*%
%ADD11R,0.900000X1.500000*%
%ADD12RoundRect,0.079500X-0.079500X-0.100500X0.079500X-0.100500X0.079500X0.100500X-0.079500X0.100500X0*%
%ADD13R,1.500000X2.000000*%
%ADD14R,3.800000X2.000000*%
%ADD15RoundRect,0.079500X0.079500X0.100500X-0.079500X0.100500X-0.079500X-0.100500X0.079500X-0.100500X0*%
%ADD16RoundRect,0.140000X0.219203X0.021213X0.021213X0.219203X-0.219203X-0.021213X-0.021213X-0.219203X0*%
%ADD17RoundRect,0.079500X0.100500X-0.079500X0.100500X0.079500X-0.100500X0.079500X-0.100500X-0.079500X0*%
%ADD18RoundRect,0.250000X0.320000X-0.320000X0.320000X0.320000X-0.320000X0.320000X-0.320000X-0.320000X0*%
%ADD19RoundRect,0.075000X0.075000X-0.437500X0.075000X0.437500X-0.075000X0.437500X-0.075000X-0.437500X0*%
%ADD20RoundRect,0.075000X0.437500X-0.075000X0.437500X0.075000X-0.437500X0.075000X-0.437500X-0.075000X0*%
%ADD21RoundRect,0.075000X-0.441942X-0.548008X0.548008X0.441942X0.441942X0.548008X-0.548008X-0.441942X0*%
%ADD22RoundRect,0.075000X0.441942X-0.548008X0.548008X-0.441942X-0.441942X0.548008X-0.548008X0.441942X0*%
%ADD23RoundRect,0.225000X0.017678X-0.335876X0.335876X-0.017678X-0.017678X0.335876X-0.335876X0.017678X0*%
%ADD24RoundRect,0.225000X0.250000X-0.225000X0.250000X0.225000X-0.250000X0.225000X-0.250000X-0.225000X0*%
%ADD25RoundRect,0.250000X0.362500X1.425000X-0.362500X1.425000X-0.362500X-1.425000X0.362500X-1.425000X0*%
%ADD26RoundRect,0.075000X-0.350000X-0.075000X0.350000X-0.075000X0.350000X0.075000X-0.350000X0.075000X0*%
%ADD27RoundRect,0.075000X0.075000X-0.350000X0.075000X0.350000X-0.075000X0.350000X-0.075000X-0.350000X0*%
%ADD28RoundRect,0.135000X-0.135000X-0.185000X0.135000X-0.185000X0.135000X0.185000X-0.135000X0.185000X0*%
%ADD29RoundRect,0.140000X-0.021213X0.219203X-0.219203X0.021213X0.021213X-0.219203X0.219203X-0.021213X0*%
%ADD30RoundRect,0.140000X0.021213X-0.219203X0.219203X-0.021213X-0.021213X0.219203X-0.219203X0.021213X0*%
%ADD31RoundRect,0.135000X-0.185000X0.135000X-0.185000X-0.135000X0.185000X-0.135000X0.185000X0.135000X0*%
%ADD32RoundRect,0.150000X-0.150000X0.512500X-0.150000X-0.512500X0.150000X-0.512500X0.150000X0.512500X0*%
%ADD33RoundRect,0.250001X2.049999X0.799999X-2.049999X0.799999X-2.049999X-0.799999X2.049999X-0.799999X0*%
%ADD34RoundRect,0.225000X-0.250000X0.225000X-0.250000X-0.225000X0.250000X-0.225000X0.250000X0.225000X0*%
%ADD35RoundRect,0.218750X-0.026517X0.335876X-0.335876X0.026517X0.026517X-0.335876X0.335876X-0.026517X0*%
%ADD36RoundRect,0.250000X-0.712500X-2.475000X0.712500X-2.475000X0.712500X2.475000X-0.712500X2.475000X0*%
%ADD37RoundRect,0.135000X0.185000X-0.135000X0.185000X0.135000X-0.185000X0.135000X-0.185000X-0.135000X0*%
%ADD38RotRect,1.150000X1.000000X225.000000*%
%ADD39RoundRect,0.218750X-0.256250X0.218750X-0.256250X-0.218750X0.256250X-0.218750X0.256250X0.218750X0*%
%ADD40RoundRect,0.135000X0.135000X0.185000X-0.135000X0.185000X-0.135000X-0.185000X0.135000X-0.185000X0*%
%ADD41RoundRect,0.250001X-2.049999X-0.799999X2.049999X-0.799999X2.049999X0.799999X-2.049999X0.799999X0*%
%ADD42RoundRect,0.135000X-0.035355X0.226274X-0.226274X0.035355X0.035355X-0.226274X0.226274X-0.035355X0*%
%ADD43RoundRect,0.140000X-0.219203X-0.021213X-0.021213X-0.219203X0.219203X0.021213X0.021213X0.219203X0*%
%ADD44R,0.450000X1.425000*%
%ADD45R,1.550000X1.300000*%
%ADD46RoundRect,0.079500X-0.127279X-0.014849X-0.014849X-0.127279X0.127279X0.014849X0.014849X0.127279X0*%
%ADD47RoundRect,0.250000X-0.320000X0.320000X-0.320000X-0.320000X0.320000X-0.320000X0.320000X0.320000X0*%
%ADD48RoundRect,0.075000X-0.075000X0.437500X-0.075000X-0.437500X0.075000X-0.437500X0.075000X0.437500X0*%
%ADD49RoundRect,0.075000X-0.437500X0.075000X-0.437500X-0.075000X0.437500X-0.075000X0.437500X0.075000X0*%
%ADD50R,0.400000X1.250000*%
%ADD51RoundRect,0.250000X0.712500X2.475000X-0.712500X2.475000X-0.712500X-2.475000X0.712500X-2.475000X0*%
G04 APERTURE END LIST*
D10*
%TO.C,R59*%
X74750000Y-55000000D03*
X75237904Y-55487904D03*
%TD*%
D11*
%TO.C,D3*%
X74100000Y-47550000D03*
X70800000Y-47550000D03*
X70800000Y-52450000D03*
X74100000Y-52450000D03*
%TD*%
D12*
%TO.C,R9*%
X47500000Y-62500000D03*
X48190000Y-62500000D03*
%TD*%
D13*
%TO.C,U8*%
X83650000Y-170650000D03*
X85950000Y-170650000D03*
D14*
X85950000Y-164350000D03*
D13*
X88250000Y-170650000D03*
%TD*%
D12*
%TO.C,R13*%
X47500000Y-82500000D03*
X48190000Y-82500000D03*
%TD*%
D15*
%TO.C,R29*%
X112500000Y-127500000D03*
X111810000Y-127500000D03*
%TD*%
%TO.C,R25*%
X100025000Y-85000000D03*
X99335000Y-85000000D03*
%TD*%
D12*
%TO.C,R57*%
X62155000Y-69250000D03*
X62845000Y-69250000D03*
%TD*%
D10*
%TO.C,C13*%
X73497955Y-70997955D03*
X73010051Y-70510051D03*
%TD*%
D16*
%TO.C,C7*%
X75428822Y-72928822D03*
X74750000Y-72250000D03*
%TD*%
D12*
%TO.C,R2*%
X60000000Y-85000000D03*
X60690000Y-85000000D03*
%TD*%
%TO.C,R12*%
X47500000Y-77500000D03*
X48190000Y-77500000D03*
%TD*%
D17*
%TO.C,C10*%
X60500000Y-35940000D03*
X60500000Y-35250000D03*
%TD*%
D15*
%TO.C,R43*%
X112500000Y-57500000D03*
X111810000Y-57500000D03*
%TD*%
%TO.C,R27*%
X100000000Y-75000000D03*
X99310000Y-75000000D03*
%TD*%
D18*
%TO.C,U3*%
X98580000Y-66420000D03*
X100000000Y-66420000D03*
X101420000Y-66420000D03*
X98580000Y-65000000D03*
X100000000Y-65000000D03*
X101420000Y-65000000D03*
X98580000Y-63580000D03*
X100000000Y-63580000D03*
X101420000Y-63580000D03*
D19*
X98050000Y-67837500D03*
X98700000Y-67837500D03*
X99350000Y-67837500D03*
X100000000Y-67837500D03*
X100650000Y-67837500D03*
X101300000Y-67837500D03*
X101950000Y-67837500D03*
D20*
X102837500Y-66950000D03*
X102837500Y-66300000D03*
X102837500Y-65650000D03*
X102837500Y-65000000D03*
X102837500Y-64350000D03*
X102837500Y-63700000D03*
X102837500Y-63050000D03*
D19*
X101950000Y-62162500D03*
X101300000Y-62162500D03*
X100650000Y-62162500D03*
X100000000Y-62162500D03*
X99350000Y-62162500D03*
X98700000Y-62162500D03*
X98050000Y-62162500D03*
D20*
X97162500Y-63050000D03*
X97162500Y-63700000D03*
X97162500Y-64350000D03*
X97162500Y-65000000D03*
X97162500Y-65650000D03*
X97162500Y-66300000D03*
X97162500Y-66950000D03*
%TD*%
D21*
%TO.C,U1*%
X73335519Y-66361181D03*
X73689072Y-66714734D03*
X74042625Y-67068287D03*
X74396179Y-67421841D03*
X74749732Y-67775394D03*
X75103286Y-68128948D03*
X75456839Y-68482501D03*
X75810392Y-68836054D03*
X76163946Y-69189608D03*
X76517499Y-69543161D03*
X76871052Y-69896714D03*
X77224606Y-70250268D03*
X77578159Y-70603821D03*
X77931713Y-70957375D03*
X78285266Y-71310928D03*
X78638819Y-71664481D03*
D22*
X81361181Y-71664481D03*
X81714734Y-71310928D03*
X82068287Y-70957375D03*
X82421841Y-70603821D03*
X82775394Y-70250268D03*
X83128948Y-69896714D03*
X83482501Y-69543161D03*
X83836054Y-69189608D03*
X84189608Y-68836054D03*
X84543161Y-68482501D03*
X84896714Y-68128948D03*
X85250268Y-67775394D03*
X85603821Y-67421841D03*
X85957375Y-67068287D03*
X86310928Y-66714734D03*
X86664481Y-66361181D03*
D21*
X86664481Y-63638819D03*
X86310928Y-63285266D03*
X85957375Y-62931713D03*
X85603821Y-62578159D03*
X85250268Y-62224606D03*
X84896714Y-61871052D03*
X84543161Y-61517499D03*
X84189608Y-61163946D03*
X83836054Y-60810392D03*
X83482501Y-60456839D03*
X83128948Y-60103286D03*
X82775394Y-59749732D03*
X82421841Y-59396179D03*
X82068287Y-59042625D03*
X81714734Y-58689072D03*
X81361181Y-58335519D03*
D22*
X78638819Y-58335519D03*
X78285266Y-58689072D03*
X77931713Y-59042625D03*
X77578159Y-59396179D03*
X77224606Y-59749732D03*
X76871052Y-60103286D03*
X76517499Y-60456839D03*
X76163946Y-60810392D03*
X75810392Y-61163946D03*
X75456839Y-61517499D03*
X75103286Y-61871052D03*
X74749732Y-62224606D03*
X74396179Y-62578159D03*
X74042625Y-62931713D03*
X73689072Y-63285266D03*
X73335519Y-63638819D03*
%TD*%
D16*
%TO.C,C8*%
X74678822Y-73678822D03*
X74000000Y-73000000D03*
%TD*%
D12*
%TO.C,R21*%
X47500000Y-122184567D03*
X48190000Y-122184567D03*
%TD*%
D23*
%TO.C,C6*%
X81653984Y-55596016D03*
X82750000Y-54500000D03*
%TD*%
D15*
%TO.C,C19*%
X99500000Y-45500000D03*
X98810000Y-45500000D03*
%TD*%
D12*
%TO.C,R7*%
X47500000Y-52500000D03*
X48190000Y-52500000D03*
%TD*%
D15*
%TO.C,R30*%
X112500000Y-122500000D03*
X111810000Y-122500000D03*
%TD*%
D24*
%TO.C,C15*%
X90750000Y-170650000D03*
X90750000Y-169100000D03*
%TD*%
D17*
%TO.C,R45*%
X97000000Y-41250000D03*
X97000000Y-40560000D03*
%TD*%
D12*
%TO.C,R11*%
X47500000Y-72500000D03*
X48190000Y-72500000D03*
%TD*%
D25*
%TO.C,R56*%
X94212500Y-175000000D03*
X88287500Y-175000000D03*
%TD*%
D26*
%TO.C,U7*%
X96100000Y-47500000D03*
X96100000Y-48000000D03*
X96100000Y-48500000D03*
X96100000Y-49000000D03*
X96100000Y-49500000D03*
X96100000Y-50000000D03*
D27*
X96800000Y-50700000D03*
X97300000Y-50700000D03*
X97800000Y-50700000D03*
X98300000Y-50700000D03*
X98800000Y-50700000D03*
X99300000Y-50700000D03*
D26*
X100000000Y-50000000D03*
X100000000Y-49500000D03*
X100000000Y-49000000D03*
X100000000Y-48500000D03*
X100000000Y-48000000D03*
X100000000Y-47500000D03*
D27*
X99300000Y-46800000D03*
X98800000Y-46800000D03*
X98300000Y-46800000D03*
X97800000Y-46800000D03*
X97300000Y-46800000D03*
X96800000Y-46800000D03*
%TD*%
D28*
%TO.C,R62*%
X92230000Y-47000000D03*
X93250000Y-47000000D03*
%TD*%
D15*
%TO.C,R33*%
X112500000Y-107500000D03*
X111810000Y-107500000D03*
%TD*%
D12*
%TO.C,R8*%
X47500000Y-57500000D03*
X48190000Y-57500000D03*
%TD*%
D15*
%TO.C,R38*%
X112500000Y-82500000D03*
X111810000Y-82500000D03*
%TD*%
D12*
%TO.C,R1*%
X60000000Y-80000000D03*
X60690000Y-80000000D03*
%TD*%
D15*
%TO.C,R54*%
X70940000Y-37500000D03*
X70250000Y-37500000D03*
%TD*%
D29*
%TO.C,C3*%
X83839411Y-73160589D03*
X83160589Y-73839411D03*
%TD*%
D12*
%TO.C,C18*%
X97060000Y-52250000D03*
X97750000Y-52250000D03*
%TD*%
%TO.C,R15*%
X47500000Y-92500000D03*
X48190000Y-92500000D03*
%TD*%
%TO.C,R3*%
X59975000Y-90000000D03*
X60665000Y-90000000D03*
%TD*%
%TO.C,R51*%
X70310000Y-40000000D03*
X71000000Y-40000000D03*
%TD*%
D15*
%TO.C,R34*%
X112500000Y-102500000D03*
X111810000Y-102500000D03*
%TD*%
%TO.C,R23*%
X100025000Y-95000000D03*
X99335000Y-95000000D03*
%TD*%
D17*
%TO.C,R58*%
X98750000Y-58750000D03*
X98750000Y-58060000D03*
%TD*%
D30*
%TO.C,C12*%
X83250000Y-57000000D03*
X83928822Y-56321178D03*
%TD*%
D31*
%TO.C,R50*%
X79000000Y-166980000D03*
X79000000Y-168000000D03*
%TD*%
D12*
%TO.C,R19*%
X47500000Y-112500000D03*
X48190000Y-112500000D03*
%TD*%
%TO.C,R22*%
X47500000Y-127500000D03*
X48190000Y-127500000D03*
%TD*%
D30*
%TO.C,C1*%
X71000000Y-61750000D03*
X71678822Y-61071178D03*
%TD*%
D32*
%TO.C,U5*%
X80950000Y-42500000D03*
X80000000Y-42500000D03*
X79050000Y-42500000D03*
X79050000Y-44775000D03*
X80000000Y-44775000D03*
X80950000Y-44775000D03*
%TD*%
D33*
%TO.C,C21*%
X116900000Y-137500000D03*
X108100000Y-137500000D03*
%TD*%
D34*
%TO.C,C16*%
X90750000Y-164400000D03*
X90750000Y-165950000D03*
%TD*%
D15*
%TO.C,R35*%
X112500000Y-97500000D03*
X111810000Y-97500000D03*
%TD*%
%TO.C,R44*%
X112525000Y-52500000D03*
X111835000Y-52500000D03*
%TD*%
D35*
%TO.C,FB1*%
X75678822Y-74678822D03*
X74565128Y-75792516D03*
%TD*%
D36*
%TO.C,F1*%
X96612500Y-175000000D03*
X103387500Y-175000000D03*
%TD*%
D15*
%TO.C,R36*%
X112500000Y-92500000D03*
X111810000Y-92500000D03*
%TD*%
D28*
%TO.C,R63*%
X89990000Y-47010000D03*
X91010000Y-47010000D03*
%TD*%
D12*
%TO.C,R10*%
X47500000Y-67500000D03*
X48190000Y-67500000D03*
%TD*%
D15*
%TO.C,C20*%
X99440000Y-53250000D03*
X98750000Y-53250000D03*
%TD*%
D37*
%TO.C,R48*%
X98500000Y-132500000D03*
X98500000Y-131480000D03*
%TD*%
D15*
%TO.C,R41*%
X112500000Y-67500000D03*
X111810000Y-67500000D03*
%TD*%
%TO.C,C23*%
X98000000Y-168750000D03*
X97310000Y-168750000D03*
%TD*%
D38*
%TO.C,Y1*%
X71010051Y-70760051D03*
X69772614Y-71997488D03*
X70762563Y-72987437D03*
X72000000Y-71750000D03*
%TD*%
D12*
%TO.C,R17*%
X47500000Y-102500000D03*
X48190000Y-102500000D03*
%TD*%
D16*
%TO.C,C5*%
X80750000Y-57500000D03*
X80071178Y-56821178D03*
%TD*%
%TO.C,C9*%
X73678822Y-76678822D03*
X73000000Y-76000000D03*
%TD*%
D15*
%TO.C,R37*%
X112500000Y-87500000D03*
X111810000Y-87500000D03*
%TD*%
%TO.C,R52*%
X70940000Y-36250000D03*
X70250000Y-36250000D03*
%TD*%
D39*
%TO.C,D1*%
X79000000Y-169925000D03*
X79000000Y-171500000D03*
%TD*%
D40*
%TO.C,R55*%
X83540000Y-96250000D03*
X82520000Y-96250000D03*
%TD*%
D41*
%TO.C,C22*%
X43100000Y-137500000D03*
X51900000Y-137500000D03*
%TD*%
D42*
%TO.C,R47*%
X93846248Y-57403752D03*
X93125000Y-58125000D03*
%TD*%
D30*
%TO.C,C4*%
X87500000Y-65750000D03*
X88178822Y-65071178D03*
%TD*%
D15*
%TO.C,R24*%
X100000000Y-90000000D03*
X99310000Y-90000000D03*
%TD*%
D43*
%TO.C,C11*%
X88500000Y-68250000D03*
X89178822Y-68928822D03*
%TD*%
D44*
%TO.C,IC1*%
X95875000Y-167212000D03*
X96525000Y-167212000D03*
X97175000Y-167212000D03*
X97825000Y-167212000D03*
X98475000Y-167212000D03*
X99125000Y-167212000D03*
X99125000Y-162788000D03*
X98475000Y-162788000D03*
X97825000Y-162788000D03*
X97175000Y-162788000D03*
X96525000Y-162788000D03*
X95875000Y-162788000D03*
%TD*%
D15*
%TO.C,R40*%
X112500000Y-72500000D03*
X111810000Y-72500000D03*
%TD*%
%TO.C,R32*%
X112500000Y-112500000D03*
X111810000Y-112500000D03*
%TD*%
D12*
%TO.C,R14*%
X47500000Y-87500000D03*
X48190000Y-87500000D03*
%TD*%
D16*
%TO.C,C2*%
X72500000Y-65750000D03*
X71821178Y-65071178D03*
%TD*%
D12*
%TO.C,R16*%
X47500000Y-97500000D03*
X48190000Y-97500000D03*
%TD*%
D15*
%TO.C,R53*%
X71000000Y-34750000D03*
X70310000Y-34750000D03*
%TD*%
%TO.C,R42*%
X112500000Y-62500000D03*
X111810000Y-62500000D03*
%TD*%
D45*
%TO.C,SW3*%
X58975000Y-39750000D03*
X51025000Y-39750000D03*
X58975000Y-35250000D03*
X51025000Y-35250000D03*
%TD*%
D12*
%TO.C,R6*%
X59975000Y-75000000D03*
X60665000Y-75000000D03*
%TD*%
%TO.C,R18*%
X47500000Y-107500000D03*
X48190000Y-107500000D03*
%TD*%
D15*
%TO.C,R26*%
X100000000Y-80000000D03*
X99310000Y-80000000D03*
%TD*%
D46*
%TO.C,C14*%
X71772147Y-69272147D03*
X72260051Y-69760051D03*
%TD*%
D12*
%TO.C,R20*%
X47500000Y-117500000D03*
X48190000Y-117500000D03*
%TD*%
D47*
%TO.C,U2*%
X61420000Y-63580000D03*
X60000000Y-63580000D03*
X58580000Y-63580000D03*
X61420000Y-65000000D03*
X60000000Y-65000000D03*
X58580000Y-65000000D03*
X61420000Y-66420000D03*
X60000000Y-66420000D03*
X58580000Y-66420000D03*
D48*
X61950000Y-62162500D03*
X61300000Y-62162500D03*
X60650000Y-62162500D03*
X60000000Y-62162500D03*
X59350000Y-62162500D03*
X58700000Y-62162500D03*
X58050000Y-62162500D03*
D49*
X57162500Y-63050000D03*
X57162500Y-63700000D03*
X57162500Y-64350000D03*
X57162500Y-65000000D03*
X57162500Y-65650000D03*
X57162500Y-66300000D03*
X57162500Y-66950000D03*
D48*
X58050000Y-67837500D03*
X58700000Y-67837500D03*
X59350000Y-67837500D03*
X60000000Y-67837500D03*
X60650000Y-67837500D03*
X61300000Y-67837500D03*
X61950000Y-67837500D03*
D49*
X62837500Y-66950000D03*
X62837500Y-66300000D03*
X62837500Y-65650000D03*
X62837500Y-65000000D03*
X62837500Y-64350000D03*
X62837500Y-63700000D03*
X62837500Y-63050000D03*
%TD*%
D17*
%TO.C,C17*%
X101500000Y-49000000D03*
X101500000Y-48310000D03*
%TD*%
D15*
%TO.C,R39*%
X112500000Y-77500000D03*
X111810000Y-77500000D03*
%TD*%
D12*
%TO.C,R4*%
X59975000Y-95000000D03*
X60665000Y-95000000D03*
%TD*%
D42*
%TO.C,R46*%
X92439106Y-58810894D03*
X91717858Y-59532142D03*
%TD*%
D15*
%TO.C,R28*%
X100000000Y-100000000D03*
X99310000Y-100000000D03*
%TD*%
D50*
%TO.C,J45*%
X81300000Y-37500000D03*
X80650000Y-37500000D03*
X80000000Y-37500000D03*
X79350000Y-37500000D03*
X78700000Y-37500000D03*
%TD*%
D51*
%TO.C,F2*%
X85887500Y-157500000D03*
X79112500Y-157500000D03*
%TD*%
D12*
%TO.C,R5*%
X59975000Y-100000000D03*
X60665000Y-100000000D03*
%TD*%
D15*
%TO.C,R31*%
X112500000Y-117500000D03*
X111810000Y-117500000D03*
%TD*%
D37*
%TO.C,R49*%
X98500000Y-136000000D03*
X98500000Y-134980000D03*
%TD*%
M02*
