%TF.GenerationSoftware,KiCad,Pcbnew,7.0.5*%
%TF.CreationDate,2023-10-17T21:19:38+10:00*%
%TF.ProjectId,Test Stand,54657374-2053-4746-916e-642e6b696361,rev?*%
%TF.SameCoordinates,Original*%
%TF.FileFunction,Legend,Bot*%
%TF.FilePolarity,Positive*%
%FSLAX46Y46*%
G04 Gerber Fmt 4.6, Leading zero omitted, Abs format (unit mm)*
G04 Created by KiCad (PCBNEW 7.0.5) date 2023-10-17 21:19:38*
%MOMM*%
%LPD*%
G01*
G04 APERTURE LIST*
%ADD10C,1.600000*%
%ADD11O,1.600000X1.600000*%
%ADD12C,1.800000*%
%ADD13R,1.800000X1.800000*%
%ADD14R,3.200000X3.200000*%
%ADD15O,3.200000X3.200000*%
%ADD16R,1.700000X1.700000*%
%ADD17O,1.700000X1.700000*%
%ADD18C,3.800000*%
%ADD19R,1.070000X1.800000*%
%ADD20O,1.070000X1.800000*%
%ADD21R,1.600000X1.600000*%
G04 APERTURE END LIST*
%LPC*%
D10*
X55880000Y-43180000D03*
D11*
X66040000Y-43180000D03*
D12*
X59320000Y-48980000D03*
D13*
X56780000Y-48980000D03*
D14*
X76200000Y-45720000D03*
D15*
X91440000Y-45720000D03*
D16*
X81280000Y-53340000D03*
D17*
X83820000Y-53340000D03*
X86360000Y-53340000D03*
X88900000Y-53340000D03*
D16*
X101600000Y-48260000D03*
D17*
X101600000Y-50800000D03*
X101600000Y-53340000D03*
X101600000Y-55880000D03*
X101600000Y-58420000D03*
X101600000Y-60960000D03*
X101600000Y-63500000D03*
X101600000Y-66040000D03*
D16*
X101600000Y-91440000D03*
D17*
X101600000Y-88900000D03*
X101600000Y-86360000D03*
X101600000Y-83820000D03*
X101600000Y-81280000D03*
X101600000Y-78740000D03*
X101600000Y-76200000D03*
X101600000Y-73660000D03*
X101600000Y-71120000D03*
D18*
X50800000Y-43180000D03*
D16*
X68580000Y-60960000D03*
D17*
X68580000Y-63500000D03*
X68580000Y-66040000D03*
D16*
X68580000Y-83820000D03*
D17*
X68580000Y-86360000D03*
X68580000Y-88900000D03*
D13*
X58420000Y-73660000D03*
D12*
X60960000Y-73660000D03*
D10*
X53340000Y-78740000D03*
D11*
X53340000Y-68580000D03*
D10*
X55880000Y-96520000D03*
D11*
X66040000Y-96520000D03*
D18*
X106680000Y-43180000D03*
D13*
X58420000Y-63500000D03*
D12*
X60960000Y-63500000D03*
D18*
X50800000Y-99060000D03*
D19*
X68580000Y-96520000D03*
D20*
X69850000Y-96520000D03*
X71120000Y-96520000D03*
X72390000Y-96520000D03*
D16*
X68580000Y-53340000D03*
D17*
X66040000Y-53340000D03*
D10*
X53340000Y-66040000D03*
D11*
X53340000Y-55880000D03*
D21*
X76870000Y-60960000D03*
D11*
X76870000Y-63500000D03*
X76870000Y-66040000D03*
X76870000Y-68580000D03*
X76870000Y-71120000D03*
X76870000Y-73660000D03*
X76870000Y-76200000D03*
X76870000Y-78740000D03*
X76870000Y-81280000D03*
X76870000Y-83820000D03*
X76870000Y-86360000D03*
X76870000Y-88900000D03*
X76870000Y-91440000D03*
X76870000Y-93980000D03*
X76870000Y-96520000D03*
X92110000Y-96520000D03*
X92110000Y-93980000D03*
X92110000Y-91440000D03*
X92110000Y-88900000D03*
X92110000Y-86360000D03*
X92110000Y-83820000D03*
X92110000Y-81280000D03*
X92110000Y-78740000D03*
X92110000Y-76200000D03*
X92110000Y-73660000D03*
X92110000Y-71120000D03*
X92110000Y-68580000D03*
X92110000Y-66040000D03*
X92110000Y-63500000D03*
X92110000Y-60960000D03*
D16*
X68580000Y-71120000D03*
D17*
X68580000Y-73660000D03*
X68580000Y-76200000D03*
D18*
X106680000Y-99060000D03*
D13*
X58420000Y-86360000D03*
D12*
X60960000Y-86360000D03*
D10*
X53340000Y-91440000D03*
D11*
X53340000Y-81280000D03*
%LPD*%
M02*
