%TF.GenerationSoftware,KiCad,Pcbnew,7.0.5*%
%TF.CreationDate,2023-10-17T21:20:01+10:00*%
%TF.ProjectId,Test Stand,54657374-2053-4746-916e-642e6b696361,rev?*%
%TF.SameCoordinates,Original*%
%TF.FileFunction,Drillmap*%
%TF.FilePolarity,Positive*%
%FSLAX45Y45*%
G04 Gerber Fmt 4.5, Leading zero omitted, Abs format (unit mm)*
G04 Created by KiCad (PCBNEW 7.0.5) date 2023-10-17 21:20:01*
%MOMM*%
%LPD*%
G01*
G04 APERTURE LIST*
%ADD10C,0.100000*%
%ADD11C,0.200000*%
%ADD12C,0.080000*%
%ADD13C,0.090000*%
%ADD14C,0.160000*%
%ADD15C,0.220000*%
G04 APERTURE END LIST*
D10*
X4826000Y-4064000D02*
X10922000Y-4064000D01*
X10922000Y-10160000D01*
X4826000Y-10160000D01*
X4826000Y-4064000D01*
D11*
D12*
X5294000Y-5548000D02*
X5374000Y-5628000D01*
X5374000Y-5548000D02*
X5294000Y-5628000D01*
X5294000Y-6564000D02*
X5374000Y-6644000D01*
X5374000Y-6564000D02*
X5294000Y-6644000D01*
X5294000Y-6818000D02*
X5374000Y-6898000D01*
X5374000Y-6818000D02*
X5294000Y-6898000D01*
X5294000Y-7834000D02*
X5374000Y-7914000D01*
X5374000Y-7834000D02*
X5294000Y-7914000D01*
X5294000Y-8088000D02*
X5374000Y-8168000D01*
X5374000Y-8088000D02*
X5294000Y-8168000D01*
X5294000Y-9104000D02*
X5374000Y-9184000D01*
X5374000Y-9104000D02*
X5294000Y-9184000D01*
X5548000Y-4278000D02*
X5628000Y-4358000D01*
X5628000Y-4278000D02*
X5548000Y-4358000D01*
X5548000Y-9612000D02*
X5628000Y-9692000D01*
X5628000Y-9612000D02*
X5548000Y-9692000D01*
X6564000Y-4278000D02*
X6644000Y-4358000D01*
X6644000Y-4278000D02*
X6564000Y-4358000D01*
X6564000Y-9612000D02*
X6644000Y-9692000D01*
X6644000Y-9612000D02*
X6564000Y-9692000D01*
D13*
X5723000Y-4898000D02*
G75*
G03*
X5723000Y-4898000I-45000J0D01*
G01*
X5887000Y-6350000D02*
G75*
G03*
X5887000Y-6350000I-45000J0D01*
G01*
X5887000Y-7366000D02*
G75*
G03*
X5887000Y-7366000I-45000J0D01*
G01*
X5887000Y-8636000D02*
G75*
G03*
X5887000Y-8636000I-45000J0D01*
G01*
X5977000Y-4898000D02*
G75*
G03*
X5977000Y-4898000I-45000J0D01*
G01*
X6141000Y-6350000D02*
G75*
G03*
X6141000Y-6350000I-45000J0D01*
G01*
X6141000Y-7366000D02*
G75*
G03*
X6141000Y-7366000I-45000J0D01*
G01*
X6141000Y-8636000D02*
G75*
G03*
X6141000Y-8636000I-45000J0D01*
G01*
X6903000Y-9652000D02*
G75*
G03*
X6903000Y-9652000I-45000J0D01*
G01*
X7030000Y-9652000D02*
G75*
G03*
X7030000Y-9652000I-45000J0D01*
G01*
X7157000Y-9652000D02*
G75*
G03*
X7157000Y-9652000I-45000J0D01*
G01*
X7284000Y-9652000D02*
G75*
G03*
X7284000Y-9652000I-45000J0D01*
G01*
D10*
X6604000Y-5284000D02*
X6604000Y-5384000D01*
X6554000Y-5334000D02*
X6654000Y-5334000D01*
X6858000Y-5284000D02*
X6858000Y-5384000D01*
X6808000Y-5334000D02*
X6908000Y-5334000D01*
X6858000Y-6046000D02*
X6858000Y-6146000D01*
X6808000Y-6096000D02*
X6908000Y-6096000D01*
X6858000Y-6300000D02*
X6858000Y-6400000D01*
X6808000Y-6350000D02*
X6908000Y-6350000D01*
X6858000Y-6554000D02*
X6858000Y-6654000D01*
X6808000Y-6604000D02*
X6908000Y-6604000D01*
X6858000Y-7062000D02*
X6858000Y-7162000D01*
X6808000Y-7112000D02*
X6908000Y-7112000D01*
X6858000Y-7316000D02*
X6858000Y-7416000D01*
X6808000Y-7366000D02*
X6908000Y-7366000D01*
X6858000Y-7570000D02*
X6858000Y-7670000D01*
X6808000Y-7620000D02*
X6908000Y-7620000D01*
X6858000Y-8332000D02*
X6858000Y-8432000D01*
X6808000Y-8382000D02*
X6908000Y-8382000D01*
X6858000Y-8586000D02*
X6858000Y-8686000D01*
X6808000Y-8636000D02*
X6908000Y-8636000D01*
X6858000Y-8840000D02*
X6858000Y-8940000D01*
X6808000Y-8890000D02*
X6908000Y-8890000D01*
X7687000Y-6046000D02*
X7687000Y-6146000D01*
X7637000Y-6096000D02*
X7737000Y-6096000D01*
X7687000Y-6300000D02*
X7687000Y-6400000D01*
X7637000Y-6350000D02*
X7737000Y-6350000D01*
X7687000Y-6554000D02*
X7687000Y-6654000D01*
X7637000Y-6604000D02*
X7737000Y-6604000D01*
X7687000Y-6808000D02*
X7687000Y-6908000D01*
X7637000Y-6858000D02*
X7737000Y-6858000D01*
X7687000Y-7062000D02*
X7687000Y-7162000D01*
X7637000Y-7112000D02*
X7737000Y-7112000D01*
X7687000Y-7316000D02*
X7687000Y-7416000D01*
X7637000Y-7366000D02*
X7737000Y-7366000D01*
X7687000Y-7570000D02*
X7687000Y-7670000D01*
X7637000Y-7620000D02*
X7737000Y-7620000D01*
X7687000Y-7824000D02*
X7687000Y-7924000D01*
X7637000Y-7874000D02*
X7737000Y-7874000D01*
X7687000Y-8078000D02*
X7687000Y-8178000D01*
X7637000Y-8128000D02*
X7737000Y-8128000D01*
X7687000Y-8332000D02*
X7687000Y-8432000D01*
X7637000Y-8382000D02*
X7737000Y-8382000D01*
X7687000Y-8586000D02*
X7687000Y-8686000D01*
X7637000Y-8636000D02*
X7737000Y-8636000D01*
X7687000Y-8840000D02*
X7687000Y-8940000D01*
X7637000Y-8890000D02*
X7737000Y-8890000D01*
X7687000Y-9094000D02*
X7687000Y-9194000D01*
X7637000Y-9144000D02*
X7737000Y-9144000D01*
X7687000Y-9348000D02*
X7687000Y-9448000D01*
X7637000Y-9398000D02*
X7737000Y-9398000D01*
X7687000Y-9602000D02*
X7687000Y-9702000D01*
X7637000Y-9652000D02*
X7737000Y-9652000D01*
X8128000Y-5284000D02*
X8128000Y-5384000D01*
X8078000Y-5334000D02*
X8178000Y-5334000D01*
X8382000Y-5284000D02*
X8382000Y-5384000D01*
X8332000Y-5334000D02*
X8432000Y-5334000D01*
X8636000Y-5284000D02*
X8636000Y-5384000D01*
X8586000Y-5334000D02*
X8686000Y-5334000D01*
X8890000Y-5284000D02*
X8890000Y-5384000D01*
X8840000Y-5334000D02*
X8940000Y-5334000D01*
X9211000Y-6046000D02*
X9211000Y-6146000D01*
X9161000Y-6096000D02*
X9261000Y-6096000D01*
X9211000Y-6300000D02*
X9211000Y-6400000D01*
X9161000Y-6350000D02*
X9261000Y-6350000D01*
X9211000Y-6554000D02*
X9211000Y-6654000D01*
X9161000Y-6604000D02*
X9261000Y-6604000D01*
X9211000Y-6808000D02*
X9211000Y-6908000D01*
X9161000Y-6858000D02*
X9261000Y-6858000D01*
X9211000Y-7062000D02*
X9211000Y-7162000D01*
X9161000Y-7112000D02*
X9261000Y-7112000D01*
X9211000Y-7316000D02*
X9211000Y-7416000D01*
X9161000Y-7366000D02*
X9261000Y-7366000D01*
X9211000Y-7570000D02*
X9211000Y-7670000D01*
X9161000Y-7620000D02*
X9261000Y-7620000D01*
X9211000Y-7824000D02*
X9211000Y-7924000D01*
X9161000Y-7874000D02*
X9261000Y-7874000D01*
X9211000Y-8078000D02*
X9211000Y-8178000D01*
X9161000Y-8128000D02*
X9261000Y-8128000D01*
X9211000Y-8332000D02*
X9211000Y-8432000D01*
X9161000Y-8382000D02*
X9261000Y-8382000D01*
X9211000Y-8586000D02*
X9211000Y-8686000D01*
X9161000Y-8636000D02*
X9261000Y-8636000D01*
X9211000Y-8840000D02*
X9211000Y-8940000D01*
X9161000Y-8890000D02*
X9261000Y-8890000D01*
X9211000Y-9094000D02*
X9211000Y-9194000D01*
X9161000Y-9144000D02*
X9261000Y-9144000D01*
X9211000Y-9348000D02*
X9211000Y-9448000D01*
X9161000Y-9398000D02*
X9261000Y-9398000D01*
X9211000Y-9602000D02*
X9211000Y-9702000D01*
X9161000Y-9652000D02*
X9261000Y-9652000D01*
X10160000Y-4776000D02*
X10160000Y-4876000D01*
X10110000Y-4826000D02*
X10210000Y-4826000D01*
X10160000Y-5030000D02*
X10160000Y-5130000D01*
X10110000Y-5080000D02*
X10210000Y-5080000D01*
X10160000Y-5284000D02*
X10160000Y-5384000D01*
X10110000Y-5334000D02*
X10210000Y-5334000D01*
X10160000Y-5538000D02*
X10160000Y-5638000D01*
X10110000Y-5588000D02*
X10210000Y-5588000D01*
X10160000Y-5792000D02*
X10160000Y-5892000D01*
X10110000Y-5842000D02*
X10210000Y-5842000D01*
X10160000Y-6046000D02*
X10160000Y-6146000D01*
X10110000Y-6096000D02*
X10210000Y-6096000D01*
X10160000Y-6300000D02*
X10160000Y-6400000D01*
X10110000Y-6350000D02*
X10210000Y-6350000D01*
X10160000Y-6554000D02*
X10160000Y-6654000D01*
X10110000Y-6604000D02*
X10210000Y-6604000D01*
X10160000Y-7062000D02*
X10160000Y-7162000D01*
X10110000Y-7112000D02*
X10210000Y-7112000D01*
X10160000Y-7316000D02*
X10160000Y-7416000D01*
X10110000Y-7366000D02*
X10210000Y-7366000D01*
X10160000Y-7570000D02*
X10160000Y-7670000D01*
X10110000Y-7620000D02*
X10210000Y-7620000D01*
X10160000Y-7824000D02*
X10160000Y-7924000D01*
X10110000Y-7874000D02*
X10210000Y-7874000D01*
X10160000Y-8078000D02*
X10160000Y-8178000D01*
X10110000Y-8128000D02*
X10210000Y-8128000D01*
X10160000Y-8332000D02*
X10160000Y-8432000D01*
X10110000Y-8382000D02*
X10210000Y-8382000D01*
X10160000Y-8586000D02*
X10160000Y-8686000D01*
X10110000Y-8636000D02*
X10210000Y-8636000D01*
X10160000Y-8840000D02*
X10160000Y-8940000D01*
X10110000Y-8890000D02*
X10210000Y-8890000D01*
X10160000Y-9094000D02*
X10160000Y-9194000D01*
X10110000Y-9144000D02*
X10210000Y-9144000D01*
D14*
X7676569Y-4628569D02*
X7676569Y-4515431D01*
X7563431Y-4515431D01*
X7563431Y-4628569D01*
X7676569Y-4628569D01*
X9200569Y-4628569D02*
X9200569Y-4515431D01*
X9087431Y-4515431D01*
X9087431Y-4628569D01*
X9200569Y-4628569D01*
D15*
X5080000Y-4428000D02*
X5190000Y-4318000D01*
X5080000Y-4208000D01*
X4970000Y-4318000D01*
X5080000Y-4428000D01*
X5080000Y-10016000D02*
X5190000Y-9906000D01*
X5080000Y-9796000D01*
X4970000Y-9906000D01*
X5080000Y-10016000D01*
X10668000Y-4428000D02*
X10778000Y-4318000D01*
X10668000Y-4208000D01*
X10558000Y-4318000D01*
X10668000Y-4428000D01*
X10668000Y-10016000D02*
X10778000Y-9906000D01*
X10668000Y-9796000D01*
X10558000Y-9906000D01*
X10668000Y-10016000D01*
D11*
X5081777Y-10476484D02*
X5081777Y-10276484D01*
X5081777Y-10276484D02*
X5129396Y-10276484D01*
X5129396Y-10276484D02*
X5157967Y-10286008D01*
X5157967Y-10286008D02*
X5177015Y-10305055D01*
X5177015Y-10305055D02*
X5186539Y-10324103D01*
X5186539Y-10324103D02*
X5196063Y-10362198D01*
X5196063Y-10362198D02*
X5196063Y-10390770D01*
X5196063Y-10390770D02*
X5186539Y-10428865D01*
X5186539Y-10428865D02*
X5177015Y-10447912D01*
X5177015Y-10447912D02*
X5157967Y-10466960D01*
X5157967Y-10466960D02*
X5129396Y-10476484D01*
X5129396Y-10476484D02*
X5081777Y-10476484D01*
X5281777Y-10476484D02*
X5281777Y-10343150D01*
X5281777Y-10381246D02*
X5291301Y-10362198D01*
X5291301Y-10362198D02*
X5300824Y-10352674D01*
X5300824Y-10352674D02*
X5319872Y-10343150D01*
X5319872Y-10343150D02*
X5338920Y-10343150D01*
X5405586Y-10476484D02*
X5405586Y-10343150D01*
X5405586Y-10276484D02*
X5396063Y-10286008D01*
X5396063Y-10286008D02*
X5405586Y-10295531D01*
X5405586Y-10295531D02*
X5415110Y-10286008D01*
X5415110Y-10286008D02*
X5405586Y-10276484D01*
X5405586Y-10276484D02*
X5405586Y-10295531D01*
X5529396Y-10476484D02*
X5510348Y-10466960D01*
X5510348Y-10466960D02*
X5500824Y-10447912D01*
X5500824Y-10447912D02*
X5500824Y-10276484D01*
X5634158Y-10476484D02*
X5615110Y-10466960D01*
X5615110Y-10466960D02*
X5605586Y-10447912D01*
X5605586Y-10447912D02*
X5605586Y-10276484D01*
X5862729Y-10476484D02*
X5862729Y-10276484D01*
X5862729Y-10276484D02*
X5929396Y-10419341D01*
X5929396Y-10419341D02*
X5996062Y-10276484D01*
X5996062Y-10276484D02*
X5996062Y-10476484D01*
X6177015Y-10476484D02*
X6177015Y-10371722D01*
X6177015Y-10371722D02*
X6167491Y-10352674D01*
X6167491Y-10352674D02*
X6148443Y-10343150D01*
X6148443Y-10343150D02*
X6110348Y-10343150D01*
X6110348Y-10343150D02*
X6091301Y-10352674D01*
X6177015Y-10466960D02*
X6157967Y-10476484D01*
X6157967Y-10476484D02*
X6110348Y-10476484D01*
X6110348Y-10476484D02*
X6091301Y-10466960D01*
X6091301Y-10466960D02*
X6081777Y-10447912D01*
X6081777Y-10447912D02*
X6081777Y-10428865D01*
X6081777Y-10428865D02*
X6091301Y-10409817D01*
X6091301Y-10409817D02*
X6110348Y-10400293D01*
X6110348Y-10400293D02*
X6157967Y-10400293D01*
X6157967Y-10400293D02*
X6177015Y-10390770D01*
X6272253Y-10343150D02*
X6272253Y-10543150D01*
X6272253Y-10352674D02*
X6291301Y-10343150D01*
X6291301Y-10343150D02*
X6329396Y-10343150D01*
X6329396Y-10343150D02*
X6348443Y-10352674D01*
X6348443Y-10352674D02*
X6357967Y-10362198D01*
X6357967Y-10362198D02*
X6367491Y-10381246D01*
X6367491Y-10381246D02*
X6367491Y-10438389D01*
X6367491Y-10438389D02*
X6357967Y-10457436D01*
X6357967Y-10457436D02*
X6348443Y-10466960D01*
X6348443Y-10466960D02*
X6329396Y-10476484D01*
X6329396Y-10476484D02*
X6291301Y-10476484D01*
X6291301Y-10476484D02*
X6272253Y-10466960D01*
X6453205Y-10457436D02*
X6462729Y-10466960D01*
X6462729Y-10466960D02*
X6453205Y-10476484D01*
X6453205Y-10476484D02*
X6443682Y-10466960D01*
X6443682Y-10466960D02*
X6453205Y-10457436D01*
X6453205Y-10457436D02*
X6453205Y-10476484D01*
X6453205Y-10352674D02*
X6462729Y-10362198D01*
X6462729Y-10362198D02*
X6453205Y-10371722D01*
X6453205Y-10371722D02*
X6443682Y-10362198D01*
X6443682Y-10362198D02*
X6453205Y-10352674D01*
X6453205Y-10352674D02*
X6453205Y-10371722D01*
D12*
X4741000Y-10765000D02*
X4821000Y-10845000D01*
X4821000Y-10765000D02*
X4741000Y-10845000D01*
D11*
X5119872Y-10696484D02*
X5138920Y-10696484D01*
X5138920Y-10696484D02*
X5157967Y-10706008D01*
X5157967Y-10706008D02*
X5167491Y-10715531D01*
X5167491Y-10715531D02*
X5177015Y-10734579D01*
X5177015Y-10734579D02*
X5186539Y-10772674D01*
X5186539Y-10772674D02*
X5186539Y-10820293D01*
X5186539Y-10820293D02*
X5177015Y-10858389D01*
X5177015Y-10858389D02*
X5167491Y-10877436D01*
X5167491Y-10877436D02*
X5157967Y-10886960D01*
X5157967Y-10886960D02*
X5138920Y-10896484D01*
X5138920Y-10896484D02*
X5119872Y-10896484D01*
X5119872Y-10896484D02*
X5100824Y-10886960D01*
X5100824Y-10886960D02*
X5091301Y-10877436D01*
X5091301Y-10877436D02*
X5081777Y-10858389D01*
X5081777Y-10858389D02*
X5072253Y-10820293D01*
X5072253Y-10820293D02*
X5072253Y-10772674D01*
X5072253Y-10772674D02*
X5081777Y-10734579D01*
X5081777Y-10734579D02*
X5091301Y-10715531D01*
X5091301Y-10715531D02*
X5100824Y-10706008D01*
X5100824Y-10706008D02*
X5119872Y-10696484D01*
X5272253Y-10877436D02*
X5281777Y-10886960D01*
X5281777Y-10886960D02*
X5272253Y-10896484D01*
X5272253Y-10896484D02*
X5262729Y-10886960D01*
X5262729Y-10886960D02*
X5272253Y-10877436D01*
X5272253Y-10877436D02*
X5272253Y-10896484D01*
X5396063Y-10782198D02*
X5377015Y-10772674D01*
X5377015Y-10772674D02*
X5367491Y-10763150D01*
X5367491Y-10763150D02*
X5357967Y-10744103D01*
X5357967Y-10744103D02*
X5357967Y-10734579D01*
X5357967Y-10734579D02*
X5367491Y-10715531D01*
X5367491Y-10715531D02*
X5377015Y-10706008D01*
X5377015Y-10706008D02*
X5396063Y-10696484D01*
X5396063Y-10696484D02*
X5434158Y-10696484D01*
X5434158Y-10696484D02*
X5453205Y-10706008D01*
X5453205Y-10706008D02*
X5462729Y-10715531D01*
X5462729Y-10715531D02*
X5472253Y-10734579D01*
X5472253Y-10734579D02*
X5472253Y-10744103D01*
X5472253Y-10744103D02*
X5462729Y-10763150D01*
X5462729Y-10763150D02*
X5453205Y-10772674D01*
X5453205Y-10772674D02*
X5434158Y-10782198D01*
X5434158Y-10782198D02*
X5396063Y-10782198D01*
X5396063Y-10782198D02*
X5377015Y-10791722D01*
X5377015Y-10791722D02*
X5367491Y-10801246D01*
X5367491Y-10801246D02*
X5357967Y-10820293D01*
X5357967Y-10820293D02*
X5357967Y-10858389D01*
X5357967Y-10858389D02*
X5367491Y-10877436D01*
X5367491Y-10877436D02*
X5377015Y-10886960D01*
X5377015Y-10886960D02*
X5396063Y-10896484D01*
X5396063Y-10896484D02*
X5434158Y-10896484D01*
X5434158Y-10896484D02*
X5453205Y-10886960D01*
X5453205Y-10886960D02*
X5462729Y-10877436D01*
X5462729Y-10877436D02*
X5472253Y-10858389D01*
X5472253Y-10858389D02*
X5472253Y-10820293D01*
X5472253Y-10820293D02*
X5462729Y-10801246D01*
X5462729Y-10801246D02*
X5453205Y-10791722D01*
X5453205Y-10791722D02*
X5434158Y-10782198D01*
X5596062Y-10696484D02*
X5615110Y-10696484D01*
X5615110Y-10696484D02*
X5634158Y-10706008D01*
X5634158Y-10706008D02*
X5643682Y-10715531D01*
X5643682Y-10715531D02*
X5653205Y-10734579D01*
X5653205Y-10734579D02*
X5662729Y-10772674D01*
X5662729Y-10772674D02*
X5662729Y-10820293D01*
X5662729Y-10820293D02*
X5653205Y-10858389D01*
X5653205Y-10858389D02*
X5643682Y-10877436D01*
X5643682Y-10877436D02*
X5634158Y-10886960D01*
X5634158Y-10886960D02*
X5615110Y-10896484D01*
X5615110Y-10896484D02*
X5596062Y-10896484D01*
X5596062Y-10896484D02*
X5577015Y-10886960D01*
X5577015Y-10886960D02*
X5567491Y-10877436D01*
X5567491Y-10877436D02*
X5557967Y-10858389D01*
X5557967Y-10858389D02*
X5548444Y-10820293D01*
X5548444Y-10820293D02*
X5548444Y-10772674D01*
X5548444Y-10772674D02*
X5557967Y-10734579D01*
X5557967Y-10734579D02*
X5567491Y-10715531D01*
X5567491Y-10715531D02*
X5577015Y-10706008D01*
X5577015Y-10706008D02*
X5596062Y-10696484D01*
X5786539Y-10696484D02*
X5805586Y-10696484D01*
X5805586Y-10696484D02*
X5824634Y-10706008D01*
X5824634Y-10706008D02*
X5834158Y-10715531D01*
X5834158Y-10715531D02*
X5843682Y-10734579D01*
X5843682Y-10734579D02*
X5853205Y-10772674D01*
X5853205Y-10772674D02*
X5853205Y-10820293D01*
X5853205Y-10820293D02*
X5843682Y-10858389D01*
X5843682Y-10858389D02*
X5834158Y-10877436D01*
X5834158Y-10877436D02*
X5824634Y-10886960D01*
X5824634Y-10886960D02*
X5805586Y-10896484D01*
X5805586Y-10896484D02*
X5786539Y-10896484D01*
X5786539Y-10896484D02*
X5767491Y-10886960D01*
X5767491Y-10886960D02*
X5757967Y-10877436D01*
X5757967Y-10877436D02*
X5748443Y-10858389D01*
X5748443Y-10858389D02*
X5738920Y-10820293D01*
X5738920Y-10820293D02*
X5738920Y-10772674D01*
X5738920Y-10772674D02*
X5748443Y-10734579D01*
X5748443Y-10734579D02*
X5757967Y-10715531D01*
X5757967Y-10715531D02*
X5767491Y-10706008D01*
X5767491Y-10706008D02*
X5786539Y-10696484D01*
X5938920Y-10896484D02*
X5938920Y-10763150D01*
X5938920Y-10782198D02*
X5948443Y-10772674D01*
X5948443Y-10772674D02*
X5967491Y-10763150D01*
X5967491Y-10763150D02*
X5996063Y-10763150D01*
X5996063Y-10763150D02*
X6015110Y-10772674D01*
X6015110Y-10772674D02*
X6024634Y-10791722D01*
X6024634Y-10791722D02*
X6024634Y-10896484D01*
X6024634Y-10791722D02*
X6034158Y-10772674D01*
X6034158Y-10772674D02*
X6053205Y-10763150D01*
X6053205Y-10763150D02*
X6081777Y-10763150D01*
X6081777Y-10763150D02*
X6100824Y-10772674D01*
X6100824Y-10772674D02*
X6110348Y-10791722D01*
X6110348Y-10791722D02*
X6110348Y-10896484D01*
X6205586Y-10896484D02*
X6205586Y-10763150D01*
X6205586Y-10782198D02*
X6215110Y-10772674D01*
X6215110Y-10772674D02*
X6234158Y-10763150D01*
X6234158Y-10763150D02*
X6262729Y-10763150D01*
X6262729Y-10763150D02*
X6281777Y-10772674D01*
X6281777Y-10772674D02*
X6291301Y-10791722D01*
X6291301Y-10791722D02*
X6291301Y-10896484D01*
X6291301Y-10791722D02*
X6300824Y-10772674D01*
X6300824Y-10772674D02*
X6319872Y-10763150D01*
X6319872Y-10763150D02*
X6348443Y-10763150D01*
X6348443Y-10763150D02*
X6367491Y-10772674D01*
X6367491Y-10772674D02*
X6377015Y-10791722D01*
X6377015Y-10791722D02*
X6377015Y-10896484D01*
X6767491Y-10686960D02*
X6596063Y-10944103D01*
X7024634Y-10696484D02*
X7043682Y-10696484D01*
X7043682Y-10696484D02*
X7062729Y-10706008D01*
X7062729Y-10706008D02*
X7072253Y-10715531D01*
X7072253Y-10715531D02*
X7081777Y-10734579D01*
X7081777Y-10734579D02*
X7091301Y-10772674D01*
X7091301Y-10772674D02*
X7091301Y-10820293D01*
X7091301Y-10820293D02*
X7081777Y-10858389D01*
X7081777Y-10858389D02*
X7072253Y-10877436D01*
X7072253Y-10877436D02*
X7062729Y-10886960D01*
X7062729Y-10886960D02*
X7043682Y-10896484D01*
X7043682Y-10896484D02*
X7024634Y-10896484D01*
X7024634Y-10896484D02*
X7005586Y-10886960D01*
X7005586Y-10886960D02*
X6996063Y-10877436D01*
X6996063Y-10877436D02*
X6986539Y-10858389D01*
X6986539Y-10858389D02*
X6977015Y-10820293D01*
X6977015Y-10820293D02*
X6977015Y-10772674D01*
X6977015Y-10772674D02*
X6986539Y-10734579D01*
X6986539Y-10734579D02*
X6996063Y-10715531D01*
X6996063Y-10715531D02*
X7005586Y-10706008D01*
X7005586Y-10706008D02*
X7024634Y-10696484D01*
X7177015Y-10877436D02*
X7186539Y-10886960D01*
X7186539Y-10886960D02*
X7177015Y-10896484D01*
X7177015Y-10896484D02*
X7167491Y-10886960D01*
X7167491Y-10886960D02*
X7177015Y-10877436D01*
X7177015Y-10877436D02*
X7177015Y-10896484D01*
X7310348Y-10696484D02*
X7329396Y-10696484D01*
X7329396Y-10696484D02*
X7348444Y-10706008D01*
X7348444Y-10706008D02*
X7357967Y-10715531D01*
X7357967Y-10715531D02*
X7367491Y-10734579D01*
X7367491Y-10734579D02*
X7377015Y-10772674D01*
X7377015Y-10772674D02*
X7377015Y-10820293D01*
X7377015Y-10820293D02*
X7367491Y-10858389D01*
X7367491Y-10858389D02*
X7357967Y-10877436D01*
X7357967Y-10877436D02*
X7348444Y-10886960D01*
X7348444Y-10886960D02*
X7329396Y-10896484D01*
X7329396Y-10896484D02*
X7310348Y-10896484D01*
X7310348Y-10896484D02*
X7291301Y-10886960D01*
X7291301Y-10886960D02*
X7281777Y-10877436D01*
X7281777Y-10877436D02*
X7272253Y-10858389D01*
X7272253Y-10858389D02*
X7262729Y-10820293D01*
X7262729Y-10820293D02*
X7262729Y-10772674D01*
X7262729Y-10772674D02*
X7272253Y-10734579D01*
X7272253Y-10734579D02*
X7281777Y-10715531D01*
X7281777Y-10715531D02*
X7291301Y-10706008D01*
X7291301Y-10706008D02*
X7310348Y-10696484D01*
X7443682Y-10696484D02*
X7567491Y-10696484D01*
X7567491Y-10696484D02*
X7500825Y-10772674D01*
X7500825Y-10772674D02*
X7529396Y-10772674D01*
X7529396Y-10772674D02*
X7548444Y-10782198D01*
X7548444Y-10782198D02*
X7557967Y-10791722D01*
X7557967Y-10791722D02*
X7567491Y-10810770D01*
X7567491Y-10810770D02*
X7567491Y-10858389D01*
X7567491Y-10858389D02*
X7557967Y-10877436D01*
X7557967Y-10877436D02*
X7548444Y-10886960D01*
X7548444Y-10886960D02*
X7529396Y-10896484D01*
X7529396Y-10896484D02*
X7472253Y-10896484D01*
X7472253Y-10896484D02*
X7453206Y-10886960D01*
X7453206Y-10886960D02*
X7443682Y-10877436D01*
X7757967Y-10896484D02*
X7643682Y-10896484D01*
X7700825Y-10896484D02*
X7700825Y-10696484D01*
X7700825Y-10696484D02*
X7681777Y-10725055D01*
X7681777Y-10725055D02*
X7662729Y-10744103D01*
X7662729Y-10744103D02*
X7643682Y-10753627D01*
X7938920Y-10696484D02*
X7843682Y-10696484D01*
X7843682Y-10696484D02*
X7834158Y-10791722D01*
X7834158Y-10791722D02*
X7843682Y-10782198D01*
X7843682Y-10782198D02*
X7862729Y-10772674D01*
X7862729Y-10772674D02*
X7910348Y-10772674D01*
X7910348Y-10772674D02*
X7929396Y-10782198D01*
X7929396Y-10782198D02*
X7938920Y-10791722D01*
X7938920Y-10791722D02*
X7948444Y-10810770D01*
X7948444Y-10810770D02*
X7948444Y-10858389D01*
X7948444Y-10858389D02*
X7938920Y-10877436D01*
X7938920Y-10877436D02*
X7929396Y-10886960D01*
X7929396Y-10886960D02*
X7910348Y-10896484D01*
X7910348Y-10896484D02*
X7862729Y-10896484D01*
X7862729Y-10896484D02*
X7843682Y-10886960D01*
X7843682Y-10886960D02*
X7834158Y-10877436D01*
X8024634Y-10696484D02*
X8024634Y-10734579D01*
X8100825Y-10696484D02*
X8100825Y-10734579D01*
X8396063Y-10972674D02*
X8386539Y-10963150D01*
X8386539Y-10963150D02*
X8367491Y-10934579D01*
X8367491Y-10934579D02*
X8357968Y-10915531D01*
X8357968Y-10915531D02*
X8348444Y-10886960D01*
X8348444Y-10886960D02*
X8338920Y-10839341D01*
X8338920Y-10839341D02*
X8338920Y-10801246D01*
X8338920Y-10801246D02*
X8348444Y-10753627D01*
X8348444Y-10753627D02*
X8357968Y-10725055D01*
X8357968Y-10725055D02*
X8367491Y-10706008D01*
X8367491Y-10706008D02*
X8386539Y-10677436D01*
X8386539Y-10677436D02*
X8396063Y-10667912D01*
X8577015Y-10896484D02*
X8462730Y-10896484D01*
X8519872Y-10896484D02*
X8519872Y-10696484D01*
X8519872Y-10696484D02*
X8500825Y-10725055D01*
X8500825Y-10725055D02*
X8481777Y-10744103D01*
X8481777Y-10744103D02*
X8462730Y-10753627D01*
X8700825Y-10696484D02*
X8719872Y-10696484D01*
X8719872Y-10696484D02*
X8738920Y-10706008D01*
X8738920Y-10706008D02*
X8748444Y-10715531D01*
X8748444Y-10715531D02*
X8757968Y-10734579D01*
X8757968Y-10734579D02*
X8767491Y-10772674D01*
X8767491Y-10772674D02*
X8767491Y-10820293D01*
X8767491Y-10820293D02*
X8757968Y-10858389D01*
X8757968Y-10858389D02*
X8748444Y-10877436D01*
X8748444Y-10877436D02*
X8738920Y-10886960D01*
X8738920Y-10886960D02*
X8719872Y-10896484D01*
X8719872Y-10896484D02*
X8700825Y-10896484D01*
X8700825Y-10896484D02*
X8681777Y-10886960D01*
X8681777Y-10886960D02*
X8672253Y-10877436D01*
X8672253Y-10877436D02*
X8662730Y-10858389D01*
X8662730Y-10858389D02*
X8653206Y-10820293D01*
X8653206Y-10820293D02*
X8653206Y-10772674D01*
X8653206Y-10772674D02*
X8662730Y-10734579D01*
X8662730Y-10734579D02*
X8672253Y-10715531D01*
X8672253Y-10715531D02*
X8681777Y-10706008D01*
X8681777Y-10706008D02*
X8700825Y-10696484D01*
X9005587Y-10896484D02*
X9005587Y-10696484D01*
X9091301Y-10896484D02*
X9091301Y-10791722D01*
X9091301Y-10791722D02*
X9081777Y-10772674D01*
X9081777Y-10772674D02*
X9062730Y-10763150D01*
X9062730Y-10763150D02*
X9034158Y-10763150D01*
X9034158Y-10763150D02*
X9015111Y-10772674D01*
X9015111Y-10772674D02*
X9005587Y-10782198D01*
X9215111Y-10896484D02*
X9196063Y-10886960D01*
X9196063Y-10886960D02*
X9186539Y-10877436D01*
X9186539Y-10877436D02*
X9177015Y-10858389D01*
X9177015Y-10858389D02*
X9177015Y-10801246D01*
X9177015Y-10801246D02*
X9186539Y-10782198D01*
X9186539Y-10782198D02*
X9196063Y-10772674D01*
X9196063Y-10772674D02*
X9215111Y-10763150D01*
X9215111Y-10763150D02*
X9243682Y-10763150D01*
X9243682Y-10763150D02*
X9262730Y-10772674D01*
X9262730Y-10772674D02*
X9272253Y-10782198D01*
X9272253Y-10782198D02*
X9281777Y-10801246D01*
X9281777Y-10801246D02*
X9281777Y-10858389D01*
X9281777Y-10858389D02*
X9272253Y-10877436D01*
X9272253Y-10877436D02*
X9262730Y-10886960D01*
X9262730Y-10886960D02*
X9243682Y-10896484D01*
X9243682Y-10896484D02*
X9215111Y-10896484D01*
X9396063Y-10896484D02*
X9377015Y-10886960D01*
X9377015Y-10886960D02*
X9367492Y-10867912D01*
X9367492Y-10867912D02*
X9367492Y-10696484D01*
X9548444Y-10886960D02*
X9529396Y-10896484D01*
X9529396Y-10896484D02*
X9491301Y-10896484D01*
X9491301Y-10896484D02*
X9472253Y-10886960D01*
X9472253Y-10886960D02*
X9462730Y-10867912D01*
X9462730Y-10867912D02*
X9462730Y-10791722D01*
X9462730Y-10791722D02*
X9472253Y-10772674D01*
X9472253Y-10772674D02*
X9491301Y-10763150D01*
X9491301Y-10763150D02*
X9529396Y-10763150D01*
X9529396Y-10763150D02*
X9548444Y-10772674D01*
X9548444Y-10772674D02*
X9557968Y-10791722D01*
X9557968Y-10791722D02*
X9557968Y-10810770D01*
X9557968Y-10810770D02*
X9462730Y-10829817D01*
X9634158Y-10886960D02*
X9653206Y-10896484D01*
X9653206Y-10896484D02*
X9691301Y-10896484D01*
X9691301Y-10896484D02*
X9710349Y-10886960D01*
X9710349Y-10886960D02*
X9719873Y-10867912D01*
X9719873Y-10867912D02*
X9719873Y-10858389D01*
X9719873Y-10858389D02*
X9710349Y-10839341D01*
X9710349Y-10839341D02*
X9691301Y-10829817D01*
X9691301Y-10829817D02*
X9662730Y-10829817D01*
X9662730Y-10829817D02*
X9643682Y-10820293D01*
X9643682Y-10820293D02*
X9634158Y-10801246D01*
X9634158Y-10801246D02*
X9634158Y-10791722D01*
X9634158Y-10791722D02*
X9643682Y-10772674D01*
X9643682Y-10772674D02*
X9662730Y-10763150D01*
X9662730Y-10763150D02*
X9691301Y-10763150D01*
X9691301Y-10763150D02*
X9710349Y-10772674D01*
X9786539Y-10972674D02*
X9796063Y-10963150D01*
X9796063Y-10963150D02*
X9815111Y-10934579D01*
X9815111Y-10934579D02*
X9824634Y-10915531D01*
X9824634Y-10915531D02*
X9834158Y-10886960D01*
X9834158Y-10886960D02*
X9843682Y-10839341D01*
X9843682Y-10839341D02*
X9843682Y-10801246D01*
X9843682Y-10801246D02*
X9834158Y-10753627D01*
X9834158Y-10753627D02*
X9824634Y-10725055D01*
X9824634Y-10725055D02*
X9815111Y-10706008D01*
X9815111Y-10706008D02*
X9796063Y-10677436D01*
X9796063Y-10677436D02*
X9786539Y-10667912D01*
D13*
X4821000Y-11069000D02*
G75*
G03*
X4821000Y-11069000I-45000J0D01*
G01*
D11*
X5119872Y-10960484D02*
X5138920Y-10960484D01*
X5138920Y-10960484D02*
X5157967Y-10970008D01*
X5157967Y-10970008D02*
X5167491Y-10979531D01*
X5167491Y-10979531D02*
X5177015Y-10998579D01*
X5177015Y-10998579D02*
X5186539Y-11036674D01*
X5186539Y-11036674D02*
X5186539Y-11084293D01*
X5186539Y-11084293D02*
X5177015Y-11122389D01*
X5177015Y-11122389D02*
X5167491Y-11141436D01*
X5167491Y-11141436D02*
X5157967Y-11150960D01*
X5157967Y-11150960D02*
X5138920Y-11160484D01*
X5138920Y-11160484D02*
X5119872Y-11160484D01*
X5119872Y-11160484D02*
X5100824Y-11150960D01*
X5100824Y-11150960D02*
X5091301Y-11141436D01*
X5091301Y-11141436D02*
X5081777Y-11122389D01*
X5081777Y-11122389D02*
X5072253Y-11084293D01*
X5072253Y-11084293D02*
X5072253Y-11036674D01*
X5072253Y-11036674D02*
X5081777Y-10998579D01*
X5081777Y-10998579D02*
X5091301Y-10979531D01*
X5091301Y-10979531D02*
X5100824Y-10970008D01*
X5100824Y-10970008D02*
X5119872Y-10960484D01*
X5272253Y-11141436D02*
X5281777Y-11150960D01*
X5281777Y-11150960D02*
X5272253Y-11160484D01*
X5272253Y-11160484D02*
X5262729Y-11150960D01*
X5262729Y-11150960D02*
X5272253Y-11141436D01*
X5272253Y-11141436D02*
X5272253Y-11160484D01*
X5377015Y-11160484D02*
X5415110Y-11160484D01*
X5415110Y-11160484D02*
X5434158Y-11150960D01*
X5434158Y-11150960D02*
X5443682Y-11141436D01*
X5443682Y-11141436D02*
X5462729Y-11112865D01*
X5462729Y-11112865D02*
X5472253Y-11074770D01*
X5472253Y-11074770D02*
X5472253Y-10998579D01*
X5472253Y-10998579D02*
X5462729Y-10979531D01*
X5462729Y-10979531D02*
X5453205Y-10970008D01*
X5453205Y-10970008D02*
X5434158Y-10960484D01*
X5434158Y-10960484D02*
X5396063Y-10960484D01*
X5396063Y-10960484D02*
X5377015Y-10970008D01*
X5377015Y-10970008D02*
X5367491Y-10979531D01*
X5367491Y-10979531D02*
X5357967Y-10998579D01*
X5357967Y-10998579D02*
X5357967Y-11046198D01*
X5357967Y-11046198D02*
X5367491Y-11065246D01*
X5367491Y-11065246D02*
X5377015Y-11074770D01*
X5377015Y-11074770D02*
X5396063Y-11084293D01*
X5396063Y-11084293D02*
X5434158Y-11084293D01*
X5434158Y-11084293D02*
X5453205Y-11074770D01*
X5453205Y-11074770D02*
X5462729Y-11065246D01*
X5462729Y-11065246D02*
X5472253Y-11046198D01*
X5596062Y-10960484D02*
X5615110Y-10960484D01*
X5615110Y-10960484D02*
X5634158Y-10970008D01*
X5634158Y-10970008D02*
X5643682Y-10979531D01*
X5643682Y-10979531D02*
X5653205Y-10998579D01*
X5653205Y-10998579D02*
X5662729Y-11036674D01*
X5662729Y-11036674D02*
X5662729Y-11084293D01*
X5662729Y-11084293D02*
X5653205Y-11122389D01*
X5653205Y-11122389D02*
X5643682Y-11141436D01*
X5643682Y-11141436D02*
X5634158Y-11150960D01*
X5634158Y-11150960D02*
X5615110Y-11160484D01*
X5615110Y-11160484D02*
X5596062Y-11160484D01*
X5596062Y-11160484D02*
X5577015Y-11150960D01*
X5577015Y-11150960D02*
X5567491Y-11141436D01*
X5567491Y-11141436D02*
X5557967Y-11122389D01*
X5557967Y-11122389D02*
X5548444Y-11084293D01*
X5548444Y-11084293D02*
X5548444Y-11036674D01*
X5548444Y-11036674D02*
X5557967Y-10998579D01*
X5557967Y-10998579D02*
X5567491Y-10979531D01*
X5567491Y-10979531D02*
X5577015Y-10970008D01*
X5577015Y-10970008D02*
X5596062Y-10960484D01*
X5786539Y-10960484D02*
X5805586Y-10960484D01*
X5805586Y-10960484D02*
X5824634Y-10970008D01*
X5824634Y-10970008D02*
X5834158Y-10979531D01*
X5834158Y-10979531D02*
X5843682Y-10998579D01*
X5843682Y-10998579D02*
X5853205Y-11036674D01*
X5853205Y-11036674D02*
X5853205Y-11084293D01*
X5853205Y-11084293D02*
X5843682Y-11122389D01*
X5843682Y-11122389D02*
X5834158Y-11141436D01*
X5834158Y-11141436D02*
X5824634Y-11150960D01*
X5824634Y-11150960D02*
X5805586Y-11160484D01*
X5805586Y-11160484D02*
X5786539Y-11160484D01*
X5786539Y-11160484D02*
X5767491Y-11150960D01*
X5767491Y-11150960D02*
X5757967Y-11141436D01*
X5757967Y-11141436D02*
X5748443Y-11122389D01*
X5748443Y-11122389D02*
X5738920Y-11084293D01*
X5738920Y-11084293D02*
X5738920Y-11036674D01*
X5738920Y-11036674D02*
X5748443Y-10998579D01*
X5748443Y-10998579D02*
X5757967Y-10979531D01*
X5757967Y-10979531D02*
X5767491Y-10970008D01*
X5767491Y-10970008D02*
X5786539Y-10960484D01*
X5938920Y-11160484D02*
X5938920Y-11027150D01*
X5938920Y-11046198D02*
X5948443Y-11036674D01*
X5948443Y-11036674D02*
X5967491Y-11027150D01*
X5967491Y-11027150D02*
X5996063Y-11027150D01*
X5996063Y-11027150D02*
X6015110Y-11036674D01*
X6015110Y-11036674D02*
X6024634Y-11055722D01*
X6024634Y-11055722D02*
X6024634Y-11160484D01*
X6024634Y-11055722D02*
X6034158Y-11036674D01*
X6034158Y-11036674D02*
X6053205Y-11027150D01*
X6053205Y-11027150D02*
X6081777Y-11027150D01*
X6081777Y-11027150D02*
X6100824Y-11036674D01*
X6100824Y-11036674D02*
X6110348Y-11055722D01*
X6110348Y-11055722D02*
X6110348Y-11160484D01*
X6205586Y-11160484D02*
X6205586Y-11027150D01*
X6205586Y-11046198D02*
X6215110Y-11036674D01*
X6215110Y-11036674D02*
X6234158Y-11027150D01*
X6234158Y-11027150D02*
X6262729Y-11027150D01*
X6262729Y-11027150D02*
X6281777Y-11036674D01*
X6281777Y-11036674D02*
X6291301Y-11055722D01*
X6291301Y-11055722D02*
X6291301Y-11160484D01*
X6291301Y-11055722D02*
X6300824Y-11036674D01*
X6300824Y-11036674D02*
X6319872Y-11027150D01*
X6319872Y-11027150D02*
X6348443Y-11027150D01*
X6348443Y-11027150D02*
X6367491Y-11036674D01*
X6367491Y-11036674D02*
X6377015Y-11055722D01*
X6377015Y-11055722D02*
X6377015Y-11160484D01*
X6767491Y-10950960D02*
X6596063Y-11208103D01*
X7024634Y-10960484D02*
X7043682Y-10960484D01*
X7043682Y-10960484D02*
X7062729Y-10970008D01*
X7062729Y-10970008D02*
X7072253Y-10979531D01*
X7072253Y-10979531D02*
X7081777Y-10998579D01*
X7081777Y-10998579D02*
X7091301Y-11036674D01*
X7091301Y-11036674D02*
X7091301Y-11084293D01*
X7091301Y-11084293D02*
X7081777Y-11122389D01*
X7081777Y-11122389D02*
X7072253Y-11141436D01*
X7072253Y-11141436D02*
X7062729Y-11150960D01*
X7062729Y-11150960D02*
X7043682Y-11160484D01*
X7043682Y-11160484D02*
X7024634Y-11160484D01*
X7024634Y-11160484D02*
X7005586Y-11150960D01*
X7005586Y-11150960D02*
X6996063Y-11141436D01*
X6996063Y-11141436D02*
X6986539Y-11122389D01*
X6986539Y-11122389D02*
X6977015Y-11084293D01*
X6977015Y-11084293D02*
X6977015Y-11036674D01*
X6977015Y-11036674D02*
X6986539Y-10998579D01*
X6986539Y-10998579D02*
X6996063Y-10979531D01*
X6996063Y-10979531D02*
X7005586Y-10970008D01*
X7005586Y-10970008D02*
X7024634Y-10960484D01*
X7177015Y-11141436D02*
X7186539Y-11150960D01*
X7186539Y-11150960D02*
X7177015Y-11160484D01*
X7177015Y-11160484D02*
X7167491Y-11150960D01*
X7167491Y-11150960D02*
X7177015Y-11141436D01*
X7177015Y-11141436D02*
X7177015Y-11160484D01*
X7310348Y-10960484D02*
X7329396Y-10960484D01*
X7329396Y-10960484D02*
X7348444Y-10970008D01*
X7348444Y-10970008D02*
X7357967Y-10979531D01*
X7357967Y-10979531D02*
X7367491Y-10998579D01*
X7367491Y-10998579D02*
X7377015Y-11036674D01*
X7377015Y-11036674D02*
X7377015Y-11084293D01*
X7377015Y-11084293D02*
X7367491Y-11122389D01*
X7367491Y-11122389D02*
X7357967Y-11141436D01*
X7357967Y-11141436D02*
X7348444Y-11150960D01*
X7348444Y-11150960D02*
X7329396Y-11160484D01*
X7329396Y-11160484D02*
X7310348Y-11160484D01*
X7310348Y-11160484D02*
X7291301Y-11150960D01*
X7291301Y-11150960D02*
X7281777Y-11141436D01*
X7281777Y-11141436D02*
X7272253Y-11122389D01*
X7272253Y-11122389D02*
X7262729Y-11084293D01*
X7262729Y-11084293D02*
X7262729Y-11036674D01*
X7262729Y-11036674D02*
X7272253Y-10998579D01*
X7272253Y-10998579D02*
X7281777Y-10979531D01*
X7281777Y-10979531D02*
X7291301Y-10970008D01*
X7291301Y-10970008D02*
X7310348Y-10960484D01*
X7443682Y-10960484D02*
X7567491Y-10960484D01*
X7567491Y-10960484D02*
X7500825Y-11036674D01*
X7500825Y-11036674D02*
X7529396Y-11036674D01*
X7529396Y-11036674D02*
X7548444Y-11046198D01*
X7548444Y-11046198D02*
X7557967Y-11055722D01*
X7557967Y-11055722D02*
X7567491Y-11074770D01*
X7567491Y-11074770D02*
X7567491Y-11122389D01*
X7567491Y-11122389D02*
X7557967Y-11141436D01*
X7557967Y-11141436D02*
X7548444Y-11150960D01*
X7548444Y-11150960D02*
X7529396Y-11160484D01*
X7529396Y-11160484D02*
X7472253Y-11160484D01*
X7472253Y-11160484D02*
X7453206Y-11150960D01*
X7453206Y-11150960D02*
X7443682Y-11141436D01*
X7748444Y-10960484D02*
X7653206Y-10960484D01*
X7653206Y-10960484D02*
X7643682Y-11055722D01*
X7643682Y-11055722D02*
X7653206Y-11046198D01*
X7653206Y-11046198D02*
X7672253Y-11036674D01*
X7672253Y-11036674D02*
X7719872Y-11036674D01*
X7719872Y-11036674D02*
X7738920Y-11046198D01*
X7738920Y-11046198D02*
X7748444Y-11055722D01*
X7748444Y-11055722D02*
X7757967Y-11074770D01*
X7757967Y-11074770D02*
X7757967Y-11122389D01*
X7757967Y-11122389D02*
X7748444Y-11141436D01*
X7748444Y-11141436D02*
X7738920Y-11150960D01*
X7738920Y-11150960D02*
X7719872Y-11160484D01*
X7719872Y-11160484D02*
X7672253Y-11160484D01*
X7672253Y-11160484D02*
X7653206Y-11150960D01*
X7653206Y-11150960D02*
X7643682Y-11141436D01*
X7929396Y-11027150D02*
X7929396Y-11160484D01*
X7881777Y-10950960D02*
X7834158Y-11093817D01*
X7834158Y-11093817D02*
X7957967Y-11093817D01*
X8024634Y-10960484D02*
X8024634Y-10998579D01*
X8100825Y-10960484D02*
X8100825Y-10998579D01*
X8396063Y-11236674D02*
X8386539Y-11227150D01*
X8386539Y-11227150D02*
X8367491Y-11198579D01*
X8367491Y-11198579D02*
X8357968Y-11179531D01*
X8357968Y-11179531D02*
X8348444Y-11150960D01*
X8348444Y-11150960D02*
X8338920Y-11103341D01*
X8338920Y-11103341D02*
X8338920Y-11065246D01*
X8338920Y-11065246D02*
X8348444Y-11017627D01*
X8348444Y-11017627D02*
X8357968Y-10989055D01*
X8357968Y-10989055D02*
X8367491Y-10970008D01*
X8367491Y-10970008D02*
X8386539Y-10941436D01*
X8386539Y-10941436D02*
X8396063Y-10931912D01*
X8577015Y-11160484D02*
X8462730Y-11160484D01*
X8519872Y-11160484D02*
X8519872Y-10960484D01*
X8519872Y-10960484D02*
X8500825Y-10989055D01*
X8500825Y-10989055D02*
X8481777Y-11008103D01*
X8481777Y-11008103D02*
X8462730Y-11017627D01*
X8653206Y-10979531D02*
X8662730Y-10970008D01*
X8662730Y-10970008D02*
X8681777Y-10960484D01*
X8681777Y-10960484D02*
X8729396Y-10960484D01*
X8729396Y-10960484D02*
X8748444Y-10970008D01*
X8748444Y-10970008D02*
X8757968Y-10979531D01*
X8757968Y-10979531D02*
X8767491Y-10998579D01*
X8767491Y-10998579D02*
X8767491Y-11017627D01*
X8767491Y-11017627D02*
X8757968Y-11046198D01*
X8757968Y-11046198D02*
X8643682Y-11160484D01*
X8643682Y-11160484D02*
X8767491Y-11160484D01*
X9005587Y-11160484D02*
X9005587Y-10960484D01*
X9091301Y-11160484D02*
X9091301Y-11055722D01*
X9091301Y-11055722D02*
X9081777Y-11036674D01*
X9081777Y-11036674D02*
X9062730Y-11027150D01*
X9062730Y-11027150D02*
X9034158Y-11027150D01*
X9034158Y-11027150D02*
X9015111Y-11036674D01*
X9015111Y-11036674D02*
X9005587Y-11046198D01*
X9215111Y-11160484D02*
X9196063Y-11150960D01*
X9196063Y-11150960D02*
X9186539Y-11141436D01*
X9186539Y-11141436D02*
X9177015Y-11122389D01*
X9177015Y-11122389D02*
X9177015Y-11065246D01*
X9177015Y-11065246D02*
X9186539Y-11046198D01*
X9186539Y-11046198D02*
X9196063Y-11036674D01*
X9196063Y-11036674D02*
X9215111Y-11027150D01*
X9215111Y-11027150D02*
X9243682Y-11027150D01*
X9243682Y-11027150D02*
X9262730Y-11036674D01*
X9262730Y-11036674D02*
X9272253Y-11046198D01*
X9272253Y-11046198D02*
X9281777Y-11065246D01*
X9281777Y-11065246D02*
X9281777Y-11122389D01*
X9281777Y-11122389D02*
X9272253Y-11141436D01*
X9272253Y-11141436D02*
X9262730Y-11150960D01*
X9262730Y-11150960D02*
X9243682Y-11160484D01*
X9243682Y-11160484D02*
X9215111Y-11160484D01*
X9396063Y-11160484D02*
X9377015Y-11150960D01*
X9377015Y-11150960D02*
X9367492Y-11131912D01*
X9367492Y-11131912D02*
X9367492Y-10960484D01*
X9548444Y-11150960D02*
X9529396Y-11160484D01*
X9529396Y-11160484D02*
X9491301Y-11160484D01*
X9491301Y-11160484D02*
X9472253Y-11150960D01*
X9472253Y-11150960D02*
X9462730Y-11131912D01*
X9462730Y-11131912D02*
X9462730Y-11055722D01*
X9462730Y-11055722D02*
X9472253Y-11036674D01*
X9472253Y-11036674D02*
X9491301Y-11027150D01*
X9491301Y-11027150D02*
X9529396Y-11027150D01*
X9529396Y-11027150D02*
X9548444Y-11036674D01*
X9548444Y-11036674D02*
X9557968Y-11055722D01*
X9557968Y-11055722D02*
X9557968Y-11074770D01*
X9557968Y-11074770D02*
X9462730Y-11093817D01*
X9634158Y-11150960D02*
X9653206Y-11160484D01*
X9653206Y-11160484D02*
X9691301Y-11160484D01*
X9691301Y-11160484D02*
X9710349Y-11150960D01*
X9710349Y-11150960D02*
X9719873Y-11131912D01*
X9719873Y-11131912D02*
X9719873Y-11122389D01*
X9719873Y-11122389D02*
X9710349Y-11103341D01*
X9710349Y-11103341D02*
X9691301Y-11093817D01*
X9691301Y-11093817D02*
X9662730Y-11093817D01*
X9662730Y-11093817D02*
X9643682Y-11084293D01*
X9643682Y-11084293D02*
X9634158Y-11065246D01*
X9634158Y-11065246D02*
X9634158Y-11055722D01*
X9634158Y-11055722D02*
X9643682Y-11036674D01*
X9643682Y-11036674D02*
X9662730Y-11027150D01*
X9662730Y-11027150D02*
X9691301Y-11027150D01*
X9691301Y-11027150D02*
X9710349Y-11036674D01*
X9786539Y-11236674D02*
X9796063Y-11227150D01*
X9796063Y-11227150D02*
X9815111Y-11198579D01*
X9815111Y-11198579D02*
X9824634Y-11179531D01*
X9824634Y-11179531D02*
X9834158Y-11150960D01*
X9834158Y-11150960D02*
X9843682Y-11103341D01*
X9843682Y-11103341D02*
X9843682Y-11065246D01*
X9843682Y-11065246D02*
X9834158Y-11017627D01*
X9834158Y-11017627D02*
X9824634Y-10989055D01*
X9824634Y-10989055D02*
X9815111Y-10970008D01*
X9815111Y-10970008D02*
X9796063Y-10941436D01*
X9796063Y-10941436D02*
X9786539Y-10931912D01*
D10*
X4771000Y-11283000D02*
X4771000Y-11383000D01*
X4721000Y-11333000D02*
X4821000Y-11333000D01*
D11*
X5186539Y-11424484D02*
X5072253Y-11424484D01*
X5129396Y-11424484D02*
X5129396Y-11224484D01*
X5129396Y-11224484D02*
X5110348Y-11253055D01*
X5110348Y-11253055D02*
X5091301Y-11272103D01*
X5091301Y-11272103D02*
X5072253Y-11281627D01*
X5272253Y-11405436D02*
X5281777Y-11414960D01*
X5281777Y-11414960D02*
X5272253Y-11424484D01*
X5272253Y-11424484D02*
X5262729Y-11414960D01*
X5262729Y-11414960D02*
X5272253Y-11405436D01*
X5272253Y-11405436D02*
X5272253Y-11424484D01*
X5405586Y-11224484D02*
X5424634Y-11224484D01*
X5424634Y-11224484D02*
X5443682Y-11234008D01*
X5443682Y-11234008D02*
X5453205Y-11243531D01*
X5453205Y-11243531D02*
X5462729Y-11262579D01*
X5462729Y-11262579D02*
X5472253Y-11300674D01*
X5472253Y-11300674D02*
X5472253Y-11348293D01*
X5472253Y-11348293D02*
X5462729Y-11386388D01*
X5462729Y-11386388D02*
X5453205Y-11405436D01*
X5453205Y-11405436D02*
X5443682Y-11414960D01*
X5443682Y-11414960D02*
X5424634Y-11424484D01*
X5424634Y-11424484D02*
X5405586Y-11424484D01*
X5405586Y-11424484D02*
X5386539Y-11414960D01*
X5386539Y-11414960D02*
X5377015Y-11405436D01*
X5377015Y-11405436D02*
X5367491Y-11386388D01*
X5367491Y-11386388D02*
X5357967Y-11348293D01*
X5357967Y-11348293D02*
X5357967Y-11300674D01*
X5357967Y-11300674D02*
X5367491Y-11262579D01*
X5367491Y-11262579D02*
X5377015Y-11243531D01*
X5377015Y-11243531D02*
X5386539Y-11234008D01*
X5386539Y-11234008D02*
X5405586Y-11224484D01*
X5596062Y-11224484D02*
X5615110Y-11224484D01*
X5615110Y-11224484D02*
X5634158Y-11234008D01*
X5634158Y-11234008D02*
X5643682Y-11243531D01*
X5643682Y-11243531D02*
X5653205Y-11262579D01*
X5653205Y-11262579D02*
X5662729Y-11300674D01*
X5662729Y-11300674D02*
X5662729Y-11348293D01*
X5662729Y-11348293D02*
X5653205Y-11386388D01*
X5653205Y-11386388D02*
X5643682Y-11405436D01*
X5643682Y-11405436D02*
X5634158Y-11414960D01*
X5634158Y-11414960D02*
X5615110Y-11424484D01*
X5615110Y-11424484D02*
X5596062Y-11424484D01*
X5596062Y-11424484D02*
X5577015Y-11414960D01*
X5577015Y-11414960D02*
X5567491Y-11405436D01*
X5567491Y-11405436D02*
X5557967Y-11386388D01*
X5557967Y-11386388D02*
X5548444Y-11348293D01*
X5548444Y-11348293D02*
X5548444Y-11300674D01*
X5548444Y-11300674D02*
X5557967Y-11262579D01*
X5557967Y-11262579D02*
X5567491Y-11243531D01*
X5567491Y-11243531D02*
X5577015Y-11234008D01*
X5577015Y-11234008D02*
X5596062Y-11224484D01*
X5786539Y-11224484D02*
X5805586Y-11224484D01*
X5805586Y-11224484D02*
X5824634Y-11234008D01*
X5824634Y-11234008D02*
X5834158Y-11243531D01*
X5834158Y-11243531D02*
X5843682Y-11262579D01*
X5843682Y-11262579D02*
X5853205Y-11300674D01*
X5853205Y-11300674D02*
X5853205Y-11348293D01*
X5853205Y-11348293D02*
X5843682Y-11386388D01*
X5843682Y-11386388D02*
X5834158Y-11405436D01*
X5834158Y-11405436D02*
X5824634Y-11414960D01*
X5824634Y-11414960D02*
X5805586Y-11424484D01*
X5805586Y-11424484D02*
X5786539Y-11424484D01*
X5786539Y-11424484D02*
X5767491Y-11414960D01*
X5767491Y-11414960D02*
X5757967Y-11405436D01*
X5757967Y-11405436D02*
X5748443Y-11386388D01*
X5748443Y-11386388D02*
X5738920Y-11348293D01*
X5738920Y-11348293D02*
X5738920Y-11300674D01*
X5738920Y-11300674D02*
X5748443Y-11262579D01*
X5748443Y-11262579D02*
X5757967Y-11243531D01*
X5757967Y-11243531D02*
X5767491Y-11234008D01*
X5767491Y-11234008D02*
X5786539Y-11224484D01*
X5938920Y-11424484D02*
X5938920Y-11291150D01*
X5938920Y-11310198D02*
X5948443Y-11300674D01*
X5948443Y-11300674D02*
X5967491Y-11291150D01*
X5967491Y-11291150D02*
X5996063Y-11291150D01*
X5996063Y-11291150D02*
X6015110Y-11300674D01*
X6015110Y-11300674D02*
X6024634Y-11319722D01*
X6024634Y-11319722D02*
X6024634Y-11424484D01*
X6024634Y-11319722D02*
X6034158Y-11300674D01*
X6034158Y-11300674D02*
X6053205Y-11291150D01*
X6053205Y-11291150D02*
X6081777Y-11291150D01*
X6081777Y-11291150D02*
X6100824Y-11300674D01*
X6100824Y-11300674D02*
X6110348Y-11319722D01*
X6110348Y-11319722D02*
X6110348Y-11424484D01*
X6205586Y-11424484D02*
X6205586Y-11291150D01*
X6205586Y-11310198D02*
X6215110Y-11300674D01*
X6215110Y-11300674D02*
X6234158Y-11291150D01*
X6234158Y-11291150D02*
X6262729Y-11291150D01*
X6262729Y-11291150D02*
X6281777Y-11300674D01*
X6281777Y-11300674D02*
X6291301Y-11319722D01*
X6291301Y-11319722D02*
X6291301Y-11424484D01*
X6291301Y-11319722D02*
X6300824Y-11300674D01*
X6300824Y-11300674D02*
X6319872Y-11291150D01*
X6319872Y-11291150D02*
X6348443Y-11291150D01*
X6348443Y-11291150D02*
X6367491Y-11300674D01*
X6367491Y-11300674D02*
X6377015Y-11319722D01*
X6377015Y-11319722D02*
X6377015Y-11424484D01*
X6767491Y-11214960D02*
X6596063Y-11472103D01*
X7024634Y-11224484D02*
X7043682Y-11224484D01*
X7043682Y-11224484D02*
X7062729Y-11234008D01*
X7062729Y-11234008D02*
X7072253Y-11243531D01*
X7072253Y-11243531D02*
X7081777Y-11262579D01*
X7081777Y-11262579D02*
X7091301Y-11300674D01*
X7091301Y-11300674D02*
X7091301Y-11348293D01*
X7091301Y-11348293D02*
X7081777Y-11386388D01*
X7081777Y-11386388D02*
X7072253Y-11405436D01*
X7072253Y-11405436D02*
X7062729Y-11414960D01*
X7062729Y-11414960D02*
X7043682Y-11424484D01*
X7043682Y-11424484D02*
X7024634Y-11424484D01*
X7024634Y-11424484D02*
X7005586Y-11414960D01*
X7005586Y-11414960D02*
X6996063Y-11405436D01*
X6996063Y-11405436D02*
X6986539Y-11386388D01*
X6986539Y-11386388D02*
X6977015Y-11348293D01*
X6977015Y-11348293D02*
X6977015Y-11300674D01*
X6977015Y-11300674D02*
X6986539Y-11262579D01*
X6986539Y-11262579D02*
X6996063Y-11243531D01*
X6996063Y-11243531D02*
X7005586Y-11234008D01*
X7005586Y-11234008D02*
X7024634Y-11224484D01*
X7177015Y-11405436D02*
X7186539Y-11414960D01*
X7186539Y-11414960D02*
X7177015Y-11424484D01*
X7177015Y-11424484D02*
X7167491Y-11414960D01*
X7167491Y-11414960D02*
X7177015Y-11405436D01*
X7177015Y-11405436D02*
X7177015Y-11424484D01*
X7310348Y-11224484D02*
X7329396Y-11224484D01*
X7329396Y-11224484D02*
X7348444Y-11234008D01*
X7348444Y-11234008D02*
X7357967Y-11243531D01*
X7357967Y-11243531D02*
X7367491Y-11262579D01*
X7367491Y-11262579D02*
X7377015Y-11300674D01*
X7377015Y-11300674D02*
X7377015Y-11348293D01*
X7377015Y-11348293D02*
X7367491Y-11386388D01*
X7367491Y-11386388D02*
X7357967Y-11405436D01*
X7357967Y-11405436D02*
X7348444Y-11414960D01*
X7348444Y-11414960D02*
X7329396Y-11424484D01*
X7329396Y-11424484D02*
X7310348Y-11424484D01*
X7310348Y-11424484D02*
X7291301Y-11414960D01*
X7291301Y-11414960D02*
X7281777Y-11405436D01*
X7281777Y-11405436D02*
X7272253Y-11386388D01*
X7272253Y-11386388D02*
X7262729Y-11348293D01*
X7262729Y-11348293D02*
X7262729Y-11300674D01*
X7262729Y-11300674D02*
X7272253Y-11262579D01*
X7272253Y-11262579D02*
X7281777Y-11243531D01*
X7281777Y-11243531D02*
X7291301Y-11234008D01*
X7291301Y-11234008D02*
X7310348Y-11224484D01*
X7443682Y-11224484D02*
X7567491Y-11224484D01*
X7567491Y-11224484D02*
X7500825Y-11300674D01*
X7500825Y-11300674D02*
X7529396Y-11300674D01*
X7529396Y-11300674D02*
X7548444Y-11310198D01*
X7548444Y-11310198D02*
X7557967Y-11319722D01*
X7557967Y-11319722D02*
X7567491Y-11338769D01*
X7567491Y-11338769D02*
X7567491Y-11386388D01*
X7567491Y-11386388D02*
X7557967Y-11405436D01*
X7557967Y-11405436D02*
X7548444Y-11414960D01*
X7548444Y-11414960D02*
X7529396Y-11424484D01*
X7529396Y-11424484D02*
X7472253Y-11424484D01*
X7472253Y-11424484D02*
X7453206Y-11414960D01*
X7453206Y-11414960D02*
X7443682Y-11405436D01*
X7662729Y-11424484D02*
X7700825Y-11424484D01*
X7700825Y-11424484D02*
X7719872Y-11414960D01*
X7719872Y-11414960D02*
X7729396Y-11405436D01*
X7729396Y-11405436D02*
X7748444Y-11376865D01*
X7748444Y-11376865D02*
X7757967Y-11338769D01*
X7757967Y-11338769D02*
X7757967Y-11262579D01*
X7757967Y-11262579D02*
X7748444Y-11243531D01*
X7748444Y-11243531D02*
X7738920Y-11234008D01*
X7738920Y-11234008D02*
X7719872Y-11224484D01*
X7719872Y-11224484D02*
X7681777Y-11224484D01*
X7681777Y-11224484D02*
X7662729Y-11234008D01*
X7662729Y-11234008D02*
X7653206Y-11243531D01*
X7653206Y-11243531D02*
X7643682Y-11262579D01*
X7643682Y-11262579D02*
X7643682Y-11310198D01*
X7643682Y-11310198D02*
X7653206Y-11329246D01*
X7653206Y-11329246D02*
X7662729Y-11338769D01*
X7662729Y-11338769D02*
X7681777Y-11348293D01*
X7681777Y-11348293D02*
X7719872Y-11348293D01*
X7719872Y-11348293D02*
X7738920Y-11338769D01*
X7738920Y-11338769D02*
X7748444Y-11329246D01*
X7748444Y-11329246D02*
X7757967Y-11310198D01*
X7929396Y-11291150D02*
X7929396Y-11424484D01*
X7881777Y-11214960D02*
X7834158Y-11357817D01*
X7834158Y-11357817D02*
X7957967Y-11357817D01*
X8024634Y-11224484D02*
X8024634Y-11262579D01*
X8100825Y-11224484D02*
X8100825Y-11262579D01*
X8396063Y-11500674D02*
X8386539Y-11491150D01*
X8386539Y-11491150D02*
X8367491Y-11462579D01*
X8367491Y-11462579D02*
X8357968Y-11443531D01*
X8357968Y-11443531D02*
X8348444Y-11414960D01*
X8348444Y-11414960D02*
X8338920Y-11367341D01*
X8338920Y-11367341D02*
X8338920Y-11329246D01*
X8338920Y-11329246D02*
X8348444Y-11281627D01*
X8348444Y-11281627D02*
X8357968Y-11253055D01*
X8357968Y-11253055D02*
X8367491Y-11234008D01*
X8367491Y-11234008D02*
X8386539Y-11205436D01*
X8386539Y-11205436D02*
X8396063Y-11195912D01*
X8557968Y-11224484D02*
X8519872Y-11224484D01*
X8519872Y-11224484D02*
X8500825Y-11234008D01*
X8500825Y-11234008D02*
X8491301Y-11243531D01*
X8491301Y-11243531D02*
X8472253Y-11272103D01*
X8472253Y-11272103D02*
X8462730Y-11310198D01*
X8462730Y-11310198D02*
X8462730Y-11386388D01*
X8462730Y-11386388D02*
X8472253Y-11405436D01*
X8472253Y-11405436D02*
X8481777Y-11414960D01*
X8481777Y-11414960D02*
X8500825Y-11424484D01*
X8500825Y-11424484D02*
X8538920Y-11424484D01*
X8538920Y-11424484D02*
X8557968Y-11414960D01*
X8557968Y-11414960D02*
X8567491Y-11405436D01*
X8567491Y-11405436D02*
X8577015Y-11386388D01*
X8577015Y-11386388D02*
X8577015Y-11338769D01*
X8577015Y-11338769D02*
X8567491Y-11319722D01*
X8567491Y-11319722D02*
X8557968Y-11310198D01*
X8557968Y-11310198D02*
X8538920Y-11300674D01*
X8538920Y-11300674D02*
X8500825Y-11300674D01*
X8500825Y-11300674D02*
X8481777Y-11310198D01*
X8481777Y-11310198D02*
X8472253Y-11319722D01*
X8472253Y-11319722D02*
X8462730Y-11338769D01*
X8653206Y-11243531D02*
X8662730Y-11234008D01*
X8662730Y-11234008D02*
X8681777Y-11224484D01*
X8681777Y-11224484D02*
X8729396Y-11224484D01*
X8729396Y-11224484D02*
X8748444Y-11234008D01*
X8748444Y-11234008D02*
X8757968Y-11243531D01*
X8757968Y-11243531D02*
X8767491Y-11262579D01*
X8767491Y-11262579D02*
X8767491Y-11281627D01*
X8767491Y-11281627D02*
X8757968Y-11310198D01*
X8757968Y-11310198D02*
X8643682Y-11424484D01*
X8643682Y-11424484D02*
X8767491Y-11424484D01*
X9005587Y-11424484D02*
X9005587Y-11224484D01*
X9091301Y-11424484D02*
X9091301Y-11319722D01*
X9091301Y-11319722D02*
X9081777Y-11300674D01*
X9081777Y-11300674D02*
X9062730Y-11291150D01*
X9062730Y-11291150D02*
X9034158Y-11291150D01*
X9034158Y-11291150D02*
X9015111Y-11300674D01*
X9015111Y-11300674D02*
X9005587Y-11310198D01*
X9215111Y-11424484D02*
X9196063Y-11414960D01*
X9196063Y-11414960D02*
X9186539Y-11405436D01*
X9186539Y-11405436D02*
X9177015Y-11386388D01*
X9177015Y-11386388D02*
X9177015Y-11329246D01*
X9177015Y-11329246D02*
X9186539Y-11310198D01*
X9186539Y-11310198D02*
X9196063Y-11300674D01*
X9196063Y-11300674D02*
X9215111Y-11291150D01*
X9215111Y-11291150D02*
X9243682Y-11291150D01*
X9243682Y-11291150D02*
X9262730Y-11300674D01*
X9262730Y-11300674D02*
X9272253Y-11310198D01*
X9272253Y-11310198D02*
X9281777Y-11329246D01*
X9281777Y-11329246D02*
X9281777Y-11386388D01*
X9281777Y-11386388D02*
X9272253Y-11405436D01*
X9272253Y-11405436D02*
X9262730Y-11414960D01*
X9262730Y-11414960D02*
X9243682Y-11424484D01*
X9243682Y-11424484D02*
X9215111Y-11424484D01*
X9396063Y-11424484D02*
X9377015Y-11414960D01*
X9377015Y-11414960D02*
X9367492Y-11395912D01*
X9367492Y-11395912D02*
X9367492Y-11224484D01*
X9548444Y-11414960D02*
X9529396Y-11424484D01*
X9529396Y-11424484D02*
X9491301Y-11424484D01*
X9491301Y-11424484D02*
X9472253Y-11414960D01*
X9472253Y-11414960D02*
X9462730Y-11395912D01*
X9462730Y-11395912D02*
X9462730Y-11319722D01*
X9462730Y-11319722D02*
X9472253Y-11300674D01*
X9472253Y-11300674D02*
X9491301Y-11291150D01*
X9491301Y-11291150D02*
X9529396Y-11291150D01*
X9529396Y-11291150D02*
X9548444Y-11300674D01*
X9548444Y-11300674D02*
X9557968Y-11319722D01*
X9557968Y-11319722D02*
X9557968Y-11338769D01*
X9557968Y-11338769D02*
X9462730Y-11357817D01*
X9634158Y-11414960D02*
X9653206Y-11424484D01*
X9653206Y-11424484D02*
X9691301Y-11424484D01*
X9691301Y-11424484D02*
X9710349Y-11414960D01*
X9710349Y-11414960D02*
X9719873Y-11395912D01*
X9719873Y-11395912D02*
X9719873Y-11386388D01*
X9719873Y-11386388D02*
X9710349Y-11367341D01*
X9710349Y-11367341D02*
X9691301Y-11357817D01*
X9691301Y-11357817D02*
X9662730Y-11357817D01*
X9662730Y-11357817D02*
X9643682Y-11348293D01*
X9643682Y-11348293D02*
X9634158Y-11329246D01*
X9634158Y-11329246D02*
X9634158Y-11319722D01*
X9634158Y-11319722D02*
X9643682Y-11300674D01*
X9643682Y-11300674D02*
X9662730Y-11291150D01*
X9662730Y-11291150D02*
X9691301Y-11291150D01*
X9691301Y-11291150D02*
X9710349Y-11300674D01*
X9786539Y-11500674D02*
X9796063Y-11491150D01*
X9796063Y-11491150D02*
X9815111Y-11462579D01*
X9815111Y-11462579D02*
X9824634Y-11443531D01*
X9824634Y-11443531D02*
X9834158Y-11414960D01*
X9834158Y-11414960D02*
X9843682Y-11367341D01*
X9843682Y-11367341D02*
X9843682Y-11329246D01*
X9843682Y-11329246D02*
X9834158Y-11281627D01*
X9834158Y-11281627D02*
X9824634Y-11253055D01*
X9824634Y-11253055D02*
X9815111Y-11234008D01*
X9815111Y-11234008D02*
X9796063Y-11205436D01*
X9796063Y-11205436D02*
X9786539Y-11195912D01*
D14*
X4797569Y-11653569D02*
X4797569Y-11540431D01*
X4684431Y-11540431D01*
X4684431Y-11653569D01*
X4797569Y-11653569D01*
D11*
X5186539Y-11688484D02*
X5072253Y-11688484D01*
X5129396Y-11688484D02*
X5129396Y-11488484D01*
X5129396Y-11488484D02*
X5110348Y-11517055D01*
X5110348Y-11517055D02*
X5091301Y-11536103D01*
X5091301Y-11536103D02*
X5072253Y-11545627D01*
X5272253Y-11669436D02*
X5281777Y-11678960D01*
X5281777Y-11678960D02*
X5272253Y-11688484D01*
X5272253Y-11688484D02*
X5262729Y-11678960D01*
X5262729Y-11678960D02*
X5272253Y-11669436D01*
X5272253Y-11669436D02*
X5272253Y-11688484D01*
X5453205Y-11488484D02*
X5415110Y-11488484D01*
X5415110Y-11488484D02*
X5396063Y-11498008D01*
X5396063Y-11498008D02*
X5386539Y-11507531D01*
X5386539Y-11507531D02*
X5367491Y-11536103D01*
X5367491Y-11536103D02*
X5357967Y-11574198D01*
X5357967Y-11574198D02*
X5357967Y-11650388D01*
X5357967Y-11650388D02*
X5367491Y-11669436D01*
X5367491Y-11669436D02*
X5377015Y-11678960D01*
X5377015Y-11678960D02*
X5396063Y-11688484D01*
X5396063Y-11688484D02*
X5434158Y-11688484D01*
X5434158Y-11688484D02*
X5453205Y-11678960D01*
X5453205Y-11678960D02*
X5462729Y-11669436D01*
X5462729Y-11669436D02*
X5472253Y-11650388D01*
X5472253Y-11650388D02*
X5472253Y-11602769D01*
X5472253Y-11602769D02*
X5462729Y-11583722D01*
X5462729Y-11583722D02*
X5453205Y-11574198D01*
X5453205Y-11574198D02*
X5434158Y-11564674D01*
X5434158Y-11564674D02*
X5396063Y-11564674D01*
X5396063Y-11564674D02*
X5377015Y-11574198D01*
X5377015Y-11574198D02*
X5367491Y-11583722D01*
X5367491Y-11583722D02*
X5357967Y-11602769D01*
X5596062Y-11488484D02*
X5615110Y-11488484D01*
X5615110Y-11488484D02*
X5634158Y-11498008D01*
X5634158Y-11498008D02*
X5643682Y-11507531D01*
X5643682Y-11507531D02*
X5653205Y-11526579D01*
X5653205Y-11526579D02*
X5662729Y-11564674D01*
X5662729Y-11564674D02*
X5662729Y-11612293D01*
X5662729Y-11612293D02*
X5653205Y-11650388D01*
X5653205Y-11650388D02*
X5643682Y-11669436D01*
X5643682Y-11669436D02*
X5634158Y-11678960D01*
X5634158Y-11678960D02*
X5615110Y-11688484D01*
X5615110Y-11688484D02*
X5596062Y-11688484D01*
X5596062Y-11688484D02*
X5577015Y-11678960D01*
X5577015Y-11678960D02*
X5567491Y-11669436D01*
X5567491Y-11669436D02*
X5557967Y-11650388D01*
X5557967Y-11650388D02*
X5548444Y-11612293D01*
X5548444Y-11612293D02*
X5548444Y-11564674D01*
X5548444Y-11564674D02*
X5557967Y-11526579D01*
X5557967Y-11526579D02*
X5567491Y-11507531D01*
X5567491Y-11507531D02*
X5577015Y-11498008D01*
X5577015Y-11498008D02*
X5596062Y-11488484D01*
X5786539Y-11488484D02*
X5805586Y-11488484D01*
X5805586Y-11488484D02*
X5824634Y-11498008D01*
X5824634Y-11498008D02*
X5834158Y-11507531D01*
X5834158Y-11507531D02*
X5843682Y-11526579D01*
X5843682Y-11526579D02*
X5853205Y-11564674D01*
X5853205Y-11564674D02*
X5853205Y-11612293D01*
X5853205Y-11612293D02*
X5843682Y-11650388D01*
X5843682Y-11650388D02*
X5834158Y-11669436D01*
X5834158Y-11669436D02*
X5824634Y-11678960D01*
X5824634Y-11678960D02*
X5805586Y-11688484D01*
X5805586Y-11688484D02*
X5786539Y-11688484D01*
X5786539Y-11688484D02*
X5767491Y-11678960D01*
X5767491Y-11678960D02*
X5757967Y-11669436D01*
X5757967Y-11669436D02*
X5748443Y-11650388D01*
X5748443Y-11650388D02*
X5738920Y-11612293D01*
X5738920Y-11612293D02*
X5738920Y-11564674D01*
X5738920Y-11564674D02*
X5748443Y-11526579D01*
X5748443Y-11526579D02*
X5757967Y-11507531D01*
X5757967Y-11507531D02*
X5767491Y-11498008D01*
X5767491Y-11498008D02*
X5786539Y-11488484D01*
X5938920Y-11688484D02*
X5938920Y-11555150D01*
X5938920Y-11574198D02*
X5948443Y-11564674D01*
X5948443Y-11564674D02*
X5967491Y-11555150D01*
X5967491Y-11555150D02*
X5996063Y-11555150D01*
X5996063Y-11555150D02*
X6015110Y-11564674D01*
X6015110Y-11564674D02*
X6024634Y-11583722D01*
X6024634Y-11583722D02*
X6024634Y-11688484D01*
X6024634Y-11583722D02*
X6034158Y-11564674D01*
X6034158Y-11564674D02*
X6053205Y-11555150D01*
X6053205Y-11555150D02*
X6081777Y-11555150D01*
X6081777Y-11555150D02*
X6100824Y-11564674D01*
X6100824Y-11564674D02*
X6110348Y-11583722D01*
X6110348Y-11583722D02*
X6110348Y-11688484D01*
X6205586Y-11688484D02*
X6205586Y-11555150D01*
X6205586Y-11574198D02*
X6215110Y-11564674D01*
X6215110Y-11564674D02*
X6234158Y-11555150D01*
X6234158Y-11555150D02*
X6262729Y-11555150D01*
X6262729Y-11555150D02*
X6281777Y-11564674D01*
X6281777Y-11564674D02*
X6291301Y-11583722D01*
X6291301Y-11583722D02*
X6291301Y-11688484D01*
X6291301Y-11583722D02*
X6300824Y-11564674D01*
X6300824Y-11564674D02*
X6319872Y-11555150D01*
X6319872Y-11555150D02*
X6348443Y-11555150D01*
X6348443Y-11555150D02*
X6367491Y-11564674D01*
X6367491Y-11564674D02*
X6377015Y-11583722D01*
X6377015Y-11583722D02*
X6377015Y-11688484D01*
X6767491Y-11478960D02*
X6596063Y-11736103D01*
X7024634Y-11488484D02*
X7043682Y-11488484D01*
X7043682Y-11488484D02*
X7062729Y-11498008D01*
X7062729Y-11498008D02*
X7072253Y-11507531D01*
X7072253Y-11507531D02*
X7081777Y-11526579D01*
X7081777Y-11526579D02*
X7091301Y-11564674D01*
X7091301Y-11564674D02*
X7091301Y-11612293D01*
X7091301Y-11612293D02*
X7081777Y-11650388D01*
X7081777Y-11650388D02*
X7072253Y-11669436D01*
X7072253Y-11669436D02*
X7062729Y-11678960D01*
X7062729Y-11678960D02*
X7043682Y-11688484D01*
X7043682Y-11688484D02*
X7024634Y-11688484D01*
X7024634Y-11688484D02*
X7005586Y-11678960D01*
X7005586Y-11678960D02*
X6996063Y-11669436D01*
X6996063Y-11669436D02*
X6986539Y-11650388D01*
X6986539Y-11650388D02*
X6977015Y-11612293D01*
X6977015Y-11612293D02*
X6977015Y-11564674D01*
X6977015Y-11564674D02*
X6986539Y-11526579D01*
X6986539Y-11526579D02*
X6996063Y-11507531D01*
X6996063Y-11507531D02*
X7005586Y-11498008D01*
X7005586Y-11498008D02*
X7024634Y-11488484D01*
X7177015Y-11669436D02*
X7186539Y-11678960D01*
X7186539Y-11678960D02*
X7177015Y-11688484D01*
X7177015Y-11688484D02*
X7167491Y-11678960D01*
X7167491Y-11678960D02*
X7177015Y-11669436D01*
X7177015Y-11669436D02*
X7177015Y-11688484D01*
X7310348Y-11488484D02*
X7329396Y-11488484D01*
X7329396Y-11488484D02*
X7348444Y-11498008D01*
X7348444Y-11498008D02*
X7357967Y-11507531D01*
X7357967Y-11507531D02*
X7367491Y-11526579D01*
X7367491Y-11526579D02*
X7377015Y-11564674D01*
X7377015Y-11564674D02*
X7377015Y-11612293D01*
X7377015Y-11612293D02*
X7367491Y-11650388D01*
X7367491Y-11650388D02*
X7357967Y-11669436D01*
X7357967Y-11669436D02*
X7348444Y-11678960D01*
X7348444Y-11678960D02*
X7329396Y-11688484D01*
X7329396Y-11688484D02*
X7310348Y-11688484D01*
X7310348Y-11688484D02*
X7291301Y-11678960D01*
X7291301Y-11678960D02*
X7281777Y-11669436D01*
X7281777Y-11669436D02*
X7272253Y-11650388D01*
X7272253Y-11650388D02*
X7262729Y-11612293D01*
X7262729Y-11612293D02*
X7262729Y-11564674D01*
X7262729Y-11564674D02*
X7272253Y-11526579D01*
X7272253Y-11526579D02*
X7281777Y-11507531D01*
X7281777Y-11507531D02*
X7291301Y-11498008D01*
X7291301Y-11498008D02*
X7310348Y-11488484D01*
X7548444Y-11488484D02*
X7510348Y-11488484D01*
X7510348Y-11488484D02*
X7491301Y-11498008D01*
X7491301Y-11498008D02*
X7481777Y-11507531D01*
X7481777Y-11507531D02*
X7462729Y-11536103D01*
X7462729Y-11536103D02*
X7453206Y-11574198D01*
X7453206Y-11574198D02*
X7453206Y-11650388D01*
X7453206Y-11650388D02*
X7462729Y-11669436D01*
X7462729Y-11669436D02*
X7472253Y-11678960D01*
X7472253Y-11678960D02*
X7491301Y-11688484D01*
X7491301Y-11688484D02*
X7529396Y-11688484D01*
X7529396Y-11688484D02*
X7548444Y-11678960D01*
X7548444Y-11678960D02*
X7557967Y-11669436D01*
X7557967Y-11669436D02*
X7567491Y-11650388D01*
X7567491Y-11650388D02*
X7567491Y-11602769D01*
X7567491Y-11602769D02*
X7557967Y-11583722D01*
X7557967Y-11583722D02*
X7548444Y-11574198D01*
X7548444Y-11574198D02*
X7529396Y-11564674D01*
X7529396Y-11564674D02*
X7491301Y-11564674D01*
X7491301Y-11564674D02*
X7472253Y-11574198D01*
X7472253Y-11574198D02*
X7462729Y-11583722D01*
X7462729Y-11583722D02*
X7453206Y-11602769D01*
X7634158Y-11488484D02*
X7757967Y-11488484D01*
X7757967Y-11488484D02*
X7691301Y-11564674D01*
X7691301Y-11564674D02*
X7719872Y-11564674D01*
X7719872Y-11564674D02*
X7738920Y-11574198D01*
X7738920Y-11574198D02*
X7748444Y-11583722D01*
X7748444Y-11583722D02*
X7757967Y-11602769D01*
X7757967Y-11602769D02*
X7757967Y-11650388D01*
X7757967Y-11650388D02*
X7748444Y-11669436D01*
X7748444Y-11669436D02*
X7738920Y-11678960D01*
X7738920Y-11678960D02*
X7719872Y-11688484D01*
X7719872Y-11688484D02*
X7662729Y-11688484D01*
X7662729Y-11688484D02*
X7643682Y-11678960D01*
X7643682Y-11678960D02*
X7634158Y-11669436D01*
X7881777Y-11488484D02*
X7900825Y-11488484D01*
X7900825Y-11488484D02*
X7919872Y-11498008D01*
X7919872Y-11498008D02*
X7929396Y-11507531D01*
X7929396Y-11507531D02*
X7938920Y-11526579D01*
X7938920Y-11526579D02*
X7948444Y-11564674D01*
X7948444Y-11564674D02*
X7948444Y-11612293D01*
X7948444Y-11612293D02*
X7938920Y-11650388D01*
X7938920Y-11650388D02*
X7929396Y-11669436D01*
X7929396Y-11669436D02*
X7919872Y-11678960D01*
X7919872Y-11678960D02*
X7900825Y-11688484D01*
X7900825Y-11688484D02*
X7881777Y-11688484D01*
X7881777Y-11688484D02*
X7862729Y-11678960D01*
X7862729Y-11678960D02*
X7853206Y-11669436D01*
X7853206Y-11669436D02*
X7843682Y-11650388D01*
X7843682Y-11650388D02*
X7834158Y-11612293D01*
X7834158Y-11612293D02*
X7834158Y-11564674D01*
X7834158Y-11564674D02*
X7843682Y-11526579D01*
X7843682Y-11526579D02*
X7853206Y-11507531D01*
X7853206Y-11507531D02*
X7862729Y-11498008D01*
X7862729Y-11498008D02*
X7881777Y-11488484D01*
X8024634Y-11488484D02*
X8024634Y-11526579D01*
X8100825Y-11488484D02*
X8100825Y-11526579D01*
X8396063Y-11764674D02*
X8386539Y-11755150D01*
X8386539Y-11755150D02*
X8367491Y-11726579D01*
X8367491Y-11726579D02*
X8357968Y-11707531D01*
X8357968Y-11707531D02*
X8348444Y-11678960D01*
X8348444Y-11678960D02*
X8338920Y-11631341D01*
X8338920Y-11631341D02*
X8338920Y-11593246D01*
X8338920Y-11593246D02*
X8348444Y-11545627D01*
X8348444Y-11545627D02*
X8357968Y-11517055D01*
X8357968Y-11517055D02*
X8367491Y-11498008D01*
X8367491Y-11498008D02*
X8386539Y-11469436D01*
X8386539Y-11469436D02*
X8396063Y-11459912D01*
X8462730Y-11507531D02*
X8472253Y-11498008D01*
X8472253Y-11498008D02*
X8491301Y-11488484D01*
X8491301Y-11488484D02*
X8538920Y-11488484D01*
X8538920Y-11488484D02*
X8557968Y-11498008D01*
X8557968Y-11498008D02*
X8567491Y-11507531D01*
X8567491Y-11507531D02*
X8577015Y-11526579D01*
X8577015Y-11526579D02*
X8577015Y-11545627D01*
X8577015Y-11545627D02*
X8567491Y-11574198D01*
X8567491Y-11574198D02*
X8453206Y-11688484D01*
X8453206Y-11688484D02*
X8577015Y-11688484D01*
X8815111Y-11688484D02*
X8815111Y-11488484D01*
X8900825Y-11688484D02*
X8900825Y-11583722D01*
X8900825Y-11583722D02*
X8891301Y-11564674D01*
X8891301Y-11564674D02*
X8872253Y-11555150D01*
X8872253Y-11555150D02*
X8843682Y-11555150D01*
X8843682Y-11555150D02*
X8824634Y-11564674D01*
X8824634Y-11564674D02*
X8815111Y-11574198D01*
X9024634Y-11688484D02*
X9005587Y-11678960D01*
X9005587Y-11678960D02*
X8996063Y-11669436D01*
X8996063Y-11669436D02*
X8986539Y-11650388D01*
X8986539Y-11650388D02*
X8986539Y-11593246D01*
X8986539Y-11593246D02*
X8996063Y-11574198D01*
X8996063Y-11574198D02*
X9005587Y-11564674D01*
X9005587Y-11564674D02*
X9024634Y-11555150D01*
X9024634Y-11555150D02*
X9053206Y-11555150D01*
X9053206Y-11555150D02*
X9072253Y-11564674D01*
X9072253Y-11564674D02*
X9081777Y-11574198D01*
X9081777Y-11574198D02*
X9091301Y-11593246D01*
X9091301Y-11593246D02*
X9091301Y-11650388D01*
X9091301Y-11650388D02*
X9081777Y-11669436D01*
X9081777Y-11669436D02*
X9072253Y-11678960D01*
X9072253Y-11678960D02*
X9053206Y-11688484D01*
X9053206Y-11688484D02*
X9024634Y-11688484D01*
X9205587Y-11688484D02*
X9186539Y-11678960D01*
X9186539Y-11678960D02*
X9177015Y-11659912D01*
X9177015Y-11659912D02*
X9177015Y-11488484D01*
X9357968Y-11678960D02*
X9338920Y-11688484D01*
X9338920Y-11688484D02*
X9300825Y-11688484D01*
X9300825Y-11688484D02*
X9281777Y-11678960D01*
X9281777Y-11678960D02*
X9272253Y-11659912D01*
X9272253Y-11659912D02*
X9272253Y-11583722D01*
X9272253Y-11583722D02*
X9281777Y-11564674D01*
X9281777Y-11564674D02*
X9300825Y-11555150D01*
X9300825Y-11555150D02*
X9338920Y-11555150D01*
X9338920Y-11555150D02*
X9357968Y-11564674D01*
X9357968Y-11564674D02*
X9367492Y-11583722D01*
X9367492Y-11583722D02*
X9367492Y-11602769D01*
X9367492Y-11602769D02*
X9272253Y-11621817D01*
X9443682Y-11678960D02*
X9462730Y-11688484D01*
X9462730Y-11688484D02*
X9500825Y-11688484D01*
X9500825Y-11688484D02*
X9519873Y-11678960D01*
X9519873Y-11678960D02*
X9529396Y-11659912D01*
X9529396Y-11659912D02*
X9529396Y-11650388D01*
X9529396Y-11650388D02*
X9519873Y-11631341D01*
X9519873Y-11631341D02*
X9500825Y-11621817D01*
X9500825Y-11621817D02*
X9472253Y-11621817D01*
X9472253Y-11621817D02*
X9453206Y-11612293D01*
X9453206Y-11612293D02*
X9443682Y-11593246D01*
X9443682Y-11593246D02*
X9443682Y-11583722D01*
X9443682Y-11583722D02*
X9453206Y-11564674D01*
X9453206Y-11564674D02*
X9472253Y-11555150D01*
X9472253Y-11555150D02*
X9500825Y-11555150D01*
X9500825Y-11555150D02*
X9519873Y-11564674D01*
X9596063Y-11764674D02*
X9605587Y-11755150D01*
X9605587Y-11755150D02*
X9624634Y-11726579D01*
X9624634Y-11726579D02*
X9634158Y-11707531D01*
X9634158Y-11707531D02*
X9643682Y-11678960D01*
X9643682Y-11678960D02*
X9653206Y-11631341D01*
X9653206Y-11631341D02*
X9653206Y-11593246D01*
X9653206Y-11593246D02*
X9643682Y-11545627D01*
X9643682Y-11545627D02*
X9634158Y-11517055D01*
X9634158Y-11517055D02*
X9624634Y-11498008D01*
X9624634Y-11498008D02*
X9605587Y-11469436D01*
X9605587Y-11469436D02*
X9596063Y-11459912D01*
X4721000Y-11977000D02*
X4821000Y-11877000D01*
X4721000Y-11777000D01*
X4621000Y-11877000D01*
X4721000Y-11977000D01*
X5072253Y-11787531D02*
X5081777Y-11778008D01*
X5081777Y-11778008D02*
X5100824Y-11768484D01*
X5100824Y-11768484D02*
X5148444Y-11768484D01*
X5148444Y-11768484D02*
X5167491Y-11778008D01*
X5167491Y-11778008D02*
X5177015Y-11787531D01*
X5177015Y-11787531D02*
X5186539Y-11806579D01*
X5186539Y-11806579D02*
X5186539Y-11825627D01*
X5186539Y-11825627D02*
X5177015Y-11854198D01*
X5177015Y-11854198D02*
X5062729Y-11968484D01*
X5062729Y-11968484D02*
X5186539Y-11968484D01*
X5272253Y-11949436D02*
X5281777Y-11958960D01*
X5281777Y-11958960D02*
X5272253Y-11968484D01*
X5272253Y-11968484D02*
X5262729Y-11958960D01*
X5262729Y-11958960D02*
X5272253Y-11949436D01*
X5272253Y-11949436D02*
X5272253Y-11968484D01*
X5357967Y-11787531D02*
X5367491Y-11778008D01*
X5367491Y-11778008D02*
X5386539Y-11768484D01*
X5386539Y-11768484D02*
X5434158Y-11768484D01*
X5434158Y-11768484D02*
X5453205Y-11778008D01*
X5453205Y-11778008D02*
X5462729Y-11787531D01*
X5462729Y-11787531D02*
X5472253Y-11806579D01*
X5472253Y-11806579D02*
X5472253Y-11825627D01*
X5472253Y-11825627D02*
X5462729Y-11854198D01*
X5462729Y-11854198D02*
X5348444Y-11968484D01*
X5348444Y-11968484D02*
X5472253Y-11968484D01*
X5596062Y-11768484D02*
X5615110Y-11768484D01*
X5615110Y-11768484D02*
X5634158Y-11778008D01*
X5634158Y-11778008D02*
X5643682Y-11787531D01*
X5643682Y-11787531D02*
X5653205Y-11806579D01*
X5653205Y-11806579D02*
X5662729Y-11844674D01*
X5662729Y-11844674D02*
X5662729Y-11892293D01*
X5662729Y-11892293D02*
X5653205Y-11930388D01*
X5653205Y-11930388D02*
X5643682Y-11949436D01*
X5643682Y-11949436D02*
X5634158Y-11958960D01*
X5634158Y-11958960D02*
X5615110Y-11968484D01*
X5615110Y-11968484D02*
X5596062Y-11968484D01*
X5596062Y-11968484D02*
X5577015Y-11958960D01*
X5577015Y-11958960D02*
X5567491Y-11949436D01*
X5567491Y-11949436D02*
X5557967Y-11930388D01*
X5557967Y-11930388D02*
X5548444Y-11892293D01*
X5548444Y-11892293D02*
X5548444Y-11844674D01*
X5548444Y-11844674D02*
X5557967Y-11806579D01*
X5557967Y-11806579D02*
X5567491Y-11787531D01*
X5567491Y-11787531D02*
X5577015Y-11778008D01*
X5577015Y-11778008D02*
X5596062Y-11768484D01*
X5786539Y-11768484D02*
X5805586Y-11768484D01*
X5805586Y-11768484D02*
X5824634Y-11778008D01*
X5824634Y-11778008D02*
X5834158Y-11787531D01*
X5834158Y-11787531D02*
X5843682Y-11806579D01*
X5843682Y-11806579D02*
X5853205Y-11844674D01*
X5853205Y-11844674D02*
X5853205Y-11892293D01*
X5853205Y-11892293D02*
X5843682Y-11930388D01*
X5843682Y-11930388D02*
X5834158Y-11949436D01*
X5834158Y-11949436D02*
X5824634Y-11958960D01*
X5824634Y-11958960D02*
X5805586Y-11968484D01*
X5805586Y-11968484D02*
X5786539Y-11968484D01*
X5786539Y-11968484D02*
X5767491Y-11958960D01*
X5767491Y-11958960D02*
X5757967Y-11949436D01*
X5757967Y-11949436D02*
X5748443Y-11930388D01*
X5748443Y-11930388D02*
X5738920Y-11892293D01*
X5738920Y-11892293D02*
X5738920Y-11844674D01*
X5738920Y-11844674D02*
X5748443Y-11806579D01*
X5748443Y-11806579D02*
X5757967Y-11787531D01*
X5757967Y-11787531D02*
X5767491Y-11778008D01*
X5767491Y-11778008D02*
X5786539Y-11768484D01*
X5938920Y-11968484D02*
X5938920Y-11835150D01*
X5938920Y-11854198D02*
X5948443Y-11844674D01*
X5948443Y-11844674D02*
X5967491Y-11835150D01*
X5967491Y-11835150D02*
X5996063Y-11835150D01*
X5996063Y-11835150D02*
X6015110Y-11844674D01*
X6015110Y-11844674D02*
X6024634Y-11863722D01*
X6024634Y-11863722D02*
X6024634Y-11968484D01*
X6024634Y-11863722D02*
X6034158Y-11844674D01*
X6034158Y-11844674D02*
X6053205Y-11835150D01*
X6053205Y-11835150D02*
X6081777Y-11835150D01*
X6081777Y-11835150D02*
X6100824Y-11844674D01*
X6100824Y-11844674D02*
X6110348Y-11863722D01*
X6110348Y-11863722D02*
X6110348Y-11968484D01*
X6205586Y-11968484D02*
X6205586Y-11835150D01*
X6205586Y-11854198D02*
X6215110Y-11844674D01*
X6215110Y-11844674D02*
X6234158Y-11835150D01*
X6234158Y-11835150D02*
X6262729Y-11835150D01*
X6262729Y-11835150D02*
X6281777Y-11844674D01*
X6281777Y-11844674D02*
X6291301Y-11863722D01*
X6291301Y-11863722D02*
X6291301Y-11968484D01*
X6291301Y-11863722D02*
X6300824Y-11844674D01*
X6300824Y-11844674D02*
X6319872Y-11835150D01*
X6319872Y-11835150D02*
X6348443Y-11835150D01*
X6348443Y-11835150D02*
X6367491Y-11844674D01*
X6367491Y-11844674D02*
X6377015Y-11863722D01*
X6377015Y-11863722D02*
X6377015Y-11968484D01*
X6767491Y-11758960D02*
X6596063Y-12016103D01*
X7024634Y-11768484D02*
X7043682Y-11768484D01*
X7043682Y-11768484D02*
X7062729Y-11778008D01*
X7062729Y-11778008D02*
X7072253Y-11787531D01*
X7072253Y-11787531D02*
X7081777Y-11806579D01*
X7081777Y-11806579D02*
X7091301Y-11844674D01*
X7091301Y-11844674D02*
X7091301Y-11892293D01*
X7091301Y-11892293D02*
X7081777Y-11930388D01*
X7081777Y-11930388D02*
X7072253Y-11949436D01*
X7072253Y-11949436D02*
X7062729Y-11958960D01*
X7062729Y-11958960D02*
X7043682Y-11968484D01*
X7043682Y-11968484D02*
X7024634Y-11968484D01*
X7024634Y-11968484D02*
X7005586Y-11958960D01*
X7005586Y-11958960D02*
X6996063Y-11949436D01*
X6996063Y-11949436D02*
X6986539Y-11930388D01*
X6986539Y-11930388D02*
X6977015Y-11892293D01*
X6977015Y-11892293D02*
X6977015Y-11844674D01*
X6977015Y-11844674D02*
X6986539Y-11806579D01*
X6986539Y-11806579D02*
X6996063Y-11787531D01*
X6996063Y-11787531D02*
X7005586Y-11778008D01*
X7005586Y-11778008D02*
X7024634Y-11768484D01*
X7177015Y-11949436D02*
X7186539Y-11958960D01*
X7186539Y-11958960D02*
X7177015Y-11968484D01*
X7177015Y-11968484D02*
X7167491Y-11958960D01*
X7167491Y-11958960D02*
X7177015Y-11949436D01*
X7177015Y-11949436D02*
X7177015Y-11968484D01*
X7310348Y-11768484D02*
X7329396Y-11768484D01*
X7329396Y-11768484D02*
X7348444Y-11778008D01*
X7348444Y-11778008D02*
X7357967Y-11787531D01*
X7357967Y-11787531D02*
X7367491Y-11806579D01*
X7367491Y-11806579D02*
X7377015Y-11844674D01*
X7377015Y-11844674D02*
X7377015Y-11892293D01*
X7377015Y-11892293D02*
X7367491Y-11930388D01*
X7367491Y-11930388D02*
X7357967Y-11949436D01*
X7357967Y-11949436D02*
X7348444Y-11958960D01*
X7348444Y-11958960D02*
X7329396Y-11968484D01*
X7329396Y-11968484D02*
X7310348Y-11968484D01*
X7310348Y-11968484D02*
X7291301Y-11958960D01*
X7291301Y-11958960D02*
X7281777Y-11949436D01*
X7281777Y-11949436D02*
X7272253Y-11930388D01*
X7272253Y-11930388D02*
X7262729Y-11892293D01*
X7262729Y-11892293D02*
X7262729Y-11844674D01*
X7262729Y-11844674D02*
X7272253Y-11806579D01*
X7272253Y-11806579D02*
X7281777Y-11787531D01*
X7281777Y-11787531D02*
X7291301Y-11778008D01*
X7291301Y-11778008D02*
X7310348Y-11768484D01*
X7491301Y-11854198D02*
X7472253Y-11844674D01*
X7472253Y-11844674D02*
X7462729Y-11835150D01*
X7462729Y-11835150D02*
X7453206Y-11816103D01*
X7453206Y-11816103D02*
X7453206Y-11806579D01*
X7453206Y-11806579D02*
X7462729Y-11787531D01*
X7462729Y-11787531D02*
X7472253Y-11778008D01*
X7472253Y-11778008D02*
X7491301Y-11768484D01*
X7491301Y-11768484D02*
X7529396Y-11768484D01*
X7529396Y-11768484D02*
X7548444Y-11778008D01*
X7548444Y-11778008D02*
X7557967Y-11787531D01*
X7557967Y-11787531D02*
X7567491Y-11806579D01*
X7567491Y-11806579D02*
X7567491Y-11816103D01*
X7567491Y-11816103D02*
X7557967Y-11835150D01*
X7557967Y-11835150D02*
X7548444Y-11844674D01*
X7548444Y-11844674D02*
X7529396Y-11854198D01*
X7529396Y-11854198D02*
X7491301Y-11854198D01*
X7491301Y-11854198D02*
X7472253Y-11863722D01*
X7472253Y-11863722D02*
X7462729Y-11873246D01*
X7462729Y-11873246D02*
X7453206Y-11892293D01*
X7453206Y-11892293D02*
X7453206Y-11930388D01*
X7453206Y-11930388D02*
X7462729Y-11949436D01*
X7462729Y-11949436D02*
X7472253Y-11958960D01*
X7472253Y-11958960D02*
X7491301Y-11968484D01*
X7491301Y-11968484D02*
X7529396Y-11968484D01*
X7529396Y-11968484D02*
X7548444Y-11958960D01*
X7548444Y-11958960D02*
X7557967Y-11949436D01*
X7557967Y-11949436D02*
X7567491Y-11930388D01*
X7567491Y-11930388D02*
X7567491Y-11892293D01*
X7567491Y-11892293D02*
X7557967Y-11873246D01*
X7557967Y-11873246D02*
X7548444Y-11863722D01*
X7548444Y-11863722D02*
X7529396Y-11854198D01*
X7738920Y-11768484D02*
X7700825Y-11768484D01*
X7700825Y-11768484D02*
X7681777Y-11778008D01*
X7681777Y-11778008D02*
X7672253Y-11787531D01*
X7672253Y-11787531D02*
X7653206Y-11816103D01*
X7653206Y-11816103D02*
X7643682Y-11854198D01*
X7643682Y-11854198D02*
X7643682Y-11930388D01*
X7643682Y-11930388D02*
X7653206Y-11949436D01*
X7653206Y-11949436D02*
X7662729Y-11958960D01*
X7662729Y-11958960D02*
X7681777Y-11968484D01*
X7681777Y-11968484D02*
X7719872Y-11968484D01*
X7719872Y-11968484D02*
X7738920Y-11958960D01*
X7738920Y-11958960D02*
X7748444Y-11949436D01*
X7748444Y-11949436D02*
X7757967Y-11930388D01*
X7757967Y-11930388D02*
X7757967Y-11882769D01*
X7757967Y-11882769D02*
X7748444Y-11863722D01*
X7748444Y-11863722D02*
X7738920Y-11854198D01*
X7738920Y-11854198D02*
X7719872Y-11844674D01*
X7719872Y-11844674D02*
X7681777Y-11844674D01*
X7681777Y-11844674D02*
X7662729Y-11854198D01*
X7662729Y-11854198D02*
X7653206Y-11863722D01*
X7653206Y-11863722D02*
X7643682Y-11882769D01*
X7929396Y-11768484D02*
X7891301Y-11768484D01*
X7891301Y-11768484D02*
X7872253Y-11778008D01*
X7872253Y-11778008D02*
X7862729Y-11787531D01*
X7862729Y-11787531D02*
X7843682Y-11816103D01*
X7843682Y-11816103D02*
X7834158Y-11854198D01*
X7834158Y-11854198D02*
X7834158Y-11930388D01*
X7834158Y-11930388D02*
X7843682Y-11949436D01*
X7843682Y-11949436D02*
X7853206Y-11958960D01*
X7853206Y-11958960D02*
X7872253Y-11968484D01*
X7872253Y-11968484D02*
X7910348Y-11968484D01*
X7910348Y-11968484D02*
X7929396Y-11958960D01*
X7929396Y-11958960D02*
X7938920Y-11949436D01*
X7938920Y-11949436D02*
X7948444Y-11930388D01*
X7948444Y-11930388D02*
X7948444Y-11882769D01*
X7948444Y-11882769D02*
X7938920Y-11863722D01*
X7938920Y-11863722D02*
X7929396Y-11854198D01*
X7929396Y-11854198D02*
X7910348Y-11844674D01*
X7910348Y-11844674D02*
X7872253Y-11844674D01*
X7872253Y-11844674D02*
X7853206Y-11854198D01*
X7853206Y-11854198D02*
X7843682Y-11863722D01*
X7843682Y-11863722D02*
X7834158Y-11882769D01*
X8024634Y-11768484D02*
X8024634Y-11806579D01*
X8100825Y-11768484D02*
X8100825Y-11806579D01*
X8396063Y-12044674D02*
X8386539Y-12035150D01*
X8386539Y-12035150D02*
X8367491Y-12006579D01*
X8367491Y-12006579D02*
X8357968Y-11987531D01*
X8357968Y-11987531D02*
X8348444Y-11958960D01*
X8348444Y-11958960D02*
X8338920Y-11911341D01*
X8338920Y-11911341D02*
X8338920Y-11873246D01*
X8338920Y-11873246D02*
X8348444Y-11825627D01*
X8348444Y-11825627D02*
X8357968Y-11797055D01*
X8357968Y-11797055D02*
X8367491Y-11778008D01*
X8367491Y-11778008D02*
X8386539Y-11749436D01*
X8386539Y-11749436D02*
X8396063Y-11739912D01*
X8557968Y-11835150D02*
X8557968Y-11968484D01*
X8510349Y-11758960D02*
X8462730Y-11901817D01*
X8462730Y-11901817D02*
X8586539Y-11901817D01*
X8815111Y-11968484D02*
X8815111Y-11768484D01*
X8900825Y-11968484D02*
X8900825Y-11863722D01*
X8900825Y-11863722D02*
X8891301Y-11844674D01*
X8891301Y-11844674D02*
X8872253Y-11835150D01*
X8872253Y-11835150D02*
X8843682Y-11835150D01*
X8843682Y-11835150D02*
X8824634Y-11844674D01*
X8824634Y-11844674D02*
X8815111Y-11854198D01*
X9024634Y-11968484D02*
X9005587Y-11958960D01*
X9005587Y-11958960D02*
X8996063Y-11949436D01*
X8996063Y-11949436D02*
X8986539Y-11930388D01*
X8986539Y-11930388D02*
X8986539Y-11873246D01*
X8986539Y-11873246D02*
X8996063Y-11854198D01*
X8996063Y-11854198D02*
X9005587Y-11844674D01*
X9005587Y-11844674D02*
X9024634Y-11835150D01*
X9024634Y-11835150D02*
X9053206Y-11835150D01*
X9053206Y-11835150D02*
X9072253Y-11844674D01*
X9072253Y-11844674D02*
X9081777Y-11854198D01*
X9081777Y-11854198D02*
X9091301Y-11873246D01*
X9091301Y-11873246D02*
X9091301Y-11930388D01*
X9091301Y-11930388D02*
X9081777Y-11949436D01*
X9081777Y-11949436D02*
X9072253Y-11958960D01*
X9072253Y-11958960D02*
X9053206Y-11968484D01*
X9053206Y-11968484D02*
X9024634Y-11968484D01*
X9205587Y-11968484D02*
X9186539Y-11958960D01*
X9186539Y-11958960D02*
X9177015Y-11939912D01*
X9177015Y-11939912D02*
X9177015Y-11768484D01*
X9357968Y-11958960D02*
X9338920Y-11968484D01*
X9338920Y-11968484D02*
X9300825Y-11968484D01*
X9300825Y-11968484D02*
X9281777Y-11958960D01*
X9281777Y-11958960D02*
X9272253Y-11939912D01*
X9272253Y-11939912D02*
X9272253Y-11863722D01*
X9272253Y-11863722D02*
X9281777Y-11844674D01*
X9281777Y-11844674D02*
X9300825Y-11835150D01*
X9300825Y-11835150D02*
X9338920Y-11835150D01*
X9338920Y-11835150D02*
X9357968Y-11844674D01*
X9357968Y-11844674D02*
X9367492Y-11863722D01*
X9367492Y-11863722D02*
X9367492Y-11882769D01*
X9367492Y-11882769D02*
X9272253Y-11901817D01*
X9443682Y-11958960D02*
X9462730Y-11968484D01*
X9462730Y-11968484D02*
X9500825Y-11968484D01*
X9500825Y-11968484D02*
X9519873Y-11958960D01*
X9519873Y-11958960D02*
X9529396Y-11939912D01*
X9529396Y-11939912D02*
X9529396Y-11930388D01*
X9529396Y-11930388D02*
X9519873Y-11911341D01*
X9519873Y-11911341D02*
X9500825Y-11901817D01*
X9500825Y-11901817D02*
X9472253Y-11901817D01*
X9472253Y-11901817D02*
X9453206Y-11892293D01*
X9453206Y-11892293D02*
X9443682Y-11873246D01*
X9443682Y-11873246D02*
X9443682Y-11863722D01*
X9443682Y-11863722D02*
X9453206Y-11844674D01*
X9453206Y-11844674D02*
X9472253Y-11835150D01*
X9472253Y-11835150D02*
X9500825Y-11835150D01*
X9500825Y-11835150D02*
X9519873Y-11844674D01*
X9596063Y-12044674D02*
X9605587Y-12035150D01*
X9605587Y-12035150D02*
X9624634Y-12006579D01*
X9624634Y-12006579D02*
X9634158Y-11987531D01*
X9634158Y-11987531D02*
X9643682Y-11958960D01*
X9643682Y-11958960D02*
X9653206Y-11911341D01*
X9653206Y-11911341D02*
X9653206Y-11873246D01*
X9653206Y-11873246D02*
X9643682Y-11825627D01*
X9643682Y-11825627D02*
X9634158Y-11797055D01*
X9634158Y-11797055D02*
X9624634Y-11778008D01*
X9624634Y-11778008D02*
X9605587Y-11749436D01*
X9605587Y-11749436D02*
X9596063Y-11739912D01*
M02*
