M48
; DRILL file {KiCad 7.0.5} date Tue Oct 17 21:20:00 2023
; FORMAT={-:-/ absolute / metric / decimal}
; #@! TF.CreationDate,2023-10-17T21:20:00+10:00
; #@! TF.GenerationSoftware,Kicad,Pcbnew,7.0.5
; #@! TF.FileFunction,Plated,1,2,PTH
FMAT,2
METRIC
; #@! TA.AperFunction,Plated,PTH,ComponentDrill
T1C0.800
; #@! TA.AperFunction,Plated,PTH,ComponentDrill
T2C0.900
; #@! TA.AperFunction,Plated,PTH,ComponentDrill
T3C1.000
; #@! TA.AperFunction,Plated,PTH,ComponentDrill
T4C1.600
; #@! TA.AperFunction,Plated,PTH,ComponentDrill
T5C2.200
%
G90
G05
T1
X53.34Y-55.88
X53.34Y-66.04
X53.34Y-68.58
X53.34Y-78.74
X53.34Y-81.28
X53.34Y-91.44
X55.88Y-43.18
X55.88Y-96.52
X66.04Y-43.18
X66.04Y-96.52
T2
X56.78Y-48.98
X58.42Y-63.5
X58.42Y-73.66
X58.42Y-86.36
X59.32Y-48.98
X60.96Y-63.5
X60.96Y-73.66
X60.96Y-86.36
X68.58Y-96.52
X69.85Y-96.52
X71.12Y-96.52
X72.39Y-96.52
T3
X66.04Y-53.34
X68.58Y-53.34
X68.58Y-60.96
X68.58Y-63.5
X68.58Y-66.04
X68.58Y-71.12
X68.58Y-73.66
X68.58Y-76.2
X68.58Y-83.82
X68.58Y-86.36
X68.58Y-88.9
X76.87Y-60.96
X76.87Y-63.5
X76.87Y-66.04
X76.87Y-68.58
X76.87Y-71.12
X76.87Y-73.66
X76.87Y-76.2
X76.87Y-78.74
X76.87Y-81.28
X76.87Y-83.82
X76.87Y-86.36
X76.87Y-88.9
X76.87Y-91.44
X76.87Y-93.98
X76.87Y-96.52
X81.28Y-53.34
X83.82Y-53.34
X86.36Y-53.34
X88.9Y-53.34
X92.11Y-60.96
X92.11Y-63.5
X92.11Y-66.04
X92.11Y-68.58
X92.11Y-71.12
X92.11Y-73.66
X92.11Y-76.2
X92.11Y-78.74
X92.11Y-81.28
X92.11Y-83.82
X92.11Y-86.36
X92.11Y-88.9
X92.11Y-91.44
X92.11Y-93.98
X92.11Y-96.52
X101.6Y-48.26
X101.6Y-50.8
X101.6Y-53.34
X101.6Y-55.88
X101.6Y-58.42
X101.6Y-60.96
X101.6Y-63.5
X101.6Y-66.04
X101.6Y-71.12
X101.6Y-73.66
X101.6Y-76.2
X101.6Y-78.74
X101.6Y-81.28
X101.6Y-83.82
X101.6Y-86.36
X101.6Y-88.9
X101.6Y-91.44
T4
X76.2Y-45.72
X91.44Y-45.72
T5
X50.8Y-43.18
X50.8Y-99.06
X106.68Y-43.18
X106.68Y-99.06
T0
M30
