%TF.GenerationSoftware,KiCad,Pcbnew,7.0.5*%
%TF.CreationDate,2023-10-17T21:19:38+10:00*%
%TF.ProjectId,Test Stand,54657374-2053-4746-916e-642e6b696361,rev?*%
%TF.SameCoordinates,Original*%
%TF.FileFunction,Copper,L2,Bot*%
%TF.FilePolarity,Positive*%
%FSLAX46Y46*%
G04 Gerber Fmt 4.6, Leading zero omitted, Abs format (unit mm)*
G04 Created by KiCad (PCBNEW 7.0.5) date 2023-10-17 21:19:38*
%MOMM*%
%LPD*%
G01*
G04 APERTURE LIST*
%TA.AperFunction,ComponentPad*%
%ADD10C,1.600000*%
%TD*%
%TA.AperFunction,ComponentPad*%
%ADD11O,1.600000X1.600000*%
%TD*%
%TA.AperFunction,ComponentPad*%
%ADD12C,1.800000*%
%TD*%
%TA.AperFunction,ComponentPad*%
%ADD13R,1.800000X1.800000*%
%TD*%
%TA.AperFunction,ComponentPad*%
%ADD14R,3.200000X3.200000*%
%TD*%
%TA.AperFunction,ComponentPad*%
%ADD15O,3.200000X3.200000*%
%TD*%
%TA.AperFunction,ComponentPad*%
%ADD16R,1.700000X1.700000*%
%TD*%
%TA.AperFunction,ComponentPad*%
%ADD17O,1.700000X1.700000*%
%TD*%
%TA.AperFunction,ComponentPad*%
%ADD18C,3.800000*%
%TD*%
%TA.AperFunction,ComponentPad*%
%ADD19R,1.070000X1.800000*%
%TD*%
%TA.AperFunction,ComponentPad*%
%ADD20O,1.070000X1.800000*%
%TD*%
%TA.AperFunction,ComponentPad*%
%ADD21R,1.600000X1.600000*%
%TD*%
%TA.AperFunction,Conductor*%
%ADD22C,0.250000*%
%TD*%
G04 APERTURE END LIST*
D10*
X55880000Y-43180000D03*
D11*
X66040000Y-43180000D03*
D12*
X59320000Y-48980000D03*
D13*
X56780000Y-48980000D03*
D14*
X76200000Y-45720000D03*
D15*
X91440000Y-45720000D03*
D16*
X81280000Y-53340000D03*
D17*
X83820000Y-53340000D03*
X86360000Y-53340000D03*
X88900000Y-53340000D03*
D16*
X101600000Y-48260000D03*
D17*
X101600000Y-50800000D03*
X101600000Y-53340000D03*
X101600000Y-55880000D03*
X101600000Y-58420000D03*
X101600000Y-60960000D03*
X101600000Y-63500000D03*
X101600000Y-66040000D03*
D16*
X101600000Y-91440000D03*
D17*
X101600000Y-88900000D03*
X101600000Y-86360000D03*
X101600000Y-83820000D03*
X101600000Y-81280000D03*
X101600000Y-78740000D03*
X101600000Y-76200000D03*
X101600000Y-73660000D03*
X101600000Y-71120000D03*
D18*
X50800000Y-43180000D03*
D16*
X68580000Y-60960000D03*
D17*
X68580000Y-63500000D03*
X68580000Y-66040000D03*
D16*
X68580000Y-83820000D03*
D17*
X68580000Y-86360000D03*
X68580000Y-88900000D03*
D13*
X58420000Y-73660000D03*
D12*
X60960000Y-73660000D03*
D10*
X53340000Y-78740000D03*
D11*
X53340000Y-68580000D03*
D10*
X55880000Y-96520000D03*
D11*
X66040000Y-96520000D03*
D18*
X106680000Y-43180000D03*
D13*
X58420000Y-63500000D03*
D12*
X60960000Y-63500000D03*
D18*
X50800000Y-99060000D03*
D19*
X68580000Y-96520000D03*
D20*
X69850000Y-96520000D03*
X71120000Y-96520000D03*
X72390000Y-96520000D03*
D16*
X68580000Y-53340000D03*
D17*
X66040000Y-53340000D03*
D10*
X53340000Y-66040000D03*
D11*
X53340000Y-55880000D03*
D21*
X76870000Y-60960000D03*
D11*
X76870000Y-63500000D03*
X76870000Y-66040000D03*
X76870000Y-68580000D03*
X76870000Y-71120000D03*
X76870000Y-73660000D03*
X76870000Y-76200000D03*
X76870000Y-78740000D03*
X76870000Y-81280000D03*
X76870000Y-83820000D03*
X76870000Y-86360000D03*
X76870000Y-88900000D03*
X76870000Y-91440000D03*
X76870000Y-93980000D03*
X76870000Y-96520000D03*
X92110000Y-96520000D03*
X92110000Y-93980000D03*
X92110000Y-91440000D03*
X92110000Y-88900000D03*
X92110000Y-86360000D03*
X92110000Y-83820000D03*
X92110000Y-81280000D03*
X92110000Y-78740000D03*
X92110000Y-76200000D03*
X92110000Y-73660000D03*
X92110000Y-71120000D03*
X92110000Y-68580000D03*
X92110000Y-66040000D03*
X92110000Y-63500000D03*
X92110000Y-60960000D03*
D16*
X68580000Y-71120000D03*
D17*
X68580000Y-73660000D03*
X68580000Y-76200000D03*
D18*
X106680000Y-99060000D03*
D13*
X58420000Y-86360000D03*
D12*
X60960000Y-86360000D03*
D10*
X53340000Y-91440000D03*
D11*
X53340000Y-81280000D03*
D22*
X55080001Y-52540001D02*
X55880000Y-53340000D01*
X55080001Y-43979999D02*
X55080001Y-52540001D01*
X55880000Y-43180000D02*
X55080001Y-43979999D01*
X86846701Y-52165000D02*
X87535000Y-52853299D01*
X87535000Y-52853299D02*
X87535000Y-56385000D01*
X82455000Y-52165000D02*
X86846701Y-52165000D01*
X87535000Y-56385000D02*
X92110000Y-60960000D01*
X81280000Y-53340000D02*
X82455000Y-52165000D01*
X83820000Y-53340000D02*
X83820000Y-85690000D01*
X83820000Y-85690000D02*
X92110000Y-93980000D01*
X86360000Y-62830000D02*
X92110000Y-68580000D01*
X86360000Y-53340000D02*
X86360000Y-62830000D01*
X99060000Y-93980000D02*
X99060000Y-68580000D01*
X96520000Y-96520000D02*
X99060000Y-93980000D01*
X92110000Y-96520000D02*
X96520000Y-96520000D01*
X99060000Y-68580000D02*
X101600000Y-66040000D01*
X68580000Y-48260000D02*
X68580000Y-53340000D01*
X73045000Y-43795000D02*
X68580000Y-48260000D01*
X91440000Y-45720000D02*
X89515000Y-43795000D01*
X89515000Y-43795000D02*
X73045000Y-43795000D01*
X76200000Y-55880000D02*
X76200000Y-45720000D01*
X68580000Y-63500000D02*
X76200000Y-55880000D01*
X69755000Y-75025000D02*
X69755000Y-67215000D01*
X68580000Y-76200000D02*
X69755000Y-75025000D01*
X58420000Y-93980000D02*
X55880000Y-96520000D01*
X60960000Y-81280000D02*
X68580000Y-88900000D01*
X63500000Y-93980000D02*
X58420000Y-93980000D01*
X53340000Y-81280000D02*
X60960000Y-81280000D01*
X54465000Y-69705000D02*
X54465000Y-80155000D01*
X55880000Y-53340000D02*
X53340000Y-55880000D01*
X54465000Y-67455000D02*
X53340000Y-68580000D01*
X74330000Y-66040000D02*
X76870000Y-68580000D01*
X53340000Y-68580000D02*
X54465000Y-69705000D01*
X54465000Y-80155000D02*
X53340000Y-81280000D01*
X68580000Y-88900000D02*
X63500000Y-93980000D01*
X69755000Y-87725000D02*
X68580000Y-88900000D01*
X54465000Y-57005000D02*
X54465000Y-67455000D01*
X68580000Y-66040000D02*
X74330000Y-66040000D01*
X66040000Y-53340000D02*
X55880000Y-53340000D01*
X68580000Y-76200000D02*
X69755000Y-77375000D01*
X69755000Y-77375000D02*
X69755000Y-87725000D01*
X53340000Y-55880000D02*
X54465000Y-57005000D01*
X69755000Y-67215000D02*
X68580000Y-66040000D01*
X67405000Y-74835000D02*
X67405000Y-85185000D01*
X67405000Y-85185000D02*
X68580000Y-86360000D01*
X68580000Y-73660000D02*
X67405000Y-74835000D01*
X68580000Y-63500000D02*
X67405000Y-64675000D01*
X67405000Y-64675000D02*
X67405000Y-72485000D01*
X67405000Y-72485000D02*
X68580000Y-73660000D01*
X69850000Y-95370000D02*
X69850000Y-96520000D01*
X69775000Y-95295000D02*
X69850000Y-95370000D01*
X67265000Y-95295000D02*
X69775000Y-95295000D01*
X66040000Y-96520000D02*
X67265000Y-95295000D01*
M02*
