%TF.GenerationSoftware,KiCad,Pcbnew,7.0.5*%
%TF.CreationDate,2023-10-17T21:19:38+10:00*%
%TF.ProjectId,Test Stand,54657374-2053-4746-916e-642e6b696361,rev?*%
%TF.SameCoordinates,Original*%
%TF.FileFunction,Legend,Top*%
%TF.FilePolarity,Positive*%
%FSLAX46Y46*%
G04 Gerber Fmt 4.6, Leading zero omitted, Abs format (unit mm)*
G04 Created by KiCad (PCBNEW 7.0.5) date 2023-10-17 21:19:38*
%MOMM*%
%LPD*%
G01*
G04 APERTURE LIST*
%ADD10C,0.150000*%
%ADD11C,0.100000*%
%ADD12C,0.120000*%
%ADD13C,1.600000*%
%ADD14O,1.600000X1.600000*%
%ADD15C,1.800000*%
%ADD16R,1.800000X1.800000*%
%ADD17R,3.200000X3.200000*%
%ADD18O,3.200000X3.200000*%
%ADD19R,1.700000X1.700000*%
%ADD20O,1.700000X1.700000*%
%ADD21C,3.800000*%
%ADD22R,1.070000X1.800000*%
%ADD23O,1.070000X1.800000*%
%ADD24R,1.600000X1.600000*%
G04 APERTURE END LIST*
D10*
X54222171Y-51867824D02*
X53222171Y-51867824D01*
X53222171Y-51867824D02*
X53222171Y-51486872D01*
X53222171Y-51486872D02*
X53269790Y-51391634D01*
X53269790Y-51391634D02*
X53317409Y-51344015D01*
X53317409Y-51344015D02*
X53412647Y-51296396D01*
X53412647Y-51296396D02*
X53555504Y-51296396D01*
X53555504Y-51296396D02*
X53650742Y-51344015D01*
X53650742Y-51344015D02*
X53698361Y-51391634D01*
X53698361Y-51391634D02*
X53745980Y-51486872D01*
X53745980Y-51486872D02*
X53745980Y-51867824D01*
X53222171Y-50963062D02*
X54222171Y-50724967D01*
X54222171Y-50724967D02*
X53507885Y-50534491D01*
X53507885Y-50534491D02*
X54222171Y-50344015D01*
X54222171Y-50344015D02*
X53222171Y-50105920D01*
X54222171Y-49153539D02*
X53745980Y-49486872D01*
X54222171Y-49724967D02*
X53222171Y-49724967D01*
X53222171Y-49724967D02*
X53222171Y-49344015D01*
X53222171Y-49344015D02*
X53269790Y-49248777D01*
X53269790Y-49248777D02*
X53317409Y-49201158D01*
X53317409Y-49201158D02*
X53412647Y-49153539D01*
X53412647Y-49153539D02*
X53555504Y-49153539D01*
X53555504Y-49153539D02*
X53650742Y-49201158D01*
X53650742Y-49201158D02*
X53698361Y-49248777D01*
X53698361Y-49248777D02*
X53745980Y-49344015D01*
X53745980Y-49344015D02*
X53745980Y-49724967D01*
X54222171Y-47486872D02*
X54222171Y-47963062D01*
X54222171Y-47963062D02*
X53222171Y-47963062D01*
X53698361Y-47153538D02*
X53698361Y-46820205D01*
X54222171Y-46677348D02*
X54222171Y-47153538D01*
X54222171Y-47153538D02*
X53222171Y-47153538D01*
X53222171Y-47153538D02*
X53222171Y-46677348D01*
X54222171Y-46248776D02*
X53222171Y-46248776D01*
X53222171Y-46248776D02*
X53222171Y-46010681D01*
X53222171Y-46010681D02*
X53269790Y-45867824D01*
X53269790Y-45867824D02*
X53365028Y-45772586D01*
X53365028Y-45772586D02*
X53460266Y-45724967D01*
X53460266Y-45724967D02*
X53650742Y-45677348D01*
X53650742Y-45677348D02*
X53793599Y-45677348D01*
X53793599Y-45677348D02*
X53984075Y-45724967D01*
X53984075Y-45724967D02*
X54079313Y-45772586D01*
X54079313Y-45772586D02*
X54174552Y-45867824D01*
X54174552Y-45867824D02*
X54222171Y-46010681D01*
X54222171Y-46010681D02*
X54222171Y-46248776D01*
X59241526Y-42651838D02*
X59289145Y-42604219D01*
X59289145Y-42604219D02*
X59384383Y-42556600D01*
X59384383Y-42556600D02*
X59622478Y-42556600D01*
X59622478Y-42556600D02*
X59717716Y-42604219D01*
X59717716Y-42604219D02*
X59765335Y-42651838D01*
X59765335Y-42651838D02*
X59812954Y-42747076D01*
X59812954Y-42747076D02*
X59812954Y-42842314D01*
X59812954Y-42842314D02*
X59765335Y-42985171D01*
X59765335Y-42985171D02*
X59193907Y-43556600D01*
X59193907Y-43556600D02*
X59812954Y-43556600D01*
X60193907Y-42651838D02*
X60241526Y-42604219D01*
X60241526Y-42604219D02*
X60336764Y-42556600D01*
X60336764Y-42556600D02*
X60574859Y-42556600D01*
X60574859Y-42556600D02*
X60670097Y-42604219D01*
X60670097Y-42604219D02*
X60717716Y-42651838D01*
X60717716Y-42651838D02*
X60765335Y-42747076D01*
X60765335Y-42747076D02*
X60765335Y-42842314D01*
X60765335Y-42842314D02*
X60717716Y-42985171D01*
X60717716Y-42985171D02*
X60146288Y-43556600D01*
X60146288Y-43556600D02*
X60765335Y-43556600D01*
X61384383Y-42556600D02*
X61479621Y-42556600D01*
X61479621Y-42556600D02*
X61574859Y-42604219D01*
X61574859Y-42604219D02*
X61622478Y-42651838D01*
X61622478Y-42651838D02*
X61670097Y-42747076D01*
X61670097Y-42747076D02*
X61717716Y-42937552D01*
X61717716Y-42937552D02*
X61717716Y-43175647D01*
X61717716Y-43175647D02*
X61670097Y-43366123D01*
X61670097Y-43366123D02*
X61622478Y-43461361D01*
X61622478Y-43461361D02*
X61574859Y-43508981D01*
X61574859Y-43508981D02*
X61479621Y-43556600D01*
X61479621Y-43556600D02*
X61384383Y-43556600D01*
X61384383Y-43556600D02*
X61289145Y-43508981D01*
X61289145Y-43508981D02*
X61241526Y-43461361D01*
X61241526Y-43461361D02*
X61193907Y-43366123D01*
X61193907Y-43366123D02*
X61146288Y-43175647D01*
X61146288Y-43175647D02*
X61146288Y-42937552D01*
X61146288Y-42937552D02*
X61193907Y-42747076D01*
X61193907Y-42747076D02*
X61241526Y-42651838D01*
X61241526Y-42651838D02*
X61289145Y-42604219D01*
X61289145Y-42604219D02*
X61384383Y-42556600D01*
X62098669Y-43556600D02*
X62336764Y-43556600D01*
X62336764Y-43556600D02*
X62336764Y-43366123D01*
X62336764Y-43366123D02*
X62241526Y-43318504D01*
X62241526Y-43318504D02*
X62146288Y-43223266D01*
X62146288Y-43223266D02*
X62098669Y-43080409D01*
X62098669Y-43080409D02*
X62098669Y-42842314D01*
X62098669Y-42842314D02*
X62146288Y-42699457D01*
X62146288Y-42699457D02*
X62241526Y-42604219D01*
X62241526Y-42604219D02*
X62384383Y-42556600D01*
X62384383Y-42556600D02*
X62574859Y-42556600D01*
X62574859Y-42556600D02*
X62717716Y-42604219D01*
X62717716Y-42604219D02*
X62812954Y-42699457D01*
X62812954Y-42699457D02*
X62860573Y-42842314D01*
X62860573Y-42842314D02*
X62860573Y-43080409D01*
X62860573Y-43080409D02*
X62812954Y-43223266D01*
X62812954Y-43223266D02*
X62717716Y-43318504D01*
X62717716Y-43318504D02*
X62622478Y-43366123D01*
X62622478Y-43366123D02*
X62622478Y-43556600D01*
X62622478Y-43556600D02*
X62860573Y-43556600D01*
X104493728Y-91321318D02*
X104969918Y-91321318D01*
X104398490Y-91607033D02*
X104731823Y-90607033D01*
X104731823Y-90607033D02*
X105065156Y-91607033D01*
X105303252Y-90607033D02*
X105969918Y-90607033D01*
X105969918Y-90607033D02*
X105541347Y-91607033D01*
X104532711Y-88826395D02*
X105008901Y-88826395D01*
X104437473Y-89112110D02*
X104770806Y-88112110D01*
X104770806Y-88112110D02*
X105104139Y-89112110D01*
X105866044Y-88112110D02*
X105675568Y-88112110D01*
X105675568Y-88112110D02*
X105580330Y-88159729D01*
X105580330Y-88159729D02*
X105532711Y-88207348D01*
X105532711Y-88207348D02*
X105437473Y-88350205D01*
X105437473Y-88350205D02*
X105389854Y-88540681D01*
X105389854Y-88540681D02*
X105389854Y-88921633D01*
X105389854Y-88921633D02*
X105437473Y-89016871D01*
X105437473Y-89016871D02*
X105485092Y-89064491D01*
X105485092Y-89064491D02*
X105580330Y-89112110D01*
X105580330Y-89112110D02*
X105770806Y-89112110D01*
X105770806Y-89112110D02*
X105866044Y-89064491D01*
X105866044Y-89064491D02*
X105913663Y-89016871D01*
X105913663Y-89016871D02*
X105961282Y-88921633D01*
X105961282Y-88921633D02*
X105961282Y-88683538D01*
X105961282Y-88683538D02*
X105913663Y-88588300D01*
X105913663Y-88588300D02*
X105866044Y-88540681D01*
X105866044Y-88540681D02*
X105770806Y-88493062D01*
X105770806Y-88493062D02*
X105580330Y-88493062D01*
X105580330Y-88493062D02*
X105485092Y-88540681D01*
X105485092Y-88540681D02*
X105437473Y-88588300D01*
X105437473Y-88588300D02*
X105389854Y-88683538D01*
X104532711Y-86487405D02*
X105008901Y-86487405D01*
X104437473Y-86773120D02*
X104770806Y-85773120D01*
X104770806Y-85773120D02*
X105104139Y-86773120D01*
X105913663Y-85773120D02*
X105437473Y-85773120D01*
X105437473Y-85773120D02*
X105389854Y-86249310D01*
X105389854Y-86249310D02*
X105437473Y-86201691D01*
X105437473Y-86201691D02*
X105532711Y-86154072D01*
X105532711Y-86154072D02*
X105770806Y-86154072D01*
X105770806Y-86154072D02*
X105866044Y-86201691D01*
X105866044Y-86201691D02*
X105913663Y-86249310D01*
X105913663Y-86249310D02*
X105961282Y-86344548D01*
X105961282Y-86344548D02*
X105961282Y-86582643D01*
X105961282Y-86582643D02*
X105913663Y-86677881D01*
X105913663Y-86677881D02*
X105866044Y-86725501D01*
X105866044Y-86725501D02*
X105770806Y-86773120D01*
X105770806Y-86773120D02*
X105532711Y-86773120D01*
X105532711Y-86773120D02*
X105437473Y-86725501D01*
X105437473Y-86725501D02*
X105389854Y-86677881D01*
X104474236Y-83972990D02*
X104950426Y-83972990D01*
X104378998Y-84258705D02*
X104712331Y-83258705D01*
X104712331Y-83258705D02*
X105045664Y-84258705D01*
X105807569Y-83592038D02*
X105807569Y-84258705D01*
X105569474Y-83211086D02*
X105331379Y-83925371D01*
X105331379Y-83925371D02*
X105950426Y-83925371D01*
X104532711Y-81400101D02*
X105008901Y-81400101D01*
X104437473Y-81685816D02*
X104770806Y-80685816D01*
X104770806Y-80685816D02*
X105104139Y-81685816D01*
X105342235Y-80685816D02*
X105961282Y-80685816D01*
X105961282Y-80685816D02*
X105627949Y-81066768D01*
X105627949Y-81066768D02*
X105770806Y-81066768D01*
X105770806Y-81066768D02*
X105866044Y-81114387D01*
X105866044Y-81114387D02*
X105913663Y-81162006D01*
X105913663Y-81162006D02*
X105961282Y-81257244D01*
X105961282Y-81257244D02*
X105961282Y-81495339D01*
X105961282Y-81495339D02*
X105913663Y-81590577D01*
X105913663Y-81590577D02*
X105866044Y-81638197D01*
X105866044Y-81638197D02*
X105770806Y-81685816D01*
X105770806Y-81685816D02*
X105485092Y-81685816D01*
X105485092Y-81685816D02*
X105389854Y-81638197D01*
X105389854Y-81638197D02*
X105342235Y-81590577D01*
X104532711Y-79002636D02*
X105008901Y-79002636D01*
X104437473Y-79288351D02*
X104770806Y-78288351D01*
X104770806Y-78288351D02*
X105104139Y-79288351D01*
X105389854Y-78383589D02*
X105437473Y-78335970D01*
X105437473Y-78335970D02*
X105532711Y-78288351D01*
X105532711Y-78288351D02*
X105770806Y-78288351D01*
X105770806Y-78288351D02*
X105866044Y-78335970D01*
X105866044Y-78335970D02*
X105913663Y-78383589D01*
X105913663Y-78383589D02*
X105961282Y-78478827D01*
X105961282Y-78478827D02*
X105961282Y-78574065D01*
X105961282Y-78574065D02*
X105913663Y-78716922D01*
X105913663Y-78716922D02*
X105342235Y-79288351D01*
X105342235Y-79288351D02*
X105961282Y-79288351D01*
X104552203Y-76410255D02*
X105028393Y-76410255D01*
X104456965Y-76695970D02*
X104790298Y-75695970D01*
X104790298Y-75695970D02*
X105123631Y-76695970D01*
X105980774Y-76695970D02*
X105409346Y-76695970D01*
X105695060Y-76695970D02*
X105695060Y-75695970D01*
X105695060Y-75695970D02*
X105599822Y-75838827D01*
X105599822Y-75838827D02*
X105504584Y-75934065D01*
X105504584Y-75934065D02*
X105409346Y-75981684D01*
X104474236Y-73856857D02*
X104950426Y-73856857D01*
X104378998Y-74142572D02*
X104712331Y-73142572D01*
X104712331Y-73142572D02*
X105045664Y-74142572D01*
X105569474Y-73142572D02*
X105664712Y-73142572D01*
X105664712Y-73142572D02*
X105759950Y-73190191D01*
X105759950Y-73190191D02*
X105807569Y-73237810D01*
X105807569Y-73237810D02*
X105855188Y-73333048D01*
X105855188Y-73333048D02*
X105902807Y-73523524D01*
X105902807Y-73523524D02*
X105902807Y-73761619D01*
X105902807Y-73761619D02*
X105855188Y-73952095D01*
X105855188Y-73952095D02*
X105807569Y-74047333D01*
X105807569Y-74047333D02*
X105759950Y-74094953D01*
X105759950Y-74094953D02*
X105664712Y-74142572D01*
X105664712Y-74142572D02*
X105569474Y-74142572D01*
X105569474Y-74142572D02*
X105474236Y-74094953D01*
X105474236Y-74094953D02*
X105426617Y-74047333D01*
X105426617Y-74047333D02*
X105378998Y-73952095D01*
X105378998Y-73952095D02*
X105331379Y-73761619D01*
X105331379Y-73761619D02*
X105331379Y-73523524D01*
X105331379Y-73523524D02*
X105378998Y-73333048D01*
X105378998Y-73333048D02*
X105426617Y-73237810D01*
X105426617Y-73237810D02*
X105474236Y-73190191D01*
X105474236Y-73190191D02*
X105569474Y-73142572D01*
X104454745Y-71244984D02*
X104930935Y-71244984D01*
X104359507Y-71530699D02*
X104692840Y-70530699D01*
X104692840Y-70530699D02*
X105026173Y-71530699D01*
X105930935Y-71530699D02*
X105597602Y-71054508D01*
X105359507Y-71530699D02*
X105359507Y-70530699D01*
X105359507Y-70530699D02*
X105740459Y-70530699D01*
X105740459Y-70530699D02*
X105835697Y-70578318D01*
X105835697Y-70578318D02*
X105883316Y-70625937D01*
X105883316Y-70625937D02*
X105930935Y-70721175D01*
X105930935Y-70721175D02*
X105930935Y-70864032D01*
X105930935Y-70864032D02*
X105883316Y-70959270D01*
X105883316Y-70959270D02*
X105835697Y-71006889D01*
X105835697Y-71006889D02*
X105740459Y-71054508D01*
X105740459Y-71054508D02*
X105359507Y-71054508D01*
X106359507Y-71006889D02*
X106692840Y-71006889D01*
X106835697Y-71530699D02*
X106359507Y-71530699D01*
X106359507Y-71530699D02*
X106359507Y-70530699D01*
X106359507Y-70530699D02*
X106835697Y-70530699D01*
X107597602Y-71006889D02*
X107264269Y-71006889D01*
X107264269Y-71530699D02*
X107264269Y-70530699D01*
X107264269Y-70530699D02*
X107740459Y-70530699D01*
X88518059Y-50818054D02*
X88470440Y-50913292D01*
X88470440Y-50913292D02*
X88470440Y-51056149D01*
X88470440Y-51056149D02*
X88518059Y-51199006D01*
X88518059Y-51199006D02*
X88613297Y-51294244D01*
X88613297Y-51294244D02*
X88708535Y-51341863D01*
X88708535Y-51341863D02*
X88899011Y-51389482D01*
X88899011Y-51389482D02*
X89041868Y-51389482D01*
X89041868Y-51389482D02*
X89232344Y-51341863D01*
X89232344Y-51341863D02*
X89327582Y-51294244D01*
X89327582Y-51294244D02*
X89422821Y-51199006D01*
X89422821Y-51199006D02*
X89470440Y-51056149D01*
X89470440Y-51056149D02*
X89470440Y-50960911D01*
X89470440Y-50960911D02*
X89422821Y-50818054D01*
X89422821Y-50818054D02*
X89375201Y-50770435D01*
X89375201Y-50770435D02*
X89041868Y-50770435D01*
X89041868Y-50770435D02*
X89041868Y-50960911D01*
X89470440Y-50341863D02*
X88470440Y-50341863D01*
X88470440Y-50341863D02*
X89470440Y-49770435D01*
X89470440Y-49770435D02*
X88470440Y-49770435D01*
X89470440Y-49294244D02*
X88470440Y-49294244D01*
X88470440Y-49294244D02*
X88470440Y-49056149D01*
X88470440Y-49056149D02*
X88518059Y-48913292D01*
X88518059Y-48913292D02*
X88613297Y-48818054D01*
X88613297Y-48818054D02*
X88708535Y-48770435D01*
X88708535Y-48770435D02*
X88899011Y-48722816D01*
X88899011Y-48722816D02*
X89041868Y-48722816D01*
X89041868Y-48722816D02*
X89232344Y-48770435D01*
X89232344Y-48770435D02*
X89327582Y-48818054D01*
X89327582Y-48818054D02*
X89422821Y-48913292D01*
X89422821Y-48913292D02*
X89470440Y-49056149D01*
X89470440Y-49056149D02*
X89470440Y-49294244D01*
X85819584Y-50319908D02*
X85819584Y-50796098D01*
X85819584Y-50796098D02*
X86295774Y-50843717D01*
X86295774Y-50843717D02*
X86248155Y-50796098D01*
X86248155Y-50796098D02*
X86200536Y-50700860D01*
X86200536Y-50700860D02*
X86200536Y-50462765D01*
X86200536Y-50462765D02*
X86248155Y-50367527D01*
X86248155Y-50367527D02*
X86295774Y-50319908D01*
X86295774Y-50319908D02*
X86391012Y-50272289D01*
X86391012Y-50272289D02*
X86629107Y-50272289D01*
X86629107Y-50272289D02*
X86724345Y-50319908D01*
X86724345Y-50319908D02*
X86771965Y-50367527D01*
X86771965Y-50367527D02*
X86819584Y-50462765D01*
X86819584Y-50462765D02*
X86819584Y-50700860D01*
X86819584Y-50700860D02*
X86771965Y-50796098D01*
X86771965Y-50796098D02*
X86724345Y-50843717D01*
X85819584Y-49986574D02*
X86819584Y-49653241D01*
X86819584Y-49653241D02*
X85819584Y-49319908D01*
X83071270Y-51378626D02*
X83071270Y-50759579D01*
X83071270Y-50759579D02*
X83452222Y-51092912D01*
X83452222Y-51092912D02*
X83452222Y-50950055D01*
X83452222Y-50950055D02*
X83499841Y-50854817D01*
X83499841Y-50854817D02*
X83547460Y-50807198D01*
X83547460Y-50807198D02*
X83642698Y-50759579D01*
X83642698Y-50759579D02*
X83880793Y-50759579D01*
X83880793Y-50759579D02*
X83976031Y-50807198D01*
X83976031Y-50807198D02*
X84023651Y-50854817D01*
X84023651Y-50854817D02*
X84071270Y-50950055D01*
X84071270Y-50950055D02*
X84071270Y-51235769D01*
X84071270Y-51235769D02*
X84023651Y-51331007D01*
X84023651Y-51331007D02*
X83976031Y-51378626D01*
X83071270Y-50473864D02*
X84071270Y-50140531D01*
X84071270Y-50140531D02*
X83071270Y-49807198D01*
X83071270Y-49569102D02*
X83071270Y-48950055D01*
X83071270Y-48950055D02*
X83452222Y-49283388D01*
X83452222Y-49283388D02*
X83452222Y-49140531D01*
X83452222Y-49140531D02*
X83499841Y-49045293D01*
X83499841Y-49045293D02*
X83547460Y-48997674D01*
X83547460Y-48997674D02*
X83642698Y-48950055D01*
X83642698Y-48950055D02*
X83880793Y-48950055D01*
X83880793Y-48950055D02*
X83976031Y-48997674D01*
X83976031Y-48997674D02*
X84023651Y-49045293D01*
X84023651Y-49045293D02*
X84071270Y-49140531D01*
X84071270Y-49140531D02*
X84071270Y-49426245D01*
X84071270Y-49426245D02*
X84023651Y-49521483D01*
X84023651Y-49521483D02*
X83976031Y-49569102D01*
X80615330Y-51133871D02*
X81615330Y-50800538D01*
X81615330Y-50800538D02*
X80615330Y-50467205D01*
X81615330Y-50133871D02*
X80615330Y-50133871D01*
X81615330Y-49657681D02*
X80615330Y-49657681D01*
X80615330Y-49657681D02*
X81615330Y-49086253D01*
X81615330Y-49086253D02*
X80615330Y-49086253D01*
X104541347Y-66716277D02*
X104541347Y-65716277D01*
X104541347Y-65716277D02*
X104779442Y-65716277D01*
X104779442Y-65716277D02*
X104922299Y-65763896D01*
X104922299Y-65763896D02*
X105017537Y-65859134D01*
X105017537Y-65859134D02*
X105065156Y-65954372D01*
X105065156Y-65954372D02*
X105112775Y-66144848D01*
X105112775Y-66144848D02*
X105112775Y-66287705D01*
X105112775Y-66287705D02*
X105065156Y-66478181D01*
X105065156Y-66478181D02*
X105017537Y-66573419D01*
X105017537Y-66573419D02*
X104922299Y-66668658D01*
X104922299Y-66668658D02*
X104779442Y-66716277D01*
X104779442Y-66716277D02*
X104541347Y-66716277D01*
X106065156Y-66716277D02*
X105493728Y-66716277D01*
X105779442Y-66716277D02*
X105779442Y-65716277D01*
X105779442Y-65716277D02*
X105684204Y-65859134D01*
X105684204Y-65859134D02*
X105588966Y-65954372D01*
X105588966Y-65954372D02*
X105493728Y-66001991D01*
X106398490Y-65716277D02*
X107017537Y-65716277D01*
X107017537Y-65716277D02*
X106684204Y-66097229D01*
X106684204Y-66097229D02*
X106827061Y-66097229D01*
X106827061Y-66097229D02*
X106922299Y-66144848D01*
X106922299Y-66144848D02*
X106969918Y-66192467D01*
X106969918Y-66192467D02*
X107017537Y-66287705D01*
X107017537Y-66287705D02*
X107017537Y-66525800D01*
X107017537Y-66525800D02*
X106969918Y-66621038D01*
X106969918Y-66621038D02*
X106922299Y-66668658D01*
X106922299Y-66668658D02*
X106827061Y-66716277D01*
X106827061Y-66716277D02*
X106541347Y-66716277D01*
X106541347Y-66716277D02*
X106446109Y-66668658D01*
X106446109Y-66668658D02*
X106398490Y-66621038D01*
X104463381Y-63909489D02*
X104463381Y-62909489D01*
X104463381Y-62909489D02*
X104701476Y-62909489D01*
X104701476Y-62909489D02*
X104844333Y-62957108D01*
X104844333Y-62957108D02*
X104939571Y-63052346D01*
X104939571Y-63052346D02*
X104987190Y-63147584D01*
X104987190Y-63147584D02*
X105034809Y-63338060D01*
X105034809Y-63338060D02*
X105034809Y-63480917D01*
X105034809Y-63480917D02*
X104987190Y-63671393D01*
X104987190Y-63671393D02*
X104939571Y-63766631D01*
X104939571Y-63766631D02*
X104844333Y-63861870D01*
X104844333Y-63861870D02*
X104701476Y-63909489D01*
X104701476Y-63909489D02*
X104463381Y-63909489D01*
X105987190Y-63909489D02*
X105415762Y-63909489D01*
X105701476Y-63909489D02*
X105701476Y-62909489D01*
X105701476Y-62909489D02*
X105606238Y-63052346D01*
X105606238Y-63052346D02*
X105511000Y-63147584D01*
X105511000Y-63147584D02*
X105415762Y-63195203D01*
X106368143Y-63004727D02*
X106415762Y-62957108D01*
X106415762Y-62957108D02*
X106511000Y-62909489D01*
X106511000Y-62909489D02*
X106749095Y-62909489D01*
X106749095Y-62909489D02*
X106844333Y-62957108D01*
X106844333Y-62957108D02*
X106891952Y-63004727D01*
X106891952Y-63004727D02*
X106939571Y-63099965D01*
X106939571Y-63099965D02*
X106939571Y-63195203D01*
X106939571Y-63195203D02*
X106891952Y-63338060D01*
X106891952Y-63338060D02*
X106320524Y-63909489D01*
X106320524Y-63909489D02*
X106939571Y-63909489D01*
X104463381Y-61531516D02*
X104463381Y-60531516D01*
X104463381Y-60531516D02*
X104701476Y-60531516D01*
X104701476Y-60531516D02*
X104844333Y-60579135D01*
X104844333Y-60579135D02*
X104939571Y-60674373D01*
X104939571Y-60674373D02*
X104987190Y-60769611D01*
X104987190Y-60769611D02*
X105034809Y-60960087D01*
X105034809Y-60960087D02*
X105034809Y-61102944D01*
X105034809Y-61102944D02*
X104987190Y-61293420D01*
X104987190Y-61293420D02*
X104939571Y-61388658D01*
X104939571Y-61388658D02*
X104844333Y-61483897D01*
X104844333Y-61483897D02*
X104701476Y-61531516D01*
X104701476Y-61531516D02*
X104463381Y-61531516D01*
X105606238Y-60960087D02*
X105511000Y-60912468D01*
X105511000Y-60912468D02*
X105463381Y-60864849D01*
X105463381Y-60864849D02*
X105415762Y-60769611D01*
X105415762Y-60769611D02*
X105415762Y-60721992D01*
X105415762Y-60721992D02*
X105463381Y-60626754D01*
X105463381Y-60626754D02*
X105511000Y-60579135D01*
X105511000Y-60579135D02*
X105606238Y-60531516D01*
X105606238Y-60531516D02*
X105796714Y-60531516D01*
X105796714Y-60531516D02*
X105891952Y-60579135D01*
X105891952Y-60579135D02*
X105939571Y-60626754D01*
X105939571Y-60626754D02*
X105987190Y-60721992D01*
X105987190Y-60721992D02*
X105987190Y-60769611D01*
X105987190Y-60769611D02*
X105939571Y-60864849D01*
X105939571Y-60864849D02*
X105891952Y-60912468D01*
X105891952Y-60912468D02*
X105796714Y-60960087D01*
X105796714Y-60960087D02*
X105606238Y-60960087D01*
X105606238Y-60960087D02*
X105511000Y-61007706D01*
X105511000Y-61007706D02*
X105463381Y-61055325D01*
X105463381Y-61055325D02*
X105415762Y-61150563D01*
X105415762Y-61150563D02*
X105415762Y-61341039D01*
X105415762Y-61341039D02*
X105463381Y-61436277D01*
X105463381Y-61436277D02*
X105511000Y-61483897D01*
X105511000Y-61483897D02*
X105606238Y-61531516D01*
X105606238Y-61531516D02*
X105796714Y-61531516D01*
X105796714Y-61531516D02*
X105891952Y-61483897D01*
X105891952Y-61483897D02*
X105939571Y-61436277D01*
X105939571Y-61436277D02*
X105987190Y-61341039D01*
X105987190Y-61341039D02*
X105987190Y-61150563D01*
X105987190Y-61150563D02*
X105939571Y-61055325D01*
X105939571Y-61055325D02*
X105891952Y-61007706D01*
X105891952Y-61007706D02*
X105796714Y-60960087D01*
X104482872Y-59056084D02*
X104482872Y-58056084D01*
X104482872Y-58056084D02*
X104720967Y-58056084D01*
X104720967Y-58056084D02*
X104863824Y-58103703D01*
X104863824Y-58103703D02*
X104959062Y-58198941D01*
X104959062Y-58198941D02*
X105006681Y-58294179D01*
X105006681Y-58294179D02*
X105054300Y-58484655D01*
X105054300Y-58484655D02*
X105054300Y-58627512D01*
X105054300Y-58627512D02*
X105006681Y-58817988D01*
X105006681Y-58817988D02*
X104959062Y-58913226D01*
X104959062Y-58913226D02*
X104863824Y-59008465D01*
X104863824Y-59008465D02*
X104720967Y-59056084D01*
X104720967Y-59056084D02*
X104482872Y-59056084D01*
X105387634Y-58056084D02*
X106054300Y-58056084D01*
X106054300Y-58056084D02*
X105625729Y-59056084D01*
X104482872Y-56385737D02*
X104482872Y-55385737D01*
X104482872Y-55385737D02*
X104720967Y-55385737D01*
X104720967Y-55385737D02*
X104863824Y-55433356D01*
X104863824Y-55433356D02*
X104959062Y-55528594D01*
X104959062Y-55528594D02*
X105006681Y-55623832D01*
X105006681Y-55623832D02*
X105054300Y-55814308D01*
X105054300Y-55814308D02*
X105054300Y-55957165D01*
X105054300Y-55957165D02*
X105006681Y-56147641D01*
X105006681Y-56147641D02*
X104959062Y-56242879D01*
X104959062Y-56242879D02*
X104863824Y-56338118D01*
X104863824Y-56338118D02*
X104720967Y-56385737D01*
X104720967Y-56385737D02*
X104482872Y-56385737D01*
X105911443Y-55385737D02*
X105720967Y-55385737D01*
X105720967Y-55385737D02*
X105625729Y-55433356D01*
X105625729Y-55433356D02*
X105578110Y-55480975D01*
X105578110Y-55480975D02*
X105482872Y-55623832D01*
X105482872Y-55623832D02*
X105435253Y-55814308D01*
X105435253Y-55814308D02*
X105435253Y-56195260D01*
X105435253Y-56195260D02*
X105482872Y-56290498D01*
X105482872Y-56290498D02*
X105530491Y-56338118D01*
X105530491Y-56338118D02*
X105625729Y-56385737D01*
X105625729Y-56385737D02*
X105816205Y-56385737D01*
X105816205Y-56385737D02*
X105911443Y-56338118D01*
X105911443Y-56338118D02*
X105959062Y-56290498D01*
X105959062Y-56290498D02*
X106006681Y-56195260D01*
X106006681Y-56195260D02*
X106006681Y-55957165D01*
X106006681Y-55957165D02*
X105959062Y-55861927D01*
X105959062Y-55861927D02*
X105911443Y-55814308D01*
X105911443Y-55814308D02*
X105816205Y-55766689D01*
X105816205Y-55766689D02*
X105625729Y-55766689D01*
X105625729Y-55766689D02*
X105530491Y-55814308D01*
X105530491Y-55814308D02*
X105482872Y-55861927D01*
X105482872Y-55861927D02*
X105435253Y-55957165D01*
X104502364Y-53793356D02*
X104502364Y-52793356D01*
X104502364Y-52793356D02*
X104740459Y-52793356D01*
X104740459Y-52793356D02*
X104883316Y-52840975D01*
X104883316Y-52840975D02*
X104978554Y-52936213D01*
X104978554Y-52936213D02*
X105026173Y-53031451D01*
X105026173Y-53031451D02*
X105073792Y-53221927D01*
X105073792Y-53221927D02*
X105073792Y-53364784D01*
X105073792Y-53364784D02*
X105026173Y-53555260D01*
X105026173Y-53555260D02*
X104978554Y-53650498D01*
X104978554Y-53650498D02*
X104883316Y-53745737D01*
X104883316Y-53745737D02*
X104740459Y-53793356D01*
X104740459Y-53793356D02*
X104502364Y-53793356D01*
X105978554Y-52793356D02*
X105502364Y-52793356D01*
X105502364Y-52793356D02*
X105454745Y-53269546D01*
X105454745Y-53269546D02*
X105502364Y-53221927D01*
X105502364Y-53221927D02*
X105597602Y-53174308D01*
X105597602Y-53174308D02*
X105835697Y-53174308D01*
X105835697Y-53174308D02*
X105930935Y-53221927D01*
X105930935Y-53221927D02*
X105978554Y-53269546D01*
X105978554Y-53269546D02*
X106026173Y-53364784D01*
X106026173Y-53364784D02*
X106026173Y-53602879D01*
X106026173Y-53602879D02*
X105978554Y-53698117D01*
X105978554Y-53698117D02*
X105930935Y-53745737D01*
X105930935Y-53745737D02*
X105835697Y-53793356D01*
X105835697Y-53793356D02*
X105597602Y-53793356D01*
X105597602Y-53793356D02*
X105502364Y-53745737D01*
X105502364Y-53745737D02*
X105454745Y-53698117D01*
X104502364Y-51181483D02*
X104502364Y-50181483D01*
X104502364Y-50181483D02*
X104740459Y-50181483D01*
X104740459Y-50181483D02*
X104883316Y-50229102D01*
X104883316Y-50229102D02*
X104978554Y-50324340D01*
X104978554Y-50324340D02*
X105026173Y-50419578D01*
X105026173Y-50419578D02*
X105073792Y-50610054D01*
X105073792Y-50610054D02*
X105073792Y-50752911D01*
X105073792Y-50752911D02*
X105026173Y-50943387D01*
X105026173Y-50943387D02*
X104978554Y-51038625D01*
X104978554Y-51038625D02*
X104883316Y-51133864D01*
X104883316Y-51133864D02*
X104740459Y-51181483D01*
X104740459Y-51181483D02*
X104502364Y-51181483D01*
X106026173Y-51181483D02*
X105454745Y-51181483D01*
X105740459Y-51181483D02*
X105740459Y-50181483D01*
X105740459Y-50181483D02*
X105645221Y-50324340D01*
X105645221Y-50324340D02*
X105549983Y-50419578D01*
X105549983Y-50419578D02*
X105454745Y-50467197D01*
X104521855Y-48881476D02*
X104521855Y-47881476D01*
X104521855Y-47881476D02*
X104759950Y-47881476D01*
X104759950Y-47881476D02*
X104902807Y-47929095D01*
X104902807Y-47929095D02*
X104998045Y-48024333D01*
X104998045Y-48024333D02*
X105045664Y-48119571D01*
X105045664Y-48119571D02*
X105093283Y-48310047D01*
X105093283Y-48310047D02*
X105093283Y-48452904D01*
X105093283Y-48452904D02*
X105045664Y-48643380D01*
X105045664Y-48643380D02*
X104998045Y-48738618D01*
X104998045Y-48738618D02*
X104902807Y-48833857D01*
X104902807Y-48833857D02*
X104759950Y-48881476D01*
X104759950Y-48881476D02*
X104521855Y-48881476D01*
X105712331Y-47881476D02*
X105807569Y-47881476D01*
X105807569Y-47881476D02*
X105902807Y-47929095D01*
X105902807Y-47929095D02*
X105950426Y-47976714D01*
X105950426Y-47976714D02*
X105998045Y-48071952D01*
X105998045Y-48071952D02*
X106045664Y-48262428D01*
X106045664Y-48262428D02*
X106045664Y-48500523D01*
X106045664Y-48500523D02*
X105998045Y-48690999D01*
X105998045Y-48690999D02*
X105950426Y-48786237D01*
X105950426Y-48786237D02*
X105902807Y-48833857D01*
X105902807Y-48833857D02*
X105807569Y-48881476D01*
X105807569Y-48881476D02*
X105712331Y-48881476D01*
X105712331Y-48881476D02*
X105617093Y-48833857D01*
X105617093Y-48833857D02*
X105569474Y-48786237D01*
X105569474Y-48786237D02*
X105521855Y-48690999D01*
X105521855Y-48690999D02*
X105474236Y-48500523D01*
X105474236Y-48500523D02*
X105474236Y-48262428D01*
X105474236Y-48262428D02*
X105521855Y-48071952D01*
X105521855Y-48071952D02*
X105569474Y-47976714D01*
X105569474Y-47976714D02*
X105617093Y-47929095D01*
X105617093Y-47929095D02*
X105712331Y-47881476D01*
D11*
X78730283Y-92025375D02*
X78873140Y-92072994D01*
X78873140Y-92072994D02*
X79111235Y-92072994D01*
X79111235Y-92072994D02*
X79206473Y-92025375D01*
X79206473Y-92025375D02*
X79254092Y-91977755D01*
X79254092Y-91977755D02*
X79301711Y-91882517D01*
X79301711Y-91882517D02*
X79301711Y-91787279D01*
X79301711Y-91787279D02*
X79254092Y-91692041D01*
X79254092Y-91692041D02*
X79206473Y-91644422D01*
X79206473Y-91644422D02*
X79111235Y-91596803D01*
X79111235Y-91596803D02*
X78920759Y-91549184D01*
X78920759Y-91549184D02*
X78825521Y-91501565D01*
X78825521Y-91501565D02*
X78777902Y-91453946D01*
X78777902Y-91453946D02*
X78730283Y-91358708D01*
X78730283Y-91358708D02*
X78730283Y-91263470D01*
X78730283Y-91263470D02*
X78777902Y-91168232D01*
X78777902Y-91168232D02*
X78825521Y-91120613D01*
X78825521Y-91120613D02*
X78920759Y-91072994D01*
X78920759Y-91072994D02*
X79158854Y-91072994D01*
X79158854Y-91072994D02*
X79301711Y-91120613D01*
X80254092Y-91120613D02*
X80158854Y-91072994D01*
X80158854Y-91072994D02*
X80015997Y-91072994D01*
X80015997Y-91072994D02*
X79873140Y-91120613D01*
X79873140Y-91120613D02*
X79777902Y-91215851D01*
X79777902Y-91215851D02*
X79730283Y-91311089D01*
X79730283Y-91311089D02*
X79682664Y-91501565D01*
X79682664Y-91501565D02*
X79682664Y-91644422D01*
X79682664Y-91644422D02*
X79730283Y-91834898D01*
X79730283Y-91834898D02*
X79777902Y-91930136D01*
X79777902Y-91930136D02*
X79873140Y-92025375D01*
X79873140Y-92025375D02*
X80015997Y-92072994D01*
X80015997Y-92072994D02*
X80111235Y-92072994D01*
X80111235Y-92072994D02*
X80254092Y-92025375D01*
X80254092Y-92025375D02*
X80301711Y-91977755D01*
X80301711Y-91977755D02*
X80301711Y-91644422D01*
X80301711Y-91644422D02*
X80111235Y-91644422D01*
D10*
X71031022Y-85694402D02*
X71364355Y-86694402D01*
X71364355Y-86694402D02*
X71697688Y-85694402D01*
X72602450Y-86599163D02*
X72554831Y-86646783D01*
X72554831Y-86646783D02*
X72411974Y-86694402D01*
X72411974Y-86694402D02*
X72316736Y-86694402D01*
X72316736Y-86694402D02*
X72173879Y-86646783D01*
X72173879Y-86646783D02*
X72078641Y-86551544D01*
X72078641Y-86551544D02*
X72031022Y-86456306D01*
X72031022Y-86456306D02*
X71983403Y-86265830D01*
X71983403Y-86265830D02*
X71983403Y-86122973D01*
X71983403Y-86122973D02*
X72031022Y-85932497D01*
X72031022Y-85932497D02*
X72078641Y-85837259D01*
X72078641Y-85837259D02*
X72173879Y-85742021D01*
X72173879Y-85742021D02*
X72316736Y-85694402D01*
X72316736Y-85694402D02*
X72411974Y-85694402D01*
X72411974Y-85694402D02*
X72554831Y-85742021D01*
X72554831Y-85742021D02*
X72602450Y-85789640D01*
X73602450Y-86599163D02*
X73554831Y-86646783D01*
X73554831Y-86646783D02*
X73411974Y-86694402D01*
X73411974Y-86694402D02*
X73316736Y-86694402D01*
X73316736Y-86694402D02*
X73173879Y-86646783D01*
X73173879Y-86646783D02*
X73078641Y-86551544D01*
X73078641Y-86551544D02*
X73031022Y-86456306D01*
X73031022Y-86456306D02*
X72983403Y-86265830D01*
X72983403Y-86265830D02*
X72983403Y-86122973D01*
X72983403Y-86122973D02*
X73031022Y-85932497D01*
X73031022Y-85932497D02*
X73078641Y-85837259D01*
X73078641Y-85837259D02*
X73173879Y-85742021D01*
X73173879Y-85742021D02*
X73316736Y-85694402D01*
X73316736Y-85694402D02*
X73411974Y-85694402D01*
X73411974Y-85694402D02*
X73554831Y-85742021D01*
X73554831Y-85742021D02*
X73602450Y-85789640D01*
D11*
X78919441Y-76738147D02*
X79062298Y-76785766D01*
X79062298Y-76785766D02*
X79300393Y-76785766D01*
X79300393Y-76785766D02*
X79395631Y-76738147D01*
X79395631Y-76738147D02*
X79443250Y-76690527D01*
X79443250Y-76690527D02*
X79490869Y-76595289D01*
X79490869Y-76595289D02*
X79490869Y-76500051D01*
X79490869Y-76500051D02*
X79443250Y-76404813D01*
X79443250Y-76404813D02*
X79395631Y-76357194D01*
X79395631Y-76357194D02*
X79300393Y-76309575D01*
X79300393Y-76309575D02*
X79109917Y-76261956D01*
X79109917Y-76261956D02*
X79014679Y-76214337D01*
X79014679Y-76214337D02*
X78967060Y-76166718D01*
X78967060Y-76166718D02*
X78919441Y-76071480D01*
X78919441Y-76071480D02*
X78919441Y-75976242D01*
X78919441Y-75976242D02*
X78967060Y-75881004D01*
X78967060Y-75881004D02*
X79014679Y-75833385D01*
X79014679Y-75833385D02*
X79109917Y-75785766D01*
X79109917Y-75785766D02*
X79348012Y-75785766D01*
X79348012Y-75785766D02*
X79490869Y-75833385D01*
X80300393Y-76738147D02*
X80205155Y-76785766D01*
X80205155Y-76785766D02*
X80014679Y-76785766D01*
X80014679Y-76785766D02*
X79919441Y-76738147D01*
X79919441Y-76738147D02*
X79871822Y-76642908D01*
X79871822Y-76642908D02*
X79871822Y-76261956D01*
X79871822Y-76261956D02*
X79919441Y-76166718D01*
X79919441Y-76166718D02*
X80014679Y-76119099D01*
X80014679Y-76119099D02*
X80205155Y-76119099D01*
X80205155Y-76119099D02*
X80300393Y-76166718D01*
X80300393Y-76166718D02*
X80348012Y-76261956D01*
X80348012Y-76261956D02*
X80348012Y-76357194D01*
X80348012Y-76357194D02*
X79871822Y-76452432D01*
X80776584Y-76785766D02*
X80776584Y-76119099D01*
X80776584Y-76309575D02*
X80824203Y-76214337D01*
X80824203Y-76214337D02*
X80871822Y-76166718D01*
X80871822Y-76166718D02*
X80967060Y-76119099D01*
X80967060Y-76119099D02*
X81062298Y-76119099D01*
X81300394Y-76119099D02*
X81538489Y-76785766D01*
X81538489Y-76785766D02*
X81776584Y-76119099D01*
X82300394Y-76785766D02*
X82205156Y-76738147D01*
X82205156Y-76738147D02*
X82157537Y-76690527D01*
X82157537Y-76690527D02*
X82109918Y-76595289D01*
X82109918Y-76595289D02*
X82109918Y-76309575D01*
X82109918Y-76309575D02*
X82157537Y-76214337D01*
X82157537Y-76214337D02*
X82205156Y-76166718D01*
X82205156Y-76166718D02*
X82300394Y-76119099D01*
X82300394Y-76119099D02*
X82443251Y-76119099D01*
X82443251Y-76119099D02*
X82538489Y-76166718D01*
X82538489Y-76166718D02*
X82586108Y-76214337D01*
X82586108Y-76214337D02*
X82633727Y-76309575D01*
X82633727Y-76309575D02*
X82633727Y-76595289D01*
X82633727Y-76595289D02*
X82586108Y-76690527D01*
X82586108Y-76690527D02*
X82538489Y-76738147D01*
X82538489Y-76738147D02*
X82443251Y-76785766D01*
X82443251Y-76785766D02*
X82300394Y-76785766D01*
X83728966Y-75785766D02*
X84348013Y-75785766D01*
X84348013Y-75785766D02*
X84014680Y-76166718D01*
X84014680Y-76166718D02*
X84157537Y-76166718D01*
X84157537Y-76166718D02*
X84252775Y-76214337D01*
X84252775Y-76214337D02*
X84300394Y-76261956D01*
X84300394Y-76261956D02*
X84348013Y-76357194D01*
X84348013Y-76357194D02*
X84348013Y-76595289D01*
X84348013Y-76595289D02*
X84300394Y-76690527D01*
X84300394Y-76690527D02*
X84252775Y-76738147D01*
X84252775Y-76738147D02*
X84157537Y-76785766D01*
X84157537Y-76785766D02*
X83871823Y-76785766D01*
X83871823Y-76785766D02*
X83776585Y-76738147D01*
X83776585Y-76738147D02*
X83728966Y-76690527D01*
D10*
X82377155Y-53836564D02*
X81805727Y-53836564D01*
X82091441Y-53836564D02*
X82091441Y-52836564D01*
X82091441Y-52836564D02*
X81996203Y-52979421D01*
X81996203Y-52979421D02*
X81900965Y-53074659D01*
X81900965Y-53074659D02*
X81805727Y-53122278D01*
X82805727Y-53836564D02*
X82805727Y-52836564D01*
X82805727Y-52836564D02*
X83377155Y-53836564D01*
X83377155Y-53836564D02*
X83377155Y-52836564D01*
X84329536Y-52836564D02*
X83853346Y-52836564D01*
X83853346Y-52836564D02*
X83805727Y-53312754D01*
X83805727Y-53312754D02*
X83853346Y-53265135D01*
X83853346Y-53265135D02*
X83948584Y-53217516D01*
X83948584Y-53217516D02*
X84186679Y-53217516D01*
X84186679Y-53217516D02*
X84281917Y-53265135D01*
X84281917Y-53265135D02*
X84329536Y-53312754D01*
X84329536Y-53312754D02*
X84377155Y-53407992D01*
X84377155Y-53407992D02*
X84377155Y-53646087D01*
X84377155Y-53646087D02*
X84329536Y-53741325D01*
X84329536Y-53741325D02*
X84281917Y-53788945D01*
X84281917Y-53788945D02*
X84186679Y-53836564D01*
X84186679Y-53836564D02*
X83948584Y-53836564D01*
X83948584Y-53836564D02*
X83853346Y-53788945D01*
X83853346Y-53788945D02*
X83805727Y-53741325D01*
X84758108Y-52931802D02*
X84805727Y-52884183D01*
X84805727Y-52884183D02*
X84900965Y-52836564D01*
X84900965Y-52836564D02*
X85139060Y-52836564D01*
X85139060Y-52836564D02*
X85234298Y-52884183D01*
X85234298Y-52884183D02*
X85281917Y-52931802D01*
X85281917Y-52931802D02*
X85329536Y-53027040D01*
X85329536Y-53027040D02*
X85329536Y-53122278D01*
X85329536Y-53122278D02*
X85281917Y-53265135D01*
X85281917Y-53265135D02*
X84710489Y-53836564D01*
X84710489Y-53836564D02*
X85329536Y-53836564D01*
X85900965Y-53265135D02*
X85805727Y-53217516D01*
X85805727Y-53217516D02*
X85758108Y-53169897D01*
X85758108Y-53169897D02*
X85710489Y-53074659D01*
X85710489Y-53074659D02*
X85710489Y-53027040D01*
X85710489Y-53027040D02*
X85758108Y-52931802D01*
X85758108Y-52931802D02*
X85805727Y-52884183D01*
X85805727Y-52884183D02*
X85900965Y-52836564D01*
X85900965Y-52836564D02*
X86091441Y-52836564D01*
X86091441Y-52836564D02*
X86186679Y-52884183D01*
X86186679Y-52884183D02*
X86234298Y-52931802D01*
X86234298Y-52931802D02*
X86281917Y-53027040D01*
X86281917Y-53027040D02*
X86281917Y-53074659D01*
X86281917Y-53074659D02*
X86234298Y-53169897D01*
X86234298Y-53169897D02*
X86186679Y-53217516D01*
X86186679Y-53217516D02*
X86091441Y-53265135D01*
X86091441Y-53265135D02*
X85900965Y-53265135D01*
X85900965Y-53265135D02*
X85805727Y-53312754D01*
X85805727Y-53312754D02*
X85758108Y-53360373D01*
X85758108Y-53360373D02*
X85710489Y-53455611D01*
X85710489Y-53455611D02*
X85710489Y-53646087D01*
X85710489Y-53646087D02*
X85758108Y-53741325D01*
X85758108Y-53741325D02*
X85805727Y-53788945D01*
X85805727Y-53788945D02*
X85900965Y-53836564D01*
X85900965Y-53836564D02*
X86091441Y-53836564D01*
X86091441Y-53836564D02*
X86186679Y-53788945D01*
X86186679Y-53788945D02*
X86234298Y-53741325D01*
X86234298Y-53741325D02*
X86281917Y-53646087D01*
X86281917Y-53646087D02*
X86281917Y-53455611D01*
X86281917Y-53455611D02*
X86234298Y-53360373D01*
X86234298Y-53360373D02*
X86186679Y-53312754D01*
X86186679Y-53312754D02*
X86091441Y-53265135D01*
X86853346Y-53265135D02*
X86758108Y-53217516D01*
X86758108Y-53217516D02*
X86710489Y-53169897D01*
X86710489Y-53169897D02*
X86662870Y-53074659D01*
X86662870Y-53074659D02*
X86662870Y-53027040D01*
X86662870Y-53027040D02*
X86710489Y-52931802D01*
X86710489Y-52931802D02*
X86758108Y-52884183D01*
X86758108Y-52884183D02*
X86853346Y-52836564D01*
X86853346Y-52836564D02*
X87043822Y-52836564D01*
X87043822Y-52836564D02*
X87139060Y-52884183D01*
X87139060Y-52884183D02*
X87186679Y-52931802D01*
X87186679Y-52931802D02*
X87234298Y-53027040D01*
X87234298Y-53027040D02*
X87234298Y-53074659D01*
X87234298Y-53074659D02*
X87186679Y-53169897D01*
X87186679Y-53169897D02*
X87139060Y-53217516D01*
X87139060Y-53217516D02*
X87043822Y-53265135D01*
X87043822Y-53265135D02*
X86853346Y-53265135D01*
X86853346Y-53265135D02*
X86758108Y-53312754D01*
X86758108Y-53312754D02*
X86710489Y-53360373D01*
X86710489Y-53360373D02*
X86662870Y-53455611D01*
X86662870Y-53455611D02*
X86662870Y-53646087D01*
X86662870Y-53646087D02*
X86710489Y-53741325D01*
X86710489Y-53741325D02*
X86758108Y-53788945D01*
X86758108Y-53788945D02*
X86853346Y-53836564D01*
X86853346Y-53836564D02*
X87043822Y-53836564D01*
X87043822Y-53836564D02*
X87139060Y-53788945D01*
X87139060Y-53788945D02*
X87186679Y-53741325D01*
X87186679Y-53741325D02*
X87234298Y-53646087D01*
X87234298Y-53646087D02*
X87234298Y-53455611D01*
X87234298Y-53455611D02*
X87186679Y-53360373D01*
X87186679Y-53360373D02*
X87139060Y-53312754D01*
X87139060Y-53312754D02*
X87043822Y-53265135D01*
D11*
X78919441Y-74198147D02*
X79062298Y-74245766D01*
X79062298Y-74245766D02*
X79300393Y-74245766D01*
X79300393Y-74245766D02*
X79395631Y-74198147D01*
X79395631Y-74198147D02*
X79443250Y-74150527D01*
X79443250Y-74150527D02*
X79490869Y-74055289D01*
X79490869Y-74055289D02*
X79490869Y-73960051D01*
X79490869Y-73960051D02*
X79443250Y-73864813D01*
X79443250Y-73864813D02*
X79395631Y-73817194D01*
X79395631Y-73817194D02*
X79300393Y-73769575D01*
X79300393Y-73769575D02*
X79109917Y-73721956D01*
X79109917Y-73721956D02*
X79014679Y-73674337D01*
X79014679Y-73674337D02*
X78967060Y-73626718D01*
X78967060Y-73626718D02*
X78919441Y-73531480D01*
X78919441Y-73531480D02*
X78919441Y-73436242D01*
X78919441Y-73436242D02*
X78967060Y-73341004D01*
X78967060Y-73341004D02*
X79014679Y-73293385D01*
X79014679Y-73293385D02*
X79109917Y-73245766D01*
X79109917Y-73245766D02*
X79348012Y-73245766D01*
X79348012Y-73245766D02*
X79490869Y-73293385D01*
X80300393Y-74198147D02*
X80205155Y-74245766D01*
X80205155Y-74245766D02*
X80014679Y-74245766D01*
X80014679Y-74245766D02*
X79919441Y-74198147D01*
X79919441Y-74198147D02*
X79871822Y-74102908D01*
X79871822Y-74102908D02*
X79871822Y-73721956D01*
X79871822Y-73721956D02*
X79919441Y-73626718D01*
X79919441Y-73626718D02*
X80014679Y-73579099D01*
X80014679Y-73579099D02*
X80205155Y-73579099D01*
X80205155Y-73579099D02*
X80300393Y-73626718D01*
X80300393Y-73626718D02*
X80348012Y-73721956D01*
X80348012Y-73721956D02*
X80348012Y-73817194D01*
X80348012Y-73817194D02*
X79871822Y-73912432D01*
X80776584Y-74245766D02*
X80776584Y-73579099D01*
X80776584Y-73769575D02*
X80824203Y-73674337D01*
X80824203Y-73674337D02*
X80871822Y-73626718D01*
X80871822Y-73626718D02*
X80967060Y-73579099D01*
X80967060Y-73579099D02*
X81062298Y-73579099D01*
X81300394Y-73579099D02*
X81538489Y-74245766D01*
X81538489Y-74245766D02*
X81776584Y-73579099D01*
X82300394Y-74245766D02*
X82205156Y-74198147D01*
X82205156Y-74198147D02*
X82157537Y-74150527D01*
X82157537Y-74150527D02*
X82109918Y-74055289D01*
X82109918Y-74055289D02*
X82109918Y-73769575D01*
X82109918Y-73769575D02*
X82157537Y-73674337D01*
X82157537Y-73674337D02*
X82205156Y-73626718D01*
X82205156Y-73626718D02*
X82300394Y-73579099D01*
X82300394Y-73579099D02*
X82443251Y-73579099D01*
X82443251Y-73579099D02*
X82538489Y-73626718D01*
X82538489Y-73626718D02*
X82586108Y-73674337D01*
X82586108Y-73674337D02*
X82633727Y-73769575D01*
X82633727Y-73769575D02*
X82633727Y-74055289D01*
X82633727Y-74055289D02*
X82586108Y-74150527D01*
X82586108Y-74150527D02*
X82538489Y-74198147D01*
X82538489Y-74198147D02*
X82443251Y-74245766D01*
X82443251Y-74245766D02*
X82300394Y-74245766D01*
X83776585Y-73341004D02*
X83824204Y-73293385D01*
X83824204Y-73293385D02*
X83919442Y-73245766D01*
X83919442Y-73245766D02*
X84157537Y-73245766D01*
X84157537Y-73245766D02*
X84252775Y-73293385D01*
X84252775Y-73293385D02*
X84300394Y-73341004D01*
X84300394Y-73341004D02*
X84348013Y-73436242D01*
X84348013Y-73436242D02*
X84348013Y-73531480D01*
X84348013Y-73531480D02*
X84300394Y-73674337D01*
X84300394Y-73674337D02*
X83728966Y-74245766D01*
X83728966Y-74245766D02*
X84348013Y-74245766D01*
X78730283Y-89485375D02*
X78873140Y-89532994D01*
X78873140Y-89532994D02*
X79111235Y-89532994D01*
X79111235Y-89532994D02*
X79206473Y-89485375D01*
X79206473Y-89485375D02*
X79254092Y-89437755D01*
X79254092Y-89437755D02*
X79301711Y-89342517D01*
X79301711Y-89342517D02*
X79301711Y-89247279D01*
X79301711Y-89247279D02*
X79254092Y-89152041D01*
X79254092Y-89152041D02*
X79206473Y-89104422D01*
X79206473Y-89104422D02*
X79111235Y-89056803D01*
X79111235Y-89056803D02*
X78920759Y-89009184D01*
X78920759Y-89009184D02*
X78825521Y-88961565D01*
X78825521Y-88961565D02*
X78777902Y-88913946D01*
X78777902Y-88913946D02*
X78730283Y-88818708D01*
X78730283Y-88818708D02*
X78730283Y-88723470D01*
X78730283Y-88723470D02*
X78777902Y-88628232D01*
X78777902Y-88628232D02*
X78825521Y-88580613D01*
X78825521Y-88580613D02*
X78920759Y-88532994D01*
X78920759Y-88532994D02*
X79158854Y-88532994D01*
X79158854Y-88532994D02*
X79301711Y-88580613D01*
X80301711Y-89532994D02*
X79968378Y-89056803D01*
X79730283Y-89532994D02*
X79730283Y-88532994D01*
X79730283Y-88532994D02*
X80111235Y-88532994D01*
X80111235Y-88532994D02*
X80206473Y-88580613D01*
X80206473Y-88580613D02*
X80254092Y-88628232D01*
X80254092Y-88628232D02*
X80301711Y-88723470D01*
X80301711Y-88723470D02*
X80301711Y-88866327D01*
X80301711Y-88866327D02*
X80254092Y-88961565D01*
X80254092Y-88961565D02*
X80206473Y-89009184D01*
X80206473Y-89009184D02*
X80111235Y-89056803D01*
X80111235Y-89056803D02*
X79730283Y-89056803D01*
D10*
X71101747Y-73317536D02*
X71435080Y-74317536D01*
X71435080Y-74317536D02*
X71768413Y-73317536D01*
X72673175Y-74222297D02*
X72625556Y-74269917D01*
X72625556Y-74269917D02*
X72482699Y-74317536D01*
X72482699Y-74317536D02*
X72387461Y-74317536D01*
X72387461Y-74317536D02*
X72244604Y-74269917D01*
X72244604Y-74269917D02*
X72149366Y-74174678D01*
X72149366Y-74174678D02*
X72101747Y-74079440D01*
X72101747Y-74079440D02*
X72054128Y-73888964D01*
X72054128Y-73888964D02*
X72054128Y-73746107D01*
X72054128Y-73746107D02*
X72101747Y-73555631D01*
X72101747Y-73555631D02*
X72149366Y-73460393D01*
X72149366Y-73460393D02*
X72244604Y-73365155D01*
X72244604Y-73365155D02*
X72387461Y-73317536D01*
X72387461Y-73317536D02*
X72482699Y-73317536D01*
X72482699Y-73317536D02*
X72625556Y-73365155D01*
X72625556Y-73365155D02*
X72673175Y-73412774D01*
X73673175Y-74222297D02*
X73625556Y-74269917D01*
X73625556Y-74269917D02*
X73482699Y-74317536D01*
X73482699Y-74317536D02*
X73387461Y-74317536D01*
X73387461Y-74317536D02*
X73244604Y-74269917D01*
X73244604Y-74269917D02*
X73149366Y-74174678D01*
X73149366Y-74174678D02*
X73101747Y-74079440D01*
X73101747Y-74079440D02*
X73054128Y-73888964D01*
X73054128Y-73888964D02*
X73054128Y-73746107D01*
X73054128Y-73746107D02*
X73101747Y-73555631D01*
X73101747Y-73555631D02*
X73149366Y-73460393D01*
X73149366Y-73460393D02*
X73244604Y-73365155D01*
X73244604Y-73365155D02*
X73387461Y-73317536D01*
X73387461Y-73317536D02*
X73482699Y-73317536D01*
X73482699Y-73317536D02*
X73625556Y-73365155D01*
X73625556Y-73365155D02*
X73673175Y-73412774D01*
X71161622Y-61297986D02*
X71304479Y-61345605D01*
X71304479Y-61345605D02*
X71542574Y-61345605D01*
X71542574Y-61345605D02*
X71637812Y-61297986D01*
X71637812Y-61297986D02*
X71685431Y-61250366D01*
X71685431Y-61250366D02*
X71733050Y-61155128D01*
X71733050Y-61155128D02*
X71733050Y-61059890D01*
X71733050Y-61059890D02*
X71685431Y-60964652D01*
X71685431Y-60964652D02*
X71637812Y-60917033D01*
X71637812Y-60917033D02*
X71542574Y-60869414D01*
X71542574Y-60869414D02*
X71352098Y-60821795D01*
X71352098Y-60821795D02*
X71256860Y-60774176D01*
X71256860Y-60774176D02*
X71209241Y-60726557D01*
X71209241Y-60726557D02*
X71161622Y-60631319D01*
X71161622Y-60631319D02*
X71161622Y-60536081D01*
X71161622Y-60536081D02*
X71209241Y-60440843D01*
X71209241Y-60440843D02*
X71256860Y-60393224D01*
X71256860Y-60393224D02*
X71352098Y-60345605D01*
X71352098Y-60345605D02*
X71590193Y-60345605D01*
X71590193Y-60345605D02*
X71733050Y-60393224D01*
X72161622Y-61345605D02*
X72161622Y-60345605D01*
X73161621Y-60393224D02*
X73066383Y-60345605D01*
X73066383Y-60345605D02*
X72923526Y-60345605D01*
X72923526Y-60345605D02*
X72780669Y-60393224D01*
X72780669Y-60393224D02*
X72685431Y-60488462D01*
X72685431Y-60488462D02*
X72637812Y-60583700D01*
X72637812Y-60583700D02*
X72590193Y-60774176D01*
X72590193Y-60774176D02*
X72590193Y-60917033D01*
X72590193Y-60917033D02*
X72637812Y-61107509D01*
X72637812Y-61107509D02*
X72685431Y-61202747D01*
X72685431Y-61202747D02*
X72780669Y-61297986D01*
X72780669Y-61297986D02*
X72923526Y-61345605D01*
X72923526Y-61345605D02*
X73018764Y-61345605D01*
X73018764Y-61345605D02*
X73161621Y-61297986D01*
X73161621Y-61297986D02*
X73209240Y-61250366D01*
X73209240Y-61250366D02*
X73209240Y-60917033D01*
X73209240Y-60917033D02*
X73018764Y-60917033D01*
X71196985Y-71729917D02*
X71339842Y-71777536D01*
X71339842Y-71777536D02*
X71577937Y-71777536D01*
X71577937Y-71777536D02*
X71673175Y-71729917D01*
X71673175Y-71729917D02*
X71720794Y-71682297D01*
X71720794Y-71682297D02*
X71768413Y-71587059D01*
X71768413Y-71587059D02*
X71768413Y-71491821D01*
X71768413Y-71491821D02*
X71720794Y-71396583D01*
X71720794Y-71396583D02*
X71673175Y-71348964D01*
X71673175Y-71348964D02*
X71577937Y-71301345D01*
X71577937Y-71301345D02*
X71387461Y-71253726D01*
X71387461Y-71253726D02*
X71292223Y-71206107D01*
X71292223Y-71206107D02*
X71244604Y-71158488D01*
X71244604Y-71158488D02*
X71196985Y-71063250D01*
X71196985Y-71063250D02*
X71196985Y-70968012D01*
X71196985Y-70968012D02*
X71244604Y-70872774D01*
X71244604Y-70872774D02*
X71292223Y-70825155D01*
X71292223Y-70825155D02*
X71387461Y-70777536D01*
X71387461Y-70777536D02*
X71625556Y-70777536D01*
X71625556Y-70777536D02*
X71768413Y-70825155D01*
X72196985Y-71777536D02*
X72196985Y-70777536D01*
X73196984Y-70825155D02*
X73101746Y-70777536D01*
X73101746Y-70777536D02*
X72958889Y-70777536D01*
X72958889Y-70777536D02*
X72816032Y-70825155D01*
X72816032Y-70825155D02*
X72720794Y-70920393D01*
X72720794Y-70920393D02*
X72673175Y-71015631D01*
X72673175Y-71015631D02*
X72625556Y-71206107D01*
X72625556Y-71206107D02*
X72625556Y-71348964D01*
X72625556Y-71348964D02*
X72673175Y-71539440D01*
X72673175Y-71539440D02*
X72720794Y-71634678D01*
X72720794Y-71634678D02*
X72816032Y-71729917D01*
X72816032Y-71729917D02*
X72958889Y-71777536D01*
X72958889Y-71777536D02*
X73054127Y-71777536D01*
X73054127Y-71777536D02*
X73196984Y-71729917D01*
X73196984Y-71729917D02*
X73244603Y-71682297D01*
X73244603Y-71682297D02*
X73244603Y-71348964D01*
X73244603Y-71348964D02*
X73054127Y-71348964D01*
X71066384Y-62885605D02*
X71399717Y-63885605D01*
X71399717Y-63885605D02*
X71733050Y-62885605D01*
X72637812Y-63790366D02*
X72590193Y-63837986D01*
X72590193Y-63837986D02*
X72447336Y-63885605D01*
X72447336Y-63885605D02*
X72352098Y-63885605D01*
X72352098Y-63885605D02*
X72209241Y-63837986D01*
X72209241Y-63837986D02*
X72114003Y-63742747D01*
X72114003Y-63742747D02*
X72066384Y-63647509D01*
X72066384Y-63647509D02*
X72018765Y-63457033D01*
X72018765Y-63457033D02*
X72018765Y-63314176D01*
X72018765Y-63314176D02*
X72066384Y-63123700D01*
X72066384Y-63123700D02*
X72114003Y-63028462D01*
X72114003Y-63028462D02*
X72209241Y-62933224D01*
X72209241Y-62933224D02*
X72352098Y-62885605D01*
X72352098Y-62885605D02*
X72447336Y-62885605D01*
X72447336Y-62885605D02*
X72590193Y-62933224D01*
X72590193Y-62933224D02*
X72637812Y-62980843D01*
X73637812Y-63790366D02*
X73590193Y-63837986D01*
X73590193Y-63837986D02*
X73447336Y-63885605D01*
X73447336Y-63885605D02*
X73352098Y-63885605D01*
X73352098Y-63885605D02*
X73209241Y-63837986D01*
X73209241Y-63837986D02*
X73114003Y-63742747D01*
X73114003Y-63742747D02*
X73066384Y-63647509D01*
X73066384Y-63647509D02*
X73018765Y-63457033D01*
X73018765Y-63457033D02*
X73018765Y-63314176D01*
X73018765Y-63314176D02*
X73066384Y-63123700D01*
X73066384Y-63123700D02*
X73114003Y-63028462D01*
X73114003Y-63028462D02*
X73209241Y-62933224D01*
X73209241Y-62933224D02*
X73352098Y-62885605D01*
X73352098Y-62885605D02*
X73447336Y-62885605D01*
X73447336Y-62885605D02*
X73590193Y-62933224D01*
X73590193Y-62933224D02*
X73637812Y-62980843D01*
X66564500Y-92752295D02*
X66707357Y-92799914D01*
X66707357Y-92799914D02*
X66945452Y-92799914D01*
X66945452Y-92799914D02*
X67040690Y-92752295D01*
X67040690Y-92752295D02*
X67088309Y-92704675D01*
X67088309Y-92704675D02*
X67135928Y-92609437D01*
X67135928Y-92609437D02*
X67135928Y-92514199D01*
X67135928Y-92514199D02*
X67088309Y-92418961D01*
X67088309Y-92418961D02*
X67040690Y-92371342D01*
X67040690Y-92371342D02*
X66945452Y-92323723D01*
X66945452Y-92323723D02*
X66754976Y-92276104D01*
X66754976Y-92276104D02*
X66659738Y-92228485D01*
X66659738Y-92228485D02*
X66612119Y-92180866D01*
X66612119Y-92180866D02*
X66564500Y-92085628D01*
X66564500Y-92085628D02*
X66564500Y-91990390D01*
X66564500Y-91990390D02*
X66612119Y-91895152D01*
X66612119Y-91895152D02*
X66659738Y-91847533D01*
X66659738Y-91847533D02*
X66754976Y-91799914D01*
X66754976Y-91799914D02*
X66993071Y-91799914D01*
X66993071Y-91799914D02*
X67135928Y-91847533D01*
X67421643Y-91799914D02*
X67993071Y-91799914D01*
X67707357Y-92799914D02*
X67707357Y-91799914D01*
X68278786Y-92514199D02*
X68754976Y-92514199D01*
X68183548Y-92799914D02*
X68516881Y-91799914D01*
X68516881Y-91799914D02*
X68850214Y-92799914D01*
X69040691Y-91799914D02*
X69612119Y-91799914D01*
X69326405Y-92799914D02*
X69326405Y-91799914D01*
X69945453Y-91799914D02*
X69945453Y-92609437D01*
X69945453Y-92609437D02*
X69993072Y-92704675D01*
X69993072Y-92704675D02*
X70040691Y-92752295D01*
X70040691Y-92752295D02*
X70135929Y-92799914D01*
X70135929Y-92799914D02*
X70326405Y-92799914D01*
X70326405Y-92799914D02*
X70421643Y-92752295D01*
X70421643Y-92752295D02*
X70469262Y-92704675D01*
X70469262Y-92704675D02*
X70516881Y-92609437D01*
X70516881Y-92609437D02*
X70516881Y-91799914D01*
X70945453Y-92752295D02*
X71088310Y-92799914D01*
X71088310Y-92799914D02*
X71326405Y-92799914D01*
X71326405Y-92799914D02*
X71421643Y-92752295D01*
X71421643Y-92752295D02*
X71469262Y-92704675D01*
X71469262Y-92704675D02*
X71516881Y-92609437D01*
X71516881Y-92609437D02*
X71516881Y-92514199D01*
X71516881Y-92514199D02*
X71469262Y-92418961D01*
X71469262Y-92418961D02*
X71421643Y-92371342D01*
X71421643Y-92371342D02*
X71326405Y-92323723D01*
X71326405Y-92323723D02*
X71135929Y-92276104D01*
X71135929Y-92276104D02*
X71040691Y-92228485D01*
X71040691Y-92228485D02*
X70993072Y-92180866D01*
X70993072Y-92180866D02*
X70945453Y-92085628D01*
X70945453Y-92085628D02*
X70945453Y-91990390D01*
X70945453Y-91990390D02*
X70993072Y-91895152D01*
X70993072Y-91895152D02*
X71040691Y-91847533D01*
X71040691Y-91847533D02*
X71135929Y-91799914D01*
X71135929Y-91799914D02*
X71374024Y-91799914D01*
X71374024Y-91799914D02*
X71516881Y-91847533D01*
X73183548Y-92799914D02*
X72707358Y-92799914D01*
X72707358Y-92799914D02*
X72707358Y-91799914D01*
X73516882Y-92276104D02*
X73850215Y-92276104D01*
X73993072Y-92799914D02*
X73516882Y-92799914D01*
X73516882Y-92799914D02*
X73516882Y-91799914D01*
X73516882Y-91799914D02*
X73993072Y-91799914D01*
X74421644Y-92799914D02*
X74421644Y-91799914D01*
X74421644Y-91799914D02*
X74659739Y-91799914D01*
X74659739Y-91799914D02*
X74802596Y-91847533D01*
X74802596Y-91847533D02*
X74897834Y-91942771D01*
X74897834Y-91942771D02*
X74945453Y-92038009D01*
X74945453Y-92038009D02*
X74993072Y-92228485D01*
X74993072Y-92228485D02*
X74993072Y-92371342D01*
X74993072Y-92371342D02*
X74945453Y-92561818D01*
X74945453Y-92561818D02*
X74897834Y-92657056D01*
X74897834Y-92657056D02*
X74802596Y-92752295D01*
X74802596Y-92752295D02*
X74659739Y-92799914D01*
X74659739Y-92799914D02*
X74421644Y-92799914D01*
X71126260Y-84106783D02*
X71269117Y-84154402D01*
X71269117Y-84154402D02*
X71507212Y-84154402D01*
X71507212Y-84154402D02*
X71602450Y-84106783D01*
X71602450Y-84106783D02*
X71650069Y-84059163D01*
X71650069Y-84059163D02*
X71697688Y-83963925D01*
X71697688Y-83963925D02*
X71697688Y-83868687D01*
X71697688Y-83868687D02*
X71650069Y-83773449D01*
X71650069Y-83773449D02*
X71602450Y-83725830D01*
X71602450Y-83725830D02*
X71507212Y-83678211D01*
X71507212Y-83678211D02*
X71316736Y-83630592D01*
X71316736Y-83630592D02*
X71221498Y-83582973D01*
X71221498Y-83582973D02*
X71173879Y-83535354D01*
X71173879Y-83535354D02*
X71126260Y-83440116D01*
X71126260Y-83440116D02*
X71126260Y-83344878D01*
X71126260Y-83344878D02*
X71173879Y-83249640D01*
X71173879Y-83249640D02*
X71221498Y-83202021D01*
X71221498Y-83202021D02*
X71316736Y-83154402D01*
X71316736Y-83154402D02*
X71554831Y-83154402D01*
X71554831Y-83154402D02*
X71697688Y-83202021D01*
X72126260Y-84154402D02*
X72126260Y-83154402D01*
X73126259Y-83202021D02*
X73031021Y-83154402D01*
X73031021Y-83154402D02*
X72888164Y-83154402D01*
X72888164Y-83154402D02*
X72745307Y-83202021D01*
X72745307Y-83202021D02*
X72650069Y-83297259D01*
X72650069Y-83297259D02*
X72602450Y-83392497D01*
X72602450Y-83392497D02*
X72554831Y-83582973D01*
X72554831Y-83582973D02*
X72554831Y-83725830D01*
X72554831Y-83725830D02*
X72602450Y-83916306D01*
X72602450Y-83916306D02*
X72650069Y-84011544D01*
X72650069Y-84011544D02*
X72745307Y-84106783D01*
X72745307Y-84106783D02*
X72888164Y-84154402D01*
X72888164Y-84154402D02*
X72983402Y-84154402D01*
X72983402Y-84154402D02*
X73126259Y-84106783D01*
X73126259Y-84106783D02*
X73173878Y-84059163D01*
X73173878Y-84059163D02*
X73173878Y-83725830D01*
X73173878Y-83725830D02*
X72983402Y-83725830D01*
X71697688Y-88282021D02*
X71602450Y-88234402D01*
X71602450Y-88234402D02*
X71459593Y-88234402D01*
X71459593Y-88234402D02*
X71316736Y-88282021D01*
X71316736Y-88282021D02*
X71221498Y-88377259D01*
X71221498Y-88377259D02*
X71173879Y-88472497D01*
X71173879Y-88472497D02*
X71126260Y-88662973D01*
X71126260Y-88662973D02*
X71126260Y-88805830D01*
X71126260Y-88805830D02*
X71173879Y-88996306D01*
X71173879Y-88996306D02*
X71221498Y-89091544D01*
X71221498Y-89091544D02*
X71316736Y-89186783D01*
X71316736Y-89186783D02*
X71459593Y-89234402D01*
X71459593Y-89234402D02*
X71554831Y-89234402D01*
X71554831Y-89234402D02*
X71697688Y-89186783D01*
X71697688Y-89186783D02*
X71745307Y-89139163D01*
X71745307Y-89139163D02*
X71745307Y-88805830D01*
X71745307Y-88805830D02*
X71554831Y-88805830D01*
X72173879Y-89234402D02*
X72173879Y-88234402D01*
X72173879Y-88234402D02*
X72745307Y-89234402D01*
X72745307Y-89234402D02*
X72745307Y-88234402D01*
X73221498Y-89234402D02*
X73221498Y-88234402D01*
X73221498Y-88234402D02*
X73459593Y-88234402D01*
X73459593Y-88234402D02*
X73602450Y-88282021D01*
X73602450Y-88282021D02*
X73697688Y-88377259D01*
X73697688Y-88377259D02*
X73745307Y-88472497D01*
X73745307Y-88472497D02*
X73792926Y-88662973D01*
X73792926Y-88662973D02*
X73792926Y-88805830D01*
X73792926Y-88805830D02*
X73745307Y-88996306D01*
X73745307Y-88996306D02*
X73697688Y-89091544D01*
X73697688Y-89091544D02*
X73602450Y-89186783D01*
X73602450Y-89186783D02*
X73459593Y-89234402D01*
X73459593Y-89234402D02*
X73221498Y-89234402D01*
D11*
X78730283Y-94565375D02*
X78873140Y-94612994D01*
X78873140Y-94612994D02*
X79111235Y-94612994D01*
X79111235Y-94612994D02*
X79206473Y-94565375D01*
X79206473Y-94565375D02*
X79254092Y-94517755D01*
X79254092Y-94517755D02*
X79301711Y-94422517D01*
X79301711Y-94422517D02*
X79301711Y-94327279D01*
X79301711Y-94327279D02*
X79254092Y-94232041D01*
X79254092Y-94232041D02*
X79206473Y-94184422D01*
X79206473Y-94184422D02*
X79111235Y-94136803D01*
X79111235Y-94136803D02*
X78920759Y-94089184D01*
X78920759Y-94089184D02*
X78825521Y-94041565D01*
X78825521Y-94041565D02*
X78777902Y-93993946D01*
X78777902Y-93993946D02*
X78730283Y-93898708D01*
X78730283Y-93898708D02*
X78730283Y-93803470D01*
X78730283Y-93803470D02*
X78777902Y-93708232D01*
X78777902Y-93708232D02*
X78825521Y-93660613D01*
X78825521Y-93660613D02*
X78920759Y-93612994D01*
X78920759Y-93612994D02*
X79158854Y-93612994D01*
X79158854Y-93612994D02*
X79301711Y-93660613D01*
X80063616Y-94089184D02*
X80206473Y-94136803D01*
X80206473Y-94136803D02*
X80254092Y-94184422D01*
X80254092Y-94184422D02*
X80301711Y-94279660D01*
X80301711Y-94279660D02*
X80301711Y-94422517D01*
X80301711Y-94422517D02*
X80254092Y-94517755D01*
X80254092Y-94517755D02*
X80206473Y-94565375D01*
X80206473Y-94565375D02*
X80111235Y-94612994D01*
X80111235Y-94612994D02*
X79730283Y-94612994D01*
X79730283Y-94612994D02*
X79730283Y-93612994D01*
X79730283Y-93612994D02*
X80063616Y-93612994D01*
X80063616Y-93612994D02*
X80158854Y-93660613D01*
X80158854Y-93660613D02*
X80206473Y-93708232D01*
X80206473Y-93708232D02*
X80254092Y-93803470D01*
X80254092Y-93803470D02*
X80254092Y-93898708D01*
X80254092Y-93898708D02*
X80206473Y-93993946D01*
X80206473Y-93993946D02*
X80158854Y-94041565D01*
X80158854Y-94041565D02*
X80063616Y-94089184D01*
X80063616Y-94089184D02*
X79730283Y-94089184D01*
D10*
X71733050Y-65473224D02*
X71637812Y-65425605D01*
X71637812Y-65425605D02*
X71494955Y-65425605D01*
X71494955Y-65425605D02*
X71352098Y-65473224D01*
X71352098Y-65473224D02*
X71256860Y-65568462D01*
X71256860Y-65568462D02*
X71209241Y-65663700D01*
X71209241Y-65663700D02*
X71161622Y-65854176D01*
X71161622Y-65854176D02*
X71161622Y-65997033D01*
X71161622Y-65997033D02*
X71209241Y-66187509D01*
X71209241Y-66187509D02*
X71256860Y-66282747D01*
X71256860Y-66282747D02*
X71352098Y-66377986D01*
X71352098Y-66377986D02*
X71494955Y-66425605D01*
X71494955Y-66425605D02*
X71590193Y-66425605D01*
X71590193Y-66425605D02*
X71733050Y-66377986D01*
X71733050Y-66377986D02*
X71780669Y-66330366D01*
X71780669Y-66330366D02*
X71780669Y-65997033D01*
X71780669Y-65997033D02*
X71590193Y-65997033D01*
X72209241Y-66425605D02*
X72209241Y-65425605D01*
X72209241Y-65425605D02*
X72780669Y-66425605D01*
X72780669Y-66425605D02*
X72780669Y-65425605D01*
X73256860Y-66425605D02*
X73256860Y-65425605D01*
X73256860Y-65425605D02*
X73494955Y-65425605D01*
X73494955Y-65425605D02*
X73637812Y-65473224D01*
X73637812Y-65473224D02*
X73733050Y-65568462D01*
X73733050Y-65568462D02*
X73780669Y-65663700D01*
X73780669Y-65663700D02*
X73828288Y-65854176D01*
X73828288Y-65854176D02*
X73828288Y-65997033D01*
X73828288Y-65997033D02*
X73780669Y-66187509D01*
X73780669Y-66187509D02*
X73733050Y-66282747D01*
X73733050Y-66282747D02*
X73637812Y-66377986D01*
X73637812Y-66377986D02*
X73494955Y-66425605D01*
X73494955Y-66425605D02*
X73256860Y-66425605D01*
X70791752Y-52891733D02*
X71125085Y-53891733D01*
X71125085Y-53891733D02*
X71458418Y-52891733D01*
X72363180Y-53796494D02*
X72315561Y-53844114D01*
X72315561Y-53844114D02*
X72172704Y-53891733D01*
X72172704Y-53891733D02*
X72077466Y-53891733D01*
X72077466Y-53891733D02*
X71934609Y-53844114D01*
X71934609Y-53844114D02*
X71839371Y-53748875D01*
X71839371Y-53748875D02*
X71791752Y-53653637D01*
X71791752Y-53653637D02*
X71744133Y-53463161D01*
X71744133Y-53463161D02*
X71744133Y-53320304D01*
X71744133Y-53320304D02*
X71791752Y-53129828D01*
X71791752Y-53129828D02*
X71839371Y-53034590D01*
X71839371Y-53034590D02*
X71934609Y-52939352D01*
X71934609Y-52939352D02*
X72077466Y-52891733D01*
X72077466Y-52891733D02*
X72172704Y-52891733D01*
X72172704Y-52891733D02*
X72315561Y-52939352D01*
X72315561Y-52939352D02*
X72363180Y-52986971D01*
X73363180Y-53796494D02*
X73315561Y-53844114D01*
X73315561Y-53844114D02*
X73172704Y-53891733D01*
X73172704Y-53891733D02*
X73077466Y-53891733D01*
X73077466Y-53891733D02*
X72934609Y-53844114D01*
X72934609Y-53844114D02*
X72839371Y-53748875D01*
X72839371Y-53748875D02*
X72791752Y-53653637D01*
X72791752Y-53653637D02*
X72744133Y-53463161D01*
X72744133Y-53463161D02*
X72744133Y-53320304D01*
X72744133Y-53320304D02*
X72791752Y-53129828D01*
X72791752Y-53129828D02*
X72839371Y-53034590D01*
X72839371Y-53034590D02*
X72934609Y-52939352D01*
X72934609Y-52939352D02*
X73077466Y-52891733D01*
X73077466Y-52891733D02*
X73172704Y-52891733D01*
X73172704Y-52891733D02*
X73315561Y-52939352D01*
X73315561Y-52939352D02*
X73363180Y-52986971D01*
X59331728Y-96074400D02*
X59379347Y-96026781D01*
X59379347Y-96026781D02*
X59474585Y-95979162D01*
X59474585Y-95979162D02*
X59712680Y-95979162D01*
X59712680Y-95979162D02*
X59807918Y-96026781D01*
X59807918Y-96026781D02*
X59855537Y-96074400D01*
X59855537Y-96074400D02*
X59903156Y-96169638D01*
X59903156Y-96169638D02*
X59903156Y-96264876D01*
X59903156Y-96264876D02*
X59855537Y-96407733D01*
X59855537Y-96407733D02*
X59284109Y-96979162D01*
X59284109Y-96979162D02*
X59903156Y-96979162D01*
X60284109Y-96074400D02*
X60331728Y-96026781D01*
X60331728Y-96026781D02*
X60426966Y-95979162D01*
X60426966Y-95979162D02*
X60665061Y-95979162D01*
X60665061Y-95979162D02*
X60760299Y-96026781D01*
X60760299Y-96026781D02*
X60807918Y-96074400D01*
X60807918Y-96074400D02*
X60855537Y-96169638D01*
X60855537Y-96169638D02*
X60855537Y-96264876D01*
X60855537Y-96264876D02*
X60807918Y-96407733D01*
X60807918Y-96407733D02*
X60236490Y-96979162D01*
X60236490Y-96979162D02*
X60855537Y-96979162D01*
X61474585Y-95979162D02*
X61569823Y-95979162D01*
X61569823Y-95979162D02*
X61665061Y-96026781D01*
X61665061Y-96026781D02*
X61712680Y-96074400D01*
X61712680Y-96074400D02*
X61760299Y-96169638D01*
X61760299Y-96169638D02*
X61807918Y-96360114D01*
X61807918Y-96360114D02*
X61807918Y-96598209D01*
X61807918Y-96598209D02*
X61760299Y-96788685D01*
X61760299Y-96788685D02*
X61712680Y-96883923D01*
X61712680Y-96883923D02*
X61665061Y-96931543D01*
X61665061Y-96931543D02*
X61569823Y-96979162D01*
X61569823Y-96979162D02*
X61474585Y-96979162D01*
X61474585Y-96979162D02*
X61379347Y-96931543D01*
X61379347Y-96931543D02*
X61331728Y-96883923D01*
X61331728Y-96883923D02*
X61284109Y-96788685D01*
X61284109Y-96788685D02*
X61236490Y-96598209D01*
X61236490Y-96598209D02*
X61236490Y-96360114D01*
X61236490Y-96360114D02*
X61284109Y-96169638D01*
X61284109Y-96169638D02*
X61331728Y-96074400D01*
X61331728Y-96074400D02*
X61379347Y-96026781D01*
X61379347Y-96026781D02*
X61474585Y-95979162D01*
X62188871Y-96979162D02*
X62426966Y-96979162D01*
X62426966Y-96979162D02*
X62426966Y-96788685D01*
X62426966Y-96788685D02*
X62331728Y-96741066D01*
X62331728Y-96741066D02*
X62236490Y-96645828D01*
X62236490Y-96645828D02*
X62188871Y-96502971D01*
X62188871Y-96502971D02*
X62188871Y-96264876D01*
X62188871Y-96264876D02*
X62236490Y-96122019D01*
X62236490Y-96122019D02*
X62331728Y-96026781D01*
X62331728Y-96026781D02*
X62474585Y-95979162D01*
X62474585Y-95979162D02*
X62665061Y-95979162D01*
X62665061Y-95979162D02*
X62807918Y-96026781D01*
X62807918Y-96026781D02*
X62903156Y-96122019D01*
X62903156Y-96122019D02*
X62950775Y-96264876D01*
X62950775Y-96264876D02*
X62950775Y-96502971D01*
X62950775Y-96502971D02*
X62903156Y-96645828D01*
X62903156Y-96645828D02*
X62807918Y-96741066D01*
X62807918Y-96741066D02*
X62712680Y-96788685D01*
X62712680Y-96788685D02*
X62712680Y-96979162D01*
X62712680Y-96979162D02*
X62950775Y-96979162D01*
X53658561Y-61922543D02*
X53658561Y-62493971D01*
X53658561Y-62208257D02*
X52658561Y-62208257D01*
X52658561Y-62208257D02*
X52801418Y-62303495D01*
X52801418Y-62303495D02*
X52896656Y-62398733D01*
X52896656Y-62398733D02*
X52944275Y-62493971D01*
X52658561Y-61303495D02*
X52658561Y-61208257D01*
X52658561Y-61208257D02*
X52706180Y-61113019D01*
X52706180Y-61113019D02*
X52753799Y-61065400D01*
X52753799Y-61065400D02*
X52849037Y-61017781D01*
X52849037Y-61017781D02*
X53039513Y-60970162D01*
X53039513Y-60970162D02*
X53277608Y-60970162D01*
X53277608Y-60970162D02*
X53468084Y-61017781D01*
X53468084Y-61017781D02*
X53563322Y-61065400D01*
X53563322Y-61065400D02*
X53610942Y-61113019D01*
X53610942Y-61113019D02*
X53658561Y-61208257D01*
X53658561Y-61208257D02*
X53658561Y-61303495D01*
X53658561Y-61303495D02*
X53610942Y-61398733D01*
X53610942Y-61398733D02*
X53563322Y-61446352D01*
X53563322Y-61446352D02*
X53468084Y-61493971D01*
X53468084Y-61493971D02*
X53277608Y-61541590D01*
X53277608Y-61541590D02*
X53039513Y-61541590D01*
X53039513Y-61541590D02*
X52849037Y-61493971D01*
X52849037Y-61493971D02*
X52753799Y-61446352D01*
X52753799Y-61446352D02*
X52706180Y-61398733D01*
X52706180Y-61398733D02*
X52658561Y-61303495D01*
X52658561Y-60351114D02*
X52658561Y-60255876D01*
X52658561Y-60255876D02*
X52706180Y-60160638D01*
X52706180Y-60160638D02*
X52753799Y-60113019D01*
X52753799Y-60113019D02*
X52849037Y-60065400D01*
X52849037Y-60065400D02*
X53039513Y-60017781D01*
X53039513Y-60017781D02*
X53277608Y-60017781D01*
X53277608Y-60017781D02*
X53468084Y-60065400D01*
X53468084Y-60065400D02*
X53563322Y-60113019D01*
X53563322Y-60113019D02*
X53610942Y-60160638D01*
X53610942Y-60160638D02*
X53658561Y-60255876D01*
X53658561Y-60255876D02*
X53658561Y-60351114D01*
X53658561Y-60351114D02*
X53610942Y-60446352D01*
X53610942Y-60446352D02*
X53563322Y-60493971D01*
X53563322Y-60493971D02*
X53468084Y-60541590D01*
X53468084Y-60541590D02*
X53277608Y-60589209D01*
X53277608Y-60589209D02*
X53039513Y-60589209D01*
X53039513Y-60589209D02*
X52849037Y-60541590D01*
X52849037Y-60541590D02*
X52753799Y-60493971D01*
X52753799Y-60493971D02*
X52706180Y-60446352D01*
X52706180Y-60446352D02*
X52658561Y-60351114D01*
X53658561Y-59636828D02*
X53658561Y-59398733D01*
X53658561Y-59398733D02*
X53468084Y-59398733D01*
X53468084Y-59398733D02*
X53420465Y-59493971D01*
X53420465Y-59493971D02*
X53325227Y-59589209D01*
X53325227Y-59589209D02*
X53182370Y-59636828D01*
X53182370Y-59636828D02*
X52944275Y-59636828D01*
X52944275Y-59636828D02*
X52801418Y-59589209D01*
X52801418Y-59589209D02*
X52706180Y-59493971D01*
X52706180Y-59493971D02*
X52658561Y-59351114D01*
X52658561Y-59351114D02*
X52658561Y-59160638D01*
X52658561Y-59160638D02*
X52706180Y-59017781D01*
X52706180Y-59017781D02*
X52801418Y-58922543D01*
X52801418Y-58922543D02*
X52944275Y-58874924D01*
X52944275Y-58874924D02*
X53182370Y-58874924D01*
X53182370Y-58874924D02*
X53325227Y-58922543D01*
X53325227Y-58922543D02*
X53420465Y-59017781D01*
X53420465Y-59017781D02*
X53468084Y-59113019D01*
X53468084Y-59113019D02*
X53658561Y-59113019D01*
X53658561Y-59113019D02*
X53658561Y-58874924D01*
X85944104Y-88610839D02*
X85944104Y-88134649D01*
X86229819Y-88706077D02*
X85229819Y-88372744D01*
X85229819Y-88372744D02*
X86229819Y-88039411D01*
X86229819Y-87706077D02*
X85563152Y-87706077D01*
X85753628Y-87706077D02*
X85658390Y-87658458D01*
X85658390Y-87658458D02*
X85610771Y-87610839D01*
X85610771Y-87610839D02*
X85563152Y-87515601D01*
X85563152Y-87515601D02*
X85563152Y-87420363D01*
X86229819Y-86658458D02*
X85229819Y-86658458D01*
X86182200Y-86658458D02*
X86229819Y-86753696D01*
X86229819Y-86753696D02*
X86229819Y-86944172D01*
X86229819Y-86944172D02*
X86182200Y-87039410D01*
X86182200Y-87039410D02*
X86134580Y-87087029D01*
X86134580Y-87087029D02*
X86039342Y-87134648D01*
X86039342Y-87134648D02*
X85753628Y-87134648D01*
X85753628Y-87134648D02*
X85658390Y-87087029D01*
X85658390Y-87087029D02*
X85610771Y-87039410D01*
X85610771Y-87039410D02*
X85563152Y-86944172D01*
X85563152Y-86944172D02*
X85563152Y-86753696D01*
X85563152Y-86753696D02*
X85610771Y-86658458D01*
X85563152Y-85753696D02*
X86229819Y-85753696D01*
X85563152Y-86182267D02*
X86086961Y-86182267D01*
X86086961Y-86182267D02*
X86182200Y-86134648D01*
X86182200Y-86134648D02*
X86229819Y-86039410D01*
X86229819Y-86039410D02*
X86229819Y-85896553D01*
X86229819Y-85896553D02*
X86182200Y-85801315D01*
X86182200Y-85801315D02*
X86134580Y-85753696D01*
X86229819Y-85277505D02*
X85563152Y-85277505D01*
X85229819Y-85277505D02*
X85277438Y-85325124D01*
X85277438Y-85325124D02*
X85325057Y-85277505D01*
X85325057Y-85277505D02*
X85277438Y-85229886D01*
X85277438Y-85229886D02*
X85229819Y-85277505D01*
X85229819Y-85277505D02*
X85325057Y-85277505D01*
X85563152Y-84801315D02*
X86229819Y-84801315D01*
X85658390Y-84801315D02*
X85610771Y-84753696D01*
X85610771Y-84753696D02*
X85563152Y-84658458D01*
X85563152Y-84658458D02*
X85563152Y-84515601D01*
X85563152Y-84515601D02*
X85610771Y-84420363D01*
X85610771Y-84420363D02*
X85706009Y-84372744D01*
X85706009Y-84372744D02*
X86229819Y-84372744D01*
X86229819Y-83753696D02*
X86182200Y-83848934D01*
X86182200Y-83848934D02*
X86134580Y-83896553D01*
X86134580Y-83896553D02*
X86039342Y-83944172D01*
X86039342Y-83944172D02*
X85753628Y-83944172D01*
X85753628Y-83944172D02*
X85658390Y-83896553D01*
X85658390Y-83896553D02*
X85610771Y-83848934D01*
X85610771Y-83848934D02*
X85563152Y-83753696D01*
X85563152Y-83753696D02*
X85563152Y-83610839D01*
X85563152Y-83610839D02*
X85610771Y-83515601D01*
X85610771Y-83515601D02*
X85658390Y-83467982D01*
X85658390Y-83467982D02*
X85753628Y-83420363D01*
X85753628Y-83420363D02*
X86039342Y-83420363D01*
X86039342Y-83420363D02*
X86134580Y-83467982D01*
X86134580Y-83467982D02*
X86182200Y-83515601D01*
X86182200Y-83515601D02*
X86229819Y-83610839D01*
X86229819Y-83610839D02*
X86229819Y-83753696D01*
X86229819Y-82229886D02*
X85229819Y-82229886D01*
X85229819Y-82229886D02*
X86229819Y-81658458D01*
X86229819Y-81658458D02*
X85229819Y-81658458D01*
X86229819Y-80753696D02*
X85706009Y-80753696D01*
X85706009Y-80753696D02*
X85610771Y-80801315D01*
X85610771Y-80801315D02*
X85563152Y-80896553D01*
X85563152Y-80896553D02*
X85563152Y-81087029D01*
X85563152Y-81087029D02*
X85610771Y-81182267D01*
X86182200Y-80753696D02*
X86229819Y-80848934D01*
X86229819Y-80848934D02*
X86229819Y-81087029D01*
X86229819Y-81087029D02*
X86182200Y-81182267D01*
X86182200Y-81182267D02*
X86086961Y-81229886D01*
X86086961Y-81229886D02*
X85991723Y-81229886D01*
X85991723Y-81229886D02*
X85896485Y-81182267D01*
X85896485Y-81182267D02*
X85848866Y-81087029D01*
X85848866Y-81087029D02*
X85848866Y-80848934D01*
X85848866Y-80848934D02*
X85801247Y-80753696D01*
X85563152Y-80277505D02*
X86229819Y-80277505D01*
X85658390Y-80277505D02*
X85610771Y-80229886D01*
X85610771Y-80229886D02*
X85563152Y-80134648D01*
X85563152Y-80134648D02*
X85563152Y-79991791D01*
X85563152Y-79991791D02*
X85610771Y-79896553D01*
X85610771Y-79896553D02*
X85706009Y-79848934D01*
X85706009Y-79848934D02*
X86229819Y-79848934D01*
X86229819Y-79229886D02*
X86182200Y-79325124D01*
X86182200Y-79325124D02*
X86134580Y-79372743D01*
X86134580Y-79372743D02*
X86039342Y-79420362D01*
X86039342Y-79420362D02*
X85753628Y-79420362D01*
X85753628Y-79420362D02*
X85658390Y-79372743D01*
X85658390Y-79372743D02*
X85610771Y-79325124D01*
X85610771Y-79325124D02*
X85563152Y-79229886D01*
X85563152Y-79229886D02*
X85563152Y-79087029D01*
X85563152Y-79087029D02*
X85610771Y-78991791D01*
X85610771Y-78991791D02*
X85658390Y-78944172D01*
X85658390Y-78944172D02*
X85753628Y-78896553D01*
X85753628Y-78896553D02*
X86039342Y-78896553D01*
X86039342Y-78896553D02*
X86134580Y-78944172D01*
X86134580Y-78944172D02*
X86182200Y-78991791D01*
X86182200Y-78991791D02*
X86229819Y-79087029D01*
X86229819Y-79087029D02*
X86229819Y-79229886D01*
X61855541Y-52923635D02*
X61760303Y-52876016D01*
X61760303Y-52876016D02*
X61617446Y-52876016D01*
X61617446Y-52876016D02*
X61474589Y-52923635D01*
X61474589Y-52923635D02*
X61379351Y-53018873D01*
X61379351Y-53018873D02*
X61331732Y-53114111D01*
X61331732Y-53114111D02*
X61284113Y-53304587D01*
X61284113Y-53304587D02*
X61284113Y-53447444D01*
X61284113Y-53447444D02*
X61331732Y-53637920D01*
X61331732Y-53637920D02*
X61379351Y-53733158D01*
X61379351Y-53733158D02*
X61474589Y-53828397D01*
X61474589Y-53828397D02*
X61617446Y-53876016D01*
X61617446Y-53876016D02*
X61712684Y-53876016D01*
X61712684Y-53876016D02*
X61855541Y-53828397D01*
X61855541Y-53828397D02*
X61903160Y-53780777D01*
X61903160Y-53780777D02*
X61903160Y-53447444D01*
X61903160Y-53447444D02*
X61712684Y-53447444D01*
X62331732Y-53876016D02*
X62331732Y-52876016D01*
X62331732Y-52876016D02*
X62903160Y-53876016D01*
X62903160Y-53876016D02*
X62903160Y-52876016D01*
X63379351Y-53876016D02*
X63379351Y-52876016D01*
X63379351Y-52876016D02*
X63617446Y-52876016D01*
X63617446Y-52876016D02*
X63760303Y-52923635D01*
X63760303Y-52923635D02*
X63855541Y-53018873D01*
X63855541Y-53018873D02*
X63903160Y-53114111D01*
X63903160Y-53114111D02*
X63950779Y-53304587D01*
X63950779Y-53304587D02*
X63950779Y-53447444D01*
X63950779Y-53447444D02*
X63903160Y-53637920D01*
X63903160Y-53637920D02*
X63855541Y-53733158D01*
X63855541Y-53733158D02*
X63760303Y-53828397D01*
X63760303Y-53828397D02*
X63617446Y-53876016D01*
X63617446Y-53876016D02*
X63379351Y-53876016D01*
D11*
X78919441Y-71658147D02*
X79062298Y-71705766D01*
X79062298Y-71705766D02*
X79300393Y-71705766D01*
X79300393Y-71705766D02*
X79395631Y-71658147D01*
X79395631Y-71658147D02*
X79443250Y-71610527D01*
X79443250Y-71610527D02*
X79490869Y-71515289D01*
X79490869Y-71515289D02*
X79490869Y-71420051D01*
X79490869Y-71420051D02*
X79443250Y-71324813D01*
X79443250Y-71324813D02*
X79395631Y-71277194D01*
X79395631Y-71277194D02*
X79300393Y-71229575D01*
X79300393Y-71229575D02*
X79109917Y-71181956D01*
X79109917Y-71181956D02*
X79014679Y-71134337D01*
X79014679Y-71134337D02*
X78967060Y-71086718D01*
X78967060Y-71086718D02*
X78919441Y-70991480D01*
X78919441Y-70991480D02*
X78919441Y-70896242D01*
X78919441Y-70896242D02*
X78967060Y-70801004D01*
X78967060Y-70801004D02*
X79014679Y-70753385D01*
X79014679Y-70753385D02*
X79109917Y-70705766D01*
X79109917Y-70705766D02*
X79348012Y-70705766D01*
X79348012Y-70705766D02*
X79490869Y-70753385D01*
X80300393Y-71658147D02*
X80205155Y-71705766D01*
X80205155Y-71705766D02*
X80014679Y-71705766D01*
X80014679Y-71705766D02*
X79919441Y-71658147D01*
X79919441Y-71658147D02*
X79871822Y-71562908D01*
X79871822Y-71562908D02*
X79871822Y-71181956D01*
X79871822Y-71181956D02*
X79919441Y-71086718D01*
X79919441Y-71086718D02*
X80014679Y-71039099D01*
X80014679Y-71039099D02*
X80205155Y-71039099D01*
X80205155Y-71039099D02*
X80300393Y-71086718D01*
X80300393Y-71086718D02*
X80348012Y-71181956D01*
X80348012Y-71181956D02*
X80348012Y-71277194D01*
X80348012Y-71277194D02*
X79871822Y-71372432D01*
X80776584Y-71705766D02*
X80776584Y-71039099D01*
X80776584Y-71229575D02*
X80824203Y-71134337D01*
X80824203Y-71134337D02*
X80871822Y-71086718D01*
X80871822Y-71086718D02*
X80967060Y-71039099D01*
X80967060Y-71039099D02*
X81062298Y-71039099D01*
X81300394Y-71039099D02*
X81538489Y-71705766D01*
X81538489Y-71705766D02*
X81776584Y-71039099D01*
X82300394Y-71705766D02*
X82205156Y-71658147D01*
X82205156Y-71658147D02*
X82157537Y-71610527D01*
X82157537Y-71610527D02*
X82109918Y-71515289D01*
X82109918Y-71515289D02*
X82109918Y-71229575D01*
X82109918Y-71229575D02*
X82157537Y-71134337D01*
X82157537Y-71134337D02*
X82205156Y-71086718D01*
X82205156Y-71086718D02*
X82300394Y-71039099D01*
X82300394Y-71039099D02*
X82443251Y-71039099D01*
X82443251Y-71039099D02*
X82538489Y-71086718D01*
X82538489Y-71086718D02*
X82586108Y-71134337D01*
X82586108Y-71134337D02*
X82633727Y-71229575D01*
X82633727Y-71229575D02*
X82633727Y-71515289D01*
X82633727Y-71515289D02*
X82586108Y-71610527D01*
X82586108Y-71610527D02*
X82538489Y-71658147D01*
X82538489Y-71658147D02*
X82443251Y-71705766D01*
X82443251Y-71705766D02*
X82300394Y-71705766D01*
X84348013Y-71705766D02*
X83776585Y-71705766D01*
X84062299Y-71705766D02*
X84062299Y-70705766D01*
X84062299Y-70705766D02*
X83967061Y-70848623D01*
X83967061Y-70848623D02*
X83871823Y-70943861D01*
X83871823Y-70943861D02*
X83776585Y-70991480D01*
D10*
X53793986Y-87291103D02*
X53793986Y-87862531D01*
X53793986Y-87576817D02*
X52793986Y-87576817D01*
X52793986Y-87576817D02*
X52936843Y-87672055D01*
X52936843Y-87672055D02*
X53032081Y-87767293D01*
X53032081Y-87767293D02*
X53079700Y-87862531D01*
X52793986Y-86672055D02*
X52793986Y-86576817D01*
X52793986Y-86576817D02*
X52841605Y-86481579D01*
X52841605Y-86481579D02*
X52889224Y-86433960D01*
X52889224Y-86433960D02*
X52984462Y-86386341D01*
X52984462Y-86386341D02*
X53174938Y-86338722D01*
X53174938Y-86338722D02*
X53413033Y-86338722D01*
X53413033Y-86338722D02*
X53603509Y-86386341D01*
X53603509Y-86386341D02*
X53698747Y-86433960D01*
X53698747Y-86433960D02*
X53746367Y-86481579D01*
X53746367Y-86481579D02*
X53793986Y-86576817D01*
X53793986Y-86576817D02*
X53793986Y-86672055D01*
X53793986Y-86672055D02*
X53746367Y-86767293D01*
X53746367Y-86767293D02*
X53698747Y-86814912D01*
X53698747Y-86814912D02*
X53603509Y-86862531D01*
X53603509Y-86862531D02*
X53413033Y-86910150D01*
X53413033Y-86910150D02*
X53174938Y-86910150D01*
X53174938Y-86910150D02*
X52984462Y-86862531D01*
X52984462Y-86862531D02*
X52889224Y-86814912D01*
X52889224Y-86814912D02*
X52841605Y-86767293D01*
X52841605Y-86767293D02*
X52793986Y-86672055D01*
X52793986Y-85719674D02*
X52793986Y-85624436D01*
X52793986Y-85624436D02*
X52841605Y-85529198D01*
X52841605Y-85529198D02*
X52889224Y-85481579D01*
X52889224Y-85481579D02*
X52984462Y-85433960D01*
X52984462Y-85433960D02*
X53174938Y-85386341D01*
X53174938Y-85386341D02*
X53413033Y-85386341D01*
X53413033Y-85386341D02*
X53603509Y-85433960D01*
X53603509Y-85433960D02*
X53698747Y-85481579D01*
X53698747Y-85481579D02*
X53746367Y-85529198D01*
X53746367Y-85529198D02*
X53793986Y-85624436D01*
X53793986Y-85624436D02*
X53793986Y-85719674D01*
X53793986Y-85719674D02*
X53746367Y-85814912D01*
X53746367Y-85814912D02*
X53698747Y-85862531D01*
X53698747Y-85862531D02*
X53603509Y-85910150D01*
X53603509Y-85910150D02*
X53413033Y-85957769D01*
X53413033Y-85957769D02*
X53174938Y-85957769D01*
X53174938Y-85957769D02*
X52984462Y-85910150D01*
X52984462Y-85910150D02*
X52889224Y-85862531D01*
X52889224Y-85862531D02*
X52841605Y-85814912D01*
X52841605Y-85814912D02*
X52793986Y-85719674D01*
X53793986Y-85005388D02*
X53793986Y-84767293D01*
X53793986Y-84767293D02*
X53603509Y-84767293D01*
X53603509Y-84767293D02*
X53555890Y-84862531D01*
X53555890Y-84862531D02*
X53460652Y-84957769D01*
X53460652Y-84957769D02*
X53317795Y-85005388D01*
X53317795Y-85005388D02*
X53079700Y-85005388D01*
X53079700Y-85005388D02*
X52936843Y-84957769D01*
X52936843Y-84957769D02*
X52841605Y-84862531D01*
X52841605Y-84862531D02*
X52793986Y-84719674D01*
X52793986Y-84719674D02*
X52793986Y-84529198D01*
X52793986Y-84529198D02*
X52841605Y-84386341D01*
X52841605Y-84386341D02*
X52936843Y-84291103D01*
X52936843Y-84291103D02*
X53079700Y-84243484D01*
X53079700Y-84243484D02*
X53317795Y-84243484D01*
X53317795Y-84243484D02*
X53460652Y-84291103D01*
X53460652Y-84291103D02*
X53555890Y-84386341D01*
X53555890Y-84386341D02*
X53603509Y-84481579D01*
X53603509Y-84481579D02*
X53793986Y-84481579D01*
X53793986Y-84481579D02*
X53793986Y-84243484D01*
X71768413Y-75905155D02*
X71673175Y-75857536D01*
X71673175Y-75857536D02*
X71530318Y-75857536D01*
X71530318Y-75857536D02*
X71387461Y-75905155D01*
X71387461Y-75905155D02*
X71292223Y-76000393D01*
X71292223Y-76000393D02*
X71244604Y-76095631D01*
X71244604Y-76095631D02*
X71196985Y-76286107D01*
X71196985Y-76286107D02*
X71196985Y-76428964D01*
X71196985Y-76428964D02*
X71244604Y-76619440D01*
X71244604Y-76619440D02*
X71292223Y-76714678D01*
X71292223Y-76714678D02*
X71387461Y-76809917D01*
X71387461Y-76809917D02*
X71530318Y-76857536D01*
X71530318Y-76857536D02*
X71625556Y-76857536D01*
X71625556Y-76857536D02*
X71768413Y-76809917D01*
X71768413Y-76809917D02*
X71816032Y-76762297D01*
X71816032Y-76762297D02*
X71816032Y-76428964D01*
X71816032Y-76428964D02*
X71625556Y-76428964D01*
X72244604Y-76857536D02*
X72244604Y-75857536D01*
X72244604Y-75857536D02*
X72816032Y-76857536D01*
X72816032Y-76857536D02*
X72816032Y-75857536D01*
X73292223Y-76857536D02*
X73292223Y-75857536D01*
X73292223Y-75857536D02*
X73530318Y-75857536D01*
X73530318Y-75857536D02*
X73673175Y-75905155D01*
X73673175Y-75905155D02*
X73768413Y-76000393D01*
X73768413Y-76000393D02*
X73816032Y-76095631D01*
X73816032Y-76095631D02*
X73863651Y-76286107D01*
X73863651Y-76286107D02*
X73863651Y-76428964D01*
X73863651Y-76428964D02*
X73816032Y-76619440D01*
X73816032Y-76619440D02*
X73768413Y-76714678D01*
X73768413Y-76714678D02*
X73673175Y-76809917D01*
X73673175Y-76809917D02*
X73530318Y-76857536D01*
X73530318Y-76857536D02*
X73292223Y-76857536D01*
X53762552Y-74686345D02*
X53762552Y-75257773D01*
X53762552Y-74972059D02*
X52762552Y-74972059D01*
X52762552Y-74972059D02*
X52905409Y-75067297D01*
X52905409Y-75067297D02*
X53000647Y-75162535D01*
X53000647Y-75162535D02*
X53048266Y-75257773D01*
X52762552Y-74067297D02*
X52762552Y-73972059D01*
X52762552Y-73972059D02*
X52810171Y-73876821D01*
X52810171Y-73876821D02*
X52857790Y-73829202D01*
X52857790Y-73829202D02*
X52953028Y-73781583D01*
X52953028Y-73781583D02*
X53143504Y-73733964D01*
X53143504Y-73733964D02*
X53381599Y-73733964D01*
X53381599Y-73733964D02*
X53572075Y-73781583D01*
X53572075Y-73781583D02*
X53667313Y-73829202D01*
X53667313Y-73829202D02*
X53714933Y-73876821D01*
X53714933Y-73876821D02*
X53762552Y-73972059D01*
X53762552Y-73972059D02*
X53762552Y-74067297D01*
X53762552Y-74067297D02*
X53714933Y-74162535D01*
X53714933Y-74162535D02*
X53667313Y-74210154D01*
X53667313Y-74210154D02*
X53572075Y-74257773D01*
X53572075Y-74257773D02*
X53381599Y-74305392D01*
X53381599Y-74305392D02*
X53143504Y-74305392D01*
X53143504Y-74305392D02*
X52953028Y-74257773D01*
X52953028Y-74257773D02*
X52857790Y-74210154D01*
X52857790Y-74210154D02*
X52810171Y-74162535D01*
X52810171Y-74162535D02*
X52762552Y-74067297D01*
X52762552Y-73114916D02*
X52762552Y-73019678D01*
X52762552Y-73019678D02*
X52810171Y-72924440D01*
X52810171Y-72924440D02*
X52857790Y-72876821D01*
X52857790Y-72876821D02*
X52953028Y-72829202D01*
X52953028Y-72829202D02*
X53143504Y-72781583D01*
X53143504Y-72781583D02*
X53381599Y-72781583D01*
X53381599Y-72781583D02*
X53572075Y-72829202D01*
X53572075Y-72829202D02*
X53667313Y-72876821D01*
X53667313Y-72876821D02*
X53714933Y-72924440D01*
X53714933Y-72924440D02*
X53762552Y-73019678D01*
X53762552Y-73019678D02*
X53762552Y-73114916D01*
X53762552Y-73114916D02*
X53714933Y-73210154D01*
X53714933Y-73210154D02*
X53667313Y-73257773D01*
X53667313Y-73257773D02*
X53572075Y-73305392D01*
X53572075Y-73305392D02*
X53381599Y-73353011D01*
X53381599Y-73353011D02*
X53143504Y-73353011D01*
X53143504Y-73353011D02*
X52953028Y-73305392D01*
X52953028Y-73305392D02*
X52857790Y-73257773D01*
X52857790Y-73257773D02*
X52810171Y-73210154D01*
X52810171Y-73210154D02*
X52762552Y-73114916D01*
X53762552Y-72400630D02*
X53762552Y-72162535D01*
X53762552Y-72162535D02*
X53572075Y-72162535D01*
X53572075Y-72162535D02*
X53524456Y-72257773D01*
X53524456Y-72257773D02*
X53429218Y-72353011D01*
X53429218Y-72353011D02*
X53286361Y-72400630D01*
X53286361Y-72400630D02*
X53048266Y-72400630D01*
X53048266Y-72400630D02*
X52905409Y-72353011D01*
X52905409Y-72353011D02*
X52810171Y-72257773D01*
X52810171Y-72257773D02*
X52762552Y-72114916D01*
X52762552Y-72114916D02*
X52762552Y-71924440D01*
X52762552Y-71924440D02*
X52810171Y-71781583D01*
X52810171Y-71781583D02*
X52905409Y-71686345D01*
X52905409Y-71686345D02*
X53048266Y-71638726D01*
X53048266Y-71638726D02*
X53286361Y-71638726D01*
X53286361Y-71638726D02*
X53429218Y-71686345D01*
X53429218Y-71686345D02*
X53524456Y-71781583D01*
X53524456Y-71781583D02*
X53572075Y-71876821D01*
X53572075Y-71876821D02*
X53762552Y-71876821D01*
X53762552Y-71876821D02*
X53762552Y-71638726D01*
X66075552Y-46071267D02*
X65742219Y-45595076D01*
X65504124Y-46071267D02*
X65504124Y-45071267D01*
X65504124Y-45071267D02*
X65885076Y-45071267D01*
X65885076Y-45071267D02*
X65980314Y-45118886D01*
X65980314Y-45118886D02*
X66027933Y-45166505D01*
X66027933Y-45166505D02*
X66075552Y-45261743D01*
X66075552Y-45261743D02*
X66075552Y-45404600D01*
X66075552Y-45404600D02*
X66027933Y-45499838D01*
X66027933Y-45499838D02*
X65980314Y-45547457D01*
X65980314Y-45547457D02*
X65885076Y-45595076D01*
X65885076Y-45595076D02*
X65504124Y-45595076D01*
X66980314Y-45071267D02*
X66504124Y-45071267D01*
X66504124Y-45071267D02*
X66456505Y-45547457D01*
X66456505Y-45547457D02*
X66504124Y-45499838D01*
X66504124Y-45499838D02*
X66599362Y-45452219D01*
X66599362Y-45452219D02*
X66837457Y-45452219D01*
X66837457Y-45452219D02*
X66932695Y-45499838D01*
X66932695Y-45499838D02*
X66980314Y-45547457D01*
X66980314Y-45547457D02*
X67027933Y-45642695D01*
X67027933Y-45642695D02*
X67027933Y-45880790D01*
X67027933Y-45880790D02*
X66980314Y-45976028D01*
X66980314Y-45976028D02*
X66932695Y-46023648D01*
X66932695Y-46023648D02*
X66837457Y-46071267D01*
X66837457Y-46071267D02*
X66599362Y-46071267D01*
X66599362Y-46071267D02*
X66504124Y-46023648D01*
X66504124Y-46023648D02*
X66456505Y-45976028D01*
X62701263Y-49590145D02*
X61701263Y-49590145D01*
X61701263Y-49590145D02*
X61701263Y-49352050D01*
X61701263Y-49352050D02*
X61748882Y-49209193D01*
X61748882Y-49209193D02*
X61844120Y-49113955D01*
X61844120Y-49113955D02*
X61939358Y-49066336D01*
X61939358Y-49066336D02*
X62129834Y-49018717D01*
X62129834Y-49018717D02*
X62272691Y-49018717D01*
X62272691Y-49018717D02*
X62463167Y-49066336D01*
X62463167Y-49066336D02*
X62558405Y-49113955D01*
X62558405Y-49113955D02*
X62653644Y-49209193D01*
X62653644Y-49209193D02*
X62701263Y-49352050D01*
X62701263Y-49352050D02*
X62701263Y-49590145D01*
X61701263Y-48161574D02*
X61701263Y-48352050D01*
X61701263Y-48352050D02*
X61748882Y-48447288D01*
X61748882Y-48447288D02*
X61796501Y-48494907D01*
X61796501Y-48494907D02*
X61939358Y-48590145D01*
X61939358Y-48590145D02*
X62129834Y-48637764D01*
X62129834Y-48637764D02*
X62510786Y-48637764D01*
X62510786Y-48637764D02*
X62606024Y-48590145D01*
X62606024Y-48590145D02*
X62653644Y-48542526D01*
X62653644Y-48542526D02*
X62701263Y-48447288D01*
X62701263Y-48447288D02*
X62701263Y-48256812D01*
X62701263Y-48256812D02*
X62653644Y-48161574D01*
X62653644Y-48161574D02*
X62606024Y-48113955D01*
X62606024Y-48113955D02*
X62510786Y-48066336D01*
X62510786Y-48066336D02*
X62272691Y-48066336D01*
X62272691Y-48066336D02*
X62177453Y-48113955D01*
X62177453Y-48113955D02*
X62129834Y-48161574D01*
X62129834Y-48161574D02*
X62082215Y-48256812D01*
X62082215Y-48256812D02*
X62082215Y-48447288D01*
X62082215Y-48447288D02*
X62129834Y-48542526D01*
X62129834Y-48542526D02*
X62177453Y-48590145D01*
X62177453Y-48590145D02*
X62272691Y-48637764D01*
X58951905Y-70154819D02*
X58951905Y-69154819D01*
X58951905Y-69154819D02*
X59190000Y-69154819D01*
X59190000Y-69154819D02*
X59332857Y-69202438D01*
X59332857Y-69202438D02*
X59428095Y-69297676D01*
X59428095Y-69297676D02*
X59475714Y-69392914D01*
X59475714Y-69392914D02*
X59523333Y-69583390D01*
X59523333Y-69583390D02*
X59523333Y-69726247D01*
X59523333Y-69726247D02*
X59475714Y-69916723D01*
X59475714Y-69916723D02*
X59428095Y-70011961D01*
X59428095Y-70011961D02*
X59332857Y-70107200D01*
X59332857Y-70107200D02*
X59190000Y-70154819D01*
X59190000Y-70154819D02*
X58951905Y-70154819D01*
X59904286Y-69250057D02*
X59951905Y-69202438D01*
X59951905Y-69202438D02*
X60047143Y-69154819D01*
X60047143Y-69154819D02*
X60285238Y-69154819D01*
X60285238Y-69154819D02*
X60380476Y-69202438D01*
X60380476Y-69202438D02*
X60428095Y-69250057D01*
X60428095Y-69250057D02*
X60475714Y-69345295D01*
X60475714Y-69345295D02*
X60475714Y-69440533D01*
X60475714Y-69440533D02*
X60428095Y-69583390D01*
X60428095Y-69583390D02*
X59856667Y-70154819D01*
X59856667Y-70154819D02*
X60475714Y-70154819D01*
X51424819Y-73826666D02*
X50948628Y-74159999D01*
X51424819Y-74398094D02*
X50424819Y-74398094D01*
X50424819Y-74398094D02*
X50424819Y-74017142D01*
X50424819Y-74017142D02*
X50472438Y-73921904D01*
X50472438Y-73921904D02*
X50520057Y-73874285D01*
X50520057Y-73874285D02*
X50615295Y-73826666D01*
X50615295Y-73826666D02*
X50758152Y-73826666D01*
X50758152Y-73826666D02*
X50853390Y-73874285D01*
X50853390Y-73874285D02*
X50901009Y-73921904D01*
X50901009Y-73921904D02*
X50948628Y-74017142D01*
X50948628Y-74017142D02*
X50948628Y-74398094D01*
X50520057Y-73445713D02*
X50472438Y-73398094D01*
X50472438Y-73398094D02*
X50424819Y-73302856D01*
X50424819Y-73302856D02*
X50424819Y-73064761D01*
X50424819Y-73064761D02*
X50472438Y-72969523D01*
X50472438Y-72969523D02*
X50520057Y-72921904D01*
X50520057Y-72921904D02*
X50615295Y-72874285D01*
X50615295Y-72874285D02*
X50710533Y-72874285D01*
X50710533Y-72874285D02*
X50853390Y-72921904D01*
X50853390Y-72921904D02*
X51424819Y-73493332D01*
X51424819Y-73493332D02*
X51424819Y-72874285D01*
X60793333Y-94604819D02*
X60460000Y-94128628D01*
X60221905Y-94604819D02*
X60221905Y-93604819D01*
X60221905Y-93604819D02*
X60602857Y-93604819D01*
X60602857Y-93604819D02*
X60698095Y-93652438D01*
X60698095Y-93652438D02*
X60745714Y-93700057D01*
X60745714Y-93700057D02*
X60793333Y-93795295D01*
X60793333Y-93795295D02*
X60793333Y-93938152D01*
X60793333Y-93938152D02*
X60745714Y-94033390D01*
X60745714Y-94033390D02*
X60698095Y-94081009D01*
X60698095Y-94081009D02*
X60602857Y-94128628D01*
X60602857Y-94128628D02*
X60221905Y-94128628D01*
X61650476Y-93938152D02*
X61650476Y-94604819D01*
X61412381Y-93557200D02*
X61174286Y-94271485D01*
X61174286Y-94271485D02*
X61793333Y-94271485D01*
X58951905Y-59994819D02*
X58951905Y-58994819D01*
X58951905Y-58994819D02*
X59190000Y-58994819D01*
X59190000Y-58994819D02*
X59332857Y-59042438D01*
X59332857Y-59042438D02*
X59428095Y-59137676D01*
X59428095Y-59137676D02*
X59475714Y-59232914D01*
X59475714Y-59232914D02*
X59523333Y-59423390D01*
X59523333Y-59423390D02*
X59523333Y-59566247D01*
X59523333Y-59566247D02*
X59475714Y-59756723D01*
X59475714Y-59756723D02*
X59428095Y-59851961D01*
X59428095Y-59851961D02*
X59332857Y-59947200D01*
X59332857Y-59947200D02*
X59190000Y-59994819D01*
X59190000Y-59994819D02*
X58951905Y-59994819D01*
X60475714Y-59994819D02*
X59904286Y-59994819D01*
X60190000Y-59994819D02*
X60190000Y-58994819D01*
X60190000Y-58994819D02*
X60094762Y-59137676D01*
X60094762Y-59137676D02*
X59999524Y-59232914D01*
X59999524Y-59232914D02*
X59904286Y-59280533D01*
X51424819Y-61126666D02*
X50948628Y-61459999D01*
X51424819Y-61698094D02*
X50424819Y-61698094D01*
X50424819Y-61698094D02*
X50424819Y-61317142D01*
X50424819Y-61317142D02*
X50472438Y-61221904D01*
X50472438Y-61221904D02*
X50520057Y-61174285D01*
X50520057Y-61174285D02*
X50615295Y-61126666D01*
X50615295Y-61126666D02*
X50758152Y-61126666D01*
X50758152Y-61126666D02*
X50853390Y-61174285D01*
X50853390Y-61174285D02*
X50901009Y-61221904D01*
X50901009Y-61221904D02*
X50948628Y-61317142D01*
X50948628Y-61317142D02*
X50948628Y-61698094D01*
X51424819Y-60174285D02*
X51424819Y-60745713D01*
X51424819Y-60459999D02*
X50424819Y-60459999D01*
X50424819Y-60459999D02*
X50567676Y-60555237D01*
X50567676Y-60555237D02*
X50662914Y-60650475D01*
X50662914Y-60650475D02*
X50710533Y-60745713D01*
X83228095Y-95974819D02*
X83228095Y-96784342D01*
X83228095Y-96784342D02*
X83275714Y-96879580D01*
X83275714Y-96879580D02*
X83323333Y-96927200D01*
X83323333Y-96927200D02*
X83418571Y-96974819D01*
X83418571Y-96974819D02*
X83609047Y-96974819D01*
X83609047Y-96974819D02*
X83704285Y-96927200D01*
X83704285Y-96927200D02*
X83751904Y-96879580D01*
X83751904Y-96879580D02*
X83799523Y-96784342D01*
X83799523Y-96784342D02*
X83799523Y-95974819D01*
X84228095Y-96927200D02*
X84370952Y-96974819D01*
X84370952Y-96974819D02*
X84609047Y-96974819D01*
X84609047Y-96974819D02*
X84704285Y-96927200D01*
X84704285Y-96927200D02*
X84751904Y-96879580D01*
X84751904Y-96879580D02*
X84799523Y-96784342D01*
X84799523Y-96784342D02*
X84799523Y-96689104D01*
X84799523Y-96689104D02*
X84751904Y-96593866D01*
X84751904Y-96593866D02*
X84704285Y-96546247D01*
X84704285Y-96546247D02*
X84609047Y-96498628D01*
X84609047Y-96498628D02*
X84418571Y-96451009D01*
X84418571Y-96451009D02*
X84323333Y-96403390D01*
X84323333Y-96403390D02*
X84275714Y-96355771D01*
X84275714Y-96355771D02*
X84228095Y-96260533D01*
X84228095Y-96260533D02*
X84228095Y-96165295D01*
X84228095Y-96165295D02*
X84275714Y-96070057D01*
X84275714Y-96070057D02*
X84323333Y-96022438D01*
X84323333Y-96022438D02*
X84418571Y-95974819D01*
X84418571Y-95974819D02*
X84656666Y-95974819D01*
X84656666Y-95974819D02*
X84799523Y-96022438D01*
X85561428Y-96451009D02*
X85704285Y-96498628D01*
X85704285Y-96498628D02*
X85751904Y-96546247D01*
X85751904Y-96546247D02*
X85799523Y-96641485D01*
X85799523Y-96641485D02*
X85799523Y-96784342D01*
X85799523Y-96784342D02*
X85751904Y-96879580D01*
X85751904Y-96879580D02*
X85704285Y-96927200D01*
X85704285Y-96927200D02*
X85609047Y-96974819D01*
X85609047Y-96974819D02*
X85228095Y-96974819D01*
X85228095Y-96974819D02*
X85228095Y-95974819D01*
X85228095Y-95974819D02*
X85561428Y-95974819D01*
X85561428Y-95974819D02*
X85656666Y-96022438D01*
X85656666Y-96022438D02*
X85704285Y-96070057D01*
X85704285Y-96070057D02*
X85751904Y-96165295D01*
X85751904Y-96165295D02*
X85751904Y-96260533D01*
X85751904Y-96260533D02*
X85704285Y-96355771D01*
X85704285Y-96355771D02*
X85656666Y-96403390D01*
X85656666Y-96403390D02*
X85561428Y-96451009D01*
X85561428Y-96451009D02*
X85228095Y-96451009D01*
X58951905Y-82854819D02*
X58951905Y-81854819D01*
X58951905Y-81854819D02*
X59190000Y-81854819D01*
X59190000Y-81854819D02*
X59332857Y-81902438D01*
X59332857Y-81902438D02*
X59428095Y-81997676D01*
X59428095Y-81997676D02*
X59475714Y-82092914D01*
X59475714Y-82092914D02*
X59523333Y-82283390D01*
X59523333Y-82283390D02*
X59523333Y-82426247D01*
X59523333Y-82426247D02*
X59475714Y-82616723D01*
X59475714Y-82616723D02*
X59428095Y-82711961D01*
X59428095Y-82711961D02*
X59332857Y-82807200D01*
X59332857Y-82807200D02*
X59190000Y-82854819D01*
X59190000Y-82854819D02*
X58951905Y-82854819D01*
X59856667Y-81854819D02*
X60475714Y-81854819D01*
X60475714Y-81854819D02*
X60142381Y-82235771D01*
X60142381Y-82235771D02*
X60285238Y-82235771D01*
X60285238Y-82235771D02*
X60380476Y-82283390D01*
X60380476Y-82283390D02*
X60428095Y-82331009D01*
X60428095Y-82331009D02*
X60475714Y-82426247D01*
X60475714Y-82426247D02*
X60475714Y-82664342D01*
X60475714Y-82664342D02*
X60428095Y-82759580D01*
X60428095Y-82759580D02*
X60380476Y-82807200D01*
X60380476Y-82807200D02*
X60285238Y-82854819D01*
X60285238Y-82854819D02*
X59999524Y-82854819D01*
X59999524Y-82854819D02*
X59904286Y-82807200D01*
X59904286Y-82807200D02*
X59856667Y-82759580D01*
X51424819Y-86526666D02*
X50948628Y-86859999D01*
X51424819Y-87098094D02*
X50424819Y-87098094D01*
X50424819Y-87098094D02*
X50424819Y-86717142D01*
X50424819Y-86717142D02*
X50472438Y-86621904D01*
X50472438Y-86621904D02*
X50520057Y-86574285D01*
X50520057Y-86574285D02*
X50615295Y-86526666D01*
X50615295Y-86526666D02*
X50758152Y-86526666D01*
X50758152Y-86526666D02*
X50853390Y-86574285D01*
X50853390Y-86574285D02*
X50901009Y-86621904D01*
X50901009Y-86621904D02*
X50948628Y-86717142D01*
X50948628Y-86717142D02*
X50948628Y-87098094D01*
X50424819Y-86193332D02*
X50424819Y-85574285D01*
X50424819Y-85574285D02*
X50805771Y-85907618D01*
X50805771Y-85907618D02*
X50805771Y-85764761D01*
X50805771Y-85764761D02*
X50853390Y-85669523D01*
X50853390Y-85669523D02*
X50901009Y-85621904D01*
X50901009Y-85621904D02*
X50996247Y-85574285D01*
X50996247Y-85574285D02*
X51234342Y-85574285D01*
X51234342Y-85574285D02*
X51329580Y-85621904D01*
X51329580Y-85621904D02*
X51377200Y-85669523D01*
X51377200Y-85669523D02*
X51424819Y-85764761D01*
X51424819Y-85764761D02*
X51424819Y-86050475D01*
X51424819Y-86050475D02*
X51377200Y-86145713D01*
X51377200Y-86145713D02*
X51329580Y-86193332D01*
D12*
X65000000Y-43180000D02*
X64230000Y-43180000D01*
X56920000Y-43180000D02*
X57690000Y-43180000D01*
X57690000Y-41810000D02*
X57690000Y-44550000D01*
X64230000Y-44550000D02*
X64230000Y-41810000D01*
X57690000Y-44550000D02*
X64230000Y-44550000D01*
X64230000Y-41810000D02*
X57690000Y-41810000D01*
X60550000Y-48980000D02*
G75*
G03*
X60550000Y-48980000I-2500000J0D01*
G01*
X61039999Y-48980462D02*
G75*
G03*
X55490001Y-47435170I-2989999J462D01*
G01*
X55490000Y-50524830D02*
G75*
G03*
X61040000Y-48979538I2560000J1544830D01*
G01*
X55490000Y-47435000D02*
X55490000Y-50525000D01*
X78040000Y-45720000D02*
X78950000Y-45720000D01*
X78950000Y-43000000D02*
X78950000Y-48440000D01*
X78950000Y-48440000D02*
X88690000Y-48440000D01*
X80375000Y-43000000D02*
X80375000Y-48440000D01*
X80495000Y-43000000D02*
X80495000Y-48440000D01*
X80615000Y-43000000D02*
X80615000Y-48440000D01*
X88690000Y-43000000D02*
X78950000Y-43000000D01*
X88690000Y-48440000D02*
X88690000Y-43000000D01*
X89600000Y-45720000D02*
X88690000Y-45720000D01*
X79950000Y-53340000D02*
X79950000Y-52010000D01*
X79950000Y-52010000D02*
X81280000Y-52010000D01*
X82550000Y-54670000D02*
X90230000Y-54670000D01*
X82550000Y-54670000D02*
X82550000Y-52010000D01*
X82550000Y-52010000D02*
X90230000Y-52010000D01*
X90230000Y-54670000D02*
X90230000Y-52010000D01*
X102930000Y-46930000D02*
X102930000Y-48260000D01*
X100270000Y-49530000D02*
X102930000Y-49530000D01*
X102930000Y-49530000D02*
X102930000Y-67370000D01*
X100270000Y-67370000D02*
X102930000Y-67370000D01*
X100270000Y-49530000D02*
X100270000Y-67370000D01*
X101600000Y-46930000D02*
X102930000Y-46930000D01*
X100270000Y-92770000D02*
X100270000Y-91440000D01*
X102930000Y-90170000D02*
X102930000Y-69790000D01*
X102930000Y-69790000D02*
X100270000Y-69790000D01*
X102930000Y-90170000D02*
X100270000Y-90170000D01*
X100270000Y-90170000D02*
X100270000Y-69790000D01*
X101600000Y-92770000D02*
X100270000Y-92770000D01*
X67250000Y-59630000D02*
X68580000Y-59630000D01*
X67250000Y-60960000D02*
X67250000Y-59630000D01*
X67250000Y-62230000D02*
X67250000Y-67370000D01*
X67250000Y-62230000D02*
X69910000Y-62230000D01*
X67250000Y-67370000D02*
X69910000Y-67370000D01*
X69910000Y-62230000D02*
X69910000Y-67370000D01*
X67250000Y-82490000D02*
X68580000Y-82490000D01*
X67250000Y-83820000D02*
X67250000Y-82490000D01*
X67250000Y-85090000D02*
X67250000Y-90230000D01*
X67250000Y-85090000D02*
X69910000Y-85090000D01*
X67250000Y-90230000D02*
X69910000Y-90230000D01*
X69910000Y-85090000D02*
X69910000Y-90230000D01*
X57130000Y-72115000D02*
X57130000Y-75205000D01*
X62679999Y-73660462D02*
G75*
G03*
X57130001Y-72115170I-2989999J462D01*
G01*
X57130000Y-75204830D02*
G75*
G03*
X62680000Y-73659538I2560000J1544830D01*
G01*
X62190000Y-73660000D02*
G75*
G03*
X62190000Y-73660000I-2500000J0D01*
G01*
X53340000Y-77700000D02*
X53340000Y-76930000D01*
X51970000Y-76930000D02*
X54710000Y-76930000D01*
X54710000Y-76930000D02*
X54710000Y-70390000D01*
X51970000Y-70390000D02*
X51970000Y-76930000D01*
X54710000Y-70390000D02*
X51970000Y-70390000D01*
X53340000Y-69620000D02*
X53340000Y-70390000D01*
X56920000Y-96520000D02*
X57690000Y-96520000D01*
X57690000Y-95150000D02*
X57690000Y-97890000D01*
X57690000Y-97890000D02*
X64230000Y-97890000D01*
X64230000Y-95150000D02*
X57690000Y-95150000D01*
X64230000Y-97890000D02*
X64230000Y-95150000D01*
X65000000Y-96520000D02*
X64230000Y-96520000D01*
X57130000Y-61955000D02*
X57130000Y-65045000D01*
X62679999Y-63500462D02*
G75*
G03*
X57130001Y-61955170I-2989999J462D01*
G01*
X57130000Y-65044830D02*
G75*
G03*
X62680000Y-63499538I2560000J1544830D01*
G01*
X62190000Y-63500000D02*
G75*
G03*
X62190000Y-63500000I-2500000J0D01*
G01*
X67925000Y-94975000D02*
X67925000Y-95440000D01*
X67925000Y-97600000D02*
X67925000Y-98065000D01*
X73272814Y-95439173D02*
G75*
G03*
X67925001Y-94975170I-2787814J-1080827D01*
G01*
X72739478Y-95439572D02*
G75*
G03*
X68230317Y-95440000I-2254478J-1080428D01*
G01*
X68230316Y-97600000D02*
G75*
G03*
X72739479Y-97600429I2254684J1080000D01*
G01*
X67925001Y-98064830D02*
G75*
G03*
X73272814Y-97600827I2559999J1544830D01*
G01*
X67310000Y-52010000D02*
X64710000Y-52010000D01*
X67310000Y-52010000D02*
X67310000Y-54670000D01*
X64710000Y-52010000D02*
X64710000Y-54670000D01*
X69910000Y-53340000D02*
X69910000Y-54670000D01*
X69910000Y-54670000D02*
X68580000Y-54670000D01*
X67310000Y-54670000D02*
X64710000Y-54670000D01*
X53340000Y-65000000D02*
X53340000Y-64230000D01*
X51970000Y-64230000D02*
X54710000Y-64230000D01*
X54710000Y-64230000D02*
X54710000Y-57690000D01*
X51970000Y-57690000D02*
X51970000Y-64230000D01*
X54710000Y-57690000D02*
X51970000Y-57690000D01*
X53340000Y-56920000D02*
X53340000Y-57690000D01*
X75470000Y-57020000D02*
X75470000Y-59690000D01*
X75470000Y-62230000D02*
X75470000Y-100460000D01*
X75470000Y-100460000D02*
X80550000Y-100460000D01*
X78140000Y-59690000D02*
X75470000Y-59690000D01*
X78140000Y-62230000D02*
X75470000Y-62230000D01*
X78140000Y-62230000D02*
X78140000Y-59690000D01*
X78140000Y-62230000D02*
X78140000Y-97790000D01*
X78140000Y-97790000D02*
X75470000Y-97790000D01*
X80550000Y-92580000D02*
X88430000Y-92580000D01*
X80550000Y-103000000D02*
X80550000Y-92580000D01*
X88430000Y-92580000D02*
X88430000Y-103000000D01*
X88430000Y-103000000D02*
X80550000Y-103000000D01*
X90840000Y-59690000D02*
X90840000Y-97790000D01*
X90840000Y-59690000D02*
X93510000Y-59690000D01*
X90840000Y-97790000D02*
X93510000Y-97790000D01*
X93510000Y-57020000D02*
X75470000Y-57020000D01*
X93510000Y-100460000D02*
X88430000Y-100460000D01*
X93510000Y-100460000D02*
X93510000Y-57020000D01*
X67250000Y-69790000D02*
X68580000Y-69790000D01*
X67250000Y-71120000D02*
X67250000Y-69790000D01*
X67250000Y-72390000D02*
X67250000Y-77530000D01*
X67250000Y-72390000D02*
X69910000Y-72390000D01*
X67250000Y-77530000D02*
X69910000Y-77530000D01*
X69910000Y-72390000D02*
X69910000Y-77530000D01*
X57130000Y-84815000D02*
X57130000Y-87905000D01*
X62679999Y-86360462D02*
G75*
G03*
X57130001Y-84815170I-2989999J462D01*
G01*
X57130000Y-87904830D02*
G75*
G03*
X62680000Y-86359538I2560000J1544830D01*
G01*
X62190000Y-86360000D02*
G75*
G03*
X62190000Y-86360000I-2500000J0D01*
G01*
X53340000Y-90400000D02*
X53340000Y-89630000D01*
X51970000Y-89630000D02*
X54710000Y-89630000D01*
X54710000Y-89630000D02*
X54710000Y-83090000D01*
X51970000Y-83090000D02*
X51970000Y-89630000D01*
X54710000Y-83090000D02*
X51970000Y-83090000D01*
X53340000Y-82320000D02*
X53340000Y-83090000D01*
%LPC*%
D13*
X55880000Y-43180000D03*
D14*
X66040000Y-43180000D03*
D15*
X59320000Y-48980000D03*
D16*
X56780000Y-48980000D03*
D17*
X76200000Y-45720000D03*
D18*
X91440000Y-45720000D03*
D19*
X81280000Y-53340000D03*
D20*
X83820000Y-53340000D03*
X86360000Y-53340000D03*
X88900000Y-53340000D03*
D19*
X101600000Y-48260000D03*
D20*
X101600000Y-50800000D03*
X101600000Y-53340000D03*
X101600000Y-55880000D03*
X101600000Y-58420000D03*
X101600000Y-60960000D03*
X101600000Y-63500000D03*
X101600000Y-66040000D03*
D19*
X101600000Y-91440000D03*
D20*
X101600000Y-88900000D03*
X101600000Y-86360000D03*
X101600000Y-83820000D03*
X101600000Y-81280000D03*
X101600000Y-78740000D03*
X101600000Y-76200000D03*
X101600000Y-73660000D03*
X101600000Y-71120000D03*
D21*
X50800000Y-43180000D03*
D19*
X68580000Y-60960000D03*
D20*
X68580000Y-63500000D03*
X68580000Y-66040000D03*
D19*
X68580000Y-83820000D03*
D20*
X68580000Y-86360000D03*
X68580000Y-88900000D03*
D16*
X58420000Y-73660000D03*
D15*
X60960000Y-73660000D03*
D13*
X53340000Y-78740000D03*
D14*
X53340000Y-68580000D03*
D13*
X55880000Y-96520000D03*
D14*
X66040000Y-96520000D03*
D21*
X106680000Y-43180000D03*
D16*
X58420000Y-63500000D03*
D15*
X60960000Y-63500000D03*
D21*
X50800000Y-99060000D03*
D22*
X68580000Y-96520000D03*
D23*
X69850000Y-96520000D03*
X71120000Y-96520000D03*
X72390000Y-96520000D03*
D19*
X68580000Y-53340000D03*
D20*
X66040000Y-53340000D03*
D13*
X53340000Y-66040000D03*
D14*
X53340000Y-55880000D03*
D24*
X76870000Y-60960000D03*
D14*
X76870000Y-63500000D03*
X76870000Y-66040000D03*
X76870000Y-68580000D03*
X76870000Y-71120000D03*
X76870000Y-73660000D03*
X76870000Y-76200000D03*
X76870000Y-78740000D03*
X76870000Y-81280000D03*
X76870000Y-83820000D03*
X76870000Y-86360000D03*
X76870000Y-88900000D03*
X76870000Y-91440000D03*
X76870000Y-93980000D03*
X76870000Y-96520000D03*
X92110000Y-96520000D03*
X92110000Y-93980000D03*
X92110000Y-91440000D03*
X92110000Y-88900000D03*
X92110000Y-86360000D03*
X92110000Y-83820000D03*
X92110000Y-81280000D03*
X92110000Y-78740000D03*
X92110000Y-76200000D03*
X92110000Y-73660000D03*
X92110000Y-71120000D03*
X92110000Y-68580000D03*
X92110000Y-66040000D03*
X92110000Y-63500000D03*
X92110000Y-60960000D03*
D19*
X68580000Y-71120000D03*
D20*
X68580000Y-73660000D03*
X68580000Y-76200000D03*
D21*
X106680000Y-99060000D03*
D16*
X58420000Y-86360000D03*
D15*
X60960000Y-86360000D03*
D13*
X53340000Y-91440000D03*
D14*
X53340000Y-81280000D03*
%LPD*%
M02*
