%TF.GenerationSoftware,KiCad,Pcbnew,7.0.5*%
%TF.CreationDate,2023-10-17T21:19:38+10:00*%
%TF.ProjectId,Test Stand,54657374-2053-4746-916e-642e6b696361,rev?*%
%TF.SameCoordinates,Original*%
%TF.FileFunction,Copper,L1,Top*%
%TF.FilePolarity,Positive*%
%FSLAX46Y46*%
G04 Gerber Fmt 4.6, Leading zero omitted, Abs format (unit mm)*
G04 Created by KiCad (PCBNEW 7.0.5) date 2023-10-17 21:19:38*
%MOMM*%
%LPD*%
G01*
G04 APERTURE LIST*
%TA.AperFunction,ComponentPad*%
%ADD10C,1.600000*%
%TD*%
%TA.AperFunction,ComponentPad*%
%ADD11O,1.600000X1.600000*%
%TD*%
%TA.AperFunction,ComponentPad*%
%ADD12C,1.800000*%
%TD*%
%TA.AperFunction,ComponentPad*%
%ADD13R,1.800000X1.800000*%
%TD*%
%TA.AperFunction,ComponentPad*%
%ADD14R,3.200000X3.200000*%
%TD*%
%TA.AperFunction,ComponentPad*%
%ADD15O,3.200000X3.200000*%
%TD*%
%TA.AperFunction,ComponentPad*%
%ADD16R,1.700000X1.700000*%
%TD*%
%TA.AperFunction,ComponentPad*%
%ADD17O,1.700000X1.700000*%
%TD*%
%TA.AperFunction,ComponentPad*%
%ADD18C,3.800000*%
%TD*%
%TA.AperFunction,ComponentPad*%
%ADD19R,1.070000X1.800000*%
%TD*%
%TA.AperFunction,ComponentPad*%
%ADD20O,1.070000X1.800000*%
%TD*%
%TA.AperFunction,ComponentPad*%
%ADD21R,1.600000X1.600000*%
%TD*%
%TA.AperFunction,Conductor*%
%ADD22C,0.250000*%
%TD*%
G04 APERTURE END LIST*
D10*
X55880000Y-43180000D03*
D11*
X66040000Y-43180000D03*
D12*
X59320000Y-48980000D03*
D13*
X56780000Y-48980000D03*
D14*
X76200000Y-45720000D03*
D15*
X91440000Y-45720000D03*
D16*
X81280000Y-53340000D03*
D17*
X83820000Y-53340000D03*
X86360000Y-53340000D03*
X88900000Y-53340000D03*
D16*
X101600000Y-48260000D03*
D17*
X101600000Y-50800000D03*
X101600000Y-53340000D03*
X101600000Y-55880000D03*
X101600000Y-58420000D03*
X101600000Y-60960000D03*
X101600000Y-63500000D03*
X101600000Y-66040000D03*
D16*
X101600000Y-91440000D03*
D17*
X101600000Y-88900000D03*
X101600000Y-86360000D03*
X101600000Y-83820000D03*
X101600000Y-81280000D03*
X101600000Y-78740000D03*
X101600000Y-76200000D03*
X101600000Y-73660000D03*
X101600000Y-71120000D03*
D18*
X50800000Y-43180000D03*
D16*
X68580000Y-60960000D03*
D17*
X68580000Y-63500000D03*
X68580000Y-66040000D03*
D16*
X68580000Y-83820000D03*
D17*
X68580000Y-86360000D03*
X68580000Y-88900000D03*
D13*
X58420000Y-73660000D03*
D12*
X60960000Y-73660000D03*
D10*
X53340000Y-78740000D03*
D11*
X53340000Y-68580000D03*
D10*
X55880000Y-96520000D03*
D11*
X66040000Y-96520000D03*
D18*
X106680000Y-43180000D03*
D13*
X58420000Y-63500000D03*
D12*
X60960000Y-63500000D03*
D18*
X50800000Y-99060000D03*
D19*
X68580000Y-96520000D03*
D20*
X69850000Y-96520000D03*
X71120000Y-96520000D03*
X72390000Y-96520000D03*
D16*
X68580000Y-53340000D03*
D17*
X66040000Y-53340000D03*
D10*
X53340000Y-66040000D03*
D11*
X53340000Y-55880000D03*
D21*
X76870000Y-60960000D03*
D11*
X76870000Y-63500000D03*
X76870000Y-66040000D03*
X76870000Y-68580000D03*
X76870000Y-71120000D03*
X76870000Y-73660000D03*
X76870000Y-76200000D03*
X76870000Y-78740000D03*
X76870000Y-81280000D03*
X76870000Y-83820000D03*
X76870000Y-86360000D03*
X76870000Y-88900000D03*
X76870000Y-91440000D03*
X76870000Y-93980000D03*
X76870000Y-96520000D03*
X92110000Y-96520000D03*
X92110000Y-93980000D03*
X92110000Y-91440000D03*
X92110000Y-88900000D03*
X92110000Y-86360000D03*
X92110000Y-83820000D03*
X92110000Y-81280000D03*
X92110000Y-78740000D03*
X92110000Y-76200000D03*
X92110000Y-73660000D03*
X92110000Y-71120000D03*
X92110000Y-68580000D03*
X92110000Y-66040000D03*
X92110000Y-63500000D03*
X92110000Y-60960000D03*
D16*
X68580000Y-71120000D03*
D17*
X68580000Y-73660000D03*
X68580000Y-76200000D03*
D18*
X106680000Y-99060000D03*
D13*
X58420000Y-86360000D03*
D12*
X60960000Y-86360000D03*
D10*
X53340000Y-91440000D03*
D11*
X53340000Y-81280000D03*
D22*
X62580000Y-43180000D02*
X66040000Y-43180000D01*
X56780000Y-48980000D02*
X62580000Y-43180000D01*
X62580000Y-45720000D02*
X59320000Y-48980000D01*
X76200000Y-45720000D02*
X62580000Y-45720000D01*
X67215000Y-54515000D02*
X66040000Y-53340000D01*
X87725000Y-54515000D02*
X67215000Y-54515000D01*
X88900000Y-53340000D02*
X87725000Y-54515000D01*
X75745000Y-59835000D02*
X75745000Y-62375000D01*
X88752208Y-59835000D02*
X75745000Y-59835000D01*
X75745000Y-62375000D02*
X76870000Y-63500000D01*
X100327208Y-48260000D02*
X88752208Y-59835000D01*
X101600000Y-48260000D02*
X100327208Y-48260000D01*
X98423604Y-50800000D02*
X88263604Y-60960000D01*
X88263604Y-60960000D02*
X76870000Y-60960000D01*
X101600000Y-50800000D02*
X98423604Y-50800000D01*
X96520000Y-53340000D02*
X101600000Y-53340000D01*
X89185000Y-60675000D02*
X96520000Y-53340000D01*
X89185000Y-66425000D02*
X89185000Y-60675000D01*
X76870000Y-78740000D02*
X89185000Y-66425000D01*
X95599009Y-55880000D02*
X101600000Y-55880000D01*
X89635000Y-61844009D02*
X95599009Y-55880000D01*
X76870000Y-81280000D02*
X89635000Y-68515000D01*
X89635000Y-68515000D02*
X89635000Y-61844009D01*
X97645000Y-62375000D02*
X101600000Y-58420000D01*
X91644009Y-62375000D02*
X97645000Y-62375000D01*
X90085000Y-63934009D02*
X91644009Y-62375000D01*
X90085000Y-70605000D02*
X90085000Y-63934009D01*
X76870000Y-83820000D02*
X90085000Y-70605000D01*
X97645000Y-64915000D02*
X101600000Y-60960000D01*
X91644009Y-64915000D02*
X97645000Y-64915000D01*
X90535000Y-72695000D02*
X90535000Y-66024009D01*
X76870000Y-86360000D02*
X90535000Y-72695000D01*
X90535000Y-66024009D02*
X91644009Y-64915000D01*
X90985000Y-70654009D02*
X90985000Y-96520000D01*
X91934009Y-69705000D02*
X90985000Y-70654009D01*
X95395000Y-69705000D02*
X91934009Y-69705000D01*
X101600000Y-63500000D02*
X95395000Y-69705000D01*
X90985000Y-96520000D02*
X76870000Y-96520000D01*
X92110000Y-71120000D02*
X101600000Y-71120000D01*
X101600000Y-73660000D02*
X92110000Y-73660000D01*
X92110000Y-76200000D02*
X101600000Y-76200000D01*
X101600000Y-78740000D02*
X92110000Y-78740000D01*
X92110000Y-81280000D02*
X101600000Y-81280000D01*
X92110000Y-83820000D02*
X101600000Y-83820000D01*
X101600000Y-86360000D02*
X92110000Y-86360000D01*
X92110000Y-88900000D02*
X101600000Y-88900000D01*
X101600000Y-91440000D02*
X92110000Y-91440000D01*
X68580000Y-53340000D02*
X68580000Y-52030000D01*
X63500000Y-60960000D02*
X68580000Y-60960000D01*
X75745000Y-69995000D02*
X76870000Y-71120000D01*
X75745000Y-68125000D02*
X75745000Y-69995000D01*
X60960000Y-63500000D02*
X63500000Y-60960000D01*
X68580000Y-60960000D02*
X75745000Y-68125000D01*
X74330000Y-71120000D02*
X76870000Y-73660000D01*
X68580000Y-71120000D02*
X74330000Y-71120000D01*
X63500000Y-71120000D02*
X68580000Y-71120000D01*
X60960000Y-73660000D02*
X63500000Y-71120000D01*
X60960000Y-86360000D02*
X63500000Y-83820000D01*
X76870000Y-76200000D02*
X69250000Y-83820000D01*
X69250000Y-83820000D02*
X68580000Y-83820000D01*
X63500000Y-83820000D02*
X68580000Y-83820000D01*
X75835000Y-88900000D02*
X76870000Y-88900000D01*
X68580000Y-96155000D02*
X75835000Y-88900000D01*
X68580000Y-96520000D02*
X68580000Y-96155000D01*
X71120000Y-96155000D02*
X75835000Y-91440000D01*
X75835000Y-91440000D02*
X76870000Y-91440000D01*
X71120000Y-96520000D02*
X71120000Y-96155000D01*
X74330000Y-96520000D02*
X76870000Y-93980000D01*
X72390000Y-96520000D02*
X74330000Y-96520000D01*
X55880000Y-66040000D02*
X58420000Y-63500000D01*
X53340000Y-66040000D02*
X55880000Y-66040000D01*
X53340000Y-78740000D02*
X58420000Y-73660000D01*
X58420000Y-86360000D02*
X53340000Y-91440000D01*
X53340000Y-91440000D02*
X54465000Y-90315000D01*
M02*
